<?xml version="1.0" encoding="utf-8"?>
<!-- Generator: Adobe Illustrator 21.1.0, SVG Export Plug-In . SVG Version: 6.00 Build 0)  -->
<svg version="1.1" id="Layer_2" xmlns="http://www.w3.org/2000/svg" xmlns:xlink="http://www.w3.org/1999/xlink" x="0px" y="0px"
	 viewBox="0 0 37.2 39.7" style="enable-background:new 0 0 37.2 39.7;" xml:space="preserve">
<style type="text/css">
	.st0{fill:#0857A4;}
	.st1{fill:none;stroke:#76CBC2;stroke-width:0.5947;stroke-miterlimit:10;}
</style>
<g>
	<g>
		<path class="st0" d="M18.6,5.2c-8.1,0-14.6,6.6-14.6,14.6s6.6,14.7,14.6,14.7s14.7-6.6,14.7-14.7S26.7,5.2,18.6,5.2z M18.6,32.1
			c-6.8,0-12.3-5.5-12.3-12.3S11.9,7.5,18.6,7.5s12.3,5.5,12.3,12.3S25.4,32.1,18.6,32.1z"/>
	</g>
	<circle class="st0" cx="18.6" cy="27.2" r="1.4"/>
	<g>
		<g>
			<path class="st0" d="M17.4,24.2v-3.6c0-0.6,0.5-1,1-1c1.7,0,3.1-1.1,3.4-2.7c0.1-0.9-0.2-1.7-0.7-2.4c-0.6-0.7-1.3-1.1-2.2-1.1
				c-0.1,0-0.2,0-0.3,0c-1.6,0-2.9,1.1-3.2,2.7H13c0.1-2.4,1.9-4.5,4.3-5.1c0.4-0.1,0.9-0.2,1.4-0.2c2.5,0,4.8,1.8,5.4,4.3
				c0.7,3-1.1,5.9-4,6.8l-0.2,0.1v2.4H17.4z"/>
		</g>
	</g>
</g>
<circle class="st1" cx="18.6" cy="19.8" r="14.7"/>
<circle class="st1" cx="18.6" cy="27.3" r="1.5"/>
<circle class="st1" cx="18.6" cy="16.6" r="3.2"/>
<rect x="17.4" y="21.9" class="st1" width="2.5" height="2.5"/>
</svg>
