<?xml version="1.0" encoding="utf-8"?>
<!-- Generator: Adobe Illustrator 21.1.0, SVG Export Plug-In . SVG Version: 6.00 Build 0)  -->
<svg version="1.1" id="Layer_1" xmlns="http://www.w3.org/2000/svg" xmlns:xlink="http://www.w3.org/1999/xlink" x="0px" y="0px"
	 viewBox="0 0 37.2 39.7" style="enable-background:new 0 0 37.2 39.7;" xml:space="preserve">
<style type="text/css">
	.st0{display:none;}
	.st1{display:inline;}
	.st2{display:inline;fill:#010101;}
	.st3{fill:#666766;}
</style>
<g class="st0">
	<g class="st1">
		<path d="M18.6,1.8c-9.9,0-18,8.1-18,18s8.1,18.1,18,18.1s18.1-8.2,18.1-18.1S28.6,1.8,18.6,1.8z M18.6,34.9
			c-8.3,0-15.1-6.8-15.1-15.1S10.3,4.7,18.6,4.7s15.1,6.8,15.1,15.1S26.9,34.9,18.6,34.9z"/>
	</g>
	<circle class="st1" cx="18.6" cy="28" r="1.7"/>
	<path class="st1" d="M17.1,22.4V10.3c0-0.6,0.6-1.1,1.4-1.1S20,9.7,20,10.3v12c0,0.6-0.7,1.1-1.4,1.1S17.1,23,17.1,22.4z"/>
</g>
<g class="st0">
	<g class="st1">
		<path d="M18.6,1.8c-9.9,0-18,8.1-18,18s8.1,18.1,18,18.1s18.1-8.2,18.1-18.1S28.6,1.8,18.6,1.8z M18.6,34.9
			c-8.3,0-15.1-6.8-15.1-15.1S10.3,4.7,18.6,4.7s15.1,6.8,15.1,15.1S26.9,34.9,18.6,34.9z"/>
	</g>
	<path class="st2" d="M21.9,30.7c-1-0.5-1.6-1.5-1.6-2.6v-2.2c0,0,0.1-0.2,0.3-0.3c0.2-0.2,1-0.7,1.6-2l0.2-0.6c0,0,0.9-0.9,1.1-1.4
		c0.2-0.5,0.2-1.5,0-1.9c-0.2-0.4-0.8-1-0.8-1l0-3.8c0-0.1,0.1-1.1-0.6-1.9c-0.6-0.7-1.8-1.1-3.4-1.1c-1.6,0-2.8,0.4-3.4,1.1
		c-0.7,0.8-0.6,1.8-0.6,1.8l0,0.1l0,3.8c0,0-0.9,0.8-1.1,1.1c-0.2,0.3-0.2,1.5,0,1.9s1.1,1.4,1.1,1.4l0.1,0.5
		c0.4,1.1,1.3,1.9,1.5,2.1c0.2,0.2,0.3,0.3,0.3,0.3l0,2.2c0,1.1-0.6,2.1-1.5,2.6l-4.6,2.5l-2-1.6l5.7-3.2c0.2-0.1,0.3-0.3,0.3-0.4
		l0-1.6c-0.4-0.6-1.4-1.3-1.8-3c-0.5-0.5-1.1-1.2-1.1-1.9v-1.9c0-0.5,0.5-1.1,0.8-1.5v-3.3c0-0.3-0.1-2.1,1.2-3.6
		c1.1-1.3,2.9-1.9,5.3-1.9c2.4,0,4.1,0.7,5.3,1.9c1.3,1.5,1.2,3.3,1.2,3.7l0,3.2c0.3,0.4,0.7,1,0.7,1.5v1.9c0,0.9-0.9,1.5-1.4,2.2
		c-0.6,1.7-1.8,2.7-1.9,2.8v1.3c0,0.2,0.1,0.4,0.3,0.5l6.1,3.3l-1.9,1.6L21.9,30.7z"/>
</g>
<path class="st3" d="M28.1,20.9V4.8H4.1v30.1h11.1c0.8,0.1,1.4,0.8,1.3,1.6c-0.1,0.7-0.6,1.3-1.3,1.3H2.6c-0.8,0-1.4-0.6-1.4-1.4
	v-33c0-0.8,0.7-1.4,1.4-1.4h27c0.8,0,1.4,0.6,1.4,1.4v17.6c-0.1,0.8-0.8,1.4-1.6,1.3C28.8,22.2,28.2,21.6,28.1,20.9L28.1,20.9z
	 M35.6,24.4c-0.6-0.5-1.5-0.5-2,0.1l0,0l-7.9,8.8l-4-3.8c-0.5-0.6-1.4-0.7-2-0.2c-0.6,0.5-0.7,1.4-0.2,2c0.1,0.1,0.1,0.1,0.2,0.2
	l5.1,4.9c0.3,0.3,0.6,0.4,1,0.4h0c0.4,0,0.8-0.2,1-0.5l8.9-9.9C36.2,25.9,36.2,25,35.6,24.4C35.6,24.4,35.6,24.4,35.6,24.4
	L35.6,24.4z M22.8,10.3h-13c-0.8-0.1-1.5,0.5-1.6,1.3c-0.1,0.8,0.5,1.5,1.3,1.6c0.1,0,0.2,0,0.2,0h13c0.8-0.1,1.4-0.8,1.3-1.6
	C24.1,10.9,23.5,10.4,22.8,10.3z M24.3,19.7c0-0.8-0.6-1.4-1.4-1.4l0,0h-13c-0.8-0.1-1.5,0.5-1.6,1.3s0.5,1.5,1.3,1.6
	c0.1,0,0.2,0,0.2,0h13C23.6,21.1,24.3,20.5,24.3,19.7L24.3,19.7L24.3,19.7z M9.8,26c-0.8-0.1-1.5,0.5-1.6,1.3s0.5,1.5,1.3,1.6
	c0.1,0,0.2,0,0.2,0h3.8c0.8-0.1,1.4-0.8,1.3-1.6c-0.1-0.7-0.6-1.3-1.3-1.3H9.8z"/>
</svg>
