<?xml version="1.0" encoding="utf-8"?>
<!-- Generator: Adobe Illustrator 21.1.0, SVG Export Plug-In . SVG Version: 6.00 Build 0)  -->
<svg version="1.1" id="Layer_1" xmlns="http://www.w3.org/2000/svg" xmlns:xlink="http://www.w3.org/1999/xlink" x="0px" y="0px"
	 viewBox="0 0 37.2 39.7" style="enable-background:new 0 0 37.2 39.7;" xml:space="preserve">
<style type="text/css">
	.st0{fill:#0857A4;}
	.st1{fill:none;stroke:#76CBC2;stroke-width:0.5637;stroke-miterlimit:10;}
	.st2{fill:none;stroke:#76CBC2;stroke-width:0.5947;stroke-miterlimit:10;}
	.st3{fill:none;stroke:#76CBC2;stroke-width:0.5242;stroke-miterlimit:10;}
</style>
<g>
	<g>
		<g>
			<path class="st0" d="M16,36.4c-1.7,0-3.1-1.4-3.1-3.1v-6.4c-3.8-2-6.1-5.8-6.1-10c0-6.2,5.1-11.3,11.3-11.3s11.3,5.1,11.3,11.3
				c0,4.2-2.3,8.1-6.1,10v6.4c0,1.7-1.4,3.1-3.1,3.1H16z M15.3,33.5c0.1,0.3,0.4,0.6,0.7,0.6h4.2c0.4,0,0.6-0.2,0.7-0.6H15.3z
				 M21,31.1v-3.4c-0.9,0.2-1.9,0.4-2.9,0.4c-1,0-1.9-0.1-2.9-0.4v3.4H21z M17.5,25.7c0.2,0,0.4,0,0.6,0s0.4,0,0.6,0
				c0-1.3,0-3.4,0.8-5.4h-2.8C17.5,22.3,17.6,24.5,17.5,25.7z M18.1,7.9c-4.9,0-9,4-9,9c0,3.8,2.4,7.2,6,8.4c0-1.5-0.2-3.8-1.3-5.4
				c-0.3-0.4-0.3-0.8-0.1-1.2c0.2-0.4,0.6-0.6,1.1-0.6h6.6c0.4,0,0.8,0.2,1.1,0.6c0.2,0.4,0.2,0.9-0.1,1.2c-1.1,1.6-1.3,4-1.3,5.4
				c3.6-1.3,6-4.6,6-8.4C27.1,11.9,23.1,7.9,18.1,7.9z"/>
			<path class="st0" d="M6.7,9.1C6.4,9.1,6.1,9,5.8,8.7L3.4,6.3c-0.5-0.5-0.5-1.2,0-1.7c0.2-0.2,0.5-0.3,0.8-0.3
				c0.3,0,0.6,0.1,0.8,0.3l2.4,2.4c0.2,0.2,0.3,0.5,0.3,0.8c0,0.3-0.1,0.6-0.3,0.8C7.3,9,7,9.1,6.7,9.1z"/>
			<path class="st0" d="M29.6,9.1c-0.3,0-0.6-0.1-0.8-0.3c-0.2-0.2-0.3-0.5-0.3-0.8c0-0.3,0.1-0.6,0.3-0.8l2.4-2.4
				c0.2-0.2,0.5-0.3,0.8-0.3c0.3,0,0.6,0.1,0.8,0.3c0.2,0.2,0.3,0.5,0.3,0.8c0,0.3-0.1,0.6-0.3,0.8l-2.4,2.4
				C30.2,9,29.9,9.1,29.6,9.1z"/>
			<path class="st0" d="M32,29.3c-0.3,0-0.6-0.1-0.8-0.3l-2.4-2.4c-0.2-0.2-0.3-0.5-0.3-0.8s0.1-0.6,0.3-0.8
				c0.2-0.2,0.5-0.3,0.8-0.3c0.3,0,0.6,0.1,0.8,0.3l2.4,2.4c0.2,0.2,0.3,0.5,0.3,0.8c0,0.3-0.1,0.6-0.3,0.8
				C32.7,29.2,32.4,29.3,32,29.3z"/>
			<path class="st0" d="M4.2,29.3c-0.3,0-0.6-0.1-0.8-0.3c-0.5-0.5-0.5-1.2,0-1.7l2.4-2.4c0.2-0.2,0.5-0.3,0.8-0.3
				c0.3,0,0.6,0.1,0.8,0.3c0.5,0.5,0.5,1.2,0,1.7L5.1,29C4.9,29.2,4.6,29.3,4.2,29.3z"/>
		</g>
	</g>
</g>
<line class="st1" x1="7" y1="20.4" x2="7" y2="0.1"/>
<line class="st1" x1="9.3" y1="20.4" x2="9.3" y2="0.1"/>
<line class="st1" x1="27.1" y1="20.4" x2="27.1" y2="0.1"/>
<line class="st1" x1="29.4" y1="20.4" x2="29.4" y2="0.1"/>
<line class="st2" x1="11.9" y1="18" x2="24.5" y2="18"/>
<line class="st2" x1="11.9" y1="20.3" x2="24.5" y2="20.3"/>
<line class="st3" x1="28.9" y1="23.5" x2="36.9" y2="31.5"/>
<line class="st3" x1="27.3" y1="25.1" x2="35.3" y2="33.1"/>
</svg>
