<?xml version="1.0" encoding="utf-8"?>
<!-- Generator: Adobe Illustrator 21.1.0, SVG Export Plug-In . SVG Version: 6.00 Build 0)  -->
<svg version="1.1" id="Layer_3" xmlns="http://www.w3.org/2000/svg" xmlns:xlink="http://www.w3.org/1999/xlink" x="0px" y="0px"
	 viewBox="0 0 37.2 39.7" style="enable-background:new 0 0 37.2 39.7;" xml:space="preserve">
<style type="text/css">
	.st0{fill:#0857A4;}
	.st1{fill:none;stroke:#76CBC2;stroke-width:0.5;stroke-miterlimit:10;}
</style>
<g>
	<g>
		<g>
			<path class="st0" d="M5,31.2c-0.6,0-1.1-0.5-1.1-1.1V9.6C3.8,9,4.3,8.5,5,8.5h27.3c0.6,0,1.1,0.5,1.1,1.1v20.5
				c0,0.6-0.5,1.1-1.1,1.1H5z M30.4,29L22,20.3l1.6-1.6l7.6,7.9V10.7H6.1v15.8l7.6-7.9l1.6,1.6L7,29H30.4z"/>
		</g>
	</g>
	<g>
		<g>
			<path class="st0" d="M18.7,24.7c-0.3,0-0.6-0.1-0.8-0.4L5.1,11V9.8h2l11.5,12.1L30.1,9.8h2V11L19.5,24.3
				C19.2,24.6,18.9,24.7,18.7,24.7z"/>
		</g>
	</g>
</g>
<circle class="st1" cx="4.2" cy="9.1" r="3.3"/>
<circle class="st1" cx="18.7" cy="24.5" r="2.9"/>
</svg>
