<?xml version="1.0" encoding="UTF-8" standalone="no"?><!DOCTYPE svg PUBLIC "-//W3C//DTD SVG 1.1//EN" "http://www.w3.org/Graphics/SVG/1.1/DTD/svg11.dtd"><svg width="100%" height="100%" viewBox="0 0 900 500" version="1.1" xmlns="http://www.w3.org/2000/svg" xmlns:xlink="http://www.w3.org/1999/xlink" xml:space="preserve" xmlns:serif="http://www.serif.com/" style="fill-rule:evenodd;clip-rule:evenodd;stroke-linejoin:round;stroke-miterlimit:1.41421;"><rect id="background" x="-4.318" y="-5.098" width="909.381" height="509.785" style="fill:#fff;"/><g id="light"><path d="M116.162,282.079c-0.545,-0.828 1.081,-2.176 1.983,-1.707c0.624,0.324 0.916,1.479 1.15,2.407c0.048,0.177 -2.735,-0.097 -3.133,-0.7Zm13.904,0.696c0.305,-1.213 0.643,-2.501 1.552,-2.501c1.176,-0.001 1.934,1.26 1.58,1.799c-0.421,0.64 -2.306,0.678 -3.136,0.721c0.001,-0.006 0.002,-0.013 0.004,-0.019Zm-6.148,4.093c0,0.234 0.106,0.441 0.269,0.584l0.002,5.786l-0.698,0c-0.033,0.001 -0.066,0.002 -0.099,0.006c-0.676,-2.254 -2.432,-8.136 -2.824,-9.454c1.472,0.03 6.78,0.027 8.226,-0.003c-0.469,1.58 -1.955,6.569 -2.817,9.454c-0.025,-0.001 -0.048,-0.004 -0.074,-0.004l-0.697,0.001l-0.001,-5.786c0.163,-0.143 0.269,-0.35 0.269,-0.584c0,-0.43 -0.349,-0.777 -0.779,-0.777c-0.429,0 -0.778,0.347 -0.777,0.777Zm3.014,13.564l-0.002,-6.168c0,-0.175 -0.044,-0.339 -0.121,-0.484c0.893,-2.985 2.546,-8.536 2.986,-10.022c1.609,-0.062 3.503,-0.109 4.196,-1.159c1.098,-1.662 -1.462,-3.988 -3.215,-3.076c-1.089,0.568 -1.408,2.149 -1.706,3.306c-1.966,0.05 -6.821,0.052 -8.78,0.003c-0.312,-1.206 -0.861,-4.317 -3.484,-3.316c-1.589,0.608 -1.994,2.247 -1.438,3.088c0.7,1.059 2.617,1.096 4.198,1.158c1.147,3.843 1.774,5.955 3.004,10.056c-0.065,0.135 -0.103,0.286 -0.103,0.447l0.002,6.168l-1.162,0c-1.046,-2.987 -2.781,-5.168 -4.49,-7.302c-2.546,-3.181 -4.349,-5.595 -4.152,-9.761c0.153,-3.234 1.422,-6.236 3.572,-8.452c2.239,-2.306 5.162,-3.526 8.454,-3.527c2.483,0 4.829,0.723 6.782,2.093c3.199,2.244 5.063,5.957 5.251,9.877c0.206,4.28 -1.82,6.831 -4.164,9.785c-1.612,2.029 -3.412,4.297 -4.464,7.285l-1.164,0.001Zm2.759,1.823c0,-0.095 -0.077,-0.172 -0.171,-0.172l-0.203,0.001c2.002,-7.644 9.471,-10.223 9.059,-18.802c-0.349,-7.261 -5.788,-13.547 -13.685,-13.544c-7.817,0.003 -13.331,6.222 -13.677,13.553c-0.374,7.916 5.819,10.613 8.436,16.915c0.246,0.593 0.461,1.217 0.635,1.881l-0.203,0c-0.094,0 -0.171,0.076 -0.171,0.172l0.001,2.374l9.98,-0.004l-0.001,-2.374Z" style="fill:#4f7bac;fill-rule:nonzero;"/><path d="M129.692,305.591l-9.98,0.003l0,1.242l9.981,-0.003l-0.001,-1.242Z" style="fill:#4f7bac;fill-rule:nonzero;"/><path d="M129,309.041l0.338,-0.001c0.196,0 0.355,-0.148 0.355,-0.331l0,-0.915l-9.98,0.003l0,0.915c0,0.183 0.159,0.332 0.355,0.332l0.341,0c0.877,1.797 1.639,3.711 3.577,3.71l1.437,-0.001c1.988,0 2.693,-1.916 3.577,-3.712Z" style="fill:#4f7bac;fill-rule:nonzero;"/></g><g id="share"><path d="M460.764,289.82l-4.398,-7.793c-1.995,-4.116 -5.931,-6.928 -10.463,-6.928c-6.544,0 -12.645,5.07 -12.645,12.259c0,1.192 0.764,3.446 1.744,5.557c0.418,-0.713 0.806,-1.442 1.163,-2.186c-0.572,-1.369 -0.962,-2.634 -0.962,-3.371c0,-6.116 5.229,-10.314 10.7,-10.314c3.773,0 7.06,2.37 8.736,5.847l4.141,7.319l-2.748,0l-0.171,0.014c0.048,4.246 0.079,8.951 -1.308,9.007c-2.788,0.112 -5.634,-0.332 -8.261,-1.202l0,7.418l-6.809,0c0,0 -0.049,-8.6 -0.066,-9.171c-0.468,-0.467 -0.805,-0.898 -1.337,-1.795c-0.371,0.641 -0.744,1.264 -1.16,1.875c0.29,0.441 0.351,0.494 0.617,0.789l0,10.248l10.7,0l0,-6.812c2.141,0.474 4.303,0.679 6.395,0.594c3.037,-0.123 3.215,-3.791 3.171,-9.02l1.528,0c1.2,0 1.976,-1.266 1.433,-2.335Z" style="fill:#4f7bac;fill-rule:nonzero;"/><path d="M438.155,281.071c-0.265,0.197 -0.987,0.978 -1.292,1.658c0.803,1.426 1.121,2.8 1.121,4.629c0,1.887 -2.554,7.262 -4.214,8.918c-0.017,0.571 -0.066,9.171 -0.066,9.171l-6.809,0l0,-7.418c-2.627,0.87 -5.473,1.314 -8.262,1.202c-1.386,-0.056 -1.356,-4.761 -1.307,-9.007l-0.172,-0.014l-2.747,0l4.141,-7.319c1.676,-3.477 4.962,-5.847 8.736,-5.847c2.774,0 5.685,1.284 7.684,3.145c0.228,-0.518 0.728,-1.106 1.243,-1.51c-2.358,-2.254 -5.583,-3.58 -8.927,-3.58c-4.532,0 -8.468,2.812 -10.463,6.928l-4.398,7.793c-0.544,1.07 0.234,2.335 1.432,2.335l1.528,0c-0.043,5.229 0.135,8.897 3.172,9.02c2.091,0.085 4.253,-0.119 6.395,-0.594l0,6.812l10.7,0l0,-10.248c1.76,-1.949 4.279,-7.622 4.279,-9.787c0,-2.359 -0.66,-4.488 -1.774,-6.287Z" style="fill:#4f7bac;fill-rule:nonzero;"/></g><g id="high-five" serif:id="high five"><path d="M765.191,312.976c-0.161,-0.161 -0.383,-0.254 -0.611,-0.254c-0.228,0 -0.451,0.093 -0.612,0.254c-0.161,0.161 -0.253,0.384 -0.253,0.611c0,0.228 0.092,0.451 0.253,0.611c0.161,0.161 0.384,0.254 0.612,0.254c0.227,0 0.45,-0.093 0.611,-0.254c0.162,-0.16 0.253,-0.383 0.253,-0.611c0,-0.227 -0.091,-0.45 -0.253,-0.611Z" style="fill:#4f7bac;fill-rule:nonzero;"/><path d="M772.241,284.694c-0.522,-0.762 -1.31,-1.269 -2.219,-1.43c-1.472,-0.259 -2.911,0.479 -3.592,1.742l0,-9.124c0,-1.848 -1.504,-3.352 -3.353,-3.352c-0.605,0 -1.172,0.161 -1.662,0.443c-0.268,-1.583 -1.648,-2.793 -3.305,-2.793c-1.658,0 -3.038,1.21 -3.305,2.793c-0.491,-0.282 -1.058,-0.443 -1.663,-0.443c-1.738,0 -3.171,1.329 -3.336,3.024c-0.483,-0.27 -1.039,-0.425 -1.631,-0.425c-1.848,0 -3.352,1.504 -3.352,3.353c0,0.478 0.387,0.865 0.864,0.865c0.478,0 0.865,-0.387 0.865,-0.865c0,-0.895 0.728,-1.623 1.623,-1.623c0.838,0 1.53,0.639 1.615,1.455l0,2.305c0,0.478 0.387,0.865 0.864,0.865c0.478,0 0.865,-0.387 0.865,-0.865l0,-4.737c0,-0.895 0.728,-1.623 1.623,-1.623c0.839,0 1.53,0.639 1.615,1.455l0,6.727c0,0.04 0.009,0.327 0.009,0.327c0,0.478 0.387,0.865 0.864,0.865c0.478,0 0.865,-0.387 0.865,-0.865l0,-6.886c0,-0.077 -0.003,-0.154 -0.009,-0.23l0,-2.119c0,-0.896 0.729,-1.624 1.624,-1.624c0.895,0 1.623,0.728 1.623,1.624l0,2.119c-0.005,0.076 -0.009,0.153 -0.009,0.23l0,12.161c0,0.477 0.387,0.864 0.865,0.864c0.477,0 0.864,-0.387 0.864,-0.864l0.009,-12.329c0.085,-0.816 0.777,-1.455 1.615,-1.455c0.895,0 1.623,0.728 1.623,1.623l0,12.791c0,0.632 0.456,1.146 1.084,1.222c0.627,0.077 1.193,-0.315 1.343,-0.929l0.673,-2.745c0.21,-0.856 1.053,-1.407 1.922,-1.254c0.447,0.079 0.835,0.329 1.093,0.704c0.257,0.375 0.35,0.828 0.262,1.274l-1.303,6.606c-0.437,2.218 -1.515,4.233 -3.115,5.829l-2.69,2.683c-0.162,0.162 -0.254,0.382 -0.254,0.612l0,7.713c0,0.477 0.387,0.864 0.865,0.864c0.477,0 0.865,-0.387 0.865,-0.864l0,-7.354l2.435,-2.429c1.845,-1.84 3.087,-4.163 3.591,-6.719l1.302,-6.607c0.179,-0.905 -0.01,-1.824 -0.532,-2.585Z" style="fill:#4f7bac;fill-rule:nonzero;"/><path d="M754.219,296.899c-0.478,0 -0.865,0.387 -0.865,0.864l0,2.536c0,2.844 -1.109,5.516 -3.123,7.524l-1.638,1.634c-0.163,0.163 -0.255,0.383 -0.255,0.613l0,3.517c0,0.478 0.388,0.865 0.865,0.865c0.478,0 0.865,-0.387 0.865,-0.865l0,-3.158l1.384,-1.381c2.342,-2.335 3.631,-5.442 3.631,-8.749l0,-2.536c0,-0.477 -0.387,-0.864 -0.864,-0.864Z" style="fill:#4f7bac;fill-rule:nonzero;"/><path d="M754.83,294.082c-0.161,-0.16 -0.384,-0.253 -0.611,-0.253c-0.228,0 -0.451,0.093 -0.611,0.253c-0.161,0.161 -0.254,0.384 -0.254,0.612c0,0.227 0.093,0.45 0.254,0.611c0.16,0.161 0.383,0.253 0.611,0.253c0.227,0 0.45,-0.092 0.611,-0.253c0.161,-0.161 0.253,-0.384 0.253,-0.611c0,-0.228 -0.092,-0.451 -0.253,-0.612Z" style="fill:#4f7bac;fill-rule:nonzero;"/><path d="M751.874,284.058c-0.54,0 -1.049,0.135 -1.496,0.372c-0.193,-1.587 -1.547,-2.822 -3.186,-2.822c-0.553,0 -1.075,0.141 -1.53,0.389c-0.284,-1.481 -1.589,-2.603 -3.151,-2.603c-1.563,0 -2.868,1.122 -3.152,2.603c-0.455,-0.248 -0.976,-0.389 -1.53,-0.389c-1.77,0 -3.209,1.44 -3.209,3.21l0,8.414c-0.685,-1.11 -2,-1.742 -3.345,-1.506c-0.87,0.154 -1.625,0.64 -2.124,1.369c-0.5,0.729 -0.681,1.607 -0.51,2.474l1.228,6.227c0.477,2.419 1.652,4.617 3.398,6.358l2.281,2.275l0,3.158c0,0.478 0.387,0.865 0.864,0.865c0.478,0 0.865,-0.387 0.865,-0.865l0,-3.517c0,-0.23 -0.091,-0.45 -0.254,-0.613l-2.535,-2.528c-1.501,-1.497 -2.512,-3.388 -2.922,-5.468l-1.228,-6.226c-0.08,-0.408 0.005,-0.82 0.239,-1.163c0.235,-0.342 0.589,-0.57 0.998,-0.642c0.792,-0.14 1.562,0.362 1.754,1.143l0.634,2.588c0.148,0.604 0.703,0.988 1.321,0.913c0.617,-0.074 1.065,-0.579 1.065,-1.201l0,-12.055c0,-0.816 0.664,-1.48 1.48,-1.48c0.764,0 1.394,0.581 1.472,1.325l0,6.336c0,0.478 0.387,0.865 0.865,0.865c0.001,0 0.002,0 0.004,0c0.001,0 0.003,0 0.004,0c0.477,0 0.865,-0.387 0.865,-0.865l0,-6.181c0,-0.074 -0.004,-0.146 -0.009,-0.219l0,-1.996c0,-0.816 0.664,-1.48 1.481,-1.48c0.816,0 1.48,0.664 1.48,1.48l0,1.996c-0.005,0.073 -0.008,0.145 -0.008,0.219l0,6.181c0,0.478 0.387,0.865 0.864,0.865c0.002,0 0.003,0 0.004,0c0.002,0 0.003,0 0.005,0c0.477,0 0.864,-0.387 0.864,-0.865l0,-6.336c0.078,-0.744 0.708,-1.325 1.472,-1.325c0.816,0 1.48,0.664 1.48,1.48l-0.008,6.182c0,0.477 0.387,0.864 0.865,0.864c0.001,0 0.003,0 0.004,0c0.001,0 0.003,0 0.004,0c0.478,0 0.865,-0.387 0.865,-0.864l0,-3.887c0.078,-0.744 0.708,-1.325 1.472,-1.325c0.816,0 1.48,0.664 1.48,1.48l0,4.039c0,0.478 0.387,0.865 0.865,0.865c0.477,0 0.864,-0.387 0.864,-0.865l0,-4.039c0,-1.77 -1.439,-3.21 -3.209,-3.21Z" style="fill:#4f7bac;fill-rule:nonzero;"/><path d="M741.446,274.995l-4.559,-4.56c-0.338,-0.337 -0.885,-0.337 -1.223,0c-0.338,0.338 -0.338,0.886 0,1.223l4.559,4.56c0.169,0.168 0.39,0.253 0.611,0.253c0.222,0 0.443,-0.085 0.612,-0.253c0.338,-0.338 0.338,-0.886 0,-1.223Z" style="fill:#4f7bac;fill-rule:nonzero;"/><path d="M738.387,277.312l-2.11,0c-0.477,0 -0.864,0.387 -0.864,0.865c0,0.477 0.387,0.864 0.864,0.864l2.11,0c0.478,0 0.865,-0.387 0.865,-0.864c0,-0.478 -0.387,-0.865 -0.865,-0.865Z" style="fill:#4f7bac;fill-rule:nonzero;"/><path d="M743.365,270.18c-0.477,0 -0.864,0.387 -0.864,0.865l0,2.18c0,0.478 0.387,0.865 0.864,0.865c0.478,0 0.865,-0.387 0.865,-0.865l0,-2.18c0,-0.478 -0.387,-0.865 -0.865,-0.865Z" style="fill:#4f7bac;fill-rule:nonzero;"/></g><path id="merge" d="M575.333,300.915c0,3.703 2.999,6.702 6.701,6.702c3.703,0 6.701,-2.999 6.701,-6.702c0,-3.283 -2.362,-6.014 -5.486,-6.592c0.067,-1.441 0.419,-2.547 1.064,-3.351c1.465,-1.826 4.448,-2.111 7.597,-2.404c2.362,-0.218 4.808,-0.452 6.735,-1.416c0.285,-0.142 0.561,-0.301 0.813,-0.477l0,13.034c-3.058,0.62 -5.361,3.326 -5.361,6.567c0,3.703 2.998,6.702 6.701,6.702c3.702,0 6.701,-2.999 6.701,-6.702c0,-3.241 -2.303,-5.947 -5.361,-6.567l0,-16.351c3.058,-0.62 5.361,-3.326 5.361,-6.568c0,-3.702 -2.999,-6.701 -6.701,-6.701c-3.703,0 -6.701,2.999 -6.701,6.701c0,3.091 2.085,5.688 4.933,6.467c-0.418,0.804 -1.03,1.223 -1.591,1.508c-1.466,0.737 -3.56,0.938 -5.772,1.148c-3.568,0.335 -7.262,0.678 -9.44,3.392c-1.039,1.299 -1.592,2.974 -1.659,5.085c-2.999,0.662 -5.235,3.334 -5.235,6.525Zm29.486,5.361c0,2.22 -1.801,4.021 -4.021,4.021c-2.22,0 -4.021,-1.801 -4.021,-4.021c0,-2.219 1.801,-4.02 4.021,-4.02c2.22,0 4.021,1.801 4.021,4.02Zm-8.042,-29.486c0,-2.219 1.801,-4.02 4.021,-4.02c2.22,0 4.021,1.801 4.021,4.02c0,2.212 -1.793,4.013 -4.004,4.021l-0.051,0c-2.203,-0.017 -3.987,-1.818 -3.987,-4.021Zm-15.731,20.23l0.988,-0.125c2.22,0 4.021,1.801 4.021,4.02c0,2.22 -1.801,4.021 -4.021,4.021c-2.22,0 -4.021,-1.801 -4.021,-4.021c0,-1.876 1.29,-3.451 3.033,-3.895Z" style="fill:#4f7bac;fill-rule:nonzero;"/><path id="flag" d="M287.842,275.646c-4.423,0 -7.962,-2.708 -13.425,-2.708c-2.226,0 -4.194,0.416 -6.013,1.129c0.312,-2.324 -1.543,-4.342 -3.867,-4.251c-1.917,0.075 -3.487,1.618 -3.593,3.534c-0.096,1.724 0.975,3.212 2.494,3.749l0,31.779c0,0.517 0.42,0.937 0.937,0.937l0.626,0c0.517,0 0.937,-0.42 0.937,-0.937l0,-9.501c2.455,-1.136 5.631,-2.271 10.599,-2.271c4.422,0 7.961,2.709 13.424,2.709c4.009,0 7.183,-1.347 10.158,-3.356c0.515,-0.348 0.821,-0.931 0.821,-1.552l0,-20.444c0,-1.371 -1.422,-2.278 -2.666,-1.7c-2.873,1.335 -6.739,2.883 -10.432,2.883Zm-23.154,-3.646c0.862,0 1.563,0.701 1.563,1.563c0,0.861 -0.701,1.562 -1.563,1.562c-0.862,0 -1.563,-0.701 -1.563,-1.562c0,-0.862 0.701,-1.563 1.563,-1.563Zm33.752,22.606c-1.806,1.304 -5.043,2.708 -8.479,2.708c-4.97,0 -8.457,-2.708 -13.424,-2.708c-3.596,0 -7.992,0.796 -10.599,2.031l0,-18.49c1.806,-1.305 5.043,-2.709 8.479,-2.709c4.97,0 8.457,2.709 13.425,2.709c3.587,0 7.986,-1.47 10.598,-2.709l0,19.168Z" style="fill:#4f7bac;fill-rule:nonzero;"/><g id="text-content" serif:id="text content"><g transform="matrix(1.72334,0,0,1,-131.831,-300.915)"><g transform="matrix(0.580269,0,0,1,42.1568,0)"><rect x="100.438" y="450.974" width="155.979" height="9" style="fill:#dfdfdf;"/><rect x="117.792" y="463.974" width="129.876" height="9" style="fill:#dfdfdf;"/></g><g transform="matrix(0.580269,0,0,1,42.1568,0)"><text x="100.438px" y="406.087px" style="font-family:'Rockwell-Regular', 'Rockwell', serif;font-size:12px;fill:#2391bc;">1. Cr<tspan x="129.131px " y="406.087px ">e</tspan>ate F<tspan x="164.463px " y="406.087px ">e</tspan>atur<tspan x="194.985px " y="406.087px ">e</tspan> Branch</text><text x="100.438px" y="431.087px" style="font-family:'Rockwell-Regular', 'Rockwell', serif;font-size:9px;fill:#404040;">Cr<tspan x="111.393px " y="431.087px ">e</tspan>ate a new featur<tspan x="188.021px " y="431.087px ">e</tspan> branch off ‘m<tspan x="254.884px " y="431.087px ">a</tspan>ster’</text><text x="100.438px" y="444.087px" style="font-family:'Rockwell-Regular', 'Rockwell', serif;font-size:9px;fill:#404040;">using a gr<tspan x="144.875px " y="444.087px ">o</tspan>up token n<tspan x="197.825px " y="444.087px ">a</tspan>ming con<tspan x="244.592px " y="444.087px ">v</tspan>ention</text><text x="100.438px" y="457.087px" style="font-family:'Rockwell-Regular', 'Rockwell', serif;font-size:9px;fill:#404040;">featur<tspan x="126.172px " y="457.087px ">e</tspan>/jira-number/featur<tspan x="219.701px 225.713px 229.167px 234.717px " y="457.087px 457.087px 457.087px 457.087px ">e-na</tspan>me</text><text x="100.438px" y="470.087px" style="font-family:'Rockwell-Regular', 'Rockwell', serif;font-size:9px;fill:#404040;">e.g.</text><text x="120.231px" y="470.087px" style="font-family:'Rockwell-Regular', 'Rockwell', serif;font-size:9px;fill:#404040;">featur<tspan x="145.965px " y="470.087px ">e</tspan>/2114/nomin<tspan x="209.216px " y="470.087px ">a</tspan>ted-r<tspan x="236.031px " y="470.087px ">e</tspan>p</text></g></g><g transform="matrix(1.73841,0,0,1,186.486,-300.915)"><g transform="matrix(0.575239,0,0,1,42.662,0)"><rect x="100.438" y="450.974" width="30.656" height="9" style="fill:#dfdfdf;"/></g><g transform="matrix(0.575239,0,0,1,42.662,0)"><text x="100.438px" y="406.087px" style="font-family:'Rockwell-Regular', 'Rockwell', serif;font-size:12px;fill:#00b9b8;">3. Sh<tspan x="128.791px 135.752px 140.469px " y="406.087px 406.087px 406.087px ">are</tspan> F<tspan x="157.508px " y="406.087px ">e</tspan>atur<tspan x="188.03px " y="406.087px ">e</tspan></text><text x="100.438px" y="431.087px" style="font-family:'Rockwell-Regular', 'Rockwell', serif;font-size:9px;fill:#404040;">When y<tspan x="135.269px " y="431.087px ">o</tspan>u’r<tspan x="152.535px " y="431.087px ">e</tspan> r<tspan x="164.075px " y="431.087px ">e</tspan>ady<tspan x="185.678px " y="431.087px ">,</tspan> cr<tspan x="199.583px " y="431.087px ">e</tspan>ate a pull r<tspan x="252.423px " y="431.087px ">e</tspan>quest</text><text x="100.438px" y="444.087px" style="font-family:'Rockwell-Regular', 'Rockwell', serif;font-size:9px;fill:#404040;">for y<tspan x="120.683px " y="444.087px ">o</tspan>ur featur<tspan x="164.106px " y="444.087px ">e</tspan> to be mer<tspan x="214.739px " y="444.087px ">g</tspan>ed in to the</text><text x="100.438px" y="457.087px" style="font-family:'Rockwell-Regular', 'Rockwell', serif;font-size:9px;fill:#404040;">m<tspan x="108.779px " y="457.087px ">a</tspan>ster</text><text x="133.533px" y="457.087px" style="font-family:'Rockwell-Regular', 'Rockwell', serif;font-size:9px;fill:#404040;">branch in github. Her<tspan x="229.202px " y="457.087px ">o</tspan>ku will build</text><text x="100.438px" y="470.087px" style="font-family:'Rockwell-Regular', 'Rockwell', serif;font-size:9px;fill:#404040;">a short-li<tspan x="139.734px " y="470.087px ">v</tspan>ed URL and this URL will be</text><text x="100.438px" y="483.087px" style="font-family:'Rockwell-Regular', 'Rockwell', serif;font-size:9px;fill:#404040;">a<tspan x="105.434px 110.862px " y="483.087px 483.087px ">va</tspan>ilable in the GitHub pull r<tspan x="229.457px " y="483.087px ">e</tspan>quest details.</text></g></g><g transform="matrix(1.55763,0,0,1,518.192,-300.915)"><g transform="matrix(0.642,0,0,1,35.9567,0)"><rect x="212.951" y="437.974" width="48.885" height="9" style="fill:#dfdfdf;"/><rect x="126.853" y="450.974" width="90.523" height="9" style="fill:#dfdfdf;"/></g><g transform="matrix(0.642,0,0,1,35.9567,0)"><text x="100.438px" y="406.087px" style="font-family:'Rockwell-Regular', 'Rockwell', serif;font-size:12px;fill:#42b749;">5. R<tspan x="122.252px " y="406.087px ">e</tspan>lease F<tspan x="170.961px " y="406.087px ">e</tspan>atur<tspan x="201.483px " y="406.087px ">e</tspan></text><text x="100.438px" y="431.087px" style="font-family:'Rockwell-Regular', 'Rockwell', serif;font-size:9px;fill:#404040;">When the featur<tspan x="172.244px " y="431.087px ">e</tspan> is r<tspan x="193.496px " y="431.087px ">e</tspan>leased in the</text><text x="100.438px" y="444.087px" style="font-family:'Rockwell-Regular', 'Rockwell', serif;font-size:9px;fill:#404040;">Angular app, update the</text><text x="212.951px" y="444.087px" style="font-family:'Rockwell-Regular', 'Rockwell', serif;font-size:9px;fill:#404040;">pr<tspan x="222.562px " y="444.087px ">o</tspan>duction</text><text x="100.438px" y="457.087px" style="font-family:'Rockwell-Regular', 'Rockwell', serif;font-size:9px;fill:#404040;">list in</text><text x="126.853px" y="457.087px" style="font-family:'Rockwell-Regular', 'Rockwell', serif;font-size:9px;fill:#404040;">featur<tspan x="152.588px 158.599px 162.053px 165.437px " y="457.087px 457.087px 457.087px 457.087px ">e-fl</tspan>ag-list.json</text><text x="217.376px" y="457.087px" style="font-family:'Rockwell-Regular', 'Rockwell', serif;font-size:9px;fill:#404040;">.</text></g></g><g transform="matrix(2.26017,0,0,0.842537,-13.3093,60.7473)"><g transform="matrix(0.442445,0,0,1.18689,55.9996,-74.244)"><rect x="183.217" y="424.974" width="59.999" height="9" style="fill:#dfdfdf;"/><rect x="272.071" y="424.974" width="56.25" height="9" style="fill:#dfdfdf;"/><rect x="100.438" y="437.974" width="34.273" height="9" style="fill:#dfdfdf;"/><rect x="100.438" y="462.653" width="252.91" height="8" style="fill:#dfdfdf;"/></g><g transform="matrix(0.442445,0,0,1.18689,55.9996,-74.244)"><text x="100.438px" y="406.087px" style="font-family:'Rockwell-Regular', 'Rockwell', serif;font-size:12px;fill:#0daab9;">2. Cr<tspan x="129.131px " y="406.087px ">e</tspan>ate F<tspan x="164.463px " y="406.087px ">e</tspan>atur<tspan x="194.985px " y="406.087px ">e</tspan> Flag</text><text x="100.438px" y="431.087px" style="font-family:'Rockwell-Regular', 'Rockwell', serif;font-size:9px;fill:#404040;">A<tspan x="107.333px " y="431.087px ">d</tspan>d the featur<tspan x="164.303px " y="431.087px ">e</tspan> to</text><text x="183.217px" y="431.087px" style="font-family:'Rockwell-Regular', 'Rockwell', serif;font-size:9px;fill:#404040;">development</text><text x="245.655px" y="431.087px" style="font-family:'Rockwell-Regular', 'Rockwell', serif;font-size:9px;fill:#404040;">list in</text><text x="272.071px" y="431.087px" style="font-family:'Rockwell-Regular', 'Rockwell', serif;font-size:9px;fill:#404040;">featur<tspan x="297.805px 303.817px 307.271px 310.655px " y="431.087px 431.087px 431.087px 431.087px ">e-fl</tspan>ag-</text><text x="100.438px" y="444.087px" style="font-family:'Rockwell-Regular', 'Rockwell', serif;font-size:9px;fill:#404040;">list.json</text><text x="134.711px" y="444.087px" style="font-family:'Rockwell-Regular', 'Rockwell', serif;font-size:9px;fill:#404040;">. W<tspan x="149.507px " y="444.087px ">r</tspan>ap new r<tspan x="192.367px " y="444.087px ">o</tspan>utes to featur<tspan x="255.639px " y="444.087px ">e</tspan>s or substantial</text><text x="100.438px" y="457.087px" style="font-family:'Rockwell-Regular', 'Rockwell', serif;font-size:9px;fill:#404040;">function<tspan x="136.464px " y="457.087px ">a</tspan>l ch<tspan x="157.611px " y="457.087px ">a</tspan>nges in Expr<tspan x="218.945px " y="457.087px ">e</tspan>ss locals e.g.</text><text x="100.438px" y="468.087px" style="font-family:'Rockwell-Regular', 'Rockwell', serif;font-size:8px;fill:#404040;">&lt;% if (locals.li<tspan x="156.242px " y="468.087px ">v</tspan>eF<tspan x="170.418px " y="468.087px ">e</tspan>atur<tspan x="190.766px " y="468.087px ">e</tspan>.includes(‘featur<tspan x="260.617px " y="468.087px ">e</tspan>Nomin<tspan x="291.922px " y="468.087px ">a</tspan>tedR<tspan x="314.696px " y="468.087px ">e</tspan>p&apos;)) { %&gt;</text></g></g><g transform="matrix(1,0,0,1,425.583,-1.806)"><text x="100.438px" y="406.087px" style="font-family:'Rockwell-Regular', 'Rockwell', serif;font-size:12px;fill:#8bc540;">4. Pr<tspan x="126.658px " y="406.087px ">o</tspan>mote F<tspan x="173.68px " y="406.087px ">e</tspan>atur<tspan x="204.201px " y="406.087px ">e</tspan></text><text x="100.438px" y="431.087px" style="font-family:'Rockwell-Regular', 'Rockwell', serif;font-size:9px;fill:#404040;">When ever<tspan x="150.913px 156.261px " y="431.087px 431.087px ">yo</tspan>ne is h<tspan x="190.715px " y="431.087px ">a</tspan>pp<tspan x="207.902px " y="431.087px ">y</tspan> with the featur<tspan x="279.884px " y="431.087px ">e</tspan>,</text><text x="100.438px" y="444.087px" style="font-family:'Rockwell-Regular', 'Rockwell', serif;font-size:9px;fill:#404040;">y<tspan x="105.786px " y="444.087px ">o</tspan>u’r<tspan x="123.052px " y="444.087px ">e</tspan> fr<tspan x="137.435px " y="444.087px ">e</tspan>e to mer<tspan x="179.491px " y="444.087px ">g</tspan>e the pull r<tspan x="233.645px " y="444.087px ">e</tspan>quest. A<tspan x="276.065px " y="444.087px ">t</tspan> this</text><text x="100.438px" y="457.087px" style="font-family:'Rockwell-Regular', 'Rockwell', serif;font-size:9px;fill:#404040;">point it will be built b<tspan x="195.676px " y="457.087px ">y</tspan> Her<tspan x="219.718px " y="457.087px ">o</tspan>ku and a<tspan x="263.33px 268.757px " y="457.087px 457.087px ">va</tspan>ilable</text><text x="100.438px" y="470.087px" style="font-family:'Rockwell-Regular', 'Rockwell', serif;font-size:9px;fill:#404040;">in the disco en<tspan x="165.371px " y="470.087px ">v</tspan>ir<tspan x="177.272px " y="470.087px ">o</tspan>nment.</text></g><text x="38.218px" y="53.67px" style="font-family:'Rockwell-Regular', 'Rockwell', serif;font-size:16.517px;fill:#7d7d7d;">Pr<tspan x="54.92px " y="53.67px ">o</tspan>totype New F<tspan x="173.423px " y="53.67px ">e</tspan>atur<tspan x="215.432px " y="53.67px ">e</tspan> W<tspan x="247.409px 257.57px 264.563px 274.756px 280.966px " y="53.67px 53.67px 53.67px 53.67px 53.67px ">orkfl</tspan>ow</text></g><g id="flow"><path d="M629.173,345.834c-1.499,2.598 -4.271,4.197 -7.27,4.197l-57.793,0c-2.999,0 -5.77,-1.599 -7.269,-4.197l-20.422,-35.374c-3.237,-5.605 -11.33,-5.594 -14.552,0.019l-0.004,0.007c-1.489,2.595 -1.484,5.785 0.011,8.376l25.266,43.768c1.5,2.596 4.272,4.197 7.271,4.197l77.192,0c2.999,0 5.77,-1.6 7.27,-4.197c47.532,-82.317 35.024,-60.72 72.328,-125.299c1.5,-2.597 4.27,-4.196 7.269,-4.196l57.794,0c2.999,0 5.771,1.6 7.27,4.197l28.901,50.054c1.5,2.597 1.5,5.797 0,8.395l-28.901,50.054c-1.499,2.597 -4.271,4.196 -7.27,4.196l-57.793,0c-2.999,0 -5.77,-1.599 -7.269,-4.197l-20.36,-35.268c-3.236,-5.605 -11.33,-5.594 -14.551,0.019l-0.004,0.006c-1.489,2.594 -1.485,5.785 0.011,8.376l25.204,43.662c1.5,2.597 4.271,4.198 7.27,4.198l77.192,0c2.999,0 5.77,-1.601 7.269,-4.197l38.592,-66.85c1.499,-2.597 1.499,-5.797 0,-8.394l-38.592,-66.849c-1.499,-2.598 -4.27,-4.197 -7.269,-4.197l-77.192,0c-3,0 -5.77,1.599 -7.27,4.197c-167.208,289.645 20.928,-36.24 -72.329,125.297Z" style="fill:url(#_Linear1);"/><path d="M481.793,362.631c-1.505,2.6 -4.277,4.2 -7.27,4.2l-77.197,0c-2.993,0 -5.765,-1.608 -7.27,-4.2l-25.248,-43.747c-1.497,-2.6 -1.497,-5.799 0,-8.391l0,-0.008c3.224,-5.594 11.307,-5.602 14.539,0l20.408,35.348c1.505,2.6 4.276,4.2 7.27,4.2l57.8,0c2.993,0 5.764,-1.6 7.269,-4.2c0.19,-0.375 72.087,-124.934 72.297,-125.298c1.496,-2.591 4.268,-4.199 7.27,-4.199l77.18,0c3.001,0 5.773,1.599 7.269,4.199l25.461,44.097c2.35,4.069 0.904,9.274 -3.207,11.549c-4.008,2.216 -9.052,0.816 -11.34,-3.151l-20.603,-35.697c-1.497,-2.6 -4.268,-4.199 -7.27,-4.199l-57.791,0c-3.003,0 -5.773,1.599 -7.27,4.199c0,0 -41.973,72.777 -72.297,125.298Z" style="fill:url(#_Linear2);"/><path d="M326.029,362.631c-1.505,2.6 -4.275,4.2 -7.27,4.2l-77.197,0c-2.993,0 -5.764,-1.608 -7.269,-4.2l-25.248,-43.747c-1.497,-2.6 -1.497,-5.799 0,-8.391l0,-0.008c3.224,-5.594 11.306,-5.602 14.539,0l20.407,35.348c1.506,2.6 4.277,4.2 7.27,4.2l57.8,0c2.993,0 5.764,-1.6 7.27,-4.2c29.376,-50.96 40.655,-70.476 72.297,-125.298c1.496,-2.591 4.267,-4.199 7.269,-4.199l77.18,0c3.002,0 5.772,1.599 7.27,4.199l25.46,44.097c2.35,4.069 0.905,9.274 -3.207,11.549c-4.007,2.216 -9.05,0.816 -11.34,-3.151l-20.603,-35.697c-1.497,-2.6 -4.268,-4.199 -7.27,-4.199l-57.791,0c-3.002,0 -5.773,1.599 -7.27,4.199c0,0 -43.641,75.667 -72.297,125.298Z" style="fill:url(#_Linear3);"/><path d="M243.994,237.333c1.5,-2.598 4.271,-4.198 7.27,-4.198l57.793,0c2.999,0 5.771,1.6 7.27,4.198l20.422,35.373c3.236,5.605 11.33,5.595 14.551,-0.019l0.004,-0.006c1.49,-2.595 1.485,-5.786 -0.01,-8.376l-25.267,-43.768c-1.5,-2.598 -4.271,-4.197 -7.27,-4.197l-77.192,0c-2.999,0 -5.77,1.599 -7.27,4.197c-0.01,0.017 -55.195,95.632 -72.329,125.298c-1.499,2.598 -4.27,4.196 -7.269,4.196l-57.794,0c-2.999,0 -5.77,-1.599 -7.27,-4.196l-28.901,-50.054c-1.5,-2.598 -1.5,-5.798 0,-8.395l28.901,-50.054c1.5,-2.597 4.271,-4.197 7.27,-4.197l57.793,0c2.999,0 5.77,1.6 7.27,4.198l20.359,35.267c3.236,5.606 11.33,5.595 14.552,-0.018l0.004,-0.007c1.488,-2.594 1.484,-5.784 -0.011,-8.375l-25.204,-43.663c-1.5,-2.597 -4.272,-4.197 -7.271,-4.197l-77.191,0c-2.999,0 -5.771,1.599 -7.27,4.197l-38.591,66.849c-1.5,2.597 -1.5,5.797 0,8.394l38.591,66.85c1.499,2.596 4.271,4.197 7.27,4.197l77.191,0c2.999,0 5.771,-1.601 7.271,-4.197c7.88,-13.647 14.461,-25.047 72.328,-125.297Z" style="fill:url(#_Linear4);"/></g><rect id="line" x="36.716" y="59.436" width="735.804" height="2.829" style="fill:#b3b3b3;fill-rule:nonzero;"/><g id="logo"><path d="M845.244,19.184c0.327,0 26.157,21.872 26.157,21.872l-7.685,7.688l-32.713,-27.521c0,0 11.337,-2.039 14.241,-2.039Z" style="fill:url(#_Linear5);fill-rule:nonzero;"/><path d="M829.4,41.042c-0.327,0 -26.157,21.872 -26.157,21.872l7.685,7.688l32.714,-27.521c-0.001,0 -11.338,-2.039 -14.242,-2.039Z" style="fill:url(#_Linear6);fill-rule:nonzero;"/><path d="M841.513,40.857c3.255,0 4.162,-0.218 6.875,2.039c8.385,6.976 23.013,20.42 23.013,20.42l-8.015,7.043c0,0 -21.134,-18.829 -30.323,-26.327c-2.263,-1.847 -3.664,-2.99 -3.664,-2.99c0,0 5.344,-0.108 9.174,-0.159c1.199,-0.016 2.248,-0.026 2.94,-0.026Z" style="fill:url(#_Linear7);fill-rule:nonzero;"/><path d="M833.131,18.999c-3.255,0 -4.162,-0.218 -6.875,2.039c-8.385,6.976 -23.013,20.42 -23.013,20.42l8.015,7.043c0,0 21.134,-18.829 30.323,-26.327c2.263,-1.847 3.664,-2.99 3.664,-2.99c0,0 -5.344,-0.108 -9.174,-0.159c-1.199,-0.016 -2.248,-0.026 -2.94,-0.026Z" style="fill:url(#_Linear8);fill-rule:nonzero;"/></g><defs><linearGradient id="_Linear1" x1="0" y1="0" x2="1" y2="0" gradientUnits="userSpaceOnUse" gradientTransform="matrix(-185.06,0,0,-185.06,819.874,291.583)"><stop offset="0" style="stop-color:#08909e;stop-opacity:1"/><stop offset="1" style="stop-color:#5059aa;stop-opacity:1"/></linearGradient><linearGradient id="_Linear2" x1="0" y1="0" x2="1" y2="0" gradientUnits="userSpaceOnUse" gradientTransform="matrix(162,0,0,162,429.189,291.583)"><stop offset="0" style="stop-color:#14a0bf;stop-opacity:1"/><stop offset="1" style="stop-color:#5059aa;stop-opacity:1"/></linearGradient><linearGradient id="_Linear3" x1="0" y1="0" x2="1" y2="0" gradientUnits="userSpaceOnUse" gradientTransform="matrix(136.036,0,0,136.036,294.469,291.583)"><stop offset="0" style="stop-color:#01cc9a;stop-opacity:1"/><stop offset="1" style="stop-color:#14a0bf;stop-opacity:1"/></linearGradient><linearGradient id="_Linear4" x1="0" y1="0" x2="1" y2="0" gradientUnits="userSpaceOnUse" gradientTransform="matrix(185.06,0,0,185.06,53.2932,291.583)"><stop offset="0" style="stop-color:#7ce214;stop-opacity:1"/><stop offset="1" style="stop-color:#01cc9a;stop-opacity:1"/></linearGradient><linearGradient id="_Linear5" x1="0" y1="0" x2="1" y2="0" gradientUnits="userSpaceOnUse" gradientTransform="matrix(30.4758,28.2593,-28.2593,30.4758,832.582,13.8742)"><stop offset="0" style="stop-color:#377bbe;stop-opacity:1"/><stop offset="1" style="stop-color:#00b9b8;stop-opacity:1"/></linearGradient><linearGradient id="_Linear6" x1="0" y1="0" x2="1" y2="0" gradientUnits="userSpaceOnUse" gradientTransform="matrix(29.3676,-51.5318,51.5318,29.3676,815.361,67.176)"><stop offset="0" style="stop-color:#fbd025;stop-opacity:1"/><stop offset="0.01" style="stop-color:#fbd025;stop-opacity:1"/><stop offset="1" style="stop-color:#f7941d;stop-opacity:1"/></linearGradient><linearGradient id="_Linear7" x1="0" y1="0" x2="1" y2="0" gradientUnits="userSpaceOnUse" gradientTransform="matrix(-30.1007,-30.1007,30.1007,-30.1007,865.205,66.9836)"><stop offset="0" style="stop-color:#e8477a;stop-opacity:1"/><stop offset="0.83" style="stop-color:#f89f2d;stop-opacity:1"/><stop offset="1" style="stop-color:#f89f2d;stop-opacity:1"/></linearGradient><linearGradient id="_Linear8" x1="0" y1="0" x2="1" y2="0" gradientUnits="userSpaceOnUse" gradientTransform="matrix(-34.9086,28.2593,-28.2593,-34.9086,836.212,20.6373)"><stop offset="0" style="stop-color:#8bc540;stop-opacity:1"/><stop offset="1" style="stop-color:#28b24b;stop-opacity:1"/></linearGradient></defs></svg>