<?xml version="1.0" encoding="utf-8"?>
<!-- Generator: Adobe Illustrator 21.1.0, SVG Export Plug-In . SVG Version: 6.00 Build 0)  -->
<svg version="1.1" id="Layer_1" xmlns="http://www.w3.org/2000/svg" xmlns:xlink="http://www.w3.org/1999/xlink" x="0px" y="0px"
	 viewBox="0 0 500 500" style="enable-background:new 0 0 500 500;" xml:space="preserve">
<style type="text/css">
	.st0{fill:#555555;}
</style>
<g>
	<path class="st0" d="M415,39c-25.4,0-46,20.6-46,46c0,7.9,2,15.4,5.6,22l-75.4,75.4c-10.4-8.1-23.4-13-37.6-13
		c-14.2,0-27.2,4.8-37.6,12.9l-58.8-58.8c2.7-4.6,4.4-9.8,4.4-15.5c0-16.9-13.8-30.7-30.7-30.7c-16.9,0-30.7,13.8-30.7,30.7
		c0,16.9,13.8,30.7,30.7,30.7c5.7,0,10.9-1.6,15.5-4.3l58.8,58.9c-8.1,10.4-13,23.4-13,37.6c0,14.2,4.9,27.2,13,37.6l-97.2,97.2
		c-8.2-7.4-19-12-30.9-12c-25.4,0-46,20.6-46,46c0,25.4,20.6,46,46,46c25.4,0,46-20.6,46-46c0-8-2-15.4-5.6-22l98.4-98.5
		c8.5,6.6,18.7,11,29.9,12.4v78c-21.8,3.7-38.4,22.5-38.4,45.3c0,25.4,20.6,46,46,46c25.4,0,46-20.6,46-46
		c0-22.7-16.6-41.7-38.4-45.3v-78c11.2-1.4,21.4-5.8,29.9-12.4l58.8,58.9c-2.7,4.6-4.3,9.8-4.3,15.5c0,16.9,13.7,30.7,30.7,30.7
		c16.9,0,30.7-13.8,30.7-30.7c0-16.9-13.7-30.7-30.7-30.7c-5.7,0-10.9,1.6-15.5,4.3l-58.9-58.9c8.1-10.4,13-23.4,13-37.6
		c0-14.2-4.9-27.2-13-37.6l74.1-74.1c8.2,7.4,19,12,30.9,12c25.4,0,46-20.7,46-46C461,59.6,440.4,39,415,39L415,39z M123.4,108
		c0-8.5,6.9-15.3,15.3-15.3c8.5,0,15.4,6.8,15.4,15.3c0,8.5-6.9,15.4-15.4,15.4C130.3,123.4,123.4,116.5,123.4,108L123.4,108z
		 M85,430.3c-16.9,0-30.7-13.8-30.7-30.7c0-16.9,13.7-30.7,30.7-30.7c16.9,0,30.7,13.8,30.7,30.7C115.7,416.5,102,430.3,85,430.3
		L85,430.3z M292.2,415c0,16.9-13.7,30.7-30.7,30.7c-16.9,0-30.7-13.7-30.7-30.7c0-16.9,13.8-30.7,30.7-30.7
		C278.4,384.3,292.2,398,292.2,415L292.2,415z M261.5,276.9c-25.4,0-46-20.6-46-46c0-25.4,20.7-46,46-46c25.4,0,46,20.6,46,46
		C307.5,256.2,286.9,276.9,261.5,276.9L261.5,276.9z M399.6,353.6c0,8.5-6.9,15.3-15.4,15.3c-8.5,0-15.4-6.8-15.4-15.3
		c0-8.5,6.9-15.4,15.4-15.4C392.7,338.2,399.6,345.1,399.6,353.6L399.6,353.6z M415,115.7c-16.9,0-30.7-13.8-30.7-30.7
		c0-16.9,13.8-30.7,30.7-30.7c16.9,0,30.7,13.7,30.7,30.7C445.6,102,431.9,115.7,415,115.7L415,115.7z M415,115.7"/>
</g>
<path d="M290,113.7"/>
</svg>
