<?xml version="1.0" encoding="utf-8"?>
<!-- Generator: Adobe Illustrator 21.1.0, SVG Export Plug-In . SVG Version: 6.00 Build 0)  -->
<svg version="1.1" xmlns="http://www.w3.org/2000/svg" xmlns:xlink="http://www.w3.org/1999/xlink" x="0px" y="0px"
	 viewBox="0 0 241 189" style="enable-background:new 0 0 241 189;" xml:space="preserve">
<style type="text/css">
	.st0{fill:#555555;}
	.st1{fill:#00BAB9;}
	.st2{fill:#CCCCCC;}
	.st3{fill:#999999;}
	.st4{font-family:'OpenSans-Bold';}
	.st5{font-size:7px;}
	.st6{fill:#FFFFFF;}
	.st7{font-family:'OpenSans-SemiBold';}
	.st8{font-size:10px;}
	.st9{fill:#333333;}
	.st10{font-family:'TrashHand';}
	.st11{font-size:20px;}
	.st12{display:none;}
	.st13{display:inline;}
	.st14{fill:#0857A4;}
	.st15{display:inline;fill:#0857A4;}
	.st16{display:inline;fill:#CCCCCC;}
	.st17{fill:#FFFFFF;stroke:#010101;stroke-width:0.1216;stroke-miterlimit:10;}
	.st18{fill:url(#SVGID_1_);}
	.st19{fill:url(#SVGID_2_);}
	.st20{fill:url(#SVGID_3_);}
	.st21{fill:url(#SVGID_4_);}
</style>
<g id="Layer_1">
	<g>
		<path class="st0" d="M101.1,128.4H15.6c-4.2,0-7.6-3.4-7.6-7.6v-58c0-4.2,3.4-7.6,7.6-7.6h85.5c4.2,0,7.6,3.4,7.6,7.6v58
			C108.8,125,105.4,128.4,101.1,128.4L101.1,128.4z M15.6,58.2c-2.5,0-4.6,2.1-4.6,4.6v58c0,2.5,2.1,4.6,4.6,4.6h85.5
			c2.5,0,4.6-2.1,4.6-4.6v-58c0-2.5-2.1-4.6-4.6-4.6H15.6z M15.6,58.2"/>
		<path class="st0" d="M77.9,143H38.9c-0.9,0-1.5-0.7-1.5-1.5c0-0.9,0.7-1.5,1.5-1.5h38.9c0.8,0,1.5,0.7,1.5,1.5
			C79.4,142.3,78.7,143,77.9,143L77.9,143z M77.9,143"/>
		<path class="st0" d="M58.4,143c-0.8,0-1.5-0.7-1.5-1.5v-14.6c0-0.9,0.7-1.5,1.5-1.5c0.9,0,1.5,0.7,1.5,1.5v14.6
			C59.9,142.3,59.2,143,58.4,143L58.4,143z M58.4,143"/>
	</g>
	<rect x="10.4" y="117.3" class="st0" width="95.9" height="3.1"/>
	<rect x="15.9" y="63.6" class="st1" width="85.5" height="11.6"/>
	<rect x="15.9" y="78.3" class="st2" width="14" height="32.4"/>
	<rect x="33" y="89.9" class="st2" width="21.1" height="9.2"/>
	<rect x="56.7" y="89.9" class="st2" width="21.1" height="9.2"/>
	<rect x="80.3" y="89.9" class="st2" width="21.1" height="9.2"/>
	<rect x="80.3" y="78.3" class="st2" width="21.1" height="1.5"/>
	<rect x="80.3" y="80.8" class="st2" width="21.1" height="1.5"/>
	<rect x="80.3" y="83.4" class="st2" width="21.1" height="1.5"/>
	<rect x="80.3" y="85.9" class="st2" width="12.6" height="1.5"/>
	<text transform="matrix(1 0 0 1 32.8857 84.8174)" class="st3 st4 st5">G’day, world.</text>
	<text transform="matrix(1 0 0 1 44.5088 72.5527)" class="st6 st7 st8">UI-KIT</text>
	<rect x="33" y="100.8" class="st2" width="68.4" height="9.8"/>
	<path class="st1" d="M175.9,150.8c-0.3-0.5-1-0.7-1.5-0.4l-12.9,7.7c-0.3,0.2-0.5,0.6-0.5,1s0.2,0.8,0.5,1l12.9,7.7
		c0.2,0.1,0.4,0.2,0.6,0.2c0.4,0,0.7-0.2,1-0.5c0.3-0.5,0.1-1.2-0.4-1.5l-11.3-6.7l11.3-6.7C176,152,176.2,151.3,175.9,150.8
		L175.9,150.8z M175.9,150.8"/>
	<path class="st1" d="M195.9,167.3c0.2,0.3,0.6,0.5,1,0.5c0.2,0,0.4-0.1,0.6-0.2l12.9-7.7c0.3-0.2,0.5-0.6,0.5-1s-0.2-0.8-0.5-1
		l-12.9-7.7c-0.5-0.3-1.2-0.1-1.5,0.4c-0.3,0.5-0.1,1.2,0.4,1.5l11.3,6.7l-11.3,6.7C195.7,166.1,195.6,166.7,195.9,167.3
		L195.9,167.3z M195.9,167.3"/>
	<path class="st1" d="M190.1,150.7l-10.3,15.4c-0.3,0.5-0.2,1.2,0.3,1.5c0.2,0.1,0.4,0.2,0.6,0.2c0.4,0,0.7-0.2,0.9-0.5l10.3-15.4
		c0.3-0.5,0.2-1.2-0.3-1.5C191.2,150.1,190.5,150.2,190.1,150.7L190.1,150.7z M190.1,150.7"/>
	<path class="st0" d="M225.6,123.2h-79.5c-0.6,0-1.1,0.5-1.1,1.1v60.6c0,0.6,0.5,1.1,1.1,1.1h79.5c0.6,0,1.1-0.5,1.1-1.1v-11.8
		c0-0.6-0.5-1.1-1.1-1.1c-0.6,0-1.1,0.5-1.1,1.1v10.7h-77.3v-49.5h77.3v41.7c0,0.6,0.5,1.1,1.1,1.1c0.6,0,1.1-0.5,1.1-1.1v-51.7
		C226.7,123.7,226.2,123.2,225.6,123.2L225.6,123.2z M147.3,125.4h53.2v6.7h-53.2V125.4z M202.7,132v-6.7h21.8v6.7H202.7z
		 M202.7,132"/>
	<path class="st0" d="M213.6,127.5c-0.7,0-1.2,0.5-1.2,1.2c0,0.7,0.5,1.2,1.2,1.2c0.7,0,1.2-0.5,1.2-1.2
		C214.8,128.1,214.3,127.5,213.6,127.5L213.6,127.5z M213.6,127.5"/>
	<path class="st0" d="M207.6,127.5c-0.7,0-1.2,0.5-1.2,1.2c0,0.7,0.5,1.2,1.2,1.2c0.7,0,1.2-0.5,1.2-1.2
		C208.8,128.1,208.2,127.5,207.6,127.5L207.6,127.5z M207.6,127.5"/>
	<path class="st0" d="M219.7,127.5c-0.7,0-1.2,0.5-1.2,1.2c0,0.7,0.5,1.2,1.2,1.2s1.2-0.5,1.2-1.2
		C220.9,128.1,220.4,127.5,219.7,127.5L219.7,127.5z M219.7,127.5"/>
	<text transform="matrix(1 0 0 1 15.5239 42.6665)" class="st9 st10 st11"> gov.au UI-Kit</text>
	<text transform="matrix(1 0 0 1 143.4043 85.6665)"><tspan x="0" y="0" class="st9 st10 st11">Adjustments </tspan><tspan x="4.1" y="22" class="st9 st10 st11">&amp; additions</tspan></text>
	<g class="st12">
		<g class="st13">
			<path class="st14" d="M268.5,102.4h-15.7c-0.9,0-1.5-0.7-1.5-1.5c0-0.9,0.7-1.5,1.5-1.5h15.7c0.8,0,1.5,0.7,1.5,1.5
				C270,101.7,269.3,102.4,268.5,102.4L268.5,102.4z M268.5,102.4"/>
			<path class="st14" d="M268.5,109.4h-15.7c-0.9,0-1.5-0.7-1.5-1.5c0-0.9,0.7-1.5,1.5-1.5h15.7c0.8,0,1.5,0.7,1.5,1.5
				C270,108.7,269.3,109.4,268.5,109.4L268.5,109.4z M268.5,109.4"/>
		</g>
		<g class="st13">
			<path class="st0" d="M378.1,128.4h-85.5c-4.2,0-7.6-3.4-7.6-7.6v-58c0-4.2,3.4-7.6,7.6-7.6h85.5c4.2,0,7.6,3.4,7.6,7.6v58
				C385.8,125,382.4,128.4,378.1,128.4L378.1,128.4z M292.6,58.2c-2.5,0-4.6,2.1-4.6,4.6v58c0,2.5,2.1,4.6,4.6,4.6h85.5
				c2.5,0,4.6-2.1,4.6-4.6v-58c0-2.5-2.1-4.6-4.6-4.6H292.6z M292.6,58.2"/>
			<path class="st0" d="M354.9,143h-38.9c-0.9,0-1.5-0.7-1.5-1.5c0-0.9,0.7-1.5,1.5-1.5h38.9c0.8,0,1.5,0.7,1.5,1.5
				C356.4,142.3,355.7,143,354.9,143L354.9,143z M354.9,143"/>
			<path class="st0" d="M335.4,143c-0.8,0-1.5-0.7-1.5-1.5v-14.6c0-0.9,0.7-1.5,1.5-1.5c0.9,0,1.5,0.7,1.5,1.5v14.6
				C336.9,142.3,336.2,143,335.4,143L335.4,143z M335.4,143"/>
		</g>
		<rect x="293.5" y="72" class="st15" width="83.5" height="33"/>
		<rect x="298.3" y="110.3" class="st16" width="21.1" height="1.5"/>
		<rect x="298.3" y="112.8" class="st16" width="21.1" height="1.5"/>
		<rect x="298.3" y="115.4" class="st16" width="21.1" height="1.5"/>
		<rect x="298.3" y="117.9" class="st16" width="12.6" height="1.5"/>
		<rect x="324.3" y="110.3" class="st16" width="21.1" height="1.5"/>
		<rect x="324.3" y="112.8" class="st16" width="21.1" height="1.5"/>
		<rect x="324.3" y="115.4" class="st16" width="21.1" height="1.5"/>
		<rect x="324.3" y="117.9" class="st16" width="12.6" height="1.5"/>
		<rect x="349.3" y="110.3" class="st16" width="21.1" height="1.5"/>
		<rect x="349.3" y="112.8" class="st16" width="21.1" height="1.5"/>
		<rect x="349.3" y="115.4" class="st16" width="21.1" height="1.5"/>
		<rect x="349.3" y="117.9" class="st16" width="12.6" height="1.5"/>
		<g class="st13">
			<g>
				<path class="st0" d="M324.6,68.7C324.6,68.7,324.6,68.7,324.6,68.7"/>
				<path class="st0" d="M324.8,67.1C324.9,67.1,324.9,67.1,324.8,67.1C324.9,67,324.9,67,324.8,67.1C324.8,67,324.8,67,324.8,67.1
					C324.8,67.1,324.8,67.1,324.8,67.1L324.8,67.1z"/>
				<path class="st0" d="M326.8,65.3L326.8,65.3l-1.6,0v0h0l0,1.3c0,0.1,0.1,0.2,0.1,0.3l0.6,0.4c0,0,0,0,0.1,0c0,0,0,0,0,0l0.6-0.4
					c0.1,0,0.1-0.1,0.1-0.3L326.8,65.3L326.8,65.3L326.8,65.3z M325.8,65.6h-0.1v-0.3h0.1V65.6L325.8,65.6z M325.7,65.7L325.7,65.7
					L325.7,65.7L325.7,65.7L325.7,65.7L325.7,65.7L325.7,65.7L325.7,65.7L325.7,65.7L325.7,65.7L325.7,65.7L325.7,65.7L325.7,65.7
					L325.7,65.7L325.7,65.7L325.7,65.7z M325.3,66.1v-0.3h0.2v0.3H325.3L325.3,66.1z M325.3,65.7L325.3,65.7L325.3,65.7L325.3,65.7
					L325.3,65.7L325.3,65.7L325.3,65.7L325.3,65.7L325.3,65.7L325.3,65.7L325.3,65.7L325.3,65.7L325.3,65.7L325.3,65.7L325.3,65.7
					L325.3,65.7z M325.5,66L325.5,66L325.5,66L325.5,66L325.5,66L325.5,66L325.5,66L325.5,66L325.5,66L325.5,66L325.5,66L325.5,66
					L325.5,66L325.5,66L325.5,66L325.5,66z M325.6,65.8C325.6,65.7,325.6,65.7,325.6,65.8C325.6,65.7,325.6,65.8,325.6,65.8
					C325.6,65.8,325.6,65.8,325.6,65.8C325.6,65.8,325.6,65.7,325.6,65.8c-0.1,0-0.1,0-0.2,0c0,0,0,0,0-0.1c0,0,0,0-0.1,0
					c0,0,0,0,0,0c0,0,0,0,0,0C325.6,65.7,325.6,65.7,325.6,65.8C325.6,65.7,325.6,65.7,325.6,65.8C325.6,65.7,325.7,65.8,325.6,65.8
					C325.6,65.8,325.6,65.8,325.6,65.8L325.6,65.8z M325.5,65.4L325.5,65.4L325.5,65.4L325.5,65.4L325.5,65.4L325.5,65.4L325.5,65.4
					L325.5,65.4L325.5,65.4L325.5,65.4L325.5,65.4L325.5,65.4L325.5,65.4L325.5,65.4L325.5,65.4L325.5,65.4z M325.5,65.3v0.3h-0.2
					v-0.3H325.5L325.5,65.3z M325.8,67l-0.4-0.2c-0.1,0-0.1-0.1-0.1-0.2v-0.4h0.5V67L325.8,67z M325.7,66.1v-0.3h0.1v0.3H325.7
					L325.7,66.1z M326.3,67l-0.2,0.1h0c0,0,0,0,0,0c0,0,0,0,0,0l-0.2-0.1v-0.8h0.4V67L326.3,67z M326.3,66.1h-0.4v-0.8h0.4V66.1
					L326.3,66.1z M326.8,66.5c0,0.1,0,0.2-0.1,0.2l-0.4,0.2v-0.8h0.5V66.5L326.8,66.5z M326.8,66.1h-0.5v-0.8h0.5V66.1L326.8,66.1z"
					/>
				<path class="st0" d="M325.8,66.5C325.8,66.5,325.7,66.5,325.8,66.5C325.7,66.5,325.8,66.4,325.8,66.5
					C325.8,66.4,325.7,66.4,325.8,66.5c0-0.2,0-0.1-0.1-0.1c0.1-0.1,0.1-0.1,0-0.1c0,0,0.1-0.1,0-0.1c0,0.1-0.1,0-0.1,0.1
					c0,0,0,0.1,0,0.1c0,0,0-0.1-0.1-0.1c0,0-0.1,0-0.1,0c0,0,0,0,0,0c0,0,0,0,0,0c0,0,0,0,0-0.1c0,0,0,0,0,0c0-0.1-0.1-0.1-0.1-0.1
					c0,0,0,0,0,0.1c0,0,0,0,0,0c0,0,0,0,0,0c0,0,0,0,0,0c0,0,0,0,0,0c0,0,0,0,0,0c0,0,0,0,0,0c0,0,0,0,0,0c0,0.1,0.1,0.1,0.1,0.1
					c0,0,0,0,0,0c0,0,0,0,0,0c0,0,0,0,0,0c0,0,0.1,0,0.1,0c0,0,0,0,0,0.1c0,0,0.1,0,0,0c0,0,0,0,0,0c0,0,0,0,0,0c0,0,0,0,0,0
					c0,0,0,0,0-0.1c0,0,0.1,0,0.1,0c0,0,0,0,0,0c0,0-0.1-0.1,0,0C325.8,66.6,325.8,66.5,325.8,66.5L325.8,66.5z"/>
				<path class="st0" d="M327.4,66.8C327.5,66.8,327.5,66.8,327.4,66.8C327.5,66.7,327.5,66.7,327.4,66.8
					C327.4,66.7,327.4,66.7,327.4,66.8C327.4,66.8,327.4,66.8,327.4,66.8L327.4,66.8z"/>
				<path class="st0" d="M327.2,66.9C327.3,66.9,327.3,66.9,327.2,66.9C327.3,66.9,327.3,66.8,327.2,66.9
					C327.2,66.8,327.2,66.9,327.2,66.9C327.2,66.9,327.2,66.9,327.2,66.9L327.2,66.9z"/>
				<path class="st0" d="M324.8,67.2C324.8,67.2,324.8,67.2,324.8,67.2C324.8,67.1,324.8,67.1,324.8,67.2
					C324.7,67.1,324.7,67.1,324.8,67.2C324.7,67.2,324.7,67.2,324.8,67.2L324.8,67.2z"/>
				<path class="st0" d="M324.9,67.2C324.9,67.2,325,67.2,324.9,67.2C325,67.2,324.9,67.1,324.9,67.2
					C324.9,67.1,324.9,67.2,324.9,67.2C324.9,67.2,324.9,67.2,324.9,67.2L324.9,67.2z"/>
				<path class="st0" d="M329.4,65.1c0.1,0.1,0.1,0.2,0,0.3c0,0,0,0,0-0.1C329.3,65.2,329.3,65.1,329.4,65.1
					C329.4,65,329.4,65,329.4,65.1L329.4,65.1z"/>
				<path class="st0" d="M322.8,65.2c0,0.1,0,0.2,0,0.2c0,0,0,0,0,0c-0.1-0.1-0.1-0.2-0.1-0.3c0,0,0,0,0,0
					C322.8,65.1,322.8,65.1,322.8,65.2L322.8,65.2z"/>
				<path class="st0" d="M329.6,65.2C329.6,65.2,329.6,65.3,329.6,65.2c-0.1,0.1-0.1,0.1-0.1,0C329.5,65.2,329.5,65.2,329.6,65.2
					C329.6,65.2,329.6,65.2,329.6,65.2L329.6,65.2z"/>
				<path class="st0" d="M322.7,65.3C322.7,65.3,322.7,65.4,322.7,65.3C322.6,65.4,322.6,65.4,322.7,65.3
					C322.6,65.3,322.6,65.3,322.7,65.3C322.6,65.3,322.6,65.3,322.7,65.3C322.6,65.3,322.7,65.3,322.7,65.3L322.7,65.3z"/>
				<path class="st0" d="M329.7,65.4C329.7,65.4,329.7,65.4,329.7,65.4C329.7,65.4,329.7,65.4,329.7,65.4c-0.1,0.1-0.1,0-0.1,0
					C329.6,65.4,329.6,65.3,329.7,65.4C329.7,65.3,329.7,65.3,329.7,65.4L329.7,65.4z"/>
				<path class="st0" d="M329.6,65.4C329.6,65.4,329.6,65.4,329.6,65.4C329.5,65.4,329.5,65.5,329.6,65.4
					C329.5,65.4,329.5,65.4,329.6,65.4C329.5,65.4,329.5,65.4,329.6,65.4C329.5,65.3,329.5,65.4,329.6,65.4L329.6,65.4z"/>
				<path class="st0" d="M329.4,65.4C329.4,65.4,329.4,65.5,329.4,65.4C329.3,65.5,329.3,65.5,329.4,65.4
					C329.3,65.4,329.3,65.4,329.4,65.4C329.3,65.4,329.3,65.4,329.4,65.4L329.4,65.4z"/>
				<path class="st0" d="M323,65.4C323,65.4,322.9,65.5,323,65.4C322.9,65.5,322.9,65.5,323,65.4C322.9,65.4,322.9,65.4,323,65.4
					C322.9,65.4,323,65.4,323,65.4L323,65.4z"/>
				<path class="st0" d="M322.8,65.4C322.8,65.5,322.8,65.5,322.8,65.4C322.7,65.5,322.7,65.5,322.8,65.4
					C322.7,65.4,322.7,65.4,322.8,65.4C322.8,65.4,322.8,65.4,322.8,65.4L322.8,65.4z"/>
				<path class="st0" d="M328.7,65.4c0,0.1,0,0.1,0.1,0.2c0,0.1,0,0.1,0,0.2c0,0,0-0.1-0.1-0.1C328.6,65.6,328.7,65.5,328.7,65.4
					C328.7,65.4,328.7,65.4,328.7,65.4L328.7,65.4z"/>
				<path class="st0" d="M322.7,65.5C322.7,65.5,322.7,65.5,322.7,65.5c-0.1,0.1-0.1,0.1-0.1,0C322.6,65.5,322.6,65.4,322.7,65.5
					C322.6,65.4,322.7,65.4,322.7,65.5L322.7,65.5z"/>
				<path class="st0" d="M329.1,65.6c0,0.1,0,0.2,0,0.3l0,0c0-0.1-0.1-0.1-0.1-0.2c0-0.1,0-0.1,0-0.2
					C329.1,65.4,329.1,65.5,329.1,65.6C329.1,65.5,329.1,65.5,329.1,65.6L329.1,65.6z"/>
				<path class="st0" d="M329.5,65.5C329.5,65.5,329.5,65.6,329.5,65.5c-0.1,0.1-0.1,0.1-0.1,0C329.4,65.5,329.4,65.5,329.5,65.5
					C329.4,65.5,329.5,65.5,329.5,65.5L329.5,65.5z"/>
				<path class="st0" d="M322.8,65.6C322.8,65.6,322.8,65.6,322.8,65.6C322.7,65.7,322.7,65.6,322.8,65.6
					C322.7,65.6,322.7,65.6,322.8,65.6C322.7,65.5,322.7,65.5,322.8,65.6C322.8,65.5,322.8,65.6,322.8,65.6L322.8,65.6z"/>
				<path class="st0" d="M322.9,65.6C322.9,65.6,322.9,65.6,322.9,65.6C322.9,65.6,322.8,65.6,322.9,65.6
					C322.8,65.6,322.8,65.6,322.9,65.6C322.9,65.5,322.9,65.5,322.9,65.6L322.9,65.6z"/>
				<path class="st0" d="M329.6,65.6c0,0-0.1,0.1-0.1,0.1c0,0.1-0.1,0.1-0.2,0.2c0,0,0,0-0.1,0c0-0.1,0-0.1,0.1-0.2
					C329.4,65.6,329.5,65.6,329.6,65.6L329.6,65.6z"/>
				<path class="st0" d="M322.7,65.7c0,0,0.1,0.1,0.1,0.1c0,0,0,0,0,0c-0.1,0-0.2-0.1-0.3-0.2c0,0,0,0,0.1,0
					C322.7,65.6,322.7,65.6,322.7,65.7L322.7,65.7z"/>
				<path class="st0" d="M329.6,65.7c0,0.1-0.1,0.2-0.2,0.3c0,0-0.1,0-0.1,0C329.4,65.9,329.5,65.8,329.6,65.7L329.6,65.7
					L329.6,65.7z"/>
				<path class="st0" d="M329.1,65.8C329.1,65.8,329.1,65.9,329.1,65.8c-0.1,0.1-0.1,0.1-0.1,0C329,65.8,329,65.8,329.1,65.8
					C329,65.8,329,65.8,329.1,65.8C329,65.8,329.1,65.8,329.1,65.8L329.1,65.8z"/>
				<path class="st0" d="M322.6,65.8c0.1,0,0.1,0.1,0.1,0.1c0,0-0.1,0-0.1,0c-0.1,0-0.2-0.1-0.3-0.1c0,0,0,0,0.1,0
					C322.5,65.8,322.5,65.8,322.6,65.8L322.6,65.8z"/>
				<path class="st0" d="M325.5,65c-0.2-0.1-0.3,0.1-0.4,0.1c0,0,0,0,0,0c0,0,0,0,0,0c0-0.1,0-0.1,0-0.2c0,0,0-0.1,0-0.1
					c-0.1-0.2,0.2-0.1,0.3-0.2c0.1-0.1-0.1-0.1-0.1-0.2v0c0,0-0.1-0.1-0.1-0.1c0-0.1,0-0.1,0-0.2c0,0,0,0,0,0
					c-0.1,0.1-0.1,0.1-0.1,0.2c-0.1,0-0.1-0.1-0.2-0.1c0,0-0.1,0-0.1,0c0,0,0,0,0,0c0,0.1,0.1,0.2,0.1,0.3l0,0c0,0.1,0,0.2,0,0.4
					c-0.1,0.3-0.3,0.6-0.6,0.8c-0.2,0.2-0.3,0.3-0.4,0.6c0,0,0,0.1,0,0.1c-0.1,0-0.2-0.1-0.3-0.1c-0.1-0.1-0.3-0.1-0.4-0.2
					c0-0.1,0-0.1,0-0.2c0.1-0.1,0.1-0.2,0-0.4c0,0,0,0,0,0c0,0.2-0.1,0.3-0.1,0.5c0,0.1,0,0.1,0.1,0.1c0,0,0,0-0.1,0
					c-0.1,0-0.1,0-0.2,0c-0.1,0.1-0.3,0-0.4,0.1c0,0,0,0,0,0c0.1,0,0.1,0,0.2,0c0.1,0,0.2-0.1,0.2-0.1h0c0,0,0.1,0,0.1,0
					c0.2,0,0.3,0.1,0.4,0.2v0c-0.1,0-0.1,0-0.2,0.1c-0.1,0-0.1,0.1-0.2,0.2c0,0.1,0,0.1,0,0.2c0,0,0,0.1,0,0.1c0.1-0.1,0-0.2,0-0.3
					c0-0.1,0.1-0.1,0.2-0.1c0.2-0.1,0.3,0.1,0.4,0.1c0,0.1,0,0.2,0,0.4c0,0-0.1,0-0.1,0c-0.2,0-0.4,0.1-0.6,0.2
					c-0.1,0-0.2,0-0.3,0.1c0.1,0,0.1,0,0.2,0c0.3,0,0.5-0.2,0.8-0.2l0,0c0,0.1-0.1,0.1-0.1,0.2c0,0,0-0.1,0-0.1c0,0,0,0-0.1,0
					c0,0,0,0,0,0c0,0,0,0,0.1,0c0,0,0,0-0.1,0.1c-0.1,0.1-0.2,0.1-0.3,0.2c0,0-0.1,0,0,0.1c0.1,0,0.2,0,0.3-0.1
					c0.1-0.1,0.2-0.2,0.3-0.3c0,0.1,0,0.2-0.1,0.3c0,0,0,0-0.1,0c0,0,0,0,0,0.1c0,0,0,0,0,0.1c-0.1,0.1-0.2,0.1-0.3,0.1
					c-0.2,0-0.4,0-0.6,0c-0.1,0-0.2,0-0.3,0c-0.1,0-0.2,0-0.3,0c0,0,0,0,0,0c0.1,0.1,0.3,0,0.4,0h1.1c0.1,0,0.2,0,0.2,0
					c0.1-0.1,0.2-0.2,0.3-0.4c0,0,0-0.1,0.1-0.2c0-0.1,0.1-0.2,0.2-0.2c0,0.1,0,0.3,0,0.4c0,0.1-0.1,0.2,0,0.3c0,0,0.1,0,0.1,0
					c0.3,0,0.7,0,1,0c0.1,0,0.1,0,0.2,0c0,0,0,0,0,0c0,0,0-0.1-0.1-0.1c0,0,0,0,0,0c-0.2-0.1-0.4,0-0.6,0c-0.1,0-0.2,0-0.3,0
					c0,0,0-0.2,0-0.2c0-0.1,0.2-0.5,0.2-0.5c0,0,0-0.1,0-0.1c0-0.1,0-0.1,0-0.2c0-0.1,0.1-0.2,0.1-0.3c0,0,0-0.1,0-0.1
					c0-0.1,0-0.1,0.1-0.1c0.1,0.1,0.2,0.1,0.2,0.2l0,0.2c0,0,0,0,0,0c0.1,0,0-0.2,0-0.2c0-0.1,0-0.1-0.1-0.2c0,0-0.1-0.1-0.1-0.1
					c0-0.1-0.1-0.1-0.1-0.2c0-0.1,0-0.1,0.1-0.2c0,0,0,0,0,0l0,0l0-0.2c0.1,0,0.2,0,0.3,0c0,0,0,0,0.1,0l0,0l0.2,0
					C325.7,65.1,325.6,65,325.5,65L325.5,65z"/>
				<path class="st0" d="M325.8,65.1C325.8,65.1,325.8,65.1,325.8,65.1L325.8,65.1L325.8,65.1z"/>
				<path class="st0" d="M323.4,65.9C323.4,65.9,323.4,65.9,323.4,65.9C323.3,65.9,323.3,65.9,323.4,65.9
					C323.3,65.9,323.3,65.9,323.4,65.9C323.4,65.8,323.4,65.8,323.4,65.9L323.4,65.9z"/>
				<path class="st0" d="M323.2,65.9C323.2,65.9,323.2,65.9,323.2,65.9C323.2,66,323.2,66,323.2,65.9
					C323.1,65.9,323.1,65.9,323.2,65.9C323.2,65.9,323.2,65.9,323.2,65.9L323.2,65.9z"/>
				<line class="st0" x1="327" y1="65.9" x2="327" y2="65.9"/>
				<path class="st0" d="M329.1,66C329.1,66,329.1,66,329.1,66C329,66,329,66,329.1,66C329,65.9,329,65.9,329.1,66
					C329.1,65.9,329.1,65.9,329.1,66L329.1,66z"/>
				<path class="st0" d="M329.2,65.9C329.2,66,329.3,66,329.2,65.9C329.2,66,329.2,66,329.2,65.9C329.2,66,329.2,66,329.2,65.9
					C329.1,66,329.2,65.9,329.2,65.9C329.2,65.9,329.2,65.9,329.2,65.9L329.2,65.9z"/>
				<path class="st0" d="M322.5,66C322.5,66,322.5,66,322.5,66C322.4,66,322.4,66,322.5,66C322.4,66,322.4,65.9,322.5,66
					C322.5,65.9,322.5,65.9,322.5,66L322.5,66z"/>
				<path class="st0" d="M323.4,66C323.4,66,323.4,66.1,323.4,66c-0.1,0.1-0.1,0-0.1,0C323.3,66,323.3,66,323.4,66
					C323.4,66,323.4,66,323.4,66L323.4,66z"/>
				<path class="st0" d="M323.3,66C323.3,66,323.3,66,323.3,66C323.3,66.1,323.2,66.1,323.3,66C323.2,66.1,323.2,66,323.3,66
					C323.2,66,323.2,66,323.3,66C323.3,66,323.3,66,323.3,66L323.3,66z"/>
				<path class="st0" d="M329.7,66C329.7,66.1,329.6,66.1,329.7,66C329.6,66.1,329.6,66.1,329.7,66c-0.1,0-0.1,0-0.1,0
					C329.6,66,329.6,66,329.7,66C329.6,66,329.6,66,329.7,66L329.7,66z"/>
				<path class="st0" d="M329.8,66.1C329.8,66.1,329.8,66.1,329.8,66.1C329.8,66.1,329.7,66.1,329.8,66.1
					C329.7,66.1,329.7,66,329.8,66.1C329.8,66,329.8,66,329.8,66.1L329.8,66.1z"/>
				<path class="st0" d="M322.8,66.1C322.8,66.1,322.8,66.2,322.8,66.1C322.8,66.2,322.8,66.2,322.8,66.1
					C322.7,66.1,322.7,66.1,322.8,66.1C322.7,66.1,322.8,66.1,322.8,66.1C322.8,66.1,322.8,66.1,322.8,66.1L322.8,66.1z"/>
				<path class="st0" d="M323,66.1C323,66.1,323,66.2,323,66.1C322.9,66.2,322.9,66.2,323,66.1C322.9,66.2,322.9,66.1,323,66.1
					C322.9,66.1,323,66.1,323,66.1L323,66.1z"/>
				<path class="st0" d="M329.5,66.1C329.5,66.1,329.5,66.2,329.5,66.1C329.4,66.2,329.4,66.2,329.5,66.1
					C329.4,66.1,329.4,66.1,329.5,66.1C329.5,66.1,329.5,66.1,329.5,66.1L329.5,66.1z"/>
				<path class="st0" d="M329.7,66.2C329.7,66.2,329.7,66.2,329.7,66.2C329.7,66.2,329.6,66.2,329.7,66.2c-0.1,0-0.1,0-0.1,0
					C329.6,66.1,329.7,66.1,329.7,66.2C329.7,66.1,329.7,66.1,329.7,66.2L329.7,66.2z"/>
				<path class="st0" d="M322.7,66.2C322.7,66.2,322.7,66.2,322.7,66.2C322.7,66.3,322.7,66.3,322.7,66.2
					C322.6,66.2,322.6,66.2,322.7,66.2C322.7,66.1,322.7,66.2,322.7,66.2L322.7,66.2z"/>
				<path class="st0" d="M329.5,66.3C329.6,66.3,329.6,66.3,329.5,66.3c-0.1,0.1-0.2,0.1-0.2,0c0,0-0.1,0-0.1-0.1c0,0,0.1,0,0.1,0
					C329.4,66.2,329.5,66.3,329.5,66.3L329.5,66.3z"/>
				<path class="st0" d="M322.9,66.2C322.9,66.3,322.9,66.3,322.9,66.2C322.8,66.3,322.8,66.3,322.9,66.2
					C322.8,66.3,322.8,66.2,322.9,66.2C322.8,66.2,322.8,66.2,322.9,66.2L322.9,66.2z"/>
				<path class="st0" d="M323.1,66.3C323.1,66.3,323.1,66.3,323.1,66.3C323.1,66.3,323,66.3,323.1,66.3
					C323,66.3,323,66.3,323.1,66.3C323,66.2,323.1,66.2,323.1,66.3L323.1,66.3z"/>
				<path class="st0" d="M326.3,66.4C326.3,66.4,326.2,66.4,326.3,66.4c-0.1,0.1-0.1,0.2,0,0.2c0,0,0,0.1,0,0.1c0,0-0.1,0.1-0.1,0.1
					c-0.1,0-0.2,0-0.2-0.1c0,0,0-0.1,0-0.1c0,0,0,0,0,0c0,0,0,0,0,0c0.1,0,0-0.1,0-0.1c0.1,0.1,0.2,0,0.2,0.1c0,0,0,0,0,0
					c0-0.1,0-0.1-0.1-0.2c0,0,0-0.1,0-0.1C326.2,66.3,326.2,66.3,326.3,66.4L326.3,66.4z"/>
				<path class="st0" d="M323.3,66.4C323.4,66.4,323.3,66.4,323.3,66.4C323.3,66.4,323.3,66.4,323.3,66.4
					C323.3,66.4,323.3,66.3,323.3,66.4C323.3,66.3,323.3,66.3,323.3,66.4L323.3,66.4z"/>
				<path class="st0" d="M325,66.4c0,0.1,0,0.2,0,0.3c0,0,0,0.1,0,0.1C324.9,66.6,325,66.5,325,66.4C325,66.4,325,66.4,325,66.4
					L325,66.4z"/>
				<path class="st0" d="M327.4,66.4c0,0.1,0,0.2,0,0.3l0,0C327.3,66.7,327.3,66.6,327.4,66.4C327.3,66.5,327.3,66.4,327.4,66.4
					C327.4,66.4,327.4,66.4,327.4,66.4L327.4,66.4z"/>
				<path class="st0" d="M323.6,66.5C323.5,66.5,323.5,66.5,323.6,66.5c-0.2,0.1-0.3,0.1-0.3,0.1C323.3,66.5,323.4,66.4,323.6,66.5
					C323.5,66.5,323.6,66.5,323.6,66.5L323.6,66.5z"/>
				<path class="st0" d="M322.4,66.6c0.1,0.1,0.1,0.2,0.2,0.3c0,0,0,0,0,0c0,0,0,0-0.1,0C322.5,66.8,322.4,66.7,322.4,66.6
					C322.4,66.6,322.4,66.6,322.4,66.6L322.4,66.6z"/>
				<path class="st0" d="M327.3,66.7C327.3,66.7,327.3,66.7,327.3,66.7C327.2,66.7,327.2,66.7,327.3,66.7
					C327.2,66.7,327.2,66.7,327.3,66.7C327.2,66.6,327.2,66.6,327.3,66.7L327.3,66.7z"/>
				<path class="st0" d="M328.4,66.8c0-0.1,0-0.1,0-0.2c0,0,0,0,0-0.1c0.1-0.1,0.2-0.1,0.3-0.1c0,0,0.1,0,0.1,0c0,0,0,0,0.1,0
					c0.1,0,0-0.1,0-0.2l0-0.1c0,0,0,0,0-0.1c0,0,0-0.1,0-0.1c0-0.1-0.1-0.2-0.2-0.3c-0.1-0.2-0.4-0.3-0.6-0.4
					c-0.2-0.1-0.4,0-0.6,0.1c-0.1,0-0.1-0.1-0.1-0.1c0-0.1,0-0.2,0.1-0.3c0-0.1,0.1-0.1,0.1-0.2c0-0.2,0.1-0.3,0.1-0.5
					c0-0.1-0.1-0.2-0.1-0.2c-0.1,0-0.1,0-0.2,0c0,0.1-0.1,0.1-0.2,0.2c0,0,0.1,0,0.1,0c0.1,0,0.1,0,0.2,0c0,0.1-0.1,0.2-0.1,0.3
					c-0.1,0.1-0.2,0.3-0.2,0.4l0,0l0,0.7c0.1,0.1,0.2,0.3,0.4,0.4c0.1,0.1,0.2,0.2,0.3,0.1c0.1,0,0.1,0.1,0.1,0.1c0,0.1,0,0.2,0,0.3
					l-0.1,0.2c-0.1,0.2-0.2,0.3-0.3,0.5c0,0-0.1,0-0.1,0c0,0-0.1,0-0.1,0c-0.1,0-0.2,0-0.3,0.1c0,0,0,0,0,0c0.2,0,0.4,0,0.5,0
					c0,0,0,0,0-0.1c0,0,0-0.1,0-0.1c0-0.1,0.1-0.1,0.1-0.2c0.1-0.1,0.1-0.2,0.2-0.3l0.1-0.1c0,0,0.1-0.1,0.1-0.2c0,0,0,0,0-0.1
					c0,0,0,0,0-0.1c0,0,0,0,0.1,0c0.1,0,0.1,0.1,0.2,0.2l0,0.1l0,0l0,0.1l0,0.1c0,0.1,0,0.3,0,0.4c0,0.2-0.2,0.1-0.4,0.2
					c0,0-0.1,0-0.1,0.1c0.2,0,0.3,0,0.5,0c0,0,0,0,0-0.1c0,0,0-0.1,0-0.1c0,0,0-0.1,0-0.2c0,0,0,0,0-0.1c0-0.1,0-0.2,0-0.3
					L328.4,66.8L328.4,66.8z"/>
				<path class="st0" d="M329.8,66.7c-0.1,0.1-0.2,0.3-0.3,0.3c0,0,0,0,0,0C329.5,66.9,329.5,66.7,329.8,66.7
					C329.7,66.7,329.7,66.7,329.8,66.7L329.8,66.7z"/>
				<path class="st0" d="M322.3,66.8C322.3,66.8,322.3,66.9,322.3,66.8C322.2,66.9,322.2,66.9,322.3,66.8
					C322.2,66.8,322.2,66.8,322.3,66.8C322.3,66.8,322.3,66.8,322.3,66.8L322.3,66.8z"/>
				<path class="st0" d="M323.1,66.9C323.1,66.9,323.1,66.9,323.1,66.9c-0.1,0.1-0.3,0-0.3,0c0,0,0,0,0,0
					C322.9,66.8,323,66.8,323.1,66.9L323.1,66.9z"/>
				<path class="st0" d="M322.4,66.8C322.5,66.8,322.5,66.9,322.4,66.8C322.4,66.9,322.4,66.9,322.4,66.8
					C322.4,66.9,322.4,66.9,322.4,66.8C322.4,66.8,322.4,66.8,322.4,66.8C322.4,66.8,322.4,66.8,322.4,66.8L322.4,66.8z"/>
				<path class="st0" d="M325,66.8C325,66.9,325,66.9,325,66.8C325,66.9,324.9,66.9,325,66.8C324.9,66.9,324.9,66.8,325,66.8
					C325,66.8,325,66.8,325,66.8L325,66.8z"/>
				<path class="st0" d="M329.9,66.9C329.9,66.9,329.8,66.9,329.9,66.9C329.8,66.9,329.8,66.9,329.9,66.9c-0.1,0-0.1,0-0.1,0
					C329.8,66.8,329.8,66.8,329.9,66.9C329.8,66.8,329.8,66.8,329.9,66.9L329.9,66.9z"/>
				<path class="st0" d="M330,66.8C330.1,66.9,330,66.9,330,66.8C330,66.9,330,66.9,330,66.8c-0.1,0.1-0.1,0.1-0.1,0
					C329.9,66.9,330,66.8,330,66.8C330,66.8,330,66.8,330,66.8L330,66.8z"/>
				<path class="st0" d="M322.2,66.9C322.2,66.9,322.2,67,322.2,66.9C322.2,67,322.1,67,322.2,66.9c-0.1,0-0.1,0-0.1,0
					C322.1,66.9,322.1,66.9,322.2,66.9C322.2,66.9,322.2,66.9,322.2,66.9L322.2,66.9z"/>
				<path class="st0" d="M327.9,66.9C327.9,66.9,327.9,66.9,327.9,66.9C327.9,67,327.9,67,327.9,66.9C327.9,67,327.8,67,327.9,66.9
					C327.9,66.9,327.9,66.9,327.9,66.9L327.9,66.9z"/>
				<path class="st0" d="M322.6,67C322.6,67,322.6,67,322.6,67C322.6,67,322.6,67,322.6,67C322.5,67,322.5,66.9,322.6,67
					C322.6,66.9,322.6,66.9,322.6,67L322.6,67z"/>
				<path class="st0" d="M322.4,67C322.4,67,322.4,67,322.4,67c-0.1,0.1-0.1,0-0.1,0C322.3,67,322.3,66.9,322.4,67
					C322.3,66.9,322.3,67,322.4,67L322.4,67z"/>
				<path class="st0" d="M328.1,67C328.1,67,328.1,67,328.1,67c-0.1,0.1-0.1,0-0.1,0C328,67,328,66.9,328.1,67
					C328.1,66.9,328.1,66.9,328.1,67L328.1,67z"/>
				<path class="st0" d="M322.5,67C322.5,67,322.5,67,322.5,67C322.5,67,322.5,67,322.5,67C322.4,67,322.4,67,322.5,67
					C322.4,67,322.4,66.9,322.5,67C322.5,66.9,322.5,67,322.5,67L322.5,67z"/>
				<path class="st0" d="M329.7,67C329.7,67,329.7,67,329.7,67C329.6,67,329.6,67,329.7,67c-0.1,0-0.1,0-0.1,0
					C329.6,66.9,329.7,66.9,329.7,67L329.7,67z"/>
				<path class="st0" d="M329.9,67C329.9,67,329.9,67.1,329.9,67C329.8,67,329.8,67,329.9,67C329.8,67,329.8,67,329.9,67
					C329.9,67,329.9,67,329.9,67L329.9,67z"/>
				<path class="st0" d="M328.6,67C328.6,67.1,328.6,67.1,328.6,67C328.6,67.1,328.5,67.1,328.6,67C328.5,67,328.5,67,328.6,67
					C328.6,67,328.6,67,328.6,67L328.6,67z"/>
				<path class="st0" d="M327.9,67.1C327.9,67.1,327.9,67.1,327.9,67.1C327.9,67.1,327.8,67.1,327.9,67.1
					C327.8,67.1,327.8,67.1,327.9,67.1C327.8,67,327.9,67,327.9,67.1L327.9,67.1z"/>
				<path class="st0" d="M328,67.1C328,67.1,328,67.1,328,67.1C328,67.1,328,67.1,328,67.1C327.9,67.1,327.9,67.1,328,67.1
					C327.9,67.1,328,67.1,328,67.1C328,67.1,328,67.1,328,67.1L328,67.1z"/>
				<path class="st0" d="M323.4,67.1C323.4,67.1,323.4,67.1,323.4,67.1C323.4,67.2,323.3,67.2,323.4,67.1
					C323.3,67.1,323.3,67.1,323.4,67.1C323.3,67.1,323.3,67.1,323.4,67.1C323.4,67.1,323.4,67.1,323.4,67.1L323.4,67.1z"/>
				<path class="st0" d="M328.9,67.1C328.9,67.1,328.9,67.1,328.9,67.1c-0.1,0.1-0.1,0-0.1,0C328.8,67.1,328.8,67.1,328.9,67.1
					C328.9,67,328.9,67.1,328.9,67.1L328.9,67.1z"/>
				<path class="st0" d="M328.8,67.1C328.8,67.1,328.7,67.1,328.8,67.1C328.7,67.2,328.7,67.2,328.8,67.1c-0.1,0-0.1,0-0.1,0
					C328.7,67.1,328.7,67.1,328.8,67.1C328.7,67.1,328.8,67.1,328.8,67.1L328.8,67.1z"/>
				<path class="st0" d="M330,67.1C330,67.2,330,67.1,330,67.1c-0.2,0.1-0.3,0-0.4,0c0,0,0,0,0.1,0C329.8,67,329.9,67.1,330,67.1
					L330,67.1L330,67.1z"/>
				<path class="st0" d="M322.5,67.1L322.5,67.1c-0.1,0.1-0.2,0.1-0.4,0.1l0,0C322.2,67.1,322.4,67.1,322.5,67.1L322.5,67.1
					L322.5,67.1z"/>
				<path class="st0" d="M329.2,67.1C329.2,67.1,329.2,67.2,329.2,67.1C329.1,67.2,329.1,67.2,329.2,67.1
					C329.1,67.1,329.1,67.1,329.2,67.1C329.1,67.1,329.2,67.1,329.2,67.1L329.2,67.1z"/>
				<path class="st0" d="M323,67.1C323,67.1,323,67.2,323,67.1c-0.1,0.1-0.1,0-0.1,0C322.9,67.1,322.9,67.1,323,67.1
					C323,67.1,323,67.1,323,67.1L323,67.1z"/>
				<path class="st0" d="M322.8,67.1C322.8,67.2,322.8,67.2,322.8,67.1C322.8,67.2,322.8,67.2,322.8,67.1
					C322.7,67.2,322.7,67.2,322.8,67.1C322.7,67.1,322.7,67.1,322.8,67.1C322.8,67.1,322.8,67.1,322.8,67.1L322.8,67.1z"/>
				<path class="st0" d="M329.4,67.2C329.4,67.2,329.4,67.2,329.4,67.2C329.3,67.3,329.3,67.2,329.4,67.2
					C329.3,67.2,329.3,67.2,329.4,67.2C329.3,67.2,329.3,67.2,329.4,67.2C329.4,67.2,329.4,67.2,329.4,67.2L329.4,67.2z"/>
				<path class="st0" d="M322.6,67.2C322.6,67.2,322.6,67.2,322.6,67.2c0,0.1-0.1,0.1-0.1,0.2c-0.1,0.1-0.1,0.1-0.2,0.1l0,0
					C322.4,67.3,322.5,67.2,322.6,67.2L322.6,67.2L322.6,67.2z"/>
				<path class="st0" d="M329.2,67.2C329.3,67.3,329.2,67.3,329.2,67.2C329.2,67.3,329.2,67.3,329.2,67.2
					C329.1,67.2,329.2,67.2,329.2,67.2C329.2,67.2,329.2,67.2,329.2,67.2L329.2,67.2z"/>
				<path class="st0" d="M322.9,67.2C322.9,67.2,322.9,67.2,322.9,67.2C322.9,67.3,322.9,67.3,322.9,67.2
					C322.9,67.3,322.9,67.3,322.9,67.2C322.8,67.2,322.8,67.2,322.9,67.2C322.9,67.2,322.9,67.2,322.9,67.2L322.9,67.2z"/>
				<path class="st0" d="M329.7,67.3C329.8,67.3,329.8,67.3,329.7,67.3c0.1,0,0.1,0,0.1,0C329.9,67.3,329.9,67.4,329.7,67.3
					C329.8,67.4,329.8,67.3,329.7,67.3c0.1,0.1,0.1,0.1,0.1,0.1c0,0,0,0,0,0c-0.1,0-0.2-0.1-0.2-0.2c0,0-0.1,0,0-0.1
					C329.6,67.2,329.7,67.3,329.7,67.3L329.7,67.3z"/>
				<path class="st0" d="M330,67.2C330,67.2,330,67.3,330,67.2C330,67.3,330,67.3,330,67.2c-0.1,0.1-0.1,0-0.1,0
					C329.9,67.2,329.9,67.2,330,67.2C330,67.2,330,67.2,330,67.2L330,67.2z"/>
				<path class="st0" d="M329,67.4c0,0,0,0.1,0.1,0.1c0,0,0,0,0,0c-0.1-0.1-0.2-0.1-0.2-0.2c0,0,0,0,0,0
					C328.8,67.2,328.9,67.3,329,67.4C329,67.3,329,67.3,329,67.4L329,67.4z"/>
				<path class="st0" d="M322.8,67.3C322.8,67.3,322.8,67.3,322.8,67.3C322.7,67.3,322.7,67.3,322.8,67.3
					C322.7,67.3,322.7,67.3,322.8,67.3C322.7,67.2,322.8,67.3,322.8,67.3L322.8,67.3z"/>
				<path class="st0" d="M329.4,67.3C329.4,67.4,329.3,67.4,329.4,67.3C329.3,67.4,329.3,67.4,329.4,67.3
					C329.3,67.4,329.3,67.3,329.4,67.3C329.3,67.3,329.3,67.3,329.4,67.3L329.4,67.3z"/>
				<path class="st0" d="M330,67.4C330,67.4,330,67.4,330,67.4c-0.1,0.1-0.1,0.1-0.1,0c0,0,0,0,0-0.1C330,67.3,330,67.3,330,67.4
					C330,67.4,330,67.4,330,67.4L330,67.4z"/>
				<path class="st0" d="M328.2,67.8C328.2,67.8,328.1,67.8,328.2,67.8c-0.2,0.1-0.3,0.1-0.4,0.1v0C327.9,67.7,328,67.7,328.2,67.8
					L328.2,67.8z"/>
				<path class="st0" d="M324.2,67.9C324.2,67.9,324.1,67.9,324.2,67.9C324.1,67.9,324.1,67.9,324.2,67.9
					C324.1,67.9,324.1,67.8,324.2,67.9C324.1,67.8,324.2,67.9,324.2,67.9L324.2,67.9z"/>
				<path class="st0" d="M328.1,67.9C328.1,67.9,328.1,68,328.1,67.9c-0.1,0.1-0.1,0.1-0.1,0c0,0,0,0,0,0
					C328,67.9,328.1,67.9,328.1,67.9L328.1,67.9z"/>
				<path class="st0" d="M328.6,67.9c-0.1,0-0.1,0.1-0.2,0.1l-0.1,0l0,0C328.3,67.9,328.5,67.9,328.6,67.9L328.6,67.9L328.6,67.9z"
					/>
				<path class="st0" d="M323.4,68C323.4,68,323.4,68,323.4,68C323.4,68,323.3,68,323.4,68C323.3,68,323.3,68,323.4,68
					C323.4,67.9,323.4,68,323.4,68L323.4,68z"/>
				<path class="st0" d="M323.6,68C323.6,68,323.5,68,323.6,68C323.5,68.1,323.5,68.1,323.6,68C323.5,68,323.5,68,323.6,68
					C323.5,68,323.5,68,323.6,68C323.5,68,323.5,68,323.6,68L323.6,68z"/>
				<path class="st0" d="M322.5,68.3c0,0-0.1,0-0.1,0c-0.1-0.1-0.1-0.2-0.2-0.2c0,0,0,0,0.1,0c0,0,0,0,0.1,0
					C322.4,68.1,322.4,68.2,322.5,68.3L322.5,68.3z"/>
				<path class="st0" d="M330.5,67.2c0-0.1-0.1-0.1-0.2-0.1c-0.1,0-0.1,0.1-0.2,0.1c0,0.1,0,0.1,0.1,0.2c0,0,0,0,0.1,0
					c0,0,0,0,0-0.1c0,0,0-0.1,0-0.1c0,0,0.1,0,0.1,0C330.4,67.2,330.4,67.2,330.5,67.2c0,0.1,0,0.1-0.1,0.2c0,0.1-0.1,0.1-0.2,0.1
					c-0.2,0-2.7,0-2.7,0c-0.3,0-0.6-0.1-0.9,0.1c-0.1,0.1-0.2,0.2-0.2,0.3c-0.1,0.1-0.2,0.1-0.2,0.2l0,0c0-0.1,0-0.1,0.1-0.2
					c0-0.1,0-0.1,0.1-0.2c0.1-0.2,0.2-0.3,0.4-0.5c0.1-0.1,0.2-0.1,0.3-0.1c0.1,0.1,0.2,0.1,0.4,0.1c0,0,0,0,0,0c0,0-0.1,0-0.1-0.1
					c-0.1-0.1-0.2,0-0.3,0c0,0,0,0,0,0c0.1-0.1,0.2-0.1,0.3-0.2c0.1-0.1,0.2-0.1,0.3-0.1c0,0,0.1,0,0.1,0l0.1,0c0,0,0,0,0,0
					c0.1,0,0.3,0,0.4,0l0,0l0.1,0c0,0,0.1,0.1,0.1,0.1c0,0,0-0.1,0-0.1c0.1,0,0.1,0,0.2,0l0,0c0,0,0,0.1,0,0.1c0,0,0,0,0,0
					c0,0,0,0,0-0.1c0.2,0,0.4,0.1,0.6,0.2c0.1,0,0.1,0.1,0.2,0.1c-0.1-0.1-0.1-0.1-0.2-0.1c0,0-0.1,0-0.1-0.1c0,0,0,0,0,0
					c0.1,0,0.2-0.1,0.2-0.2c0,0,0,0,0,0c0,0-0.1,0-0.1,0c-0.1,0-0.2,0.2-0.3,0.2c-0.1,0-0.3-0.1-0.4-0.1c-0.1,0-0.1,0-0.2,0l-0.2,0
					H328c0,0,0,0,0,0c0.1,0,0.2-0.1,0.3-0.1l0.7-0.3c0.1-0.1,0.1-0.1,0.2-0.2c0,0,0,0,0-0.1c0,0,0,0-0.1,0c0,0,0,0.1,0,0.1
					c0,0-0.1,0.1-0.1,0.1c0,0-0.8,0.3-0.8,0.3c-0.1,0-0.2,0.1-0.3,0.1l-0.2,0c0,0,0,0.1-0.1,0.1c0,0-0.1,0-0.1,0
					c-0.4,0.1-0.7,0.3-1,0.6c0,0,0-0.1,0-0.1c0,0,0-0.1,0-0.1c0,0,0-0.1,0-0.1l0,0c0,0.1,0,0.2,0,0.2c0,0,0,0.1,0,0.2
					c-0.1,0.2-0.2,0.4-0.3,0.5c0,0,0,0-0.1-0.1c0.1-0.1,0.2-0.3,0.2-0.4c0,0,0,0,0-0.1c0,0,0-0.1,0-0.1c0-0.1-0.1-0.1,0-0.2l-0.1,0
					c-0.1,0.2,0.1,0.4-0.1,0.5v0c0,0-0.1,0.1-0.1,0.1c-0.1,0-0.1-0.1-0.1-0.2c-0.1-0.1-0.1-0.2,0-0.3c0-0.1,0-0.1,0-0.2l0,0
					c-0.1,0.1-0.1,0.2,0,0.3c0,0,0,0.1,0.1,0.2c0,0.1,0.1,0.1,0.1,0.2c0,0,0,0,0,0c0,0,0-0.1-0.1-0.1c-0.1-0.2-0.2-0.3-0.3-0.5
					c0,0,0,0,0-0.1c0.1,0,0.1-0.1,0-0.2c0,0,0,0,0,0l0,0c0,0.1-0.1,0.2,0,0.3v0c-0.3-0.2-0.6-0.4-0.9-0.5l0,0.1
					c0.1,0,0.3,0.1,0.3,0.1c0.1,0,0.2,0.1,0.3,0.1c0.4,0.2,0.6,0.5,0.8,0.9c0,0,0,0.1,0,0.1c-0.1-0.1-0.1-0.1-0.2-0.2
					c0-0.1-0.1-0.3-0.2-0.3c0-0.1-0.1-0.1-0.2-0.1l-1,0c-0.8,0-1.5,0-2.3,0c-0.1,0-0.2,0-0.3-0.2c0,0,0-0.1,0-0.2
					c0-0.1,0.1-0.1,0.1-0.1c0,0,0.1,0,0.1,0.1c0,0,0,0.1,0,0.1c0,0,0,0,0,0c0,0,0.1-0.1,0.1-0.1c0,0,0,0,0-0.1
					c0-0.1-0.1-0.1-0.1-0.1c-0.1,0-0.1,0-0.2,0.1c-0.1,0.1-0.1,0.2,0,0.2c0,0.1,0.2,0.2,0.3,0.2l2.7,0c0.3,0,0.6,0,0.8,0
					c0.1,0,0.2,0.1,0.2,0.2c0,0,0,0,0,0c-0.2-0.1-0.5-0.2-0.8-0.2c-0.1,0-0.2,0-0.3,0.1c-0.1,0-0.1,0-0.1,0c-0.1-0.1-0.3-0.1-0.4,0
					c0,0,0,0,0,0c0.1,0,0.2,0.1,0.3,0.1c0,0,0,0,0.1,0c-0.1,0.1-0.2,0.1-0.4,0.2c0,0-0.1,0-0.1-0.1c-0.1-0.1-0.1,0-0.2,0
					c0,0,0,0-0.1,0c0,0,0.1,0.1,0.1,0.1c0.1,0,0.1,0,0.2,0c0,0,0,0-0.1,0c-0.1,0-0.2,0.2-0.4,0.2c-0.2,0-0.3,0-0.4-0.1
					c0-0.1-0.2-0.2-0.3-0.2c0,0,0,0,0,0c0.1,0,0.1,0.1,0.2,0.1c0,0,0.1,0,0.1,0.1c0.1,0,0.1,0.1,0.2,0.1c0,0,0.1,0,0.1,0l0,0
					c-0.2,0.1-0.5,0.1-0.8,0.1c-0.1,0-0.2,0-0.2,0c0,0,0,0,0.1,0c0,0,0,0-0.1,0c0,0-0.1,0-0.1,0c0,0-0.1,0-0.1,0
					c0,0-0.1,0.1-0.2,0.1c0,0,0,0,0,0c0.1,0,0.1,0,0.2,0c0.1,0,0.1-0.1,0.2-0.1c0.1-0.1,0.2,0,0.3,0c0.1,0,0,0,0,0.1c0,0,0,0,0.1,0
					c0,0,0,0,0,0c0,0,0,0,0-0.1c0,0,0.1,0,0.1,0c0.1,0,0.2,0,0.3,0c0,0,0,0,0.1,0c0,0,0,0,0,0.1c0,0,0,0,0.1,0c0,0,0.1,0,0-0.1
					c0,0,0,0,0,0c0.1,0,0.1,0,0.2-0.1c0,0,0.1,0,0.1,0c0,0,0.1,0,0.1,0c0,0,0,0.1-0.1,0.1c0,0.1-0.1,0.3,0,0.5c0,0,0,0,0,0
					c-0.1-0.1,0-0.3,0-0.5c0-0.2,0.3-0.3,0.5-0.4l0,0c0,0.1-0.1,0.2-0.1,0.4c0,0,0,0,0,0.1c0,0,0.1-0.1,0.1-0.1
					c0-0.1-0.1-0.3,0.1-0.4c0.2-0.1,0.4-0.2,0.7-0.2c0,0,0,0,0,0c-0.1,0.1-0.1,0.1-0.2,0.2c-0.1,0.1-0.1,0.3,0,0.5
					c0,0.1,0,0.1-0.1,0.2c0,0,0,0.1,0,0.1l0.1,0c0,0,0.1-0.1,0.1-0.2c0,0,0,0,0.1,0.1c0,0,0-0.1,0-0.1c0,0,0.1,0,0.1,0
					c0.1,0,0.1,0,0.2,0l0,0c-0.1-0.1-0.2-0.1-0.3-0.1c-0.1-0.1-0.1-0.2,0-0.3c0-0.1,0-0.1,0.1-0.2c0,0,0.1-0.1,0.1-0.1
					c0,0,0.1-0.1,0.2-0.1h0c0,0,0,0,0,0c-0.1,0.1-0.1,0.1-0.1,0.2c0,0.1-0.1,0.2,0,0.2c0,0,0,0.1,0,0.1c0,0,0-0.1,0.1-0.2
					c0-0.1-0.1-0.2,0-0.3c0-0.1,0.1-0.1,0.1-0.1c0.2,0,0.3,0.1,0.4,0.1c0,0,0.1,0,0.1,0.1c0,0.1,0,0.1-0.1,0.2c-0.1,0-0.2,0-0.2,0
					c0,0-0.1-0.1,0-0.2c0,0,0.1-0.1,0.1,0c0,0,0.1,0,0.1,0c0,0,0,0,0,0c0,0,0-0.1-0.1-0.1c-0.1,0-0.1,0-0.2,0
					c-0.1,0-0.1,0.1-0.1,0.2c0,0.1,0.1,0.2,0.2,0.2c0.1,0,0.3,0,0.3-0.1c0,0,0-0.1,0.1-0.1c0.1,0.1,0.2,0.2,0.3,0.4c0,0,0,0.1,0,0.1
					l0.1,0c0,0,0,0,0-0.1c0-0.2,0.1-0.3,0.3-0.5c0,0,0,0,0,0.1c0,0.1,0.1,0.2,0.2,0.2c0.1,0,0.2,0,0.3-0.1c0-0.1,0.1-0.2,0-0.2
					c0,0-0.1-0.1-0.2-0.1c-0.1,0-0.1,0-0.2,0.1c0,0,0,0,0,0.1c0,0,0,0,0,0c0,0,0-0.1,0.1-0.1c0,0,0.1,0,0.1,0c0,0,0,0.1,0,0.1
					c0,0.1,0,0.1-0.1,0.1c-0.1,0-0.2,0-0.3,0c0,0-0.1-0.1-0.1-0.1c0,0,0-0.1,0-0.1c0.1-0.1,0.2-0.1,0.4-0.1c0.1,0,0.1,0,0.1,0.1
					c0.1,0.1,0,0.3,0.1,0.5c0,0,0,0,0-0.1c0-0.1,0-0.2,0-0.3c0-0.1-0.1-0.1-0.1-0.2c0,0,0,0,0,0c0.1,0,0.1,0.1,0.2,0.1
					c0.1,0.1,0.1,0.3,0.1,0.5c0,0.1-0.1,0.1-0.2,0.2c0,0-0.1,0.1-0.1,0.1c0,0,0.1,0,0.1,0c0.1,0,0.1-0.1,0.1-0.1c0,0,0,0,0,0
					c0,0,0,0.1,0,0.1c0,0,0-0.1,0-0.1c0,0,0,0.1,0.1,0.1c0,0,0.1,0.1,0.1,0.1c0,0,0,0,0-0.1c0-0.1-0.1-0.1-0.1-0.2
					c-0.1-0.1-0.1-0.3-0.1-0.5c0-0.1-0.1-0.1-0.1-0.2l0,0c0.1,0,0.2,0,0.4,0.1c0.2,0.1,0.4,0.1,0.4,0.3c0,0.1,0.1,0.2,0.2,0.3l0,0
					c0,0,0-0.1,0-0.1c0-0.1-0.1-0.2-0.2-0.3l0,0c0.1,0,0.1,0,0.2,0.1c0.2,0.1,0.4,0.3,0.4,0.5c0,0.2,0,0.3-0.1,0.5c0,0,0,0,0,0.1
					c0,0,0-0.1,0.1-0.1c0.1-0.2,0.1-0.4,0.1-0.6c0,0,0-0.1,0-0.1c0,0,0,0,0,0c0,0,0,0,0.1,0c0,0,0,0,0,0c0,0-0.1,0-0.1,0
					c0,0,0,0,0,0.1c0,0-0.1-0.1-0.1-0.1l0,0c0.1,0,0.2,0.1,0.4,0.1c0,0,0.1,0,0.1,0c0.1,0,0.2,0.1,0.3,0.1c0.1,0,0.2,0,0.2,0v0l0,0
					c0,0-0.1,0-0.1,0c-0.2,0-0.4-0.1-0.5-0.1c0,0,0,0,0,0c0,0,0,0,0-0.1c0,0,0,0-0.1,0c0,0,0,0,0,0c0,0,0,0,0,0.1c0,0,0,0,0,0
					c-0.1,0-0.2-0.1-0.2-0.1c0,0-0.1,0-0.1,0c-0.1,0-0.1-0.1-0.2-0.1c-0.2-0.1-0.4-0.1-0.6-0.2c0,0-0.1,0-0.1,0
					c-0.1,0-0.1,0-0.2-0.1c-0.2-0.1-0.5-0.1-0.7,0.1c0,0-0.1,0-0.1,0c0.1-0.2,0.2-0.2,0.4-0.2c1.1,0,2.1,0,3.2,0
					c0.1,0,0.2,0,0.3-0.2C330.5,67.4,330.5,67.3,330.5,67.2L330.5,67.2z M326.1,68.2C326.1,68.3,326.1,68.3,326.1,68.2l0,0.1
					C326.1,68.3,326.1,68.3,326.1,68.2c-0.1,0-0.1-0.1-0.1-0.1c0,0,0-0.1,0-0.1c0,0,0.1,0.1,0.1,0.1
					C326.2,68.2,326.1,68.2,326.1,68.2L326.1,68.2z"/>
				<path class="st0" d="M329.1,68.1C329.1,68.1,329.1,68.1,329.1,68.1c-0.1,0.1-0.2,0.1-0.4,0.1c0,0,0,0,0,0c0,0,0,0,0,0
					C328.8,68.1,328.9,68,329.1,68.1L329.1,68.1z"/>
				<path class="st0" d="M328.7,68.1C328.7,68.1,328.6,68.2,328.7,68.1c-0.1,0.1-0.1,0.1-0.1,0C328.5,68.1,328.6,68.1,328.7,68.1
					C328.6,68.1,328.6,68.1,328.7,68.1L328.7,68.1z"/>
				<path class="st0" d="M323.5,68.1C323.5,68.1,323.5,68.2,323.5,68.1C323.4,68.2,323.4,68.2,323.5,68.1
					C323.4,68.2,323.4,68.2,323.5,68.1C323.4,68.1,323.4,68.1,323.5,68.1C323.4,68.1,323.4,68.1,323.5,68.1L323.5,68.1z"/>
				<path class="st0" d="M323,68.3L323,68.3c-0.1,0-0.1,0-0.2,0c0-0.1-0.1-0.1-0.1-0.1c0,0,0,0,0,0C322.8,68.1,322.9,68.2,323,68.3
					L323,68.3z"/>
				<path class="st0" d="M329.5,68.1c-0.1,0.1-0.1,0.2-0.2,0.3c0,0,0,0-0.1,0C329.3,68.3,329.4,68.1,329.5,68.1
					C329.5,68.1,329.5,68.1,329.5,68.1L329.5,68.1z"/>
				<path class="st0" d="M323.6,68.1C323.6,68.2,323.6,68.2,323.6,68.1C323.6,68.2,323.5,68.2,323.6,68.1
					C323.5,68.1,323.5,68.1,323.6,68.1C323.6,68.1,323.6,68.1,323.6,68.1L323.6,68.1z"/>
				<path class="st0" d="M329.8,68.2c0,0,0,0.1,0,0.1c-0.1,0.1-0.1,0.1-0.2,0.1c0,0,0-0.1,0-0.1C329.7,68.3,329.7,68.2,329.8,68.2
					L329.8,68.2L329.8,68.2z"/>
				<path class="st0" d="M322.1,68.2C322.1,68.2,322.1,68.2,322.1,68.2C322.1,68.3,322.1,68.3,322.1,68.2
					C322,68.2,322,68.2,322.1,68.2C322.1,68.2,322.1,68.1,322.1,68.2L322.1,68.2z"/>
				<path class="st0" d="M322,68.2C322,68.2,322,68.2,322,68.2C322,68.3,322,68.3,322,68.2C321.9,68.3,321.9,68.3,322,68.2
					C321.9,68.2,321.9,68.2,322,68.2C321.9,68.2,322,68.2,322,68.2L322,68.2z"/>
				<path class="st0" d="M322.3,68.2C322.3,68.3,322.3,68.3,322.3,68.2c-0.1,0.1-0.1,0.1-0.1,0C322.2,68.2,322.2,68.2,322.3,68.2
					C322.2,68.2,322.3,68.2,322.3,68.2L322.3,68.2z"/>
				<path class="st0" d="M322.7,68.3C322.7,68.3,322.7,68.3,322.7,68.3C322.7,68.3,322.7,68.3,322.7,68.3
					C322.7,68.3,322.6,68.3,322.7,68.3C322.7,68.3,322.7,68.3,322.7,68.3C322.7,68.3,322.7,68.2,322.7,68.3L322.7,68.3z"/>
				<path class="st0" d="M330.1,68.3C330.1,68.3,330.1,68.3,330.1,68.3c-0.1,0-0.1,0-0.1,0C330,68.3,330,68.3,330.1,68.3
					C330.1,68.2,330.1,68.3,330.1,68.3L330.1,68.3z"/>
				<path class="st0" d="M329.6,68.3C329.6,68.3,329.6,68.3,329.6,68.3c-0.1,0.1-0.1,0-0.1,0C329.5,68.3,329.5,68.3,329.6,68.3
					C329.6,68.3,329.6,68.3,329.6,68.3L329.6,68.3z"/>
				<path class="st0" d="M330,68.3C330,68.3,329.9,68.3,330,68.3C329.9,68.3,329.9,68.3,330,68.3C329.8,68.3,329.9,68.3,330,68.3
					C329.9,68.3,329.9,68.3,330,68.3L330,68.3z"/>
				<path class="st0" d="M322.1,68.3C322.1,68.4,322,68.4,322.1,68.3C322,68.4,322,68.4,322.1,68.3C322,68.3,322,68.3,322.1,68.3
					C322,68.3,322,68.3,322.1,68.3L322.1,68.3z"/>
				<path class="st0" d="M329.5,68.4C329.5,68.4,329.5,68.4,329.5,68.4C329.4,68.4,329.4,68.4,329.5,68.4
					C329.4,68.4,329.4,68.4,329.5,68.4C329.4,68.3,329.5,68.3,329.5,68.4L329.5,68.4z"/>
				<path class="st0" d="M323.5,68.4C323.5,68.4,323.5,68.4,323.5,68.4C323.5,68.5,323.5,68.5,323.5,68.4
					C323.4,68.4,323.4,68.4,323.5,68.4C323.4,68.4,323.4,68.4,323.5,68.4C323.5,68.4,323.5,68.4,323.5,68.4L323.5,68.4z"/>
				<path class="st0" d="M330.1,68.4C330.1,68.4,330.1,68.4,330.1,68.4C330,68.5,330,68.5,330.1,68.4c-0.1,0-0.1,0-0.1,0
					C330,68.4,330,68.4,330.1,68.4C330,68.4,330.1,68.4,330.1,68.4L330.1,68.4z"/>
				<path class="st0" d="M329.9,68.4C329.9,68.5,329.9,68.5,329.9,68.4C329.8,68.5,329.8,68.5,329.9,68.4c0,0.1,0,0.2,0.1,0.2v0
					c-0.1,0-0.2,0-0.3-0.1c0,0-0.1,0-0.1,0C329.7,68.5,329.7,68.5,329.9,68.4C329.8,68.5,329.8,68.4,329.9,68.4
					C329.8,68.4,329.8,68.4,329.9,68.4C329.9,68.4,329.9,68.4,329.9,68.4L329.9,68.4z"/>
				<path class="st0" d="M328.8,68.4C328.8,68.4,328.8,68.5,328.8,68.4C328.7,68.5,328.7,68.5,328.8,68.4c-0.1,0-0.1,0-0.1,0
					C328.7,68.4,328.8,68.4,328.8,68.4L328.8,68.4z"/>
				<path class="st0" d="M322.7,68.5C322.7,68.6,322.6,68.6,322.7,68.5C322.6,68.6,322.6,68.6,322.7,68.5
					C322.6,68.5,322.6,68.5,322.7,68.5C322.6,68.5,322.7,68.5,322.7,68.5L322.7,68.5z"/>
				<path class="st0" d="M322.9,68.5C322.9,68.5,322.8,68.6,322.9,68.5c-0.1,0.2-0.2,0.3-0.3,0.3c0,0,0-0.1,0-0.1
					C322.7,68.6,322.8,68.5,322.9,68.5L322.9,68.5L322.9,68.5z"/>
				<path class="st0" d="M328.7,68.5C328.7,68.6,328.7,68.6,328.7,68.5c-0.1,0.1-0.1,0.1-0.1,0c0,0,0,0,0-0.1
					C328.6,68.5,328.7,68.5,328.7,68.5L328.7,68.5z"/>
				<path class="st0" d="M328.9,68.5C328.9,68.6,328.9,68.6,328.9,68.5C328.8,68.6,328.8,68.6,328.9,68.5c-0.1,0-0.1,0-0.1,0
					C328.8,68.5,328.8,68.5,328.9,68.5C328.8,68.5,328.9,68.5,328.9,68.5L328.9,68.5z"/>
				<path class="st0" d="M323.3,68.5C323.3,68.6,323.3,68.6,323.3,68.5C323.2,68.6,323.2,68.6,323.3,68.5
					C323.2,68.5,323.2,68.5,323.3,68.5C323.3,68.5,323.3,68.5,323.3,68.5L323.3,68.5z"/>
				<path class="st0" d="M323.5,68.6C323.5,68.6,323.5,68.6,323.5,68.6c-0.1,0-0.1,0-0.1,0C323.4,68.5,323.4,68.5,323.5,68.6
					C323.5,68.5,323.5,68.5,323.5,68.6L323.5,68.6z"/>
				<path class="st0" d="M329.5,68.7C329.5,68.8,329.5,68.8,329.5,68.7C329.5,68.8,329.4,68.8,329.5,68.7c-0.2-0.1-0.2-0.1-0.2-0.2
					c0,0,0.1,0,0.1,0C329.4,68.6,329.4,68.7,329.5,68.7L329.5,68.7z"/>
				<path class="st0" d="M329.6,68.6C329.6,68.6,329.6,68.6,329.6,68.6C329.5,68.6,329.5,68.6,329.6,68.6c-0.1,0.1-0.1,0-0.1,0
					C329.5,68.5,329.5,68.5,329.6,68.6C329.5,68.5,329.5,68.5,329.6,68.6L329.6,68.6z"/>
				<path class="st0" d="M323.8,68.6C323.8,68.7,323.8,68.7,323.8,68.6C323.7,68.7,323.7,68.7,323.8,68.6
					C323.7,68.6,323.7,68.6,323.8,68.6C323.7,68.6,323.7,68.6,323.8,68.6L323.8,68.6z"/>
				<path class="st0" d="M328.9,68.8c0,0.1,0.1,0.1,0.1,0.2c0,0,0,0,0,0.1h0c-0.1-0.1-0.2-0.2-0.2-0.3c0,0,0,0,0,0
					C328.7,68.7,328.8,68.7,328.9,68.8L328.9,68.8L328.9,68.8z"/>
				<path class="st0" d="M324.1,68.7C324.1,68.7,324.1,68.7,324.1,68.7c-0.1,0.1-0.3,0.1-0.4,0.1c0,0,0,0,0,0c0.1,0,0.2-0.1,0.2-0.1
					L324.1,68.7L324.1,68.7z"/>
				<path class="st0" d="M323.5,68.7c-0.1,0.1-0.2,0.2-0.3,0.2c0,0,0,0-0.1,0C323.2,68.8,323.3,68.7,323.5,68.7L323.5,68.7
					L323.5,68.7z"/>
				<path class="st0" d="M328.7,68.9C328.7,68.9,328.7,68.9,328.7,68.9C328.7,68.9,328.6,68.9,328.7,68.9
					C328.6,68.9,328.6,68.9,328.7,68.9C328.6,68.8,328.6,68.8,328.7,68.9C328.7,68.8,328.7,68.8,328.7,68.9L328.7,68.9z"/>
				<path class="st0" d="M328.5,68.9C328.5,68.9,328.4,68.9,328.5,68.9c-0.2,0.1-0.3,0.1-0.4,0c0,0,0,0,0,0
					C328.3,68.9,328.4,68.8,328.5,68.9C328.5,68.9,328.5,68.9,328.5,68.9L328.5,68.9z"/>
				<path class="st0" d="M323.5,68.9C323.5,69,323.5,69,323.5,68.9C323.4,69,323.4,69,323.5,68.9C323.4,69,323.4,68.9,323.5,68.9
					C323.4,68.9,323.4,68.9,323.5,68.9C323.5,68.9,323.5,68.9,323.5,68.9L323.5,68.9z"/>
				<path class="st0" d="M323.6,69C323.6,69,323.6,69,323.6,69C323.6,69,323.6,69,323.6,69c-0.1,0-0.1,0-0.1,0
					C323.6,68.9,323.6,68.9,323.6,69C323.6,68.9,323.6,68.9,323.6,69L323.6,69z"/>
				<path class="st0" d="M328.7,69C328.7,69,328.7,69,328.7,69C328.6,69.1,328.6,69.1,328.7,69c-0.1,0.1-0.1,0-0.1,0
					C328.5,69,328.6,69,328.7,69C328.6,68.9,328.6,69,328.7,69L328.7,69z"/>
				<path class="st0" d="M328.8,69C328.8,69,328.8,69,328.8,69C328.8,69,328.8,69.1,328.8,69C328.7,69.1,328.7,69,328.8,69
					C328.7,69,328.7,69,328.8,69C328.7,69,328.8,69,328.8,69L328.8,69z"/>
				<path class="st0" d="M323.5,69.1C323.6,69.1,323.5,69.1,323.5,69.1c-0.1,0.1-0.1,0.1-0.1,0C323.4,69.1,323.4,69.1,323.5,69.1
					C323.5,69,323.5,69,323.5,69.1L323.5,69.1z"/>
				<path class="st0" d="M323.7,69.1c0,0.1,0,0.2-0.1,0.2c0,0-0.1,0-0.1,0v0C323.5,69.2,323.6,69.1,323.7,69.1L323.7,69.1z"/>
				<path class="st0" d="M328.2,69.1C328.2,69.1,328.2,69.2,328.2,69.1C328.2,69.2,328.2,69.2,328.2,69.1
					C328.1,69.2,328.1,69.1,328.2,69.1C328.1,69.1,328.2,69.1,328.2,69.1C328.2,69.1,328.2,69.1,328.2,69.1L328.2,69.1z"/>
				<path class="st0" d="M324,69.3c0,0.1,0,0.1,0,0.2c0,0-0.1,0-0.1-0.1c-0.1-0.1-0.1-0.2-0.1-0.3c0,0,0,0,0,0
					C323.9,69.1,323.9,69.2,324,69.3C324,69.2,324,69.2,324,69.3L324,69.3z"/>
				<path class="st0" d="M328.4,69.1C328.4,69.2,328.3,69.2,328.4,69.1C328.3,69.2,328.3,69.2,328.4,69.1
					C328.3,69.1,328.3,69.1,328.4,69.1C328.3,69.1,328.4,69.1,328.4,69.1L328.4,69.1z"/>
				<path class="st0" d="M328.7,69.4C328.7,69.4,328.7,69.4,328.7,69.4L328.7,69.4c-0.1-0.1-0.2-0.1-0.2-0.2l0,0
					C328.6,69.2,328.7,69.3,328.7,69.4L328.7,69.4z"/>
				<path class="st0" d="M328.5,69.3C328.5,69.3,328.5,69.3,328.5,69.3c-0.1,0.1-0.1,0.1-0.1,0C328.4,69.3,328.4,69.3,328.5,69.3
					C328.5,69.3,328.5,69.3,328.5,69.3L328.5,69.3z"/>
				<path class="st0" d="M328.3,69.4c0,0.1-0.1,0.2-0.2,0.2c0,0,0,0,0,0C328.1,69.4,328.2,69.3,328.3,69.4
					C328.3,69.3,328.3,69.3,328.3,69.4L328.3,69.4z"/>
				<path class="st0" d="M328.5,69.4C328.5,69.5,328.5,69.5,328.5,69.4C328.5,69.5,328.4,69.5,328.5,69.4
					C328.4,69.4,328.4,69.4,328.5,69.4C328.5,69.4,328.5,69.4,328.5,69.4L328.5,69.4z"/>
				<path class="st0" d="M326.5,64.4C326.5,64.4,326.5,64.5,326.5,64.4c0.1,0.1,0,0.1,0,0.1h-0.8c0,0-0.1,0-0.1-0.1
					c0,0,0-0.1,0.1-0.1H326.5L326.5,64.4z M325.9,64.6C326,64.6,325.9,64.5,325.9,64.6l-0.1-0.1C325.7,64.5,325.8,64.6,325.9,64.6
					L325.9,64.6L325.9,64.6z M326.2,64.6C326.3,64.6,326.2,64.5,326.2,64.6l-0.1-0.1C326,64.5,326.1,64.6,326.2,64.6L326.2,64.6
					L326.2,64.6z M326.5,64.5L326.5,64.5C326.4,64.5,326.4,64.6,326.5,64.5C326.5,64.6,326.5,64.5,326.5,64.5L326.5,64.5z"/>
				<path class="st0" d="M326.4,65.4l0.2,0.1l0.2-0.1l-0.1,0.2l0.1,0l0,0.1l0,0.1l-0.1,0l0,0.2l-0.2-0.1l-0.2,0.1l0.1-0.2l-0.1,0
					l0-0.1l0-0.1l0.1,0L326.4,65.4L326.4,65.4z M326.6,65.8C326.7,65.8,326.7,65.7,326.6,65.8c0-0.2,0-0.1-0.1-0.2
					c0,0.1-0.1,0-0.1,0.1c0,0.1,0,0.1,0.1,0.1H326.6L326.6,65.8z M326.5,65.7C326.5,65.7,326.5,65.7,326.5,65.7c0.1,0,0.2,0,0.2,0
					C326.7,65.7,326.6,65.7,326.5,65.7C326.5,65.7,326.5,65.7,326.5,65.7L326.5,65.7z"/>
				<polygon class="st0" points="326,65.7 326,65.7 326,65.7 326,65.7 326,65.6 326.1,65.6 326.1,65.6 326.1,65.6 326.1,65.6 
					326.1,65.7 326.1,65.7 326.1,65.7 326.1,65.7 326.1,65.7 326,65.7 				"/>
				<polygon class="st0" points="325.9,65.9 325.9,65.8 325.9,65.8 325.9,65.8 325.9,65.8 325.9,65.8 325.9,65.8 326,65.8 326,65.8 
					326,65.8 326,65.8 326,65.8 326,65.9 325.9,65.8 325.9,65.9 				"/>
				<polygon class="st0" points="326.1,65.8 326.1,65.8 326.1,65.8 326.1,65.8 326.1,65.8 326.1,65.8 326.2,65.7 326.2,65.8 
					326.2,65.8 326.2,65.8 326.2,65.8 326.2,65.8 326.2,65.8 326.2,65.8 326.1,65.8 				"/>
				<polygon class="st0" points="326.2,66 326.2,65.9 326.1,65.9 326.1,65.9 326.1,65.9 326.2,65.9 326.2,65.9 326.2,65.9 
					326.2,65.9 326.2,65.9 326.2,65.9 326.2,65.9 326.2,66 326.2,66 326.2,66 				"/>
				<polygon class="st0" points="326,66.1 326,66 325.9,66 326,66 325.9,66 326,66 326,65.9 326,66 326.1,66 326.1,66 326.1,66 
					326,66 326,66.1 326,66.1 326,66.1 				"/>
				<polygon class="st0" points="326.1,63.5 326.2,63.7 326.4,63.7 326.3,63.9 326.5,64 326.2,64.1 326.2,64.3 326.1,64.2 
					325.9,64.3 325.9,64.1 325.6,64 325.8,63.9 325.7,63.7 326,63.7 326.1,63.5 				"/>
				<path class="st0" d="M325.2,68.8C325.1,68.8,325.1,68.8,325.2,68.8l0,0.2c0,0,0,0.1,0,0.1c0,0-0.1,0.1-0.1,0.1c0,0-0.1,0-0.1,0
					c0,0,0,0-0.1-0.1l0-0.2c0,0,0,0-0.1,0l0,0l0.2,0l0,0c0,0-0.1,0,0,0.1l0,0.2c0,0,0,0.1,0.1,0.1c0.1,0,0.1-0.1,0.1-0.1L325.2,68.8
					c-0.1,0-0.1,0-0.1,0l0,0L325.2,68.8L325.2,68.8L325.2,68.8z"/>
				<path class="st0" d="M325.5,68.8c0,0-0.1-0.1-0.1-0.1c0,0-0.1,0,0,0.1c0,0,0,0,0.1,0L325.5,68.8c0,0.1,0,0.1,0.1,0.1
					c0,0,0,0.1-0.1,0.1c-0.1,0-0.1,0-0.1,0c0,0,0,0,0,0l0,0l0-0.1l0,0c0,0,0.1,0.1,0.1,0.1c0.1,0,0.1-0.1,0.1-0.1c0,0,0,0-0.1,0l0,0
					c-0.1,0-0.1-0.1-0.1-0.1c0,0,0-0.1,0.1-0.1C325.4,68.8,325.4,68.8,325.5,68.8C325.4,68.8,325.4,68.7,325.5,68.8l0-0.1
					L325.5,68.8L325.5,68.8L325.5,68.8z"/>
				<path class="st0" d="M325.8,69l-0.2,0l0,0c0,0,0.1,0,0,0l0-0.2c0,0-0.1,0-0.1,0.1l0,0l0-0.1l0.3,0l0,0.1l0,0
					c0-0.1-0.1-0.1-0.1-0.1L325.8,69C325.8,69,325.8,69,325.8,69L325.8,69L325.8,69z"/>
				<path class="st0" d="M326.3,69l-0.1,0l-0.1-0.1l0,0l0,0.1c0,0,0,0,0,0l0,0l-0.2,0l0,0c0,0,0,0,0,0l0-0.2c0,0,0,0,0,0l0,0l0.2,0
					c0,0,0.2,0,0.2,0.1c0,0.1-0.1,0.1-0.1,0.1L326.3,69C326.3,69,326.3,69,326.3,69L326.3,69L326.3,69z M326,68.9
					c0.1,0,0.1,0,0.1-0.1c0,0,0-0.1-0.1-0.1c0,0,0,0,0,0L326,68.9L326,68.9z"/>
				<path class="st0" d="M326.6,69.1l-0.2,0l0,0c0,0,0,0,0,0c0,0,0,0,0-0.1l-0.1,0c0,0,0,0,0,0.1c0,0,0,0,0,0l0,0l-0.1,0l0,0
					c0,0,0,0,0.1,0l0.2-0.2l0,0L326.6,69.1C326.6,69,326.6,69,326.6,69.1L326.6,69.1L326.6,69.1z M326.5,68.9l0-0.1l-0.1,0.1
					L326.5,68.9L326.5,68.9z"/>
				<path class="st0" d="M327,69.1l-0.3-0.1l0,0c0,0,0,0,0.1,0l0-0.2c0,0,0,0,0,0l0,0l0.2,0l0,0c0,0-0.1,0-0.1,0l0,0.2c0,0,0,0,0,0
					c0.1,0,0.1,0,0.2-0.1l0,0L327,69.1L327,69.1z"/>
				<path class="st0" d="M327.2,69.2l-0.2,0l0,0c0,0,0.1,0,0.1,0l0-0.2c0,0,0,0,0,0l0,0l0.2,0l0,0c0,0-0.1,0-0.1,0L327.2,69.2
					C327.1,69.2,327.1,69.2,327.2,69.2L327.2,69.2L327.2,69.2z"/>
				<path class="st0" d="M327.6,69.2l-0.2,0l0,0c0,0,0,0,0,0c0,0,0,0,0-0.1l-0.1,0c0,0,0,0.1,0,0.1c0,0,0,0,0,0l0,0l-0.1,0l0,0
					c0,0,0,0,0.1,0l0.1-0.2l0,0L327.6,69.2C327.5,69.2,327.5,69.2,327.6,69.2L327.6,69.2L327.6,69.2z M327.4,69.1l0-0.1l-0.1,0.1
					L327.4,69.1L327.4,69.1z"/>
				<path class="st0" d="M326.1,65.5c0-0.1-0.1,0-0.1-0.1c0,0.1-0.1,0-0.1,0.1c0,0,0,0.1,0,0.1v0c0,0,0,0,0,0h0.1
					C326.1,65.6,326.1,65.6,326.1,65.5L326.1,65.5C326.1,65.5,326.1,65.5,326.1,65.5L326.1,65.5z M326,65.5
					C326,65.5,326,65.5,326,65.5C326,65.4,326,65.4,326,65.5C326.1,65.4,326.1,65.4,326,65.5C326.1,65.5,326.1,65.5,326,65.5
					L326,65.5z"/>
				<path class="st0" d="M327.1,66.8C327.1,66.8,327.2,66.8,327.1,66.8C327.2,66.8,327.1,66.7,327.1,66.8
					C327.1,66.7,327.1,66.8,327.1,66.8C327.1,66.8,327.1,66.8,327.1,66.8L327.1,66.8z"/>
				<path class="st0" d="M326.9,65.2C326.9,65.2,326.8,65.2,326.9,65.2C326.8,65.2,326.9,65.2,326.9,65.2
					C326.9,65.2,326.9,65.2,326.9,65.2C326.9,65.2,326.9,65.2,326.9,65.2L326.9,65.2z"/>
				<path class="st0" d="M325.2,65.2C325.2,65.2,325.2,65.2,325.2,65.2C325.2,65.2,325.2,65.2,325.2,65.2
					C325.2,65.2,325.2,65.2,325.2,65.2C325.2,65.2,325.2,65.2,325.2,65.2L325.2,65.2z"/>
				<path class="st0" d="M325.6,65.2C325.6,65.2,325.6,65.2,325.6,65.2C325.6,65.2,325.6,65.2,325.6,65.2
					C325.6,65.2,325.7,65.2,325.6,65.2C325.7,65.2,325.6,65.2,325.6,65.2L325.6,65.2z"/>
				<path class="st0" d="M326,65.2C326,65.2,326,65.2,326,65.2C326,65.2,326,65.2,326,65.2C326.1,65.2,326.1,65.2,326,65.2
					C326.1,65.2,326,65.2,326,65.2L326,65.2z"/>
				<path class="st0" d="M326.5,65.2C326.5,65.2,326.4,65.2,326.5,65.2C326.4,65.2,326.4,65.2,326.5,65.2
					C326.5,65.2,326.5,65.2,326.5,65.2C326.5,65.2,326.5,65.2,326.5,65.2L326.5,65.2z"/>
				<path class="st0" d="M325.2,65.7C325.2,65.7,325.2,65.8,325.2,65.7C325.2,65.8,325.2,65.8,325.2,65.7
					C325.2,65.8,325.2,65.8,325.2,65.7C325.2,65.8,325.2,65.7,325.2,65.7L325.2,65.7z"/>
				<path class="st0" d="M325.2,66.3C325.2,66.3,325.2,66.3,325.2,66.3C325.2,66.3,325.2,66.4,325.2,66.3
					C325.2,66.4,325.2,66.3,325.2,66.3C325.2,66.3,325.2,66.3,325.2,66.3L325.2,66.3z"/>
				<path class="st0" d="M325.3,66.7C325.3,66.7,325.3,66.8,325.3,66.7C325.3,66.8,325.3,66.8,325.3,66.7
					C325.3,66.8,325.3,66.8,325.3,66.7C325.3,66.8,325.3,66.7,325.3,66.7L325.3,66.7z"/>
				<path class="st0" d="M325.6,67C325.6,67,325.7,67,325.6,67C325.7,67,325.6,67,325.6,67C325.6,67,325.6,67,325.6,67
					C325.6,67,325.6,67,325.6,67L325.6,67z"/>
				<path class="st0" d="M326.9,65.7C326.9,65.7,326.9,65.8,326.9,65.7C326.9,65.8,326.9,65.8,326.9,65.7
					C326.9,65.8,326.9,65.8,326.9,65.7C326.9,65.8,326.9,65.7,326.9,65.7L326.9,65.7z"/>
				<path class="st0" d="M326.9,66.3C326.9,66.3,326.9,66.3,326.9,66.3C326.9,66.3,326.9,66.4,326.9,66.3
					C326.9,66.4,326.9,66.3,326.9,66.3C326.9,66.3,326.9,66.3,326.9,66.3L326.9,66.3z"/>
				<path class="st0" d="M326.8,66.7C326.8,66.7,326.8,66.8,326.8,66.7C326.8,66.8,326.8,66.8,326.8,66.7
					C326.8,66.8,326.9,66.8,326.8,66.7C326.9,66.8,326.8,66.7,326.8,66.7L326.8,66.7z"/>
				<path class="st0" d="M326.5,67C326.5,67,326.5,67,326.5,67C326.5,67,326.5,67,326.5,67C326.5,67,326.5,67,326.5,67
					C326.5,67,326.5,67,326.5,67L326.5,67z"/>
				<path class="st0" d="M326.1,67.2C326.1,67.2,326,67.2,326.1,67.2C326,67.3,326,67.3,326.1,67.2
					C326.1,67.3,326.1,67.3,326.1,67.2C326.1,67.2,326.1,67.2,326.1,67.2L326.1,67.2z"/>
				<path class="st0" d="M326.7,66.4C326.7,66.4,326.7,66.4,326.7,66.4L326.7,66.4C326.8,66.3,326.8,66.3,326.7,66.4
					C326.7,66.3,326.7,66.3,326.7,66.4C326.6,66.4,326.7,66.4,326.7,66.4C326.7,66.4,326.7,66.5,326.7,66.4c0,0.1,0,0.1,0,0.1
					c0,0-0.1,0-0.1,0c0,0,0-0.1,0-0.1c0,0,0,0,0,0c0,0-0.1,0-0.1,0c0,0-0.1,0-0.1,0c0,0,0,0,0,0c0,0,0,0,0,0l0,0c0,0,0,0,0,0
					c0,0,0,0,0,0c0,0,0-0.1,0-0.1c0,0,0,0,0,0c0,0,0,0,0,0c0,0,0,0,0,0s0.1,0.1,0.1,0.1c0,0,0,0.1-0.1,0.1c0,0,0,0,0,0l0,0
					c0,0,0.1,0,0.1-0.1c0,0,0,0,0-0.1c0,0,0,0,0.1,0c0,0,0,0.1-0.1,0.1c0,0,0,0,0,0c0,0,0,0,0.1,0c0,0,0.1-0.1,0.1-0.1
					c0,0-0.1,0,0,0.1c0,0,0.1,0,0.1,0c0,0,0.1-0.1,0-0.1C326.7,66.5,326.8,66.5,326.7,66.4C326.7,66.4,326.7,66.4,326.7,66.4
					C326.7,66.4,326.7,66.4,326.7,66.4L326.7,66.4z"/>
				<path class="st0" d="M324.8,66.9C324.9,66.9,324.9,66.8,324.8,66.9C324.9,66.8,324.9,66.8,324.8,66.9
					C324.8,66.8,324.8,66.8,324.8,66.9C324.8,66.8,324.8,66.9,324.8,66.9L324.8,66.9z"/>
				<path class="st0" d="M322.2,68.4C322.2,68.4,322.2,68.4,322.2,68.4C322.2,68.3,322.2,68.3,322.2,68.4
					C322.1,68.3,322.1,68.3,322.2,68.4C322.1,68.4,322.1,68.4,322.2,68.4L322.2,68.4z"/>
				<path class="st0" d="M323.9,68.8L323.9,68.8L323.9,68.8L323.9,68.8L323.9,68.8C323.9,68.8,323.9,68.8,323.9,68.8L323.9,68.8
					L323.9,68.8L323.9,68.8C323.9,68.8,323.9,68.8,323.9,68.8L323.9,68.8C323.9,68.8,323.9,68.8,323.9,68.8L323.9,68.8L323.9,68.8
					C323.9,68.8,323.9,68.8,323.9,68.8C323.9,68.8,323.9,68.8,323.9,68.8L323.9,68.8C323.9,68.8,323.9,68.8,323.9,68.8L323.9,68.8
					L323.9,68.8z M323.9,68.8C323.9,68.8,323.9,68.8,323.9,68.8C323.9,68.8,323.9,68.8,323.9,68.8C323.9,68.8,323.9,68.8,323.9,68.8
					L323.9,68.8L323.9,68.8z"/>
				<polygon class="st0" points="323.9,68.8 323.9,68.8 323.9,68.8 323.9,68.8 323.9,68.8 323.9,68.8 323.9,68.8 323.9,68.8 
					323.9,68.8 323.9,68.8 323.9,68.8 323.9,68.8 323.9,68.8 323.9,68.8 323.9,68.8 323.9,68.8 323.9,68.8 323.9,68.8 323.9,68.8 
					323.9,68.8 323.9,68.8 323.9,68.8 323.9,68.8 				"/>
				<polygon class="st0" points="323.9,68.8 323.9,68.8 323.9,68.8 323.9,68.8 323.9,68.8 323.9,68.8 323.9,68.8 323.9,68.8 
					323.9,68.8 323.9,68.8 323.9,68.8 323.9,68.8 323.9,68.8 323.9,68.8 323.9,68.8 323.9,68.8 323.9,68.8 323.9,68.8 323.9,68.8 
					323.9,68.8 323.9,68.8 323.9,68.8 323.9,68.8 323.9,68.8 323.9,68.8 323.9,68.8 323.9,68.8 323.9,68.8 323.9,68.8 323.9,68.8 
					323.9,68.8 323.9,68.8 323.9,68.8 				"/>
				<path class="st0" d="M323.9,68.8C323.9,68.8,323.9,68.8,323.9,68.8C323.9,68.8,323.9,68.8,323.9,68.8
					C323.9,68.8,323.9,68.8,323.9,68.8C323.9,68.8,323.9,68.8,323.9,68.8C323.9,68.8,323.9,68.8,323.9,68.8
					C323.9,68.8,323.9,68.8,323.9,68.8C323.9,68.8,323.9,68.8,323.9,68.8L323.9,68.8L323.9,68.8z M323.9,68.8
					C323.9,68.8,323.9,68.8,323.9,68.8C323.9,68.8,323.9,68.8,323.9,68.8C323.9,68.8,323.9,68.8,323.9,68.8
					C323.9,68.8,323.9,68.8,323.9,68.8C323.9,68.8,323.9,68.8,323.9,68.8L323.9,68.8z"/>
				<polygon class="st0" points="323.9,68.8 323.9,68.8 323.9,68.8 323.9,68.8 323.9,68.8 323.9,68.8 323.9,68.8 323.9,68.8 
					323.9,68.8 323.9,68.8 323.9,68.8 323.9,68.8 323.9,68.8 323.9,68.8 323.9,68.8 				"/>
				<path class="st0" d="M327,65.1L327,65.1l-1.9,0v0h0l0,1.5c0,0.1,0.1,0.3,0.1,0.3l0.7,0.5c0,0,0,0,0.1,0c0,0,0,0,0.1,0l0.7-0.5
					c0.1,0,0.1-0.2,0.1-0.3L327,65.1L327,65.1L327,65.1z M327,66.6c0,0.1,0,0.2-0.1,0.3l-0.7,0.5h0c0,0,0,0-0.1,0c0,0,0,0-0.1,0
					l-0.7-0.5c-0.1-0.1-0.1-0.1-0.1-0.3v-1.4h1.8V66.6L327,66.6z"/>
				<path class="st0" d="M326.3,67.2L326.3,67.2C326.3,67.2,326.3,67.2,326.3,67.2L326.3,67.2z"/>
				<path class="st0" d="M324.9,69.2l-0.2,0l0,0c0,0,0,0,0,0c0,0,0,0,0-0.1l-0.1,0c0,0,0,0.1,0,0.1c0,0,0,0,0,0l0,0l-0.1,0l0,0
					c0,0,0,0,0-0.1l0.1-0.3l0,0L324.9,69.2C324.8,69.2,324.8,69.2,324.9,69.2L324.9,69.2L324.9,69.2z M324.7,69.1l-0.1-0.1l0,0.1
					L324.7,69.1L324.7,69.1z"/>
				<path class="st0" d="M328,68.5c0-0.1-0.1-0.1-0.2-0.2c-0.1,0-0.2,0-0.2,0.1c-0.1,0.1,0,0.2,0,0.3c0,0,0,0,0,0
					c-0.4,0-0.8-0.1-1.2-0.2c-0.1,0-0.2,0-0.3,0l-0.1,0c-0.3,0-0.7,0-1,0.1c-0.1,0-0.1,0-0.2,0.1c0,0-0.1,0-0.1,0l-0.1,0
					c0,0,0,0,0,0c0-0.1,0.1-0.2,0-0.3c0-0.1-0.1-0.1-0.2-0.1c-0.1,0-0.2,0-0.2,0.1c-0.1,0.1,0,0.3,0,0.4c0,0,0,0.1,0,0.1
					c-0.1-0.1-0.2-0.1-0.3-0.1c0,0-0.1,0-0.1,0c0.1,0.1,0.3,0.1,0.4,0c0,0,0,0,0,0c0,0.1,0,0.2,0,0.2c0,0.1,0.1,0.1,0.2,0.1
					c0.3,0,0.5-0.1,0.7-0.1c0,0,0.1,0,0.1,0c0.1,0,0.3,0,0.4-0.1c-0.1,0.1-0.1,0.2-0.1,0.2c0,0.1,0.1,0.1,0.1,0.1
					c-0.1,0-0.1,0.1-0.2,0.1c-0.2,0-0.3,0.1-0.5,0.1c0,0,0.1,0,0.1,0.1c0,0,0,0-0.1,0c0,0,0,0,0,0c0,0,0.1,0,0.1,0
					c0.1,0,0.1,0,0.2,0c0,0,0.1,0,0.1-0.1c0.1,0,0.1-0.1,0.2-0.1c0.1,0,0.2,0,0.2,0v0c-0.1,0.1-0.1,0.2-0.2,0.3c0,0,0,0,0,0
					c0,0,0.1,0,0.1,0c0.1-0.1,0.1-0.2,0.2-0.3c0-0.1,0.1-0.1,0.2-0.2c0,0,0,0,0,0c-0.1,0.1-0.1,0.1-0.1,0.2c0,0.1,0,0.2,0,0.2
					c0,0,0.1,0,0.1,0c0.1-0.1,0.2,0,0.3-0.1c0,0,0.1,0,0.1,0.1c0,0,0.1,0.1,0.1,0c0,0,0-0.1-0.1-0.1c0-0.1-0.1-0.1-0.1-0.2
					c0,0,0-0.1,0-0.1c0,0,0.1,0,0.1,0.1c0,0,0.1,0,0.1,0c0,0,0.1,0.1,0.1,0.1c0.1,0,0.1,0,0.2,0.1c0,0,0.1,0,0.1,0c0,0,0,0,0,0
					c0,0,0,0,0.1,0c0,0,0,0,0,0c0,0-0.1,0-0.2,0c0,0-0.1,0-0.1,0c-0.2,0-0.3-0.1-0.4-0.2c0,0,0.1,0,0.1-0.1c0,0,0-0.1,0-0.1
					c0-0.1-0.1-0.1-0.2-0.1l0,0c0.1,0,0.2,0,0.3,0c0.3,0,0.5,0.1,0.8,0.1c0.2,0,0.3,0,0.4-0.1c0-0.1,0-0.2,0-0.3
					C328,68.8,328,68.7,328,68.5L328,68.5z M325.1,69.8L325.1,69.8C325.1,69.7,325.1,69.7,325.1,69.8c0.1-0.1,0.2-0.1,0.3-0.1
					C325.3,69.8,325.2,69.8,325.1,69.8L325.1,69.8z M326.8,69.7c0.1,0,0.2,0.1,0.3,0.1c0,0-0.1,0-0.1,0.1
					C326.9,69.8,326.8,69.8,326.8,69.7C326.8,69.7,326.8,69.7,326.8,69.7L326.8,69.7z M324.2,68.6c0,0,0-0.1,0.1-0.1
					c0.1,0,0.2,0,0.2,0c0,0,0,0,0,0.1c0,0,0,0.1,0,0.1h0c0,0,0-0.1,0-0.1c0,0,0,0-0.1,0C324.4,68.4,324.4,68.5,324.2,68.6
					C324.3,68.5,324.3,68.5,324.2,68.6c0.1,0.1,0.1,0.1,0.1,0.1l0,0C324.3,68.7,324.2,68.6,324.2,68.6L324.2,68.6z M324.4,68.6
					c0,0,0.1,0,0.1,0c0,0,0,0.1,0,0.1C324.4,68.8,324.4,68.8,324.4,68.6C324.4,68.7,324.3,68.7,324.4,68.6L324.4,68.6z M324.3,68.6
					C324.4,68.5,324.3,68.5,324.3,68.6C324.4,68.5,324.4,68.5,324.3,68.6C324.4,68.5,324.4,68.6,324.3,68.6
					C324.4,68.6,324.4,68.6,324.3,68.6L324.3,68.6z M325.6,69.4c0-0.1,0-0.2,0.1-0.2c0,0,0.1,0,0.1,0c-0.1,0-0.2,0-0.2,0.1
					C325.7,69.4,325.6,69.4,325.6,69.4c0.1,0,0.1,0,0.2,0c0,0,0,0,0,0C325.7,69.5,325.7,69.5,325.6,69.4L325.6,69.4z M325.5,69.6
					c0.1,0,0.1-0.1,0.2-0.1C325.7,69.6,325.6,69.6,325.5,69.6L325.5,69.6z M325.8,69.7c0,0.1-0.1,0.2-0.1,0.3c0,0,0,0,0,0
					c0,0,0-0.1,0.1-0.1C325.7,69.8,325.7,69.7,325.8,69.7C325.8,69.6,325.8,69.6,325.8,69.7L325.8,69.7z M325.9,69.5L325.9,69.5
					L325.9,69.5L325.9,69.5L325.9,69.5L325.9,69.5C325.9,69.5,325.9,69.5,325.9,69.5L325.9,69.5L325.9,69.5z M325.8,69.4
					c0,0-0.1,0-0.1,0c0,0,0-0.1,0-0.1c0-0.1,0.1-0.1,0.2,0C325.9,69.3,325.9,69.4,325.8,69.4L325.8,69.4z M325.9,69.4
					c0,0,0-0.1,0-0.1C325.9,69.3,325.9,69.4,325.9,69.4L325.9,69.4z M325.9,69.2C325.9,69.2,325.9,69.2,325.9,69.2
					C325.9,69.1,325.9,69.1,325.9,69.2C325.9,69.2,325.9,69.2,325.9,69.2L325.9,69.2z M326,69.3L326,69.3L326,69.3L326,69.3
					L326,69.3L326,69.3z M326,69.4C326,69.4,326,69.4,326,69.4C326,69.4,326,69.4,326,69.4C326,69.4,326,69.4,326,69.4L326,69.4z
					 M326,69.2c0,0,0-0.1,0-0.1c0,0,0.1,0,0.1,0c0,0.1,0.1,0.1,0,0.2C326.1,69.3,326,69.4,326,69.2C326,69.3,326,69.3,326,69.2
					L326,69.2z M326.2,69.2C326.2,69.1,326.2,69.2,326.2,69.2l0.1,0C326.3,69.1,326.2,69.2,326.2,69.2L326.2,69.2z M326.3,69.2
					C326.3,69.2,326.3,69.2,326.3,69.2C326.3,69.2,326.3,69.2,326.3,69.2L326.3,69.2z M326.2,69.4L326.2,69.4L326.2,69.4L326.2,69.4
					L326.2,69.4L326.2,69.4z M326.2,69.5C326.2,69.5,326.2,69.6,326.2,69.5L326.2,69.5C326.2,69.5,326.2,69.5,326.2,69.5L326.2,69.5
					z M326.1,69.5C326.2,69.4,326.2,69.4,326.1,69.5L326.1,69.5L326.1,69.5z M326.1,69.4C326.1,69.4,326.1,69.4,326.1,69.4
					C326.2,69.4,326.2,69.4,326.1,69.4C326.1,69.4,326.1,69.4,326.1,69.4L326.1,69.4z M326,69.4L326,69.4L326,69.4
					C326.1,69.4,326,69.4,326,69.4L326,69.4z M326.1,69.5C326.1,69.5,326.1,69.5,326.1,69.5c0.1,0.1,0.2,0.2,0.2,0.3
					c-0.1,0-0.1,0-0.2,0c0,0-0.1,0-0.1,0C326,69.7,326,69.6,326.1,69.5L326.1,69.5z M326,69.6L326,69.6c0,0,0,0.1-0.1,0.2
					C325.9,69.7,326,69.6,326,69.6L326,69.6z M326.1,69.9c-0.1,0-0.1,0-0.2,0c0,0,0,0,0-0.1C325.9,69.8,326,69.9,326.1,69.9
					c0-0.1,0.1-0.1,0.1-0.1c0,0,0.1,0,0.1,0C326.3,69.9,326.2,69.9,326.1,69.9L326.1,69.9z M326.3,69.5L326.3,69.5L326.3,69.5
					L326.3,69.5L326.3,69.5L326.3,69.5z M326.3,69.7C326.3,69.7,326.3,69.7,326.3,69.7C326.3,69.7,326.3,69.7,326.3,69.7L326.3,69.7
					z M326.4,69.8L326.4,69.8C326.3,69.8,326.3,69.8,326.4,69.8C326.3,69.8,326.4,69.8,326.4,69.8L326.4,69.8z M326.5,69.9
					C326.5,69.9,326.5,69.9,326.5,69.9c-0.1-0.1-0.1-0.2-0.2-0.3l0,0C326.4,69.7,326.4,69.8,326.5,69.9L326.5,69.9z M326.6,69.6
					C326.6,69.6,326.6,69.7,326.6,69.6c-0.1,0-0.1,0-0.2-0.1l0,0C326.5,69.6,326.5,69.6,326.6,69.6L326.6,69.6z M326.5,69.3
					C326.5,69.3,326.6,69.3,326.5,69.3c0,0.1,0,0.2-0.1,0.2c0,0-0.1,0-0.1,0c0.1,0,0.1,0,0.2-0.1L326.5,69.3L326.5,69.3z
					 M326.5,69.3c0,0,0,0.1,0,0.1c0,0.1-0.1,0.1-0.1,0.1c0,0,0,0-0.1,0c0,0,0,0,0,0c0,0-0.1-0.1,0-0.1
					C326.3,69.3,326.4,69.2,326.5,69.3L326.5,69.3z M327.8,69.1C327.8,69.1,327.8,69.1,327.8,69.1c0,0.1-0.1,0.2-0.1,0.2
					c-0.3,0.1-0.6,0-1-0.1c-0.4-0.1-1-0.1-1.4,0c-0.2,0-0.4,0.1-0.6,0.1c-0.1,0-0.3,0-0.4,0c-0.1,0-0.1-0.2-0.1-0.3
					c0-0.1,0-0.1,0-0.2c0,0,0,0,0-0.1c0,0,0.1,0,0.1,0c0.2,0,0.4,0,0.6-0.1c0.2,0,0.4-0.1,0.6-0.1c0.2,0,0.5,0,0.7,0
					c0.1,0,0.1,0,0.2,0c0.2,0,0.3,0.1,0.5,0.1c0,0,0.1,0,0.1,0c0.2,0,0.5,0.1,0.8,0C327.9,68.9,327.9,69,327.8,69.1L327.8,69.1z
					 M327.8,68.7C327.8,68.8,327.7,68.8,327.8,68.7l-0.1,0c0,0,0-0.1,0-0.1C327.7,68.7,327.7,68.7,327.8,68.7L327.8,68.7z
					 M327.7,68.7C327.8,68.6,327.7,68.5,327.7,68.7C327.8,68.6,327.8,68.6,327.7,68.7C327.8,68.7,327.8,68.7,327.7,68.7L327.7,68.7z
					 M328,68.6c0,0-0.1,0.1-0.1,0.1C327.8,68.7,327.9,68.6,328,68.6c-0.1-0.1-0.2-0.2-0.2-0.1c0,0,0,0,0,0.1l0,0.1
					c-0.1,0-0.1,0-0.1-0.1c0-0.1,0-0.1,0.1-0.1c0,0,0.1,0,0.2,0c0,0,0.1,0,0.1,0.1C328,68.5,328,68.6,328,68.6L328,68.6z"/>
			</g>
			<rect x="331.8" y="64.8" class="st2" width="15.7" height="1.5"/>
			<rect x="331.8" y="67.3" class="st2" width="15.7" height="1.5"/>
		</g>
		<g class="st13">
			<path class="st17" d="M312.9,92.4"/>
			<linearGradient id="SVGID_1_" gradientUnits="userSpaceOnUse" x1="306.226" y1="82.9582" x2="312.6932" y2="88.9551">
				<stop  offset="0" style="stop-color:#387CC0"/>
				<stop  offset="1" style="stop-color:#05BAB9"/>
			</linearGradient>
			<path class="st18" d="M308.9,84.1c0.1,0,5.6,4.6,5.6,4.6l-1.6,1.6l-6.9-5.8C305.9,84.5,308.3,84.1,308.9,84.1z"/>
			<linearGradient id="SVGID_2_" gradientUnits="userSpaceOnUse" x1="302.5717" y1="94.2692" x2="308.8037" y2="83.3339">
				<stop  offset="1.141827e-02" style="stop-color:#FCD127"/>
				<stop  offset="1" style="stop-color:#F8961D"/>
			</linearGradient>
			<path class="st19" d="M305.6,88.7c-0.1,0-5.6,4.6-5.6,4.6l1.6,1.6l6.9-5.8C308.6,89.2,306.2,88.7,305.6,88.7z"/>
			<linearGradient id="SVGID_3_" gradientUnits="userSpaceOnUse" x1="313.1488" y1="94.2284" x2="306.7612" y2="87.8408">
				<stop  offset="0" style="stop-color:#E9487B"/>
				<stop  offset="0.8279" style="stop-color:#F9A12E"/>
			</linearGradient>
			<path class="st20" d="M308.1,88.7c0.7,0,0.9,0,1.5,0.4c1.8,1.5,4.9,4.3,4.9,4.3l-1.7,1.5c0,0-4.5-4-6.4-5.6
				c-0.5-0.4-0.8-0.6-0.8-0.6s1.1,0,1.9,0C307.8,88.7,308,88.7,308.1,88.7z"/>
			<linearGradient id="SVGID_4_" gradientUnits="userSpaceOnUse" x1="306.9963" y1="84.3934" x2="299.5885" y2="90.3902">
				<stop  offset="0" style="stop-color:#8DC641"/>
				<stop  offset="1" style="stop-color:#2AB34B"/>
			</linearGradient>
			<path class="st21" d="M306.3,84c-0.7,0-0.9,0-1.5,0.4c-1.8,1.5-4.9,4.3-4.9,4.3l1.7,1.5c0,0,4.5-4,6.4-5.6
				c0.5-0.4,0.8-0.6,0.8-0.6s-1.1,0-1.9,0C306.7,84,306.5,84,306.3,84z"/>
		</g>
		<g class="st13">
			<path class="st6" d="M318.5,85h1.9l2.2,6.2h0l2.1-6.2h1.9v7.9h-1.3v-6.1h0l-2.2,6.1h-1.1l-2.2-6.1h0v6.1h-1.3V85z"/>
			<path class="st6" d="M327.6,87.1h1.4l1.5,4.3h0l1.5-4.3h1.3l-2.2,6c-0.1,0.3-0.2,0.5-0.3,0.7c-0.1,0.2-0.2,0.4-0.4,0.6
				c-0.1,0.2-0.3,0.3-0.5,0.4c-0.2,0.1-0.5,0.2-0.8,0.2c-0.3,0-0.6,0-0.9-0.1V94c0.1,0,0.2,0,0.3,0c0.1,0,0.2,0,0.3,0
				c0.1,0,0.3,0,0.4-0.1c0.1,0,0.2-0.1,0.2-0.2c0.1-0.1,0.1-0.2,0.2-0.2c0-0.1,0.1-0.2,0.1-0.3l0.1-0.4L327.6,87.1z"/>
			<path class="st6" d="M335.2,90.2c0,0.3,0.1,0.6,0.2,0.8c0.1,0.2,0.2,0.4,0.4,0.5c0.2,0.1,0.4,0.2,0.6,0.3
				c0.2,0.1,0.5,0.1,0.8,0.1c0.3,0,0.6,0,0.8-0.1c0.2-0.1,0.4-0.2,0.5-0.3c0.1-0.1,0.2-0.2,0.3-0.4c0.1-0.1,0.1-0.3,0.1-0.4
				c0-0.3-0.1-0.5-0.2-0.7c-0.1-0.1-0.3-0.2-0.4-0.3c-0.3-0.1-0.6-0.2-1-0.3c-0.4-0.1-0.8-0.2-1.4-0.4c-0.3-0.1-0.6-0.2-0.8-0.3
				c-0.2-0.1-0.4-0.3-0.5-0.5c-0.1-0.2-0.2-0.4-0.3-0.6c-0.1-0.2-0.1-0.4-0.1-0.6c0-0.4,0.1-0.7,0.2-1c0.2-0.3,0.4-0.5,0.7-0.7
				c0.3-0.2,0.6-0.3,0.9-0.4c0.3-0.1,0.7-0.1,1.1-0.1c0.4,0,0.8,0.1,1.2,0.2c0.4,0.1,0.7,0.3,1,0.5c0.3,0.2,0.5,0.5,0.7,0.8
				c0.2,0.3,0.2,0.7,0.2,1.1h-1.4c0-0.5-0.2-0.9-0.5-1.1c-0.3-0.2-0.7-0.3-1.2-0.3c-0.2,0-0.3,0-0.5,0c-0.2,0-0.3,0.1-0.5,0.2
				c-0.1,0.1-0.3,0.2-0.3,0.3c-0.1,0.1-0.1,0.3-0.1,0.5c0,0.3,0.1,0.5,0.3,0.7c0.2,0.2,0.4,0.3,0.7,0.4c0,0,0.1,0,0.3,0.1
				c0.2,0.1,0.4,0.1,0.7,0.2c0.3,0.1,0.5,0.1,0.7,0.2c0.2,0.1,0.4,0.1,0.5,0.1c0.3,0.1,0.5,0.2,0.7,0.3c0.2,0.1,0.4,0.3,0.5,0.5
				c0.1,0.2,0.2,0.4,0.3,0.6c0.1,0.2,0.1,0.4,0.1,0.6c0,0.4-0.1,0.8-0.3,1.1c-0.2,0.3-0.4,0.6-0.7,0.8c-0.3,0.2-0.6,0.3-1,0.4
				c-0.4,0.1-0.8,0.1-1.2,0.1c-0.5,0-0.9-0.1-1.3-0.2c-0.4-0.1-0.7-0.3-1-0.5c-0.3-0.2-0.5-0.5-0.7-0.9c-0.2-0.4-0.3-0.8-0.3-1.3
				H335.2z"/>
			<path class="st6" d="M342.1,90.3c0,0.2,0,0.4,0.1,0.6c0.1,0.2,0.2,0.4,0.3,0.5c0.1,0.2,0.3,0.3,0.5,0.4c0.2,0.1,0.4,0.1,0.7,0.1
				c0.4,0,0.7-0.1,0.9-0.2c0.2-0.2,0.4-0.4,0.5-0.7h1.2c-0.1,0.3-0.2,0.6-0.3,0.8c-0.2,0.2-0.4,0.4-0.6,0.6
				c-0.2,0.2-0.5,0.3-0.8,0.4c-0.3,0.1-0.6,0.1-0.9,0.1c-0.5,0-0.8-0.1-1.2-0.2c-0.3-0.1-0.6-0.4-0.9-0.6c-0.2-0.3-0.4-0.6-0.5-1
				c-0.1-0.4-0.2-0.8-0.2-1.2c0-0.4,0.1-0.8,0.2-1.2c0.1-0.4,0.3-0.7,0.6-1c0.2-0.3,0.5-0.5,0.9-0.7c0.3-0.2,0.7-0.2,1.2-0.2
				c0.5,0,0.9,0.1,1.2,0.3c0.4,0.2,0.7,0.4,0.9,0.7c0.2,0.3,0.4,0.7,0.5,1.1c0.1,0.4,0.1,0.8,0.1,1.2H342.1z M345.1,89.5
				c0-0.2-0.1-0.4-0.1-0.6c-0.1-0.2-0.2-0.3-0.3-0.5c-0.1-0.1-0.3-0.2-0.4-0.3c-0.2-0.1-0.4-0.1-0.6-0.1c-0.2,0-0.4,0-0.6,0.1
				c-0.2,0.1-0.3,0.2-0.5,0.3c-0.1,0.1-0.2,0.3-0.3,0.5c-0.1,0.2-0.1,0.4-0.1,0.6H345.1z"/>
			<path class="st6" d="M347.1,87.1h1.2v1.1h0c0-0.2,0.1-0.3,0.2-0.5c0.1-0.1,0.2-0.3,0.4-0.4c0.2-0.1,0.3-0.2,0.5-0.3
				c0.2-0.1,0.4-0.1,0.6-0.1c0.1,0,0.2,0,0.3,0c0.1,0,0.1,0,0.2,0v1.2c-0.1,0-0.2,0-0.3,0c-0.1,0-0.2,0-0.3,0c-0.2,0-0.4,0-0.6,0.1
				c-0.2,0.1-0.4,0.2-0.5,0.4c-0.1,0.2-0.3,0.4-0.3,0.6c-0.1,0.2-0.1,0.5-0.1,0.8v2.7h-1.3V87.1z"/>
			<path class="st6" d="M350.9,87.1h1.4l1.5,4.4h0l1.4-4.4h1.3l-2,5.7H353L350.9,87.1z"/>
			<path class="st6" d="M357.2,85h1.3v1.2h-1.3V85z M357.2,87.1h1.3v5.7h-1.3V87.1z"/>
			<path class="st6" d="M363.5,89.1c-0.1-0.4-0.2-0.6-0.4-0.8c-0.2-0.2-0.5-0.3-0.9-0.3c-0.2,0-0.3,0-0.5,0.1
				c-0.2,0.1-0.4,0.2-0.5,0.3c-0.2,0.2-0.3,0.4-0.4,0.6c-0.1,0.3-0.2,0.6-0.2,1.1c0,0.2,0,0.5,0.1,0.7s0.1,0.4,0.3,0.6
				c0.1,0.2,0.3,0.3,0.5,0.4c0.2,0.1,0.4,0.2,0.7,0.2c0.4,0,0.7-0.1,0.9-0.3c0.2-0.2,0.4-0.5,0.4-1h1.3c-0.1,0.7-0.4,1.3-0.8,1.7
				c-0.4,0.4-1,0.6-1.8,0.6c-0.5,0-0.8-0.1-1.2-0.2c-0.3-0.2-0.6-0.4-0.9-0.6c-0.2-0.3-0.4-0.6-0.5-0.9c-0.1-0.4-0.2-0.8-0.2-1.2
				c0-0.4,0.1-0.8,0.2-1.2c0.1-0.4,0.3-0.7,0.5-1c0.2-0.3,0.5-0.5,0.9-0.7c0.4-0.2,0.8-0.2,1.2-0.2c0.3,0,0.6,0,0.9,0.1
				c0.3,0.1,0.6,0.2,0.8,0.4c0.2,0.2,0.4,0.4,0.6,0.6c0.1,0.3,0.2,0.6,0.3,0.9H363.5z"/>
			<path class="st6" d="M366.8,90.3c0,0.2,0,0.4,0.1,0.6c0.1,0.2,0.2,0.4,0.3,0.5c0.1,0.2,0.3,0.3,0.5,0.4c0.2,0.1,0.4,0.1,0.7,0.1
				c0.4,0,0.7-0.1,0.9-0.2c0.2-0.2,0.4-0.4,0.5-0.7h1.2c-0.1,0.3-0.2,0.6-0.3,0.8c-0.2,0.2-0.4,0.4-0.6,0.6
				c-0.2,0.2-0.5,0.3-0.8,0.4c-0.3,0.1-0.6,0.1-0.9,0.1c-0.5,0-0.8-0.1-1.2-0.2c-0.3-0.1-0.6-0.4-0.9-0.6c-0.2-0.3-0.4-0.6-0.5-1
				c-0.1-0.4-0.2-0.8-0.2-1.2c0-0.4,0.1-0.8,0.2-1.2c0.1-0.4,0.3-0.7,0.6-1c0.2-0.3,0.5-0.5,0.9-0.7c0.3-0.2,0.7-0.2,1.2-0.2
				c0.5,0,0.9,0.1,1.2,0.3c0.4,0.2,0.7,0.4,0.9,0.7c0.2,0.3,0.4,0.7,0.5,1.1c0.1,0.4,0.1,0.8,0.1,1.2H366.8z M369.7,89.5
				c0-0.2-0.1-0.4-0.1-0.6c-0.1-0.2-0.2-0.3-0.3-0.5c-0.1-0.1-0.3-0.2-0.4-0.3c-0.2-0.1-0.4-0.1-0.6-0.1c-0.2,0-0.4,0-0.6,0.1
				c-0.2,0.1-0.3,0.2-0.5,0.3c-0.1,0.1-0.2,0.3-0.3,0.5c-0.1,0.2-0.1,0.4-0.1,0.6H369.7z"/>
		</g>
		<text transform="matrix(1 0 0 1 299.7041 41.6665)" class="st10 st11" style="display:inline;fill:#333333;">MyService</text>
	</g>
	<path class="st14" d="M176.3,58.8c0.9-0.1,2.2-0.2,4.1-0.4c1.9-0.2,3.2-0.3,4-0.4c0.8-0.1,2.2-0.2,4-0.3c1.8-0.1,3.2-0.2,4-0.2
		c0.2,0,0.4,0.1,0.6,0.2c0.1,0.2,0.2,0.4,0.2,0.6c0,0.2-0.1,0.4-0.3,0.6c-0.2,0.2-0.4,0.2-0.7,0.3c-0.9,0-2.2,0-4,0.2
		c-1.8,0.1-3.1,0.2-4,0.3c-0.8,0.1-2.2,0.2-4,0.4c-1.8,0.2-3.2,0.3-4,0.4c-0.2,0-0.5-0.1-0.6-0.2c-0.2-0.1-0.3-0.3-0.3-0.6
		c0-0.2,0.1-0.5,0.3-0.6C175.8,58.9,176,58.8,176.3,58.8z M177.9,44c0.4,0.5,1.4,1.6,2.9,3.1c1.2,1.2,2.1,2.3,2.7,3.2
		c0.2-12.1,0.6-20.7,1-25.6c0-0.2,0.1-0.4,0.3-0.6c0.2-0.2,0.4-0.2,0.7-0.3c0.2,0,0.4,0.1,0.6,0.2c0.1,0.2,0.2,0.4,0.2,0.6
		c-0.4,5-0.8,13.1-1,24.2c1.4-2.6,3.1-4.9,5.2-6.8c0.2-0.2,0.4-0.3,0.7-0.3c0.2,0,0.4,0.1,0.6,0.2c0.1,0.2,0.2,0.4,0.2,0.6
		c0,0.2-0.1,0.4-0.3,0.6c-2.3,2.2-4.1,4.7-5.4,7.6l-0.1,0.6l-0.3,1.3c-0.1,0.5-0.2,1-0.3,1.3c0,0.2-0.1,0.4-0.1,0.5
		c0,0.1-0.1,0.2-0.1,0.2c0,0.2-0.2,0.3-0.3,0.5c-0.3,0.2-0.6,0.3-1,0.1c-0.1-0.1-0.2-0.1-0.2-0.2c0,0-0.1-0.1-0.1-0.2
		c0-0.1-0.1-0.2-0.2-0.4l-0.4-1c-0.4-1-0.7-1.6-0.9-1.9c-0.6-0.8-1.5-1.9-2.7-3.1c-1.6-1.6-2.6-2.7-2.9-3.1
		c-0.2-0.2-0.2-0.4-0.2-0.6c0-0.2,0.2-0.4,0.4-0.6c0.2-0.2,0.4-0.2,0.6-0.2C177.5,43.8,177.7,43.9,177.9,44z"/>
	<text transform="matrix(1 0 0 1 150.3242 18.6665)" class="st14 st10 st11">this guide</text>
</g>
<g id="Layer_2">
	<path class="st0" d="M116.1,153.8c0.4,0.1,1.6,0.4,3.6,0.8l6,1.2c2.7,0.5,4.7,1,5.9,1.3c0.9,0.3,1.7,0.5,2.2,0.7
		c0.3,0.1,0.7,0.2,0.9,0.4c0.5,0.3,0.9,0.6,1.2,0.9c0.7,0.8,0.9,1.9,0.7,3c-0.1,0.6-0.3,1.4-0.7,2.2c-0.5,1.3-1.4,2.8-2.6,4.7
		c-2.2,3.3-4,5.7-5.3,7.1c-0.4,0.4-0.9,0.6-1.6,0.6c-0.6,0-1.2-0.3-1.7-0.7c-0.5-0.5-0.7-1-0.8-1.7c0-0.6,0.1-1.2,0.6-1.6
		c1.3-1.3,2.9-3.5,4.9-6.5c0.4-0.6,0.8-1.1,1.1-1.7c-6.6,2.2-12.4,4.1-17.4,5.5c-5,1.5-10.6,2.9-17,4.4c-6.4,1.5-12.7,2.5-18.9,3.1
		c-6.2,0.6-12.3,0.7-18.2,0.3c-7-0.4-12.5-1.7-16.3-3.9c-4.1-2.3-6.1-5.3-6.2-9c0.1-3.4,1.6-6.6,4.6-9.5c3-2.9,7.1-5.3,12.1-7.3
		c0.6-0.2,1.2-0.2,1.8,0.1c0.6,0.3,1,0.7,1.3,1.3c0.3,0.6,0.3,1.2,0.1,1.7c-0.2,0.6-0.6,1-1.1,1.2c-3.1,1.2-5.8,2.5-8,4.1
		c-2.2,1.6-3.8,3.1-4.8,4.6c-1,1.5-1.4,2.8-1.4,4.2c0.1,1.8,1.2,3.3,3.5,4.7c3.2,1.8,7.9,2.9,14.1,3.3c5.6,0.3,11.3,0.2,17.1-0.3
		c5.9-0.5,11.8-1.4,17.8-2.8c6-1.4,11.4-2.8,16.4-4.3l16.8-5.2l-1.6-0.4l-6-1.2c-2.2-0.4-3.5-0.7-4-0.9c-0.6-0.2-1.1-0.5-1.5-1.1
		c-0.4-0.6-0.5-1.2-0.4-1.7c0.1-0.6,0.4-1,1-1.4C114.9,153.7,115.5,153.7,116.1,153.8z"/>
</g>
</svg>
