<svg version="1" xmlns="http://www.w3.org/2000/svg" width="693.333" height="693.333" viewBox="0 0 520.000000 520.000000"><path d="M200.8 73.4c-7.3 2.1-15.4 7.3-29.3 18.8-18.4 15.2-46.1 38.3-46.5 38.7-.4.5-5.6 5-16 13.7-2.2 1.9-7.3 6.3-16.5 14.3-1.7 1.4-6.2 5.3-10 8.6-3.9 3.3-7.2 6.2-7.5 6.5-.3.3-5.4 4.8-11.5 10-6 5.2-11.2 9.7-11.5 10-.3.3-4.5 4.1-9.5 8.4-34.8 30.5-36 31.6-36 32.6 0 .8 6.9 6.9 31 27.5C57.1 279.2 65.3 286 65.8 286c.4 0 2.5-1.7 4.7-3.7 2.2-1.9 6-5.2 8.5-7.2s5.2-4.3 6-5.2c.8-.9 4.4-4 8-7 3.6-3 6.7-5.6 7-5.9.3-.3 3.4-3 7-6s6.7-5.7 7-6.1c.3-.3 5.5-4.7 11.5-9.9 6.1-5.1 13.5-11.4 16.5-14 12.6-10.8 29-24.8 34-29 3-2.5 8.6-7.2 12.5-10.6 3.8-3.3 19.8-16.7 35.5-29.8 15.7-13.1 29.5-24.7 30.8-25.8 1.5-1.2 2.8-1.6 3.5-1 1.7 1.3 27.8 22.4 30.2 24.4 1.1.9 7.6 6.2 14.5 11.8 6.9 5.6 14.3 11.7 16.5 13.5 2.2 1.8 18.2 14.8 35.5 29 17.3 14.1 33.3 27.1 35.5 29 2.2 1.8 11.9 9.7 21.5 17.5 20 16.2 20.8 16.9 34.8 28.4 12.8 10.6 12 10.2 14.1 8 1-1.1 13.8-13.5 28.4-27.8 14.7-14.2 26.4-26.2 26.2-26.6-.3-.4-9.8-8.4-21.2-17.8-35.3-29-52.7-43.2-54.8-45-4.5-3.8-78.9-64.5-91-74.2-7.1-5.7-13.2-10.6-13.5-10.9-.8-.9-12.3-9.6-14-10.6-.8-.5-27.1-1-58.5-1.2-45.1-.1-58 .1-61.7 1.1z"/><path d="M282.5 230.8c-.2.2-11.5.5-25.2.7-13.6.2-31.8.4-40.3.6l-15.5.2-8 6.1c-4.4 3.3-8.2 6.3-8.5 6.7-.3.3-8.6 7-18.5 15-9.9 7.9-18.9 15.2-20 16.1-1.1.9-10.3 8.5-20.5 16.8-34 27.8-37.3 30.5-38.4 31.5-.6.6-3.1 2.6-5.6 4.5-2.5 1.9-4.7 3.7-5 4-.3.3-6.7 5.7-14.4 11.9-7.6 6.2-14.8 12.2-16 13.1-1.1 1-6.6 5.5-12.1 10.1-5.5 4.5-12 9.8-14.5 11.9-2.5 2.1-6.5 5.5-9 7.5s-4.6 4-4.8 4.4c-.1.4 5.1 5.8 11.5 12 6.5 6.3 19.1 18.5 28 27.2 9 8.8 16.7 15.9 17.3 15.9.8 0 25.5-19.6 37.6-29.9 5-4.3 7.7-6.5 10.9-8.9 1.7-1.3 4.8-3.9 7-5.7 2.2-1.8 10.8-8.8 19-15.6 8.3-6.7 16.8-13.6 19-15.5 5.4-4.4 71-58 76.5-62.4 2.4-1.9 10.2-8.3 17.4-14.3 7.2-5.9 13.5-10.7 14.1-10.7.8 0 34.1 27.4 53.4 43.9 2.5 2.1 18.8 15.9 36.1 30.6 17.3 14.7 32.2 27.4 33 28.1.8.8 2.6 2.4 4 3.5 3.2 2.6 10.7 9 14 11.9 1.4 1.2 4.7 4.1 7.4 6.4 2.7 2.2 5.4 4.6 6 5.1 1.5 1.4 21.4 18.4 24.5 21 1.3 1.1 2.9 2.4 3.5 3 .6.5 3.1 2.7 5.4 4.8l4.3 3.8 6.7-5.7c3.7-3.2 7.4-6.5 8.3-7.4.9-.8 2.9-2.6 4.5-4 10.1-8.7 39-33.4 39.4-33.7.6-.6-.6-1.7-34.9-32.2-4.1-3.6-9.3-8.2-11.5-10.2-3.7-3.2-28.2-24.7-45.6-39.9-3.6-3.1-13.2-11.4-21.5-18.4-8.2-7.1-16.3-14-18-15.5-3.9-3.4-40.8-33.7-46-37.7-5.6-4.3-12.2-7.8-17.7-9.3-4.1-1.2-36.3-2.2-37.3-1.3z"/></svg>