<?xml version="1.0" encoding="iso-8859-1"?>
<!-- Generator: Adobe Illustrator 21.1.0, SVG Export Plug-In . SVG Version: 6.00 Build 0)  -->
<svg version="1.1" id="Layer_1" xmlns="http://www.w3.org/2000/svg" xmlns:xlink="http://www.w3.org/1999/xlink" x="0px" y="0px"
	 viewBox="0 0 800 800" style="enable-background:new 0 0 800 800;" xml:space="preserve">
<path style="fill:#5296CE;" d="M460.772,386.664l151.845-150.701l35.96-1.017c4.35-0.132,8.329-2.482,10.547-6.226l51.462-86.533
	c2.99-4.994,2.205-11.381-1.906-15.502l-44.473-44.473c-4.121-4.111-10.508-4.896-15.502-1.906l-86.533,51.462
	c-3.745,2.217-6.094,6.197-6.226,10.547l-1.017,35.833l-151.464,151.21 M364.71,447.274l-40.917,40.916l18.552,18.044l40.661-41.551
	 M421.38,347.273l154.768-155.022c2.287-2.304,3.605-5.395,3.685-8.641l1.017-33.927l72.047-42.822l30.496,30.496l-41.932,71.92
	l-34.562,1.271c-3.245,0.08-6.337,1.398-8.641,3.685L443.236,369.128 M325.191,407.502l-40.916,40.916l17.663,17.916l40.916-40.916"
	/>
<path style="fill:#1057A7;" d="M274.998,437.769c-10.269-9.827-26.454-9.827-36.722,0l-12.707,12.707
	c-9.68,9.425-10.294,24.776-1.398,34.943l0,0L73.852,635.486c-10.141,9.704-10.495,25.791-0.791,35.931
	c0.258,0.269,0.522,0.533,0.791,0.791l42.949,42.949c9.704,10.141,25.791,10.495,35.931,0.791c0.269-0.258,0.533-0.522,0.791-0.791
	l150.447-150.32l0,0c10.168,8.896,25.519,8.282,34.943-1.398l12.707-12.707c10.141-9.704,10.495-25.791,0.791-35.931
	c-0.258-0.269-0.522-0.533-0.791-0.791L274.998,437.769z M135.479,697.113L135.479,697.113l-43.584-43.33l151.083-150.701
	l21.856,21.855l20.839,21.601L135.479,697.113z M321.378,544.633L321.378,544.633l-16.773-16.9l0,0l-6.48-6.48l-53.368-53.749
	l12.707-12.707l76.24,77.257L321.378,544.633z"/>
<path style="fill:#1057A7;" d="M653.151,549.309c-3.771-1.014-7.659-1.526-11.563-1.525c-27.702,2.236-50.568,22.561-56.036,49.81
	c-4.337,15.302-3.488,31.61,2.414,46.379c5.446,14.214,17.259,25.039,31.894,29.225l47.269,12.707
	c-43.104,25.686-98.869,11.565-124.554-31.539c-12.063-20.243-15.789-44.381-10.391-67.32c0.967-4.267-0.329-8.732-3.431-11.817
	L242.344,288.568c-4.066-3.82-10.147-4.542-14.994-1.779c-13.121,6.924-27.732,10.544-42.567,10.547
	c-38.23,0.033-72.378-23.901-85.389-59.849l28.971,16.138c6.753,3.782,14.37,5.751,22.11,5.718
	c23.527-1.356,44.568-15.093,55.274-36.087c17.281-30.877,10.547-67.6-14.867-81.831l-36.976-20.966
	c47.253-16.879,99.241,7.744,116.12,54.997c5.858,16.401,6.88,34.14,2.942,51.104c-0.967,4.267,0.329,8.732,3.431,11.817
	l287.044,286.917c3.924,3.929,9.944,4.855,14.867,2.287c13.122-6.919,27.732-10.539,42.567-10.547
	c32.177-0.026,61.96,16.993,78.273,44.728L653.151,549.309z M383.006,464.683l123.255,123.255
	c-10.648,63.323,32.053,123.289,95.376,133.937c37.507,6.307,75.727-6.129,102.34-33.3c4.667-5.241,4.202-13.273-1.039-17.94
	c-1.353-1.205-2.949-2.107-4.68-2.645l-71.539-19.187c-7.011-2.253-12.561-7.662-14.994-14.613
	c-3.717-9.583-4.163-20.125-1.271-29.988c5.337-19.95,22.237-34.181,36.468-30.369l70.776,19.06c1.138,0.165,2.293,0.165,3.431,0
	c7.017,0.085,12.775-5.535,12.86-12.552c0.025-2.086-0.464-4.147-1.424-6c-5.605-18.4-15.69-35.122-29.35-48.666
	c-21.756-21.876-51.36-34.138-82.212-34.054c-15.768,0.009-31.371,3.207-45.871,9.403l-114.36-114.36l-57.307-57.306
	L299.524,225.416c10.914-63.278-31.536-123.422-94.814-134.336c-29.32-5.057-59.463,1.319-84.224,17.815
	c-5.813,3.931-7.339,11.831-3.408,17.644c1.106,1.635,2.577,2.99,4.297,3.958l57.688,32.148
	c12.707,7.243,15.248,28.844,4.956,47.142s-29.988,27.701-42.822,20.585L87.703,201.4c-6.149-3.383-13.875-1.141-17.258,5.008
	c-1.165,2.118-1.702,4.524-1.548,6.936c4.021,64.086,59.232,112.779,123.318,108.758c13.24-0.831,26.241-3.921,38.438-9.138
	l94.538,94.538L383.006,464.683z"/>
</svg>
