<?xml version="1.0" encoding="iso-8859-1"?>
<!-- Generator: Adobe Illustrator 21.1.0, SVG Export Plug-In . SVG Version: 6.00 Build 0)  -->
<svg version="1.1" id="Layer_1" xmlns="http://www.w3.org/2000/svg" xmlns:xlink="http://www.w3.org/1999/xlink" x="0px" y="0px"
	 viewBox="0 0 800 800" style="enable-background:new 0 0 800 800;" xml:space="preserve">
<path style="fill:#1057A7;" d="M703.214,524.175c-21.756-21.876-51.36-34.138-82.212-34.054
	c-15.768,0.009-31.371,3.207-45.871,9.403l-114.36-114.36l151.845-150.701l35.96-1.017c4.35-0.132,8.329-2.482,10.547-6.226
	l51.462-86.533c2.99-4.994,2.205-11.381-1.906-15.502l-44.473-44.473c-4.121-4.111-10.508-4.896-15.502-1.906l-86.533,51.462
	c-3.745,2.217-6.094,6.197-6.226,10.547l-1.017,35.833l-151.464,151.21L299.523,223.916
	c10.914-63.278-31.536-123.422-94.814-134.336c-29.32-5.057-59.463,1.319-84.224,17.815c-5.813,3.931-7.339,11.831-3.408,17.644
	c1.106,1.635,2.577,2.99,4.297,3.958l57.688,32.148c12.707,7.243,15.248,28.844,4.956,47.142s-29.988,27.701-42.822,20.585
	L87.702,199.9c-6.149-3.383-13.875-1.141-17.258,5.008c-1.165,2.118-1.702,4.524-1.548,6.936
	c4.021,64.086,59.232,112.779,123.318,108.758c13.24-0.831,26.241-3.921,38.438-9.138l94.538,94.538l-40.916,40.916l-9.276-9.149
	c-10.269-9.827-26.454-9.827-36.722,0l-12.707,12.707c-9.68,9.425-10.294,24.776-1.398,34.943l0,0L73.852,635.486
	c-10.141,9.704-10.495,25.791-0.791,35.931c0.258,0.269,0.522,0.533,0.791,0.791l42.949,42.949
	c9.704,10.141,25.791,10.495,35.931,0.791c0.269-0.258,0.533-0.522,0.791-0.791l150.447-150.32l0,0
	c10.168,8.896,25.519,8.282,34.943-1.398l12.707-12.707c10.141-9.704,10.495-25.791,0.791-35.931
	c-0.258-0.269-0.522-0.533-0.791-0.791l-9.276-9.276l40.661-41.551l123.255,123.255c-10.648,63.323,32.053,123.289,95.376,133.937
	c37.507,6.307,75.727-6.129,102.34-33.3c4.667-5.241,4.202-13.273-1.039-17.94c-1.353-1.205-2.949-2.107-4.68-2.645l-71.539-19.187
	c-7.011-2.253-12.561-7.662-14.994-14.613c-3.717-9.583-4.163-20.125-1.271-29.988c5.337-19.95,22.237-34.181,36.468-30.369
	l70.776,19.06c1.138,0.165,2.293,0.165,3.431,0c7.017,0.085,12.775-5.535,12.86-12.552c0.025-2.086-0.464-4.147-1.424-6
	C726.959,554.441,716.874,537.719,703.214,524.175z M576.147,190.751c2.287-2.304,3.605-5.395,3.685-8.641l1.017-33.927
	l72.047-42.822l30.496,30.496l-41.932,71.92l-34.562,1.271c-3.245,0.08-6.337,1.398-8.641,3.685L443.235,367.628l-21.856-21.855
	L576.147,190.751z M135.479,697.113L135.479,697.113l-43.584-43.33l151.083-150.701l21.856,21.855l20.839,21.601L135.479,697.113z
	 M321.378,544.633L321.378,544.633l-16.773-16.9l0,0l-6.48-6.48l-53.368-53.749l12.707-12.707l76.24,77.257L321.378,544.633z
	 M323.792,486.69l-21.855-21.856l40.916-40.916l21.856,21.856L323.792,486.69z M653.15,547.809
	c-3.771-1.014-7.659-1.526-11.563-1.525c-27.702,2.236-50.568,22.561-56.036,49.81c-4.337,15.302-3.488,31.61,2.414,46.379
	c5.446,14.214,17.259,25.039,31.894,29.225l47.269,12.707c-43.104,25.686-98.869,11.565-124.554-31.539
	c-12.063-20.243-15.789-44.381-10.391-67.32c0.967-4.267-0.329-8.732-3.431-11.817L242.343,287.068
	c-4.066-3.82-10.147-4.542-14.994-1.779c-13.121,6.924-27.732,10.544-42.567,10.547c-38.23,0.033-72.378-23.901-85.389-59.849
	l28.971,16.138c6.753,3.782,14.37,5.751,22.11,5.718c23.527-1.356,44.568-15.093,55.274-36.087
	c17.281-30.877,10.547-67.6-14.867-81.831l-36.976-20.966c47.253-16.879,99.241,7.744,116.12,54.997
	c5.858,16.401,6.88,34.14,2.942,51.104c-0.967,4.267,0.329,8.732,3.431,11.817l287.044,286.917
	c3.924,3.929,9.944,4.855,14.867,2.287c13.122-6.919,27.732-10.539,42.567-10.547c32.177-0.026,61.96,16.993,78.273,44.728
	L653.15,547.809z"/>
<g>
</g>
<g>
</g>
<g>
</g>
<g>
</g>
<g>
</g>
<g>
</g>
<g>
</g>
<g>
</g>
<g>
</g>
<g>
</g>
<g>
</g>
<g>
</g>
<g>
</g>
<g>
</g>
<g>
</g>
</svg>
