<?xml version="1.0" encoding="iso-8859-1"?>
<!-- Generator: Adobe Illustrator 21.1.0, SVG Export Plug-In . SVG Version: 6.00 Build 0)  -->
<svg version="1.1" id="Layer_1" xmlns="http://www.w3.org/2000/svg" xmlns:xlink="http://www.w3.org/1999/xlink" x="0px" y="0px"
	 viewBox="0 0 800 800" style="enable-background:new 0 0 800 800;" xml:space="preserve">
<path style="fill:#1558A6;" d="M202.885,350.692c40.722,0,73.866-33.144,73.866-73.943c0-40.721-33.144-73.865-73.866-73.865
	c-40.799,0-73.942,33.144-73.942,73.865C128.942,317.549,162.086,350.692,202.885,350.692L202.885,350.692z M202.885,227.481
	c27.122,0,49.269,22.148,49.269,49.269c0,27.199-22.148,49.347-49.269,49.347c-27.199,0-49.346-22.148-49.346-49.347
	C153.538,249.628,175.686,227.481,202.885,227.481L202.885,227.481z M202.885,227.481"/>
<path style="fill:#1558A6;" d="M597.115,350.692c40.799,0,73.942-33.144,73.942-73.943c0-40.721-33.144-73.865-73.942-73.865
	c-40.721,0-73.942,33.144-73.942,73.865C523.173,317.549,556.394,350.692,597.115,350.692L597.115,350.692z M597.115,227.481
	c27.199,0,49.27,22.148,49.27,49.269c0,27.199-22.07,49.347-49.27,49.347c-27.183,0-49.269-22.148-49.269-49.347
	C547.847,249.628,569.932,227.481,597.115,227.481L597.115,227.481z M597.115,227.481"/>
<path style="fill:#1558A6;" d="M720.328,375.365V535.51c0,20.392-16.541,37.01-36.933,37.01V436.972
	c0-33.991-27.677-61.606-61.606-61.606h-61.606c-6.807,0-12.336,5.529-12.336,12.336v73.865h-98.539
	c-6.807,0-12.336,5.545-12.336,12.337v37.01h-73.942v-37.01c0-6.792-5.529-12.337-12.336-12.337h-98.539v-73.865
	c0-6.807-5.545-12.336-12.336-12.336h-61.606c-33.992,0-61.606,27.615-61.606,61.606V572.52c-20.391,0-36.932-16.618-36.932-37.01
	V375.365H55V535.51c0,25.212,15.217,46.867,36.933,56.369V745h24.673V597.116h123.212v135.548c0,6.792,5.529,12.336,12.336,12.336
	h61.606V535.51h172.48V745h61.606c6.792,0,12.336-5.544,12.336-12.336V597.116h123.212V745h24.596V591.879
	C729.722,582.376,745,560.722,745,535.51V375.365H720.328z M301.423,510.914h-98.538v-73.942h-24.673v86.202
	c0,6.808,5.529,12.336,12.336,12.336h86.203c6.807,0,12.336,5.545,12.336,12.336v172.481H264.49V584.779
	c0-6.792-5.544-12.259-12.336-12.259H141.279V436.972c0-20.392,16.541-37.01,36.933-37.01h49.269v73.942
	c0,6.807,5.545,12.336,12.337,12.336h98.538v24.673H301.423z M547.847,572.52c-6.792,0-12.336,5.467-12.336,12.259v135.548h-24.596
	V547.846c0-6.792,5.529-12.336,12.259-12.336h86.279c6.792,0,12.336-5.529,12.336-12.336v-86.202h-24.673v73.942H461.568V486.24
	h98.615c6.792,0,12.337-5.529,12.337-12.336v-73.942h49.269c20.391,0,36.932,16.618,36.932,37.01V572.52H547.847z M547.847,572.52"
	/>
<path style="fill:#5296CE;" d="M305.255,237.406c-1.073,0-1.968-0.136-2.901-0.439c-3.656-1.23-6.141-4.693-6.141-8.604v-44.398
	h-4.339c-19.697,0-35.721-16.024-35.721-35.721V94.72c0-19.696,16.025-35.72,35.721-35.72H452.28C471.976,59,488,75.024,488,94.72
	v53.525c0,19.697-16.024,35.721-35.72,35.721H349.879l-37.385,49.83C310.758,236.083,308.114,237.406,305.255,237.406z
	 M291.875,77.084c-9.77,0-17.72,7.911-17.72,17.636v53.525c0,9.725,7.949,17.636,17.72,17.636h13.38
	c4.986,0,9.043,4.056,9.043,9.042v26.395l23.863-31.81c1.693-2.276,4.364-3.627,7.154-3.627H452.28
	c9.77,0,17.719-7.911,17.719-17.636V94.72c0-9.724-7.949-17.636-17.719-17.636H291.875z"/>
<rect x="305.255" y="112.965" style="fill:#5296CE;" width="133.644" height="17.035"/>
<rect x="361.185" y="351.024" style="fill:#5296CE;" width="83.392" height="16.976"/>
<path style="fill:#FFFFFF;" d="M471.409,332.1"/>
<path style="fill:#5296CE;" d="M346.259,424.972c-20.545,0-37.259-16.715-37.259-37.259V332.1c0-20.497,16.715-37.173,37.259-37.173
	h111.224c15.725,0,29.848,9.954,35.142,24.768l1.07,2.995h19.4c3.464,0,6.65,1.925,8.311,5.024c1.662,3.04,1.479,6.722-0.46,9.641
	l-26.204,39.361v10.996c0,20.544-16.715,37.259-37.261,37.259H346.259z M346.259,313.66c-10.167,0-18.439,8.272-18.439,18.44v55.612
	c0,10.167,8.272,18.439,18.439,18.439h111.224c10.167,0,18.44-8.272,18.44-18.439v-13.839c0-1.887,0.535-3.671,1.59-5.301
	l18.096-27.063h-10.275c-5.188,0-9.41-4.221-9.41-9.41c0-10.167-8.273-18.44-18.44-18.44H346.259z"/>
<g>
</g>
<g>
</g>
<g>
</g>
<g>
</g>
<g>
</g>
<g>
</g>
<g>
</g>
<g>
</g>
<g>
</g>
<g>
</g>
<g>
</g>
<g>
</g>
<g>
</g>
<g>
</g>
<g>
</g>
</svg>
