<svg version="1.1" id="Layer_1" xmlns="http://www.w3.org/2000/svg" xmlns:xlink="http://www.w3.org/1999/xlink" x="0px" y="0px"
	 width="20px" height="20px" viewBox="0 0 20 20" style="enable-background:new 0 0 20 20;" xml:space="preserve">
<style type="text/css">
	.st0{fill:#0857A4;}
</style>
<g>
	<g>
		<path class="st0" d="M15.4,11.4h-0.7c-0.1,0-0.2,0-0.3,0.1s-0.1,0.2-0.1,0.3v3.6c0,0.5-0.2,0.9-0.5,1.3c-0.3,0.3-0.8,0.5-1.3,0.5
			H3.2c-0.5,0-0.9-0.2-1.3-0.5c-0.3-0.3-0.5-0.8-0.5-1.3V6.1c0-0.5,0.2-0.9,0.5-1.3c0.3-0.3,0.8-0.5,1.3-0.5h7.9
			c0.1,0,0.2,0,0.3-0.1s0.1-0.2,0.1-0.3V3.2c0-0.1,0-0.2-0.1-0.3s-0.2-0.1-0.3-0.1H3.2c-0.9,0-1.6,0.3-2.3,0.9C0.3,4.4,0,5.2,0,6.1
			v9.3c0,0.9,0.3,1.6,0.9,2.3c0.6,0.6,1.4,0.9,2.3,0.9h9.3c0.9,0,1.6-0.3,2.3-0.9c0.6-0.6,0.9-1.4,0.9-2.3v-3.6c0-0.1,0-0.2-0.1-0.3
			C15.5,11.5,15.5,11.4,15.4,11.4z"/>
		<path class="st0" d="M19.8,1.6c-0.1-0.1-0.3-0.2-0.5-0.2h-5.7c-0.2,0-0.4,0.1-0.5,0.2s-0.2,0.3-0.2,0.5c0,0.2,0.1,0.4,0.2,0.5l2,2
			l-7.3,7.3C7.7,12,7.6,12,7.6,12.1s0,0.2,0.1,0.3L9,13.7c0.1,0.1,0.2,0.1,0.3,0.1s0.2,0,0.3-0.1l7.3-7.3l2,2
			c0.1,0.1,0.3,0.2,0.5,0.2s0.4-0.1,0.5-0.2c0-0.2,0.1-0.3,0.1-0.5V2.1C20,1.9,19.9,1.8,19.8,1.6z"/>
	</g>
</g>
</svg>
