<svg id="Layer_1" data-name="Layer 1" xmlns="http://www.w3.org/2000/svg" viewBox="0 0 80.73 60.67"><defs><style>.cls-1{fill:#224f9c;}.cls-2{fill:#707070;}</style></defs><title>ico-card</title><rect class="cls-1" x="35.79" y="14.52" width="33.94" height="6.55" rx="1.58" ry="1.58"/><rect class="cls-2" x="12.14" y="42.3" width="30.94" height="6.55" rx="1.58" ry="1.58"/><rect class="cls-2" x="53.5" y="42.3" width="15.73" height="6.55" rx="1.58" ry="1.58"/><path class="cls-2" d="M78.75,6.23a6.47,6.47,0,0,0-4.75-2H6.73A6.48,6.48,0,0,0,2,6.23,6.48,6.48,0,0,0,0,11V58.19a6.48,6.48,0,0,0,2,4.75,6.48,6.48,0,0,0,4.75,2H74a6.75,6.75,0,0,0,6.73-6.73V11A6.48,6.48,0,0,0,78.75,6.23Zm-3.4,52A1.36,1.36,0,0,1,74,59.54H6.73a1.36,1.36,0,0,1-1.35-1.35V11A1.36,1.36,0,0,1,6.73,9.63H74A1.36,1.36,0,0,1,75.35,11Z" transform="translate(0 -4.25)"/><path class="cls-2" d="M31.59,23.52c0-.29-1.92-.74-2.82-.74s-.41-1-.36-1.44,1.65-1,1.46-1.39c-.43-.9-1.52.76-2.51.67s-1.25-.63-1.6-1.12-.44-2.25-1.18-2.72c-.41-.26-.84.61-1.09.55-.51-.12-.36-.61-.53-1.45s-1.29-.66-1.29-.66h-.11s-1.12-.19-1.29.66,0,1.33-.53,1.45c-.25.06-.68-.81-1.09-.55-.74.46-.75,2.11-1.18,2.72s-.47,1-1.6,1.12-2.08-1.56-2.51-.67c-.2.41,1.41.9,1.46,1.39s.54,1.44-.36,1.44-2.82.46-2.82.74c0,.66,7.19.54,6.61.78S15,25.74,14.4,25.64s1.23.64,1.76.63A38.45,38.45,0,0,1,20.65,28s-2.12.87-.93.9a17.31,17.31,0,0,0,1.88,0,17.31,17.31,0,0,0,1.88,0c1.18,0-.93-.9-.93-.9A38.45,38.45,0,0,1,27,26.27c.53,0,2.37-.72,1.76-.63S25.55,24.55,25,24.3,31.6,24.18,31.59,23.52Z" transform="translate(0 -4.25)"/><path class="cls-2" d="M14.08,41.82H13V39.66q0-.39,0-.72a2.39,2.39,0,0,1-.26.26l-.46.38-.57-.7,1.4-1.14h1Z" transform="translate(0 -4.25)"/><path class="cls-2" d="M17.93,41.82H15v-.73l1-1q.43-.45.56-.61a1.36,1.36,0,0,0,.18-.28.6.6,0,0,0,.05-.25.32.32,0,0,0-.1-.25.42.42,0,0,0-.29-.09.8.8,0,0,0-.39.11,2.83,2.83,0,0,0-.44.32l-.61-.71a3.21,3.21,0,0,1,.53-.4,1.85,1.85,0,0,1,.47-.19,2.3,2.3,0,0,1,.57-.06,1.71,1.71,0,0,1,.71.14,1.12,1.12,0,0,1,.48.4,1,1,0,0,1,.17.58,1.6,1.6,0,0,1-.06.44,1.58,1.58,0,0,1-.19.4,2.78,2.78,0,0,1-.33.42q-.21.22-.89.83v0h1.54Z" transform="translate(0 -4.25)"/><path class="cls-2" d="M21.14,38.62a1,1,0,0,1-.23.65,1.33,1.33,0,0,1-.67.39v0q1,.13,1,1a1,1,0,0,1-.45.9,2.1,2.1,0,0,1-1.25.33,3.68,3.68,0,0,1-.61,0,3.2,3.2,0,0,1-.61-.17v-.92a2.37,2.37,0,0,0,.55.2,2.2,2.2,0,0,0,.51.07,1.05,1.05,0,0,0,.53-.1.35.35,0,0,0,.17-.32.36.36,0,0,0-.09-.26.56.56,0,0,0-.28-.14,2.17,2.17,0,0,0-.5,0H19v-.83h.26q.84,0,.84-.43a.26.26,0,0,0-.12-.24.62.62,0,0,0-.33-.08,1.53,1.53,0,0,0-.81.26l-.46-.74a2.23,2.23,0,0,1,.66-.32,2.9,2.9,0,0,1,.78-.09,1.71,1.71,0,0,1,1,.25A.8.8,0,0,1,21.14,38.62Z" transform="translate(0 -4.25)"/><path class="cls-2" d="M24.76,41h-.45v.79H23.22V41H21.6v-.81l1.7-2.48h1V40.2h.45Zm-1.54-.82v-.47c0-.09,0-.21,0-.36a2.27,2.27,0,0,1,0-.24h0a3,3,0,0,1-.22.4l-.45.67Z" transform="translate(0 -4.25)"/><path class="cls-2" d="M28.19,39.14a1.24,1.24,0,0,1,.63.16,1.12,1.12,0,0,1,.44.46,1.46,1.46,0,0,1,.16.69,1.33,1.33,0,0,1-.41,1,1.83,1.83,0,0,1-1.25.37,2.67,2.67,0,0,1-1.17-.22v-.9a2.92,2.92,0,0,0,.55.18,2.32,2.32,0,0,0,.53.07.75.75,0,0,0,.47-.13.46.46,0,0,0,.16-.38.44.44,0,0,0-.17-.37.82.82,0,0,0-.51-.13,1.83,1.83,0,0,0-.56.1l-.4-.2.15-2.16h2.33v.92H27.76l-.05.54.31,0Z" transform="translate(0 -4.25)"/><path class="cls-2" d="M29.88,40.09a3.33,3.33,0,0,1,.24-1.38,1.62,1.62,0,0,1,.72-.78A2.49,2.49,0,0,1,32,37.68a4.18,4.18,0,0,1,.58,0v.86a3.25,3.25,0,0,0-.61-.05,1.2,1.2,0,0,0-.82.24,1.09,1.09,0,0,0-.3.79h0a.85.85,0,0,1,.81-.47,1.05,1.05,0,0,1,.84.35,1.7,1.7,0,0,1-.08,2,1.62,1.62,0,0,1-2.19-.08A1.94,1.94,0,0,1,29.88,40.09Zm1.51.91a.35.35,0,0,0,.29-.13.66.66,0,0,0,.11-.42q0-.5-.39-.5a.4.4,0,0,0-.31.13.44.44,0,0,0-.12.31.77.77,0,0,0,.11.44A.35.35,0,0,0,31.39,41Z" transform="translate(0 -4.25)"/><path class="cls-2" d="M33.62,41.82,35,38.65H33.25v-.91H36.2v.65l-1.44,3.43Z" transform="translate(0 -4.25)"/><path class="cls-2" d="M38.07,37.68a1.69,1.69,0,0,1,1,.26.86.86,0,0,1,.36.74,1,1,0,0,1-.17.57,1.36,1.36,0,0,1-.53.43,2,2,0,0,1,.64.51.93.93,0,0,1,.19.55,1,1,0,0,1-.39.84,2.2,2.2,0,0,1-2.2,0,1,1,0,0,1-.38-.84,1,1,0,0,1,.17-.6,1.49,1.49,0,0,1,.57-.45,1.52,1.52,0,0,1-.47-.47,1,1,0,0,1-.15-.55.85.85,0,0,1,.37-.73A1.71,1.71,0,0,1,38.07,37.68Zm-.49,3a.35.35,0,0,0,.12.28.51.51,0,0,0,.34.1q.49,0,.49-.36a.43.43,0,0,0-.11-.27,1.48,1.48,0,0,0-.38-.3,1.13,1.13,0,0,0-.36.26A.43.43,0,0,0,37.59,40.7Zm.48-2.23a.36.36,0,0,0-.24.08.27.27,0,0,0-.1.21q0,.24.33.42a.94.94,0,0,0,.27-.21.34.34,0,0,0,.07-.22.27.27,0,0,0-.1-.22A.36.36,0,0,0,38.07,38.47Z" transform="translate(0 -4.25)"/><path class="cls-2" d="M44.39,39.6a2.44,2.44,0,0,1-.52,1.73,2.21,2.21,0,0,1-1.65.54,4.34,4.34,0,0,1-.57,0V41a2.62,2.62,0,0,0,.48,0,1.48,1.48,0,0,0,.91-.24,1,1,0,0,0,.35-.77h0a1,1,0,0,1-.22.29.73.73,0,0,1-.26.14,1.31,1.31,0,0,1-.38,0,1,1,0,0,1-.83-.35,1.47,1.47,0,0,1-.3-1,1.34,1.34,0,0,1,1.45-1.45,1.42,1.42,0,0,1,1.16.5A2.16,2.16,0,0,1,44.39,39.6Zm-1.54-1a.37.37,0,0,0-.29.13.63.63,0,0,0-.11.42.61.61,0,0,0,.1.36.34.34,0,0,0,.3.14.44.44,0,0,0,.32-.13.43.43,0,0,0,.13-.32.74.74,0,0,0-.12-.43A.37.37,0,0,0,42.85,38.58Z" transform="translate(0 -4.25)"/><path class="cls-2" d="M47.2,41.82H46.08V39.66q0-.39,0-.72a2.39,2.39,0,0,1-.26.26l-.46.38-.57-.7,1.4-1.14h1Z" transform="translate(0 -4.25)"/><path class="cls-2" d="M51.06,41.82h-3v-.73l1-1q.43-.45.56-.61a1.36,1.36,0,0,0,.18-.28.6.6,0,0,0,.05-.25.32.32,0,0,0-.1-.25.42.42,0,0,0-.29-.09.8.8,0,0,0-.39.11,2.83,2.83,0,0,0-.44.32l-.61-.71a3.21,3.21,0,0,1,.53-.4,1.85,1.85,0,0,1,.47-.19,2.3,2.3,0,0,1,.57-.06,1.71,1.71,0,0,1,.71.14,1.12,1.12,0,0,1,.48.4,1,1,0,0,1,.17.58,1.6,1.6,0,0,1-.06.44,1.58,1.58,0,0,1-.19.4,2.78,2.78,0,0,1-.33.42q-.21.22-.89.83v0h1.54Z" transform="translate(0 -4.25)"/><path class="cls-2" d="M54.27,38.62a1,1,0,0,1-.23.65,1.33,1.33,0,0,1-.67.39v0q1,.13,1,1a1,1,0,0,1-.45.9,2.1,2.1,0,0,1-1.25.33,3.68,3.68,0,0,1-.61,0,3.2,3.2,0,0,1-.61-.17v-.92a2.37,2.37,0,0,0,.55.2,2.2,2.2,0,0,0,.51.07,1.05,1.05,0,0,0,.53-.1.35.35,0,0,0,.17-.32.36.36,0,0,0-.09-.26.56.56,0,0,0-.28-.14,2.17,2.17,0,0,0-.5,0H52.1v-.83h.26q.84,0,.84-.43a.26.26,0,0,0-.12-.24.62.62,0,0,0-.33-.08,1.53,1.53,0,0,0-.81.26l-.46-.74a2.23,2.23,0,0,1,.66-.32,2.9,2.9,0,0,1,.78-.09,1.71,1.71,0,0,1,1,.25A.8.8,0,0,1,54.27,38.62Z" transform="translate(0 -4.25)"/><path class="cls-2" d="M58.74,41.82H57.62V39.66q0-.39,0-.72a2.39,2.39,0,0,1-.26.26l-.46.38-.57-.7,1.4-1.14h1Z" transform="translate(0 -4.25)"/><path class="cls-2" d="M62.6,41.82h-3v-.73l1-1q.43-.45.56-.61a1.36,1.36,0,0,0,.18-.28.6.6,0,0,0,.05-.25.32.32,0,0,0-.1-.25A.42.42,0,0,0,61,38.6a.8.8,0,0,0-.39.11,2.83,2.83,0,0,0-.44.32l-.61-.71a3.21,3.21,0,0,1,.53-.4,1.85,1.85,0,0,1,.47-.19,2.3,2.3,0,0,1,.57-.06,1.71,1.71,0,0,1,.71.14,1.12,1.12,0,0,1,.48.4,1,1,0,0,1,.17.58,1.6,1.6,0,0,1-.06.44,1.58,1.58,0,0,1-.19.4,2.78,2.78,0,0,1-.33.42q-.21.22-.89.83v0H62.6Z" transform="translate(0 -4.25)"/><path class="cls-2" d="M65.81,38.62a1,1,0,0,1-.23.65,1.33,1.33,0,0,1-.67.39v0q1,.13,1,1a1,1,0,0,1-.45.9,2.1,2.1,0,0,1-1.25.33,3.68,3.68,0,0,1-.61,0,3.2,3.2,0,0,1-.61-.17v-.92a2.37,2.37,0,0,0,.55.2,2.2,2.2,0,0,0,.51.07,1.05,1.05,0,0,0,.53-.1.35.35,0,0,0,.17-.32.36.36,0,0,0-.09-.26.56.56,0,0,0-.28-.14,2.17,2.17,0,0,0-.5,0h-.25v-.83h.26q.84,0,.84-.43a.26.26,0,0,0-.12-.24.62.62,0,0,0-.33-.08,1.53,1.53,0,0,0-.81.26L63,38.09a2.23,2.23,0,0,1,.66-.32,2.9,2.9,0,0,1,.78-.09,1.71,1.71,0,0,1,1,.25A.8.8,0,0,1,65.81,38.62Z" transform="translate(0 -4.25)"/><path class="cls-2" d="M69.43,41H69v.79H67.89V41H66.26v-.81L68,37.74h1V40.2h.45Zm-1.54-.82v-.47c0-.09,0-.21,0-.36a2.27,2.27,0,0,1,0-.24h0a3,3,0,0,1-.22.4l-.45.67Z" transform="translate(0 -4.25)"/></svg>