<?xml version="1.0" encoding="utf-8"?>
<!-- Generator: Adobe Illustrator 21.1.0, SVG Export Plug-In . SVG Version: 6.00 Build 0)  -->
<svg version="1.1" id="Layer_1" xmlns="http://www.w3.org/2000/svg" xmlns:xlink="http://www.w3.org/1999/xlink" x="0px" y="0px"
	 viewBox="0 0 80.7 60.8" style="enable-background:new 0 0 80.7 60.8;" xml:space="preserve">
<style type="text/css">
	.st0{fill:#444444;}
</style>
<title>ico-card</title>
<path class="st0" d="M36.2,21.2c0-0.4-2.6-0.9-3.8-0.9c-1.2,0-0.5-1.2-0.5-1.7s2.2-1.2,1.9-1.7c-0.5-1.1-2,0.9-3.4,0.8
	c-0.9,0-1.7-0.5-2.1-1.4c-0.5-0.6-0.5-2.7-1.6-3.3c-0.5-0.3-1.1,0.7-1.5,0.6c-0.6-0.2-0.5-0.7-0.7-1.7S22.9,11,22.9,11h-0.2
	c0,0-1.5-0.3-1.7,0.8s0,1.6-0.7,1.7c-0.4,0.1-0.9-1-1.5-0.6c-1,0.5-1,2.6-1.6,3.3c-0.5,0.7-0.6,1.2-2.1,1.4s-2.7-1.9-3.4-0.8
	c-0.3,0.5,1.9,1.1,1.9,1.7s0.7,1.7-0.5,1.7s-3.8,0.5-3.8,0.9c0,0.8,9.6,0.6,8.8,0.9s-4.3,1.7-5.1,1.6c-0.8-0.1,1.6,0.8,2.4,0.7
	c2,0.6,4,1.3,6,2.1c0,0-2.8,1.1-1.3,1.1h4.9c1.6,0-1.3-1.1-1.3-1.1c1.9-0.8,3.9-1.5,6-2.1c0.7,0,3.1-0.9,2.4-0.7
	c-0.7,0.2-4.3-1.4-5-1.6C26.6,21.8,36.2,22,36.2,21.2z"/>
<path class="st0" d="M77.7,58.8H3c-1.6,0-3-1.4-3-3V5c0-1.7,1.4-3,3-3h74.7c1.7,0,3,1.3,3,3v50.8C80.7,57.5,79.4,58.8,77.7,58.8z
	 M76.7,52.8V8c0-1.1-0.9-2-2-2H6C4.9,6,4,6.9,4,8v44.8c0,1.1,0.9,2,2,2h68.7C75.8,54.8,76.7,53.9,76.7,52.8z"/>
<path class="st0" d="M68.6,22.8H45c-1.1,0-2.1-0.9-2.1-2.1v0c0-1.1,0.9-2.1,2.1-2.1h23.6c1.1,0,2.1,0.9,2.1,2.1v0
	C70.7,21.9,69.7,22.8,68.6,22.8z"/>
<path class="st0" d="M68.6,37h-55c-1.1,0-2.1-0.9-2.1-2.1v0c0-1.1,0.9-2.1,2.1-2.1h55c1.1,0,2.1,0.9,2.1,2.1v0
	C70.7,36,69.7,37,68.6,37z"/>
<path class="st0" d="M42.9,46.3H13.6c-1.1,0-2.1-0.9-2.1-2.1v0c0-1.1,0.9-2.1,2.1-2.1h29.4c1.1,0,2.1,0.9,2.1,2.1v0
	C45,45.4,44.1,46.3,42.9,46.3z"/>
<path class="st0" d="M68.6,46.3h-14c-1.1,0-2.1-0.9-2.1-2.1v0c0-1.1,0.9-2.1,2.1-2.1h14c1.1,0,2.1,0.9,2.1,2.1v0
	C70.7,45.4,69.7,46.3,68.6,46.3z"/>
</svg>
