<?xml version="1.0" encoding="iso-8859-1"?>
<!-- Generator: Adobe Illustrator 21.1.0, SVG Export Plug-In . SVG Version: 6.00 Build 0)  -->
<svg version="1.1" id="Layer_1" xmlns="http://www.w3.org/2000/svg" xmlns:xlink="http://www.w3.org/1999/xlink" x="0px" y="0px"
	 viewBox="0 0 1920 1920" style="enable-background:new 0 0 1920 1920;" xml:space="preserve">
<path style="fill:#666666;" d="M781.11,1827.434"/>
<path style="fill:#666666;" d="M234.446,1876.978c-10.927,0-19.817-8.887-19.817-19.817v-359.972
	c0-86.906,58.425-164.277,142.075-188.157l20.46-5.84l-17.637-11.902c-80.914-54.603-129.222-145.253-129.222-242.494
	c0-161.195,131.141-292.338,292.336-292.338c161.207,0,292.357,131.143,292.357,292.338c0,97.245-48.315,187.896-129.244,242.494
	l-17.642,11.902l20.465,5.84c83.653,23.871,142.075,101.246,142.075,188.157v359.972c0,10.929-8.89,19.817-19.817,19.817H234.446z
	 M611.002,1837.344h180.015l0.022-9.908v-330.247c0-27.979-7.562-55.483-21.87-79.533l-15.443-25.961l-14.006,143.526
	c-0.692,7.107-5.179,13.314-11.711,16.203c-2.54,1.122-5.235,1.693-8.014,1.693c-4.303,0-8.401-1.355-11.851-3.924l-97.141-72.479
	V1837.344z M381.213,1512.961c10.927,0,19.817,8.888,19.817,19.817v304.566h170.339v-360.63l-97.151,72.489
	c-3.394,2.521-7.603,3.914-11.841,3.914c-2.31,0-4.56-0.387-6.686-1.156c-6.282-2.255-10.973-7.455-12.562-13.924l-48.255-196.382
	l-8.994,1.418c-75.034,11.848-131.617,78.101-131.617,154.117v340.155h107.134v-304.566
	C361.397,1521.849,370.287,1512.961,381.213,1512.961z M474.494,1499.555l87.637-65.382l-81.684-93.022h-44.876L474.494,1499.555z
	 M620.245,1434.178l83.442,62.242l12.903-132.307l-5.653-3.159c-3.701-2.071-7.668-4.078-11.79-5.96l-6.703-3.062L620.245,1434.178z
	 M591.188,1407.201l57.97-66.049H533.187L591.188,1407.201z M522.64,796.092c-139.341,0-252.702,113.363-252.702,252.705
	c0,139.351,113.361,252.721,252.702,252.721c139.353,0,252.724-113.37,252.724-252.721
	C775.364,909.455,661.993,796.092,522.64,796.092z"/>
<path style="fill:#666666;" d="M687.308,1580.656c-4.721-11.206-15.948-18.657-28.155-18.33
	c-12.99,0.332-24.404,9.289-27.907,21.774c-3.408,12.153,1.585,25.663,12.113,32.668c10.414,6.906,24.498,6.5,34.446-1.045
	C688.412,1607.672,692.554,1592.982,687.308,1580.656C686.574,1578.873,688.081,1582.435,687.308,1580.656L687.308,1580.656z
	 M687.308,1580.656"/>
<path style="fill:#666666;" d="M512.014,993.486c-4.622-10.974-15.462-18.365-27.441-18.365c-11.94,0-22.874,7.392-27.441,18.365
	c-4.895,11.692-1.526,25.757,8.13,33.966c9.829,8.338,24.305,9.383,35.199,2.477C512.479,1022.32,517.567,1006.645,512.014,993.486
	C511.261,991.708,512.772,995.27,512.014,993.486L512.014,993.486z M512.014,993.486"/>
<path style="fill:#666666;" d="M651.529,1016.226c4.741,11.206,15.982,18.657,28.194,18.326c13.178-0.327,24.885-9.676,28.08-22.487
	c2.844-11.434-1.511-23.785-10.894-30.904c-10.295-7.818-24.949-7.976-35.398-0.347
	C650.498,988.844,646.322,1003.628,651.529,1016.226C652.281,1018.005,650.771,1014.408,651.529,1016.226L651.529,1016.226z
	 M651.529,1016.226"/>
<path style="fill:#666666;" d="M886.055,540.951"/>
<path style="fill:#666666;" d="M1354.962,722.244c-3.788,0-7.47-1.069-10.639-3.089l-150.328-95.76H869.394
	c-45.449,0-82.424-36.985-82.424-82.443v-22.175h-96.938l-150.287,95.777c-3.196,2.037-6.882,3.113-10.658,3.113
	c-3.319,0-6.611-0.844-9.519-2.438c-6.352-3.486-10.298-10.143-10.298-17.378v-79.073h-40.139
	c-45.459,0-82.443-36.985-82.443-82.443v-310.72c0-45.456,36.985-82.438,82.443-82.438h545.502
	c45.458,0,82.441,36.982,82.441,82.438v22.139h317.861c45.449,0,82.421,36.985,82.421,82.443v310.757
	c0,45.458-36.973,82.443-82.421,82.443h-40.156v79.032c0,7.233-3.943,13.895-10.295,17.388
	C1361.586,721.4,1358.281,722.244,1354.962,722.244z M869.394,187.385c-23.595,0-42.79,19.205-42.79,42.81v310.757
	c0,23.593,19.185,42.788,42.769,42.788h330.404c3.759,0,7.441,1.079,10.644,3.118l124.725,79.444v-62.745
	c0-10.927,8.887-19.817,19.817-19.817h59.953c23.605,0,42.807-19.195,42.807-42.788V230.195c0-23.605-19.202-42.81-42.807-42.81
	H869.394z M469.131,82.808c-23.605,0-42.81,19.202-42.81,42.805v310.72c0,23.605,19.205,42.81,42.81,42.81h59.956
	c10.927,0,19.817,8.89,19.817,19.817v62.764l124.704-79.473c3.191-2.034,6.87-3.108,10.644-3.108H786.97V358.46v-39.633v-69.513
	l2.31-39.633l2.322-6.635c11.57-33.073,42.839-55.292,77.811-55.292h188.027v-22.139c0-23.603-19.202-42.805-42.807-42.805H469.131z
	"/>
<path style="fill:#666666;" d="M1005.267,363.804"/>
<path style="fill:#15599F;" d="M950.266,353.895c-10.929,0-19.817-8.89-19.817-19.817s8.888-19.817,19.817-19.817h372.88
	c10.929,0,19.817,8.89,19.817,19.817s-8.888,19.817-19.817,19.817H950.266z"/>
<path style="fill:#666666;" d="M1407.869,443.225"/>
<path style="fill:#15599F;" d="M950.266,463.042c-10.929,0-19.817-8.89-19.817-19.817s8.888-19.817,19.817-19.817h372.88
	c10.929,0,19.817,8.89,19.817,19.817s-8.888,19.817-19.817,19.817H950.266z"/>
<path style="fill:#666666;" d="M1550.322,1827.434"/>
<path style="fill:#666666;" d="M1107.776,1876.978c-10.929,0-19.817-8.887-19.817-19.817v-359.972
	c0-86.911,58.425-164.286,142.075-188.157l20.46-5.835l-17.635-11.906c-80.917-54.603-129.225-145.253-129.225-242.494
	c0-161.195,131.15-292.338,292.355-292.338c161.195,0,292.336,131.143,292.336,292.338c0,97.245-48.313,187.896-129.24,242.494
	l-17.644,11.902l20.465,5.84c83.665,23.876,142.094,101.246,142.094,188.157v359.972c0,10.929-8.888,19.817-19.817,19.817H1107.776z
	 M1540.415,1837.344h123.951V1652.24h-123.951V1837.344z M1224.475,1352.831c-58.855,24.2-96.882,80.864-96.882,144.358v340.155
	h373.189v-304.566c0-10.929,8.888-19.817,19.817-19.817s19.817,8.888,19.817,19.817v79.828h123.951v-115.417
	c0-63.495-38.027-120.158-96.882-144.358l-8.752-3.6l-3.996,8.578c-28.656,61.511-90.97,101.256-158.766,101.256
	c-67.781,0-130.091-39.745-158.747-101.256l-3.996-8.578L1224.475,1352.831z M1281.627,1356.372
	c25.076,39.484,67.82,63.059,114.343,63.059c46.537,0,89.287-23.576,114.357-63.059l9.662-15.221H1271.96L1281.627,1356.372z
	 M1395.989,796.092c-139.351,0-252.721,113.363-252.721,252.705c0,139.351,113.37,252.721,252.721,252.721
	c139.341,0,252.702-113.37,252.702-252.721C1648.691,909.455,1535.33,796.092,1395.989,796.092z"/>
<path style="fill:#666666;" d="M1406.596,1016.226c5.242,12.385,18.42,20.049,31.816,18.018
	c11.746-1.764,21.496-10.587,24.439-22.081c3.096-12.078-1.992-25.103-12.306-32.029c-11.692-7.877-27.54-6.059-37.543,3.676
	C1404.718,992.367,1402.028,1005.138,1406.596,1016.226C1407.349,1018.005,1405.838,1014.408,1406.596,1016.226L1406.596,1016.226z
	 M1406.596,1016.226"/>
<path style="fill:#666666;" d="M1268.785,999.02c-0.713-3.81-2.338-7.431-4.389-10.701c-15.001-21.947-50.146-14.204-54.129,12.172
	c-3.621,23.958,22.933,42.249,44.023,30.191C1265.283,1024.41,1271.322,1011.505,1268.785,999.02
	C1268.419,997.128,1269.172,1000.977,1268.785,999.02L1268.785,999.02z M1268.785,999.02"/>
<path style="fill:#666666;" d="M1401.835,1106.699c-9.289-9.289-24.345-9.289-33.634,0c-7.957,7.932-18.504,12.306-29.745,12.306
	c-11.226,0-21.793-4.375-29.745-12.306c-9.269-9.289-24.345-9.289-33.614,0c-9.289,9.269-9.289,24.345,0,33.614
	c17.454,17.473,40.406,26.203,63.359,26.203s45.9-8.729,63.379-26.203C1411.124,1131.044,1411.124,1115.988,1401.835,1106.699
	L1401.835,1106.699z M1401.835,1106.699"/>
<path style="fill:#15599F;" d="M787.184,254.181c-77.189,0-154.378,0-231.567,0c-10.927,0-19.817-8.89-19.817-19.817
	c0-10.927,8.89-19.817,19.817-19.817c77.959,0,153.918,0,231.877,0C787.494,228.535,787.184,240.56,787.184,254.181z"/>
<path style="fill:#15599F;" d="M787.184,363.328c-77.189,0-154.378,0-231.567,0c-10.927,0-19.817-8.89-19.817-19.817
	c0-10.927,8.89-19.817,19.817-19.817h231.567V363.328z"/>
</svg>
