<?xml version="1.0" encoding="utf-8"?>
<!-- Generator: Adobe Illustrator 21.1.0, SVG Export Plug-In . SVG Version: 6.00 Build 0)  -->
<svg version="1.1" id="Layer_1" xmlns="http://www.w3.org/2000/svg" xmlns:xlink="http://www.w3.org/1999/xlink" x="0px" y="0px"
	 viewBox="0 0 38.9 37.8" style="enable-background:new 0 0 38.9 37.8;" xml:space="preserve">
<style type="text/css">
	.st0{fill-rule:evenodd;clip-rule:evenodd;fill:#666766;}
	.st1{fill:#666766;}
</style>
<title>ico-medical</title>
<g>
	<g>
		<path class="st0" d="M6.5,37.6c-3.6,0-6.4-2.9-6.4-6.4v-17c0-3.4,2.8-6,6.4-6h1.7c0.3,0,0.5-0.2,0.5-0.5V6.6
			c0-3.4,2.7-6.2,6.1-6.4l9.2,0c3.6,0,6.4,2.9,6.4,6.4v1.3c0,0.3,0.2,0.5,0.5,0.5h1.7c3.5,0,6.3,2.6,6.4,5.9l0,17
			c0,3.5-2.9,6.4-6.4,6.4H6.5z M6.5,9.6c-2.9,0-5.1,2.1-5.1,4.7v17c0,2.8,2.3,5.1,5.1,5.1h26c2.8,0,5.1-2.3,5.1-5.1v-17
			c-0.1-2.7-2.3-4.7-5.1-4.7H29v-3c0-2.8-2.3-5.1-5.1-5.1h-9.1c-2.7,0.1-4.8,2.4-4.8,5.1v3H6.5z"/>
	</g>
	<g>
		<path class="st0" d="M14.3,9.6V7.5c0-1.3,1.2-2.5,2.5-2.5h5.4c1.3,0,2.5,1.2,2.5,2.5v2.1H14.3z M16.8,6.3c-0.6,0-1.2,0.6-1.2,1.2
			v0.3c0,0.3,0.2,0.5,0.5,0.5h6.8c0.3,0,0.5-0.2,0.5-0.5V7.5c0-0.7-0.6-1.2-1.2-1.2H16.8z"/>
	</g>
	<g>
		<g>
			<path class="st1" d="M22.8,19.6v-5.5h-7.3v5.5h-5v6.9h5.2v5.5H23v-5.5h5.5v-6.9H22.8z M26.9,24.7h-5.5v5.4h-4v-5.4h-5.6v-3.6h5.5
				v-5.4h4v5.4h5.6V24.7z"/>
		</g>
	</g>
</g>
</svg>
