<?xml version="1.0" encoding="utf-8"?>
<!-- Generator: Adobe Illustrator 21.1.0, SVG Export Plug-In . SVG Version: 6.00 Build 0)  -->
<svg version="1.1" id="Layer_1" xmlns="http://www.w3.org/2000/svg" xmlns:xlink="http://www.w3.org/1999/xlink" x="0px" y="0px"
	 viewBox="0 0 100 100" style="enable-background:new 0 0 100 100;" xml:space="preserve">
<style type="text/css">
	.st0{fill:#444444;}
</style>
<g>
	<path class="st0" d="M81.7,85.2"/>
	<path class="st0" d="M50.3,96c-12.1,0-23.9-2.7-35.1-7.9c-0.6-0.3-1.1-0.9-1.1-1.5v-6.5c0-4.3,1.8-9.2,4.8-13
		c3.2-4.1,7.2-6.5,11.1-6.5h8.1v-8l-0.2-0.2c-1.4-1.8-2.7-3.9-3.9-6.3l-0.2-0.4l-0.4-0.1c-0.8-0.1-1.7-0.6-2.6-1.4
		c-1-1-2.3-2.8-2.7-4.6c-1.5-7,1.6-8.8,1.6-8.8c-1.2-9.8,1.5-16.9,4.8-20.3c3.1-3.3,7.6-5.1,13.3-5.5h4.6c5.4,0.5,10,2.6,13.1,6.1
		c3.7,4.2,6,12.5,5.5,20.3l0.1,0.1c1.6,1.5,2.1,5.2,0.9,8.5c-0.6,1.7-1.5,3.2-2.6,4.3c-0.8,0.8-1.7,1.3-2.6,1.4l-0.4,0.1l-0.2,0.3
		c-1,2-2.3,4.1-3.7,5.9l-0.1,0.1l-0.1,0.1l0,0c-0.1,0.1-0.1,0.2-0.1,0.3v8h8.1c8.4,0,15.5,10.7,15.5,19.5v6.5c0,0.6-0.3,1.1-0.8,1.4
		c-0.3,0.2-8.2,4.5-20.7,6.7C59.8,95.6,55,96,50.3,96z M30,63.7c-7.1,0-12.4,9.9-12.4,16.4v5.5l0.5,0.2c10.3,4.6,21.1,7,32.2,7
		c4.4,0,8.9-0.4,13.3-1.1C73.5,90,80.4,86.8,82,86l0.6-0.3v-5.5c0-6.6-5.1-16.4-12.1-16.4h-4.1l-0.1,0.7
		c-0.9,8.1-7.8,14.1-15.9,14.1s-14.9-6.1-15.9-14.1l-0.1-0.7L30,63.7L30,63.7z M37.7,64.6c1,6.1,6.4,10.7,12.6,10.7
		s11.6-4.6,12.6-10.7l0.2-0.9h-2.2c-0.9,0-1.6-0.6-1.6-1.5v-6.5l-1.3,1c-2.5,1.9-5.2,2.8-7.8,2.8s-5.3-0.9-7.4-2.6l-1.3-1v6.4
		c0,0.5-0.2,0.9-0.5,1c-0.3,0.3-0.7,0.4-1.2,0.4h-2.3L37.7,64.6z M34.9,42.3c0.2,0,0.3,0,0.5,0.1c0.4,0.1,0.8,0.5,1,0.9
		c2.7,6,7.9,13,13.9,13s11.2-7,13.9-13c0.2-0.4,0.5-0.7,0.9-0.9c0.2-0.1,0.3-0.1,0.5-0.1s0.3,0,0.5,0.1l0.4,0.1l0.3-0.2
		c0.6-0.4,1.6-1.6,2.3-3.4c0.9-2.4,0.9-4,0.2-5c-0.2-0.3-0.4-0.5-0.6-0.7c-0.4-0.4-0.5-0.6-0.5-1.1c0-2.6-0.2-4.9-0.2-5
		c-0.3-4.8-1.8-11-4.6-14.1c-3.1-3.3-7.5-5-13.2-5C44.3,8,39.8,9.6,37,12.6c-3,3.2-4.2,9.8-4.4,14.5c0,0,0,1.8,0,4.4
		c0,0.3-0.1,0.4-0.4,0.8c-0.2,0.2-0.5,0.5-0.7,1c-0.9,1.4-0.7,3.8-0.1,5.5c0.7,1.8,1.6,3,2.3,3.4l0.3,0.2l0.4-0.1
		C34.5,42.4,34.7,42.3,34.9,42.3z"/>
</g>
</svg>
