<svg viewBox="0 0 163 163" xmlns="http://www.w3.org/2000/svg" fill-rule="evenodd" clip-rule="evenodd" stroke-linejoin="round" stroke-miterlimit="1.414"><path d="M81.1 162.1C36.4 162.1 0 125.7 0 81 0 36.3 36.4-.1 81.1-.1c44.7 0 81.1 36.4 81.1 81.1 0 44.7-36.4 81.1-81.1 81.1zm0-158.2C38.6 3.9 4 38.5 4 81c0 42.5 34.6 77.1 77.1 77.1 42.5 0 77.1-34.6 77.1-77.1 0-42.5-34.6-77.1-77.1-77.1z" fill="#aaa" fill-rule="nonzero"/><path d="M126.846 74.77l-1.15-2.022a1.142 1.142 0 0 0-1.567-.421l-15.524 9.16v-2.311c0-3.854-3.09-6.98-6.9-6.98h-20.7v9.045c0 2.326-1.566 4.478-3.823 4.842-2.875.48-5.376-1.774-5.376-4.595V67.775a5.828 5.828 0 0 1 2.702-4.93l4.801-3.038a10.278 10.278 0 0 1 5.477-1.585H99.62l17.034-9.743c.546-.32.747-1.032.43-1.585l-1.15-2.036c-.315-.552-1.02-.756-1.566-.436l-15.956 9.161H84.8c-2.803 0-5.548.8-7.92 2.298l-4.816 3.039c-2.515 1.6-4.125 4.159-4.628 7.052l-8.984 5.38c-3.105 1.89-5.046 5.337-5.046 9.002v5.613L35.582 96.204a1.18 1.18 0 0 0-.432 1.585l1.15 2.02c.316.554 1.02.757 1.567.437l20.139-11.575v-8.317c0-2.036 1.078-3.956 2.789-5.003l6.41-3.839v9.583c0 4.857 3.494 9.205 8.28 9.67 5.477.538 10.12-3.824 10.12-9.263V76.85h16.1c1.265 0 2.3 1.047 2.3 2.327v4.653c0 1.28-1.035 2.327-2.3 2.327h-3.45v5.234c0 2.88-2.3 5.206-5.146 5.206h-2.314v2.327c0 3.228-2.588 5.846-5.78 5.846H69.29l-16.617 9.786a1.175 1.175 0 0 0-.417 1.585l1.15 2.007c.316.552 1.02.741 1.567.421l15.553-9.146h14.49c5.002 0 9.2-3.606 10.177-8.39 4.37-.975 7.662-4.93 7.662-9.642v-.683c1.955-.334 3.536-1.541 4.571-3.155l19.003-11.197a1.175 1.175 0 0 0 .417-1.585v-.001z" fill="#0077b7" fill-rule="nonzero"/></svg>