<svg id="Layer_1" data-name="Layer 1" xmlns="http://www.w3.org/2000/svg" viewBox="0 0 76 76"><defs><style>.cls-1{fill:#1057a7;}.cls-2{fill:#1558a6;}</style></defs><title>ico-edit</title><path d="M38,38" transform="translate(-0.02 -0.05)"/><path class="cls-1" d="M38,.05a38,38,0,1,0,38,38A38,38,0,0,0,38,.05Zm0,4.32A33.68,33.68,0,1,1,4.35,38.05,33.68,33.68,0,0,1,38,4.37Z" transform="translate(-0.02 -0.05)"/><path class="cls-2" d="M54.67,24.07,49,18.41a1.06,1.06,0,0,0-1.5,0h0L19.23,46.67h0a1.39,1.39,0,0,0-.64.88L17.1,54.22a1.39,1.39,0,0,0,1.35,1.69,1.36,1.36,0,0,0,.3,0l6.68-1.49a1.39,1.39,0,0,0,.88-.64h0L28.06,52,20.9,44.87l2.77-2.67,7.16,7.16L48.4,31.8l-7.15-7.13L44,22l7.16,7.16,3.55-3.55a1.06,1.06,0,0,0,0-1.5Z" transform="translate(-0.02 -0.05)"/></svg>