<svg id="Layer_1" xmlns="http://www.w3.org/2000/svg" viewBox="0 0 162.2 162.1"><style>.st1{fill:#0077b7}</style><path d="M81.1 162.1C36.4 162.1 0 125.7 0 81S36.4-.1 81.1-.1s81.1 36.4 81.1 81.1-36.4 81.1-81.1 81.1zm0-158.2C38.6 3.9 4 38.5 4 81s34.6 77.1 77.1 77.1 77.1-34.6 77.1-77.1S123.6 3.9 81.1 3.9z" fill="#aaa"/><path class="st1" d="M80 82.1c-5.1-.3-9.3-2.1-12.4-5.6-6.1-6.9-6.1-18.1-5.8-22.7v-.2c.5-9.8 5.1-14.4 8.9-16.5 4-2.3 8.1-2.5 9.7-2.5h.3c3.7.1 6.9 1 9.7 2.6 3.7 2.1 8.3 6.7 8.8 16.4 0 .1 1.6 14.7-5.8 22.9-3.2 3.6-7.4 5.4-12.7 5.5l-.7.1zm.4-43.8c-4.2 0-14.2 1.5-14.8 15.4v.2C65.3 57.2 65 68 70.4 74c2.5 2.8 5.7 4.2 10.1 4.3h.2c4.4 0 7.6-1.4 10.1-4.3 5.5-6.2 5-16.9 4.8-20v-.1c-.6-12.4-8.4-15.3-14.9-15.5h-.3v-.1z"/><path class="st1" d="M80.3 81.7c-5.2-.1-9.4-1.9-12.5-5.4-6.9-7.8-5.8-21.1-5.7-22.6.5-9.7 5-14.2 8.7-16.3s7.6-2.5 9.6-2.5h.3c3.6.1 6.8.9 9.6 2.6 3.7 2.1 8.1 6.6 8.6 16.2.2 1.5 1.2 15-5.7 22.7-3.1 3.5-7.3 5.3-12.5 5.4l-.4-.1zm-15-27.8c-.1 1.3-1 13.6 4.9 20.3 2.6 2.8 5.9 4.3 10.3 4.4h.2c4.4 0 7.8-1.4 10.3-4.4 6.3-7.1 4.8-20.2 4.8-20.3v-.1c-.6-13.4-9.7-15.6-15.1-15.8h-.3c-4.4 0-14.5 1.5-15.1 15.7v.2zM80.6 123.6c-22.7 0-36.1-8.8-36.2-8.9-.3-.2-.5-.5-.6-.9-.8-2-1-6-.9-8.2v-.6c.1-3.5.3-11.8 8.1-14.5h.1c3.4-.9 8.8-2.8 15.4-6.9.2-.1.3-.2.3-.2.3-.2.7-.3 1-.3.6 0 1.2.3 1.6.8.3.5.5.9.3 1.4-.1.5-.4.9-.8 1.2h.1-.1c-3.1 2-9.4 5.7-16.7 7.6-4.9 1.7-5.4 6.6-5.5 11.1v.5c0 1.7.1 4.3.4 5.9l.1.2.3.1c3.3 1.8 15.4 7.8 33.4 7.8s30-5.9 33.3-7.7l.3-.1.1-.2c.3-1.6.5-4.2.4-5.9v-.5c-.1-4.5-.6-9.4-5.4-11.1-8.5-2.2-15.6-6.8-16.9-7.7-.4-.3-.7-.7-.8-1.2-.1-.5 0-1.1.3-1.5.4-.5 1-.8 1.6-.8.4 0 .8.1 1.1.3.1.1 7.3 5 15.7 7.2h.1c7.8 2.7 8 10.9 8.1 14.5v.5c0 2.7-.2 6.4-.9 8.2-.1.4-.4.7-.7.9-1.6 1-14.7 9-36.6 9z"/><path class="st1" d="M80.6 123.3c-22.5 0-35.9-8.7-36-8.8-.3-.2-.5-.5-.6-.8-.8-2-.9-6.1-.9-8.1v-.6c.1-3.8.4-11.6 7.9-14.2h.1c8.6-2.2 15.8-7.2 15.9-7.2.3-.2.6-.3.9-.3.5 0 1 .3 1.3.7s.4.8.3 1.1c-.1.4-.3.8-.7 1h-.1c-1.9 1.2-8.6 5.5-16.7 7.6-5 1.8-5.6 6.8-5.7 11.4v.5c0 1.7.1 4.4.4 6l.1.4.4.2c3.2 1.8 15.2 7.9 33.5 7.9s30.2-6 33.4-7.8l.4-.2.1-.4c.3-1.5.5-4.2.4-6v-.1-.4c-.1-4.6-.7-9.7-5.6-11.4-9.2-2.4-16.6-7.5-16.8-7.7-.8-.5-.9-1.5-.4-2.2.3-.4.8-.7 1.3-.7.3 0 .7.1.9.3 0 0 7.2 5 15.8 7.2h.1c7.5 2.6 7.8 10.4 7.9 14.2v.5c0 2.2-.1 6.2-.9 8.1-.1.3-.3.6-.6.8-1.5 1.1-14.5 9-36.1 9z"/><path class="st1" d="M79 86.3h3.3v35.4H79z"/><path class="st1" d="M79.3 86.6H82v34.8h-2.7zM52.2 100.6c-.4 0-.8-.2-1-.6l-2.5-5.5c-.3-.5 0-1.2.5-1.4l2.4-1.1 1.5 3.7c.1.2.3.3.4.3h.2L67 91.7c.2-.1.2-.4.2-.6l-1-5.6 3.4-1.4 1.9 8.4c.1.2.1.5 0 .8s-.3.5-.5.6l-18.4 6.6c-.1 0-.3.1-.4.1z"/><path class="st1" d="M66.6 85.6l.9 5.3c.1.4 0 .8-.4.9l-13.2 4.3c-.4.2-.9 0-1-.4l-1.4-3.4-2.1.9c-.4.2-.6.7-.4 1l2.5 5.5c.2.4.7.6 1 .4l18.4-6.6c.4-.2.6-.7.4-1l-1.8-8-2.9 1.1z"/><path class="st1" d="M69.3 90.3l11.3-7.6 11.3 7.8-1.3 3.5-10-7.1-10 7.1z"/><path class="st1" d="M70.7 93.5l9.9-6.9 9.8 6.9 1.2-2.8-11-7.6-10.9 7.4zM91.7 105.1c-.5 0-1.1-.5-1.1-1.1v-1.3c0-.5.5-1.1 1.1-1.1h9.9c.5 0 1.1.5 1.1 1.1v1.3c0 .5-.5 1.1-1.1 1.1h-9.9z"/><path class="st1" d="M101.6 104.8h-9.9c-.4 0-.8-.4-.8-.8v-1.3c0-.4.4-.8.8-.8h9.9c.4 0 .8.4.8.8v1.3c0 .4-.4.8-.8.8zM109.2 100.6c-.2 0-.3 0-.5-.1l-18.3-6.6c-.6-.3-.8-.8-.7-1.4l1.9-8.4 3.4 1.4-1 5.5c-.1.2-.1.5.2.6l13.2 4.2c.1 0 .2.1.2.1.2 0 .4-.1.5-.3l1.6-3.7 2.4 1.1c.5.3.8.9.5 1.4l-2.5 5.5c-.1.4-.5.7-.9.7z"/><path class="st1" d="M94.7 85.6l-.9 5.3c-.1.4 0 .8.4.9l13.2 4.3c.4.2.9 0 1-.4l1.5-3.4 2.1.9c.4.2.6.7.4 1l-2.5 5.5c-.2.4-.7.6-1 .4l-18.4-6.6c-.5-.3-.6-.7-.5-1l1.8-8 2.9 1.1z"/></svg>