<?xml version="1.0" encoding="utf-8"?>
<!-- Generator: Adobe Illustrator 21.1.0, SVG Export Plug-In . SVG Version: 6.00 Build 0)  -->
<svg version="1.1" id="Layer_1" xmlns="http://www.w3.org/2000/svg" xmlns:xlink="http://www.w3.org/1999/xlink" x="0px" y="0px"
	 viewBox="0 0 162.2 162.1" style="enable-background:new 0 0 162.2 162.1;" xml:space="preserve">
<style type="text/css">
	.st0{fill:#444444;}
</style>
<title>ico-claims</title>
<path class="st0" d="M81.1,162.1C36.4,162.1,0,125.7,0,81S36.4-0.1,81.1-0.1s81.1,36.4,81.1,81.1S125.8,162.1,81.1,162.1z M81.1,3.9
	C38.6,3.9,4,38.5,4,81s34.6,77.1,77.1,77.1s77.1-34.6,77.1-77.1S123.6,3.9,81.1,3.9z"/>
<g>
	<g>
		<path class="st0" d="M66.2,54"/>
		<path class="st0" d="M66.2,54"/>
		<path class="st0" d="M80,82.1V82c-5.1-0.2-9.3-2-12.4-5.5c-6.1-6.9-6.1-18.1-5.8-22.7l0-0.2c0.5-9.8,5.1-14.4,8.9-16.5
			c4-2.3,8.1-2.5,9.7-2.5h0.3c3.7,0.1,6.9,1,9.7,2.6c3.7,2.1,8.3,6.7,8.8,16.4c0,0.1,1.6,14.7-5.8,22.9c-3.2,3.6-7.4,5.4-12.7,5.5h0
			H80z M80.4,38.3c-4.2,0-14.2,1.5-14.8,15.4v0.2C65.3,57.2,65,68,70.4,74c2.5,2.8,5.7,4.2,10.1,4.3h0.2c4.4,0,7.6-1.4,10.1-4.3
			c5.5-6.2,5-16.9,4.8-20c0-0.1,0-0.1,0-0.1c-0.6-12.4-8.4-15.3-14.9-15.5H80.4z"/>
		<path class="st0" d="M80.3,81.7c-5.2-0.1-9.4-1.9-12.5-5.4c-6.9-7.8-5.8-21.1-5.7-22.6c0.5-9.7,5-14.2,8.7-16.3
			c3.7-2.1,7.6-2.5,9.6-2.5h0.3c3.6,0.1,6.8,0.9,9.6,2.6c3.7,2.1,8.1,6.6,8.6,16.2c0.2,1.5,1.2,15-5.7,22.7
			c-3.1,3.5-7.3,5.3-12.5,5.4L80.3,81.7L80.3,81.7z M65.3,53.9c-0.1,1.3-1,13.6,4.9,20.3c2.6,2.8,5.9,4.3,10.3,4.4h0.2
			c4.4,0,7.8-1.4,10.3-4.4c6.3-7.1,4.8-20.2,4.8-20.3v-0.1C95.2,40.4,86.1,38.2,80.7,38h-0.3c-4.4,0-14.5,1.5-15.1,15.7
			C65.3,53.8,65.3,53.9,65.3,53.9z"/>
		<path class="st0" d="M119,105.7"/>
		<path class="st0" d="M119,105.7"/>
		<path class="st0" d="M80.6,123.6c-22.7,0-36.1-8.8-36.2-8.9c-0.3-0.2-0.5-0.5-0.6-0.9c-0.8-2-1-6-0.9-8.2V105
			c0.1-3.5,0.3-11.8,8.1-14.5l0,0h0.1c3.4-0.9,8.8-2.8,15.4-6.9c0.2-0.1,0.3-0.2,0.3-0.2c0.3-0.2,0.7-0.3,1-0.3
			c0.6,0,1.2,0.3,1.6,0.8c0.3,0.5,0.5,0.9,0.3,1.4c-0.1,0.5-0.4,0.9-0.8,1.2L69,86.5h-0.1c-3.1,2-9.4,5.7-16.7,7.6
			c-4.9,1.7-5.4,6.6-5.5,11.1v0.5c0,1.7,0.1,4.3,0.4,5.9l0.1,0.2l0.3,0.1c3.3,1.8,15.4,7.8,33.4,7.8c18,0,30-5.9,33.3-7.7l0.3-0.1
			l0.1-0.2c0.3-1.6,0.5-4.2,0.4-5.9v-0.5c-0.1-4.5-0.6-9.4-5.4-11.1c-8.5-2.2-15.6-6.8-16.9-7.7c-0.4-0.3-0.7-0.7-0.8-1.2
			c-0.1-0.5,0-1.1,0.3-1.5c0.4-0.5,1-0.8,1.6-0.8c0.4,0,0.8,0.1,1.1,0.3c0.1,0.1,7.3,5,15.7,7.2l0.1,0c7.8,2.7,8,10.9,8.1,14.5v0.5
			c0,2.7-0.2,6.4-0.9,8.2c-0.1,0.4-0.4,0.7-0.7,0.9C115.6,115.6,102.5,123.6,80.6,123.6z"/>
		<path class="st0" d="M80.6,123.3c-22.5,0-35.9-8.7-36-8.8c-0.3-0.2-0.5-0.5-0.6-0.8c-0.8-2-0.9-6.1-0.9-8.1c0-0.2,0-0.4,0-0.6
			c0.1-3.8,0.4-11.6,7.9-14.2h0.1c8.6-2.2,15.8-7.2,15.9-7.2c0.3-0.2,0.6-0.3,0.9-0.3c0.5,0,1,0.3,1.3,0.7s0.4,0.8,0.3,1.1
			c-0.1,0.4-0.3,0.8-0.7,1h-0.1c-1.9,1.2-8.6,5.5-16.7,7.6c-5,1.8-5.6,6.8-5.7,11.4c0,0.1,0,0.2,0,0.2c0,0.1,0,0.2,0,0.3
			c0,1.7,0.1,4.4,0.4,6l0.1,0.4l0.4,0.2c3.2,1.8,15.2,7.9,33.5,7.9s30.2-6,33.4-7.8l0.4-0.2l0.1-0.4c0.3-1.5,0.5-4.2,0.4-6v-0.1
			c0-0.1,0-0.2,0-0.4c-0.1-4.6-0.7-9.7-5.6-11.4c-9.2-2.4-16.6-7.5-16.8-7.7c-0.8-0.5-0.9-1.5-0.4-2.2c0.3-0.4,0.8-0.7,1.3-0.7
			c0.3,0,0.7,0.1,0.9,0.3c0,0,7.2,5,15.8,7.2h0.1c7.5,2.6,7.8,10.4,7.9,14.2c0,0.1,0,0.2,0,0.3c0,0.1,0,0.1,0,0.2
			c0,2.2-0.1,6.2-0.9,8.1c-0.1,0.3-0.3,0.6-0.6,0.8C115.2,115.4,102.2,123.3,80.6,123.3z"/>
	</g>
	<rect x="79" y="86.3" class="st0" width="3.3" height="35.4"/>
	<rect x="79.3" y="86.6" class="st0" width="2.7" height="34.8"/>
	<path class="st0" d="M52.2,100.6c-0.4,0-0.8-0.2-1-0.6l-2.5-5.5c-0.3-0.5,0-1.2,0.5-1.4l2.4-1.1l1.5,3.7c0.1,0.2,0.3,0.3,0.4,0.3
		c0.1,0,0.1,0,0.2,0l13.3-4.3c0.2-0.1,0.2-0.4,0.2-0.6l-1-5.6l3.4-1.4l1.9,8.4c0.1,0.2,0.1,0.5,0,0.8c-0.1,0.3-0.3,0.5-0.5,0.6
		l-18.4,6.6C52.5,100.5,52.3,100.6,52.2,100.6z"/>
	<path class="st0" d="M66.6,85.6l0.9,5.3c0.1,0.4,0,0.8-0.4,0.9l-13.2,4.3c-0.4,0.2-0.9,0-1-0.4l-1.4-3.4l-2.1,0.9
		c-0.4,0.2-0.6,0.7-0.4,1l2.5,5.5c0.2,0.4,0.7,0.6,1,0.4l18.4-6.6c0.4-0.2,0.6-0.7,0.4-1l-1.8-8L66.6,85.6z"/>
	<polygon class="st0" points="69.3,90.3 80.6,82.7 91.9,90.5 90.6,94 80.6,86.9 70.6,94 	"/>
	<polygon class="st0" points="70.7,93.5 80.6,86.6 90.4,93.5 91.6,90.7 80.6,83.1 69.7,90.5 	"/>
	<path class="st0" d="M91.7,105.1c-0.5,0-1.1-0.5-1.1-1.1v-1.3c0-0.5,0.5-1.1,1.1-1.1h9.9c0.5,0,1.1,0.5,1.1,1.1v1.3
		c0,0.5-0.5,1.1-1.1,1.1H91.7z"/>
	<path class="st0" d="M101.6,104.8h-9.9c-0.4,0-0.8-0.4-0.8-0.8v-1.3c0-0.4,0.4-0.8,0.8-0.8h9.9c0.4,0,0.8,0.4,0.8,0.8v1.3
		C102.4,104.4,102,104.8,101.6,104.8z"/>
	<path class="st0" d="M109.2,100.6c-0.2,0-0.3,0-0.5-0.1l-18.3-6.6c-0.6-0.3-0.8-0.8-0.7-1.4l1.9-8.4l3.4,1.4L94,91
		c-0.1,0.2-0.1,0.5,0.2,0.6l13.2,4.2c0.1,0,0.2,0.1,0.2,0.1c0.2,0,0.4-0.1,0.5-0.3l1.6-3.7l2.4,1.1c0.5,0.3,0.8,0.9,0.5,1.4
		l-2.5,5.5C110,100.3,109.6,100.6,109.2,100.6z"/>
	<path class="st0" d="M94.7,85.6l-0.9,5.3c-0.1,0.4,0,0.8,0.4,0.9l13.2,4.3c0.4,0.2,0.9,0,1-0.4l1.5-3.4l2.1,0.9
		c0.4,0.2,0.6,0.7,0.4,1l-2.5,5.5c-0.2,0.4-0.7,0.6-1,0.4l-18.4-6.6c-0.5-0.3-0.6-0.7-0.5-1l1.8-8L94.7,85.6z"/>
</g>
</svg>
