<?xml version="1.0" encoding="utf-8"?>
<!-- Generator: Adobe Illustrator 21.1.0, SVG Export Plug-In . SVG Version: 6.00 Build 0)  -->
<svg version="1.1" id="Layer_1" xmlns="http://www.w3.org/2000/svg" xmlns:xlink="http://www.w3.org/1999/xlink" x="0px" y="0px"
	 viewBox="0 0 80.7 61.7" style="enable-background:new 0 0 80.7 61.7;" xml:space="preserve">
<style type="text/css">
	.st0{fill:#0077B7;}
</style>
<title>ico-claims</title>
<path class="st0" d="M29.2,39.5h7.1v7.1c0,0.6,0.4,1,1,1h6.1c0.6,0,1-0.4,1-1v-7.1h7.1c0.6,0,1-0.4,1-1l0,0v-6.1c0-0.6-0.4-1-1-1
	h-7.1v-7.2c0-0.6-0.4-1-1-1h-6.1c-0.6,0-1,0.4-1,1v7.1h-7.2c-0.6,0-1,0.4-1,1v6.1C28.2,39,28.6,39.4,29.2,39.5L29.2,39.5z"/>
<path class="st0" d="M78.8,11.9c-1.2-1.3-3-2-4.8-2H55.7V6.7c0-1.8-0.7-3.5-2-4.8c-1.2-1.3-3-2-4.8-2H31.7c-1.8,0-3.5,0.7-4.8,2
	c-1.3,1.2-2,3-2,4.8v3.2H6.7c-1.8,0-3.5,0.7-4.8,2c-1.3,1.2-2,3-2,4.8V55c0,1.8,0.7,3.5,2,4.8c1.2,1.3,3,2,4.8,2H74
	c3.7,0,6.7-3,6.7-6.7V16.7C80.8,14.9,80,13.2,78.8,11.9z M30.4,6.7c0-0.7,0.6-1.4,1.4-1.4H49c0.7,0,1.3,0.6,1.3,1.3v3.2h-20
	L30.4,6.7z M13.7,56.4h-7c-0.7,0-1.3-0.6-1.3-1.3V16.7c0-0.7,0.6-1.3,1.4-1.3h7V56.4z M62.2,56.4H18.5v-41h43.8V56.4z M75.3,55
	c0,0.7-0.6,1.3-1.3,1.3h-7v-41h7c0.7,0,1.3,0.6,1.3,1.3V55z"/>
</svg>
