<svg id="Layer_1" data-name="Layer 1" xmlns="http://www.w3.org/2000/svg" viewBox="0 0 37.32 40.11"><defs><style>.cls-1{fill:#0357a3;}</style></defs><title>ico-household</title><path class="cls-1" d="M33.54,44.18a1.55,1.55,0,0,1-1.21-.58l-2.37-3H9.57A1.56,1.56,0,0,1,8,39.08V22a1.57,1.57,0,0,1,.62-1.25L22,10.54a1.55,1.55,0,0,1,1.88,0l13.4,10.17A1.57,1.57,0,0,1,37.94,22v2.53h.66a5.48,5.48,0,0,1,4.8,3.33,5.76,5.76,0,0,1-.76,6L34.75,43.6A1.55,1.55,0,0,1,33.54,44.18ZM28.63,27.61a2.42,2.42,0,0,0-2.11,1.48,2.64,2.64,0,0,0,.34,2.73l6.67,8.3,6.67-8.3a2.64,2.64,0,0,0,.34-2.73,2.42,2.42,0,0,0-2.11-1.48h-.16a3.2,3.2,0,0,0-3.18,3.21,1.56,1.56,0,1,1-3.12,0,3.2,3.2,0,0,0-3.18-3.21Zm-1.19,9.91-3-3.73a5.76,5.76,0,0,1-.76-6,5.48,5.48,0,0,1,4.8-3.33h.32a6.28,6.28,0,0,1,4.74,2.17,6.4,6.4,0,0,1,1.28-1.12V22.73L23,13.75l-11.85,9V37.52Z" transform="translate(-6.58 -4.07)"/><path class="cls-1" d="M37.81,18.81a1.54,1.54,0,0,1-.94-.32L23,7.61,9.09,18.49a1.55,1.55,0,0,1-.95.32A1.57,1.57,0,0,1,7.2,16L22,4.39a1.55,1.55,0,0,1,1.89,0L38.75,16a1.57,1.57,0,0,1,.3,2.18A1.55,1.55,0,0,1,37.81,18.81Z" transform="translate(-6.58 -4.07)"/></svg>