<svg id="Layer_1" data-name="Layer 1" xmlns="http://www.w3.org/2000/svg" viewBox="0 0 39.32 39.32"><defs><style>.cls-1{fill:#fff;}</style></defs><title>ico-close-white</title><path class="cls-1" d="M20,.38A19.66,19.66,0,1,0,39.63,20,19.66,19.66,0,0,0,20,.38Zm8.45,25L25.28,28.5S20.33,23.18,20,23.18s-5.32,5.32-5.32,5.32l-3.13-3.13s5.32-4.88,5.32-5.31-5.32-5.33-5.32-5.33l3.13-3.13s5,5.31,5.32,5.31,5.32-5.31,5.32-5.31l3.13,3.13s-5.32,5-5.32,5.33,5.32,5.31,5.32,5.31Zm0,0" transform="translate(-0.31 -0.38)"/></svg>