<?xml version="1.0" encoding="utf-8"?>
<!-- Generator: Adobe Illustrator 21.1.0, SVG Export Plug-In . SVG Version: 6.00 Build 0)  -->
<svg version="1.1" id="Layer_1" xmlns="http://www.w3.org/2000/svg" xmlns:xlink="http://www.w3.org/1999/xlink" x="0px" y="0px"
	 viewBox="0 0 41.5 41.6" style="enable-background:new 0 0 41.5 41.6;" xml:space="preserve">
<style type="text/css">
	.st0{fill:#777777;}
</style>
<title>ico-add-blue</title>
<path class="st0" d="M15.3,41c-0.4,0-0.7-0.1-0.9-0.4c-0.2-0.2-0.4-0.6-0.4-0.9v-12h-12c-0.4,0-0.7-0.1-0.9-0.4
	c-0.3-0.3-0.4-0.6-0.4-1v-11c0-0.7,0.6-1.3,1.3-1.3h12v-12c0-0.7,0.6-1.3,1.3-1.3h10.9c0.4,0,0.7,0.1,0.9,0.4
	c0.2,0.2,0.4,0.6,0.4,0.9v12h12c0.4,0,0.7,0.1,0.9,0.4c0.2,0.2,0.4,0.6,0.4,0.9v10.9c0,0.7-0.6,1.3-1.3,1.3h-12v12
	c0,0.7-0.6,1.3-1.3,1.3L15.3,41z M15.1,25c0.4,0,0.7,0.1,0.9,0.4c0.2,0.3,0.4,0.6,0.4,0.9v11.8H25V26.4c0-0.7,0.6-1.4,1.4-1.4h11.7
	v-8.5H26.4c-0.4,0-0.7-0.2-0.9-0.4c-0.2-0.3-0.4-0.6-0.4-0.9V3.4h-8.5v11.6c0,0.7-0.6,1.4-1.4,1.4H3.2V25L15.1,25z"/>
</svg>
