<?xml version="1.0" encoding="utf-8"?>
<!-- Generator: Adobe Illustrator 21.1.0, SVG Export Plug-In . SVG Version: 6.00 Build 0)  -->
<svg version="1.1" id="Layer_1" xmlns="http://www.w3.org/2000/svg" xmlns:xlink="http://www.w3.org/1999/xlink" x="0px" y="0px"
	 viewBox="0 0 512 512" style="enable-background:new 0 0 512 512;" xml:space="preserve">
<g>
	<g>
		<path d="M26.9,448.5C13.7,448.5,3,437.8,3,424.6V126.2c0-6.4,2.5-12.4,7-16.9s10.5-7,16.9-7c0,0,43.6,0,43.6,0v-39
			c0-13.2,10.7-23.9,23.9-23.9h127c8.3,0,16.3,3,22.6,8.4l35.4,30.6c3.5,3,7.9,4.6,12.5,4.6h193.2c13.2,0,23.9,10.7,23.9,23.9v254.8
			c0,13.2-10.7,23.9-23.9,23.9h-43.6v38.9c0,13.2-10.7,23.9-23.9,23.9H26.9z M18.5,424.6c0,4.6,3.8,8.4,8.4,8.4h390.7
			c4.5,0,8.3-3.7,8.4-8.2l0-200.4H18.5V424.6z M94.4,55c-4.6,0-8.4,3.8-8.4,8.4v39h67.8c8.3,0,16.3,3,22.6,8.4l35.4,30.6
			c3.5,3,7.9,4.6,12.5,4.6h193.2c13.2,0,23.9,10.7,23.9,23.9v200.3h43.6c4.6,0,8.4-3.8,8.4-8.4l0-254.8c0-4.6-3.8-8.4-8.4-8.4H291.9
			c-8.3,0-16.3-3-22.6-8.4l-35.4-30.6c-3.5-3-7.9-4.6-12.5-4.6H94.4z M26.9,117.9c-4.6,0-8.4,3.8-8.4,8.4v82.7H426v-39
			c0-4.6-3.8-8.4-8.4-8.4H224.4c-8.3,0-16.3-3-22.6-8.4l-35.4-30.6c-3.5-3-7.9-4.6-12.5-4.6H26.9z"/>
	</g>
</g>
<g>
	<g>
		<path d="M222.2,383.7c-4.3,0-7.8-3.5-7.8-7.8v-38.4h-38.4c-4.3,0-7.8-3.5-7.8-7.8s3.5-7.8,7.8-7.8h38.4v-38.4
			c0-4.3,3.5-7.8,7.8-7.8c4.3,0,7.8,3.5,7.8,7.8V322h38.4c2.1,0,4,0.8,5.5,2.3c1.5,1.5,2.3,3.4,2.3,5.5c0,4.3-3.5,7.8-7.8,7.8H230
			v38.4C230,380.2,226.5,383.7,222.2,383.7z"/>
	</g>
</g>
</svg>
