<?xml version="1.0" encoding="utf-8"?>
<!-- Generator: Adobe Illustrator 21.1.0, SVG Export Plug-In . SVG Version: 6.00 Build 0)  -->
<svg version="1.1" id="Layer_1" xmlns="http://www.w3.org/2000/svg" xmlns:xlink="http://www.w3.org/1999/xlink" x="0px" y="0px"
	 viewBox="0 0 40 40" style="enable-background:new 0 0 40 40;" xml:space="preserve">
<style type="text/css">
	.st0{fill:#FFFFFF;}
</style>
<title>ico-pending</title>
<g>
	<path class="st0" d="M20,0.4C9.2,0.4,0.4,9.2,0.4,20S9.2,39.7,20,39.7S39.7,30.8,39.7,20C39.7,9.2,30.9,0.4,20,0.4z M20,37.8
		c-9.8,0-17.7-8-17.7-17.7S10.3,2.3,20,2.3s17.7,8,17.7,17.8S29.8,37.8,20,37.8z"/>
</g>
<circle class="st0" cx="20" cy="28.9" r="1.9"/>
<path class="st0" d="M18.6,24.3V9.9c0-0.6,0.6-1.1,1.4-1.1c0.8,0,1.4,0.5,1.4,1.1v14.3c0,0.6-0.6,1.1-1.4,1.1
	C19.2,25.5,18.6,24.9,18.6,24.3z"/>
</svg>
