<?xml version="1.0" encoding="utf-8"?>
<!-- Generator: Adobe Illustrator 21.1.0, SVG Export Plug-In . SVG Version: 6.00 Build 0)  -->
<svg version="1.1" id="Layer_1" xmlns="http://www.w3.org/2000/svg" xmlns:xlink="http://www.w3.org/1999/xlink" x="0px" y="0px"
	 viewBox="0 0 100 100" style="enable-background:new 0 0 100 100;" xml:space="preserve">
<style type="text/css">
	.st0{fill:#444444;}
</style>
<g>
	<path class="st0" d="M66.2,97.9c-0.2,0-0.5,0-0.7-0.1l-0.1,0l-0.1-0.1l-30-12.3L3.5,95.9C3.3,96,3,96,2.8,96
		c-0.5,0-0.9-0.1-1.3-0.4c-0.6-0.4-0.9-1.1-0.9-1.8V15.9c0-1,0.6-1.8,1.5-2.1L34.8,2.9h0.1c0,0,0.1,0,0.1,0c0.1,0,0.3-0.1,0.4-0.1
		l0.1,0c0.2,0,0.3,0,0.4,0l0.2,0.1C36.2,3,36.3,3,36.4,3.1l0.1,0l0,0l29.7,15.7L96,3.1c0.3-0.2,0.7-0.3,1-0.3c0.4,0,0.8,0.1,1.1,0.3
		c0.7,0.4,1.1,1.1,1.1,1.9v74.3c0,0.8-0.5,1.6-1.2,2L67.3,97.6c-0.1,0-0.1,0.1-0.2,0.1l-0.2,0.1C66.6,97.8,66.4,97.9,66.2,97.9z
		 M64,92.3V64.8c-1.5-0.1-2.9-0.2-4.4-0.5c-0.6-0.1-1.1-0.4-1.4-0.9c-0.3-0.5-0.5-1.1-0.3-1.7c0.2-1,1.1-1.8,2.2-1.8
		c0.1,0,0.3,0,0.4,0c1.2,0.2,2.4,0.4,3.5,0.5V22.7l-26.4-14v46.9c0.4,0,0.8,0,1.3-0.1h0.1c1.2,0,2.2,1,2.2,2.2
		c0,1.2-0.9,2.2-2.2,2.3c-0.5,0-0.9,0.1-1.3,0.1l0,0v21.4L64,92.3z M68.5,92l26.4-14V8.7l-26.4,14v38.1c0.6,0.4,1,1,1.1,1.7
		c0.1,0.8-0.4,1.6-1.1,2V92z M5,90.8l28.2-9.4V60.7c0,0-0.1,0-0.1,0c-0.3,0-0.5,0.1-0.8,0.2c-0.2,0.1-0.4,0.1-0.6,0.1
		c-1,0-1.9-0.7-2.1-1.6c-0.3-1.2,0.4-2.4,1.6-2.7c0.6-0.2,1.3-0.3,2-0.4v-48L5,17.5V90.8z"/>
	<path class="st0" d="M98,3.5c-0.5-0.3-1.2-0.3-1.8,0l-30,15.9l-30-15.9c0,0-0.1,0-0.1,0c-0.1,0-0.2-0.1-0.3-0.1c-0.1,0-0.1,0-0.2,0
		c-0.1,0-0.2,0-0.3,0c0,0-0.1,0-0.1,0c-0.1,0-0.2,0-0.3,0c-0.1,0-0.1,0-0.2,0c0,0,0,0,0,0L2.2,14.2C1.5,14.4,1,15.1,1,15.9v77.9
		c0,0.6,0.3,1.1,0.8,1.5c0.3,0.2,0.7,0.3,1.1,0.3c0.2,0,0.4,0,0.6-0.1l32-10.7l30.2,12.4c0,0,0.1,0,0.1,0c0.2,0.1,0.4,0.1,0.6,0.1
		c0.2,0,0.3,0,0.5-0.1c0.1,0,0.1,0,0.1-0.1c0.1,0,0.2,0,0.2-0.1l30.8-16.3c0.6-0.3,1-0.9,1-1.6V5C98.9,4.4,98.5,3.8,98,3.5L98,3.5z
		 M4.6,17.2l29-9.7v48.9c-0.8,0.1-1.5,0.3-2.3,0.5c-1,0.3-1.5,1.2-1.3,2.2c0.2,0.8,0.9,1.3,1.8,1.3c0.1,0,0.3,0,0.5-0.1
		c0.4-0.1,0.9-0.2,1.4-0.3v21.5l-29,9.7V17.2z M37.2,59.7c0.6-0.1,1.1-0.1,1.7-0.1c1,0,1.8-0.8,1.8-1.8c0-1-0.8-1.8-1.8-1.8h0
		c-0.6,0-1.1,0-1.7,0.1V8l27.2,14.4v38.4c-1.3-0.1-2.6-0.2-4-0.5c-1-0.2-1.9,0.5-2.1,1.4c-0.2,1,0.5,1.9,1.4,2.1
		c1.6,0.3,3.2,0.5,4.7,0.5v28.5L37.2,81.7V59.7z M95.2,78.2L68.1,92.6V64.2c0.7-0.3,1.1-1,1.1-1.8c-0.1-0.7-0.5-1.2-1.1-1.5V22.4
		L95.2,8V78.2z M95.2,78.2"/>
	<path class="st0" d="M20.9,41.7c-1.2,0-2.2-1-2.2-2.2V36c-4.2-1-7.2-4.8-7.2-9.2c0-5.2,4.2-9.5,9.5-9.5c5.2,0,9.5,4.2,9.5,9.5
		c0,4.4-3,8.2-7.2,9.2v3.5C23.1,40.7,22.2,41.7,20.9,41.7z M20.9,21.7c-2.8,0-5,2.3-5,5c0,2.8,2.3,5,5,5c2.8,0,5-2.3,5-5
		C26,24,23.7,21.7,20.9,21.7z"/>
	<path class="st0" d="M20.9,17.7c-5,0-9.1,4.1-9.1,9.1c0,4.4,3.1,8,7.2,8.9v3.8c0,1,0.8,1.8,1.8,1.8c1,0,1.8-0.8,1.8-1.8v-3.8
		c4.1-0.8,7.2-4.5,7.2-8.9C30,21.8,25.9,17.7,20.9,17.7L20.9,17.7z M20.9,32.2c-3,0-5.4-2.4-5.4-5.4c0-3,2.4-5.4,5.4-5.4
		c3,0,5.4,2.4,5.4,5.4C26.4,29.8,23.9,32.2,20.9,32.2L20.9,32.2z M20.9,32.2"/>
	<path class="st0" d="M83.3,52.1c-0.3,0-0.5,0-0.8-0.1c-1.1-0.5-1.7-1.7-1.3-2.9c0.8-2,1.4-4.2,1.8-6.6c0.2-1,1.1-1.8,2.2-1.8
		c0.1,0,0.2,0,0.4,0c1.2,0.2,2,1.4,1.8,2.6c-0.5,2.7-1.2,5.2-2.1,7.4C85.1,51.5,84.2,52.1,83.3,52.1z"/>
	<path class="st0" d="M82.7,51.6c0.2,0.1,0.4,0.1,0.7,0.1c0.7,0,1.4-0.4,1.7-1.2c0.8-2.2,1.5-4.6,2-7.3c0.2-1-0.5-1.9-1.4-2.1
		c-1-0.2-1.9,0.5-2.1,1.5c-0.5,2.4-1.1,4.7-1.8,6.6C81.3,50.1,81.7,51.2,82.7,51.6L82.7,51.6z M82.7,51.6"/>
	<path class="st0" d="M19.7,68.5c-0.5,0-1-0.2-1.4-0.5c-0.9-0.8-1.1-2.2-0.3-3.1c1.7-2,3.7-3.8,6-5.2c0.4-0.2,0.8-0.3,1.2-0.3
		c0.8,0,1.5,0.4,1.9,1c0.3,0.5,0.4,1.1,0.3,1.7c-0.1,0.6-0.5,1.1-1,1.4c-1.8,1.1-3.5,2.6-4.9,4.3C21,68.2,20.4,68.5,19.7,68.5z"/>
	<path class="st0" d="M24.2,60c-2.2,1.4-4.2,3.1-5.9,5.1c-0.6,0.8-0.5,1.9,0.2,2.6c0.3,0.3,0.8,0.4,1.2,0.4c0.5,0,1-0.2,1.4-0.6
		c1.5-1.7,3.2-3.2,5-4.4c0.8-0.5,1.1-1.7,0.6-2.5C26.2,59.7,25,59.5,24.2,60L24.2,60z M24.2,60"/>
	<path class="st0" d="M13.7,81.5c-0.1,0-0.2,0-0.3,0c-0.6-0.1-1.1-0.4-1.4-0.8c-0.4-0.5-0.5-1.1-0.4-1.6c0,0,0.4-3.3,2.4-7.5
		c0.4-0.8,1.1-1.3,2-1.3c0.3,0,0.6,0.1,0.9,0.2c1.1,0.5,1.6,1.8,1.1,2.9c-1.6,3.5-2,6.3-2,6.3C15.7,80.7,14.8,81.5,13.7,81.5z"/>
	<path class="st0" d="M16.6,70.8c-0.9-0.4-2,0-2.4,0.9c-1.9,4-2.3,7.3-2.3,7.4c-0.1,1,0.6,1.9,1.5,2c0.1,0,0.2,0,0.2,0
		c0.9,0,1.7-0.7,1.8-1.6c0,0,0.4-2.9,2-6.4C17.9,72.3,17.5,71.2,16.6,70.8L16.6,70.8z M16.6,70.8"/>
	<path class="st0" d="M74.3,62.9c-0.8,0-1.6-0.5-2-1.2C72,61.2,72,60.6,72.1,60c0.2-0.6,0.6-1,1.1-1.3c1.8-0.9,3.5-2.3,4.8-4
		c0.4-0.5,1.1-0.8,1.7-0.8c0.5,0,1,0.2,1.4,0.5c0.5,0.4,0.8,0.9,0.8,1.5c0.1,0.6-0.1,1.2-0.5,1.6c-1.8,2.2-3.9,3.9-6.3,5.2
		C74.9,62.8,74.6,62.9,74.3,62.9z"/>
	<path class="st0" d="M74.3,62.5c0.3,0,0.6-0.1,0.8-0.2c2.3-1.2,4.4-2.9,6.1-5.1c0.6-0.8,0.5-1.9-0.3-2.5c-0.8-0.6-1.9-0.5-2.5,0.3
		c-1.4,1.8-3.1,3.1-5,4.1c-0.9,0.5-1.2,1.5-0.8,2.4C73,62.2,73.6,62.5,74.3,62.5L74.3,62.5z M74.3,62.5"/>
	<path class="st0" d="M53.2,62.3c-0.3,0-0.6-0.1-0.9-0.2c-0.6-0.3-1.1-0.5-1.3-0.6c-1.7-0.4-3.4-0.8-5.1-1c-1.2-0.2-2-1.3-1.9-2.5
		c0.2-1.1,1.1-1.9,2.2-1.9c0.1,0,0.2,0,0.4,0c1.9,0.3,3.8,0.7,5.8,1.2c0.1,0,0.3,0.1,0.5,0.2c0,0,0.1,0,0.1,0.1
		c0.2,0.1,0.6,0.3,1.2,0.5c0.5,0.2,1,0.7,1.2,1.2c0.2,0.5,0.2,1.2,0,1.7C54.9,61.7,54,62.3,53.2,62.3z"/>
	<path class="st0" d="M53.9,58.4c-0.8-0.3-1.3-0.6-1.3-0.6c-0.1-0.1-0.2-0.1-0.4-0.1c-2-0.5-3.9-0.9-5.7-1.2c-1-0.2-1.9,0.5-2.1,1.5
		c-0.1,1,0.5,1.9,1.5,2.1c1.7,0.3,3.4,0.6,5.2,1.1c0.2,0.1,0.7,0.3,1.4,0.6c0.2,0.1,0.5,0.1,0.7,0.1c0.7,0,1.4-0.4,1.7-1.1
		C55.2,59.8,54.8,58.8,53.9,58.4L53.9,58.4z M53.9,58.4"/>
	<path class="st0" d="M86,37.9c-0.6,0-1.2-0.3-1.6-0.8c-0.4-0.4-0.6-1-0.5-1.6c0.1-1.6,0.2-3.4,0.2-5.2c0-0.6,0-1.2,0-1.8
		c0-1.2,1-2.3,2.2-2.3c1.2,0,2.2,1,2.2,2.2c0,0.7,0,1.3,0,1.9c0,2-0.1,3.8-0.2,5.5c-0.1,1.2-1,2.1-2.2,2.1L86,37.9z"/>
	<path class="st0" d="M86,37.5c0,0,0.1,0,0.1,0c0.9,0,1.7-0.7,1.8-1.7c0.1-1.7,0.2-3.6,0.2-5.5c0-0.6,0-1.3,0-1.9
		c0-1-0.9-1.8-1.8-1.8c-1,0-1.8,0.8-1.8,1.9c0,0.6,0,1.2,0,1.8c0,1.8-0.1,3.6-0.2,5.2C84.3,36.6,85,37.5,86,37.5L86,37.5z M86,37.5"
		/>
	<path class="st0" d="M24.6,54.4c-0.6,0-1.1-0.2-1.6-0.6l-2.1-2.1l-2.1,2.1c-0.4,0.4-1,0.6-1.6,0.6c-0.6,0-1.2-0.2-1.6-0.6
		c-0.4-0.4-0.6-1-0.6-1.6c0-0.6,0.2-1.1,0.6-1.6l2.1-2.1l-2.1-2.1c-0.4-0.4-0.6-1-0.6-1.6c0-0.6,0.2-1.1,0.6-1.6
		c0.4-0.4,1-0.6,1.6-0.6c0.6,0,1.1,0.2,1.6,0.6l2.1,2.1l2.1-2.1c0.4-0.4,1-0.6,1.6-0.6c0.6,0,1.1,0.2,1.6,0.6c0.9,0.9,0.9,2.3,0,3.1
		l-2.1,2.1l2.1,2.1c0.9,0.9,0.9,2.3,0,3.1C25.7,54.1,25.1,54.4,24.6,54.4z"/>
	<path class="st0" d="M16,53.4c0.4,0.4,0.8,0.5,1.3,0.5c0.5,0,0.9-0.2,1.3-0.5l2.3-2.3l2.3,2.3c0.4,0.4,0.8,0.5,1.3,0.5
		c0.5,0,0.9-0.2,1.3-0.5c0.7-0.7,0.7-1.9,0-2.6l-2.3-2.3l2.3-2.3c0.7-0.7,0.7-1.9,0-2.6c-0.7-0.7-1.9-0.7-2.6,0L20.9,46l-2.3-2.3
		c-0.7-0.7-1.9-0.7-2.6,0c-0.7,0.7-0.7,1.8,0,2.6l2.3,2.3L16,50.9C15.3,51.6,15.3,52.7,16,53.4L16,53.4z M16,53.4"/>
</g>
</svg>
