<?xml version="1.0" encoding="utf-8"?>
<!-- Generator: Adobe Illustrator 23.0.1, SVG Export Plug-In . SVG Version: 6.00 Build 0)  -->
<svg version="1.1" id="Layer_1" xmlns="http://www.w3.org/2000/svg" xmlns:xlink="http://www.w3.org/1999/xlink" x="0px" y="0px"
	 viewBox="0 0 724 478.9" style="enable-background:new 0 0 724 478.9;" xml:space="preserve">
<title>ico-home</title>
<g>
	<g>
		<path d="M554,473.9c-7.5,0-15.1-1-22.5-2.9c-31.5-8.2-56-32.8-64-64l-0.4-1.5H265.4L265,407c-10.2,39.4-45.7,66.9-86.4,66.9l0,0
			c-7.6,0-15.1-1-22.5-2.9c-31.5-8.2-56-32.8-64-64l-0.4-1.5H70.5c-38.2,0-69.2-31.6-69.2-70.4v-64.4c-0.2-27.3,15.8-52.3,40.6-63.6
			l65-29.7l57.2-91.3C180.2,60.4,207.9,45,238.4,45h165.2c27.5,0,53.7,12.9,70.3,34.6l73.9,96.7L670.9,210
			c30.1,8.3,51.1,36,51.1,67.3v57.9c0,38.8-31,70.4-69.2,70.4h-12.1l-0.4,1.5C630.1,446.4,594.6,473.9,554,473.9z M554,324
			c-33.3,0-60.4,27.1-60.4,60.4c-0.1,16,6.2,31.1,17.6,42.6c11.4,11.4,26.6,17.7,42.8,17.8c33.3,0,60.4-27.1,60.4-60.4
			S587.3,324,554,324z M178.7,324c-33.3,0-60.4,27.1-60.4,60.4c-0.1,16,6.2,31.1,17.6,42.6c11.4,11.4,26.6,17.7,42.8,17.8
			c33.3,0,60.4-27.1,60.4-60.4S211.9,324,178.7,324z M553.8,295.3c3.3,0,6.7,0.2,10,0.6c20.1,2.2,39.1,11.3,53.4,25.6
			c14.3,14.3,23.4,33.3,25.5,53.4l0.2,1.8h10c22.2,0,40.3-18.6,40.3-41.5v-57.9c0.2-18.3-12.1-34.6-29.9-39.6l-128.1-35
			c-3.2-0.9-5.8-2.7-7.6-5.2L451,97c-11.5-14.7-28.8-23.2-47.5-23.2H238.4c-20.3,0-39.4,10.6-49.9,27.6l-59.5,95
			c-1.4,2.3-3.6,4.3-6.2,5.5L54,233.4c-14.6,6.8-23.9,21.4-23.7,37.4v62.4h-0.2v2c0,22.9,18.1,41.5,40.3,41.5h19.2l0.2-1.8
			c4.9-45.3,43-79.5,88.6-79.5c3.3,0,6.7,0.2,10,0.6c20.1,2.2,39.1,11.3,53.4,25.6c14.3,14.3,23.4,33.3,25.6,53.4l0.2,1.8H465
			l0.2-1.8C470.1,329.5,508.2,295.3,553.8,295.3z"/>
	</g>
</g>
</svg>
