<?xml version="1.0" encoding="utf-8"?>
<!-- Generator: Adobe Illustrator 21.1.0, SVG Export Plug-In . SVG Version: 6.00 Build 0)  -->
<svg version="1.1" id="Layer_1" xmlns="http://www.w3.org/2000/svg" xmlns:xlink="http://www.w3.org/1999/xlink" x="0px" y="0px"
	 viewBox="0 0 39.6 39.6" style="enable-background:new 0 0 39.6 39.6;" xml:space="preserve">
<style type="text/css">
	.st0{fill:#0756A4;}
</style>
<title>ico-calendar</title>
<g>
	<g>
		<g>
			<path class="st0" d="M38.7,5.4H0.9C0.4,5.4,0,5.8,0,6.3v27c0,0.5,0.4,0.9,0.9,0.9h37.8c0.5,0,0.9-0.4,0.9-0.9v-27
				C39.6,5.8,39.2,5.4,38.7,5.4z M37.8,30.2L26.7,19.1l-1.3,1.3l12.1,12.1H2.2l12.1-12.1l-1.3-1.3L1.8,30.2v-23h36V30.2z"/>
		</g>
	</g>
	<g>
		<g>
			<path class="st0" d="M36,7.2L19.8,23.4L3.6,7.2H1.8v0.7l17.4,17.4c0.4,0.4,0.9,0.4,1.3,0L37.8,7.9V7.2H36z"/>
		</g>
	</g>
</g>
</svg>
