<svg id="Layer_1" xmlns="http://www.w3.org/2000/svg" viewBox="0 0 162.2 162.1"><style>.st1{fill:#0077b7}</style><path d="M81.1 162.1C36.4 162.1 0 125.7 0 81S36.4-.1 81.1-.1s81.1 36.4 81.1 81.1-36.4 81.1-81.1 81.1zm0-158.2C38.6 3.9 4 38.5 4 81s34.6 77.1 77.1 77.1 77.1-34.6 77.1-77.1S123.6 3.9 81.1 3.9z" fill="#aaa"/><path class="st1" d="M47.9 114.6c-3.2 0-5.7-2.6-5.7-5.7V63.8c0-3.2 2.6-5.7 5.7-5.7h2.6c.7-1.6 2.3-2.7 4-2.7h5.3c1.8 0 3.3 1.1 4 2.7h3.5v-3.6c0-3.9 3.2-7.1 7.1-7.1h13.3c3.9 0 7.1 3.2 7.1 7.1v3.6h3.5c.7-1.6 2.3-2.7 4-2.7h5.3c1.8 0 3.3 1.1 4 2.7h2.6c3.2 0 5.7 2.6 5.7 5.7v45.1c0 3.2-2.6 5.7-5.7 5.7H47.9zm66.4-3.4c1.2 0 2.2-1 2.2-2.2V63.8c0-1.2-1-2.2-2.2-2.2h-2.6c-.7 1.6-2.3 2.7-4 2.7h-.9v46.9h7.5zm-11.1 0v-47h-.9c-1.8 0-3.3-1.1-4-2.7H63.9c-.7 1.6-2.3 2.7-4 2.7H59v46.9l44.2.1zM47.9 61.6c-1.2 0-2.2 1-2.2 2.2v45.1c0 1.2 1 2.2 2.2 2.2h7.5V64.2h-.9c-1.8 0-3.3-1.1-4-2.7h-2.6v.1zm53.5-1.7c0 .5.4.9.9.9h5.3c.5 0 .9-.4.9-.9s-.4-.9-.9-.9h-5.3c-.5-.1-.9.3-.9.9zm-46.8-1c-.5 0-.9.4-.9.9s.4.9.9.9h5.3c.5 0 .9-.4.9-.9s-.4-.9-.9-.9h-5.3zm36.7-.8v-3.6c0-2-1.6-3.6-3.6-3.6H74.5c-2 0-3.6 1.6-3.6 3.6v3.6h20.4z"/><path class="st1" d="M114.3 58.6h-2.9c-.5-1.5-2-2.7-3.7-2.7h-5.3c-1.7 0-3.2 1.1-3.7 2.7h-4.4v-4.1c0-3.6-2.9-6.6-6.6-6.6H74.5c-3.6 0-6.6 2.9-6.6 6.6v4.1h-4.4c-.5-1.5-2-2.7-3.7-2.7h-5.3c-1.7 0-3.2 1.1-3.7 2.7h-2.9c-2.9 0-5.2 2.3-5.2 5.2v45.1c0 2.9 2.3 5.2 5.2 5.2h66.4c2.9 0 5.2-2.3 5.2-5.2V63.8c0-2.9-2.3-5.2-5.2-5.2zm-12-.2h5.3c.8 0 1.4.6 1.4 1.4s-.6 1.4-1.4 1.4h-5.3c-.8 0-1.4-.6-1.4-1.4 0-.8.7-1.4 1.4-1.4zm-42.4 5.3c1.7 0 3.2-1.1 3.7-2.7h35.1c.5 1.5 2 2.7 3.7 2.7h1.4v47.9H58.5V63.7h1.4zm10.5-9.2c0-2.2 1.8-4.1 4.1-4.1h13.3c2.2 0 4.1 1.8 4.1 4.1v4.1H70.4v-4.1zm-15.8 3.9h5.3c.8 0 1.4.6 1.4 1.4s-.6 1.4-1.4 1.4h-5.3c-.8 0-1.4-.6-1.4-1.4 0-.8.6-1.4 1.4-1.4zm-9.4 50.5V63.8c0-1.5 1.2-2.7 2.7-2.7h2.9c.5 1.5 2 2.7 3.7 2.7H56v47.9h-8c-1.6 0-2.8-1.3-2.8-2.8zm71.8 0c0 1.5-1.2 2.7-2.7 2.7h-8V63.7h1.4c1.7 0 3.2-1.1 3.7-2.7h2.9c1.5 0 2.7 1.2 2.7 2.7v45.2z"/><path class="st1" d="M95.3 79.3h-7.4v-7.4c0-.9-.8-1.8-1.7-1.8H76c-.9 0-1.6.8-1.6 1.8v7.4h-7.5c-.9 0-1.6.8-1.6 1.8v10.2c0 .9.7 1.6 1.6 1.6h7.5v7.5c0 .9.7 1.6 1.6 1.6h10.2c.9 0 1.7-.7 1.7-1.6v-7.5h7.4c.9 0 1.7-.7 1.7-1.6V81c0-.9-.8-1.7-1.7-1.7zm-1.7 10.1h-7.5c-.9 0-1.6.8-1.6 1.8v7.4h-6.8v-7.4c0-.9-.8-1.8-1.7-1.8h-7.4v-6.8H76c.9 0 1.7-.7 1.7-1.6v-7.5h6.8V81c0 .9.7 1.6 1.6 1.6h7.5v6.8z"/></svg>