<?xml version="1.0" encoding="utf-8"?>
<!-- Generator: Adobe Illustrator 21.1.0, SVG Export Plug-In . SVG Version: 6.00 Build 0)  -->
<svg version="1.1" id="Capa_1" xmlns="http://www.w3.org/2000/svg" xmlns:xlink="http://www.w3.org/1999/xlink" x="0px" y="0px"
	 viewBox="0 0 490 490" style="enable-background:new 0 0 490 490;" xml:space="preserve">
<g>
	<g>
		<path d="M393.9,452.5c-1.9,0-3.7-0.7-5.1-1.9L288.9,366H68.1C31.7,366,2,336.1,2,299.5V104c0-36.7,29.7-66.5,66.1-66.5h353.8
			c36.5,0,66.1,29.8,66.1,66.5v195.5c0,36.7-29.7,66.5-66.1,66.5h-20.1v78.5c0,3.1-1.8,6-4.6,7.3C396.2,452.3,395,452.5,393.9,452.5
			z M68.1,53.5c-27.7,0-50.2,22.7-50.2,50.5v195.5c0,27.8,22.5,50.5,50.2,50.5h223.7c1.9,0,3.7,0.7,5.1,1.9l89,75.5V358
			c0-4.4,3.6-8,7.9-8h28c27.7,0,50.2-22.7,50.2-50.5V104c0-27.8-22.5-50.5-50.2-50.5H68.1z"/>
	</g>
	<g>
		<g>
			<path d="M84.8,145.5c-4.4,0-7.9-3.6-7.9-8s3.6-8,7.9-8h320.3c4.4,0,7.9,3.6,7.9,8s-3.6,8-7.9,8H84.8z"/>
		</g>
		<g>
			<path d="M84.8,209.5c-4.4,0-7.9-3.6-7.9-8s3.6-8,7.9-8h320.3c4.4,0,7.9,3.6,7.9,8s-3.6,8-7.9,8H84.8z"/>
		</g>
		<g>
			<path d="M84.8,273.5c-4.4,0-7.9-3.6-7.9-8s3.6-8,7.9-8h320.3c4.4,0,7.9,3.6,7.9,8s-3.6,8-7.9,8H84.8z"/>
		</g>
	</g>
</g>
</svg>
