<?xml version="1.0" encoding="utf-8"?>
<!-- Generator: Adobe Illustrator 21.1.0, SVG Export Plug-In . SVG Version: 6.00 Build 0)  -->
<svg version="1.1" id="Layer_1" xmlns="http://www.w3.org/2000/svg" xmlns:xlink="http://www.w3.org/1999/xlink" x="0px" y="0px"
	 viewBox="0 0 162.2 162.1" style="enable-background:new 0 0 162.2 162.1;" xml:space="preserve">
<style type="text/css">
	.st0{fill:#0077B7;}
	.st1{fill:#AAAAAA;}
</style>
<title>ico-claims</title>
<g>
	<path class="st0" d="M112.4,41.1l-27,26.2c-0.2,0.2-0.4,0.5-0.5,0.8l-2.5,9.7c-0.2,0.6,0,1.3,0.5,1.8c0.4,0.3,0.8,0.5,1.3,0.5
		c0.2,0,0.3,0,0.5-0.1l9.7-2.5c0.3-0.1,0.6-0.2,0.8-0.5l26.9-26.2l0,0l0,0l5.9-5.9c0.7-0.7,0.7-1.9,0-2.6l-7.2-7.2
		c-0.3-0.2-0.7-0.4-1.2-0.4s-1,0.2-1.3,0.5L112.4,41.1L112.4,41.1L112.4,41.1L112.4,41.1z M92.9,74.1l-6.1,1.6l1.6-6.1l25.3-24.5
		l4.5,4.5L92.9,74.1z M119.6,39.2l4.5,4.5l-3.3,3.3l-4.5-4.5L119.6,39.2z"/>
	<path class="st0" d="M111,58.5c-1,0-1.8,0.8-1.8,1.8v59.2H51.3V49.1h55.6c1,0,1.8-0.8,1.8-1.8s-0.8-1.8-1.8-1.8H49.4
		c-1,0-1.8,0.8-1.8,1.8v74.2c0,1,0.8,1.8,1.8,1.8h61.5c1,0,1.8-0.8,1.8-1.8V60.4C112.8,59.3,112,58.5,111,58.5L111,58.5z"/>
	<rect x="58.4" y="86.6" class="st0" width="43.8" height="3.8"/>
	<rect x="58.4" y="96.5" class="st0" width="43.8" height="3.8"/>
	<rect x="58.4" y="106.1" class="st0" width="43.8" height="3.8"/>
</g>
<path class="st1" d="M81.1,162.1C36.4,162.1,0,125.7,0,81S36.4-0.1,81.1-0.1s81.1,36.4,81.1,81.1S125.8,162.1,81.1,162.1z M81.1,3.9
	C38.6,3.9,4,38.5,4,81s34.6,77.1,77.1,77.1s77.1-34.6,77.1-77.1S123.6,3.9,81.1,3.9z"/>
</svg>
