<?xml version="1.0" encoding="iso-8859-1"?>
<!-- Generator: Adobe Illustrator 21.1.0, SVG Export Plug-In . SVG Version: 6.00 Build 0)  -->
<svg version="1.1" id="Capa_1" xmlns="http://www.w3.org/2000/svg" xmlns:xlink="http://www.w3.org/1999/xlink" x="0px" y="0px"
	 viewBox="-49 141 512 512" style="enable-background:new -49 141 512 512;" xml:space="preserve">
<g>
	<linearGradient id="SVGID_1_" gradientUnits="userSpaceOnUse" x1="18.8638" y1="501.7943" x2="60.7815" y2="501.7943">
		<stop  offset="0" style="stop-color:#3C5894"/>
		<stop  offset="1" style="stop-color:#4FBBC3"/>
	</linearGradient>
	<path style="fill:url(#SVGID_1_);" d="M60.782,501.794c0-11.554-9.405-20.959-20.959-20.959s-20.959,9.405-20.959,20.959
		s9.405,20.959,20.959,20.959S60.782,513.348,60.782,501.794z"/>
	<linearGradient id="SVGID_2_" gradientUnits="userSpaceOnUse" x1="123.6581" y1="229.3291" x2="165.5759" y2="229.3291">
		<stop  offset="0" style="stop-color:#3C5894"/>
		<stop  offset="1" style="stop-color:#4FBBC3"/>
	</linearGradient>
	<path style="fill:url(#SVGID_2_);" d="M165.576,229.329c0-11.554-9.405-20.959-20.959-20.959c-11.554,0-20.959,9.405-20.959,20.959
		s9.405,20.959,20.959,20.959C156.171,250.288,165.576,240.883,165.576,229.329z"/>
	<linearGradient id="SVGID_3_" gradientUnits="userSpaceOnUse" x1="291.3291" y1="370.2488" x2="459" y2="370.2488">
		<stop  offset="0" style="stop-color:#3C5894"/>
		<stop  offset="1" style="stop-color:#4FBBC3"/>
	</linearGradient>
	<path style="fill:url(#SVGID_3_);" d="M459,334.123c0-46.226-37.609-83.835-83.835-83.835s-83.835,37.609-83.835,83.835
		c0,31.237,35.999,87.291,58.516,119.319c-1.35,1.023-2.546,2.26-3.294,3.907c-2.272,4.984-0.307,10.817,4.37,13.457
		c-4.575,2.814-6.325,8.709-3.879,13.611c1.842,3.674,5.536,5.792,9.384,5.792c1.576,0,3.172-0.358,4.677-1.105l18.698-9.35
		l0.005-0.001l0.045-0.023c0.06-0.031,0.083-0.101,0.143-0.133c1.334-0.697,2.548-1.637,3.49-2.865
		C391.211,466.641,459,376.952,459,334.123z M375.165,271.247c34.672,0,62.877,28.204,62.877,62.877
		c0,26.68-39.84,86.998-62.877,118.692c-23.036-31.694-62.877-92.012-62.877-118.692
		C312.288,299.451,340.492,271.247,375.165,271.247z"/>
	<linearGradient id="SVGID_4_" gradientUnits="userSpaceOnUse" x1="354.2057" y1="334.1234" x2="396.1234" y2="334.1234">
		<stop  offset="0" style="stop-color:#3C5894"/>
		<stop  offset="1" style="stop-color:#4FBBC3"/>
	</linearGradient>
	<path style="fill:url(#SVGID_4_);" d="M396.123,334.123c0-11.554-9.405-20.959-20.959-20.959c-11.554,0-20.959,9.405-20.959,20.959
		s9.405,20.959,20.959,20.959C386.719,355.082,396.123,345.677,396.123,334.123z"/>
	<linearGradient id="SVGID_5_" gradientUnits="userSpaceOnUse" x1="-44.0128" y1="533.2326" x2="123.6581" y2="533.2326">
		<stop  offset="0" style="stop-color:#3C5894"/>
		<stop  offset="1" style="stop-color:#4FBBC3"/>
	</linearGradient>
	<path style="fill:url(#SVGID_5_);" d="M65.415,620.722c22.534-32.091,58.243-87.814,58.243-118.927
		c0-46.226-37.609-83.835-83.835-83.835s-83.835,37.609-83.835,83.835c0,42.829,67.789,132.518,75.515,142.608
		c0.558,0.728,1.36,1.151,2.07,1.7c0.427,0.329,0.745,0.737,1.213,0.995c1.538,0.856,3.229,1.408,5.038,1.408l0.005-0.001
		l0.005,0.001c0.24,0,0.472-0.152,0.713-0.169c1.374-0.1,2.731-0.33,3.94-0.93c0.008-0.004,0.017-0.003,0.024-0.006l18.748-9.374
		c5.178-2.589,7.276-8.883,4.687-14.061C67.306,622.684,66.433,621.6,65.415,620.722z M39.823,438.918
		c34.672,0,62.877,28.204,62.877,62.877c0,26.68-39.84,86.998-62.877,118.692c-23.036-31.694-62.877-92.012-62.877-118.692
		C-23.054,467.122,5.15,438.918,39.823,438.918z"/>
	<linearGradient id="SVGID_6_" gradientUnits="userSpaceOnUse" x1="279.7507" y1="504.5478" x2="333.8136" y2="504.5478">
		<stop  offset="0" style="stop-color:#3C5894"/>
		<stop  offset="1" style="stop-color:#4FBBC3"/>
	</linearGradient>
	<path style="fill:url(#SVGID_6_);" d="M318.643,486.894l-33.096,16.548c-5.178,2.589-7.276,8.883-4.687,14.061
		c1.842,3.674,5.536,5.792,9.384,5.792c1.576,0,3.172-0.358,4.677-1.105l33.096-16.548c5.178-2.589,7.276-8.883,4.687-14.061
		C330.115,486.413,323.811,484.335,318.643,486.894z"/>
	<linearGradient id="SVGID_7_" gradientUnits="userSpaceOnUse" x1="81.1838" y1="603.8354" x2="135.2468" y2="603.8354">
		<stop  offset="0" style="stop-color:#3C5894"/>
		<stop  offset="1" style="stop-color:#4FBBC3"/>
	</linearGradient>
	<path style="fill:url(#SVGID_7_);" d="M120.076,586.182L86.98,602.731c-5.178,2.589-7.276,8.883-4.687,14.061
		c1.842,3.674,5.536,5.792,9.384,5.792c1.576,0,3.172-0.358,4.677-1.105l33.096-16.548c5.178-2.589,7.276-8.883,4.687-14.061
		C131.538,585.691,125.244,583.624,120.076,586.182z"/>
	<linearGradient id="SVGID_8_" gradientUnits="userSpaceOnUse" x1="213.5583" y1="537.6385" x2="267.6213" y2="537.6385">
		<stop  offset="0" style="stop-color:#3C5894"/>
		<stop  offset="1" style="stop-color:#4FBBC3"/>
	</linearGradient>
	<path style="fill:url(#SVGID_8_);" d="M252.451,519.99l-33.096,16.548c-5.178,2.589-7.276,8.883-4.687,14.061
		c1.842,3.674,5.536,5.792,9.384,5.792c1.576,0,3.172-0.358,4.677-1.105l33.096-16.548c5.178-2.589,7.276-8.883,4.687-14.061
		C263.913,519.499,257.629,517.411,252.451,519.99z"/>
	<linearGradient id="SVGID_9_" gradientUnits="userSpaceOnUse" x1="147.3762" y1="570.737" x2="201.4289" y2="570.737">
		<stop  offset="0" style="stop-color:#3C5894"/>
		<stop  offset="1" style="stop-color:#4FBBC3"/>
	</linearGradient>
	<path style="fill:url(#SVGID_9_);" d="M186.258,553.086l-33.086,16.548c-5.178,2.589-7.276,8.883-4.687,14.061
		c1.842,3.674,5.536,5.792,9.384,5.792c1.576,0,3.172-0.358,4.677-1.105l33.086-16.548c5.178-2.589,7.276-8.883,4.687-14.061
		C197.72,552.595,191.416,550.518,186.258,553.086z"/>
	<linearGradient id="SVGID_10_" gradientUnits="userSpaceOnUse" x1="191.7014" y1="400.4687" x2="251.132" y2="400.4687">
		<stop  offset="0" style="stop-color:#3C5894"/>
		<stop  offset="1" style="stop-color:#4FBBC3"/>
	</linearGradient>
	<path style="fill:url(#SVGID_10_);" d="M192.644,387.39c-2.395,5.27-0.072,11.482,5.199,13.877l38.469,17.49
		c1.412,0.645,2.886,0.941,4.329,0.941c3.991,0,7.798-2.282,9.548-6.14c2.395-5.27,0.072-11.482-5.199-13.877l-38.469-17.49
		C201.22,379.766,195.019,382.141,192.644,387.39z"/>
	<linearGradient id="SVGID_11_" gradientUnits="userSpaceOnUse" x1="268.6495" y1="435.4501" x2="328.0903" y2="435.4501">
		<stop  offset="0" style="stop-color:#3C5894"/>
		<stop  offset="1" style="stop-color:#4FBBC3"/>
	</linearGradient>
	<path style="fill:url(#SVGID_11_);" d="M317.599,454.678c3.991,0,7.798-2.282,9.548-6.14c2.395-5.27,0.072-11.482-5.199-13.877
		l-38.479-17.49c-5.332-2.415-11.493-0.051-13.877,5.199c-2.395,5.27-0.072,11.482,5.199,13.877l38.479,17.49
		C314.683,454.381,316.156,454.678,317.599,454.678z"/>
	<linearGradient id="SVGID_12_" gradientUnits="userSpaceOnUse" x1="60.7815" y1="265.1014" x2="228.4525" y2="265.1014">
		<stop  offset="0" style="stop-color:#3C5894"/>
		<stop  offset="1" style="stop-color:#4FBBC3"/>
	</linearGradient>
	<path style="fill:url(#SVGID_12_);" d="M140.278,375.1l19.076,8.668c1.412,0.645,2.886,0.941,4.329,0.941
		c3.991,0,7.798-2.282,9.548-6.14c2.395-5.27,0.061-11.482-5.199-13.877l-7.238-3.289c19.851-27.098,67.658-96.064,67.658-132.074
		c0-46.226-37.609-83.835-83.835-83.835s-83.835,37.609-83.835,83.835c0,42.829,67.789,132.518,75.515,142.608
		c0.091,0.119,0.242,0.164,0.338,0.278c0.696,0.839,1.584,1.489,2.544,2.09c0.339,0.211,0.596,0.521,0.957,0.692
		C140.191,375.023,140.223,375.074,140.278,375.1z M144.617,166.452c34.672,0,62.877,28.204,62.877,62.877
		c0,26.68-39.84,86.998-62.877,118.692c-23.036-31.694-62.877-92.012-62.877-118.692C81.74,194.657,109.945,166.452,144.617,166.452
		z"/>
</g>
</svg>
