<svg id="Layer_2" data-name="Layer 2" xmlns="http://www.w3.org/2000/svg" viewBox="0 0 39.33 39.33"><defs><style>.cls-1{fill:#cb2026;}</style></defs><title>ico-error</title><path class="cls-1" d="M20,.38A19.66,19.66,0,1,0,39.63,20,19.66,19.66,0,0,0,20,.38ZM20,32.6a2.57,2.57,0,0,1-2.58-2.72A2.57,2.57,0,0,1,20,27.15a2.53,2.53,0,0,1,2.59,2.72A2.55,2.55,0,0,1,20,32.6Zm1-10.39c-.39,1.34-1.62,1.36-2,0-.47-1.57-2.15-7.51-2.15-11.38,0-5.1,6.38-5.12,6.38,0,0,3.89-1.78,10-2.19,11.38Zm0,0" transform="translate(-0.3 -0.38)"/></svg>