<?xml version="1.0" encoding="utf-8"?>
<!-- Generator: Adobe Illustrator 22.1.0, SVG Export Plug-In . SVG Version: 6.00 Build 0)  -->
<svg version="1.1" id="Layer_2_1_" xmlns="http://www.w3.org/2000/svg" xmlns:xlink="http://www.w3.org/1999/xlink" x="0px" y="0px"
	 width="39.3px" height="39.3px" viewBox="0 0 39.3 39.3" style="enable-background:new 0 0 39.3 39.3;" xml:space="preserve">
<style type="text/css">
	.st0{fill:#0077B7;}
</style>
<title>ico-close-black</title>
<g>
	<path class="st0" d="M33,6.2c-3.6-3.6-8.4-5.6-13.4-5.6c-5.1,0-9.8,2-13.4,5.6s-5.6,8.4-5.6,13.4c0,5.1,2,9.8,5.6,13.4
		c3.6,3.6,8.4,5.6,13.4,5.6c5.1,0,9.8-2,13.4-5.6s5.6-8.4,5.6-13.4C38.7,14.6,36.7,9.8,33,6.2L33,6.2z M31.6,31.6
		c-3.2,3.2-7.4,4.9-11.9,4.9S11,34.7,7.8,31.6C1.2,25,1.2,14.3,7.8,7.8c3.2-3.2,7.4-4.9,11.9-4.9s8.7,1.8,11.9,4.9
		C38,14.3,38,25,31.6,31.6L31.6,31.6z"/>
	<path class="st0" d="M20.7,8.9c0-0.6-0.5-1.1-1.1-1.1s-1.1,0.5-1.1,1.1l0.1,15.4c0,0.3,0.1,0.6,0.4,0.8s0.5,0.4,0.8,0.4
		c0.6,0,1.1-0.5,1.1-1.1L20.7,8.9z"/>
</g>
<circle class="st0" cx="19.8" cy="29.3" r="1.3"/>
</svg>
