<svg id="Layer_1" data-name="Layer 1" xmlns="http://www.w3.org/2000/svg" viewBox="0 0 64.1 59.26"><defs><style>.cls-1{fill:#224f9c;}.cls-2{fill:#707070;}</style></defs><title>ico-needs</title><path class="cls-1" d="M23.8,33.58v10.1a4,4,0,1,0,8.08,0V33.58a4,4,0,1,0-8.08,0Zm0,0" transform="translate(-8.32 -4.95)"/><path class="cls-1" d="M33.91,29.53V43.68a4,4,0,1,0,8.08,0V29.53a4,4,0,1,0-8.08,0Zm0,0" transform="translate(-8.32 -4.95)"/><path class="cls-1" d="M44,25.49V43.68a4,4,0,0,0,8.08,0V25.49a4,4,0,1,0-8.08,0Zm0,0" transform="translate(-8.32 -4.95)"/><path class="cls-2" d="M72.28,30a1.34,1.34,0,0,0-1.22-.77h-4a29.61,29.61,0,1,0-3.47,20.21,2.69,2.69,0,1,0-4.66-2.7A24.27,24.27,0,1,1,61.56,29.2h-4a1.35,1.35,0,0,0-1,2.2l6.74,8.08a1.35,1.35,0,0,0,2.06,0l6.74-8.08A1.34,1.34,0,0,0,72.28,30Zm0,0" transform="translate(-8.32 -4.95)"/></svg>