<svg id="Layer_1" data-name="Layer 1" xmlns="http://www.w3.org/2000/svg" viewBox="0 0 39.5 39.6"><defs><style>.cls-1{fill:#fff;}</style></defs><title>ico-add-white</title><path class="cls-1" d="M14.4,39.6a1.09,1.09,0,0,1-.9-.4,1.49,1.49,0,0,1-.4-.9V26.5H1.3a1.09,1.09,0,0,1-.9-.4,1.28,1.28,0,0,1-.4-1V14.4a1.32,1.32,0,0,1,1.3-1.3H13.1V1.3A1.32,1.32,0,0,1,14.4,0H25.1a1.09,1.09,0,0,1,.9.4,1.49,1.49,0,0,1,.4.9V13.1H38.2a1.09,1.09,0,0,1,.9.4,1.49,1.49,0,0,1,.4.9V25.1a1.32,1.32,0,0,1-1.3,1.3H26.4V38.2a1.32,1.32,0,0,1-1.3,1.3Zm0-15.8a1.09,1.09,0,0,1,.9.4,1.49,1.49,0,0,1,.4.9V36.9h8.1V25.1a1.32,1.32,0,0,1,1.3-1.3H36.9V15.7H25.1a1.09,1.09,0,0,1-.9-.4,1.49,1.49,0,0,1-.4-.9V2.6H15.7V14.4a1.32,1.32,0,0,1-1.3,1.3H2.6v8.1Z" transform="translate(0 0)"/></svg>