<?xml version="1.0" encoding="utf-8"?>
<!-- Generator: Adobe Illustrator 23.0.1, SVG Export Plug-In . SVG Version: 6.00 Build 0)  -->
<svg version="1.1" id="Capa_1" xmlns="http://www.w3.org/2000/svg" xmlns:xlink="http://www.w3.org/1999/xlink" x="0px" y="0px"
	 viewBox="0 0 512 512" style="enable-background:new 0 0 512 512;" xml:space="preserve">
<style type="text/css">
	.st0{fill:url(#SVGID_1_);}
	.st1{fill:url(#SVGID_2_);}
</style>
<g>
	<g>
		<linearGradient id="SVGID_1_" gradientUnits="userSpaceOnUse" x1="0" y1="257.187" x2="511.5589" y2="257.187">
			<stop  offset="0" style="stop-color:#3C5894"/>
			<stop  offset="1" style="stop-color:#4FBBC3"/>
		</linearGradient>
		<path class="st0" d="M471.7,82.5c-26.9-27.5-63-42.7-101.5-42.7c-37.9,0-73.5,14.8-100.3,41.6L256,95.1l-13.8-13.8
			c-26.8-26.8-62.4-41.6-100.3-41.6c-37.9,0-73.5,14.8-100.3,41.6C14.8,108.1,0,143.7,0,181.6s14.8,73.5,41.6,100.3l177.3,177.3
			c10.2,10.2,23.7,15.4,37.2,15.4c13.5,0,26.9-5.1,37.1-15.4l176.2-176.2C524.7,227.8,525.7,137.8,471.7,82.5z M450.8,264.5
			L274.6,440.7c-10.2,10.2-26.9,10.2-37.1,0L60.1,263.4c-21.8-21.8-33.9-50.9-33.9-81.7s12-59.9,33.9-81.7C82,78,111,66,141.9,66
			c30.9,0,59.9,12,81.7,33.9l13.9,13.9L216.3,135c-5.1,5.1-5.1,13.4,0,18.6c2.6,2.6,5.9,3.8,9.3,3.8c3.4,0,6.7-1.3,9.3-3.9
			l53.6-53.7C310.3,78,339.3,66,370.2,66c31.4,0,60.7,12.4,82.7,34.8C496.9,145.9,496,219.3,450.8,264.5z"/>
	</g>
</g>
<g>
	<g>
		<linearGradient id="SVGID_2_" gradientUnits="userSpaceOnUse" x1="379.2596" y1="138.8763" x2="465.8744" y2="138.8763">
			<stop  offset="0" style="stop-color:#3C5894"/>
			<stop  offset="1" style="stop-color:#4FBBC3"/>
		</linearGradient>
		<path class="st1" d="M465.8,175.4c-1.4-23.4-11.4-45.4-27.9-61.9c-11.7-11.7-26.2-20.2-42-24.6c-7-1.9-14.2,2.1-16.2,9.1
			c-1.9,7,2.1,14.2,9.1,16.2c11.4,3.2,22,9.4,30.5,17.9c12,12,19.2,28,20.2,44.9c0.4,7,6.2,12.3,13.1,12.3c0.3,0,0.5,0,0.8,0
			C460.8,188.9,466.3,182.6,465.8,175.4z"/>
	</g>
</g>
</svg>
