<svg id="Layer_1" data-name="Layer 1" xmlns="http://www.w3.org/2000/svg" viewBox="0 0 16.15 14.31"><title>ico-home-black</title><path d="M4.06,16.52a.34.34,0,0,0,.34.36H8.47V13.54A.48.48,0,0,1,9,13h1.69a.52.52,0,0,1,.59.55v3.33h4a.42.42,0,0,0,.43-.45V10.61L10,5.62l-6,5Zm0,0" transform="translate(-1.86 -2.58)"/><path d="M1.86,9.81s.5.93,1.61,0l6.59-5.58,6.19,5.54c1.28.92,1.76,0,1.76,0L10.07,2.58Zm0,0" transform="translate(-1.86 -2.58)"/><path d="M16.1,4.21H14.51V6.14L16.1,7.49Zm0,0" transform="translate(-1.86 -2.58)"/></svg>