<svg id="Layer_1" data-name="Layer 1" xmlns="http://www.w3.org/2000/svg" viewBox="0 0 16 12.24"><defs><style>.cls-1{fill:#224f9c;}</style></defs><title>ico-claims-blue</title><path class="cls-1" d="M7.69,11.61H9.11V13a.19.19,0,0,0,.2.2h1.21a.19.19,0,0,0,.2-.2V11.61h1.41a.19.19,0,0,0,.2-.2h0V10.2a.19.19,0,0,0-.2-.2H10.72V8.59a.19.19,0,0,0-.2-.2H9.31a.19.19,0,0,0-.2.2V10H7.69a.19.19,0,0,0-.2.2v1.21a.19.19,0,0,0,.2.2Z" transform="translate(-1.91 -3.79)"/><path class="cls-1" d="M17.52,6.16a1.28,1.28,0,0,0-.94-.39H13V5.13a1.34,1.34,0,0,0-1.33-1.33H8.2A1.34,1.34,0,0,0,6.87,5.13v.64H3.25A1.34,1.34,0,0,0,1.91,7.1v7.6A1.34,1.34,0,0,0,3.25,16H16.58a1.34,1.34,0,0,0,1.33-1.33V7.1A1.28,1.28,0,0,0,17.52,6.16Zm-9.59-1a.27.27,0,0,1,.27-.27h3.42a.27.27,0,0,1,.27.27v.64h-4ZM4.63,15H3.25A.27.27,0,0,1,3,14.7V7.1a.27.27,0,0,1,.27-.27H4.63Zm9.62,0H5.58V6.83h8.67Zm2.6-.27a.27.27,0,0,1-.27.27H15.19V6.83h1.39a.27.27,0,0,1,.27.27Z" transform="translate(-1.91 -3.79)"/></svg>