<?xml version="1.0" encoding="utf-8"?>
<!-- Generator: Adobe Illustrator 21.1.0, SVG Export Plug-In . SVG Version: 6.00 Build 0)  -->
<svg version="1.1" id="Layer_1" xmlns="http://www.w3.org/2000/svg" xmlns:xlink="http://www.w3.org/1999/xlink" x="0px" y="0px"
	 viewBox="0 0 426.7 426.7" style="enable-background:new 0 0 426.7 426.7;" xml:space="preserve">
<style type="text/css">
	.st0{fill:#00B551;}
</style>
<title>ico-tick</title>
<g>
	<path class="st0" d="M213.3,29.6c49.1,0,95.2,19.1,129.9,53.8c34.7,34.7,53.8,80.8,53.8,129.9c0,49.1-19.1,95.2-53.8,129.9
		S262.4,397,213.3,397s-95.2-19.1-129.9-53.8s-53.8-80.8-53.8-129.9s19.1-95.2,53.8-129.9S164.2,29.6,213.3,29.6 M213.3,0
		C95.5,0,0,95.5,0,213.3s95.5,213.3,213.3,213.3s213.3-95.5,213.3-213.3S331.2,0,213.3,0L213.3,0z"/>
</g>
<polygon class="st0" points="83.1,229 111.6,200.5 174.2,263.2 315.1,122.3 343.6,150.8 174.2,320.1 "/>
</svg>
