<?xml version="1.0" encoding="iso-8859-1"?>
<!-- Generator: Adobe Illustrator 21.1.0, SVG Export Plug-In . SVG Version: 6.00 Build 0)  -->
<svg version="1.1" id="Capa_1" xmlns="http://www.w3.org/2000/svg" xmlns:xlink="http://www.w3.org/1999/xlink" x="0px" y="0px"
	 viewBox="-49 141 512 512" style="enable-background:new -49 141 512 512;" xml:space="preserve">
<linearGradient id="SVGID_1_" gradientUnits="userSpaceOnUse" x1="246.5446" y1="562.4962" x2="133.598" y2="109.6637">
	<stop  offset="0" style="stop-color:#3C5894"/>
	<stop  offset="1" style="stop-color:#4FBBC3"/>
</linearGradient>
<path style="fill:url(#SVGID_1_);" d="M407.794,388.731v-15.21c0-41.966-31.901-76.134-71.115-76.134
	c-38.084,0-69.968,33.131-71.115,73.859h0.485l-0.485,0.084v164.877c0,52.708-39.406,95.511-87.847,95.511
	S89.87,588.856,89.87,536.206v-14.281c12.131,0,25.099-8.793,25.099-33.466v-21.042C168.665,453.688,207,407.58,207,355.307v-17.444
	h-16.733l-0.351-108.889c-0.121-20.156-14.585-37.366-34.419-40.954c-4.279-13.107-18.373-20.264-31.48-15.985
	c-13.107,4.279-20.264,18.373-15.985,31.48c4.279,13.107,18.373,20.264,31.48,15.985c7.018-2.291,12.663-7.571,15.416-14.421
	c10.719,3.049,18.143,12.801,18.23,23.945l0.376,108.839h-16.733v17.687c-0.668,29.102-20.177,54.391-48.157,62.422
	c-14.971,4.749-31.045,4.749-46.015,0c-27.947-8.058-47.413-33.344-48.057-62.422v-17.687h-25.099V229.1
	c0.048-11.309,7.653-21.189,18.573-24.129c5.092,12.962,19.728,19.342,32.691,14.25c12.962-5.092,19.342-19.728,14.25-32.691
	s-19.728-19.342-32.691-14.25c-7.024,2.759-12.443,8.519-14.768,15.698c-20.052,3.426-34.732,20.779-34.788,41.121v108.763h-16.733
	v17.402c0,52.332,38.36,98.456,92.031,112.152v21.042c0,24.673,12.968,33.466,25.099,33.466v14.281
	c0,61.911,46.911,112.244,104.58,112.244s104.58-50.391,104.58-112.244V371.73l0,0c0.837-31.751,25.25-57.586,54.382-57.586
	c29.985,0,54.382,26.639,54.382,59.402v15.185c-32.013,4.621-54.218,34.318-49.598,66.331s34.318,54.218,66.331,49.598
	s54.218-34.318,49.598-66.331C453.682,412.629,433.494,392.44,407.794,388.731z M131.702,204c-4.621,0-8.366-3.746-8.366-8.366
	c0-4.621,3.746-8.366,8.366-8.366c4.621,0,8.366,3.746,8.366,8.366C140.068,200.255,136.323,204,131.702,204z M31.305,187.268
	c4.621,0,8.366,3.746,8.366,8.366c0,4.621-3.746,8.366-8.366,8.366s-8.366-3.746-8.366-8.366
	C22.939,191.013,26.684,187.268,31.305,187.268z M-27.26,355.265v-0.669h25.099v0.954c0.627,36.364,24.82,68.098,59.72,78.335
	c18.288,5.79,37.918,5.79,56.206,0c34.916-10.223,59.13-41.959,59.77-78.335v-0.954h16.733v0.669
	c0,46.542-35.875,87.496-85.337,97.402c-11.615,2.326-23.511,2.91-35.298,1.732c-3.88-0.376-7.737-0.96-11.554-1.749
	C8.615,442.761-27.26,401.808-27.26,355.265z M64.771,488.459v-17.754c0.669,0.084,1.355,0.117,2.033,0.184
	c0.837,0.092,1.673,0.159,2.51,0.234c3.957,0.351,7.948,0.586,11.972,0.594h0.418c4.016,0,7.998-0.243,11.931-0.594
	c0.837-0.075,1.723-0.142,2.585-0.234c0.661-0.075,1.347-0.1,2.008-0.184v17.754c0,5.02-0.837,16.733-8.366,16.733H73.137
	C65.607,505.191,64.771,493.478,64.771,488.459z M399.427,488.459c-23.103,0-41.832-18.729-41.832-41.832
	s18.729-41.832,41.832-41.832s41.832,18.729,41.832,41.832C441.232,469.718,422.519,488.431,399.427,488.459z"/>
<path style="fill:#3C5894;" d="M399.427,421.527c-13.862,0-25.099,11.237-25.099,25.099c0,13.862,11.237,25.099,25.099,25.099
	c13.862,0,25.099-11.237,25.099-25.099C424.527,432.765,413.289,421.527,399.427,421.527z M399.427,454.993
	c-4.621,0-8.366-3.746-8.366-8.366s3.746-8.366,8.366-8.366s8.366,3.746,8.366,8.366S404.048,454.993,399.427,454.993z"/>
</svg>
