<?xml version="1.0" encoding="utf-8"?>
<!-- Generator: Adobe Illustrator 21.1.0, SVG Export Plug-In . SVG Version: 6.00 Build 0)  -->
<svg version="1.1" id="Layer_1" xmlns="http://www.w3.org/2000/svg" xmlns:xlink="http://www.w3.org/1999/xlink" x="0px" y="0px"
	 viewBox="0 0 38.9 37.8" style="enable-background:new 0 0 38.9 37.8;" xml:space="preserve">
<style type="text/css">
	.st0{fill:#666766;}
</style>
<title>ico-medical</title>
<g>
	<path class="st0" d="M0,28.6C0,28.7,0,28.7,0,28.6c0,0.1,0,0.1,0,0.1c0,0,0,0,0,0.1c0,0,0,0,0,0.1l3.2,6.8c0,0,0,0,0,0.1
		c0,0,0,0,0,0c0,0,0,0,0,0c0,0,0,0,0,0c0,0,0,0,0,0c0,0,0,0,0,0c0,0,0,0,0,0c0,0,0,0,0,0c0,0,0,0,0,0c0,0,0,0,0,0c0,0,0,0,0.1,0
		c0,0,0,0,0,0c0,0,0,0,0.1,0c0,0,0,0,0,0c0,0,0,0,0.1,0c0,0,0,0,0,0c0,0,0.1,0,0.1,0l0,0l0,0l0,0l0,0c0,0,0.1,0,0.1,0c0,0,0,0,0,0
		c0,0,0,0,0.1,0c0,0,0,0,0,0c0,0,0,0,0.1,0c0,0,0,0,0,0h0c0,0,0,0,0,0c0,0,0,0,0.1,0l4.5-2.8c0.7-0.5,1.6-0.6,2.4-0.3l8.8,2.6
		c1.4,0.4,3,0.3,4.2-0.4l13.7-7.4c1-0.5,1.4-1.6,0.9-2.6c-0.4-1-1.4-1.5-2.5-1.2c0,0,0,0,0,0l-10.7,3.6c-0.4,0.1-0.6,0.5-0.5,0.9
		c0.1,0.4,0.5,0.6,0.9,0.5l10.6-3.5c0.5-0.1,0.7,0.3,0.8,0.4c0,0.1,0.2,0.6-0.3,0.8l-13.7,7.4c-1,0.5-2.1,0.6-3.2,0.3l-8.8-2.6
		c-1.2-0.4-2.5-0.2-3.5,0.5l-2.1-5.1l3.9-1.9c0.4-0.1,3.3-1,5.6,0c0,0,0,0,0.1,0l6.5,2.4c0.4,0.2,0.5,0.5,0.4,0.8
		c0,0.1-0.2,0.5-0.7,0.6c-0.3,0-1.8-0.1-3.2-0.2c-2.8-0.2-2.8-0.2-2.8-0.2c-0.4,0-0.7,0.3-0.7,0.7c0,0.4,0.3,0.7,0.7,0.7
		c0.1,0,1.5,0.1,2.7,0.2c3,0.2,3.3,0.2,3.3,0.2c0,0,0,0,0,0c1,0,1.8-0.8,2-1.8c0.2-1-0.3-2-1.2-2.4c0,0,0,0-0.1,0L16,23.6
		c-3-1.3-6.6-0.1-6.7,0c0,0-0.1,0-0.1,0L0.4,28c0,0,0,0-0.1,0c0,0,0,0-0.1,0c0,0,0,0,0,0c0,0,0,0-0.1,0s0,0,0,0.1c0,0,0,0,0,0.1
		c0,0,0,0,0,0.1c0,0,0,0,0,0.1c0,0,0,0,0,0.1s0,0,0,0.1C0,28.5,0,28.5,0,28.6C0,28.6,0,28.6,0,28.6z M4.6,27.5l2.2,5.2l-2.6,1.6
		l-2.5-5.4L4.6,27.5z"/>
</g>
<path class="st0" d="M24.7,12.3h2c0.8,0,1.5,0.7,1.5,1.5c0,0.8-0.7,1.5-1.5,1.5h-3.6c-0.4,0-0.7,0.3-0.7,0.7s0.3,0.7,0.7,0.7H25v1.4
	c0,0.4,0.3,0.7,0.7,0.7s0.7-0.3,0.7-0.7v-1.4h0.3c1.6,0,2.9-1.3,2.9-2.9s-1.3-2.9-2.9-2.9h-2c-0.8,0-1.5-0.7-1.5-1.5
	s0.7-1.5,1.5-1.5h3.6c0.4,0,0.7-0.3,0.7-0.7s-0.3-0.7-0.7-0.7h-1.8V5.1c0-0.4-0.3-0.7-0.7-0.7S25,4.7,25,5.1v1.4h-0.3
	c-1.6,0-2.9,1.3-2.9,2.9C21.8,11,23.1,12.3,24.7,12.3z"/>
<g>
	<path class="st0" d="M37.3,11.6C37.3,5.2,32.1,0,25.7,0S14.1,5.2,14.1,11.6s5.2,11.6,11.6,11.6S37.3,18,37.3,11.6z M35.9,11.6
		c0,5.6-4.6,10.2-10.2,10.2s-10.2-4.6-10.2-10.2S20.1,1.4,25.7,1.4S35.9,6,35.9,11.6z"/>
</g>
</svg>
