<?xml version="1.0" encoding="utf-8"?>
<!-- Generator: Adobe Illustrator 21.1.0, SVG Export Plug-In . SVG Version: 6.00 Build 0)  -->
<svg version="1.1" id="Capa_1" xmlns="http://www.w3.org/2000/svg" xmlns:xlink="http://www.w3.org/1999/xlink" x="0px" y="0px"
	 viewBox="0 0 662.8 481.5" style="enable-background:new 0 0 662.8 481.5;" xml:space="preserve">
<style type="text/css">
	.st0{fill:url(#SVGID_1_);}
	.st1{fill:url(#SVGID_2_);}
	.st2{fill:url(#SVGID_3_);}
	.st3{fill:url(#SVGID_4_);}
	.st4{fill:url(#SVGID_5_);}
	.st5{fill:url(#SVGID_6_);}
</style>
<g>
	<g>
		
			<linearGradient id="SVGID_1_" gradientUnits="userSpaceOnUse" x1="330.3032" y1="412.8071" x2="396.4661" y2="127.1769" gradientTransform="matrix(0.9759 0.2184 -0.2184 0.9759 59.7347 -66.6541)">
			<stop  offset="0" style="stop-color:#3C5894"/>
			<stop  offset="1" style="stop-color:#4FBBC3"/>
		</linearGradient>
		<path class="st0" d="M653.7,9.6c-2.9-2.6-6.9-3.5-10.6-2.3L425.3,78c-5.7,1.8-8.7,7.9-6.9,13.6c1.8,5.7,7.9,8.7,13.6,6.9
			l156.3-50.7L271.4,257l-119.1-67.7l279.3-90.7c5.7-1.8,8.7-7.9,6.9-13.6c-1.8-5.7-7.9-8.7-13.6-6.9l-302.5,98.3
			c-4.1,1.3-6.9,4.9-7.4,9.1c-0.4,4.2,1.7,8.3,5.4,10.4l142.3,80.9l39.9,137.7c0,0.1,0.1,0.3,0.1,0.4c0.7,2.1,2,4,4,5.4
			c1.2,0.8,2.5,1.4,3.9,1.7c2.7,0.6,5.6,0.2,8-1.3l94.4-58.4l135.8,77.2c0.9,0.5,1.9,0.9,3,1.1c2.2,0.5,4.6,0.3,6.7-0.7
			c3.1-1.4,5.4-4.2,6.1-7.5L657,19.9C657.8,16.1,656.6,12.2,653.7,9.6z M329.2,298.5c-1.6,1.5-2.7,3.4-3.2,5.6l-14.4,64.2l-27.3-94
			l250.9-165.7L329.2,298.5z M329.1,388.9l14.8-66l47.9,27.2L329.1,388.9z M546.8,413.6L354.6,304.3l273-251.7L546.8,413.6z"/>
	</g>
</g>
<g>
	<g>
		
			<linearGradient id="SVGID_2_" gradientUnits="userSpaceOnUse" x1="169.7961" y1="375.6275" x2="235.959" y2="89.9972" gradientTransform="matrix(0.9759 0.2184 -0.2184 0.9759 59.7347 -66.6541)">
			<stop  offset="0" style="stop-color:#3C5894"/>
			<stop  offset="1" style="stop-color:#4FBBC3"/>
		</linearGradient>
		<path class="st1" d="M212.7,292.6c-3.2-5-9.8-6.5-14.8-3.3L77.9,365.4c-5,3.2-6.5,9.8-3.3,14.8c1.6,2.5,4.1,4.1,6.7,4.7
			c2.7,0.6,5.6,0.2,8.1-1.4l119.9-76.1C214.4,304.3,215.9,297.6,212.7,292.6z"/>
	</g>
</g>
<g>
	<g>
		
			<linearGradient id="SVGID_3_" gradientUnits="userSpaceOnUse" x1="99.8323" y1="359.4212" x2="165.9952" y2="73.7909" gradientTransform="matrix(0.9759 0.2184 -0.2184 0.9759 59.7347 -66.6541)">
			<stop  offset="0" style="stop-color:#3C5894"/>
			<stop  offset="1" style="stop-color:#4FBBC3"/>
		</linearGradient>
		<path class="st2" d="M53,394c-3.2-5-9.8-6.5-14.8-3.3L8.6,409.4c-5,3.2-6.5,9.8-3.3,14.8c1.6,2.5,4,4.1,6.7,4.7s5.6,0.2,8.1-1.4
			l29.6-18.7C54.6,405.6,56.1,399,53,394z"/>
	</g>
</g>
<g>
	<g>
		
			<linearGradient id="SVGID_4_" gradientUnits="userSpaceOnUse" x1="218.8976" y1="387.0013" x2="285.0606" y2="101.3711" gradientTransform="matrix(0.9759 0.2184 -0.2184 0.9759 59.7347 -66.6541)">
			<stop  offset="0" style="stop-color:#3C5894"/>
			<stop  offset="1" style="stop-color:#4FBBC3"/>
		</linearGradient>
		<path class="st3" d="M155.4,441.6c-1.5-2.4-4-4.1-6.7-4.7c-2.8-0.6-5.7-0.1-8.1,1.4c-2.4,1.5-4.1,4-4.7,6.7
			c-0.6,2.8-0.1,5.7,1.4,8.1c1.5,2.4,4,4.1,6.7,4.7c2.8,0.6,5.7,0.1,8.1-1.4c2.4-1.5,4.1-4,4.7-6.7
			C157.4,446.9,156.9,444,155.4,441.6z"/>
	</g>
</g>
<g>
	<g>
		
			<linearGradient id="SVGID_5_" gradientUnits="userSpaceOnUse" x1="257.8719" y1="396.0292" x2="324.0349" y2="110.399" gradientTransform="matrix(0.9759 0.2184 -0.2184 0.9759 59.7347 -66.6541)">
			<stop  offset="0" style="stop-color:#3C5894"/>
			<stop  offset="1" style="stop-color:#4FBBC3"/>
		</linearGradient>
		<path class="st4" d="M251,381c-3.2-5-9.8-6.5-14.8-3.3l-63.5,40.3c-5,3.2-6.5,9.8-3.3,14.8c1.6,2.5,4,4.1,6.7,4.7
			c2.7,0.6,5.6,0.2,8.1-1.4l63.5-40.3C252.7,392.6,254.2,386,251,381z"/>
	</g>
</g>
<g>
	<g>
		
			<linearGradient id="SVGID_6_" gradientUnits="userSpaceOnUse" x1="431.1732" y1="436.1725" x2="497.3362" y2="150.5422" gradientTransform="matrix(0.9759 0.2184 -0.2184 0.9759 59.7347 -66.6541)">
			<stop  offset="0" style="stop-color:#3C5894"/>
			<stop  offset="1" style="stop-color:#4FBBC3"/>
		</linearGradient>
		<path class="st5" d="M431,417.1c-3.2-5-9.8-6.5-14.8-3.3l-63.7,40.4c-5,3.2-6.5,9.8-3.3,14.8c1.6,2.5,4,4.1,6.7,4.7
			c2.7,0.6,5.6,0.2,8.1-1.4l63.7-40.4C432.7,428.7,434.2,422.1,431,417.1z"/>
	</g>
</g>
</svg>
