<?xml version="1.0" encoding="utf-8"?>
<!-- Generator: Adobe Illustrator 21.1.0, SVG Export Plug-In . SVG Version: 6.00 Build 0)  -->
<svg version="1.1" id="Capa_1" xmlns="http://www.w3.org/2000/svg" xmlns:xlink="http://www.w3.org/1999/xlink" x="0px" y="0px"
	 viewBox="0 0 512 512" style="enable-background:new 0 0 512 512;" xml:space="preserve">
<g>
	<g>
		<g>
			<path d="M53.3,84.5c-5.4,0-9.8-4.4-9.8-9.8s4.4-9.8,9.8-9.8s9.8,4.4,9.8,9.8S58.7,84.5,53.3,84.5z"/>
			<path d="M96,84.5c-5.4,0-9.8-4.4-9.8-9.8s4.4-9.8,9.8-9.8s9.8,4.4,9.8,9.8S101.4,84.5,96,84.5z"/>
			<path d="M138.7,84.5c-5.4,0-9.8-4.4-9.8-9.8s4.4-9.8,9.8-9.8s9.8,4.4,9.8,9.8S144.1,84.5,138.7,84.5z"/>
			<path d="M92.3,213.3c-5.9,0-10.7,4.8-10.7,10.7s4.8,10.7,10.7,10.7H352c5.9,0,10.7-4.8,10.7-10.7s-4.8-10.7-10.7-10.7"/>
			<path d="M92.3,233.8c-5.4,0-9.8-4.4-9.8-9.8s4.4-9.8,9.8-9.8H352c5.4,0,9.8,4.4,9.8,9.8s-4.4,9.8-9.8,9.8H92.3z"/>
			<path d="M92.3,361.8c-5.4,0-9.8-4.4-9.8-9.8s4.4-9.8,9.8-9.8h153c5.4,0,9.8,4.4,9.8,9.8s-4.4,9.8-9.8,9.8H92.3z"/>
			<path d="M42.7,461.8c-23.1,0-41.8-18.8-41.8-41.8V64c0-23.1,18.8-41.8,41.8-41.8h384c23.1,0,41.8,18.8,41.8,41.8v86.4l0.9,0
				c0.3,0,0.6-0.1,0.9-0.1c0.3,0,0.6-0.1,0.9-0.1c22,0,40,17.9,40,40c0,10.5-4.3,20.8-11.7,28.3l-0.2,0.2v0l-30.7,30.7V420
				c0,23.1-18.8,41.8-41.8,41.8H42.7z M20.5,420c0,12.2,10,22.2,22.2,22.2h384c12.2,0,22.2-10,22.2-22.2V269l-79.3,79.3
				c-1.4,1.4-3.1,2.3-5,2.7l-53.3,10.7c-0.6,0.1-1.3,0.2-1.9,0.2c-2.6,0-5.1-1-6.9-2.9c-2.3-2.3-3.3-5.6-2.7-8.9l10.4-52.3H92.3
				c-5.4,0-9.8-4.4-9.8-9.8s4.4-9.8,9.8-9.8h234.3l116.3-116.3c1.6-1.6,3.4-3.1,5.6-4.6l0.4-0.3v-29.9H20.5V420z M329.1,303.5
				l-7.2,36l36-7.2l97.6-97.6l-28.8-28.8L329.1,303.5z M471.2,169.8c-5.4,0-10.6,2.2-14.4,5.9L440.5,192l28.8,28.8l16.2-16.2
				c3.8-3.8,6-9,6-14.4C491.5,178.9,482.4,169.8,471.2,169.8z M42.7,41.8c-12.2,0-22.2,10-22.2,22.2v43.5h428.4V64
				c0-12.2-10-22.2-22.2-22.2H42.7z"/>
		</g>
	</g>
</g>
</svg>
