<svg id="Layer_1" data-name="Layer 1" xmlns="http://www.w3.org/2000/svg" viewBox="0 0 76.04 76.04"><defs><style>.cls-1{fill:#1558a6;}</style></defs><title>ico-trash</title><path class="cls-1" d="M45.35,83.38a38,38,0,1,1,38-38A38.06,38.06,0,0,1,45.35,83.38Zm0-74a36,36,0,1,0,36,36A36.06,36.06,0,0,0,45.35,9.33Z" transform="translate(-7.33 -7.33)"/><path d="M45.36,45.36" transform="translate(-7.33 -7.33)"/><path class="cls-1" d="M32.79,60A4.19,4.19,0,0,0,37,64.2H53.74A4.19,4.19,0,0,0,57.92,60V34.88H32.79ZM60,28.6H52.68l-2.08-2.1H40.13L38,28.6H30.69v4.18H60Zm0,0" transform="translate(-7.33 -7.33)"/></svg>