<?xml version="1.0" encoding="utf-8"?>
<!-- Generator: Adobe Illustrator 21.1.0, SVG Export Plug-In . SVG Version: 6.00 Build 0)  -->
<svg version="1.1" id="Layer_1" xmlns="http://www.w3.org/2000/svg" xmlns:xlink="http://www.w3.org/1999/xlink" x="0px" y="0px"
	 viewBox="0 0 100 100" style="enable-background:new 0 0 100 100;" xml:space="preserve">
<style type="text/css">
	.st0{fill:#444444;}
</style>
<g>
	<path class="st0" d="M34.8,23.5"/>
	<path class="st0" d="M49.7,52.7c-5.5-0.1-9.9-2-13.2-5.7c-7.3-8.2-6.1-22.3-6-23.9c0.5-10.2,5.3-15,9.2-17.2
		c3.9-2.2,8-2.6,10.1-2.6h0.3c3.8,0.1,7.2,1,10.1,2.7c3.9,2.2,8.6,7,9.1,17.1c0.2,1.6,1.3,15.8-6,24c-3.3,3.7-7.7,5.6-13.2,5.7H49.7
		z M33.8,23.4c-0.1,1.4-1.1,14.4,5.2,21.4c2.7,3,6.2,4.5,10.9,4.6h0.2c4.7,0,8.2-1.5,10.9-4.6c6.7-7.5,5.1-21.3,5.1-21.5l0-0.1
		C65.4,9.1,55.8,6.8,50.1,6.6l-0.3,0c-4.6,0-15.3,1.6-16,16.6C33.8,23.3,33.8,23.4,33.8,23.4z"/>
	<path class="st0" d="M90.6,78.1"/>
	<path class="st0" d="M50,96.7c-23.8,0-37.9-9.2-38-9.3c-0.3-0.2-0.5-0.5-0.6-0.8c-0.8-2.1-1-6.4-0.9-8.6c0-0.2,0-0.4,0-0.6
		c0.1-4,0.4-12.3,8.3-15l0.1,0c9.1-2.3,16.7-7.6,16.8-7.6c0.3-0.2,0.6-0.3,0.9-0.3c0.5,0,1.1,0.3,1.4,0.7c0.3,0.4,0.4,0.8,0.3,1.2
		c-0.1,0.4-0.3,0.8-0.7,1.1l-0.1,0c-2,1.3-9.1,5.8-17.6,8c-5.3,1.9-5.9,7.2-6,12c0,0.1,0,0.2,0,0.2c0,0.1,0,0.2,0,0.3
		c0,1.8,0.1,4.6,0.4,6.3l0.1,0.4l0.4,0.2c3.4,1.9,16.1,8.3,35.4,8.3c19.3,0,31.9-6.3,35.3-8.2l0.4-0.2l0.1-0.4
		c0.3-1.6,0.5-4.4,0.4-6.3l0-0.1c0-0.1,0-0.2,0-0.4c-0.1-4.9-0.7-10.2-5.9-12c-9.7-2.5-17.5-7.9-17.8-8.1c-0.8-0.5-0.9-1.6-0.4-2.3
		c0.3-0.4,0.8-0.7,1.4-0.7c0.3,0,0.7,0.1,1,0.3c0,0,7.6,5.3,16.7,7.6l0.1,0c7.9,2.7,8.2,11,8.3,15c0,0.1,0,0.2,0,0.3
		c0,0.1,0,0.1,0,0.2c0,2.3-0.1,6.5-0.9,8.6c-0.1,0.3-0.3,0.6-0.6,0.8C86.6,88.4,72.8,96.7,50,96.7z"/>
</g>
<rect x="31.6" y="74.8" transform="matrix(-1.836970e-16 1 -1 -1.836970e-16 126.3028 26.2808)" class="st0" width="36.8" height="2.9"/>
<path class="st0" d="M35.2,56.9l1,5.6c0.1,0.4,0,0.8-0.4,1l-14,4.5c-0.4,0.2-0.9,0-1.1-0.4L19.2,64L17,65c-0.4,0.2-0.6,0.7-0.4,1.1
	l2.6,5.8c0.2,0.4,0.7,0.6,1.1,0.4l19.4-7c0.4-0.2,0.6-0.7,0.4-1.1l-1.9-8.5L35.2,56.9z"/>
<polygon class="st0" points="39.6,65.2 50,57.9 60.4,65.2 61.6,62.2 50,54.2 38.5,62 "/>
<path class="st0" d="M72.2,77.1H61.7c-0.4,0-0.8-0.4-0.8-0.8v-1.4c0-0.4,0.4-0.8,0.8-0.8h10.5c0.4,0,0.8,0.4,0.8,0.8v1.4
	C73,76.7,72.6,77.1,72.2,77.1z"/>
<path class="st0" d="M64.9,56.9l-1,5.6c-0.1,0.4,0,0.8,0.4,1l14,4.5c0.4,0.2,0.9,0,1.1-0.4l1.6-3.6l2.2,1c0.4,0.2,0.6,0.7,0.4,1.1
	l-2.6,5.8c-0.2,0.4-0.7,0.6-1.1,0.4l-19.4-7C60,65,59.9,64.6,60,64.2l1.9-8.5L64.9,56.9z"/>
</svg>
