<?xml version="1.0" encoding="utf-8"?>
<!-- Generator: Adobe Illustrator 21.1.0, SVG Export Plug-In . SVG Version: 6.00 Build 0)  -->
<svg version="1.1" id="Capa_1" xmlns="http://www.w3.org/2000/svg" xmlns:xlink="http://www.w3.org/1999/xlink" x="0px" y="0px"
	 viewBox="0 0 512 512" style="enable-background:new 0 0 512 512;" xml:space="preserve">
<style type="text/css">
	.st0{fill:url(#SVGID_1_);}
	.st1{fill:url(#SVGID_2_);}
</style>
<g>
	<linearGradient id="SVGID_1_" gradientUnits="userSpaceOnUse" x1="218.3374" y1="391.525" x2="308.3374" y2="76.525">
		<stop  offset="0" style="stop-color:#3C5894"/>
		<stop  offset="1" style="stop-color:#4FBBC3"/>
	</linearGradient>
	<path class="st0" d="M256.6,510.2C117.3,510.2,4,396.9,4,257.6C4,118.3,117.3,5,256.6,5c139.3,0,252.6,113.3,252.6,252.6
		C509.2,396.9,395.9,510.2,256.6,510.2z M256.6,28.7c-126.2,0-228.9,102.7-228.9,228.9c0,126.2,102.7,228.9,228.9,228.9
		c126.2,0,228.9-102.7,228.9-228.9C485.5,131.4,382.8,28.7,256.6,28.7z"/>
	<linearGradient id="SVGID_2_" gradientUnits="userSpaceOnUse" x1="218.3402" y1="391.5258" x2="308.3402" y2="76.5258">
		<stop  offset="0" style="stop-color:#3C5894"/>
		<stop  offset="1" style="stop-color:#4FBBC3"/>
	</linearGradient>
	<path class="st1" d="M256.6,443.1c-6.5,0-11.9-5.3-11.9-11.9v-31.1l-4.1-0.8c-20.2-4.2-37.5-16-48.9-33.3c-1.7-2.6-2.4-5.8-1.7-8.9
		c0.6-3.1,2.4-5.8,5.1-7.5c1.9-1.3,4.2-2,6.5-2c4,0,7.7,2,9.9,5.3c6.4,9.7,15.5,16.9,26.3,20.9l6.9,2.6V268.7l-4.1-0.8
		c-35.8-7.5-61.8-39.4-61.8-76c0-36.6,26-68.5,61.8-76l4.1-0.8V84c0-6.5,5.3-11.9,11.9-11.9c6.5,0,11.9,5.3,11.9,11.9v31.1l4.1,0.8
		c20.2,4.2,37.5,16,48.9,33.3c1.7,2.6,2.4,5.8,1.7,8.9c-0.6,3.1-2.4,5.8-5.1,7.5c-1.9,1.3-4.2,2-6.5,2c-4,0-7.7-2-9.9-5.3
		c-6.4-9.7-15.4-16.9-26.3-20.9l-6.9-2.6v107.8l4.1,0.8c35.8,7.5,61.8,39.4,61.8,76c0,36.6-26,68.5-61.8,76l-4.1,0.8v31
		C268.5,437.8,263.1,443.1,256.6,443.1z M268.5,376.4l6.9-2.6c21.1-7.8,35.2-28.1,35.2-50.5c0-22.4-14.2-42.7-35.2-50.5l-6.9-2.6
		V376.4z M237.9,141.3c-21.1,7.8-35.2,28.1-35.2,50.5c0,22.4,14.2,42.7,35.2,50.5l6.9,2.6V138.8L237.9,141.3z"/>
</g>
</svg>
