<?xml version="1.0" encoding="utf-8"?>
<!-- Generator: Adobe Illustrator 21.1.0, SVG Export Plug-In . SVG Version: 6.00 Build 0)  -->
<svg version="1.1" id="Capa_1" xmlns="http://www.w3.org/2000/svg" xmlns:xlink="http://www.w3.org/1999/xlink" x="0px" y="0px"
	 viewBox="0 0 662.8 481.5" style="enable-background:new 0 0 662.8 481.5;" xml:space="preserve">
<style type="text/css">
	.st0{fill:url(#SVGID_1_);}
	.st1{fill:url(#SVGID_2_);}
	.st2{fill:url(#SVGID_3_);}
	.st3{fill:url(#SVGID_4_);}
</style>
<g>
	<g>
		<g>
			<linearGradient id="SVGID_1_" gradientUnits="userSpaceOnUse" x1="246.8676" y1="268.3118" x2="375.8805" y2="-43.7194">
				<stop  offset="0" style="stop-color:#3C5894"/>
				<stop  offset="1" style="stop-color:#4FBBC3"/>
			</linearGradient>
			<path class="st0" d="M421.4,358.2c0-10.5-4.1-20.4-11.5-27.8c-5.1-5.1-11.3-8.3-17.7-10l20.6-20.6c7.4-7.4,11.5-17.3,11.5-27.8
				c0-10.5-4.1-20.4-11.5-27.8c-7.4-7.4-17.3-11.5-27.8-11.5c-10.5,0-20.4,4.1-27.8,11.5l-17.7,17.7c-1.7-6.6-5.1-12.7-10-17.7
				c-7.4-7.4-17.3-11.5-27.8-11.5c-10.5,0-20.4,4.1-27.8,11.5l-24.7,24.7c-1.7-6.6-5.1-12.8-10-17.7c-7.4-7.4-17.3-11.5-27.8-11.5
				c-10.5,0-20.4,4.1-27.8,11.5l-69.6,69.6H16.8c-5.4,0-9.8,4.4-9.8,9.8c0,5.4,4.4,9.8,9.8,9.8H99c-5.5,14.2-2.7,31.5,8.4,42.6
				c12.2,12.2,30.4,14.5,45.1,7.3c1.3,7.6,4.8,14.9,10.5,20.5c12.1,12.1,30.1,14.5,44.8,7.4c1.5,7.6,5.1,14.7,10.8,20.3
				c12.1,12.1,30.2,14.5,44.8,7.4c1.5,7.7,5.1,14.7,10.8,20.3c7.4,7.4,17.3,11.5,27.8,11.5c10.5,0,20.4-4.1,27.8-11.5l80.4-80.4
				C417.4,378.5,421.4,368.7,421.4,358.2z M121.2,369.2c-3.7-3.7-5.7-8.6-5.7-13.9c0-5.3,2-10.2,5.7-13.9l3.9-3.9l72.5-72.5
				c3.7-3.7,8.6-5.8,13.9-5.8c5.2,0,10.2,2,13.9,5.8c7.4,7.4,7.4,20.4,0,27.8L149,369.2C141.3,376.8,128.9,376.8,121.2,369.2z
				 M176.8,397c-3.7-3.7-5.8-8.7-5.8-13.9c0-5.2,2-10.2,5.8-13.9l111.1-111.1c3.7-3.7,8.6-5.8,13.9-5.8c5.3,0,10.2,2,13.9,5.8
				c7.4,7.4,7.4,20.4,0,27.8l-43.2,43.2l-54,54c0,0,0,0,0,0L204.5,397C196.9,404.6,184.4,404.6,176.8,397z M232.3,424.7
				c-3.7-3.7-5.7-8.6-5.7-13.9c0-5.2,2-10.2,5.7-13.9l54-54l84.9-84.8c3.7-3.7,8.6-5.8,13.9-5.8c5.2,0,10.2,2,13.9,5.8
				c7.4,7.4,7.4,20.4,0,27.8l-44.5,44.5c0,0,0,0,0,0l-40.2,40.2l-54.1,54.1C252.4,432.4,240,432.4,232.3,424.7z M301.7,458.3
				c-5.2,0-10.2-2-13.9-5.8c-3.7-3.7-5.7-8.6-5.7-13.9c0-5.3,2-10.2,5.7-13.9l5.7-5.7l74.8-74.8c7.7-7.6,20.1-7.6,27.7,0
				c7.4,7.4,7.4,20.4,0,27.8l-80.4,80.4C311.9,456.2,307,458.3,301.7,458.3z"/>
			<linearGradient id="SVGID_2_" gradientUnits="userSpaceOnUse" x1="92.2716" y1="204.3923" x2="221.2845" y2="-107.6389">
				<stop  offset="0" style="stop-color:#3C5894"/>
				<stop  offset="1" style="stop-color:#4FBBC3"/>
			</linearGradient>
			<path class="st1" d="M282.4,46.2c5.4,0,9.8-4.4,9.8-9.8c0-5.4-4.4-9.8-9.8-9.8c-71,0-112.8,29.6-137.8,47.3
				c-7.3,5.2-16.4,11.6-19.3,11.6H16.8c-5.4,0-9.8,4.4-9.8,9.8c0,5.4,4.4,9.8,9.8,9.8h108.5c9.2,0,18.2-6.4,30.7-15.2
				C180.5,72.5,217.7,46.2,282.4,46.2z"/>
			<linearGradient id="SVGID_3_" gradientUnits="userSpaceOnUse" x1="575.0482" y1="404.0019" x2="704.0612" y2="91.9706">
				<stop  offset="0" style="stop-color:#3C5894"/>
				<stop  offset="1" style="stop-color:#4FBBC3"/>
			</linearGradient>
			<path class="st2" d="M554.8,330.6c0,5.4,4.4,9.8,9.8,9.8h81.6c5.4,0,9.8-4.4,9.8-9.8s-4.4-9.8-9.8-9.8h-81.6
				C559.2,320.8,554.8,325.2,554.8,330.6z"/>
			<linearGradient id="SVGID_4_" gradientUnits="userSpaceOnUse" x1="378.4042" y1="322.6971" x2="507.4171" y2="10.6659">
				<stop  offset="0" style="stop-color:#3C5894"/>
				<stop  offset="1" style="stop-color:#4FBBC3"/>
			</linearGradient>
			<path class="st3" d="M293.9,70.2c-15.4,23.1-57.5,95.6-59.5,99.2c-3.3,6.6-2.8,13.8,1.3,20.5c8.9,14.4,33.2,23.2,46.8,23.2
				c18.9,0,30.3-13.2,42.5-27.3c4.2-4.9,8.6-9.9,13.6-14.9l49.1-49.1c3.3-3.3,6.3-6.3,7.3-6.7c0.5-0.2,2.6-0.2,4.7-0.2
				c6.2,2.3,26.9,20.5,42.6,36.1l98.5,108.3c2.8,2.9,7,8.9,7,12.7v88.4c0,10.8-8.8,19.6-19.6,19.6s-19.6-8.8-19.6-19.6v-68.7
				c0-13.5-11.4-25.3-12.7-26.6l-68.7-68.7c-3.8-3.8-10-3.8-13.9,0c-3.8,3.8-3.8,10.1,0,13.9l68.7,68.7c2.8,2.9,7,8.9,7,12.7v68.7
				v29.5c0,10.8-8.8,19.6-19.6,19.6c-10.8,0-19.6-8.8-19.6-19.6v-78.5c0-5.4-4.4-9.8-9.8-9.8s-9.8,4.4-9.8,9.8v78.5v29.5
				c0,10.8-8.8,19.6-19.6,19.6c-4.8,0-9.5-1.8-13.1-5c-4-3.6-10.3-3.3-13.9,0.8c-3.6,4-3.3,10.3,0.8,13.9c7.2,6.5,16.5,10,26.2,10
				c20.2,0,36.8-15.4,38.9-35.1c5.9,3.5,12.7,5.7,20,5.7c20.2,0,36.8-15.4,38.9-35.1c5.9,3.5,12.7,5.7,20,5.7
				c21.7,0,39.3-17.6,39.3-39.3V272c0-13.5-11.4-25.3-12.4-26.2l-98.5-108.3c-42.2-42.2-52.6-42.2-56-42.2c-13,0-15.5,1.6-26.6,12.7
				L324.5,157c-5.5,5.5-10.3,11-14.5,15.9c-11.7,13.5-18.2,20.5-27.6,20.5c-12.4,0-30.5-10.6-30.8-14.7c0.4-0.7,43.5-75.1,58.6-97.7
				c16.9-25.4,43.6-54.5,99.8-54.5c42.1,0,99.3,33.1,137.1,55.1c27,15.7,40.4,23.2,49.5,23.2h49.6c5.4,0,9.8-4.4,9.8-9.8
				c0-5.4-4.4-9.8-9.8-9.8h-49.5c-5-0.4-23.4-11.1-39.7-20.5C515,40.3,457.5,6.9,410,6.9C343.7,6.9,312,43,293.9,70.2z"/>
		</g>
	</g>
</g>
</svg>
