<?xml version="1.0" encoding="utf-8"?>
<!-- Generator: Adobe Illustrator 22.1.0, SVG Export Plug-In . SVG Version: 6.00 Build 0)  -->
<svg version="1.1" id="Layer_1" xmlns="http://www.w3.org/2000/svg" xmlns:xlink="http://www.w3.org/1999/xlink" x="0px" y="0px"
	 width="39.6px" height="39.6px" viewBox="0 0 39.6 39.6" style="enable-background:new 0 0 39.6 39.6;" xml:space="preserve">
<style type="text/css">
	.st0{fill:#444444;}
</style>
<path class="st0" d="M31.4,24.7c-0.8-0.8-1.8-1.3-2.8-1.3s-2,0.4-2.8,1.3l-2.6,2.6c-0.2-0.1-0.4-0.2-0.6-0.3
	c-0.3-0.1-0.6-0.3-0.8-0.4C19.3,25,17.1,23,15,20.4c-1-1.3-1.7-2.4-2.2-3.5c0.7-0.6,1.3-1.3,1.9-1.9c0.2-0.2,0.5-0.5,0.7-0.7
	c1.7-1.7,1.7-4,0-5.7L13,6.2c-0.3-0.3-0.5-0.5-0.8-0.8c-0.5-0.5-1-1-1.6-1.5C9.9,3.1,8.9,2.6,7.9,2.6S5.9,3,5.1,3.8l0,0L2.2,6.7
	c-1.1,1.1-1.7,2.4-1.8,3.9c-0.2,2.4,0.5,4.7,1.1,6.1c1.3,3.6,3.3,7,6.3,10.6c3.6,4.3,8,7.8,13,10.2c1.9,0.9,4.4,2,7.3,2.2
	c0.2,0,0.4,0,0.5,0c1.9,0,3.5-0.7,4.8-2.1l0,0c0.4-0.5,0.9-1,1.4-1.5c0.4-0.3,0.7-0.7,1.1-1.1c0.8-0.9,1.3-1.8,1.3-2.9
	c0-1-0.4-2-1.3-2.8L31.4,24.7z M34.4,33.4L34.4,33.4c-0.3,0.3-0.7,0.7-1,1c-0.5,0.5-1.1,1.1-1.6,1.7C31,37,30,37.4,28.7,37.4
	c-0.1,0-0.3,0-0.4,0c-2.5-0.2-4.7-1.1-6.5-1.9C17.1,33.2,13,30,9.6,25.9c-2.8-3.4-4.7-6.6-6-9.9c-0.8-2.1-1.1-3.7-0.9-5.2
	c0.1-1,0.5-1.8,1.1-2.5l2.8-2.8C7,5.1,7.5,4.9,7.9,4.9c0.5,0,0.9,0.3,1.2,0.6l0,0c0.5,0.5,1,1,1.5,1.5c0.3,0.3,0.5,0.5,0.8,0.8
	l2.3,2.3c0.9,0.9,0.9,1.7,0,2.6c-0.2,0.2-0.5,0.5-0.7,0.7c-0.7,0.7-1.4,1.4-2.1,2l0,0c-0.7,0.7-0.6,1.4-0.4,1.9c0,0,0,0,0,0.1
	c0.6,1.4,1.4,2.8,2.7,4.4l0,0c2.3,2.8,4.7,5,7.4,6.7c0.3,0.2,0.7,0.4,1,0.6c0.3,0.1,0.6,0.3,0.8,0.4c0,0,0.1,0,0.1,0.1
	c0.3,0.1,0.5,0.2,0.8,0.2c0.7,0,1.1-0.4,1.3-0.6l2.8-2.8c0.3-0.3,0.7-0.6,1.3-0.6c0.5,0,0.9,0.3,1.2,0.6l0,0l4.6,4.6
	C35.2,31.7,35.2,32.5,34.4,33.4z"/>
<path class="st0" d="M21.6,9.7c2.2,0.4,4.1,1.4,5.7,3c1.6,1.6,2.6,3.5,3,5.7c0.1,0.5,0.6,0.9,1.1,0.9c0.1,0,0.1,0,0.2,0
	c0.6-0.1,1-0.7,0.9-1.3c-0.4-2.6-1.7-5-3.6-6.9S24.6,8,22,7.5c-0.6-0.1-1.2,0.3-1.3,0.9C20.6,9,21,9.6,21.6,9.7z"/>
<path class="st0" d="M39.6,17.7c-0.7-4.3-2.8-8.3-5.9-11.4s-7.1-5.2-11.4-5.9c-0.6-0.1-1.2,0.3-1.3,0.9c-0.1,0.6,0.3,1.2,0.9,1.3
	c3.9,0.7,7.4,2.5,10.2,5.3s4.6,6.3,5.3,10.2c0.1,0.5,0.6,0.9,1.1,0.9c0.1,0,0.1,0,0.2,0C39.3,18.9,39.7,18.3,39.6,17.7z"/>
</svg>
