<?xml version="1.0" encoding="utf-8"?>
<!-- Generator: Adobe Illustrator 21.1.0, SVG Export Plug-In . SVG Version: 6.00 Build 0)  -->
<svg version="1.1" id="Layer_1" xmlns="http://www.w3.org/2000/svg" xmlns:xlink="http://www.w3.org/1999/xlink" x="0px" y="0px"
	 viewBox="0 0 64.1 59.2" style="enable-background:new 0 0 64.1 59.2;" xml:space="preserve">
<style type="text/css">
	.st0{fill:#444444;}
</style>
<title>ico-needs</title>
<g>
	<path class="st0" d="M47.1,1.7c-6.8,0-11,4-13.4,7.4C33,10,32.5,10.8,32,11.7c-0.4-0.8-1-1.7-1.6-2.6C28,5.7,23.8,1.7,17,1.7
		c-4.8,0-9.2,2-12.3,5.6c-3,3.4-4.7,8-4.7,12.9c0,5.3,2.1,10.3,6.6,15.6c4,4.8,9.7,9.6,16.4,15.3c2.5,2.1,5,4.3,7.8,6.7l0.1,0.1
		c0.4,0.3,0.8,0.5,1.2,0.5s0.9-0.2,1.2-0.5l0.1-0.1c2.7-2.4,5.3-4.6,7.8-6.7c6.7-5.7,12.4-10.6,16.4-15.3c4.5-5.3,6.6-10.3,6.6-15.6
		c0-4.9-1.7-9.5-4.7-12.9C56.2,3.6,51.9,1.7,47.1,1.7z M38.7,48.2c-2.1,1.8-4.3,3.7-6.7,5.7c-2.3-2-4.5-3.9-6.7-5.7
		C12.4,37.1,3.8,29.8,3.8,20.1c0-4,1.3-7.7,3.7-10.4c2.4-2.8,5.8-4.3,9.5-4.3c5.1,0,8.5,3.2,10.4,5.8c1.7,2.4,2.6,4.8,2.9,5.7
		c0.3,0.8,1,1.3,1.8,1.3c0.8,0,1.5-0.5,1.8-1.3c0.3-0.9,1.2-3.3,2.9-5.7c1.9-2.7,5.2-5.8,10.4-5.8c3.7,0,7.1,1.5,9.5,4.3
		c2.4,2.7,3.7,6.4,3.7,10.4C60.3,29.8,51.7,37.1,38.7,48.2z"/>
	<path class="st0" d="M47.2,27.1L47.2,27.1c-1,0-1.7-0.7-1.7-1.6V12.6c0-0.9,0.7-1.6,1.6-1.6h0.1c0.9,0,1.6,0.7,1.6,1.6v12.8
		C48.8,26.3,48.1,27.1,47.2,27.1z"/>
	<path class="st0" d="M55.2,19L55.2,19c0,1-0.7,1.7-1.6,1.7H40.7c-0.9,0-1.6-0.7-1.6-1.6V19c0-0.9,0.7-1.6,1.6-1.6h12.8
		C54.4,17.3,55.2,18.1,55.2,19z"/>
</g>
</svg>
