<?xml version="1.0" encoding="utf-8"?>
<!-- Generator: Adobe Illustrator 22.1.0, SVG Export Plug-In . SVG Version: 6.00 Build 0)  -->
<svg version="1.1" id="Layer_1" xmlns="http://www.w3.org/2000/svg" xmlns:xlink="http://www.w3.org/1999/xlink" x="0px" y="0px"
	 width="460px" height="478.9px" viewBox="0 0 460 478.9" style="enable-background:new 0 0 460 478.9;" xml:space="preserve">
<style type="text/css">
	.st0{fill:#FFFFFF;}
</style>
<title>ico-home</title>
<title>ico-home</title>
<title>ico-home</title>
<g>
	<path class="st0" d="M37,133v-2c0-8.2,6.8-15,15-15h356c8.2,0,15,6.8,15,15v2c0,8.2-6.8,15-15,15H52C43.8,148,37,141.2,37,133z"/>
	<path class="st0" d="M320,45.4l1.4-1.4c5.8-5.8,15.4-5.8,21.2,0l76,76c5.8,5.8,5.8,15.4,0,21.2l-1.4,1.4c-5.8,5.8-15.4,5.8-21.2,0
		l-76-76C314.2,60.8,314.2,51.3,320,45.4z"/>
	<path class="st0" d="M320.4,221.3l-1.4-1.4c-5.8-5.8-5.8-15.4,0-21.2l76-76c5.8-5.8,15.4-5.8,21.2,0l1.4,1.4
		c5.8,5.8,5.8,15.4,0,21.2l-76,76C335.8,227.1,326.3,227.1,320.4,221.3z"/>
</g>
<g>
	<path class="st0" d="M423,341.3v2c0,8.2-6.8,15-15,15H52c-8.2,0-15-6.8-15-15v-2c0-8.2,6.8-15,15-15h356
		C416.2,326.3,423,333.1,423,341.3z"/>
	<path class="st0" d="M140,428.9l-1.4,1.4c-5.8,5.8-15.4,5.8-21.2,0l-76-76c-5.8-5.8-5.8-15.4,0-21.2l1.4-1.4
		c5.8-5.8,15.4-5.8,21.2,0l76,76C145.8,413.5,145.8,423,140,428.9z"/>
	<path class="st0" d="M139.6,253l1.4,1.4c5.8,5.8,5.8,15.4,0,21.2l-76,76c-5.8,5.8-15.4,5.8-21.2,0l-1.4-1.4
		c-5.8-5.8-5.8-15.4,0-21.2l76-76C124.2,247.2,133.8,247.2,139.6,253z"/>
</g>
</svg>
