<svg id="Layer_1" xmlns="http://www.w3.org/2000/svg" viewBox="0 0 162.2 162.1"><style>.st1{fill:#0077b7}</style><path d="M81.1 162.1C36.4 162.1 0 125.7 0 81S36.4-.1 81.1-.1s81.1 36.4 81.1 81.1-36.4 81.1-81.1 81.1zm0-158.2C38.6 3.9 4 38.5 4 81s34.6 77.1 77.1 77.1 77.1-34.6 77.1-77.1S123.6 3.9 81.1 3.9z" fill="#aaa"/><path class="st1" d="M82.1 125.8c-.3 0-.7-.2-1.2-.5l-.1-.1c-1.5-1.3-3-2.6-4.4-3.8-2.4-2.1-4.7-4-7-6l-1-.8c-9.2-7.8-17.1-14.6-22.7-21.2-6.4-7.5-9.4-14.5-9.4-22.1 0-6.9 2.3-13.3 6.6-18.1 4.4-5.1 10.5-7.8 17.2-7.8 7.6 0 13.9 3.5 18.7 10.4.8 1.2 1.7 2.5 2.3 3.7l.7 1.4.7-1.3c.8-1.4 1.5-2.5 2.4-3.7 4.9-6.9 11.2-10.4 18.8-10.4 6.8 0 12.8 2.7 17.4 7.8 4.3 4.8 6.6 11.3 6.6 18.1 0 7.5-3 14.5-9.4 22.1-5.5 6.5-13.3 13.3-23.7 22.1-3.4 2.8-7.3 6.1-11.3 9.7l-.2.2c-.1.1-.6.3-1 .3zM60.2 49.1c-5.7 0-10.8 2.3-14.4 6.5-3.6 4-5.5 9.6-5.5 15.6 0 14.3 12.3 24.8 30.8 40.8l.6.5c3.3 2.7 6.6 5.5 9.7 8.2l.5.4.5-.4c2.9-2.4 5.6-4.7 8.2-7l1.8-1.5c18.8-16.1 31.3-26.7 31.4-41.1 0-6-2-11.6-5.6-15.6-3.6-4.2-8.7-6.5-14.4-6.5-7.9 0-12.9 4.8-15.7 8.7-2.5 3.6-3.9 7.1-4.3 8.5-.3.8-1 1.3-1.8 1.3s-1.5-.5-1.9-1.4c-.4-1.3-1.8-4.9-4.3-8.4-2.8-3.9-7.9-8.6-15.6-8.6z"/><path class="st1" d="M103.9 81.5c-1.1 0-1.9-.8-1.9-1.8V59.5c0-1 .8-1.8 1.8-1.8h.1c1 0 1.8.8 1.8 1.8v20.1c0 1-.8 1.9-1.8 1.9z"/><path class="st1" d="M115.7 69.6c0 1.1-.8 1.9-1.8 1.9H93.8c-1 0-1.8-.8-1.8-1.8v-.1c0-1 .8-1.8 1.8-1.8h20.1c1-.1 1.8.8 1.8 1.8z"/></svg>