<?xml version="1.0" encoding="utf-8"?>
<!-- Generator: Adobe Illustrator 21.1.0, SVG Export Plug-In . SVG Version: 6.00 Build 0)  -->
<svg version="1.1" id="Capa_1" xmlns="http://www.w3.org/2000/svg" xmlns:xlink="http://www.w3.org/1999/xlink" x="0px" y="0px"
	 viewBox="0 0 662.8 481.5" style="enable-background:new 0 0 662.8 481.5;" xml:space="preserve">
<style type="text/css">
	.st0{fill:url(#SVGID_1_);}
</style>
<g>
	<g>
		
			<linearGradient id="SVGID_1_" gradientUnits="userSpaceOnUse" x1="326.4234" y1="336.354" x2="326.4234" y2="54.3069" gradientTransform="matrix(0.9262 -0.377 0.377 0.9262 -67.6768 136.7003)">
			<stop  offset="0" style="stop-color:#3C5894"/>
			<stop  offset="1" style="stop-color:#4FBBC3"/>
		</linearGradient>
		<path class="st0" d="M473.9,474.4c-27.9,11.3-59.7,0-74.2-26.3c-0.6-0.8-1.1-1.7-1.5-2.7l-81.2-199.6c-9.3,7.8-14.2,19.7-13,31.8
			c0.5,5-2.4,9.7-7,11.6l-3.7,1.5c-0.1,0.1-0.3,0.1-0.4,0.1c-0.2,0.1-0.4,0.2-0.5,0.2l-0.4,0.2c-5.8,2.4-12.4-0.4-14.8-6.2l-0.6-1.6
			c-10.5-9.8-25.8-12.7-39.1-7.2c-13.2,5.4-22.2,17.9-23,32.1c0.4,0.6,0.7,1.2,1,1.8c2.4,5.8-0.4,12.4-6.2,14.8l-1.1,0.4
			c-0.1,0-0.2,0.1-0.3,0.1c-0.1,0-0.2,0.1-0.2,0.1l-3.7,1.5c-4.6,1.9-10,0.5-13.1-3.4c-10.1-12.7-27.7-17.2-42.8-11.1
			c-15,6.1-24.4,21.7-22.9,37.8c0.5,5-2.4,9.7-7,11.6L116,363c-5.8,2.4-12.4-0.4-14.8-6.2c-25.5-62.6-25.1-131.4,1.2-193.6
			C127,104.6,172.2,58,229.7,31.5l-5.6-13.7c-2.4-5.8,0.4-12.4,6.2-14.8c5.8-2.4,12.4,0.4,14.8,6.2l5.6,13.7
			c59.6-21.3,124.5-19.4,183,5.2C496,54.4,544.3,103.4,569.8,166c2.4,5.8-0.4,12.4-6.2,14.8l-1.9,0.8c-4.6,1.9-10,0.5-13.1-3.4
			c-10.1-12.7-27.7-17.2-42.8-11.1c-15,6.1-24.4,21.7-22.9,37.8c0.5,5-2.4,9.7-7,11.6l-3.7,1.5c-0.1,0-0.2,0.1-0.2,0.1
			c-0.1,0-0.2,0.1-0.3,0.1c-5.7,2.3-12.3-0.4-14.7-6c-10.4-10.9-26.7-14.4-40.7-8.7c-13.3,5.4-22.3,18.1-23,32.5l0.6,1.6
			c2.4,5.8-0.4,12.4-6.2,14.8c-0.3,0.1-0.5,0.2-0.8,0.3c-0.2,0.1-0.4,0.2-0.5,0.3l-3.7,1.5c-4.6,1.9-10,0.5-13.1-3.4
			c-7.6-9.5-19.5-14.6-31.6-13.7l79.8,196c7.6,18.7,29,27.7,47.6,20.1c18.7-7.6,27.7-29,20.1-47.6c-2.4-5.8,0.4-12.4,6.2-14.8
			s12.4,0.4,14.8,6.2C518.8,427.5,504.2,462.1,473.9,474.4z M329.4,31.1c13.8,5.9,27.6,14.2,41.3,24.5c36.9,28,70.5,70.6,95,120.5
			c6.3-13.7,17.5-24.5,31.6-30.2c11.4-4.7,23.9-5.6,35.9-2.8c-21.6-36.3-52.8-65.7-90.5-85.5C407.4,39.2,368.6,30.1,329.4,31.1z
			 M139.1,291.7c14-5.7,29.6-5.8,43.7-0.4c-17.3-52.9-23-106.8-16.1-152.6c2.5-16.9,6.7-32.5,12.4-46.4
			c-28.8,26.7-50.3,60.3-62.6,98c-13.2,40.5-14.9,83.4-5.1,124.5C118.1,304.4,127.7,296.4,139.1,291.7z M248.7,48.1
			c-2.3,1.1-9.2,15.7-0.5,65.5c6.6,37.7,20.3,85.3,38.9,134.7c6.4-13.3,17.4-23.8,31.2-29.4c13.8-5.6,29-5.8,42.9-0.7
			c-21.2-48.3-44.6-91.9-66.2-123.5C266.2,52.8,251.1,47.3,248.7,48.1z M228.7,255.3c11.4-4.6,23.8-5.6,35.5-3
			c-18.5-49.8-31.8-96.3-38.5-134.8c-3.5-20-5-36.9-4.4-50.4c-18,19-29.4,47.7-33.4,83.8c-4.2,38.6,0.7,81.9,14.1,125.8
			C208.6,267.2,217.9,259.7,228.7,255.3z M281.5,42.5c9.8,9.3,20.6,22.4,32.1,39.2c22.1,32.2,45.1,74.8,66.6,123.4
			c6.6-10.1,16.2-18,27.5-22.7c10.8-4.4,22.6-5.5,34-3.3c-21.1-40.8-47.9-75.2-77.8-99.9C335.9,56.1,307.6,43.6,281.5,42.5z"/>
	</g>
</g>
</svg>
