<?xml version="1.0" encoding="utf-8"?>
<!-- Generator: Adobe Illustrator 21.1.0, SVG Export Plug-In . SVG Version: 6.00 Build 0)  -->
<svg version="1.1" id="Layer_2" xmlns="http://www.w3.org/2000/svg" xmlns:xlink="http://www.w3.org/1999/xlink" x="0px" y="0px"
	 viewBox="0 0 36.9 31.3" style="enable-background:new 0 0 36.9 31.3;" xml:space="preserve">
<style type="text/css">
	.st0{fill:#666666;}
	.st1{fill:#CC0000;}
	.st2{fill:#FFFFFF;}
	.st3{font-family:'OpenSans-SemiBold';}
	.st4{font-size:9.3596px;}
</style>
<g>
	<g>
		<g>
			<path class="st0" d="M0.8,25.1c-0.4,0-0.8-0.4-0.8-0.8V3.4C0,3,0.4,2.6,0.8,2.6H30c0.4,0,0.8,0.4,0.8,0.8v20.8
				c0,0.5-0.4,0.8-0.8,0.8H0.8z M2.1,23.5h26.7l-9.2-9.7l1.2-1.2l8.5,8.9V4.3H1.6v17.2l8.5-8.9l1.2,1.2L2.1,23.5z"/>
		</g>
	</g>
	<g>
		<g>
			<path class="st0" d="M15.4,18.1c-0.2,0-0.4-0.1-0.6-0.3L1.4,4.8V4h1.5l12.4,12L27.8,4h1.5v0.7L16,17.8
				C15.8,18,15.6,18.1,15.4,18.1z"/>
		</g>
	</g>
</g>
<title>ico-email-waiting</title>
<g>
	<circle class="st1" cx="29.6" cy="7.3" r="7.3"/>
	<text transform="matrix(1 0 0 1 26.9561 10.002)" class="st2 st3 st4">1</text>
</g>
</svg>
