<svg id="Layer_1" data-name="Layer 1" xmlns="http://www.w3.org/2000/svg" viewBox="0 0 76 76"><defs><style>.cls-1{fill:#1057a7;}</style></defs><title>ico-trash</title><path d="M38,38" transform="translate(-0.02 -0.05)"/><path class="cls-1" d="M25.46,52.67a4.19,4.19,0,0,0,4.18,4.2H46.41a4.19,4.19,0,0,0,4.18-4.2h0V27.55H25.46Zm27.21-31.4H45.35l-2.08-2.1H32.8l-2.13,2.1H23.36v4.18H52.67Z" transform="translate(-0.02 -0.05)"/><path class="cls-1" d="M38,.05a38,38,0,1,0,38,38A38,38,0,0,0,38,.05Zm0,4.32A33.68,33.68,0,1,1,4.35,38.05,33.68,33.68,0,0,1,38,4.37Z" transform="translate(-0.02 -0.05)"/></svg>