<svg id="Layer_1" xmlns="http://www.w3.org/2000/svg" viewBox="0 0 162.2 162.1"><style>.st1{fill:#0077b7}</style><path d="M81.1 162.1c-44.7 0-81.1-36.3-81.1-81S36.4 0 81.1 0s81.1 36.4 81.1 81.1-36.4 81-81.1 81zM81.1 4C38.6 4 4 38.5 4 81.1c0 42.5 34.6 77.1 77.1 77.1s77.1-34.6 77.1-77.1C158.2 38.5 123.6 4 81.1 4z" fill="#aaa"/><path class="st1" d="M52 92.5h29.9c.6 0 1 .4 1 1v.9c0 .6-.4 1-1 1H52c-.6 0-1-.4-1-1v-.9c-.1-.5.4-1 1-1-.1 0 0 0 0 0zM90.8 92.5h19.9c.6 0 1 .4 1 1v.9c0 .6-.4 1-1 1H90.8c-.6 0-1-.4-1-1v-.9c-.1-.5.4-1 1-1-.1 0-.1 0 0 0z"/><path class="st1" d="M120.3 55.5c-.8-.8-2-1.3-3.1-1.3H45.1c-1.2 0-2.3.5-3.1 1.3s-1.3 2-1.3 3.1v44.9c0 1.2.5 2.3 1.3 3.1.8.8 2 1.3 3.1 1.3h72c2.4 0 4.4-2 4.4-4.4v-45c.1-1.1-.4-2.2-1.2-3zm-2.3 48c0 .5-.4.8-.9.9h-72c-.5 0-.8-.4-.9-.9V58.6c0-.5.4-.9.8-.9h72.1c.4 0 .8.3.9.8v45z"/><path class="st1" d="M73.3 73.7c0-.3-2.2-.8-3.2-.8s-.5-1-.5-1.5 1.9-1 1.6-1.5c-.5-.9-1.7.8-2.9.7-.8 0-1.5-.5-1.8-1.2-.4-.5-.5-2.4-1.3-2.8-.5-.2-.9.6-1.3.5-.5-.2-.4-.6-.6-1.5-.2-.8-1.3-.6-1.3-.6h-.2s-1.3-.2-1.5.7c-.2.9 0 1.4-.6 1.5-.3.1-.8-.9-1.3-.5-.9.5-.9 2.2-1.3 2.8-.5.6-.5 1-1.8 1.2s-2.4-1.6-2.9-.7c-.2.4 1.6.9 1.6 1.5 0 .5.6 1.5-.4 1.5s-3.2.5-3.2.8c0 .7 8.2.5 7.5.8-.7.2-3.7 1.5-4.4 1.4s1.4.7 2 .6c1.7.5 3.4 1.1 5.1 1.8 0 0-2.4.9-1.1.9h4.2c1.3 0-1.1-.9-1.1-.9 1.7-.7 3.4-1.3 5.1-1.8.6 0 2.7-.8 2-.6-.6.2-3.7-1.2-4.3-1.4-.2-.4 7.9-.2 7.9-.9zM52 84.6h58.6c.6 0 1 .4 1 1v.9c0 .6-.4 1-1 1H52c-.6 0-1-.4-1-1v-.9c-.1-.5.4-1 1-1-.1 0 0 0 0 0zM83.8 69.9H111c.6 0 1 .4 1 1v.9c0 .6-.4 1-1 1H83.8c-.6 0-1-.4-1-1V71c-.1-.6.4-1.1 1-1.1-.1 0-.1 0 0 0z"/></svg>