<?xml version="1.0" encoding="iso-8859-1"?>
<!-- Generator: Adobe Illustrator 21.1.0, SVG Export Plug-In . SVG Version: 6.00 Build 0)  -->
<svg version="1.1" id="Capa_1" xmlns="http://www.w3.org/2000/svg" xmlns:xlink="http://www.w3.org/1999/xlink" x="0px" y="0px"
	 viewBox="-49 141 512 512" style="enable-background:new -49 141 512 512;" xml:space="preserve">
<linearGradient id="SVGID_1_" gradientUnits="userSpaceOnUse" x1="-43.9855" y1="400.4497" x2="458" y2="400.4497">
	<stop  offset="0" style="stop-color:#3C5894"/>
	<stop  offset="1" style="stop-color:#4FBBC3"/>
</linearGradient>
<path style="fill:url(#SVGID_1_);" d="M434.469,157.3H-20.455c-12.996,0-23.531,10.535-23.531,23.531v345.115
	c0,4.332,3.512,7.844,7.844,7.844h178.675l-12.55,62.748h-17.099c-4.332,0-7.844,3.512-7.844,7.844v23.531H89.354v15.687H324.66
	v-15.687h-15.687v-23.531c0-4.332-3.512-7.844-7.844-7.844h-17.112l-12.55-62.748h178.688c4.332,0,7.844-3.512,7.844-7.844V180.831
	C458,167.835,447.465,157.3,434.469,157.3z M-20.455,172.987h454.924c4.332,0,7.844,3.512,7.844,7.844v250.993h-23.531V204.362
	c0-4.332-3.512-7.844-7.844-7.844H3.076c-4.332,0-7.844,3.512-7.844,7.844v227.462h-23.531V180.831
	C-28.298,176.499-24.787,172.987-20.455,172.987z M403.095,431.824H10.919V212.205h392.176V431.824z M293.286,627.912H120.728
	v-15.687h15.687h141.183h15.687V627.912z M268.03,596.538H145.985l12.538-62.748h96.958L268.03,596.538z M-28.298,518.103v-70.592
	h470.611v70.592H-28.298z"/>
<linearGradient id="SVGID_2_" gradientUnits="userSpaceOnUse" x1="183.4767" y1="478.8849" x2="230.5378" y2="478.8849">
	<stop  offset="0" style="stop-color:#3C5894"/>
	<stop  offset="1" style="stop-color:#4FBBC3"/>
</linearGradient>
<path style="fill:url(#SVGID_2_);" d="M207.007,455.354c-12.996,0-23.531,10.535-23.531,23.531
	c0,12.996,10.535,23.531,23.531,23.531s23.531-10.535,23.531-23.531C230.538,465.889,220.003,455.354,207.007,455.354z
	 M207.007,486.728c-4.332,0-7.844-3.512-7.844-7.844c0-4.332,3.512-7.844,7.844-7.844s7.844,3.512,7.844,7.844
	C214.851,483.216,211.339,486.728,207.007,486.728z"/>
<linearGradient id="SVGID_3_" gradientUnits="userSpaceOnUse" x1="26.6062" y1="243.5792" x2="57.9803" y2="243.5792">
	<stop  offset="0" style="stop-color:#3C5894"/>
	<stop  offset="1" style="stop-color:#4FBBC3"/>
</linearGradient>
<path style="fill:url(#SVGID_3_);" d="M42.293,243.579H57.98v-15.687H34.45c-4.332,0-7.844,3.512-7.844,7.844v23.531h15.687V243.579
	z"/>
<linearGradient id="SVGID_4_" gradientUnits="userSpaceOnUse" x1="97.1979" y1="274.9533" x2="159.9461" y2="274.9533">
	<stop  offset="0" style="stop-color:#3C5894"/>
	<stop  offset="1" style="stop-color:#4FBBC3"/>
</linearGradient>
<path style="fill:url(#SVGID_4_);" d="M105.041,306.327h47.061c4.332,0,7.844-3.512,7.844-7.844v-47.061
	c0-4.332-3.512-7.844-7.844-7.844h-47.061c-4.332,0-7.844,3.512-7.844,7.844v47.061C97.198,302.815,100.71,306.327,105.041,306.327z
	 M123.984,290.64l20.276-20.276v20.276H123.984z M133.172,259.266l-20.287,20.287v-20.287H133.172z"/>
<linearGradient id="SVGID_5_" gradientUnits="userSpaceOnUse" x1="183.4767" y1="259.2662" x2="199.1637" y2="259.2662">
	<stop  offset="0" style="stop-color:#3C5894"/>
	<stop  offset="1" style="stop-color:#4FBBC3"/>
</linearGradient>
<rect x="183.477" y="251.423" style="fill:url(#SVGID_5_);" width="15.687" height="15.687"/>
<linearGradient id="SVGID_6_" gradientUnits="userSpaceOnUse" x1="214.8508" y1="259.2662" x2="230.5378" y2="259.2662">
	<stop  offset="0" style="stop-color:#3C5894"/>
	<stop  offset="1" style="stop-color:#4FBBC3"/>
</linearGradient>
<rect x="214.851" y="251.423" style="fill:url(#SVGID_6_);" width="15.687" height="15.687"/>
<linearGradient id="SVGID_7_" gradientUnits="userSpaceOnUse" x1="183.4767" y1="290.6404" x2="308.9731" y2="290.6404">
	<stop  offset="0" style="stop-color:#3C5894"/>
	<stop  offset="1" style="stop-color:#4FBBC3"/>
</linearGradient>
<rect x="183.477" y="282.797" style="fill:url(#SVGID_7_);" width="125.496" height="15.687"/>
<linearGradient id="SVGID_8_" gradientUnits="userSpaceOnUse" x1="97.1979" y1="361.2321" x2="159.9461" y2="361.2321">
	<stop  offset="0" style="stop-color:#3C5894"/>
	<stop  offset="1" style="stop-color:#4FBBC3"/>
</linearGradient>
<path style="fill:url(#SVGID_8_);" d="M105.041,392.606h47.061c4.332,0,7.844-3.512,7.844-7.844v-47.061
	c0-4.332-3.512-7.844-7.844-7.844h-47.061c-4.332,0-7.844,3.512-7.844,7.844v47.061C97.198,389.094,100.71,392.606,105.041,392.606z
	 M112.885,345.545h31.374v31.374h-31.374V345.545z"/>
<linearGradient id="SVGID_9_" gradientUnits="userSpaceOnUse" x1="183.4767" y1="345.545" x2="199.1637" y2="345.545">
	<stop  offset="0" style="stop-color:#3C5894"/>
	<stop  offset="1" style="stop-color:#4FBBC3"/>
</linearGradient>
<rect x="183.477" y="337.701" style="fill:url(#SVGID_9_);" width="15.687" height="15.687"/>
<linearGradient id="SVGID_10_" gradientUnits="userSpaceOnUse" x1="214.8508" y1="345.545" x2="230.5378" y2="345.545">
	<stop  offset="0" style="stop-color:#3C5894"/>
	<stop  offset="1" style="stop-color:#4FBBC3"/>
</linearGradient>
<rect x="214.851" y="337.701" style="fill:url(#SVGID_10_);" width="15.687" height="15.687"/>
<linearGradient id="SVGID_11_" gradientUnits="userSpaceOnUse" x1="183.4767" y1="376.9191" x2="308.9731" y2="376.9191">
	<stop  offset="0" style="stop-color:#3C5894"/>
	<stop  offset="1" style="stop-color:#4FBBC3"/>
</linearGradient>
<rect x="183.477" y="369.076" style="fill:url(#SVGID_11_);" width="125.496" height="15.687"/>
</svg>
