<svg id="Layer_1" xmlns="http://www.w3.org/2000/svg" viewBox="0 0 162.2 162.1"><style>.st0{fill:#0077b7}</style><path class="st0" d="M112.4 41.1l-27 26.2c-.2.2-.4.5-.5.8l-2.5 9.7c-.2.6 0 1.3.5 1.8.4.3.8.5 1.3.5.2 0 .3 0 .5-.1l9.7-2.5c.3-.1.6-.2.8-.5l26.9-26.2 5.9-5.9c.7-.7.7-1.9 0-2.6l-7.2-7.2c-.3-.2-.7-.4-1.2-.4s-1 .2-1.3.5l-5.9 5.9zm-19.5 33l-6.1 1.6 1.6-6.1 25.3-24.5 4.5 4.5-25.3 24.5zm26.7-34.9l4.5 4.5-3.3 3.3-4.5-4.5 3.3-3.3z"/><path class="st0" d="M111 58.5c-1 0-1.8.8-1.8 1.8v59.2H51.3V49.1h55.6c1 0 1.8-.8 1.8-1.8s-.8-1.8-1.8-1.8H49.4c-1 0-1.8.8-1.8 1.8v74.2c0 1 .8 1.8 1.8 1.8h61.5c1 0 1.8-.8 1.8-1.8V60.4c.1-1.1-.7-1.9-1.7-1.9z"/><path class="st0" d="M58.4 86.6h43.8v3.8H58.4zM58.4 96.5h43.8v3.8H58.4zM58.4 106.1h43.8v3.8H58.4z"/><path d="M81.1 162.1C36.4 162.1 0 125.7 0 81S36.4-.1 81.1-.1s81.1 36.4 81.1 81.1-36.4 81.1-81.1 81.1zm0-158.2C38.6 3.9 4 38.5 4 81s34.6 77.1 77.1 77.1 77.1-34.6 77.1-77.1S123.6 3.9 81.1 3.9z" fill="#aaa"/></svg>