<svg id="Layer_1" data-name="Layer 1" xmlns="http://www.w3.org/2000/svg" viewBox="0 0 38.94 37.82"><defs><style>.cls-1{fill:#0357a3;}</style></defs><title>ico-medical</title><path class="cls-1" d="M30.53,13.76a3,3,0,0,0-2.91-2.91H22.37a3,3,0,0,0-2.91,2.91v2.51H30.53Zm-2.2.32H21.66v-.32a.81.81,0,0,1,.71-.71h5.25a.81.81,0,0,1,.71.71Zm16.13,6.28a6.6,6.6,0,0,0-6.76-6.28H36.08V12.84a6.76,6.76,0,0,0-6.76-6.75h-9a6.83,6.83,0,0,0-6.41,6.75v1.23H12.29a6.5,6.5,0,0,0-6.76,6.36V37.16a6.76,6.76,0,0,0,6.76,6.75H37.71a6.76,6.76,0,0,0,6.76-6.75Zm-2.19,16.8a4.57,4.57,0,0,1-4.56,4.56H12.29a4.57,4.57,0,0,1-4.56-4.56V20.43a4.33,4.33,0,0,1,4.56-4.16h3.83V12.84a4.61,4.61,0,0,1,4.3-4.56h8.91a4.57,4.57,0,0,1,4.56,4.56v3.43h3.83a4.38,4.38,0,0,1,4.56,4.16ZM29.09,19.67h-8.3V25H15.41v7.91h5.5v5.37h8.3V32.95h5.37V25h-5.5Zm3.31,7.56v3.52H27v5.37H23.11V30.75h-5.5V27.23H23V21.87h3.91v5.37Z" transform="translate(-5.53 -6.09)"/></svg>