<svg id="Layer_1" data-name="Layer 1" xmlns="http://www.w3.org/2000/svg" viewBox="0 0 15.85 11.91"><title>ico-claims-black</title><rect x="7.03" y="2.85" width="6.66" height="1.29" rx="0.64" ry="0.64"/><rect x="2.39" y="8.31" width="6.08" height="1.29" rx="0.64" ry="0.64"/><rect x="10.51" y="8.31" width="3.09" height="1.29" rx="0.64" ry="0.64"/><path d="M17.45,4.34A1.27,1.27,0,0,0,16.52,4H3.31A1.32,1.32,0,0,0,2,5.28v9.27a1.32,1.32,0,0,0,1.32,1.32H16.52a1.33,1.33,0,0,0,1.32-1.32V5.28A1.27,1.27,0,0,0,17.45,4.34Zm-.67,10.2a.27.27,0,0,1-.26.26H3.31A.27.27,0,0,1,3,14.55V5.28A.27.27,0,0,1,3.31,5H16.52a.27.27,0,0,1,.26.26Z" transform="translate(-1.99 -3.96)"/><path d="M8.19,7.74c0-.06-.38-.14-.55-.15s-.08-.19-.07-.28.32-.19.29-.27-.3.15-.49.13S7.11,7,7,6.95,7,6.51,6.81,6.42s-.17.12-.21.11-.07-.12-.1-.29-.25-.13-.25-.13h0S6,6.07,6,6.24s0,.26-.1.29-.13-.16-.21-.11-.15.41-.23.53-.09.2-.31.22S4.69,6.86,4.6,7s.28.18.29.27.11.28-.07.28-.55.09-.55.15,1.41.11,1.3.15a3.25,3.25,0,0,1-.75.26c-.12,0,.24.13.35.12A7.55,7.55,0,0,1,6,8.62s-.42.17-.18.18H6.6c.23,0-.18-.18-.18-.18a7.55,7.55,0,0,1,.88-.34c.1,0,.46-.14.35-.12a3.25,3.25,0,0,1-.75-.26C6.78,7.85,8.19,7.87,8.19,7.74Z" transform="translate(-1.99 -3.96)"/><path d="M4.75,11.33H4.53v-.42q0-.08,0-.14l-.05.05-.09.08-.11-.14.28-.22h.2Z" transform="translate(-1.99 -3.96)"/><path d="M5.51,11.33H4.93v-.14l.2-.2.11-.12,0-.06a.12.12,0,0,0,0,0,.06.06,0,0,0,0,0l-.06,0-.08,0L5,10.79l-.12-.14.1-.08.09,0h.11a.34.34,0,0,1,.14,0,.22.22,0,0,1,.1.08.2.2,0,0,1,0,.11.31.31,0,0,1,0,.09l0,.08L5.38,11l-.17.16h.3Z" transform="translate(-1.99 -3.96)"/><path d="M6.14,10.71a.19.19,0,0,1,0,.13.26.26,0,0,1-.13.08H6q.2,0,.2.19a.21.21,0,0,1-.09.18.41.41,0,0,1-.25.06H5.71l-.12,0v-.18l.11,0h.1l.1,0a.07.07,0,0,0,0-.06.07.07,0,0,0,0-.05l-.05,0H5.71v-.16h.05q.17,0,.17-.08a.05.05,0,0,0,0,0l-.07,0a.3.3,0,0,0-.16.05l-.09-.14.13-.06.15,0a.34.34,0,0,1,.2,0A.16.16,0,0,1,6.14,10.71Z" transform="translate(-1.99 -3.96)"/><path d="M6.85,11.18H6.76v.16H6.55v-.16H6.23V11l.33-.49h.2V11h.09ZM6.55,11v-.09s0,0,0-.07a.45.45,0,0,1,0,0h0l0,.08L6.41,11Z" transform="translate(-1.99 -3.96)"/><path d="M7.52,10.81a.24.24,0,0,1,.12,0,.22.22,0,0,1,.09.09.29.29,0,0,1,0,.14.26.26,0,0,1-.08.21.36.36,0,0,1-.24.07.52.52,0,0,1-.23,0v-.18l.11,0h.1a.15.15,0,0,0,.09,0,.09.09,0,0,0,0-.08.09.09,0,0,0,0-.07.16.16,0,0,0-.1,0L7.3,11l-.08,0,0-.42h.46v.18H7.44v.11h.09Z" transform="translate(-1.99 -3.96)"/><path d="M7.85,11a.65.65,0,0,1,0-.27A.32.32,0,0,1,8,10.57a.49.49,0,0,1,.23,0h.11v.17H8.27a.24.24,0,0,0-.16,0,.21.21,0,0,0-.06.16h0a.17.17,0,0,1,.16-.09.21.21,0,0,1,.17.07.33.33,0,0,1,0,.4.32.32,0,0,1-.43,0A.38.38,0,0,1,7.85,11Zm.3.18a.07.07,0,0,0,.06,0,.13.13,0,0,0,0-.08q0-.1-.08-.1a.08.08,0,0,0-.06,0,.09.09,0,0,0,0,.06.15.15,0,0,0,0,.09A.07.07,0,0,0,8.15,11.17Z" transform="translate(-1.99 -3.96)"/><path d="M8.59,11.33l.28-.62H8.52v-.18h.58v.13l-.28.67Z" transform="translate(-1.99 -3.96)"/><path d="M9.46,10.52a.33.33,0,0,1,.2.05.17.17,0,0,1,.07.14.19.19,0,0,1,0,.11.27.27,0,0,1-.1.08.4.4,0,0,1,.13.1.18.18,0,0,1,0,.11.2.2,0,0,1-.08.17.43.43,0,0,1-.43,0,.19.19,0,0,1-.08-.16.21.21,0,0,1,0-.12.29.29,0,0,1,.11-.09.3.3,0,0,1-.09-.09.2.2,0,0,1,0-.11.17.17,0,0,1,.07-.14A.34.34,0,0,1,9.46,10.52Zm-.1.59a.07.07,0,0,0,0,.05l.07,0q.1,0,.1-.07a.08.08,0,0,0,0-.05L9.46,11l-.07.05A.09.09,0,0,0,9.37,11.11Zm.09-.44,0,0a.05.05,0,0,0,0,0s0,.06.06.08l.05,0a.07.07,0,0,0,0,0,.05.05,0,0,0,0,0Z" transform="translate(-1.99 -3.96)"/><path d="M10.7,10.9a.48.48,0,0,1-.1.34.43.43,0,0,1-.32.11h-.11v-.17h.09a.29.29,0,0,0,.18,0,.19.19,0,0,0,.07-.15h0l0,.06-.05,0h-.08a.2.2,0,0,1-.16-.07.29.29,0,0,1-.06-.19.26.26,0,0,1,.28-.28.28.28,0,0,1,.23.1A.42.42,0,0,1,10.7,10.9Zm-.3-.2a.07.07,0,0,0-.06,0,.12.12,0,0,0,0,.08.12.12,0,0,0,0,.07.07.07,0,0,0,.06,0l.06,0a.08.08,0,0,0,0-.06.14.14,0,0,0,0-.08A.07.07,0,0,0,10.4,10.7Z" transform="translate(-1.99 -3.96)"/><path d="M11.26,11.33H11v-.42q0-.08,0-.14l-.05.05-.09.08-.11-.14.28-.22h.2Z" transform="translate(-1.99 -3.96)"/><path d="M12,11.33h-.58v-.14l.2-.2.11-.12,0-.06a.12.12,0,0,0,0,0,.06.06,0,0,0,0,0l-.06,0-.08,0-.09.06-.12-.14.1-.08.09,0h.11a.34.34,0,0,1,.14,0,.22.22,0,0,1,.1.08.2.2,0,0,1,0,.11.31.31,0,0,1,0,.09l0,.08-.07.08-.17.16H12Z" transform="translate(-1.99 -3.96)"/><path d="M12.64,10.71a.19.19,0,0,1,0,.13.26.26,0,0,1-.13.08h0q.2,0,.2.19a.21.21,0,0,1-.09.18.41.41,0,0,1-.25.06h-.12l-.12,0v-.18l.11,0h.1l.1,0a.07.07,0,0,0,0-.06.07.07,0,0,0,0-.05l-.05,0h-.15v-.16h.05q.17,0,.17-.08a.05.05,0,0,0,0,0l-.07,0a.3.3,0,0,0-.16.05l-.09-.14.13-.06.15,0a.34.34,0,0,1,.2,0A.16.16,0,0,1,12.64,10.71Z" transform="translate(-1.99 -3.96)"/><path d="M13.52,11.33H13.3v-.42q0-.08,0-.14l-.05.05-.09.08-.11-.14.28-.22h.2Z" transform="translate(-1.99 -3.96)"/><path d="M14.28,11.33H13.7v-.14l.2-.2.11-.12,0-.06a.12.12,0,0,0,0,0,.06.06,0,0,0,0,0l-.06,0-.08,0-.09.06-.12-.14.1-.08.09,0H14a.34.34,0,0,1,.14,0,.22.22,0,0,1,.1.08.2.2,0,0,1,0,.11.31.31,0,0,1,0,.09l0,.08-.07.08-.17.16h.3Z" transform="translate(-1.99 -3.96)"/><path d="M14.91,10.71a.19.19,0,0,1,0,.13.26.26,0,0,1-.13.08h0q.2,0,.2.19a.21.21,0,0,1-.09.18.41.41,0,0,1-.25.06h-.12l-.12,0v-.18l.11,0h.1l.1,0a.07.07,0,0,0,0-.06.07.07,0,0,0,0-.05l-.05,0h-.15v-.16h.05q.17,0,.17-.08a.05.05,0,0,0,0,0l-.07,0a.3.3,0,0,0-.16.05l-.09-.14.13-.06.15,0a.34.34,0,0,1,.2,0A.16.16,0,0,1,14.91,10.71Z" transform="translate(-1.99 -3.96)"/><path d="M15.62,11.18h-.09v.16h-.21v-.16H15V11l.33-.49h.2V11h.09Zm-.3-.16v-.09s0,0,0-.07a.45.45,0,0,1,0,0h0l0,.08-.09.13Z" transform="translate(-1.99 -3.96)"/></svg>