<?xml version="1.0" encoding="utf-8"?>
<!-- Generator: Adobe Illustrator 21.1.0, SVG Export Plug-In . SVG Version: 6.00 Build 0)  -->
<svg version="1.1" id="Layer_1" xmlns="http://www.w3.org/2000/svg" xmlns:xlink="http://www.w3.org/1999/xlink" x="0px" y="0px"
	 viewBox="0 0 100 100" style="enable-background:new 0 0 100 100;" xml:space="preserve">
<style type="text/css">
	.st0{fill:#444444;}
</style>
<g>
	<path class="st0" d="M7.6,85.6c0.3,0.4,0.7,0.6,1.2,0.6h14.4c0.9,0,1.6-0.7,1.6-1.6c0-0.9-0.7-1.6-1.6-1.6H9.9l-3.2-3.8L21.5,45
		c0.2-0.8-0.3-1.7-1.1-1.9c-0.8-0.2-1.7,0.3-1.9,1.1L2.7,79.7C2.7,79.7,7.3,85.2,7.6,85.6z M6.4,84.3"/>
	<path class="st0" d="M17,12.5c-0.6,0.3-0.9,0.9-0.8,1.5l6.5,76.5c0.1,0.5,0.4,1,0.9,1.3l6.9,4.2c0,0,0,0,0,0c0,0,0.1,0,0.1,0
		c0,0,0,0,0,0c0,0,0.1,0,0.1,0c0,0,0,0,0.1,0c0,0,0.1,0,0.1,0c0,0,0,0,0,0c0.1,0,0.1,0,0.2,0c0,0,0,0,0,0l66.6-5.7c0,0,0,0,0,0
		c0,0,0.1,0,0.1,0c0,0,0,0,0.1,0c0,0,0.1,0,0.1,0c0,0,0,0,0.1,0c0,0,0.1,0,0.1,0c0,0,0,0,0,0c0,0,0.1,0,0.1,0c0,0,0,0,0,0
		c0,0,0.1,0,0.1-0.1c0,0,0,0,0,0c0,0,0.1,0,0.1-0.1c0,0,0,0,0,0c0,0,0.1,0,0.1-0.1c0,0,0.1-0.1,0.1-0.1c0,0,0.1-0.1,0.1-0.1
		c0,0,0,0,0,0c0,0,0.1-0.1,0.1-0.1c0,0,0,0,0,0c0,0,0-0.1,0.1-0.1c0,0,0,0,0,0c0,0,0-0.1,0-0.1c0,0,0,0,0,0c0,0,0-0.1,0-0.1
		c0,0,0,0,0-0.1c0,0,0-0.1,0-0.1c0,0,0,0,0-0.1c0,0,0-0.1,0-0.1c0,0,0,0,0-0.1c0,0,0-0.1,0-0.1c0,0,0,0,0,0L90.9,5.4c0,0,0,0,0,0
		c0,0,0,0,0-0.1c0,0,0,0,0-0.1c0,0,0,0,0-0.1c0,0,0,0,0-0.1c0,0,0,0,0-0.1c0,0,0,0,0-0.1c0,0,0,0,0-0.1c0,0,0,0,0-0.1c0,0,0,0,0-0.1
		c0,0,0,0,0-0.1c0,0,0,0,0-0.1c0,0,0,0-0.1-0.1c0,0,0,0,0,0c-0.1-0.1-0.1-0.1-0.2-0.2c0,0,0,0,0,0c0,0,0,0-0.1-0.1c0,0,0,0-0.1,0
		c0,0,0,0-0.1,0c0,0,0,0-0.1,0c0,0,0,0-0.1,0c0,0,0,0-0.1,0c0,0,0,0-0.1,0c0,0,0,0-0.1,0c0,0-0.1,0-0.1,0c0,0,0,0-0.1,0
		c0,0-0.1,0-0.1,0c0,0,0,0-0.1,0c0,0,0,0,0,0L23.8,8.2c0,0,0,0,0,0c0,0,0,0-0.1,0c-0.1,0-0.1,0-0.2,0c0,0,0,0-0.1,0
		c-0.1,0-0.1,0-0.2,0.1c0,0,0,0,0,0c-0.1,0-0.1,0-0.2,0.1c0,0,0,0,0,0L17,12.5L17,12.5z M25.8,13.6l8.3,7.3l4.7,62.7l-6.4,7.3
		L25.8,13.6z M95.7,84.9l-8.3-6l-3.8-41.3c-0.1-0.9-0.9-1.5-1.7-1.4c-0.9,0.1-1.5,0.9-1.4,1.7l3.7,40.2l-42.5,4.4l-4.5-60.9
		l41.5-2.9l2,20.7c0.1,0.9,0.9,1.5,1.7,1.4c0.9-0.1,1.5-0.9,1.4-1.7l-2.1-21.4l6.4-8.6L95.7,84.9z M27.9,11.3l58-4.2l-6.4,8.6
		l-43.3,2.9L27.9,11.3z M93.6,87.2l-59,5.7l6.4-7.3l44.4-4.4L93.6,87.2z M19.4,14.8l3.1-1.8l6.8,78.2l-3.6-1.8L19.4,14.8z
		 M25.6,89.3"/>
</g>
<g>
	<path class="st0" d="M60.7,53l0.3,0c2.8-0.3,5-1.5,6.5-3.6c3.3-4.6,2-11.7,1.9-12.4c-0.7-5.1-3.4-7.4-5.5-8.3
		c-1.6-0.7-3.4-1-5.3-0.9l-0.2,0c-1.1,0.1-3.2,0.5-5.1,1.8c-1.9,1.3-4.2,4.1-3.9,9.3c0,0.7,0.1,8,4.2,11.8
		C55.4,52.5,57.8,53.2,60.7,53L60.7,53z M52,38.9C52,38.9,52,38.8,52,38.9c-0.3-7.1,4.5-8.3,6.6-8.5l0.1,0c2.6-0.2,7.2,0.4,8.1,7
		c0,0,0,0.1,0,0.1c0,0.1,1.3,6.6-1.4,10.3c-1.1,1.5-2.6,2.3-4.8,2.5l-0.1,0c-2.1,0.2-3.8-0.3-5.2-1.6C52,45.6,52,39,52,38.9L52,38.9
		z M52,38.9"/>
	<path class="st0" d="M81.9,63L81.9,63c0-0.1,0-0.2,0-0.3c-0.2-1.9-0.8-6.4-5.1-7.4c0,0-0.1,0-0.1,0c-4.5-0.7-8.3-2.9-8.4-2.9
		c-0.6-0.4-1.4-0.1-1.8,0.5c-0.4,0.6-0.1,1.4,0.5,1.8c0.2,0.1,4.3,2.4,9.2,3.2c2.3,0.6,2.8,3,3.1,5.2c0,0.1,0,0.2,0,0.2
		c0.1,0.9,0.2,2.2,0.1,3c-1.5,1-7.3,4.7-16.7,5.6c-9.3,0.9-15.8-1.6-17.5-2.3c-0.2-0.8-0.4-2.1-0.5-3c0-0.1,0-0.2,0-0.2
		c-0.1-2.2-0.1-4.6,2.1-5.7c4.7-1.7,8.3-4.8,8.5-4.9c0.6-0.5,0.6-1.3,0.1-1.9c-0.5-0.6-1.3-0.6-1.9-0.1c0,0-3.4,2.9-7.7,4.4
		c0,0-0.1,0-0.1,0c-4.1,1.8-3.8,6.3-3.6,8.3c0,0.1,0,0.2,0,0.2l0,0c0,0.5,0.3,3.1,0.9,4.3c0.1,0.2,0.3,0.4,0.6,0.6
		c0.3,0.2,7.7,3.9,19.3,2.8s18.2-6.2,18.5-6.4c0.2-0.2,0.4-0.4,0.4-0.7C82.2,66.1,81.9,63.5,81.9,63L81.9,63z M81.9,63"/>
	<polygon class="st0" points="45.5,60.5 47.8,64.9 57.9,59.5 55.6,54.3 53.7,55.3 55.2,58.5 48.5,62 47.2,59.6 	"/>
	<polygon class="st0" points="77.4,57.4 75.9,62.2 65.1,58.9 66.3,53.3 68.3,53.9 67.4,57.4 74.7,59.5 75.5,56.8 	"/>
	<polygon class="st0" points="57.9,59.5 61.2,56.5 65.1,58.9 65.5,56.9 61,54 57,57.6 	"/>
	
		<rect x="60.7" y="55.8" transform="matrix(0.9954 -9.539369e-02 9.539369e-02 0.9954 -5.8521 6.2016)" class="st0" width="2.4" height="17.1"/>
	<path class="st0" d="M72.8,65.4L66.6,66c-0.4,0-0.8-0.3-0.9-0.7l-0.1-0.6c0-0.4,0.3-0.8,0.7-0.9l6.2-0.6c0.4,0,0.8,0.3,0.9,0.7
		l0.1,0.6C73.6,65,73.2,65.4,72.8,65.4z"/>
</g>
</svg>
