<?xml version="1.0" encoding="utf-8"?>
<!-- Generator: Adobe Illustrator 21.1.0, SVG Export Plug-In . SVG Version: 6.00 Build 0)  -->
<svg version="1.1" id="Layer_1" xmlns="http://www.w3.org/2000/svg" xmlns:xlink="http://www.w3.org/1999/xlink" x="0px" y="0px"
	 viewBox="0 0 40 40" style="enable-background:new 0 0 40 40;" xml:space="preserve">
<style type="text/css">
	.st0{fill:#FFFFFF;}
</style>
<title>ico-pending</title>
<g>
	<path class="st0" d="M19.9,0.3C9.1,0.3,0.3,9.1,0.3,19.9s8.8,19.7,19.6,19.7s19.7-8.9,19.7-19.7S30.8,0.3,19.9,0.3z M19.9,37.8
		c-9.8,0-17.7-8-17.7-17.7s8-17.8,17.7-17.8s17.7,8,17.7,17.8S29.7,37.8,19.9,37.8z"/>
</g>
<path class="st0" d="M28,13.5L26.5,12c0,0-6.4,6.5-6.5,6.5S13.5,12,13.5,12L12,13.5c0,0,6.5,6.3,6.5,6.5S12,26.5,12,26.5l1.5,1.5
	c0,0,6.4-6.5,6.5-6.5c0.2,0,6.5,6.5,6.5,6.5l1.5-1.5c0,0-6.5-6.4-6.5-6.5C21.5,19.9,28,13.5,28,13.5z"/>
</svg>
