<?xml version="1.0" encoding="utf-8"?>
<!-- Generator: Adobe Illustrator 21.1.0, SVG Export Plug-In . SVG Version: 6.00 Build 0)  -->
<svg version="1.1" id="Layer_1" xmlns="http://www.w3.org/2000/svg" xmlns:xlink="http://www.w3.org/1999/xlink" x="0px" y="0px"
	 viewBox="0 0 512 512" style="enable-background:new 0 0 512 512;" xml:space="preserve">
<g>
	<g>
		<path d="M26.9,448.5C13.7,448.5,3,437.8,3,424.6V126.2c0-6.4,2.5-12.4,7-16.9s10.5-7,16.9-7h43.6v-39c0-13.2,10.7-23.9,23.9-23.9
			h127c8.3,0,16.3,3,22.6,8.4l35.4,30.6c3.5,3,7.9,4.6,12.5,4.6h193.2c13.2,0,23.9,10.7,23.9,23.9v254.8c0,13.2-10.7,23.9-23.9,23.9
			h-43.6v38.9c0,13.2-10.7,23.9-23.9,23.9H26.9V448.5z M18.5,424.6c0,4.6,3.8,8.4,8.4,8.4h390.7c4.5,0,8.3-3.7,8.4-8.2V224.4H18.5
			V424.6z M94.4,55c-4.6,0-8.4,3.8-8.4,8.4v39h67.8c8.3,0,16.3,3,22.6,8.4l35.4,30.6c3.5,3,7.9,4.6,12.5,4.6h193.2
			c13.2,0,23.9,10.7,23.9,23.9v200.3H485c4.6,0,8.4-3.8,8.4-8.4V107c0-4.6-3.8-8.4-8.4-8.4H291.9c-8.3,0-16.3-3-22.6-8.4l-35.4-30.6
			c-3.5-3-7.9-4.6-12.5-4.6L94.4,55L94.4,55z M26.9,117.9c-4.6,0-8.4,3.8-8.4,8.4V209H426v-39c0-4.6-3.8-8.4-8.4-8.4H224.4
			c-8.3,0-16.3-3-22.6-8.4l-35.4-30.6c-3.5-3-7.9-4.6-12.5-4.6h-127V117.9z"/>
	</g>
</g>
</svg>
