<svg id="Layer_1" data-name="Layer 1" xmlns="http://www.w3.org/2000/svg" viewBox="0 0 136.79 136.79"><defs><style>.cls-1{fill:#fff;}</style></defs><title>ico-menu-close</title><path class="cls-1" d="M90.64,73.22a3,3,0,0,1,0-4.36L137.49,22a6.76,6.76,0,0,0,1.87-4.36,6.81,6.81,0,0,0-1.87-4.4L128.74,4.5a6.69,6.69,0,0,0-4.36-1.86A5.67,5.67,0,0,0,120,4.5L73.14,51.35a3,3,0,0,1-4.36,0L21.93,4.5a6.75,6.75,0,0,0-4.36-1.86,6.79,6.79,0,0,0-4.4,1.86L4.42,13.26a6.79,6.79,0,0,0-1.86,4.4A6.75,6.75,0,0,0,4.42,22L51.27,68.85a3,3,0,0,1,0,4.36L4.42,120.06a6.76,6.76,0,0,0-1.86,4.4,6.68,6.68,0,0,0,1.86,4.36l8.75,8.75a6.81,6.81,0,0,0,4.4,1.87,6.76,6.76,0,0,0,4.36-1.87L68.77,90.72a3,3,0,0,1,4.36,0L120,137.57a6.78,6.78,0,0,0,4.4,1.87,6.7,6.7,0,0,0,4.36-1.87l8.75-8.75a6.7,6.7,0,0,0,1.87-4.36,6.77,6.77,0,0,0-1.87-4.4Zm0,0" transform="translate(-2.56 -2.65)"/></svg>