<svg id="Layer_1" data-name="Layer 1" xmlns="http://www.w3.org/2000/svg" viewBox="0 0 101.7 87.17"><defs><style>.cls-1{fill:#224f9c;}</style></defs><title>ico-claims</title><path class="cls-1" d="M27,48.37a12.23,12.23,0,0,0-3.74,9v47.21A12.79,12.79,0,0,0,36,117.27h1.82V44.63H36a12.24,12.24,0,0,0-9,3.75Zm0,0" transform="translate(-23.3 -30.1)"/><path class="cls-1" d="M95.94,35.55A5.43,5.43,0,0,0,90.5,30.1H57.81a5.42,5.42,0,0,0-5.45,5.45v9.08h-8v72.64h59.6V44.63h-8ZM59.62,37.36H88.68v7.26H59.62Zm36.32,49a1.75,1.75,0,0,1-1.82,1.82H81.41v12.71a1.75,1.75,0,0,1-1.81,1.81H68.7a1.75,1.75,0,0,1-1.82-1.81V88.21H54.17a1.75,1.75,0,0,1-1.82-1.82V75.5a1.75,1.75,0,0,1,1.82-1.81H66.89V61a1.75,1.75,0,0,1,1.82-1.82H79.6A1.75,1.75,0,0,1,81.41,61V73.69H94.13a1.74,1.74,0,0,1,1.81,1.81V86.4Zm0,0" transform="translate(-23.3 -30.1)"/><path class="cls-1" d="M121.26,48.37a12.24,12.24,0,0,0-9-3.75h-1.82v72.64h1.82A12.79,12.79,0,0,0,125,104.55V57.34a12.23,12.23,0,0,0-3.74-9Zm0,0" transform="translate(-23.3 -30.1)"/></svg>