<?xml version="1.0" encoding="utf-8"?>
<!-- Generator: Adobe Illustrator 21.1.0, SVG Export Plug-In . SVG Version: 6.00 Build 0)  -->
<svg version="1.1" id="Layer_1" xmlns="http://www.w3.org/2000/svg" xmlns:xlink="http://www.w3.org/1999/xlink" x="0px" y="0px"
	 viewBox="0 0 100 100" style="enable-background:new 0 0 100 100;" xml:space="preserve">
<style type="text/css">
	.st0{fill:#444444;}
</style>
<g>
	<path class="st0" d="M34.8,25.5"/>
	<path class="st0" d="M34.8,25.5"/>
	<path class="st0" d="M48.9,52.6v-0.1c-5.3-0.3-9.7-2.3-13-5.9c-6.6-7.4-6.5-19.5-6.2-24.3l0-0.2c0.5-10.6,5.5-15.5,9.6-17.8
		c4.3-2.4,8.8-2.7,10.5-2.7h0.3c4,0.1,7.5,1,10.5,2.8c4,2.3,9,7.2,9.5,17.8c0,0.1,1.7,15.7-6.2,24.6c-3.4,3.9-8.1,5.9-13.8,6h0H48.9
		z M49.8,6.4c-5.4,0-14.6,2.1-15.2,15.8l0,0.2l0,0.1c-0.2,3.3-0.6,14.6,5,20.8c2.6,2.9,5.9,4.2,10.3,4.3h0.2c4.5,0,7.7-1.4,10.3-4.3
		c5.9-6.6,5.1-18.5,4.9-20.8c0-0.1,0-0.2,0-0.2v-0.1C64.7,9.6,56.7,6.6,50.1,6.4L49.8,6.4z"/>
	<path class="st0" d="M90.6,80.1"/>
	<path class="st0" d="M90.6,80.1"/>
	<path class="st0" d="M50,99.5c-22.9,0-36.9-8.5-38.4-9.4l0,0c-0.4-0.3-0.7-0.7-0.9-1.2c-0.8-2.2-1-6.5-0.9-8.9l0-0.6
		c0.1-3.9,0.3-12.8,8.8-15.8l0.1,0h0.1c3.6-0.9,9.3-2.9,16.1-7.3c0.2-0.1,0.3-0.2,0.4-0.2c0.4-0.3,0.9-0.4,1.3-0.4
		c0.8,0,1.6,0.4,2,1c0.6,0.7,0.5,1.4,0.4,1.9c-0.2,0.7-0.5,1.2-1,1.5l-0.2,0.2h-0.1c-3.4,2.2-10,6-17.6,8c-4.8,1.7-5.3,6.7-5.4,11.2
		V80c0,1.8,0.1,4.5,0.4,6.1l0.1,0c3.5,1.9,16.2,8.2,35,8.2c18.9,0,31.5-6.2,34.9-8.1l0.1-0.1l0,0c0.3-1.6,0.5-4.3,0.4-6.1l0-0.5
		C85.5,75,85,70,80.2,68.4c-9-2.3-16.5-7.2-17.9-8.2c-0.6-0.4-0.9-0.9-1.1-1.5c-0.1-0.7,0-1.4,0.4-1.9c0.5-0.7,1.3-1,2.1-1
		c0.5,0,1,0.2,1.4,0.4c0.1,0.1,7.6,5.2,16.4,7.5h0l0.2,0c8.5,2.9,8.7,11.9,8.8,15.7v0.5c0,2.9-0.2,6.8-1,8.9
		c-0.2,0.5-0.5,0.9-0.9,1.2C87.2,90.9,73.3,99.5,50,99.5z"/>
	<path class="st0" d="M50,98.7c-23.8,0-37.9-9.2-38-9.3c-0.3-0.2-0.5-0.5-0.6-0.8c-0.8-2.1-1-6.4-0.9-8.6c0-0.2,0-0.4,0-0.6
		c0.1-4,0.4-12.3,8.3-15h0.1c9.1-2.3,16.7-7.6,16.8-7.6c0.3-0.2,0.6-0.3,0.9-0.3c0.5,0,1.1,0.3,1.4,0.7c0.3,0.4,0.4,0.8,0.3,1.2
		c-0.1,0.4-0.3,0.8-0.7,1.1h-0.1c-2,1.3-9.1,5.8-17.6,8c-5.3,1.9-5.9,7.2-6,12c0,0.1,0,0.2,0,0.2c0,0.1,0,0.2,0,0.3
		c0,1.8,0.1,4.6,0.4,6.3l0.1,0.4l0.4,0.2c3.4,1.9,16.1,8.3,35.4,8.3s31.9-6.3,35.3-8.2l0.4-0.2l0.1-0.4c0.3-1.6,0.5-4.4,0.4-6.3V80
		c0-0.1,0-0.2,0-0.4c-0.1-4.9-0.7-10.2-5.9-12c-9.7-2.5-17.5-7.9-17.8-8.1c-0.8-0.5-0.9-1.6-0.4-2.3c0.3-0.4,0.8-0.7,1.4-0.7
		c0.3,0,0.7,0.1,1,0.3c0,0,7.6,5.3,16.7,7.6h0.1c7.9,2.7,8.2,11,8.3,15c0,0.1,0,0.2,0,0.3c0,0.1,0,0.1,0,0.2c0,2.3-0.1,6.5-0.9,8.6
		c-0.1,0.3-0.3,0.6-0.6,0.8C86.6,90.4,72.8,98.7,50,98.7z"/>
</g>
<rect x="47.8" y="59.1" class="st0" width="4.5" height="38.4"/>
<rect x="48.6" y="59.9" class="st0" width="2.9" height="36.8"/>
<path class="st0" d="M20,75.2c-0.6,0-1.2-0.4-1.5-0.9l-2.6-5.8c-0.2-0.3-0.2-0.8-0.1-1.2c0.1-0.4,0.4-0.8,0.8-1l3-1.4l1.8,4.4
	l0.1-0.1l13.9-4.5c0,0,0,0,0-0.1l-1.1-6.3l4.5-1.8l2.1,9.3c0.3,0.8,0,1.7-0.8,2.1l-19.5,7C20.4,75.1,20.2,75.2,20,75.2z"/>
<path class="st0" d="M35.2,58.9l1,5.6c0.1,0.4,0,0.8-0.4,1l-14,4.5c-0.4,0.2-0.9,0-1.1-0.4L19.2,66L17,67c-0.4,0.2-0.6,0.7-0.4,1.1
	l2.6,5.8c0.2,0.4,0.7,0.6,1.1,0.4l19.4-7c0.4-0.2,0.6-0.7,0.4-1.1l-1.9-8.5L35.2,58.9z"/>
<polygon class="st0" points="37.5,63.7 50,55.2 62.6,63.9 60.8,68.4 50,60.9 39.2,68.5 "/>
<polygon class="st0" points="39.6,67.2 50,59.9 60.4,67.2 61.6,64.2 50,56.2 38.5,64 "/>
<path class="st0" d="M61.7,79.9c-0.8,0-1.6-0.8-1.6-1.6v-1.4c0-0.8,0.8-1.6,1.6-1.6h10.5c0.8,0,1.6,0.8,1.6,1.6v1.4
	c0,0.8-0.8,1.6-1.6,1.6H61.7z"/>
<path class="st0" d="M72.2,79.1H61.7c-0.4,0-0.8-0.4-0.8-0.8v-1.4c0-0.4,0.4-0.8,0.8-0.8h10.5c0.4,0,0.8,0.4,0.8,0.8v1.4
	C73,78.7,72.6,79.1,72.2,79.1z"/>
<path class="st0" d="M80.2,75.2c-0.2,0-0.5-0.1-0.7-0.2l-19.4-7l-0.1,0c-0.8-0.5-1.1-1.2-0.9-2l2.1-9.4l4.5,1.8l-1.1,6.2
	c0,0.1,0,0.1,0,0.1l13.9,4.5l0.1,0l1.9-4.3l2.9,1.3c0.4,0.2,0.7,0.5,0.8,0.9c0.2,0.4,0.1,0.9-0.1,1.3l-2.6,5.8
	C81.4,74.8,80.9,75.2,80.2,75.2z"/>
<path class="st0" d="M64.9,58.9l-1,5.6c-0.1,0.4,0,0.8,0.4,1l14,4.5c0.4,0.2,0.9,0,1.1-0.4L81,66l2.2,1c0.4,0.2,0.6,0.7,0.4,1.1
	L81,73.9c-0.2,0.4-0.7,0.6-1.1,0.4l-19.4-7C60,67,59.9,66.6,60,66.2l1.9-8.5L64.9,58.9z"/>
</svg>
