<?xml version="1.0" encoding="utf-8"?>
<!-- Generator: Adobe Illustrator 23.0.1, SVG Export Plug-In . SVG Version: 6.00 Build 0)  -->
<svg version="1.1" id="Capa_1" xmlns="http://www.w3.org/2000/svg" xmlns:xlink="http://www.w3.org/1999/xlink" x="0px" y="0px"
	 viewBox="0 0 512 512" style="enable-background:new 0 0 512 512;" xml:space="preserve">
<style type="text/css">
	.st0{fill:url(#SVGID_1_);}
	.st1{fill:url(#SVGID_2_);}
</style>
<g>
	<g>
		<linearGradient id="SVGID_1_" gradientUnits="userSpaceOnUse" x1="176.6717" y1="418.0605" x2="370.8045" y2="23.9121">
			<stop  offset="0" style="stop-color:#3C5894"/>
			<stop  offset="1" style="stop-color:#4FBBC3"/>
		</linearGradient>
		<path class="st0" d="M433.5,79.5C386.1,32.1,323,6,256,6S125.9,32.1,78.5,79.5C31.1,126.9,5,190,5,257s26.1,130.1,73.5,177.5
			C125.9,481.9,189,508,256,508s130.1-26.1,177.5-73.5C480.9,387.1,507,324,507,257S480.9,126.9,433.5,79.5z M256,478.6
			c-122.2,0-221.6-99.4-221.6-221.6S133.8,35.4,256,35.4S477.6,134.8,477.6,257S378.2,478.6,256,478.6z"/>
	</g>
</g>
<g>
	<g>
		<linearGradient id="SVGID_2_" gradientUnits="userSpaceOnUse" x1="175.0916" y1="421.269" x2="373.0916" y2="19.269">
			<stop  offset="0" style="stop-color:#3C5894"/>
			<stop  offset="1" style="stop-color:#4FBBC3"/>
		</linearGradient>
		<path class="st1" d="M272.1,242h-32.1c-18.3,0-33.2-14.9-33.2-33.2c0-18.3,14.9-33.2,33.2-33.2h64.3c8.3,0,15-6.7,15-15
			s-6.7-15-15-15H271v-33.2c0-8.3-6.7-15-15-15s-15,6.7-15,15v33.2h-1.1c-34.8,0-63.2,28.4-63.2,63.2s28.4,63.2,63.2,63.2h32.1
			c18.3,0,33.2,14.9,33.2,33.2s-14.9,33.2-33.2,33.2h-64.3c-8.3,0-15,6.7-15,15s6.7,15,15,15H241v33.2c0,8.3,6.7,15,15,15
			s15-6.7,15-15v-33.2h1.1c34.8,0,63.2-28.4,63.2-63.2S306.9,242,272.1,242z"/>
	</g>
</g>
</svg>
