<?xml version="1.0" encoding="utf-8"?>
<!-- Generator: Adobe Illustrator 21.1.0, SVG Export Plug-In . SVG Version: 6.00 Build 0)  -->
<svg version="1.1" id="Layer_1" xmlns="http://www.w3.org/2000/svg" xmlns:xlink="http://www.w3.org/1999/xlink" x="0px" y="0px"
	 viewBox="0 0 166 100" style="enable-background:new 0 0 166 100;" xml:space="preserve">
<style type="text/css">
	.st0{fill:#444444;}
</style>
<path class="st0" d="M66.9,21.8"/>
<path class="st0" d="M66.9,21.8"/>
<path class="st0" d="M82.6,53.2c-5.8-0.1-10.4-2.1-14.1-6.2c-6.8-7.7-6.8-20.3-6.4-25.3l0-0.2C62.7,10.5,67.8,5.4,72,3
	c4.5-2.5,9.1-2.8,10.8-2.8h0.3c4.1,0.1,7.7,1.1,10.8,2.9c4.2,2.3,9.2,7.4,9.8,18.3c0,0.1,1.8,16.4-6.4,25.6c-3.5,4-8.3,6-14.2,6.1h0
	H82.6z M82.9,4.1c-4.8,0-16.1,1.7-16.8,17.4l0,0.2c-0.3,3.6-0.6,15.8,5.5,22.6c2.9,3.2,6.5,4.7,11.4,4.8h0.2c4.9,0,8.6-1.5,11.4-4.8
	c6.2-7,5.7-19,5.4-22.6c0-0.1,0-0.1,0-0.1v-0.1C99.3,7.6,90.5,4.4,83.2,4.1L82.9,4.1z"/>
<path class="st0" d="M82.6,53c-5.8-0.1-10.4-2.2-13.9-6.2c-7.8-8.7-6.5-23.7-6.4-25.4C62.9,10.6,68,5.5,72.1,3.2s8.5-2.8,10.7-2.8
	h0.3c4,0.1,7.6,1.1,10.7,2.9c4.1,2.3,9.1,7.4,9.7,18.2c0.2,1.7,1.4,16.8-6.4,25.5c-3.5,3.9-8.2,5.9-14,6.1h-0.4H82.6z M65.9,21.7
	c-0.1,1.5-1.2,15.3,5.5,22.7c2.9,3.2,6.6,4.8,11.6,4.9h0.2c5,0,8.7-1.6,11.6-4.9c7.1-8,5.4-22.6,5.4-22.8v-0.1
	c-0.7-15-10.9-17.4-17-17.6h-0.3c-4.9,0-16.3,1.7-17,17.6C65.9,21.6,65.9,21.7,65.9,21.7z"/>
<path class="st0" d="M82.8,66C77,65.9,72.4,63.9,69,60.1c-1-1.1-1.7-2.2-2.4-3.4l-0.1-0.2l4-1.1l0.2,0.3c0.4,0.7,0.7,1.2,1.2,1.8
	c2.8,3.1,6.4,4.6,11.1,4.6h0.2c4.6,0,8.4-1.5,11.1-4.6c0.2-0.2,0.3-0.4,0.5-0.6c0.4-0.4,0.7-0.8,1-1.3l0.1-0.1l3.8,0.9l-0.1,0.2
	c-0.6,1.1-1.5,2.3-2.5,3.4c-3.4,3.8-8,5.8-13.7,5.9h0H82.8z"/>
<path class="st0" d="M99.4,56.6c-0.6,1.2-1.5,2.3-2.4,3.4c-3.4,3.8-8,5.7-13.6,5.8h-0.6c-5.6-0.1-10.2-2-13.6-5.8
	c-1-1.1-1.7-2.1-2.3-3.4l3.6-1c0.4,0.7,0.8,1.4,1.3,2c2.8,3.1,6.4,4.7,11.3,4.7h0.2c4.8,0,8.5-1.6,11.3-4.7c0.5-0.6,1.1-1.3,1.6-1.9
	L99.4,56.6z"/>
<path class="st0" d="M126.2,79.9"/>
<path class="st0" d="M126.2,79.9"/>
<path class="st0" d="M83.1,99.8c-25.3,0-40.4-9.8-40.5-9.9c-0.3-0.2-0.6-0.5-0.7-0.9c-0.8-2.2-1.1-6.8-1-9.2l0-0.6
	c0.1-3.9,0.3-13.2,9-16.1l0.2,0c3.8-1,10-3.1,17.4-7.8c0.2-0.1,0.3-0.2,0.4-0.2c0.3-0.2,0.7-0.3,1.1-0.3c0.6,0,1.3,0.3,1.6,0.8
	c0.4,0.5,0.5,1,0.4,1.4c-0.1,0.5-0.4,1-0.8,1.3l-0.1,0h-0.1c-3.5,2.3-10.6,6.4-18.7,8.5c-5.5,2-6.1,7.5-6.2,12.6v0.5
	c0,2,0.1,4.9,0.4,6.7l0.1,0.3l0.3,0.2c3.7,2.1,17.3,8.8,37.5,8.8c20.3,0,33.8-6.6,37.4-8.7l0.4-0.2l0.1-0.3c0.3-1.8,0.5-4.7,0.4-6.6
	l0-0.5c-0.1-5.1-0.7-10.7-6.1-12.6c-9.6-2.5-17.4-7.6-18.9-8.6c-0.5-0.3-0.7-0.7-0.8-1.2c-0.1-0.5,0-1.1,0.3-1.5
	c0.4-0.5,1-0.8,1.6-0.8c0.4,0,0.9,0.1,1.2,0.4c0.1,0.1,8.2,5.6,17.7,8l0.1,0c8.7,3,8.9,12.2,9,16.1l0,0.5c0,3-0.2,7.1-1,9.2
	c-0.1,0.4-0.4,0.7-0.7,0.9C122.3,90.8,107.7,99.8,83.1,99.8z"/>
<path class="st0" d="M83.1,99.6c-25.3,0-40.3-9.8-40.4-9.9c-0.3-0.2-0.5-0.5-0.6-0.8c-0.8-2.2-1.1-6.8-1-9.1c0-0.2,0-0.4,0-0.6
	c0.1-4.2,0.4-13.1,8.8-15.9H50c9.7-2.4,17.7-8.1,17.8-8.1c0.3-0.2,0.6-0.3,1-0.3c0.5,0,1.2,0.3,1.5,0.7c0.3,0.4,0.4,0.8,0.3,1.3
	c-0.1,0.4-0.3,0.8-0.7,1.2h-0.1c-2.1,1.4-9.7,6.2-18.7,8.5c-5.6,2-6.3,7.6-6.4,12.7c0,0.1,0,0.2,0,0.2c0,0.1,0,0.2,0,0.3
	c0,1.9,0.1,4.9,0.4,6.7l0.1,0.4l0.4,0.2c3.6,2,17.1,8.8,37.6,8.8s33.9-6.7,37.5-8.7l0.4-0.2l0.1-0.4c0.3-1.7,0.5-4.7,0.4-6.7v-0.1
	c0-0.1,0-0.2,0-0.4c-0.1-5.2-0.7-10.8-6.3-12.7c-10.3-2.7-18.6-8.4-18.9-8.6c-0.8-0.5-1-1.7-0.4-2.4c0.3-0.4,0.8-0.7,1.5-0.7
	c0.3,0,0.7,0.1,1.1,0.3c0,0,8.1,5.6,17.7,8.1h0.1c8.4,2.9,8.7,11.7,8.8,15.9c0,0.1,0,0.2,0,0.3c0,0.1,0,0.1,0,0.2
	c0,2.4-0.1,6.9-1,9.1c-0.1,0.3-0.3,0.6-0.6,0.8C121.9,90.8,107.3,99.6,83.1,99.6z"/>
<g>
	<path class="st0" d="M355-72.7"/>
	<path class="st0" d="M355-72.7"/>
	<path class="st0" d="M364.5-52.7h-0.1c-3.6-0.2-6.4-1.6-8.6-4c-4.4-4.9-4.3-12.9-4.1-16.1l0-0.1c0.3-7,3.6-10.3,6.3-11.8
		c2.9-1.6,5.8-1.8,6.9-1.8h0.2c2.6,0.1,5,0.7,6.9,1.9c2.7,1.5,5.9,4.8,6.3,11.7c0,0.1,1.1,10.4-4.1,16.3c-2.3,2.5-5.3,3.9-9.1,3.9h0
		H364.5z M365-83.6c-2.9,0-9.8,1-10.3,10.7l0,0.1c-0.2,2.3-0.4,9.9,3.4,14c1.7,1.9,4,2.9,7,2.9h0.1c3,0,5.2-0.9,7-2.9
		c4-4.4,3.5-12.4,3.3-14l0-0.1c-0.4-8.6-5.8-10.6-10.3-10.8H365z"/>
	<path class="st0" d="M370.3-19.6c-1.6,0.1-3.4,0.2-5.2,0.2c-16,0-25.6-6.3-25.7-6.3c-0.2-0.1-0.4-0.4-0.5-0.7
		c-0.5-1.4-0.7-8.3-0.6-9.9l0-0.4c0.1-2.5,0.2-8.5,5.8-10.4l0.1,0h0.1c2.4-0.6,6.2-1.9,10.8-4.9c0.1-0.1,0.2-0.1,0.2-0.1
		c0.3-0.2,0.5-0.3,0.8-0.3c0.5,0,1,0.3,1.3,0.6c0.3,0.5,0.3,0.9,0.3,1.1c-0.1,0.4-0.3,0.7-0.6,1l-0.1,0.1h-0.1
		c-2.3,1.5-6.7,4-11.8,5.3c-3.3,1.2-3.6,4.6-3.7,7.6v0.3c0,1.2,0.1,7,0.3,8.1l0,0.1l0.1,0.1c2.3,1.3,10.8,5.5,23.5,5.5
		c1.8,0,3.5-0.1,5.2-0.2L370.3-19.6z"/>
	<path class="st0" d="M385.2-44.2l3.5-1.6c-0.7-0.5-1.8-0.9-2.8-1.2c-5.6-1.6-10.6-5.1-10.7-5.1c-0.2-0.2-0.6-0.3-0.9-0.3
		c-0.5,0-1,0.2-1.3,0.6c-0.2,0.3-0.3,0.8-0.2,1.2c0.1,0.4,0.3,0.7,0.6,0.9c0.9,0.6,5.9,3.9,12,5.4"/>
	<path class="st0" d="M356.6-44.9l1.1-6l-2.4-0.8c0,0-1.2,7.2-1.3,8.6s1.2,2.2,2.5,1.3c0.1-0.1,1-0.7,1-0.7l7.6-5.6v-2.8l-8.5,6"/>
	<path class="st0" d="M373.9-44.8l-1.1-6l2.4-0.8c0,0,1.2,7.2,1.3,8.6s-1.2,2.2-2.5,1.3c-0.1-0.1-1-0.7-1-0.7l-7.6-5.6v-2.8l8.5,6"
		/>
	<rect x="363.9" y="-49.1" class="st0" width="2.7" height="27.5"/>
</g>
<g>
	<path class="st0" d="M139,62.2c-4.7,0-9.3-1.3-13.4-3.7c-3.7-2.2-6.8-5.2-9.1-8.9c-0.3,0-0.7,0-1,0c-3.1,0-6.1-0.8-8.6-2.3
		c-0.5-0.3-1.1-0.7-1.6-1.1c-1-0.8-1.3-2.1-0.8-3.3c0.4-1.1,1.5-1.8,2.6-1.8c0.1,0,0.1,0,0.2,0c0.1,0,0.3,0,0.4,0
		c1.5,0,3.2-0.6,5.1-1.8c-2-13.4,6.5-26,19.6-29.4c2.2-0.6,4.4-0.8,6.7-0.8c4.7,0,9.3,1.3,13.4,3.7c6.1,3.6,10.4,9.4,12.2,16.2
		c1.8,6.8,0.7,14-2.9,20.1c-3.6,6.1-9.4,10.4-16.2,12.2C143.5,61.9,141.2,62.2,139,62.2z M117.5,45.7c0.3,0,0.7,0.1,1,0.3
		c0.3,0.2,0.5,0.4,0.7,0.7c2,3.5,4.8,6.5,8.3,8.5c3.5,2.1,7.5,3.2,11.5,3.2c1.9,0,3.8-0.2,5.7-0.7c5.9-1.5,10.8-5.2,13.9-10.4
		c3.1-5.2,4-11.3,2.5-17.2c-1.5-5.9-5.2-10.8-10.4-13.9c-3.5-2.1-7.5-3.2-11.5-3.2c-1.9,0-3.8,0.2-5.7,0.7
		c-11.6,3-18.9,14.5-16.6,26.3c0.1,0.7-0.2,1.5-0.7,1.9c-2.1,1.5-4,2.5-5.9,2.9c1.3,0.5,3.1,1.1,5.4,1.1c0.6,0,1.2,0,1.8-0.1
		C117.4,45.7,117.4,45.7,117.5,45.7z"/>
	<path class="st0" d="M139,62c-4.7,0-9.3-1.3-13.3-3.7c-3.7-2.2-6.8-5.3-9.1-8.9c-0.4,0-0.7,0-1.1,0c-3.1,0-6.1-0.8-8.5-2.2
		c-0.5-0.3-1-0.7-1.5-1.1c-0.9-0.7-1.2-2-0.8-3c0.4-1,1.4-1.7,2.5-1.7c0.1,0,0.1,0,0.2,0c0.1,0,0.3,0,0.4,0c1.5,0,3.3-0.6,5.3-1.9
		c-2-13.4,6.3-26,19.5-29.3c2.2-0.6,4.4-0.8,6.6-0.8c4.7,0,9.3,1.3,13.3,3.7c6,3.6,10.3,9.3,12.1,16.1c1.7,6.8,0.7,13.9-2.8,19.9
		c-3.6,6-9.3,10.3-16.1,12.1C143.4,61.7,141.2,62,139,62C139,62,139,62,139,62z M117.5,45.9c0.3,0,0.6,0.1,0.9,0.2
		c0.2,0.1,0.5,0.4,0.6,0.6c2,3.6,4.9,6.5,8.4,8.6c3.5,2.1,7.6,3.2,11.6,3.2c1.9,0,3.9-0.2,5.7-0.7c5.9-1.5,10.9-5.3,14-10.5
		c3.1-5.3,4-11.4,2.5-17.4c-1.5-5.9-5.3-10.9-10.5-14c-3.5-2.1-7.6-3.2-11.6-3.2c-1.9,0-3.9,0.2-5.7,0.7
		c-11.7,3-19.1,14.7-16.8,26.5c0.1,0.6-0.1,1.3-0.7,1.7c-2.3,1.7-4.4,2.6-6.4,3c1.2,0.6,3.3,1.4,6,1.4c0.6,0,1.2,0,1.8-0.1
		C117.4,45.9,117.4,45.9,117.5,45.9z"/>
</g>
<path class="st0" d="M128.1,30.2c-0.9,0-1.7-0.8-1.7-1.7s0.8-1.7,1.7-1.7H150c0.9,0,1.7,0.8,1.7,1.7s-0.8,1.7-1.7,1.7H128.1z"/>
<path class="st0" d="M150,27.1h-21.8c-0.8,0-1.5,0.7-1.5,1.5c0,0.8,0.7,1.5,1.5,1.5H150c0.8,0,1.5-0.7,1.5-1.5
	C151.4,27.7,150.8,27.1,150,27.1L150,27.1z M150,27.1"/>
<path class="st0" d="M128.1,37.4c-0.9,0-1.7-0.8-1.7-1.7s0.8-1.7,1.7-1.7H150c0.9,0,1.7,0.8,1.7,1.7s-0.8,1.7-1.7,1.7H128.1z"/>
<path class="st0" d="M150,34.2h-21.8c-0.8,0-1.5,0.7-1.5,1.5c0,0.8,0.7,1.5,1.5,1.5H150c0.8,0,1.5-0.7,1.5-1.5
	C151.4,34.9,150.8,34.2,150,34.2L150,34.2z M150,34.2"/>
<path class="st0" d="M128.1,44.5c-0.9,0-1.7-0.8-1.7-1.7c0-0.9,0.8-1.7,1.7-1.7H150c0.9,0,1.7,0.8,1.7,1.7c0,0.9-0.8,1.7-1.7,1.7
	H128.1z"/>
<path class="st0" d="M150,41.4h-21.8c-0.8,0-1.5,0.7-1.5,1.5s0.7,1.5,1.5,1.5H150c0.8,0,1.5-0.7,1.5-1.5S150.8,41.4,150,41.4
	L150,41.4z M150,41.4"/>
</svg>
