<svg id="Layer_1" data-name="Layer 1" xmlns="http://www.w3.org/2000/svg" viewBox="0 0 41.46 41.56"><defs><style>.cls-1{fill:#1057a7;}</style></defs><title>ico-add-blue</title><path class="cls-1" d="M15.11,41.52a1.14,1.14,0,0,1-.94-.42,1.56,1.56,0,0,1-.42-.94V27.77H1.37a1.14,1.14,0,0,1-.94-.42,1.34,1.34,0,0,1-.42-1V15.07a1.39,1.39,0,0,1,1.36-1.36H13.75V1.32A1.39,1.39,0,0,1,15.11,0H26.34a1.14,1.14,0,0,1,.94.42,1.56,1.56,0,0,1,.42.94V13.71H40.09a1.14,1.14,0,0,1,.94.42,1.56,1.56,0,0,1,.42.94V26.3a1.39,1.39,0,0,1-1.36,1.36H27.71V40a1.39,1.39,0,0,1-1.36,1.36Zm0-16.58a1.14,1.14,0,0,1,.94.42,1.56,1.56,0,0,1,.42.94V38.68H25V26.3a1.39,1.39,0,0,1,1.36-1.36H38.73v-8.5H26.34A1.14,1.14,0,0,1,25.4,16a1.56,1.56,0,0,1-.42-.94V2.69h-8.5V15.07a1.39,1.39,0,0,1-1.36,1.36H2.73v8.5Z" transform="translate(0 0.04)"/></svg>