<?xml version="1.0" encoding="utf-8"?>
<!-- Generator: Adobe Illustrator 21.1.0, SVG Export Plug-In . SVG Version: 6.00 Build 0)  -->
<svg version="1.1" id="Capa_1" xmlns="http://www.w3.org/2000/svg" xmlns:xlink="http://www.w3.org/1999/xlink" x="0px" y="0px"
	 viewBox="0 0 512 512" style="enable-background:new 0 0 512 512;" xml:space="preserve">
<style type="text/css">
	.st0{fill:url(#SVGID_1_);}
	.st1{fill:url(#SVGID_2_);}
</style>
<g>
	<linearGradient id="SVGID_1_" gradientUnits="userSpaceOnUse" x1="268.6504" y1="365.5354" x2="181.6504" y2="28.5354">
		<stop  offset="0" style="stop-color:#3C5894"/>
		<stop  offset="1" style="stop-color:#4FBBC3"/>
	</linearGradient>
	<path class="st0" d="M215.8,362.3c-7.9,0-14.6-2.7-19.9-8c-5-5-8-12.3-8-19.4v-59.4h-16.7c-5.4,0-10.5-2.1-14.3-6
		c-3.4-3.4-4.1-7.7-4.1-11.7c0-5.3,3.4-10.6,4.8-12.5l66.9-87.9v-0.4c0.1-0.1,0.3-0.3,0.4-0.4c3.8-3.8,8.4-6.1,13-6.5
		c0.7-0.1,1.5-0.1,2.2-0.1c3,0,7.5,0.6,11.5,3.7l2,2c0.3,0.8,0.9,1.4,1.4,1.9l0.4,0.4l69,85.2c3.2,4.6,4.6,9.7,4.2,14.9
		c-0.5,5-3.3,10.2-7.4,13.3c-1.3,1-3,1.8-4.7,2.6c-0.5,0.2-0.9,0.4-1.4,0.7c-0.3,0.1-0.6,0.1-0.8,0.2c-1.5,0.4-2.6,0.7-4.1,0.7H292
		v58.9c0,7.9-2.7,14.6-8,19.9c-5,5-12.3,8-19.4,8H215.8z M171.1,257.1H196c5,0,9.2,4.2,9.2,9.2v68.1c0,2.5,1.1,5,3.1,7
		c2,2,4.5,3.1,7,3.1H264c2.5,0,5-1.1,7-3.1c2-2,3.1-4.5,3.1-7v-68.1c0-5,4.2-9.2,9.2-9.2h30.1l-73.3-90.5l-36.1,44.6L171.1,257.1z"
		/>
	<linearGradient id="SVGID_2_" gradientUnits="userSpaceOnUse" x1="259.3477" y1="367.937" x2="172.3477" y2="30.9369">
		<stop  offset="0" style="stop-color:#3C5894"/>
		<stop  offset="1" style="stop-color:#4FBBC3"/>
	</linearGradient>
	<path class="st1" d="M85.2,505c-8.1,0-16.2-3.4-23-9.6c-6.3-6.8-9.5-15-9.1-22.9l0-432.3c0-8.3,3.7-17.1,9.6-23
		c6.1-6.1,14.5-9.6,23-9.6H325c1.7,0,2.6,0,3.5,0.4c0.2,0.2,0.4,0.4,0.6,0.6c0.3,0.3,0.6,0.6,1,0.8l96.1,96.6l0.1,0.3
		c0.5,1.5,0.9,2.7,0.9,4.4v361.6c0,8.3-3.7,17.1-9.6,23l-0.5,0.5c-5.8,5.8-13.9,9.1-22.5,9.1H85.2z M71,472.5
		c0,4.3,1.4,7.8,4.1,10.6l0.1,0.1l0.1,0.1c3.3,2.7,6.8,4,10.4,4h308.8c4,0,7.6-2.2,9.9-4l0.1-0.1l0.6-0.6c3.1-3.1,4.6-6.6,4.6-10.6
		V119.5h-59.9c-9.3,0-17.8-3.4-24-9.6l-0.5-0.5c-6.9-6.9-10.6-15.6-10.6-25V25H85.2c-4.3,0-7.8,1.4-10.6,4.1l-0.1,0.1l-0.1,0.1
		c-2.6,3.3-4,6.8-4,10.4L71,472.5z M332.1,84.4c0,4.3,2,8.9,5.2,12.1l0.6,0.6l0.1,0.1c3.6,3,7.6,4.5,11.9,4.5h47l-61.4-61.4h-3.3
		V84.4z"/>
</g>
</svg>
