<svg id="Layer_1" data-name="Layer 1" xmlns="http://www.w3.org/2000/svg" viewBox="0 0 64.07 59.23"><defs><style>.cls-1{fill:#1057a7;}</style></defs><title>ico-needs</title><path class="cls-1" d="M22.45,29.9V40a4,4,0,1,0,8.08,0V29.9a4,4,0,1,0-8.08,0Z" transform="translate(-6.98 -1.33)"/><path class="cls-1" d="M32.56,25.85V40a4,4,0,1,0,8.08,0V25.85a4,4,0,1,0-8.08,0Z" transform="translate(-6.98 -1.33)"/><path class="cls-1" d="M42.65,21.81V40a4,4,0,1,0,8.08,0V21.81a4,4,0,1,0-8.08,0Z" transform="translate(-6.98 -1.33)"/><path class="cls-1" d="M70.93,26.32a1.34,1.34,0,0,0-1.22-.77h-4a29.61,29.61,0,1,0-3.47,20.21,2.69,2.69,0,0,0-4.66-2.7h0a24.27,24.27,0,1,1,2.63-17.54h-4a1.35,1.35,0,0,0-1,2.2l6.74,8.08a1.35,1.35,0,0,0,1.9.16L64,35.8l6.74-8.08A1.34,1.34,0,0,0,70.93,26.32Z" transform="translate(-6.98 -1.33)"/></svg>