<svg id="Layer_1" data-name="Layer 1" xmlns="http://www.w3.org/2000/svg" viewBox="0 0 14.83 14.66"><defs><style>.cls-1{fill:#757575;}</style></defs><title>ico-contact-gray</title><path class="cls-1" d="M11.26,2.58a6,6,0,0,0-4,1.55A2.53,2.53,0,0,1,7.6,5.41h0c0,.21,0,.41,0,.62a4.48,4.48,0,1,1,3.7,7.11c.22.19.45.36.69.53h0a2.54,2.54,0,0,1,.77.87A6.07,6.07,0,0,0,11.26,2.58Zm0,0" transform="translate(-2.5 -2.58)"/><path class="cls-1" d="M11.11,15c-.69-.55-1.13-.92-1.75-1.5a1,1,0,0,0-.63-.27.77.77,0,0,0-.49.17l-.44.37A13.36,13.36,0,0,1,5.2,8.89l.55-.16a.87.87,0,0,0,.54-1c-.13-.95-.2-1.42-.28-2.28a.87.87,0,0,0-.76-.85H5c-1.58,0-2.95,1.83-2.44,4.06a15.82,15.82,0,0,0,4,7.37,3.72,3.72,0,0,0,2.67,1.22,2.38,2.38,0,0,0,2.17-1.18A.87.87,0,0,0,11.11,15Zm0,0" transform="translate(-2.5 -2.58)"/><path class="cls-1" d="M10.67,10.49H8.07V9.92c.24-.23.73-.73,1-1a1.92,1.92,0,0,0,.66-1.24c0-.42-.22-.55-.5-.55a1.37,1.37,0,0,0-.86.4L7.95,7a2.17,2.17,0,0,1,1.53-.6,1.1,1.1,0,0,1,1.18,1.16,2.23,2.23,0,0,1-.71,1.38c-.18.2-.46.47-.72.72L9,9.84a6.25,6.25,0,0,1,.64,0h1.21Z" transform="translate(-2.5 -2.58)"/><path class="cls-1" d="M13.76,9.73h-.19a.67.67,0,0,1,0,.22v.7l-.77.1V9.87c0-.05,0-.15,0-.15a.87.87,0,0,1-.19,0H11V9.18l1.17-2.75H13l-.86,2A4.07,4.07,0,0,1,11.9,9h1s0-.08,0-.11,0-.51,0-.81L13,7.42l.64-.15V8.47c0,.14,0,.41,0,.58H14v.7Z" transform="translate(-2.5 -2.58)"/></svg>