<svg id="Layer_1" data-name="Layer 1" xmlns="http://www.w3.org/2000/svg" viewBox="0 0 39.57 39.57"><title>ico-calendar</title><path d="M5.16,6.49V1.54a1.24,1.24,0,1,1,2.47,0V6.49a1.24,1.24,0,1,1-2.47,0Zm21,1.24a1.24,1.24,0,0,0,1.24-1.24V1.54a1.24,1.24,0,0,0-2.47,0V6.49a1.24,1.24,0,0,0,1.24,1.24ZM39.79,30a9.89,9.89,0,1,1-9.89-9.89A9.89,9.89,0,0,1,39.79,30Zm-2.47,0a7.42,7.42,0,1,0-7.42,7.42A7.43,7.43,0,0,0,37.31,30ZM10.11,15.14H5.16v4.95h4.95ZM5.16,27.51h4.95V22.56H5.16Zm7.42-7.42h4.95V15.14H12.58Zm0,7.42h4.95V22.56H12.58ZM2.69,29.74V12.67H29.89v4.95h2.47V8a2.7,2.7,0,0,0-2.68-2.72h-1V6.49a2.47,2.47,0,1,1-4.95,0V5.25H8.87V6.49a2.47,2.47,0,0,1-4.95,0V5.25h-1A2.7,2.7,0,0,0,.21,8V29.74a2.7,2.7,0,0,0,2.68,2.72H17.53V30H2.89a.23.23,0,0,1-.21-.25Zm22.26-9.65V15.14H20v4.95ZM33.6,30H29.89V26.27a1.24,1.24,0,0,0-2.47,0v4.95a1.24,1.24,0,0,0,1.24,1.24H33.6a1.24,1.24,0,0,0,0-2.47Zm0,0" transform="translate(-0.21 -0.3)"/></svg>