<?xml version="1.0" encoding="utf-8"?>
<!-- Generator: Adobe Illustrator 21.1.0, SVG Export Plug-In . SVG Version: 6.00 Build 0)  -->
<svg version="1.1" id="Layer_1" xmlns:serif="http://www.serif.com/"
	 xmlns="http://www.w3.org/2000/svg" xmlns:xlink="http://www.w3.org/1999/xlink" x="0px" y="0px" viewBox="0 0 55.1 54"
	 style="enable-background:new 0 0 55.1 54;" xml:space="preserve">
<style type="text/css">
	.st0{fill:#FFFFFF;stroke:#444444;stroke-width:3.84;stroke-linecap:round;stroke-linejoin:round;stroke-miterlimit:1.5;}
	.st1{fill:#444444;}
</style>
<g id="circle" transform="matrix(0.912286,0,0,0.909317,-5.23998,-15.4331)">
	<ellipse class="st0" cx="35.8" cy="46.7" rx="24.6" ry="24.5"/>
</g>
<g>
	<path class="st1" d="M27.6,25.9c0,2.6-0.7,4.7-2,6.1c-1.3,1.4-3.2,2.1-5.6,2.1s-4.3-0.7-5.6-2.1c-1.3-1.4-2-3.5-2-6.1
		c0-2.7,0.7-4.7,2-6.1c1.3-1.4,3.2-2.1,5.7-2.1s4.3,0.7,5.6,2.1C27,21.2,27.6,23.3,27.6,25.9z M16,25.9c0,1.8,0.3,3.1,1,4
		c0.7,0.9,1.7,1.4,3,1.4c2.7,0,4.1-1.8,4.1-5.4c0-3.6-1.3-5.4-4-5.4c-1.3,0-2.4,0.5-3.1,1.4C16.3,22.8,16,24.1,16,25.9z"/>
	<path class="st1" d="M33.3,27.8v6.1H30v-16h4.7c2.2,0,3.8,0.4,4.8,1.2c1,0.8,1.6,2,1.6,3.6c0,0.9-0.3,1.8-0.8,2.5S39,26.5,38,27
		c2.4,3.6,4,5.9,4.7,7H39l-3.8-6.1H33.3z M33.3,25h1.1c1.1,0,1.9-0.2,2.4-0.5s0.8-0.9,0.8-1.7c0-0.8-0.3-1.3-0.8-1.6
		c-0.5-0.3-1.3-0.5-2.4-0.5h-1V25z"/>
</g>
</svg>
