<?xml version="1.0" encoding="utf-8"?>
<!-- Generator: Adobe Illustrator 21.1.0, SVG Export Plug-In . SVG Version: 6.00 Build 0)  -->
<svg version="1.1" id="Layer_1" xmlns="http://www.w3.org/2000/svg" xmlns:xlink="http://www.w3.org/1999/xlink" x="0px" y="0px"
	 viewBox="0 0 38.9 37.8" style="enable-background:new 0 0 38.9 37.8;" xml:space="preserve">
<style type="text/css">
	.st0{fill:#666766;}
</style>
<title>ico-medical</title>
<g>
	<g>
		<g>
			<g>
				<path class="st0" d="M20.2,21.2c-2.3,0-3.9,1.6-3.9,3.9v0.6c0,3.1,1.8,5.2,4.5,5.2c2.7,0,4.5-2,4.5-5.2v-0.6
					c0-2.3-1.6-3.9-3.9-3.9H20.2z M24.1,25.1v0.6c0,1.2-0.3,3.9-3.2,3.9c-2.9,0-3.2-2.7-3.2-3.9v-0.6c0-1.6,1-2.6,2.6-2.6h1.3
					C23.1,22.5,24.1,23.5,24.1,25.1z"/>
			</g>
			<path class="st0" d="M19.6,25.1L19.6,25.1c-0.4,0-0.6,0.3-0.6,0.6s0.3,0.6,0.6,0.6c0.4,0,0.6-0.3,0.6-0.6S19.9,25.1,19.6,25.1z"
				/>
			<g>
				<path class="st0" d="M22.7,16.7c0.4,0,0.7-0.2,0.7-0.6l0.6-8.4c0.1-1.5,2.2-3.3,3.9-3.3h1.3c1.7,0,3.8,1.7,3.9,3.3l0.6,8.4
					c0,0.3,0.3,0.6,0.6,0.6c0,0,0,0,0.1,0c0.4,0,0.6-0.3,0.6-0.7l-0.6-8.4c-0.2-2.4-3-4.5-5.2-4.5H28c-2.4,0-5,2.3-5.2,4.5L22.1,16
					C22.1,16.3,22.4,16.7,22.7,16.7z"/>
			</g>
			<g>
				<path class="st0" d="M28.6,7.4C28.5,7.2,28.2,7,28,7c-0.3,0-0.5,0.2-0.6,0.4c-0.5,1.5-1.9,1.5-2,1.5c-0.4,0-0.6,0.3-0.6,0.6v2.6
					c0,2.2,1.5,5.2,3.9,5.2c2.4,0,3.9-3,3.9-5.2V9.6c0-0.4-0.3-0.6-0.6-0.6C31.8,8.9,29.1,8.9,28.6,7.4z M31.2,12.2
					c0,1.8-1.2,3.9-2.6,3.9S26,13.9,26,12.2v-2c0.6-0.1,1.4-0.5,2-1.2c0.9,0.9,2.3,1.2,3.2,1.3L31.2,12.2L31.2,12.2z"/>
			</g>
			<path class="st0" d="M13.1,8.3h0.6c0.4,0,0.6-0.3,0.6-0.6S14.1,7,13.7,7h-0.6c-0.4,0-0.6,0.3-0.6,0.6C12.4,8,12.7,8.3,13.1,8.3z"
				/>
			<path class="st0" d="M22.2,26.4c0.4,0,0.6-0.3,0.6-0.6s-0.3-0.6-0.6-0.6h0c-0.4,0-0.6,0.3-0.6,0.6C21.5,26.1,21.8,26.4,22.2,26.4
				z"/>
			<g>
				<path class="st0" d="M6.7,9.4c0.1,1.2,0.7,2.3,0.7,2.4c0.6,1.2,1.5,2.9,4.5,2.9s3.9-1.8,4.5-2.9c0-0.1,0.6-1.1,0.7-2.4
					c0.4-0.2,0.7-0.6,0.7-1.1V7c0-0.5-0.3-0.9-0.6-1.1V5.7c0-2.1-1.7-3.9-3.9-3.9h-2.6c-2.1,0-3.9,1.7-3.9,3.9v0.2
					C6.2,6.1,6,6.5,6,7v1.3C6,8.8,6.3,9.2,6.7,9.4z M7.3,7c0.4,0,0.6-0.3,0.6-0.6V5.7c0-1.4,1.2-2.6,2.6-2.6h2.6
					c1.4,0,2.6,1.2,2.6,2.6v0.6C15.7,6.7,16,7,16.3,7v1.3c-0.4,0-0.6,0.3-0.6,0.6c0,1.1-0.6,2.3-0.6,2.3c-0.7,1.3-1.3,2.2-3.3,2.2
					c-2,0-2.6-0.9-3.3-2.2c0,0-0.6-1.2-0.6-2.3c0-0.4-0.3-0.6-0.6-0.6L7.3,7L7.3,7z"/>
			</g>
			<g>
				<path class="st0" d="M22.8,31.5c-0.1,0-0.3,0-0.4,0.1l-1.6,1.1l-1.6-1.1c-0.1-0.1-0.2-0.1-0.4-0.1c-3.7,0-4.5,1.8-4.5,3.2
					c0,0.4,0.3,0.6,0.6,0.6c0.4,0,0.6-0.3,0.6-0.6c0-0.5,0-1.9,3-1.9l1.8,1.2c0.2,0.1,0.5,0.1,0.7,0l1.8-1.2c3,0.1,3,1.4,3,1.9
					c0,0.4,0.3,0.6,0.6,0.6c0.4,0,0.6-0.3,0.6-0.6C27.3,33.3,26.5,31.5,22.8,31.5z"/>
			</g>
			<path class="st0" d="M34.5,23.8L34.5,23.8c-0.4,0-0.6,0.3-0.6,0.6l0,10.3c0,0.4,0.3,0.6,0.6,0.6h0c0.4,0,0.6-0.3,0.6-0.6l0-10.3
				C35.1,24.1,34.8,23.8,34.5,23.8z"/>
			<path class="st0" d="M9.9,8.3h0.6c0.4,0,0.6-0.3,0.6-0.6S10.9,7,10.5,7H9.9C9.5,7,9.2,7.3,9.2,7.6C9.2,8,9.5,8.3,9.9,8.3z"/>
			<g>
				<path class="st0" d="M15,20l0.5-2.7c3.3,0.1,5.6,0.9,6.3,2.2c0.2,0.3,0.6,0.4,0.9,0.3c0.3-0.2,0.4-0.6,0.3-0.9
					c-1-1.9-3.8-2.9-8-2.9c-0.3,0-0.6,0.2-0.7,0.5l-0.6,3.2c-0.1,0.4,0.2,0.7,0.5,0.8c0,0,0.1,0,0.1,0C14.7,20.6,15,20.3,15,20z"/>
			</g>
			<path class="st0" d="M37.4,19.3c-1.3-1.3-3.2-1.9-5.5-1.9c-0.4,0-0.7,0.3-0.7,0.6c0,0.1,0,3.2-2.6,3.2c-2.5,0-2.6-3.1-2.6-3.2
				c0-0.4-0.3-0.6-0.6-0.6c-0.4,0-0.6,0.3-0.6,0.6c0,1.4,0.7,4.1,3.2,4.5v3.3c0,0.4,0.3,0.6,0.6,0.6c0.4,0,0.6-0.3,0.6-0.6v-3.3
				c2.2-0.3,3-2.3,3.2-3.8c1.7,0.1,3.1,0.6,4,1.5c0.8,0.8,1.2,1.8,1.2,3v10.3c0,0.4,0.3,0.6,0.6,0.6c0.4,0,0.6-0.3,0.6-0.6V23.1
				C38.9,21.7,38.4,20.3,37.4,19.3z"/>
			<path class="st0" d="M11.8,16c-0.7,0-1.3,0.6-1.3,1.3c0,0.5,0.3,0.9,0.6,1.1v4.7c0,0.4,0.3,0.6,0.6,0.6c0.4,0,0.6-0.3,0.6-0.6
				v-4.7c0.4-0.2,0.6-0.6,0.6-1.1C13.1,16.6,12.5,16,11.8,16z"/>
			<g>
				<path class="st0" d="M4.7,23.8c-0.4,0-0.6,0.3-0.6,0.6v10.3c0,0.4,0.3,0.6,0.6,0.6c0.4,0,0.6-0.3,0.6-0.6V24.4
					C5.3,24.1,5,23.8,4.7,23.8z"/>
			</g>
			<g>
				<path class="st0" d="M9.2,16.6C9.1,16.2,8.8,16,8.5,16c-3.4,0-6,0.7-7.3,2c-0.7,0.7-1,1.5-1,2.5v12.9c0,0.4,0.3,0.6,0.6,0.6
					c0.4,0,0.6-0.3,0.6-0.6V20.6c0-0.6,0.2-1.1,0.7-1.6c1-1,3.1-1.6,5.9-1.7l3.1,15c0.1,0.3,0.4,0.6,0.8,0.5
					c0.3-0.1,0.6-0.4,0.5-0.8L9.2,16.6z"/>
			</g>
		</g>
	</g>
</g>
</svg>
