<svg id="Layer_1" data-name="Layer 1" xmlns="http://www.w3.org/2000/svg" viewBox="0 0 38.57 39.66"><title>ico-docs</title><path d="M30.38,21.37V3.53H3.76V36.81H16A1.6,1.6,0,0,1,16,40H2.16a1.6,1.6,0,0,1-1.6-1.6V1.93A1.6,1.6,0,0,1,2.16.34H32a1.6,1.6,0,0,1,1.6,1.6V21.37a1.6,1.6,0,0,1-3.19,0Zm8.23,3.89a1.6,1.6,0,0,0-2.26.13l-8.76,9.74L23.19,30.9A1.6,1.6,0,1,0,21,33.21l5.59,5.38a1.57,1.57,0,0,0,1.12.45h.05a1.6,1.6,0,0,0,1.12-.53l9.85-11a1.61,1.61,0,0,0-.11-2.29ZM24.52,9.65H10.15a1.6,1.6,0,1,0,0,3.19H24.52a1.6,1.6,0,0,0,0-3.19ZM26.12,20a1.6,1.6,0,0,0-1.6-1.6H10.15a1.6,1.6,0,1,0,0,3.19H24.52a1.6,1.6,0,0,0,1.6-1.6ZM10.15,27a1.6,1.6,0,1,0,0,3.19h4.26a1.6,1.6,0,0,0,0-3.19Zm0,0" transform="translate(-0.57 -0.34)"/></svg>