<svg xmlns="http://www.w3.org/2000/svg" width="20px" height="20px" viewBox="0 0 20 17.2">
	<path fill="#FFF" d="M15.4,11.4h-.7a.35.35,0,0,0-.4.4v3.6a2.11,2.11,0,0,1-.5,1.3,1.9,1.9,0,0,1-1.3.5H3.2a2.11,2.11,0,0,1-1.3-.5,1.9,1.9,0,0,1-.5-1.3V6.1a2.11,2.11,0,0,1,.5-1.3,1.9,1.9,0,0,1,1.3-.5h7.9a.35.35,0,0,0,.4-.4V3.2a.35.35,0,0,0-.4-.4H3.2a3.34,3.34,0,0,0-2.3.9A3.58,3.58,0,0,0,0,6.1v9.3a3.34,3.34,0,0,0,.9,2.3,3.17,3.17,0,0,0,2.3.9h9.3a3.34,3.34,0,0,0,2.3-.9,3.17,3.17,0,0,0,.9-2.3V11.8a.37.37,0,0,0-.1-.3C15.5,11.5,15.5,11.4,15.4,11.4Z" transform="translate(0 -1.4)"/>
	<path fill="#FFF" d="M19.8,1.6a.76.76,0,0,0-.5-.2H13.6a.76.76,0,0,0-.5.2.76.76,0,0,0-.2.5.76.76,0,0,0,.2.5l2,2L7.8,11.9c-.1.1-.2.1-.2.2a.37.37,0,0,0,.1.3L9,13.7a.5.5,0,0,0,.6,0l7.3-7.3,2,2a.73.73,0,0,0,1,0c0-.2.1-.3.1-.5V2.1C20,1.9,19.9,1.8,19.8,1.6Z" transform="translate(0 -1.4)"/>
</svg>