<?xml version="1.0" encoding="utf-8"?>
<!-- Generator: Adobe Illustrator 21.1.0, SVG Export Plug-In . SVG Version: 6.00 Build 0)  -->
<svg version="1.1" id="Layer_1" xmlns="http://www.w3.org/2000/svg" xmlns:xlink="http://www.w3.org/1999/xlink" x="0px" y="0px"
	 viewBox="0 0 40 40" style="enable-background:new 0 0 40 40;" xml:space="preserve">
<style type="text/css">
	.st0{fill:#FFFFFF;}
</style>
<title>ico-pending</title>
<g>
	<circle class="st0" cx="20" cy="31" r="1.4"/>
	<path class="st0" d="M18.8,25.4V12.5c0-0.5,0.5-0.9,1.2-0.9s1.2,0.4,1.2,0.9v12.8c0,0.5-0.5,0.9-1.2,0.9S18.8,25.9,18.8,25.4z"/>
</g>
<path class="st0" d="M3.5,38.5c-1.2,0-2.3-0.6-2.9-1.6c-0.6-1-0.6-2.3-0.1-3.3L17.1,2.4c0.6-1.1,1.7-1.8,3-1.8c0,0,0,0,0,0
	c1.2,0,2.4,0.7,3,1.8l16.3,31.1c0.6,1.1,0.5,2.4,0.1,3.3c-0.4,0.8-1.6,1.7-2.8,1.7H3.5C3.5,38.5,3.5,38.5,3.5,38.5z M20.1,2.6
	c-0.5,0-1,0.3-1.2,0.7L2.2,34.5c-0.2,0.4-0.2,1,0,1.4c0.3,0.4,0.7,0.7,1.2,0.7c0,0,0,0,0,0h33.2c0.4,0,0.7-0.2,1-0.4
	c0.3-0.3,0.4-0.6,0.4-1c0-0.2-0.1-0.4-0.2-0.6L37.1,33h0L21.4,3.4C21.1,2.9,20.6,2.6,20.1,2.6C20.1,2.6,20.1,2.6,20.1,2.6L20.1,2.6z
	"/>
</svg>
