<?xml version="1.0" encoding="utf-8"?>
<!-- Generator: Adobe Illustrator 21.1.0, SVG Export Plug-In . SVG Version: 6.00 Build 0)  -->
<svg version="1.1" id="Capa_1" xmlns="http://www.w3.org/2000/svg" xmlns:xlink="http://www.w3.org/1999/xlink" x="0px" y="0px"
	 viewBox="0 0 512 512" style="enable-background:new 0 0 512 512;" xml:space="preserve">
<style type="text/css">
	.st0{fill:url(#SVGID_1_);}
	.st1{fill:url(#SVGID_2_);}
	.st2{fill:url(#SVGID_3_);}
	.st3{fill:url(#SVGID_4_);}
	.st4{fill:url(#SVGID_5_);}
	.st5{fill:url(#SVGID_6_);}
	.st6{fill:url(#SVGID_7_);}
	.st7{fill:url(#SVGID_8_);}
	.st8{fill:url(#SVGID_9_);}
	.st9{fill:url(#SVGID_10_);}
	.st10{fill:url(#SVGID_11_);}
	.st11{fill:url(#SVGID_12_);}
	.st12{fill:url(#SVGID_13_);}
	.st13{fill:url(#SVGID_14_);}
	.st14{fill:url(#SVGID_15_);}
	.st15{fill:url(#SVGID_16_);}
	.st16{fill:url(#SVGID_17_);}
</style>
<g>
	<linearGradient id="SVGID_1_" gradientUnits="userSpaceOnUse" x1="376.1135" y1="482.2119" x2="376.1135" y2="482.2119">
		<stop  offset="0" style="stop-color:#3C5894"/>
		<stop  offset="1" style="stop-color:#4FBBC3"/>
	</linearGradient>
	<path class="st0" d="M376.1,482.2"/>
	<linearGradient id="SVGID_2_" gradientUnits="userSpaceOnUse" x1="253.4485" y1="259.47" x2="116.7249" y2="76.8318">
		<stop  offset="0" style="stop-color:#3C5894"/>
		<stop  offset="1" style="stop-color:#4FBBC3"/>
	</linearGradient>
	<path class="st1" d="M376.1,507c-43.3,0-83.7-21.6-107.9-57.7l-1.6-2.3H13.8c-5.4,0-9.8-4.4-9.8-9.8V45.8c0-5.4,4.4-9.8,9.8-9.8
		h81.3V14.8c0-5.4,4.4-9.8,9.8-9.8c5.4,0,9.8,4.4,9.8,9.8V36h70.5V14.8c0-5.4,4.4-9.8,9.8-9.8c5.4,0,9.8,4.4,9.8,9.8V36h70.5V14.8
		c0-5.4,4.4-9.8,9.8-9.8s9.8,4.4,9.8,9.8V36h70.5V14.8c0-5.4,4.4-9.8,9.8-9.8c5.4,0,9.8,4.4,9.8,9.8V36h81.3c5.4,0,9.8,4.4,9.8,9.8
		v248.3l1.2,1.4c18.6,23,28.9,52,28.9,81.5C506,448.7,447.7,507,376.1,507z M376.1,266.8c-60.8,0-110.3,49.5-110.3,110.3
		s49.5,110.3,110.3,110.3S486.5,438,486.5,377.1S437,266.8,376.1,266.8z M23.5,427.4h232.6l-2.5-7c-3.3-9.3-5.5-19-6.6-28.9
		l-0.5-4.7H226c-5.4,0-9.8-4.4-9.8-9.8c0-5.4,4.4-9.8,9.8-9.8h20.5l0.5-4.7c1.1-9.8,3.3-19.5,6.6-28.9l2.5-7H226
		c-5.4,0-9.8-4.4-9.8-9.8c0-5.4,4.4-9.8,9.8-9.8h30c1.5,0,3,0.4,4.4,1.1l4.2,2.1l2.6-3.9c24.1-37.1,64.9-59.3,109-59.3
		c25.8,0,50.8,7.6,72.2,21.9l8.2,5.5v-129H23.5V427.4z M23.5,126.1h432.9V55.6h-71.5v20.3c0,5.4-4.4,9.8-9.8,9.8
		c-5.4,0-9.8-4.4-9.8-9.8V55.6h-70.5v20.3c0,5.4-4.4,9.8-9.8,9.8s-9.8-4.4-9.8-9.8V55.6h-70.5v20.3c0,5.4-4.4,9.8-9.8,9.8
		c-5.4,0-9.8-4.4-9.8-9.8V55.6h-70.5v20.3c0,5.4-4.4,9.8-9.8,9.8c-5.4,0-9.8-4.4-9.8-9.8V55.6H23.5V126.1z"/>
	<linearGradient id="SVGID_3_" gradientUnits="userSpaceOnUse" x1="436.1697" y1="362.0994" x2="436.1697" y2="362.0994">
		<stop  offset="0" style="stop-color:#3C5894"/>
		<stop  offset="1" style="stop-color:#4FBBC3"/>
	</linearGradient>
	<path class="st2" d="M436.2,362.1"/>
	<linearGradient id="SVGID_4_" gradientUnits="userSpaceOnUse" x1="294.8639" y1="228.4663" x2="158.1403" y2="45.8281">
		<stop  offset="0" style="stop-color:#3C5894"/>
		<stop  offset="1" style="stop-color:#4FBBC3"/>
	</linearGradient>
	<path class="st3" d="M376.1,386.9c-5.4,0-9.8-4.4-9.8-9.8v-60.1c0-5.4,4.4-9.8,9.8-9.8c5.4,0,9.8,4.4,9.8,9.8v50.3h50.3
		c5.4,0,9.8,4.4,9.8,9.8c0,5.4-4.4,9.8-9.8,9.8H376.1z"/>
	<linearGradient id="SVGID_5_" gradientUnits="userSpaceOnUse" x1="134.8874" y1="181.9306" x2="134.8874" y2="181.9306">
		<stop  offset="0" style="stop-color:#3C5894"/>
		<stop  offset="1" style="stop-color:#4FBBC3"/>
	</linearGradient>
	<path class="st4" d="M134.9,181.9"/>
	<linearGradient id="SVGID_6_" gradientUnits="userSpaceOnUse" x1="197.8422" y1="301.097" x2="61.1186" y2="118.4588">
		<stop  offset="0" style="stop-color:#3C5894"/>
		<stop  offset="1" style="stop-color:#4FBBC3"/>
	</linearGradient>
	<path class="st5" d="M104.9,206.7c-5.4,0-9.8-4.4-9.8-9.8s4.4-9.8,9.8-9.8h30c5.4,0,9.8,4.4,9.8,9.8s-4.4,9.8-9.8,9.8H104.9z"/>
	<linearGradient id="SVGID_7_" gradientUnits="userSpaceOnUse" x1="134.8874" y1="241.9868" x2="134.8874" y2="241.9868">
		<stop  offset="0" style="stop-color:#3C5894"/>
		<stop  offset="1" style="stop-color:#4FBBC3"/>
	</linearGradient>
	<path class="st6" d="M134.9,242"/>
	<linearGradient id="SVGID_8_" gradientUnits="userSpaceOnUse" x1="169.0303" y1="322.6658" x2="32.3067" y2="140.0276">
		<stop  offset="0" style="stop-color:#3C5894"/>
		<stop  offset="1" style="stop-color:#4FBBC3"/>
	</linearGradient>
	<path class="st7" d="M104.9,266.8c-5.4,0-9.8-4.4-9.8-9.8c0-5.4,4.4-9.8,9.8-9.8h30c5.4,0,9.8,4.4,9.8,9.8c0,5.4-4.4,9.8-9.8,9.8
		H104.9z"/>
	<linearGradient id="SVGID_9_" gradientUnits="userSpaceOnUse" x1="134.8874" y1="302.0431" x2="134.8874" y2="302.0431">
		<stop  offset="0" style="stop-color:#3C5894"/>
		<stop  offset="1" style="stop-color:#4FBBC3"/>
	</linearGradient>
	<path class="st8" d="M134.9,302"/>
	<linearGradient id="SVGID_10_" gradientUnits="userSpaceOnUse" x1="140.2184" y1="344.2345" x2="3.4948" y2="161.5963">
		<stop  offset="0" style="stop-color:#3C5894"/>
		<stop  offset="1" style="stop-color:#4FBBC3"/>
	</linearGradient>
	<path class="st9" d="M104.9,326.8c-5.4,0-9.8-4.4-9.8-9.8c0-5.4,4.4-9.8,9.8-9.8h30c5.4,0,9.8,4.4,9.8,9.8c0,5.4-4.4,9.8-9.8,9.8
		H104.9z"/>
	<linearGradient id="SVGID_11_" gradientUnits="userSpaceOnUse" x1="225.9728" y1="211.9587" x2="225.9728" y2="211.9587">
		<stop  offset="0" style="stop-color:#3C5894"/>
		<stop  offset="1" style="stop-color:#4FBBC3"/>
	</linearGradient>
	<path class="st10" d="M226,212"/>
	<linearGradient id="SVGID_12_" gradientUnits="userSpaceOnUse" x1="275.4588" y1="242.993" x2="138.7352" y2="60.3548">
		<stop  offset="0" style="stop-color:#3C5894"/>
		<stop  offset="1" style="stop-color:#4FBBC3"/>
	</linearGradient>
	<path class="st11" d="M226,206.7c-5.4,0-9.8-4.4-9.8-9.8s4.4-9.8,9.8-9.8h30c5.4,0,9.8,4.4,9.8,9.8s-4.4,9.8-9.8,9.8H226z"/>
	<linearGradient id="SVGID_13_" gradientUnits="userSpaceOnUse" x1="225.9728" y1="272.015" x2="225.9728" y2="272.015">
		<stop  offset="0" style="stop-color:#3C5894"/>
		<stop  offset="1" style="stop-color:#4FBBC3"/>
	</linearGradient>
	<path class="st12" d="M226,272"/>
	<linearGradient id="SVGID_14_" gradientUnits="userSpaceOnUse" x1="246.6469" y1="264.5617" x2="109.9233" y2="81.9235">
		<stop  offset="0" style="stop-color:#3C5894"/>
		<stop  offset="1" style="stop-color:#4FBBC3"/>
	</linearGradient>
	<path class="st13" d="M226,266.8c-5.4,0-9.8-4.4-9.8-9.8c0-5.4,4.4-9.8,9.8-9.8h30c5.4,0,9.8,4.4,9.8,9.8c0,5.4-4.4,9.8-9.8,9.8
		H226z"/>
	<linearGradient id="SVGID_15_" gradientUnits="userSpaceOnUse" x1="134.8874" y1="362.0994" x2="134.8874" y2="362.0994">
		<stop  offset="0" style="stop-color:#3C5894"/>
		<stop  offset="1" style="stop-color:#4FBBC3"/>
	</linearGradient>
	<path class="st14" d="M134.9,362.1"/>
	<linearGradient id="SVGID_16_" gradientUnits="userSpaceOnUse" x1="111.4065" y1="365.8032" x2="-25.3171" y2="183.1649">
		<stop  offset="0" style="stop-color:#3C5894"/>
		<stop  offset="1" style="stop-color:#4FBBC3"/>
	</linearGradient>
	<path class="st15" d="M104.9,386.9c-5.4,0-9.8-4.4-9.8-9.8c0-5.4,4.4-9.8,9.8-9.8h30c5.4,0,9.8,4.4,9.8,9.8c0,5.4-4.4,9.8-9.8,9.8
		H104.9z"/>
	<linearGradient id="SVGID_17_" gradientUnits="userSpaceOnUse" x1="352.434" y1="185.3692" x2="215.7104" y2="2.731">
		<stop  offset="0" style="stop-color:#3C5894"/>
		<stop  offset="1" style="stop-color:#4FBBC3"/>
	</linearGradient>
	<path class="st16" d="M346.1,206.7c-5.4,0-9.8-4.4-9.8-9.8s4.4-9.8,9.8-9.8h30c5.4,0,9.8,4.4,9.8,9.8s-4.4,9.8-9.8,9.8H346.1z"/>
</g>
</svg>
