<svg id="Layer_2" data-name="Layer 2" xmlns="http://www.w3.org/2000/svg" viewBox="0 0 39.32 39.32"><defs><style>.cls-1{fill:#fff;}.cls-2{fill:#231f20;}</style></defs><title>ico-close-black</title><path class="cls-1" d="M20,.38A19.66,19.66,0,1,0,39.63,20,19.66,19.66,0,0,0,20,.38Zm0,36.76A17.14,17.14,0,1,1,37.11,20,17.14,17.14,0,0,1,20,37.14Z" transform="translate(-0.31 -0.38)"/><path class="cls-1" d="M28.41,14.72l-3.13-3.13s-5,5.31-5.32,5.31-5.32-5.31-5.32-5.31l-3.13,3.13s5.32,4.88,5.32,5.33-5.32,5.31-5.32,5.31l3.13,3.13s5-5.32,5.32-5.32,5.32,5.32,5.32,5.32l3.13-3.13s-5.32-5-5.32-5.31S28.41,14.72,28.41,14.72Z" transform="translate(-0.31 -0.38)"/><path class="cls-2" d="M20,2.86A17.14,17.14,0,1,0,37.11,20,17.14,17.14,0,0,0,20,2.86Zm8.45,22.51L25.28,28.5S20.33,23.18,20,23.18s-5.32,5.32-5.32,5.32l-3.13-3.13s5.32-4.88,5.32-5.31-5.32-5.33-5.32-5.33l3.13-3.13s5,5.31,5.32,5.31,5.32-5.31,5.32-5.31l3.13,3.13s-5.32,5-5.32,5.33S28.41,25.37,28.41,25.37Z" transform="translate(-0.31 -0.38)"/></svg>