<?xml version="1.0" encoding="iso-8859-1"?>
<!-- Generator: Adobe Illustrator 21.1.0, SVG Export Plug-In . SVG Version: 6.00 Build 0)  -->
<svg version="1.1" id="Capa_1" xmlns="http://www.w3.org/2000/svg" xmlns:xlink="http://www.w3.org/1999/xlink" x="0px" y="0px"
	 viewBox="-49 141 512 512" style="enable-background:new -49 141 512 512;" xml:space="preserve">
<linearGradient id="SVGID_1_" gradientUnits="userSpaceOnUse" x1="-45" y1="397" x2="459" y2="397">
	<stop  offset="0" style="stop-color:#3C5894"/>
	<stop  offset="1" style="stop-color:#4FBBC3"/>
</linearGradient>
<path style="fill:url(#SVGID_1_);" d="M455.58,577.476c-20.358-50.175-67.45-85.021-121.018-90.077
	c-11.841-21.644-29.009-39.959-49.939-53.208c-20.374-12.898-43.557-20.452-67.581-22.102v-55.28h39.856
	c79.953,0,144.997-65.046,144.997-144.997v-49.899c0-5.546-4.495-10.041-10.041-10.041h-49.897
	c-61.246,0-113.743,38.169-134.957,91.969c-21.215-53.799-73.712-91.969-134.958-91.969H22.146c-5.546,0-10.041,4.495-10.041,10.041
	v49.897c0,79.953,65.046,144.997,144.997,144.997h39.856v55.28c-24.024,1.65-47.206,9.204-67.581,22.102
	c-20.93,13.249-38.099,31.564-49.939,53.208c-53.569,5.057-100.66,39.904-121.019,90.078c-5.846,14.407-4.125,30.747,4.603,43.707
	c8.831,13.115,23.529,20.944,39.314,20.944h409.325c15.786,0,30.483-7.829,39.314-20.944
	C459.705,608.222,461.426,591.883,455.58,577.476z M341.957,171.955h39.855v39.856c0,68.878-56.037,124.915-124.915,124.915h-25.655
	l109.443-109.443c3.921-3.921,3.921-10.279,0-14.201c-3.921-3.921-10.279-3.92-14.201,0L217.041,322.527v-25.655
	C217.041,227.993,273.078,171.955,341.957,171.955z M32.188,211.812v-39.856h39.855c68.879,0,124.916,56.037,124.916,124.916v25.655
	L87.515,213.083c-3.921-3.921-10.278-3.92-14.201,0c-3.921,3.921-3.921,10.279,0,14.201l109.443,109.444h-25.655
	C88.224,336.727,32.188,280.691,32.188,211.812z M327.705,507.024c48.202,2.593,91.091,33.211,109.266,78.002
	c3.379,8.328,2.413,17.418-2.652,24.939c-5.17,7.676-13.428,12.079-22.657,12.079H2.338c-9.229,0-17.488-4.403-22.657-12.079
	c-5.064-7.521-6.031-16.611-2.652-24.939c18.174-44.791,61.063-75.409,109.266-78.002c3.615-0.195,6.845-2.319,8.455-5.562
	c21.325-42.955,64.338-69.639,112.251-69.639c42.314,0,80.794,20.822,103.902,55.274c-10.413,0.707-20.692,2.515-30.668,5.414
	c-5.326,1.547-8.388,7.119-6.84,12.444c1.276,4.39,5.285,7.242,9.637,7.242c0.927,0,1.872-0.13,2.807-0.402
	c11.323-3.29,23.107-4.959,35.022-4.959L327.705,507.024z"/>
<linearGradient id="SVGID_2_" gradientUnits="userSpaceOnUse" x1="233.1254" y1="519.7698" x2="257.7984" y2="519.7698">
	<stop  offset="0" style="stop-color:#3C5894"/>
	<stop  offset="1" style="stop-color:#4FBBC3"/>
</linearGradient>
<path style="fill:url(#SVGID_2_);" d="M242.324,509.782c-1.655,1.065-3.314,2.18-4.929,3.316c-4.538,3.188-5.631,9.452-2.443,13.988
	c1.955,2.782,5.065,4.27,8.225,4.27c1.994,0,4.008-0.592,5.765-1.826c1.392-0.979,2.822-1.94,4.247-2.858
	c4.664-3,6.013-9.213,3.012-13.877C253.201,508.13,246.988,506.782,242.324,509.782z"/>
</svg>
