<?xml version="1.0" encoding="iso-8859-1"?>
<!-- Generator: Adobe Illustrator 21.1.0, SVG Export Plug-In . SVG Version: 6.00 Build 0)  -->
<svg version="1.1" id="Layer_1" xmlns="http://www.w3.org/2000/svg" xmlns:xlink="http://www.w3.org/1999/xlink" x="0px" y="0px"
	 viewBox="-49 141 512 512" style="enable-background:new -49 141 512 512;" xml:space="preserve">
<g>
	<path style="fill:#888888;" d="M173.792,495.312l-6.729,60.51c-0.333,3.01,0.635,6.031,2.656,8.292
		c2.021,2.26,4.917,3.552,7.948,3.552h58.667c3.031,0,5.927-1.292,7.948-3.552c2.021-2.26,2.99-5.281,2.656-8.292l-6.729-60.51
		c10.927-7.948,17.458-28.521,17.458-42.312c0-23.531-27.135-50.667-50.667-50.667S156.333,429.469,156.333,453
		C156.333,466.792,162.865,487.365,173.792,495.312z M207,423.667c11.76,0,29.333,17.573,29.333,29.333
		c0,8.177-4.646,23.5-12.125,27.125c-4.073,1.979-6.458,6.292-5.958,10.781l6.167,55.427h-34.833l6.167-55.427
		c0.5-4.49-1.885-8.802-5.958-10.781c-7.479-3.625-12.125-18.948-12.125-27.125C177.667,441.24,195.24,423.667,207,423.667z"/>
	<path style="fill:#888888;" d="M388.333,333h-32v-42.667C356.333,207.99,289.344,141,207,141S57.667,207.99,57.667,290.333V333h-32
		C19.771,333,15,337.771,15,343.667v266.667C15,633.865,34.135,653,57.667,653h298.667C379.865,653,399,633.865,399,610.333V343.667
		C399,337.771,394.229,333,388.333,333z M79,290.333c0-70.583,57.417-128,128-128s128,57.417,128,128V333h-21.333v-42.667
		c0-58.812-47.854-106.667-106.667-106.667s-106.667,47.854-106.667,106.667V333H79V290.333z M292.333,333H121.667v-42.667
		C121.667,243.281,159.948,205,207,205s85.333,38.281,85.333,85.333V333z M377.667,610.333c0,11.76-9.573,21.333-21.333,21.333
		H57.667c-11.76,0-21.333-9.573-21.333-21.333v-256h341.333V610.333z"/>
</g>
</svg>
