<?xml version="1.0" encoding="utf-8"?>
<!-- Generator: Adobe Illustrator 22.1.0, SVG Export Plug-In . SVG Version: 6.00 Build 0)  -->
<svg version="1.1" id="Layer_1" xmlns="http://www.w3.org/2000/svg" xmlns:xlink="http://www.w3.org/1999/xlink" x="0px" y="0px"
	 width="80.7px" height="60.8px" viewBox="0 0 80.7 60.8" style="enable-background:new 0 0 80.7 60.8;" xml:space="preserve">
<style type="text/css">
	.st0{fill:#FFFFFF;}
</style>
<title>ico-card</title>
<path class="st0" d="M44.4,19.5h21.8c0.9,0,1.6,0.7,1.6,1.6l0,0v1.4c0,0.9-0.7,1.6-1.6,1.6l0,0H44.4c-0.9,0-1.6-0.7-1.6-1.6l0,0
	v-1.4C42.8,20.2,43.5,19.5,44.4,19.5L44.4,19.5z"/>
<path class="st0" d="M15.7,43.3h25.8c0.9,0,1.6,0.7,1.6,1.6l0,0v1.4c0,0.9-0.7,1.6-1.6,1.6l0,0H15.7c-0.9,0-1.6-0.7-1.6-1.6l0,0
	v-1.4C14.1,44,14.8,43.3,15.7,43.3L15.7,43.3z"/>
<path class="st0" d="M55.1,43.3h10.6c0.9,0,1.6,0.7,1.6,1.6l0,0v1.4c0,0.9-0.7,1.6-1.6,1.6l0,0H55.1c-0.9,0-1.6-0.7-1.6-1.6l0,0
	v-1.4C53.5,44,54.2,43.3,55.1,43.3L55.1,43.3z"/>
<path class="st0" d="M78.8,2c-1.3-1.3-3-2-4.8-2H6.7C4.9,0,3.2,0.7,2,2C0.7,3.3,0,5,0,6.8V54c0,1.8,0.7,3.5,2,4.8s3,2,4.8,2H74
	c3.7,0,6.7-3,6.7-6.7V6.8C80.8,5,80.1,3.3,78.8,2z M75.3,54c0,0.7-0.6,1.3-1.3,1.3H6.7c-0.7,0-1.3-0.6-1.3-1.3V6.8
	c0-0.7,0.6-1.4,1.3-1.4l0,0H74c0.7,0,1.3,0.5,1.3,1.2c0,0.1,0,0.2,0,0.2l0,0V54z"/>
<path class="st0" d="M40.7,22.1c0-0.4-2.8-1-4.1-1S36,19.8,36,19.2s2.4-1.3,2.1-1.9c-0.6-1.2-2.2,1-3.7,0.9c-1,0-1.9-0.6-2.3-1.5
	c-0.5-0.7-0.6-3-1.7-3.6c-0.6-0.3-1.2,0.8-1.6,0.7c-0.7-0.2-0.5-0.8-0.8-1.9S26.2,11,26.2,11H26c0,0-1.6-0.3-1.9,0.9s0,1.8-0.8,1.9
	c-0.4,0.1-1-1.1-1.6-0.7c-1.1,0.6-1.1,2.8-1.7,3.6s-0.7,1.3-2.3,1.5s-3-2.1-3.7-0.9c-0.3,0.5,2.1,1.2,2.1,1.9s0.8,1.9-0.5,1.9
	s-4.1,0.6-4.1,1c0,0.9,10.5,0.7,9.6,1s-4.7,1.9-5.6,1.8s1.8,0.9,2.6,0.8c2.2,0.6,4.4,1.4,6.5,2.3c0,0-3.1,1.2-1.4,1.2h5.4
	c1.7,0-1.4-1.2-1.4-1.2c2.1-0.9,4.3-1.7,6.5-2.3c0.8,0,3.4-1,2.6-0.8s-4.7-1.5-5.5-1.8C30.3,22.8,40.7,23,40.7,22.1z"/>
<path class="st0" d="M15.7,34.3h49.8c0.9,0,1.6,0.7,1.6,1.6l0,0v1.4c0,0.9-0.7,1.6-1.6,1.6l0,0H15.7c-0.9,0-1.6-0.7-1.6-1.6l0,0
	v-1.4C14.1,35,14.8,34.3,15.7,34.3L15.7,34.3z"/>
</svg>
