<?xml version="1.0" encoding="utf-8"?>
<!-- Generator: Adobe Illustrator 21.1.0, SVG Export Plug-In . SVG Version: 6.00 Build 0)  -->
<svg version="1.1" id="Capa_1" xmlns="http://www.w3.org/2000/svg" xmlns:xlink="http://www.w3.org/1999/xlink" x="0px" y="0px"
	 viewBox="0 0 512 512" style="enable-background:new 0 0 512 512;" xml:space="preserve">
<style type="text/css">
	.st0{fill:url(#SVGID_1_);}
	.st1{fill:url(#SVGID_2_);}
	.st2{fill:url(#SVGID_3_);}
	.st3{fill:url(#SVGID_4_);}
	.st4{fill:url(#SVGID_5_);}
	.st5{fill:url(#SVGID_6_);}
	.st6{fill:url(#SVGID_7_);}
	.st7{fill:url(#SVGID_8_);}
	.st8{fill:url(#SVGID_9_);}
	.st9{fill:url(#SVGID_10_);}
	.st10{fill:url(#SVGID_11_);}
</style>
<g>
	<linearGradient id="SVGID_1_" gradientUnits="userSpaceOnUse" x1="256.2007" y1="327.9042" x2="248.2008" y2="-75.0958">
		<stop  offset="0" style="stop-color:#3C5894"/>
		<stop  offset="1" style="stop-color:#4FBBC3"/>
	</linearGradient>
	<path class="st0" d="M56.7,509.6V2.4h275L455.3,126v383.6H56.7z M432.6,486.9V142.1H315.6V25.1H79.4v461.7H432.6z M416.5,119.3
		l-78.2-78.2v78.2H416.5z"/>
	<linearGradient id="SVGID_2_" gradientUnits="userSpaceOnUse" x1="184.5861" y1="329.3258" x2="176.5861" y2="-73.6742">
		<stop  offset="0" style="stop-color:#3C5894"/>
		<stop  offset="1" style="stop-color:#4FBBC3"/>
	</linearGradient>
	<path class="st1" d="M143.2,150.4c-6.3,0-11.4-5.1-11.4-11.4s5.1-11.4,11.4-11.4h75.2c6.3,0,11.4,5.1,11.4,11.4
		s-5.1,11.4-11.4,11.4H143.2z"/>
	<linearGradient id="SVGID_3_" gradientUnits="userSpaceOnUse" x1="166.5669" y1="329.6835" x2="158.5669" y2="-73.3165">
		<stop  offset="0" style="stop-color:#3C5894"/>
		<stop  offset="1" style="stop-color:#4FBBC3"/>
	</linearGradient>
	<path class="st2" d="M143.2,217.2c-6.3,0-11.4-5.1-11.4-11.4c0-6.3,5.1-11.4,11.4-11.4H185c6.3,0,11.4,5.1,11.4,11.4
		c0,6.3-5.1,11.4-11.4,11.4H143.2z"/>
	<linearGradient id="SVGID_4_" gradientUnits="userSpaceOnUse" x1="300.1432" y1="327.0319" x2="292.1432" y2="-75.9681">
		<stop  offset="0" style="stop-color:#3C5894"/>
		<stop  offset="1" style="stop-color:#4FBBC3"/>
	</linearGradient>
	<path class="st3" d="M268.5,217.2c-6.3,0-11.4-5.1-11.4-11.4c0-6.3,5.1-11.4,11.4-11.4H327c6.2,0,11.3,5.1,11.3,11.4
		c0,6.3-5.1,11.4-11.3,11.4H268.5z"/>
	<linearGradient id="SVGID_5_" gradientUnits="userSpaceOnUse" x1="229.1881" y1="328.4404" x2="221.1881" y2="-74.5596">
		<stop  offset="0" style="stop-color:#3C5894"/>
		<stop  offset="1" style="stop-color:#4FBBC3"/>
	</linearGradient>
	<path class="st4" d="M226.8,217.2c-2.9,0-5.8-1.2-8-3.2c-2.2-2.2-3.4-5.1-3.4-8.1c0-3,1.2-5.9,3.3-8c2-2.1,5-3.3,8-3.3
		c3,0,6,1.2,8,3.2c2.1,2.1,3.3,5.1,3.3,8c0,2.9-1.2,5.8-3.3,8C232.7,216,229.8,217.2,226.8,217.2z"/>
	<linearGradient id="SVGID_6_" gradientUnits="userSpaceOnUse" x1="371.1242" y1="325.6228" x2="363.1242" y2="-77.3772">
		<stop  offset="0" style="stop-color:#3C5894"/>
		<stop  offset="1" style="stop-color:#4FBBC3"/>
	</linearGradient>
	<path class="st5" d="M368.8,217.2c-2.9,0-5.8-1.2-8-3.2l-0.1-0.1l-0.1-0.1c-2-2.2-3.2-5.1-3.2-8c0-2.9,1.2-5.9,3.3-8
		c2.2-2.1,5-3.2,8.1-3.2c3.1,0,5.9,1.1,8,3.2c2.1,2.1,3.3,5.1,3.3,8.1c0,2.9-1.2,5.8-3.2,8l-0.1,0.1l-0.1,0.1
		C374.5,216.1,371.6,217.2,368.8,217.2z"/>
	<linearGradient id="SVGID_7_" gradientUnits="userSpaceOnUse" x1="215.3214" y1="328.7157" x2="207.3214" y2="-74.2843">
		<stop  offset="0" style="stop-color:#3C5894"/>
		<stop  offset="1" style="stop-color:#4FBBC3"/>
	</linearGradient>
	<path class="st6" d="M185,284c-6.3,0-11.4-5.1-11.4-11.3c0-6.3,5.1-11.4,11.4-11.4h58.5c6.2,0,11.3,5.1,11.3,11.4
		c0,6.2-5.1,11.3-11.3,11.3H185z"/>
	<linearGradient id="SVGID_8_" gradientUnits="userSpaceOnUse" x1="144.3663" y1="330.1242" x2="136.3663" y2="-72.8758">
		<stop  offset="0" style="stop-color:#3C5894"/>
		<stop  offset="1" style="stop-color:#4FBBC3"/>
	</linearGradient>
	<path class="st7" d="M143.2,284c-2.9,0-5.9-1.2-8-3.3l-0.1-0.1c-2.1-2.2-3.3-5.1-3.3-8c0-3.1,1.2-5.9,3.3-8.1c2.1-2,5-3.2,8-3.2
		s6,1.2,8,3.2c2.1,2.1,3.3,5.1,3.3,8.1c0,3-1.2,5.9-3.3,8C149,282.9,146.1,284,143.2,284z"/>
	<linearGradient id="SVGID_9_" gradientUnits="userSpaceOnUse" x1="149.2445" y1="330.0274" x2="141.2445" y2="-72.9726">
		<stop  offset="0" style="stop-color:#3C5894"/>
		<stop  offset="1" style="stop-color:#4FBBC3"/>
	</linearGradient>
	<path class="st8" d="M150,415.5c-2.9,0-5.7-1-7.9-2.9L118.7,393c-3.5-2.9-4.7-7.1-3.3-11.2c1.7-4.6,6.5-8,11.5-8
		c2.7,0,5.3,1,7.4,2.8c0,0,4.3,3.6,6.2,5.2c2.4-15,8.4-33.6,27.5-43.5c1.7-0.9,3.5-1.4,5.4-1.4c5.2,0,10,3.9,11.3,9.3
		c1.2,4.9-0.9,9.5-5.5,11.8c-16.7,8.7-17.4,28.8-18,46.5C161.1,410.8,156.3,415.5,150,415.5C150,415.5,150,415.5,150,415.5z"/>
	<linearGradient id="SVGID_10_" gradientUnits="userSpaceOnUse" x1="211.6244" y1="328.7891" x2="203.6244" y2="-74.2109">
		<stop  offset="0" style="stop-color:#3C5894"/>
		<stop  offset="1" style="stop-color:#4FBBC3"/>
	</linearGradient>
	<path class="st9" d="M203.5,402.9c-1.3,0-2.5-0.1-3.8-0.2c-10.6-1.3-19.8-8-24.6-17.8c-1.8-3.7-1.6-7.7,0.5-11.1
		c2.2-3.6,6.2-5.9,10.2-5.9c3.9,0,7.2,2.2,9.1,5.9c2.6,5.4,5.3,6,7.4,6c0,0,0,0,0,0c3.3,0,7.4-2.1,11.5-4.1
		c3.5-1.8,7.1-3.6,10.7-4.4c2-0.5,4-0.7,6-0.7c8.4,0,15.8,4.2,19.8,11.3c2,3.6,2,7.6,0,11c-2.2,3.7-6.3,6-10.4,6c0,0,0,0,0,0
		c-3.8,0-7.2-2-9.2-5.5c0,0-0.1,0-0.2,0c-2.5,0-7.8,3.1-10.9,4.9c-1.8,1-3.2,1.9-4.2,2.3C211.2,402.2,207.4,402.9,203.5,402.9z"/>
	<linearGradient id="SVGID_11_" gradientUnits="userSpaceOnUse" x1="335.5815" y1="326.3284" x2="327.5815" y2="-76.6716">
		<stop  offset="0" style="stop-color:#3C5894"/>
		<stop  offset="1" style="stop-color:#4FBBC3"/>
	</linearGradient>
	<path class="st10" d="M335.3,439.1l-44.8,44.8V376c-4-1.2-7.5-3.3-10.5-6.3c-7.6-7.6-9.5-18.7-4.9-28.4c0.4-0.8,0.2-1.5,0.1-1.9
		c-0.3-0.6-0.7-1.1-1.4-1.3c-10.1-3.6-16.7-12.9-16.7-23.6c0-10.7,6.5-20,16.7-23.6c0.6-0.2,1.1-0.7,1.4-1.4
		c0.2-0.6,0.2-1.2-0.1-1.9c-4.6-9.7-2.7-20.8,4.9-28.4c4.7-4.8,11-7.4,17.6-7.4c3.7,0,7.4,0.8,10.8,2.5c0.3,0.2,0.7,0.2,1,0.2
		c0.4,0,0.7-0.1,0.9-0.2c0.4-0.1,1-0.5,1.3-1.4c3.6-10.1,12.9-16.7,23.6-16.7c10.7,0,20,6.5,23.6,16.7c0.3,0.9,0.9,1.2,1.3,1.4
		c0.3,0.1,0.6,0.2,0.9,0.2c0.3,0,0.7-0.1,1-0.2c3.4-1.6,7-2.4,10.8-2.4c6.6,0,12.9,2.6,17.7,7.4c7.6,7.6,9.5,18.8,4.9,28.5
		c-0.1,0.2-0.4,0.9-0.1,1.9c0.1,0.4,0.5,1,1.4,1.3c10.1,3.6,16.7,12.9,16.7,23.6c0,10.7-6.5,20-16.7,23.6c-0.9,0.3-1.2,0.9-1.4,1.3
		c-0.2,0.5-0.3,1.2,0,2c4.6,9.7,2.7,20.9-4.9,28.5c-3,3-6.6,5.1-10.5,6.3v107.8L335.3,439.1z M357.4,429.1v-49.6
		c-4.3,8.1-12.7,13.2-22.1,13.2c-9.4,0-17.7-5.1-22-13.2v49.6l22-22.1L357.4,429.1z M327.2,359.1c0.1,0.1,0.3,0.2,0.4,0.4
		c2.4,2.5,4.3,5.5,5.5,8.9c0.2,0.4,0.6,1.6,2.2,1.6c1.7,0,2-1,2.2-1.5c1.2-3.3,3-6.3,5.5-8.9l0.1-0.1l0.1-0.1
		c0.2-0.1,0.3-0.3,0.4-0.4c1.1-1.1,2.2-2.1,3.3-2.9c1.1-0.8,2.2-1.3,3.2-1.8l0.2-0.1c0.1-0.1,0.2-0.1,0.3-0.2
		c0.3-0.2,0.5-0.3,0.8-0.4l0.1-0.1c1.7-0.7,3.3-1.2,4.9-1.4c0.7-0.2,1.3-0.2,1.8-0.2c0.2,0,0.4,0,0.6,0l0.5-0.1
		c0.6-0.1,1.2-0.1,1.9-0.1c0.1,0,0.3,0,0.4,0c0.7,0,1.2,0.1,1.8,0.2c0.2,0,0.6,0.1,0.6,0.1c0.3,0,0.6,0.1,0.9,0.1
		c0.6,0.1,1.2,0.1,1.8,0.3l0.2,0c0.3,0.1,0.7,0.2,1,0.3c0.2,0.1,0.4,0.2,0.7,0.2l0.6,0.2c0.6,0.2,1.3,0.4,2,0.7l1.5,0.5
		c0.1,0,0.2,0,0.3,0c0.9,0,1.5-0.6,1.5-0.6c1.2-1.2,0.7-2.3,0.5-2.7c-3.1-6.4-3.3-13.8-0.5-20.4c2.7-6.5,8.1-11.6,14.7-14
		c0.4-0.2,1.6-0.5,1.6-2.2c0-1.7-1.1-2-1.5-2.2c-6.7-2.4-12.1-7.5-14.8-14c-2.7-6.5-2.5-13.9,0.5-20.3c0.2-0.5,0.7-1.5-0.5-2.7
		l-0.1-0.1c-0.1-0.1-0.7-0.7-1.5-0.7c-0.3,0-0.7,0.1-1.1,0.3c-3.4,1.6-7.1,2.4-10.8,2.4c-3.3,0-6.6-0.6-9.6-1.9
		c-6.5-2.7-11.6-8.1-14-14.7c-0.2-0.5-0.6-1.6-2.2-1.6c-1.6,0-2,1.1-2.2,1.5c-2.4,6.7-7.5,12.1-14,14.7c-3,1.3-6.2,1.9-9.6,1.9
		c-3.7,0-7.4-0.8-10.8-2.4c-0.4-0.2-0.8-0.3-1.1-0.3c-0.7,0-1.2,0.4-1.6,0.8c-0.8,0.8-0.9,1.6-0.5,2.6c3.1,6.4,3.2,13.9,0.5,20.4
		c-2.7,6.5-8.1,11.6-14.7,14c-0.5,0.2-1.6,0.6-1.6,2.2c0,1.6,1.1,2,1.5,2.2c6.7,2.4,12.1,7.5,14.7,14c2.7,6.5,2.5,13.9-0.5,20.3
		c-0.4,0.7-0.6,1.6,0.5,2.7c0,0,0.6,0.6,1.5,0.6c0.1,0,0.3,0,0.4,0l1.6-0.5c2.9-1.4,6.2-2.1,9.8-2.1h0.1c0.3,0,0.6,0,0.9,0.1
		c0.1,0,0.1,0,0.2,0h0.1l0.7,0.1c0.9,0.1,1.8,0.1,2.8,0.3c1.4,0.3,2.7,0.7,4,1.2c0.2,0.1,0.6,0.2,0.9,0.3c0.3,0.1,0.6,0.3,0.8,0.4
		c0.1,0,0.2,0.1,0.3,0.1l0.1,0l0.5,0.2c0.9,0.4,1.9,1,2.9,1.6C325.1,357.1,326.2,358.1,327.2,359.1z"/>
</g>
</svg>
