<?xml version="1.0" encoding="iso-8859-1"?>
<!-- Generator: Adobe Illustrator 21.1.0, SVG Export Plug-In . SVG Version: 6.00 Build 0)  -->
<svg version="1.1" id="Layer_1" xmlns:serif="http://www.serif.com/"
	 xmlns="http://www.w3.org/2000/svg" xmlns:xlink="http://www.w3.org/1999/xlink" x="0px" y="0px" viewBox="0 0 55.1 54"
	 style="enable-background:new 0 0 55.1 54;" xml:space="preserve">
<g>
	<g transform="matrix(1,0,0,1,1.46095,-0.236659)">
		<g id="Submited-animation" serif:id="Submited animation">
			<path id="end-point-animation" serif:id="end point animation" style="fill:#1758A6;" d="M11.553,26.302h21.07
				c0,0-7.227-6.965-7.227-7.052l2.699-2.612l11.493,11.58L28.095,40.233l-2.699-2.612l7.227-7.227h-21.07V26.302z"/>
		</g>
	</g>
	<g id="circle" transform="matrix(0.912286,0,0,0.909317,-5.23998,-15.4331)">
		<path style="fill:#1758A6;" d="M35.943,71.936c-13.314,0-24.145-10.794-24.145-24.06c0-13.267,10.831-24.06,24.145-24.06
			s24.145,10.794,24.145,24.06C60.087,61.143,49.256,71.936,35.943,71.936z M35.943,25.492c-12.466,0-22.609,10.042-22.609,22.385
			c0,12.342,10.143,22.384,22.609,22.384c12.467,0,22.609-10.042,22.609-22.384C58.552,35.534,48.41,25.492,35.943,25.492z"/>
	</g>
</g>
</svg>
