<svg id="Layer_1" data-name="Layer 1" xmlns="http://www.w3.org/2000/svg" viewBox="0 0 38.28 33.08"><defs><style>.cls-1{fill:#fff;}</style></defs><title>ico-signout</title><path class="cls-1" d="M16.54,30.93a.69.69,0,0,1-.05-.35c0-.09,0-.17-.18-.23s-.21-.11-.21-.14-.1-.06-.3-.08l-.3,0H7.44a4,4,0,0,1-2.92-1.22A4,4,0,0,1,3.31,26V7.77A4,4,0,0,1,4.52,4.85,4,4,0,0,1,7.44,3.63h8.27a.78.78,0,0,0,.53-.17A.85.85,0,0,0,16.5,3a4.38,4.38,0,0,0,.08-.61,6.27,6.27,0,0,0,0-.68c0-.28,0-.45,0-.52A.8.8,0,0,0,16.3.57a.8.8,0,0,0-.58-.24H7.44A7.17,7.17,0,0,0,2.18,2.51,7.17,7.17,0,0,0,0,7.77V26a7.17,7.17,0,0,0,2.18,5.26,7.16,7.16,0,0,0,5.26,2.19h8.27a.79.79,0,0,0,.53-.17.86.86,0,0,0,.26-.5,4.36,4.36,0,0,0,.08-.61,6.27,6.27,0,0,0,0-.68c0-.28,0-.45,0-.52Zm0,0" transform="translate(0 -0.33)"/><path class="cls-1" d="M37.78,15.71,23.72,1.65a1.62,1.62,0,0,0-2.33,0,1.59,1.59,0,0,0-.49,1.16v7.44H9.33a1.68,1.68,0,0,0-1.65,1.65v9.93a1.68,1.68,0,0,0,1.65,1.65H20.91v7.44a1.65,1.65,0,0,0,2.82,1.16L37.78,18a1.62,1.62,0,0,0,0-2.33Zm0,0" transform="translate(0 -0.33)"/></svg>