<?xml version="1.0" encoding="utf-8"?>
<!-- Generator: Adobe Illustrator 21.1.0, SVG Export Plug-In . SVG Version: 6.00 Build 0)  -->
<svg version="1.1" id="Layer_1" xmlns="http://www.w3.org/2000/svg" xmlns:xlink="http://www.w3.org/1999/xlink" x="0px" y="0px"
	 viewBox="0 0 100 100" style="enable-background:new 0 0 100 100;" xml:space="preserve">
<style type="text/css">
	.st0{fill:#444444;}
	.st1{stroke:#444444;stroke-width:0.378;stroke-miterlimit:10;}
	.st2{fill:#FFFFFF;stroke:#444444;stroke-width:0.378;stroke-miterlimit:10;}
</style>
<g>
	<g>
		<path class="st0" d="M93.9,85.1"/>
		<path class="st0" d="M62.8,95.9c-11.8,0-23.5-2.7-34.6-7.9c-0.6-0.3-1.1-0.9-1.1-1.5V80c0-8.6,7.3-19.1,15.8-19.1h7.7v-8.2
			l-0.2-0.2c-1.5-1.9-2.8-4.1-3.9-6.3l-0.2-0.4L46,45.8c-2.1-0.3-4.1-2.5-5.2-5.7c-1.4-4-0.7-7.6,1.7-8.6l0.5-0.2l0-1.7
			c0-0.8,0-1.8,0-2.2l0-0.6l-0.5-0.2c-0.5-0.2-1-0.3-1.4-0.4c-3.3-1-6.1-1.8-6.1-5.3c0-3.6,3.1-7.8,8.4-11.3
			c5.7-3.8,12.6-5.9,19.4-5.9c6.8,0,13.7,2.1,19.4,5.9c5.2,3.5,8.4,7.7,8.4,11.3c0,3.5-2.8,4.3-6.1,5.3l-0.1,0
			c-0.4,0.1-0.9,0.3-1.3,0.4l-0.5,0.2l0,0.6c0,0.3,0,1.3,0,2.1c0,0.6,0,1.7,0,1.7l0.5,0.2c2.3,1,3,4.6,1.6,8.6
			c-1.1,3.2-3.1,5.4-5.2,5.7l-0.4,0.1l-0.2,0.3c-1,2.1-2.3,4.1-3.7,5.9l-0.2,0.2l0,0.1c0,0.1,0,0.1,0,0.2v8.3h7.6
			c3.9,0,7.8,2.2,11,6.3C96.3,71,98,75.8,98,80v6.5c0,0.6-0.3,1.1-0.9,1.4c-1.4,0.8-8.7,4.7-20.3,6.7C72.2,95.5,67.5,95.9,62.8,95.9
			z M42.9,63.9c-7.1,0-12.5,9.8-12.5,16.1v5.5l0.4,0.2c10.4,4.6,21.1,6.9,32,6.9c4.4,0,8.8-0.4,13.1-1.1c9.2-1.6,15.5-4.5,18.2-5.7
			l0.5-0.2V80c0-3.3-1.3-7.3-3.5-10.5c-2.5-3.6-5.6-5.6-8.8-5.6h-8.8L63.9,76c-0.3,0.4-0.8,0.6-1.3,0.6c-0.5,0-1-0.2-1.3-0.6
			l-9.7-12.1H42.9z M53.9,61.1l8.6,11.3l8.9-11.3v-5.4l-1.2,0.9c-2.5,1.9-5.1,2.8-7.7,2.8c-2.5,0-4.9-0.9-7.4-2.6l-1.2-0.8V61.1z
			 M47.3,42.4c0.2,0,0.3,0,0.5,0.1c0.4,0.1,0.8,0.5,1,0.9c2.7,6,7.9,13,13.8,13c6,0,11.2-7,13.8-12.9c0.2-0.4,0.5-0.7,1-0.9
			c0.2-0.1,0.3-0.1,0.5-0.1c0.2,0,0.3,0,0.5,0.1l0.3,0.1l0.3-0.2c0.6-0.4,1.6-1.6,2.3-3.4c0.6-1.7,0.6-2.9,0.5-3.5l-0.1-1.1l-1,0.5
			c-1.9,1-5.7,2.9-10.7,4c-2.7,0.6-5.4,0.9-8,0.9c-6.2,0-12.1-1.7-17.5-4.9l-1-0.6l-0.1,1.2c-0.1,0.6-0.1,1.8,0.5,3.5
			c0.6,1.8,1.6,3,2.3,3.4l0.3,0.2l0.4-0.1C46.9,42.4,47.1,42.4,47.3,42.4z M46.1,28.6c0,0.6,0,3.6,0,3.6l0.4,0.2
			c4.8,2.8,10,4.2,15.4,4.2c2.3,0,4.8-0.3,7.2-0.8c4.2-0.9,7.5-2.4,9.6-3.5l0.4-0.2l0-0.5c0-0.4,0-2.8,0-3.1l0-0.8h-33L46.1,28.6z
			 M38.1,21.5l0.2,0.2c0.3,0.4,1.1,0.7,3.4,1.4l0.2,0.1c0.2,0.1,0.6,0.2,1,0.4c0.9,0.3,2.2,0.8,3.3,1l0.1,0h32.9l0.1,0
			c1-0.2,2.2-0.6,3.1-1c0.5-0.2,0.8-0.3,1.1-0.4l0.2-0.1c2.2-0.6,3-1,3.3-1.4l0.4-0.6l-0.3-0.2C87,16.2,76.5,7.1,62.6,7.1
			c-13.9,0-24.5,9.3-24.5,13.9c0,0.1,0,0.2,0,0.3V21.5z"/>
		<path class="st0" d="M52.2,78"/>
		<path class="st0" d="M52.2,78"/>
	</g>
	<g>
		<path class="st1" d="M69.5,12.4c-0.1,0-0.1,0.1-0.2,0.1c0.2-0.2,0.3-0.4,0.3-0.6c0,0-0.1,0-0.1,0.1c-0.4,0.2-0.9,0.4-1.3,0.6
			c-0.1,0-0.2,0-0.3,0c-0.5,0.2-1.1,0.4-1.6,0.6c-0.3,0.1-0.6,0.1-0.9,0.2c-0.3,0.1-0.6,0.2-0.9,0.3c-0.2,0.1-0.2,0-0.3-0.1
			c0.3-0.2,0.7-0.5,1-0.7c0.4-0.3,0.9-0.6,1.3-0.9c0.2-0.1,0.3-0.3,0.4-0.6c-0.3-0.1-0.5,0-0.8,0.2c-0.8,0.5-1.5,1-2.3,1.5
			c-0.1,0.1-0.2,0.1-0.3,0c0,0-0.1,0-0.1,0c-0.2,0.1-0.3,0-0.3-0.2c0-0.1,0-0.1,0-0.2c0,0,0,0,0,0c0,0,0,0.1-0.1,0.1
			c-0.1,0-0.1-0.2-0.2-0.1c-0.1,0-0.1,0.1-0.2,0.2c0,0,0,0,0,0c-0.1,0-0.1,0-0.2,0c0-0.1,0-0.2-0.1-0.3c-0.1,0.1,0,0.3-0.2,0.3
			c0-0.1,0-0.2,0-0.4c0,0,0,0,0,0c0,0,0,0.1,0,0.1c0,0.2,0,0.3,0,0.5c0,0.1,0,0.2,0.2,0.2c0.1,0,0.1,0.1,0.1,0.2
			c-0.4-0.3-0.9-0.6-1.3-0.9c-0.6-0.4-1.3-0.9-1.9-1.3c-0.2-0.1-0.4-0.2-0.7-0.2c0,0-0.1,0.1-0.1,0.1c0.1,0.2,0.1,0.3,0.2,0.4
			c0.4,0.3,0.8,0.6,1.2,0.9c0.5,0.4,1,0.7,1.5,1.1c0,0,0.1,0.1,0.1,0.1c-0.1,0-0.1,0-0.2,0c-0.3-0.1-0.6-0.3-0.9-0.4
			c-0.2-0.1-0.4-0.1-0.6-0.2c-0.3-0.1-0.6-0.1-0.9-0.2c-0.5-0.2-0.9-0.3-1.4-0.5c-0.1,0-0.3,0-0.4-0.1c-0.3-0.1-0.7-0.3-1-0.4
			c-0.2-0.1-0.3-0.2-0.5-0.3c0,0.2,0.1,0.3,0.1,0.5c-0.1-0.1-0.3-0.1-0.4-0.2c0,0,0,0.1-0.1,0.1c0,0.1,0,0.1,0,0.2
			c0.1,0.3,0.4,0.4,0.6,0.6c-0.1,0-0.2-0.1-0.3-0.1c0,0.3,0.2,0.4,0.3,0.6c0,0,0,0.1,0,0.1c0.2,0.2,0.3,0.3,0.5,0.5c0,0-0.1,0-0.1,0
			c0,0,0.1,0.1,0.1,0.1c0.2,0.2,0.5,0.2,0.7,0.4c0,0,0,0,0.1,0c0.2,0,0.3,0,0.5,0.1c0,0,0.1,0,0.1,0c0,0,0,0,0,0
			c-0.1,0-0.1,0.1-0.2,0.1c0.2,0,0.3,0,0.5,0.1c0,0.1,0,0.2,0.2,0.1c0.1,0,0.2,0,0.3,0c0,0,0,0,0,0c0,0-0.1,0-0.1,0.1
			c0.2,0,0.4,0,0.6,0c0,0,0,0.1,0,0.2c0.2,0,0.3,0,0.5-0.1c0,0,0,0.1,0,0.1c0,0,0.1,0,0.1,0c0.1,0,0.2-0.1,0.3-0.1c0,0,0,0,0,0
			c0,0,0,0.1-0.1,0.1c0.2-0.1,0.4-0.1,0.6-0.2c0,0,0,0.1,0,0.1c0.1,0,0.2,0,0.3-0.1c0.1,0,0.1,0,0.2,0.1c-0.9,0.6-1.9,1.2-2.8,1.9
			c-0.1-0.1-0.1-0.1-0.2-0.2c-0.1-0.1-0.3-0.3-0.1-0.5c0,0,0,0,0-0.1c0-0.1,0-0.2-0.1-0.2c-0.1,0-0.2,0-0.3,0
			c-0.3,0.1-0.3,0.2-0.1,0.5c0.1,0.2,0.2,0.3,0.4,0.5c0,0,0,0.1,0,0.1c-0.2,0.1-0.2,0.3-0.4,0.4c-0.1,0-0.1,0.1-0.2,0.2
			c-0.1-0.1-0.2-0.1-0.2-0.1c-0.1,0-0.1-0.1-0.2-0.1c-0.1-0.1-0.3,0-0.4,0c-0.1,0.1-0.1,0.2,0,0.4c0.1,0.1,0.1,0.2,0.2,0.3
			c-0.1,0.1-0.2,0.2-0.3,0.3c-0.1,0.1-0.1,0.1-0.1,0.2c0,0.1,0.2,0.2,0.3,0.2c0.1,0,0.2-0.1,0.3-0.2c0-0.1,0.1-0.2,0.2-0.1
			c0.1,0,0.2,0.1,0.2,0.2c0.2,0.2,0.5,0.4,0.7,0.6c0.5,0.4,0.9,0.7,1.4,1.1c0.8,0.6,1.6,1.1,2.6,1.5c0.7,0.3,1.3,0.3,1.9-0.1
			c0.7-0.4,1.4-0.8,2-1.3c0.7-0.6,1.5-1.1,2.2-1.7c0.1-0.1,0.2-0.2,0.3-0.2c0.1,0,0.3,0.1,0.4,0.1c0.1,0.1,0.3,0.2,0.4,0.2
			c0.1,0,0.2-0.1,0.2-0.1c0.1-0.1,0-0.2-0.1-0.2c-0.1-0.1-0.2-0.1-0.2-0.2c-0.1-0.1-0.1-0.1-0.2-0.2c0.1-0.1,0.1-0.2,0.2-0.2
			c0.1-0.2,0.1-0.3,0-0.4c-0.1-0.1-0.3-0.1-0.5,0c-0.1,0.1-0.2,0.1-0.3,0.2c0,0-0.2,0-0.2,0c-0.1-0.2-0.4-0.2-0.5-0.4
			c-0.1-0.2-0.1-0.2,0-0.4c0,0,0.1-0.1,0.1-0.1c0.1-0.1,0.2-0.3,0.3-0.4c0.1-0.1,0-0.3-0.1-0.3c-0.1,0-0.2,0-0.3,0c0,0-0.1,0-0.1,0
			c0,0,0,0.1,0,0.1c0.1,0.2,0.1,0.3,0,0.4c0,0-0.1,0.1-0.1,0.1C67,17,67,17,66.8,16.9c-0.7-0.5-1.3-1-2-1.5
			c-0.2-0.1-0.3-0.3-0.2-0.5c0.1,0,0.2,0.1,0.4,0.1c0-0.1,0-0.1,0-0.2c0.2,0.1,0.4,0.2,0.7,0.2c0,0,0-0.1-0.1-0.1
			c0.2,0,0.4,0,0.6,0.1c0-0.1-0.1-0.1-0.1-0.2c0.3,0.1,0.4,0,0.7-0.1c0,0,0.1,0,0.1,0c0.2-0.1,0.5-0.1,0.7-0.2c0,0,0,0,0,0
			c0,0,0,0,0,0c0,0,0,0,0,0c0.2,0,0.5,0,0.7-0.2c0,0-0.1,0-0.1-0.1c0.3,0,0.6-0.1,0.8-0.3c-0.1,0-0.1,0-0.1-0.1
			c0.3-0.1,0.5-0.2,0.5-0.4c-0.1,0-0.1,0-0.1,0c0.3-0.1,0.4-0.3,0.5-0.6c-0.1,0-0.2,0.1-0.3,0.1c0.1-0.1,0.1-0.1,0.2-0.2
			c0.1-0.1,0.1-0.1,0.2-0.2c0.1-0.1,0.1-0.2,0.2-0.3c0,0,0,0,0-0.1C69.7,12.3,69.6,12.4,69.5,12.4z M62.2,13.4
			c-0.1-0.1-0.1-0.2,0-0.3C62.2,13.2,62.2,13.3,62.2,13.4z M68.5,17.7c0.1,0,0.2,0.1,0.1,0.2c0,0.1-0.1,0.2-0.2,0.3
			c-0.1,0.1-0.2,0-0.2,0c0-0.1-0.1-0.1-0.2-0.2C68.2,17.7,68.3,17.7,68.5,17.7z M69.3,12.1c0,0.4-1.2,1-1.6,0.8c0,0,0,0,0,0
			C68.2,12.6,68.8,12.4,69.3,12.1z M67.3,12.9C67.3,12.9,67.3,13,67.3,12.9c-0.2,0.1-0.3,0.2-0.5,0.2c0,0,0,0,0,0
			C67,13,67.1,13,67.3,12.9z M66.7,13.3c0.2-0.1,0.4-0.2,0.6-0.2c0.1,0,0.3,0,0.4,0c0,0,0,0.1,0,0.1c-0.2,0-0.4,0-0.5,0.1
			c0,0,0,0,0,0.1c0.1,0,0.3,0.1,0.4,0.1c0,0,0,0,0,0c-0.2,0-0.5,0-0.7,0c0,0,0,0,0,0.1c0.1,0,0.2,0.1,0.3,0.1c0,0,0,0,0,0
			c-0.2,0-0.4-0.1-0.6-0.1c0,0,0,0,0,0c0.1,0,0.1,0.1,0.2,0.1c0,0,0,0,0,0c-0.2,0-0.3-0.1-0.5-0.1c0,0,0,0,0,0
			c0.1,0.1,0.1,0.1,0.2,0.2c0,0,0,0,0,0c-0.2,0-0.3-0.1-0.5-0.1c0,0,0,0,0,0c0.1,0.1,0.1,0.1,0.2,0.2c0,0,0,0,0,0
			c-0.2-0.1-0.3-0.1-0.5-0.2c0,0,0,0,0,0c0.1,0.1,0.1,0.1,0.2,0.2c0,0,0,0,0,0c-0.1,0-0.3-0.1-0.5-0.2c0,0.1,0.1,0.2,0.1,0.2
			c0,0,0,0,0,0c-0.1-0.1-0.3-0.1-0.5-0.2c0,0.1,0.1,0.2,0.1,0.3c0,0,0,0,0,0c-0.1-0.1-0.2-0.1-0.3-0.2c0.3-0.1,0.6-0.2,0.9-0.3
			c0.2-0.1,0.4-0.2,0.6-0.3C66.5,13.4,66.6,13.3,66.7,13.3z M64.7,13.7c0.3-0.1,0.6-0.2,0.9-0.3c0.2,0,0.5-0.1,0.7-0.1c0,0,0,0,0,0
			c-0.2,0.1-0.4,0.2-0.6,0.3c0-0.1,0-0.1-0.1-0.1c-0.3,0.2-0.7,0.3-1.1,0.4c-0.4,0.1-0.7,0.2-1.1,0.2c0,0,0,0,0,0
			c0.1,0,0.2,0,0.4-0.1C64.1,13.9,64.4,13.8,64.7,13.7z M66.3,11.9c-0.7,0.5-1.4,1-2.2,1.5c-0.1,0.1-0.1,0-0.2-0.1
			c0.9-0.6,1.7-1.2,2.6-1.8C66.6,11.7,66.5,11.8,66.3,11.9z M64.6,12.6c0.6-0.4,1.1-0.8,1.7-1.1c0.1-0.1,0.2-0.1,0.3-0.1
			c0,0,0,0,0,0c0,0-0.1,0.1-0.1,0.1c-0.8,0.5-1.5,1-2.3,1.6c-0.1,0-0.1,0.1-0.2,0.1c-0.1,0-0.1,0-0.2,0c0,0,0,0,0-0.1
			C64,13,64.3,12.8,64.6,12.6z M63.5,13.3c0,0-0.1-0.1-0.1-0.1c0.3,0.1,0.5,0.3,0.7,0.5c0,0,0,0,0,0c0,0-0.1,0-0.1-0.1
			c-0.1-0.1-0.2-0.1-0.3,0c-0.1,0.2-0.1,0.2-0.3,0.1c-0.1,0-0.1-0.1-0.2-0.2c0,0,0,0,0,0c0,0,0.1,0.1,0.1,0.1c0.1,0,0.2,0.1,0.2,0.1
			c0.1,0,0.1-0.1,0.2-0.2C63.7,13.4,63.6,13.3,63.5,13.3z M62.9,13.7c0.1-0.1,0.2,0,0.3,0.1c-0.1,0.1-0.2,0.2-0.3,0
			C62.9,13.8,62.9,13.7,62.9,13.7z M62.8,13.4c0-0.1,0-0.1,0-0.2C62.9,13.3,62.9,13.3,62.8,13.4z M63.3,13.4
			c-0.2-0.2-0.5-0.3-0.7-0.6C62.9,13,63.2,13.1,63.3,13.4z M62.3,13.5c0-0.1,0-0.2,0-0.2c0-0.1,0-0.2,0.1-0.2c0,0,0.1,0.1,0.1,0.2
			c0,0.2,0,0.3,0,0.5C62.4,13.7,62.3,13.6,62.3,13.5z M62.2,13.9c0.1,0,0.2,0.1,0.3,0.1c0-0.1,0-0.1,0-0.1c0.1,0,0.2,0,0.3,0.1
			c0.2,0.1,0.3,0.2,0.5,0.2c0.2,0,0.3,0.2,0.4,0.3c0,0,0,0.1,0,0.2c-0.2,0.1-0.3,0.1-0.4,0.4c0,0,0,0,0,0c-0.1,0-0.5,0-0.6,0
			c-0.1-0.1-0.1-0.1-0.2-0.1c0-0.1,0-0.1,0-0.2c0.1-0.1,0.1-0.2-0.1-0.3c0,0.1,0.1,0.1,0.1,0.2c-0.2,0.2-0.3,0.2-0.1,0.3
			c0,0.2,0,0.2,0.2,0.2c0,0.2,0.1,0.1,0.2,0.1c0,0.1,0,0.1,0,0.1c0.2,0,0.3-0.1,0.5-0.1c0,0,0,0,0,0c0,0.1,0,0.1-0.1,0.2
			c-0.2-0.1-0.2,0-0.3,0.1c-0.1,0-0.1-0.1-0.2-0.2c0,0,0,0.1-0.1,0.1c-0.1-0.1-0.1-0.2-0.2,0c-0.1,0-0.1-0.3-0.3-0.1
			c-0.1-0.1,0-0.3-0.2-0.2c0-0.1,0-0.2,0-0.2c0,0-0.1,0-0.1,0c0-0.1,0.1-0.2,0.1-0.3c-0.1,0-0.1,0-0.2,0c0.1-0.1,0.1-0.3,0.3-0.4
			c0.1,0,0.2-0.1,0.4-0.1c0,0,0.1,0,0.1,0c0,0,0,0,0-0.1c-0.2,0-0.4-0.1-0.5-0.1c-0.1,0-0.2,0-0.2,0.2c0,0,0,0-0.1,0.1
			c-0.1,0.1-0.2,0.1-0.1,0.3c0,0,0,0.1,0,0.1c0,0.1,0,0.1,0,0.2c0,0.1,0.1,0.1,0.1,0.2c0.1,0.1,0.1,0.2,0.2,0.3
			c0,0.1,0.3,0.1,0.4,0.1c0.1,0.3-0.2,0.4-0.1,0.7c-0.1,0-0.2,0-0.3,0c0-0.3,0.1-0.6-0.1-0.9c0,0-0.1,0-0.1,0.1c0-0.1,0-0.2-0.1-0.4
			c-0.1,0-0.1,0.1-0.2,0.1c-0.1-0.2,0.1-0.3,0.1-0.5c-0.1,0-0.1,0-0.1,0c0.1-0.1,0.1-0.2,0.2-0.3c0,0-0.1,0-0.1,0
			c0.1-0.1,0.2-0.2,0.3-0.3c0,0,0,0,0,0C61.9,13.9,62,14.1,62.2,13.9z M63.4,17.3c-0.1,0.1-0.1,0.2-0.2,0.3c0-0.1-0.1-0.1-0.1-0.2
			C63.3,17.3,63.4,17.3,63.4,17.3z M63.2,17c0.1,0,0.1,0,0.2,0.1c0,0,0,0,0,0c0,0-0.1,0-0.1,0.1C63.2,17.2,63.2,17.1,63.2,17z
			 M63.4,17c0,0-0.1,0-0.1,0c0,0,0,0,0,0c0.1,0,0.1,0,0.2-0.1C63.4,16.9,63.4,17,63.4,17z M63.4,16.3c-0.1,0-0.1-0.1-0.1-0.2
			c0.1,0.1,0.2,0.3,0.3,0.4c0,0,0,0,0,0c0,0-0.1,0-0.1-0.1C63.5,16.4,63.4,16.3,63.4,16.3z M63.2,15.7c0.3,0.3,0.6,0.5,0.8,0.9
			C63.8,16.5,63.3,15.9,63.2,15.7z M63.3,15.3c0.2,0.1,0.4,0.3,0.5,0.4c0,0,0,0,0,0c-0.2,0.2-0.2,0.2-0.3,0
			C63.3,15.6,63.2,15.5,63.3,15.3z M63.4,15.3C63.4,15.3,63.5,15.2,63.4,15.3c0.1,0,0.3,0,0.4,0.1c0.8,0.5,1.5,1.1,2.3,1.7
			c0.1,0,0.1,0.1,0.2,0.1c0,0.1,0,0.2,0,0.3C65.3,16.7,64.4,16,63.4,15.3z M63.9,17.6c-0.1-0.2,0-0.3,0.1-0.4
			c0.2-0.2,0.4-0.4,0.6-0.6c0,0.1,0,0.2,0.1,0.4c0,0.2,0,0.4,0,0.6c0,0.1,0,0.1-0.1,0.2c-0.3,0.2-0.5,0.5-0.5,0.8
			c0,0.2,0,0.3,0.1,0.5c-0.2,0-0.3,0-0.6,0c0.1-0.2,0.2-0.3,0.3-0.5c0.1-0.2,0.2-0.5,0.4-0.8c0.1-0.1,0.1-0.2,0.2-0.3
			c0.1-0.1,0.1-0.2,0.2-0.3c0-0.1,0-0.3-0.1-0.3c-0.1,0-0.2,0.1-0.2,0.2c-0.1,0.2-0.1,0.4-0.1,0.6c0,0.1,0,0.2-0.1,0.3
			c-0.2,0.4-0.6,0.7-0.9,1C63.1,18.9,63,19,63,19c0.2-0.1,0.3-0.3,0.5-0.4c0.1-0.1,0.3-0.3,0.4-0.5C64,17.9,64,17.8,63.9,17.6z
			 M63.4,19.1c0,0-0.1,0-0.2,0c0,0,0,0,0,0c0.2-0.2,0.4-0.3,0.5-0.5c0,0,0,0,0,0C63.6,18.7,63.5,18.9,63.4,19.1z M64.3,17.3
			c0-0.1,0.1-0.2,0.1-0.3c0,0,0,0,0.1,0C64.5,17.1,64.4,17.2,64.3,17.3C64.4,17.3,64.4,17.3,64.3,17.3z M64.6,19.2c0,0,0.1,0,0.1,0
			c0,0,0,0,0,0.1c-0.2,0-0.4,0-0.5,0c-1.3,0-2.7,0-4,0c0,0-0.1,0-0.1-0.1c0,0,0.1-0.1,0.1-0.1C61.6,19.2,63.1,19.2,64.6,19.2z
			 M61.4,20c0.1,0.1,0.2,0.1,0.3,0c0.1-0.1,0.1-0.2,0-0.4c0.4,0,0.9,0,1.3,0c0,0.1-0.1,0.1-0.1,0.2c0,0.1,0,0.1,0.1,0.2
			c0.1,0.1,0.3,0.1,0.3,0c0.1-0.1,0.1-0.2-0.1-0.4c0.3,0,0.5,0,0.8,0c-0.1,0.2-0.2,0.3-0.3,0.5c0,0-0.1,0.1-0.1,0.1
			c-0.9,0-1.8,0-2.7,0c-0.1,0-0.1,0-0.2-0.1c-0.1-0.1-0.1-0.3-0.2-0.4c0.3,0,0.5,0,0.7,0c0,0.1-0.1,0.1-0.1,0.2
			C61.3,19.9,61.4,19.9,61.4,20z M61.4,19.7c0,0,0.1-0.1,0.1-0.1c0.1,0,0.1,0.1,0.2,0.2c0,0-0.1,0.1-0.1,0.1
			C61.5,20,61.4,19.9,61.4,19.7z M63.1,19.7c0.1,0,0.1,0.1,0.2,0.1c0,0-0.1,0.1-0.1,0.2c-0.1-0.1-0.1-0.1-0.1-0.2
			C63,19.7,63,19.7,63.1,19.7z M60.3,17.8c-0.3-0.2-0.4-0.4-0.3-0.7c0-0.2,0.1-0.4,0.1-0.6c0-0.1,0.1-0.1,0.1-0.1
			c0.1,0.1,0.2,0.1,0.3,0.2c0.1,0.1,0.3,0.3,0.4,0.4c0,0,0,0.1,0,0.1c-0.1,0.8,0.3,1.3,1,1.7c0,0,0.1,0,0.1,0.1
			c-0.2,0-0.4-0.1-0.5-0.2c-0.5-0.5-0.9-1-1-1.7c0-0.1-0.1-0.2-0.1-0.3c0,0-0.1-0.1-0.2-0.1c0,0-0.1,0.1-0.1,0.2
			c0,0.1,0,0.2,0.1,0.3c0.2,0.2,0.3,0.5,0.4,0.8c0.1,0.3,0.3,0.6,0.4,0.9c0,0,0,0.1,0.1,0.1c-0.2,0-0.4,0-0.6,0
			c0-0.1,0.1-0.1,0.1-0.2C60.8,18.5,60.7,18.1,60.3,17.8z M62.1,16.8c0-0.1,0-0.1,0.1-0.1c0.1,0,0.2,0.1,0.2,0.2
			c0,0.2-0.1,0.3-0.2,0.4c0,0,0,0-0.1,0c0-0.1,0-0.2,0-0.2C62.1,17,62.1,16.9,62.1,16.8z M62.6,15.7c0.1,0,0.2-0.1,0.3-0.1
			c0,0.1,0.1,0.3,0.1,0.4c-0.1,0-0.1,0-0.2,0.1C62.8,16,62.7,15.9,62.6,15.7z M62.9,17.3c-0.1,0.1-0.1,0.1-0.2,0.2
			C62.7,17.4,62.8,17.3,62.9,17.3C62.9,17.3,62.9,17.3,62.9,17.3z M62.8,16.4c-0.1,0.1-0.1,0.1-0.2,0.2c0,0-0.1,0.1,0,0.1
			c0,0.1,0,0.1,0.1,0.2c0,0,0.1,0,0.1,0c0.1,0.2,0,0.4-0.2,0.6c0-0.1-0.1-0.2-0.1-0.3c0-0.4,0-0.7,0-1.1c0,0,0,0,0.1,0
			C62.7,16.1,62.7,16.2,62.8,16.4z M62.5,17.6c-0.1,0.1-0.1,0.1-0.2,0.2c0,0-0.1-0.1-0.1-0.1c0-0.1,0-0.2,0.1-0.2
			C62.4,17.5,62.5,17.6,62.5,17.6z M61.9,18.6c-0.1,0-0.2,0-0.2,0c-0.1-0.1-0.1-0.1-0.1-0.2c0-0.2,0.4-0.5,0.5-0.5c0,0,0,0,0.1,0
			c-0.1,0.1-0.3,0.1-0.3,0.3c-0.1,0-0.3,0-0.3,0.2c0,0.1,0.1,0.1,0.1,0.2c0.1,0,0.2,0,0.3-0.2c0.1,0,0.1,0,0.2,0
			C62.1,18.4,62,18.5,61.9,18.6z M62.1,18.6c0,0.1,0,0.2,0,0.3c-0.1-0.1-0.2-0.1-0.3-0.2C61.9,18.7,62,18.7,62.1,18.6z M62,18.4
			c-0.1,0-0.1,0.1-0.1,0.1c0,0-0.1-0.1-0.1-0.1c0,0,0.1-0.1,0.1-0.1C61.9,18.3,61.9,18.4,62,18.4z M62.4,16.5
			c-0.1-0.1-0.2-0.2-0.1-0.3c0,0,0.1-0.1,0.1-0.1c0,0,0,0,0,0C62.4,16.3,62.4,16.4,62.4,16.5z M62.1,17.5c0.1,0.2,0,0.3-0.1,0.4
			c-0.3,0.2-0.3,0.2-0.6,0.5c-0.2-0.2-0.3-0.4-0.3-0.6c0-0.2,0-0.3,0-0.5c0-0.1,0-0.2,0-0.3c0.1,0,0.1,0,0.2-0.1c0,0.1,0,0.1,0,0.2
			c0,0.1,0,0.2,0.2,0.1c0,0,0.1,0,0.1,0c0,0.1,0.1,0.2,0.1,0.3c0,0,0.1,0,0.1-0.1C62,17.3,62,17.3,62.1,17.5z M61.8,17.3
			c-0.1-0.1,0-0.4-0.3-0.2c0-0.1,0-0.2,0-0.3C61.7,16.9,61.9,17,61.8,17.3z M61,16.6c0-0.3,0.3-0.5,0.7-0.8
			C61.5,16.1,61.3,16.4,61,16.6z M61.1,16.7c0,0.1,0,0.2,0,0.2c0,0,0,0-0.1,0c0,0-0.1-0.1-0.1-0.1c0,0,0,0,0-0.1
			C60.9,16.8,61,16.7,61.1,16.7z M61.5,19.1c-0.1,0-0.4-0.3-0.5-0.6C61.1,18.6,61.3,18.8,61.5,19.1z M60.5,17.3
			C60.4,17.3,60.4,17.3,60.5,17.3c-0.1-0.1-0.1-0.2-0.2-0.3c0,0,0,0,0.1,0C60.4,17.1,60.4,17.2,60.5,17.3z M62.5,19
			C62.5,19,62.4,19.1,62.5,19c-0.1,0.1-0.2,0.1-0.3,0c-0.1-0.2,0-0.5,0.2-0.6c0,0,0,0,0,0C62.5,18.6,62.5,18.8,62.5,19z M62.3,18.1
			C62.3,18.1,62.3,18.1,62.3,18.1c0.2-0.2,0.4-0.4,0.6-0.5c0,0,0,0,0,0C62.7,17.8,62.5,17.9,62.3,18.1z M62.9,17.5
			c0.1,0,0.1-0.1,0.1,0c0,0,0.1,0.1,0.1,0.1c0,0,0,0-0.1,0C63,17.5,63,17.5,62.9,17.5z M58.5,11.3c0.1,0.1,0.3,0.1,0.4,0.2
			c1,0.7,2,1.4,3,2.1c0.1,0,0.1,0.1,0.1,0.2c0,0,0,0-0.1,0C60.8,13,59.6,12.2,58.5,11.3C58.5,11.3,58.5,11.3,58.5,11.3z M59.3,12.3
			c-0.2-0.2-0.5-0.3-0.7-0.5c-0.1-0.1-0.2-0.2-0.3-0.4c1.1,0.8,2.2,1.6,3.2,2.3c-0.1,0-0.1,0.1-0.2,0.1C60.7,13.3,60,12.8,59.3,12.3
			z M58.9,13.2c0.8,0,1.5,0.5,2.3,0.7c0,0,0,0,0,0c-0.3-0.1-0.6-0.1-0.9-0.2c0.1-0.1,0-0.1-0.1-0.1c-0.4,0-0.8-0.1-1.2-0.4
			C59,13.3,58.9,13.3,58.9,13.2C58.9,13.2,58.8,13.2,58.9,13.2z M58.7,13.2c-0.3,0-0.5-0.2-0.8-0.3C58,12.9,58.6,13.1,58.7,13.2z
			 M57.9,13c0.3,0.2,0.6,0.3,0.9,0.4c0,0,0.1,0,0.1,0c0.1,0.2,0.3,0.2,0.5,0.3c0.4,0.1,0.8,0.2,1.3,0.3c-0.1,0.1-0.2,0.1-0.3,0.2
			c0-0.1,0-0.1,0-0.2c-0.1,0-0.2,0.1-0.3,0.1c0-0.1,0-0.1,0.1-0.2c-0.1,0-0.3,0.1-0.4,0.1c0-0.1,0.1-0.1,0.1-0.2c0,0,0,0,0,0
			c-0.1,0-0.2,0.1-0.4,0.1c0,0,0,0,0,0c0,0,0-0.1,0-0.1c0,0-0.1,0-0.1,0c-0.1,0-0.2,0.1-0.3,0.1c0-0.1,0.1-0.1,0.1-0.2
			c-0.2,0-0.4,0.1-0.5,0.1c0,0,0,0,0,0c0.1-0.1,0.2-0.1,0.3-0.2c0,0,0,0,0-0.1c-0.2,0-0.4,0.1-0.6,0.1c0,0,0,0,0,0
			c0.1,0,0.2-0.1,0.2-0.1c0,0,0,0,0-0.1c-0.1,0-0.2,0-0.3,0c-0.1,0-0.2,0-0.3,0c0.1,0,0.2-0.1,0.2-0.1c0,0,0,0,0,0
			c-0.1,0-0.3,0-0.5,0c0.1,0,0.1-0.1,0.2-0.1c0,0,0,0,0,0c-0.2,0-0.3,0-0.5-0.1c0.1,0,0.2,0,0.3-0.1c0,0,0,0,0-0.1
			c-0.2,0-0.3-0.1-0.5-0.1C57.4,12.8,57.6,12.9,57.9,13z M55.7,12c0.5,0.2,1,0.5,1.5,0.7c-0.1,0-0.2,0-0.3,0.1c0,0-0.1,0-0.1,0
			c-0.3-0.2-0.6-0.3-0.9-0.5C55.8,12.2,55.8,12.1,55.7,12C55.7,12,55.7,12,55.7,12z M60.5,14.8C60.5,14.8,60.5,14.8,60.5,14.8
			c0-0.1,0-0.2,0-0.3c0,0,0,0,0,0c-0.1,0.1-0.3,0.2-0.4,0.4c0,0,0,0,0,0c0-0.1,0.1-0.2,0.1-0.2c0,0,0,0,0,0
			c-0.2,0.1-0.4,0.2-0.5,0.3c0,0,0,0,0,0c0.1-0.1,0.1-0.2,0.2-0.3c0,0,0,0,0,0c-0.2,0.1-0.4,0.2-0.6,0.4c0,0,0,0,0,0
			c0.1-0.2,0.2-0.3,0.3-0.5c0,0,0,0,0,0c-0.2,0.1-0.4,0.4-0.7,0.4c0.1-0.2,0.3-0.3,0.4-0.5c0,0,0,0,0,0c-0.3,0.1-0.5,0.3-0.8,0.4
			c0,0,0,0,0,0c0.2-0.1,0.3-0.3,0.5-0.4c0,0,0,0,0,0c-0.3,0.1-0.5,0.4-0.9,0.4c0.2-0.2,0.4-0.3,0.5-0.5c-0.4,0.2-0.7,0.4-1.1,0.3
			c0.3-0.1,0.5-0.3,0.8-0.4c0,0,0,0,0-0.1c-0.1,0-0.1,0-0.2,0c-0.3,0.1-0.6,0.1-0.8,0.2c-0.1,0-0.2,0-0.3-0.1c0.2,0,0.3,0,0.5-0.1
			c0.2,0,0.3-0.1,0.5-0.2c0,0,0,0,0-0.1c-0.1,0-0.1,0-0.2,0c-0.3,0.1-0.6,0.1-0.9,0c-0.1,0-0.2-0.1-0.4-0.2c0.2,0,0.3,0,0.5,0
			c0.2,0,0.3,0,0.5,0c0,0,0,0,0-0.1c-0.1,0-0.1,0-0.2,0c-0.3,0-0.6-0.1-0.9-0.2c-0.1,0-0.2-0.1-0.3-0.2c0,0,0,0,0,0
			c0.4,0.1,0.7,0.2,1.1,0.3c0,0,0,0,0-0.1c0,0-0.1-0.1-0.1-0.1c-0.3-0.1-0.6-0.3-0.9-0.4c-0.2-0.1-0.4-0.2-0.5-0.4
			c0.2,0.1,0.4,0.2,0.5,0.3c0.3,0.1,0.6,0.3,0.9,0.4c0.1,0,0.1,0.1,0.2,0.2c0.1,0.1,0.2,0.2,0.3,0.2c0,0,0,0,0,0.1c0,0,0,0,0,0
			c0.2,0.1,0.5,0.2,0.7,0.3c0,0,0.1,0.1,0.1,0.1c0.2,0.1,0.4,0.1,0.7,0.2c0.1,0,0.1,0,0.1,0.1c0,0,0.1,0,0.2,0.1c0.1,0,0.1,0,0.2,0
			c0,0.1,0,0.1,0.3,0.1c0.1,0.1,0.1,0.1,0.4,0c0,0,0,0.1-0.1,0.2c0.1,0,0.2,0,0.3,0c0,0.2,0,0.2,0.5,0c0,0,0,0.1,0,0.1
			c0.2-0.1,0.5,0,0.6-0.3c-0.1,0-0.1,0-0.2,0c0,0,0,0,0,0c0.1,0,0.1,0,0.2,0c0,0.1-0.1,0.1-0.1,0.1c0,0.1,0,0.1,0,0.2
			c0,0.1,0,0.2,0.1,0.3c0,0,0,0-0.1,0c0-0.1,0-0.2,0-0.3c-0.1,0.1-0.2,0.2-0.3,0.3c0,0,0,0,0,0c0-0.1,0-0.2,0-0.3
			C60.7,14.6,60.6,14.7,60.5,14.8z M56.4,18C56.4,18.1,56.3,18.1,56.4,18c-0.1-0.1-0.2-0.1-0.3-0.2c0-0.1,0-0.2,0-0.2
			c0.1,0,0.2-0.1,0.2-0.1c0.1,0,0.2,0.1,0.4,0.2C56.6,17.9,56.5,18,56.4,18z M67.7,18.4c0,0,0.1,0.1,0.1,0.1c-0.4,0.3-0.7,0.6-1,0.8
			c-1,0.8-2,1.4-3.1,2.1c-0.8,0.4-1.5,0.4-2.3,0.1c-0.8-0.3-1.5-0.8-2.2-1.3c-0.7-0.5-1.4-1-2.1-1.5c-0.1-0.1-0.2-0.2-0.3-0.3
			c-0.1-0.1-0.1-0.1,0-0.1c0.1,0,0.2-0.1,0.3-0.1c0.1-0.1,0.2,0,0.3,0.1c0.2,0.1,0.3,0.3,0.5,0.4c1,0.7,2,1.3,3,1.8
			c0.4,0.2,0.9,0.4,1.4,0.4c0.4,0,0.7-0.1,1.1-0.3c1.2-0.6,2.4-1.2,3.5-2c0.2-0.1,0.3-0.2,0.5-0.3C67.6,18.3,67.6,18.3,67.7,18.4z
			 M67.2,18c0.1,0,0.1,0.1,0.2,0.2c-0.2,0.2-0.5,0.3-0.7,0.5c-1,0.7-2.1,1.3-3.2,1.9c-0.7,0.4-1.5,0.4-2.2,0
			c-1.3-0.7-2.6-1.4-3.8-2.4c0,0,0,0-0.1,0c0.1-0.1,0.2-0.1,0.2-0.2c0,0,0.1,0,0.2-0.1c0.3-0.1,0.3-0.1,0.4,0.2
			c0.1,0.1,0.1,0.2,0.2,0.3c0.1,0.2,0.2,0.2,0.4,0c0.1-0.1,0.1-0.1,0.2-0.2c0-0.1,0-0.1,0-0.2c0,0-0.1,0-0.2,0c-0.1,0-0.2,0-0.3-0.1
			c-0.1-0.1-0.2-0.2-0.2-0.3c0-0.1,0.1-0.2,0.2-0.3c-0.1,0-0.1,0.1-0.2,0.1c0,0-0.1,0-0.1-0.1c0-0.2,0-0.3-0.3-0.4
			c0.2-0.2,0.5-0.3,0.7-0.5c0.7-0.5,1.4-1,2.1-1.4c0.1-0.1,0.3-0.1,0.4-0.2c0.1,0.1,0,0.2-0.1,0.3c-0.8,0.5-1.5,1-2.3,1.6
			c-0.2,0.1-0.3,0.2-0.6,0.2c0.1,0,0.1,0,0.2,0c0,0.1,0,0.1,0,0.2c0,0,0,0,0,0c0,0,0,0,0-0.1c0-0.2,0.1-0.2,0.2-0.3
			c0.5-0.3,1-0.6,1.5-1c0.3-0.2,0.7-0.5,1-0.7c0.1-0.1,0.2-0.1,0.3-0.1c0,0,0,0,0,0c0,0-0.1,0.1-0.1,0.1c-0.7,0.5-1.4,1-2.1,1.5
			c-0.2,0.1-0.3,0.2-0.5,0.4c0,0-0.1,0.1-0.1,0.1c0.9-0.6,1.8-1.3,2.7-1.9c0.1-0.1,0.2-0.2,0.3,0c0,0,0.1,0,0.1,0
			c0,0.2-0.2,0.3-0.3,0.4c-0.3,0.2-0.5,0.4-0.6,0.8c-0.1-0.1-0.2-0.2-0.4-0.2c-0.1-0.1-0.2-0.1-0.3,0c0,0-0.1,0.1-0.1,0.1
			c0,0.2-0.1,0.4-0.1,0.7c-0.1,0.3,0,0.5,0.3,0.7c0.2,0.1,0.4,0.3,0.4,0.6c0,0.1,0,0.2,0,0.3c-0.1,0.2-0.1,0.3-0.4,0.3
			c-0.1,0-0.1,0-0.2,0c0,0,0,0,0,0c-0.1,0.4,0,0.4,0.3,0.4c0.2,0,0.3,0.1,0.3,0.2c0.1,0.1,0.1,0.2,0.2,0.3c0.1,0.1,0.2,0.2,0.3,0.2
			c0.8,0,1.7,0,2.5,0c0.2,0,0.3-0.1,0.4-0.2c0.1-0.1,0.1-0.2,0.1-0.2c0.1-0.2,0.3-0.4,0.6-0.3c0,0,0,0,0.1,0c0,0,0,0,0,0
			c0-0.1,0-0.2,0-0.3c0,0-0.1,0-0.1,0c-0.3-0.1-0.4-0.2-0.5-0.5c0-0.3,0.1-0.6,0.4-0.7c0.3-0.1,0.3-0.2,0.3-0.5c0-0.2,0-0.5-0.1-0.8
			c0-0.3-0.2-0.3-0.4-0.2c-0.2,0.2-0.5,0.4-0.7,0.6c-0.1,0.1-0.1,0.3-0.1,0.4c0.1,0.3,0,0.5-0.2,0.7c-0.2,0.2-0.4,0.4-0.6,0.6
			c-0.1,0.1-0.2,0.1-0.2,0.1c0-0.3,0-0.7,0-1c0-0.1,0.1-0.1,0.2-0.1c0.2,0,0.3,0,0.4-0.2c0.1-0.1,0.2-0.3,0.3-0.4c0,0,0-0.1,0-0.1
			c0,0,0-0.1,0-0.1c0,0,0.1,0,0.1,0c0,0,0,0,0,0c0.2,0,0.2,0,0.2-0.2c0,0,0,0,0-0.1c0.1,0,0.1,0,0.3,0c-0.2-0.2-0.2-0.5,0-0.7
			c0.7,0.5,1.5,1.1,2.2,1.6c-0.1,0.2-0.2,0.3-0.3,0.4c0,0-0.1,0-0.1,0c-0.1,0-0.1,0-0.2,0c-0.1,0-0.2,0.1-0.1,0.2
			c0.1,0.1,0.2,0.3,0.3,0.4c0.1,0.1,0.2,0,0.2-0.1c0.1-0.2,0.3-0.4,0.4-0.6c0,0,0.1-0.1,0.1-0.1C66.9,17.9,67.1,18,67.2,18z
			 M66.7,17c0,0,0.1,0.1,0.1,0.1c-0.3,0-0.2,0.2-0.2,0.4c-0.2,0-0.2-0.1-0.1-0.4c-0.2-0.1-0.3-0.2-0.5-0.3c-0.6-0.4-1.2-0.8-1.8-1.2
			c-0.1-0.1-0.2-0.2-0.4-0.3c0.1-0.1,0.2-0.1,0.3,0C65,15.8,65.8,16.4,66.7,17z M63.9,14.8c0,0,0.1-0.1,0.2-0.1c0,0,0.2,0,0.1,0.2
			C64.2,14.8,64,14.8,63.9,14.8z M69.3,13.1C69.3,13.1,69.3,13.2,69.3,13.1c0,0.1-0.1,0.2-0.2,0.2c-0.2,0.1-0.3,0.1-0.5,0.2
			c-0.3,0.1-0.5,0.1-0.8,0.2c0,0,0,0-0.1,0c0,0,0,0,0,0c0.4,0,0.8-0.1,1.1-0.1c0,0,0,0,0,0c-0.1,0.1-0.2,0.1-0.3,0.2
			c-0.3,0-0.6,0.1-0.9,0.1c-0.1,0-0.1,0-0.2,0c0.3,0.1,0.6,0.1,0.9,0.2c-0.3,0.1-0.5,0.1-0.8,0.1c-0.2,0-0.5-0.1-0.7-0.1
			c0.2,0.2,0.5,0.2,0.8,0.4c-0.4,0.1-0.7-0.1-1.1-0.2c0.1,0.2,0.3,0.3,0.5,0.4c-0.4,0-0.6-0.2-0.9-0.3c0,0,0,0,0,0
			c0,0,0.1,0.1,0.1,0.1c0,0.2,0.1,0.2,0.2,0.2c0,0,0,0,0.1,0.1c-0.3,0-0.5-0.2-0.8-0.3c0,0,0,0,0,0c0.1,0.1,0.3,0.2,0.4,0.4
			c-0.4,0.1-0.6-0.2-0.8-0.3c0,0,0,0,0,0c0.1,0.1,0.2,0.3,0.3,0.4c-0.2,0-0.3-0.1-0.4-0.2c-0.1-0.1-0.2-0.1-0.3-0.2c0,0,0,0,0,0
			c0,0,0,0,0,0c0.1,0.2,0.1,0.3,0.2,0.5c-0.2,0-0.4-0.2-0.6-0.3c0,0,0,0,0,0c0,0.1,0,0.1,0,0.2c-0.2,0-0.2-0.3-0.4-0.3
			c-0.1-0.3-0.4-0.2-0.6-0.4c0.3,0,0.5-0.1,0.8-0.1c0,0,0,0,0.1,0c0.2,0,0.2,0,0.3,0.3c-0.1-0.1-0.2-0.1-0.4-0.2
			c0,0.1,0,0.2,0.1,0.3c-0.1-0.1-0.2-0.1-0.3-0.2c0,0.2,0.2,0.3,0.4,0.3c0.1,0,0.3,0,0.4,0c0,0,0,0,0,0c0,0,0,0,0,0c0,0,0,0,0,0
			c0.1,0,0.3-0.1,0.4-0.1c0.1,0,0.1,0,0.2-0.1c0,0,0.1,0,0.1,0c0.1,0,0.2,0,0.3-0.1c0,0,0.1,0,0.1,0c0.1,0,0.3,0,0.4-0.1
			c0,0,0.1,0,0.2-0.1c0.2-0.1,0.3-0.2,0.5-0.3c0.1,0,0.2,0,0.2-0.1c0.1,0,0.2-0.1,0.2-0.2C68.2,13.4,68.7,13.3,69.3,13.1z
			 M69.1,12.9c-0.3,0.1-0.6,0.2-0.9,0.3c-0.1,0-0.1,0-0.2-0.1c0.2-0.1,0.5-0.2,0.7-0.3c0.2-0.1,0.5-0.2,0.7-0.3
			C69.5,12.7,69.3,12.8,69.1,12.9z"/>
		<path class="st1" d="M60.7,11.1c0.1-0.1,0.3-0.3,0.4-0.4c0.4-0.3,0.3-0.4,0.2-0.7c0-0.1-0.1-0.2-0.1-0.4c0.3,0.1,0.6,0.1,0.9,0.2
			c0,0,0.1,0,0.1-0.1c0.1-0.2,0.2-0.3,0.3-0.5c0,0,0.1-0.1,0.1-0.1c0.1,0.2,0.2,0.3,0.3,0.5C63,9.8,63,9.8,63.2,9.8
			c0.2,0,0.4,0,0.7-0.1c-0.1,0.1-0.1,0.2-0.2,0.4c0,0.1-0.1,0.2-0.2,0.3c-0.1,0.2,0,0.2,0.1,0.3c0.2,0.1,0.4,0.3,0.5,0.5
			c0,0,0,0,0,0.1c-0.1,0-0.3,0.1-0.4,0.1c-0.1,0-0.2,0.1-0.4,0.1c-0.1,0-0.1,0.1-0.1,0.2c0,0.2,0,0.4,0,0.6c0.2,0,0.3,0,0.5,0
			c0.2,0,0.2,0.1,0.2,0.2c0,0.1-0.1,0.2-0.3,0.2c-0.5,0-1,0-1.5,0c-0.4,0-0.7,0-1.1,0c-0.1,0-0.2,0-0.2-0.1c-0.1-0.1,0-0.2,0.1-0.3
			c0.2,0,0.3,0,0.5,0c0.1,0,0.1,0,0.1-0.1c0-0.2,0-0.4,0-0.5c0,0-0.1-0.1-0.1-0.1C61.3,11.3,61,11.2,60.7,11.1z M61,11
			C61,11,61,11,61,11c0.5,0,0.9-0.1,1.3-0.2c-0.2-0.1-0.5-0.1-0.7-0.2c0,0,0,0-0.1,0C61.3,10.7,61.1,10.8,61,11z M63,12.2
			C63,12.1,63,12.1,63,12.2c-0.2-0.2-0.3-0.3-0.5-0.4c0,0-0.1,0-0.1,0c-0.2,0.1-0.3,0.2-0.5,0.4C62.3,12.2,62.7,12.2,63,12.2z
			 M63.6,9.9C63.6,9.9,63.6,9.8,63.6,9.9c-0.2,0-0.3,0-0.5,0c-0.1,0-0.1,0-0.2,0.1c-0.1,0.2-0.2,0.4-0.3,0.6c0,0,0,0,0,0
			C63,10.4,63.3,10.1,63.6,9.9z M62.4,11C62.3,10.9,62.3,10.9,62.4,11c-0.2,0-0.3,0.1-0.4,0.2c-0.2,0.1-0.2,0.2-0.2,0.4
			c0,0.1,0,0.2,0,0.4c0,0,0,0,0,0C62,11.6,62.2,11.3,62.4,11z M62.7,10.7C62.7,10.7,62.7,10.7,62.7,10.7c0.4,0.1,0.8,0.2,1.2,0.3
			c0,0,0,0,0-0.1c-0.1-0.1-0.3-0.3-0.4-0.3c-0.1,0-0.2,0-0.3,0c0,0,0,0,0,0C63,10.7,62.8,10.7,62.7,10.7z M62.7,10.9
			C62.7,10.9,62.7,11,62.7,10.9c0.1,0.4,0.3,0.7,0.5,1.1c0-0.2,0.1-0.4,0.1-0.5c0-0.1,0-0.1-0.1-0.2C63,11.2,62.9,11.1,62.7,10.9z
			 M61,11.1c0.6,0.2,0.9,0.2,1.2-0.2C61.8,10.9,61.5,11,61,11.1z M62.3,10.7C62.3,10.6,62.3,10.6,62.3,10.7
			c-0.3-0.3-0.6-0.5-0.8-0.7c0,0,0,0,0,0c0.1,0.2,0.1,0.3,0.2,0.5c0,0,0,0,0.1,0C61.8,10.5,62,10.6,62.3,10.7z M62.7,10.8
			C62.7,10.8,62.7,10.8,62.7,10.8c0.2,0.2,0.4,0.3,0.6,0.5c0,0,0,0,0.1,0c0.2,0,0.4-0.1,0.5-0.1c0,0,0,0,0,0
			C63.5,11,63.1,10.9,62.7,10.8z M62.3,10.6C62.3,10.5,62.3,10.5,62.3,10.6c-0.1-0.2-0.2-0.4-0.3-0.6c0,0,0-0.1-0.1-0.1
			c-0.2,0-0.3-0.1-0.5-0.1c0,0,0,0,0,0C61.8,10.1,62,10.3,62.3,10.6z M62.5,11C62.5,11,62.4,11,62.5,11c-0.2,0.3-0.4,0.7-0.6,1
			c0.1,0,0.2-0.1,0.3-0.2c0.2-0.1,0.2-0.2,0.3-0.4C62.4,11.3,62.5,11.1,62.5,11z M63.1,12C63.1,12,63.1,12,63.1,12
			c-0.1-0.4-0.3-0.7-0.5-1c0,0.2,0,0.4,0,0.7c0,0,0,0.1,0,0.1C62.8,11.8,62.9,11.9,63.1,12z M62.6,9.4c0,0.4,0,0.7-0.1,1.1
			c0.1-0.2,0.2-0.3,0.3-0.4c0.1-0.1,0.1-0.3,0-0.4C62.7,9.6,62.7,9.5,62.6,9.4z M62.4,10.5C62.4,10.5,62.5,10.5,62.4,10.5
			c0-0.4,0-0.7,0-1.1c-0.2,0.2-0.4,0.5-0.2,0.8C62.3,10.3,62.4,10.4,62.4,10.5z M62.7,10.6C62.7,10.6,62.7,10.6,62.7,10.6
			c0.2,0,0.5-0.1,0.7-0.2c0,0,0,0,0,0c0.1-0.2,0.2-0.3,0.2-0.5c0,0,0,0,0,0C63.3,10.2,63,10.4,62.7,10.6z M61.9,12.2
			c0.1,0.3,0.2,0.3,0.5,0.2C62.3,12.2,62.3,12.2,61.9,12.2z M63.4,12.5c-0.2-0.2-0.3-0.3-0.5-0.2C62.9,12.5,63.2,12.5,63.4,12.5z
			 M61.4,12.4C61.4,12.4,61.4,12.4,61.4,12.4c-0.1-0.1-0.1-0.2-0.2-0.2c0,0-0.1,0-0.2,0.1c0,0.1,0,0.1,0.1,0.1
			C61.2,12.5,61.3,12.4,61.4,12.4z"/>
		<path class="st2" d="M58.6,17.4c0.9-0.6,1.8-1.3,2.7-1.9c0.1-0.1,0.2-0.2,0.3,0c0,0,0.1,0,0.1,0c0,0.2-0.2,0.3-0.3,0.4
			c-0.3,0.2-0.5,0.4-0.6,0.8c-0.1-0.1-0.2-0.2-0.4-0.2c-0.1-0.1-0.2-0.1-0.3,0c0,0-0.1,0.1-0.1,0.1c0,0.2-0.1,0.4-0.1,0.7
			c-0.1,0.3,0,0.5,0.3,0.7c0.2,0.1,0.4,0.3,0.4,0.6c0,0.1,0,0.2,0,0.3c-0.1,0.2-0.1,0.3-0.4,0.3c-0.1,0-0.1,0-0.2,0c0,0,0,0,0,0
			c-0.1,0.4,0,0.4,0.3,0.4c0.2,0,0.3,0.1,0.3,0.2c0.1,0.1,0.1,0.2,0.2,0.3c0.1,0.1,0.2,0.2,0.3,0.2c0.8,0,1.7,0,2.5,0
			c0.2,0,0.3-0.1,0.4-0.2c0.1-0.1,0.1-0.2,0.1-0.2c0.1-0.2,0.3-0.4,0.6-0.3c0,0,0,0,0.1,0c0,0,0,0,0,0c0-0.1,0-0.2,0-0.3
			c0,0-0.1,0-0.1,0c-0.3-0.1-0.4-0.2-0.5-0.5c0-0.3,0.1-0.6,0.4-0.7c0.3-0.1,0.3-0.2,0.3-0.5c0-0.2,0-0.5-0.1-0.8
			c0-0.3-0.2-0.3-0.4-0.2c-0.2,0.2-0.5,0.4-0.7,0.6c-0.1,0.1-0.1,0.3-0.1,0.4c0.1,0.3,0,0.5-0.2,0.7c-0.2,0.2-0.4,0.4-0.6,0.6
			c-0.1,0.1-0.2,0.1-0.2,0.1c0-0.3,0-0.7,0-1c0-0.1,0.1-0.1,0.2-0.1c0.2,0,0.3,0,0.4-0.2c0.1-0.1,0.2-0.3,0.3-0.4c0,0,0-0.1,0-0.1
			c0,0,0-0.1,0-0.1c0,0,0.1,0,0.1,0c0,0,0,0,0,0c0.2,0,0.2,0,0.2-0.2c0,0,0,0,0-0.1c0.1,0,0.1,0,0.3,0c-0.2-0.2-0.2-0.5,0-0.7
			c0.7,0.5,1.5,1.1,2.2,1.6c-0.1,0.2-0.2,0.3-0.3,0.4c0,0-0.1,0-0.1,0c-0.1,0-0.1,0-0.2,0c-0.1,0-0.2,0.1-0.1,0.2
			c0.1,0.1,0.2,0.3,0.3,0.4c0.1,0.1,0.2,0,0.2-0.1c0.1-0.2,0.3-0.4,0.4-0.6c0,0,0.1-0.1,0.1-0.1c0.1,0.1,0.3,0.1,0.4,0.2
			c0.1,0,0.1,0.1,0.2,0.2c-0.2,0.2-0.5,0.3-0.7,0.5c-1,0.7-2.1,1.3-3.2,1.9c-0.7,0.4-1.5,0.4-2.2,0c-1.3-0.7-2.6-1.4-3.8-2.4
			c0,0,0,0-0.1,0c0.1-0.1,0.2-0.1,0.2-0.2c0,0,0.1,0,0.2-0.1c0.3-0.1,0.3-0.1,0.4,0.2c0.1,0.1,0.1,0.2,0.2,0.3
			c0.1,0.2,0.2,0.2,0.4,0c0.1-0.1,0.1-0.1,0.2-0.2c0-0.1,0-0.1,0-0.2c0,0-0.1,0-0.2,0c-0.1,0-0.2,0-0.3-0.1
			c-0.1-0.1-0.2-0.2-0.2-0.3C58.4,17.5,58.5,17.4,58.6,17.4C58.6,17.4,58.6,17.4,58.6,17.4z"/>
		<path class="st2" d="M67.9,18.6c-0.4,0.3-0.7,0.6-1,0.8c-1,0.8-2,1.4-3.1,2.1c-0.8,0.4-1.5,0.4-2.3,0.1c-0.8-0.3-1.5-0.8-2.2-1.3
			c-0.7-0.5-1.4-1-2.1-1.5c-0.1-0.1-0.2-0.2-0.3-0.3c-0.1-0.1-0.1-0.1,0-0.1c0.1,0,0.2-0.1,0.3-0.1c0.1-0.1,0.2,0,0.3,0.1
			c0.2,0.1,0.3,0.3,0.5,0.4c1,0.7,2,1.3,3,1.8c0.4,0.2,0.9,0.4,1.4,0.4c0.4,0,0.7-0.1,1.1-0.3c1.2-0.6,2.4-1.2,3.5-2
			c0.2-0.1,0.3-0.2,0.5-0.3c0.2-0.1,0.2-0.1,0.4,0C67.8,18.5,67.8,18.5,67.9,18.6z"/>
		<path class="st2" d="M59.3,14.3c-0.2,0.1-0.4,0.4-0.7,0.4c0.1-0.2,0.3-0.3,0.4-0.5c0,0,0,0,0,0c-0.3,0.1-0.5,0.3-0.8,0.4
			c0,0,0,0,0,0c0.2-0.1,0.3-0.3,0.5-0.4c0,0,0,0,0,0c-0.3,0.1-0.5,0.4-0.9,0.4c0.2-0.2,0.4-0.3,0.5-0.5c-0.4,0.2-0.7,0.4-1.1,0.3
			c0.3-0.1,0.5-0.3,0.8-0.4c0,0,0,0,0-0.1c-0.1,0-0.1,0-0.2,0c-0.3,0.1-0.6,0.1-0.8,0.2c-0.1,0-0.2,0-0.3-0.1c0.2,0,0.3,0,0.5-0.1
			c0.2,0,0.3-0.1,0.5-0.2c0,0,0,0,0-0.1c-0.1,0-0.1,0-0.2,0c-0.3,0.1-0.6,0.1-0.9,0c-0.1,0-0.2-0.1-0.4-0.2c0.2,0,0.3,0,0.5,0
			c0.2,0,0.3,0,0.5,0c0,0,0,0,0-0.1c-0.1,0-0.1,0-0.2,0c-0.3,0-0.6-0.1-0.9-0.2c-0.1,0-0.2-0.1-0.3-0.2c0,0,0,0,0,0
			c0.4,0.1,0.7,0.2,1.1,0.3c0,0,0,0,0-0.1c0,0-0.1-0.1-0.1-0.1c-0.3-0.1-0.6-0.3-0.9-0.4c-0.2-0.1-0.4-0.2-0.5-0.4
			c0.2,0.1,0.4,0.2,0.5,0.3c0.3,0.1,0.6,0.3,0.9,0.4c0.1,0,0.1,0.1,0.2,0.2c0.1,0.1,0.2,0.2,0.3,0.2c0,0,0,0,0,0.1c0,0,0,0,0,0
			c0.2,0.1,0.5,0.2,0.7,0.3c0,0,0.1,0.1,0.1,0.1c0.2,0.1,0.4,0.1,0.7,0.2c0.1,0,0.1,0,0.1,0.1c0,0,0.1,0,0.2,0.1c0.1,0,0.1,0,0.2,0
			c0,0.1,0,0.1,0.3,0.1c0.1,0.1,0.1,0.1,0.4,0c0,0,0,0.1-0.1,0.2c0.1,0,0.2,0,0.3,0c0,0.2,0,0.2,0.5,0c0,0,0,0.1,0,0.1
			c0.2-0.1,0.5,0,0.6-0.3c-0.1,0-0.1,0-0.2,0c0,0,0,0,0,0c0.1,0,0.1,0,0.2,0c0,0.1-0.1,0.1-0.1,0.1c0,0.1,0,0.1,0,0.2
			c0,0.1,0,0.2,0.1,0.3c0,0,0,0-0.1,0c0-0.1,0-0.2,0-0.3c-0.1,0.1-0.2,0.2-0.3,0.3c0,0,0,0,0,0c0-0.1,0-0.2,0-0.3
			c-0.1,0.1-0.2,0.2-0.3,0.3c0,0,0,0,0,0c0-0.1,0-0.2,0.1-0.3c0,0,0,0,0,0c-0.1,0.1-0.3,0.2-0.4,0.4c0,0,0,0,0,0
			c0-0.1,0.1-0.2,0.1-0.2c0,0,0,0,0,0c-0.2,0.1-0.4,0.2-0.5,0.3c0,0,0,0,0,0c0.1-0.1,0.1-0.2,0.2-0.3c0,0,0,0,0,0
			c-0.2,0.1-0.4,0.2-0.6,0.4c0,0,0,0,0,0C59.2,14.6,59.3,14.5,59.3,14.3C59.4,14.3,59.4,14.3,59.3,14.3z"/>
		<path class="st2" d="M61.5,14.3C61.5,14.3,61.5,14.3,61.5,14.3c0-0.1,0.1-0.2,0.2-0.3c0,0,0,0,0,0c0.1,0,0.3,0.1,0.4,0
			c0.1,0,0.2,0.1,0.3,0.1c0-0.1,0-0.1,0-0.1c0.1,0,0.2,0,0.3,0.1c0.2,0.1,0.3,0.2,0.5,0.2c0.2,0,0.3,0.2,0.4,0.3c0,0,0,0.1,0,0.2
			c-0.2,0.1-0.3,0.1-0.4,0.4c0,0,0,0,0,0c-0.1,0-0.5,0-0.6,0c-0.1-0.1-0.1-0.1-0.2-0.1c0-0.1,0-0.1,0-0.2c0.1-0.1,0.1-0.2-0.1-0.3
			c0,0.1,0.1,0.1,0.1,0.2c-0.2,0.2-0.3,0.2-0.1,0.3c0,0.2,0,0.2,0.2,0.2c0,0.2,0.1,0.1,0.2,0.1c0,0.1,0,0.1,0,0.1
			c0.2,0,0.3-0.1,0.5-0.1c0,0,0,0,0,0c0,0.1,0,0.1-0.1,0.2c-0.2-0.1-0.2,0-0.3,0.1c-0.1,0-0.1-0.1-0.2-0.2c0,0,0,0.1-0.1,0.1
			c-0.1-0.1-0.1-0.2-0.2,0c-0.1,0-0.1-0.3-0.3-0.1c-0.1-0.1,0-0.3-0.2-0.2c0-0.1,0-0.2,0-0.2c0,0-0.1,0-0.1,0c0-0.1,0.1-0.2,0.1-0.3
			c-0.1,0-0.1,0-0.2,0c0.1-0.1,0.1-0.3,0.3-0.4c0.1,0,0.2-0.1,0.4-0.1c0,0,0.1,0,0.1,0c0,0,0,0,0-0.1c-0.2,0-0.4-0.1-0.5-0.1
			c-0.1,0-0.2,0-0.2,0.2c0,0,0,0-0.1,0.1c-0.1,0.1-0.2,0.1-0.1,0.3c0,0,0,0.1,0,0.1c0,0.1,0,0.1,0,0.2c0,0.1,0.1,0.1,0.1,0.2
			c0.1,0.1,0.1,0.2,0.2,0.3c0,0.1,0.3,0.1,0.4,0.1c0.1,0.3-0.2,0.4-0.1,0.7c-0.1,0-0.2,0-0.3,0c0-0.3,0.1-0.6-0.1-0.9
			c0,0-0.1,0-0.1,0.1c0-0.1,0-0.2-0.1-0.4c-0.1,0-0.1,0.1-0.2,0.1c-0.1-0.2,0.1-0.3,0.1-0.5c-0.1,0-0.1,0-0.1,0
			C61.4,14.5,61.5,14.4,61.5,14.3z M62.9,14.3C62.9,14.3,62.9,14.3,62.9,14.3c0,0,0.1,0.1,0.1,0.1c0,0,0.1,0,0.1,0.1
			c0.1,0.1,0.2,0.1,0.3,0.1c0.1,0,0.1-0.1,0.1-0.1c0-0.1,0-0.2-0.1-0.2C63.3,14.3,63.1,14.3,62.9,14.3z"/>
		<path class="st2" d="M65.1,14.5C65.1,14.5,65.1,14.4,65.1,14.5c0.2-0.1,0.3-0.1,0.5-0.2c0.1,0,0.1,0,0.2-0.1c0,0,0.1,0,0.1,0
			c0.1,0,0.2,0,0.3-0.1c0,0,0.1,0,0.1,0c0.1,0,0.3,0,0.4-0.1c0,0,0.1,0,0.2-0.1c0.2-0.1,0.3-0.2,0.5-0.3c0.1,0,0.2,0,0.2-0.1
			c0.1,0,0.2-0.1,0.2-0.2c0.5-0.1,1.1-0.2,1.6-0.3c0,0,0,0,0,0c-0.1,0.1-0.1,0.1-0.2,0.2c-0.2,0.1-0.3,0.1-0.5,0.2
			c-0.3,0.1-0.5,0.1-0.8,0.2c0,0,0,0-0.1,0c0,0,0,0,0,0c0.4,0,0.8-0.1,1.1-0.1c0,0,0,0,0,0c-0.1,0.1-0.2,0.1-0.3,0.2
			c-0.3,0-0.6,0.1-0.9,0.1c-0.1,0-0.1,0-0.2,0c0.3,0.1,0.6,0.1,0.9,0.2c-0.3,0.1-0.5,0.1-0.8,0.1c-0.2,0-0.5-0.1-0.7-0.1
			c0.2,0.2,0.5,0.2,0.8,0.4c-0.4,0.1-0.7-0.1-1.1-0.2c0.1,0.2,0.3,0.3,0.5,0.4c-0.4,0-0.6-0.2-0.9-0.3c0,0,0,0,0,0
			c0,0,0.1,0.1,0.1,0.1c0,0.2,0.1,0.2,0.2,0.2c0,0,0,0,0.1,0.1c-0.3,0-0.5-0.2-0.8-0.3c0,0,0,0,0,0c0.1,0.1,0.3,0.2,0.4,0.4
			c-0.4,0.1-0.6-0.2-0.8-0.3c0,0,0,0,0,0c0.1,0.1,0.2,0.3,0.3,0.4c-0.2,0-0.3-0.1-0.4-0.2C65.3,14.6,65.2,14.5,65.1,14.5
			C65.1,14.5,65.1,14.5,65.1,14.5z"/>
		<path class="st2" d="M58.6,17.4C58.6,17.4,58.6,17.4,58.6,17.4c-0.1,0.1-0.2,0.1-0.3,0.1c0,0-0.1,0-0.1-0.1c0-0.2,0-0.3-0.3-0.4
			c0.2-0.2,0.5-0.3,0.7-0.5c0.7-0.5,1.4-1,2.1-1.4c0.1-0.1,0.3-0.1,0.4-0.2c0.1,0.1,0,0.2-0.1,0.3c-0.8,0.5-1.5,1-2.3,1.6
			c-0.2,0.1-0.3,0.2-0.6,0.2c0.1,0,0.1,0,0.2,0c0,0.1,0,0.1,0,0.2c0,0,0,0,0,0c0,0,0,0,0-0.1c0-0.2,0.1-0.2,0.2-0.3
			c0.5-0.3,1-0.6,1.5-1c0.3-0.2,0.7-0.5,1-0.7c0.1-0.1,0.2-0.1,0.3-0.1c0,0,0,0,0,0c0,0-0.1,0.1-0.1,0.1c-0.7,0.5-1.4,1-2.1,1.5
			c-0.2,0.1-0.3,0.2-0.5,0.4C58.7,17.3,58.7,17.3,58.6,17.4z"/>
		<path class="st2" d="M60.7,19.6c0.3,0,0.5,0,0.7,0c0,0.1-0.1,0.1-0.1,0.2c0,0.1,0,0.1,0.1,0.2c0.1,0.1,0.2,0.1,0.3,0
			c0.1-0.1,0.1-0.2,0-0.4c0.4,0,0.9,0,1.3,0c0,0.1-0.1,0.1-0.1,0.2c0,0.1,0,0.1,0.1,0.2c0.1,0.1,0.3,0.1,0.3,0
			c0.1-0.1,0.1-0.2-0.1-0.4c0.3,0,0.5,0,0.8,0c-0.1,0.2-0.2,0.3-0.3,0.5c0,0-0.1,0.1-0.1,0.1c-0.9,0-1.8,0-2.7,0
			c-0.1,0-0.1,0-0.2-0.1C60.8,19.9,60.8,19.8,60.7,19.6z"/>
		<path class="st2" d="M61.1,19.1c-0.2,0-0.4,0-0.6,0c0-0.1,0.1-0.1,0.1-0.2c0.2-0.4,0.1-0.9-0.3-1.1c-0.3-0.2-0.4-0.4-0.3-0.7
			c0-0.2,0.1-0.4,0.1-0.6c0-0.1,0.1-0.1,0.1-0.1c0.1,0.1,0.2,0.1,0.3,0.2c0.1,0.1,0.3,0.3,0.4,0.4c0,0,0,0.1,0,0.1
			c-0.1,0.8,0.3,1.3,1,1.7c0,0,0.1,0,0.1,0.1c-0.2,0-0.4-0.1-0.5-0.2c-0.5-0.5-0.9-1-1-1.7c0-0.1-0.1-0.2-0.1-0.3
			c0,0-0.1-0.1-0.2-0.1c0,0-0.1,0.1-0.1,0.2c0,0.1,0,0.2,0.1,0.3c0.2,0.2,0.3,0.5,0.4,0.8c0.1,0.3,0.3,0.6,0.4,0.9
			C61.1,19,61.1,19,61.1,19.1z"/>
		<path class="st2" d="M66.4,17c-0.2-0.1-0.3-0.2-0.5-0.3c-0.6-0.4-1.2-0.8-1.8-1.2c-0.1-0.1-0.2-0.2-0.4-0.3c0.1-0.1,0.2-0.1,0.3,0
			c0.8,0.6,1.7,1.2,2.5,1.8c0,0,0.1,0.1,0.1,0.1c-0.3,0-0.2,0.2-0.2,0.4C66.4,17.5,66.3,17.4,66.4,17z"/>
		<path class="st2" d="M64.2,19.1c-0.2,0-0.3,0-0.6,0c0.1-0.2,0.2-0.3,0.3-0.5c0.1-0.2,0.2-0.5,0.4-0.8c0.1-0.1,0.1-0.2,0.2-0.3
			c0.1-0.1,0.1-0.2,0.2-0.3c0-0.1,0-0.3-0.1-0.3c-0.1,0-0.2,0.1-0.2,0.2c-0.1,0.2-0.1,0.4-0.1,0.6c0,0.1,0,0.2-0.1,0.3
			c-0.2,0.4-0.6,0.7-0.9,1C63.1,18.9,63,19,63,19c0.2-0.1,0.3-0.3,0.5-0.4c0.1-0.1,0.3-0.3,0.4-0.5c0.1-0.2,0.2-0.4,0.1-0.6
			c-0.1-0.2,0-0.3,0.1-0.4c0.2-0.2,0.4-0.4,0.6-0.6c0,0.1,0,0.2,0.1,0.4c0,0.2,0,0.4,0,0.6c0,0.1,0,0.1-0.1,0.2
			c-0.3,0.2-0.5,0.5-0.5,0.8C64.1,18.7,64.1,18.9,64.2,19.1z"/>
		<path class="st2" d="M61.4,18.4c-0.2-0.2-0.3-0.4-0.3-0.6c0-0.2,0-0.3,0-0.5c0-0.1,0-0.2,0-0.3c0.1,0,0.1,0,0.2-0.1
			c0,0.1,0,0.1,0,0.2c0,0.1,0,0.2,0.2,0.1c0,0,0.1,0,0.1,0c0,0.1,0.1,0.2,0.1,0.3c0,0,0.1,0,0.1-0.1c0.1-0.1,0.2-0.1,0.3,0.1
			c0.1,0.2,0,0.3-0.1,0.4C61.6,18.1,61.6,18.1,61.4,18.4z"/>
		<path class="st2" d="M67.8,13.1c-0.2,0-0.4,0-0.5,0.1c0,0,0,0,0,0.1c0.1,0,0.3,0.1,0.4,0.1c0,0,0,0,0,0c-0.2,0-0.5,0-0.7,0
			c0,0,0,0,0,0.1c0.1,0,0.2,0.1,0.3,0.1c0,0,0,0,0,0c-0.2,0-0.4-0.1-0.6-0.1c0,0,0,0,0,0c0.1,0,0.1,0.1,0.2,0.1c0,0,0,0,0,0
			c-0.2,0-0.3-0.1-0.5-0.1c0,0,0,0,0,0c0.1,0.1,0.1,0.1,0.2,0.2c0,0,0,0,0,0c-0.2,0-0.3-0.1-0.5-0.1c0,0,0,0,0,0
			c0.1,0.1,0.1,0.1,0.2,0.2c0,0,0,0,0,0c-0.2-0.1-0.3-0.1-0.5-0.2c0,0,0,0,0,0c0.1,0.1,0.1,0.1,0.2,0.2c0,0,0,0,0,0
			c-0.1,0-0.3-0.1-0.5-0.2c0,0.1,0.1,0.2,0.1,0.2c0,0,0,0,0,0c-0.1-0.1-0.3-0.1-0.5-0.2c0,0.1,0.1,0.2,0.1,0.3c0,0,0,0,0,0
			c-0.1-0.1-0.2-0.1-0.3-0.2c0.3-0.1,0.6-0.2,0.9-0.3c0.2-0.1,0.4-0.2,0.6-0.3c0.1-0.1,0.3-0.1,0.4-0.2c0.2-0.1,0.4-0.2,0.6-0.2
			C67.5,13,67.7,13,67.8,13.1C67.8,13.1,67.8,13.1,67.8,13.1z"/>
		<path class="st2" d="M59.8,14.1c0-0.1,0.1-0.1,0.1-0.2c0,0,0,0,0,0c-0.1,0-0.2,0.1-0.4,0.1c0,0,0,0,0,0c0,0,0-0.1,0-0.1
			c0,0-0.1,0-0.1,0c-0.1,0-0.2,0.1-0.3,0.1c0-0.1,0.1-0.1,0.1-0.2c-0.2,0-0.4,0.1-0.5,0.1c0,0,0,0,0,0c0.1-0.1,0.2-0.1,0.3-0.2
			c0,0,0,0,0-0.1c-0.2,0-0.4,0.1-0.6,0.1c0,0,0,0,0,0c0.1,0,0.2-0.1,0.2-0.1c0,0,0,0,0-0.1c-0.1,0-0.2,0-0.3,0c-0.1,0-0.2,0-0.3,0
			c0.1,0,0.2-0.1,0.2-0.1c0,0,0,0,0,0c-0.1,0-0.3,0-0.5,0c0.1,0,0.1-0.1,0.2-0.1c0,0,0,0,0,0c-0.2,0-0.3,0-0.5-0.1
			c0.1,0,0.2,0,0.3-0.1c0,0,0,0,0-0.1c-0.2,0-0.3-0.1-0.5-0.1c0.3-0.1,0.5,0,0.8,0.1c0.3,0.2,0.6,0.3,0.9,0.4c0,0,0.1,0,0.1,0
			c0.1,0.2,0.3,0.2,0.5,0.3c0.4,0.1,0.8,0.2,1.3,0.3c-0.1,0.1-0.2,0.1-0.3,0.2c0-0.1,0-0.1,0-0.2c-0.1,0-0.2,0.1-0.3,0.1
			c0-0.1,0-0.1,0.1-0.2C60,14,59.9,14.1,59.8,14.1z"/>
		<path class="st2" d="M58.4,11.4c1.1,0.8,2.2,1.6,3.2,2.3c-0.1,0-0.1,0.1-0.2,0.1c-0.7-0.5-1.4-1-2.1-1.5c-0.2-0.2-0.5-0.3-0.7-0.5
			C58.5,11.7,58.4,11.6,58.4,11.4z"/>
		<path class="st2" d="M61.9,13.8c-1.1-0.8-2.3-1.7-3.4-2.5c0,0,0,0,0-0.1c0.1,0.1,0.3,0.1,0.4,0.2c1,0.7,2,1.4,3,2.1
			C61.9,13.6,62,13.7,61.9,13.8C62,13.8,62,13.8,61.9,13.8z"/>
		<path class="st2" d="M64.7,19.3c-0.2,0-0.4,0-0.5,0c-1.3,0-2.7,0-4,0c0,0-0.1,0-0.1-0.1c0,0,0.1-0.1,0.1-0.1c1.5,0,2.9,0,4.4,0
			C64.6,19.2,64.7,19.3,64.7,19.3C64.7,19.3,64.7,19.3,64.7,19.3z"/>
		<path class="st2" d="M66.3,17.1c0,0.1,0,0.2,0,0.3c-1-0.7-1.9-1.4-2.9-2.1c0,0,0,0,0-0.1c0.1,0,0.2,0,0.3,0.1
			c0.8,0.5,1.5,1.1,2.3,1.7C66.2,17,66.2,17.1,66.3,17.1z"/>
		<path class="st2" d="M63.7,13.2c0.3-0.2,0.5-0.4,0.8-0.6c0.6-0.4,1.1-0.8,1.7-1.1c0.1-0.1,0.2-0.1,0.3-0.1c0,0,0,0,0,0
			c0,0-0.1,0.1-0.1,0.1c-0.8,0.5-1.5,1-2.3,1.6c-0.1,0-0.1,0.1-0.2,0.1C63.9,13.2,63.8,13.2,63.7,13.2
			C63.8,13.2,63.8,13.2,63.7,13.2z"/>
		<path class="st2" d="M65.1,14.5c0.1,0.2,0.1,0.3,0.2,0.5c-0.2,0-0.4-0.2-0.6-0.3c0,0,0,0,0,0c0,0.1,0,0.1,0,0.2
			c-0.2,0-0.2-0.3-0.4-0.3c-0.1-0.3-0.4-0.2-0.6-0.4c0.3,0,0.5-0.1,0.8-0.1c0,0,0,0,0.1,0c0.2,0,0.2,0,0.3,0.3
			c-0.1-0.1-0.2-0.1-0.4-0.2c0,0.1,0,0.2,0.1,0.3c-0.1-0.1-0.2-0.1-0.3-0.2c0,0.2,0.2,0.3,0.4,0.3C64.8,14.5,64.9,14.5,65.1,14.5
			C65.1,14.5,65.1,14.5,65.1,14.5z"/>
		<path class="st2" d="M64,13.3c0.9-0.6,1.7-1.2,2.6-1.8c-0.1,0.2-0.2,0.3-0.3,0.4c-0.7,0.5-1.4,1-2.2,1.5
			C64.1,13.4,64,13.4,64,13.3z"/>
		<path class="st2" d="M66.3,13.3c-0.2,0.1-0.4,0.2-0.6,0.3c0-0.1,0-0.1-0.1-0.1c-0.3,0.2-0.7,0.3-1.1,0.4c-0.4,0.1-0.7,0.2-1.1,0.2
			c0,0,0,0,0,0c0.1,0,0.2,0,0.4-0.1c0.3-0.1,0.6-0.1,0.8-0.3c0.3-0.1,0.6-0.2,0.9-0.3C65.8,13.4,66.1,13.3,66.3,13.3
			C66.3,13.2,66.3,13.3,66.3,13.3z"/>
		<path class="st2" d="M67.7,12.9c0.5-0.2,1.1-0.5,1.6-0.7C69.3,12.5,68.1,13.1,67.7,12.9C67.7,12.9,67.7,12.9,67.7,12.9z"/>
		<path class="st2" d="M58.9,13.2c0.8,0,1.5,0.5,2.3,0.7c0,0,0,0,0,0c-0.3-0.1-0.6-0.1-0.9-0.2c0.1-0.1,0-0.1-0.1-0.1
			c-0.4,0-0.8-0.1-1.2-0.4C59,13.3,58.9,13.3,58.9,13.2C58.9,13.2,58.8,13.2,58.9,13.2z"/>
		<path class="st2" d="M62.6,16c0.1,0.1,0.1,0.3,0.2,0.4c-0.1,0.1-0.1,0.1-0.2,0.2c0,0-0.1,0.1,0,0.1c0,0.1,0,0.1,0.1,0.2
			c0,0,0.1,0,0.1,0c0.1,0.2,0,0.4-0.2,0.6c0-0.1-0.1-0.2-0.1-0.3C62.5,16.7,62.5,16.4,62.6,16C62.5,16,62.6,16,62.6,16z"/>
		<path class="st2" d="M69.6,12.5c-0.1,0.2-0.2,0.3-0.4,0.4c-0.3,0.1-0.6,0.2-0.9,0.3c-0.1,0-0.1,0-0.2-0.1c0.2-0.1,0.5-0.2,0.7-0.3
			C69.1,12.7,69.3,12.6,69.6,12.5z"/>
		<path class="st2" d="M68.1,17.9c0.1-0.1,0.2-0.2,0.4-0.2c0.1,0,0.2,0.1,0.1,0.2c0,0.1-0.1,0.2-0.2,0.3c-0.1,0.1-0.2,0-0.2,0
			C68.2,18,68.2,18,68.1,17.9z"/>
		<path class="st2" d="M64,16.5c-0.3-0.1-0.7-0.6-0.8-0.9C63.5,16,63.9,16.2,64,16.5z"/>
		<path class="st2" d="M61,16.6c0-0.3,0.3-0.5,0.7-0.8C61.5,16.1,61.3,16.4,61,16.6z"/>
		<path class="st2" d="M62.5,18.5c0,0.2,0,0.3,0,0.5c0,0,0,0.1-0.1,0.1c-0.1,0-0.2,0-0.2,0C62.1,18.9,62.3,18.5,62.5,18.5
			C62.5,18.5,62.5,18.5,62.5,18.5z"/>
		<path class="st2" d="M63.2,13.5c0,0,0.1,0.1,0.1,0.1c0.1,0,0.2,0.1,0.2,0.1c0.1,0,0.1-0.1,0.2-0.2c0,0-0.1-0.1-0.1-0.2
			c0,0-0.1-0.1-0.1-0.1c0.3,0.1,0.5,0.3,0.7,0.5c0,0,0,0,0,0c0,0-0.1,0-0.1-0.1c-0.1-0.1-0.2-0.1-0.3,0c-0.1,0.2-0.1,0.2-0.3,0.1
			C63.2,13.7,63.2,13.6,63.2,13.5C63.1,13.5,63.1,13.5,63.2,13.5z"/>
		<path class="st2" d="M63.3,15.3c0.2,0.1,0.4,0.3,0.5,0.4c0,0,0,0,0,0c-0.2,0.2-0.2,0.2-0.3,0C63.3,15.6,63.2,15.5,63.3,15.3z"/>
		<path class="st2" d="M62.5,13.7c-0.1,0-0.2-0.1-0.2-0.2c0-0.1,0-0.2,0-0.2c0-0.1,0-0.2,0.1-0.2c0,0,0.1,0.1,0.1,0.2
			C62.6,13.4,62.5,13.6,62.5,13.7z"/>
		<path class="st2" d="M62.1,17.4c0-0.1,0-0.2,0-0.2c0-0.1,0-0.2,0-0.3c0-0.1,0-0.1,0.1-0.1c0.1,0,0.2,0.1,0.2,0.2
			C62.3,17.1,62.3,17.3,62.1,17.4C62.2,17.4,62.1,17.4,62.1,17.4z"/>
		<path class="st2" d="M62.3,18.3c-0.1,0.1-0.2,0.2-0.4,0.3c-0.1,0-0.2,0-0.2,0c-0.1-0.1-0.1-0.1-0.1-0.2c0-0.2,0.4-0.5,0.5-0.5
			c0,0,0,0,0.1,0c-0.1,0.1-0.3,0.1-0.3,0.3c-0.1,0-0.3,0-0.3,0.2c0,0.1,0.1,0.1,0.1,0.2c0.1,0,0.2,0,0.3-0.2
			C62.1,18.3,62.2,18.3,62.3,18.3z"/>
		<path class="st2" d="M62.6,15.7c0.1,0,0.2-0.1,0.3-0.1c0,0.1,0.1,0.3,0.1,0.4c-0.1,0-0.1,0-0.2,0.1C62.8,16,62.7,15.9,62.6,15.7z"
			/>
		<path class="st2" d="M62.7,12.8c0.3,0.2,0.5,0.3,0.7,0.6C63.1,13.2,62.8,13.1,62.7,12.8z"/>
		<path class="st2" d="M58.7,13.2c-0.3,0-0.5-0.2-0.8-0.3C58,12.9,58.6,13.1,58.7,13.2z"/>
		<path class="st2" d="M62.5,17.6c-0.1,0.1-0.1,0.1-0.2,0.2c0,0-0.1-0.1-0.1-0.1c0-0.1,0-0.2,0.1-0.2C62.4,17.5,62.5,17.6,62.5,17.6
			z"/>
		<path class="st2" d="M63.8,18.6c-0.1,0.2-0.3,0.3-0.4,0.5c0,0-0.1,0-0.2,0c0,0,0,0,0,0C63.4,18.9,63.5,18.7,63.8,18.6
			C63.7,18.6,63.7,18.6,63.8,18.6z"/>
		<path class="st2" d="M61.5,16.8c0.3,0,0.4,0.2,0.3,0.5c-0.1-0.1,0-0.4-0.3-0.2C61.5,17,61.5,16.9,61.5,16.8z"/>
		<path class="st2" d="M61.4,19.7c0,0,0.1-0.1,0.1-0.1c0.1,0,0.1,0.1,0.2,0.2c0,0-0.1,0.1-0.1,0.1C61.5,20,61.4,19.9,61.4,19.7z"/>
		<path class="st2" d="M63.1,20c-0.1-0.1-0.1-0.1-0.1-0.2c0-0.1,0-0.2,0.1-0.1c0.1,0,0.1,0.1,0.2,0.1C63.3,19.9,63.2,19.9,63.1,20z"
			/>
		<path class="st2" d="M60.9,18.4c0.2,0.2,0.4,0.4,0.5,0.6C61.3,19.1,61.1,18.7,60.9,18.4z"/>
		<path class="st2" d="M62.4,16.1c0,0.1,0,0.3,0,0.4c-0.1-0.1-0.2-0.2-0.1-0.3C62.3,16.2,62.3,16.1,62.4,16.1
			C62.4,16.1,62.4,16.1,62.4,16.1z"/>
		<path class="st2" d="M63.2,13.8c-0.1,0.1-0.2,0.2-0.3,0c0,0,0-0.1,0-0.1C63,13.6,63.1,13.6,63.2,13.8z"/>
		<path class="st2" d="M62.9,17.6c-0.2,0.2-0.4,0.3-0.6,0.5c0,0,0,0,0,0C62.5,17.9,62.7,17.7,62.9,17.6
			C62.9,17.6,62.9,17.6,62.9,17.6z"/>
		<path class="st2" d="M62.1,18.6c0,0.1,0,0.2,0,0.3c-0.1-0.1-0.2-0.1-0.3-0.2C61.9,18.7,62,18.7,62.1,18.6z"/>
		<path class="st2" d="M63.3,16c0.1,0.1,0.2,0.3,0.3,0.4c0,0,0,0,0,0c0,0-0.1,0-0.1-0.1c0,0-0.1-0.1-0.1-0.1
			C63.3,16.2,63.3,16.1,63.3,16z"/>
		<path class="st2" d="M63.2,17.3c0.1,0,0.2,0,0.3-0.1c-0.1,0.1-0.1,0.2-0.2,0.3C63.2,17.5,63.2,17.4,63.2,17.3z"/>
		<path class="st2" d="M62.7,17.6c0-0.1,0-0.3,0.1-0.3c0,0,0.1,0.1,0.1,0.1C62.9,17.4,62.8,17.5,62.7,17.6z"/>
		<path class="st2" d="M60.4,17.3c0-0.1-0.1-0.2-0.1-0.3c0,0,0,0,0.1,0C60.4,17.1,60.4,17.2,60.4,17.3
			C60.4,17.3,60.4,17.3,60.4,17.3z"/>
		<path class="st2" d="M67.3,13c-0.2,0.1-0.4,0.1-0.5,0.2c0,0,0,0,0,0C67,13,67.1,13,67.3,13C67.3,12.9,67.3,13,67.3,13z"/>
		<path class="st2" d="M64.3,17.3c0-0.1,0.1-0.2,0.1-0.3c0,0,0,0,0.1,0C64.5,17.1,64.4,17.2,64.3,17.3
			C64.4,17.3,64.4,17.3,64.3,17.3z"/>
		<path class="st2" d="M61,17c0,0-0.1-0.1-0.1-0.1c0,0,0,0,0-0.1c0.1,0,0.1,0,0.2-0.1C61.1,16.8,61,16.9,61,17C61,16.9,61,17,61,17z
			"/>
		<path class="st2" d="M62,18.4c-0.1,0-0.1,0.1-0.1,0.1c0,0-0.1-0.1-0.1-0.1c0,0,0.1-0.1,0.1-0.1C61.9,18.3,61.9,18.4,62,18.4z"/>
		<path class="st2" d="M62.2,13.1c0,0.1,0,0.2,0,0.3C62.1,13.3,62,13.2,62.2,13.1z"/>
		<path class="st2" d="M63.4,17.2c0,0-0.1,0-0.1,0.1c0-0.1,0-0.1,0-0.2C63.3,17.1,63.3,17.1,63.4,17.2
			C63.4,17.1,63.4,17.1,63.4,17.2z"/>
		<path class="st2" d="M63.3,16.9c0.1,0,0.1,0,0.2-0.1c0,0.1,0,0.1-0.1,0.1C63.4,17,63.3,17,63.3,16.9C63.3,17,63.3,17,63.3,16.9z"
			/>
		<path class="st2" d="M63.1,17.6c0,0-0.1-0.1-0.2-0.1c0.1,0,0.1-0.1,0.1,0C63.1,17.4,63.1,17.5,63.1,17.6
			C63.1,17.5,63.1,17.6,63.1,17.6z"/>
		<path class="st2" d="M62.8,13.4c0-0.1,0-0.1,0-0.2C62.9,13.3,62.9,13.3,62.8,13.4z"/>
		<path class="st2" d="M61,11c0.2-0.1,0.3-0.3,0.5-0.4c0,0,0,0,0.1,0c0.2,0.1,0.5,0.1,0.7,0.2C61.9,10.8,61.4,10.9,61,11
			C61,11,61,11,61,11z"/>
		<path class="st2" d="M63,12.2c-0.3,0-0.7,0-1.1,0c0.2-0.2,0.3-0.3,0.5-0.4c0,0,0.1,0,0.1,0C62.7,11.9,62.9,12,63,12.2
			C63,12.1,63,12.1,63,12.2z"/>
		<path class="st2" d="M63.6,9.9c-0.3,0.2-0.6,0.5-0.9,0.7c0,0,0,0,0,0c0.1-0.2,0.2-0.4,0.3-0.6c0,0,0.1-0.1,0.2-0.1
			C63.3,9.9,63.4,9.8,63.6,9.9C63.6,9.8,63.6,9.9,63.6,9.9z"/>
		<path class="st2" d="M62.4,11c-0.2,0.3-0.4,0.7-0.5,1c0,0,0,0,0,0c0-0.1,0-0.2,0-0.4c0-0.2,0-0.3,0.2-0.4
			C62.1,11.1,62.2,11,62.4,11C62.3,10.9,62.3,10.9,62.4,11z"/>
		<path class="st2" d="M62.7,10.7c0.1,0,0.3-0.1,0.4-0.1c0,0,0,0,0,0c0.1,0,0.2-0.1,0.3,0c0.2,0.1,0.3,0.2,0.4,0.3c0,0,0,0,0,0.1
			C63.5,10.9,63.1,10.8,62.7,10.7C62.7,10.7,62.7,10.7,62.7,10.7z"/>
		<path class="st2" d="M62.7,10.9c0.2,0.1,0.3,0.2,0.5,0.3c0,0,0.1,0.1,0.1,0.2c0,0.2,0,0.4-0.1,0.5C63,11.7,62.8,11.3,62.7,10.9
			C62.7,11,62.7,10.9,62.7,10.9z"/>
		<path class="st2" d="M61,11.1c0.4-0.1,0.8-0.2,1.2-0.2C61.9,11.3,61.6,11.3,61,11.1z"/>
		<path class="st2" d="M62.3,10.7c-0.2-0.1-0.4-0.1-0.7-0.2c0,0,0,0-0.1,0c-0.1-0.2-0.1-0.3-0.2-0.5c0,0,0,0,0,0
			C61.7,10.2,62,10.4,62.3,10.7C62.3,10.6,62.3,10.6,62.3,10.7z"/>
		<path class="st2" d="M62.7,10.8c0.4,0.1,0.8,0.2,1.2,0.3c0,0,0,0,0,0c-0.2,0-0.4,0.1-0.5,0.1c0,0,0,0-0.1,0
			C63.1,11.1,62.9,11,62.7,10.8C62.7,10.8,62.7,10.8,62.7,10.8z"/>
		<path class="st2" d="M62.3,10.6c-0.3-0.2-0.6-0.5-0.9-0.7c0,0,0,0,0,0c0.2,0,0.3,0.1,0.5,0.1c0,0,0.1,0,0.1,0.1
			C62.2,10.1,62.3,10.3,62.3,10.6C62.3,10.5,62.3,10.5,62.3,10.6z"/>
		<path class="st2" d="M62.5,11c0,0.1,0,0.3,0,0.4c0,0.2-0.1,0.3-0.3,0.4c-0.1,0-0.2,0.1-0.3,0.2C62.1,11.7,62.2,11.3,62.5,11
			C62.4,11,62.5,11,62.5,11z"/>
		<path class="st2" d="M63.1,12c-0.1-0.1-0.3-0.2-0.4-0.3c0,0,0,0,0-0.1c0-0.2,0-0.4,0-0.7C62.8,11.3,62.9,11.7,63.1,12
			C63.1,12,63.1,12,63.1,12z"/>
		<path class="st2" d="M62.6,9.4c0.1,0.1,0.1,0.2,0.2,0.3c0.1,0.1,0.1,0.3,0,0.4c-0.1,0.1-0.2,0.2-0.3,0.4
			C62.5,10.1,62.6,9.7,62.6,9.4z"/>
		<path class="st2" d="M62.4,10.5c0-0.1-0.1-0.2-0.1-0.4c-0.2-0.3,0-0.5,0.2-0.8C62.5,9.8,62.5,10.1,62.4,10.5
			C62.5,10.5,62.4,10.5,62.4,10.5z"/>
		<path class="st2" d="M62.7,10.6c0.3-0.2,0.6-0.5,0.9-0.7c0,0,0,0,0,0c-0.1,0.2-0.2,0.3-0.2,0.5c0,0,0,0,0,0
			C63.2,10.5,63,10.6,62.7,10.6C62.7,10.6,62.7,10.6,62.7,10.6z"/>
		<path class="st2" d="M61.9,12.2c0.4,0,0.4,0,0.5,0.2C62.1,12.5,62,12.5,61.9,12.2z"/>
		<path class="st2" d="M63.4,12.5c-0.3,0.1-0.5,0-0.5-0.2C63.1,12.2,63.2,12.2,63.4,12.5z"/>
		<path class="st2" d="M61.4,12.4c-0.1,0-0.2,0-0.3,0c-0.1,0-0.1-0.1-0.1-0.1c0,0,0.1-0.1,0.2-0.1C61.3,12.3,61.3,12.3,61.4,12.4
			C61.4,12.4,61.4,12.4,61.4,12.4z"/>
		<path class="st1" d="M62.9,14.3c0.2,0,0.3,0,0.5,0c0.1,0,0.1,0.1,0.1,0.2c0,0-0.1,0.1-0.1,0.1c-0.1,0-0.2,0-0.3-0.1
			c0,0-0.1,0-0.1-0.1C63,14.4,63,14.4,62.9,14.3C62.9,14.3,62.9,14.3,62.9,14.3z"/>
	</g>
	<polygon class="st0" points="40.5,63.4 40.5,66.4 50.5,66.4 50.5,63.4 53.4,63.4 53.4,69.4 37.7,69.4 37.7,63.4 	"/>
	<polygon class="st0" points="74.8,63.4 74.8,66.4 84.8,66.4 84.8,63.4 87.6,63.4 87.6,69.4 71.9,69.4 71.9,63.4 	"/>
	<rect x="61.1" y="74.5" class="st0" width="3.2" height="19.3"/>
</g>
<g>
	<path class="st0" d="M33.8,59.9c-3.2,3.2-7.4,4.9-11.9,4.9c-4.5,0-8.8-1.8-11.9-4.9c-0.6-0.6-0.6-1.5,0-2.1c0.6-0.6,1.5-0.6,2.1,0
		c5.4,5.4,14.2,5.4,19.7,0c2.5-2.5,3.8-5.6,4-8.8c0.3-3.9-1.1-7.9-4-10.8c-5.4-5.4-14.2-5.4-19.7,0c-1.5,1.5-2.6,3.3-3.3,5.2l-3.1,0
		c0.8-2.8,2.3-5.3,4.3-7.3c3.2-3.2,7.4-4.9,11.9-4.9c4.5,0,8.8,1.8,11.9,4.9c3.2,3.2,4.9,7.4,4.9,11.9C38.7,52.5,37,56.7,33.8,59.9z
		"/>
</g>
<g>
	<path class="st0" d="M33.8,36c3.2,3.2,4.9,7.4,4.9,11.9c0,4.5-1.8,8.8-4.9,11.9c-0.6,0.6-1.5,0.6-2.1,0c-0.6-0.6-0.6-1.5,0-2.1
		c5.4-5.4,5.4-14.2,0-19.7c-2.5-2.5-5.6-3.8-8.8-4c-3.9-0.3-7.9,1.1-10.8,4c-5.4,5.4-5.4,14.2,0,19.7c1.5,1.5,3.3,2.6,5.2,3.3l0,3.1
		c-2.8-0.8-5.3-2.3-7.3-4.3C6.7,56.7,5,52.5,5,48c0-4.5,1.8-8.8,4.9-11.9c3.2-3.2,7.4-4.9,11.9-4.9C26.4,31.1,30.6,32.9,33.8,36z"/>
</g>
<g>
	<path class="st0" d="M14.2,43.4L14.2,43.4c0-0.8,0.6-1.4,1.4-1.4h10.2c0.8,0,1.4,0.6,1.4,1.4v0c0,0.8-0.6,1.4-1.4,1.4H15.7
		C14.9,44.9,14.2,44.2,14.2,43.4z"/>
	<path class="st0" d="M14.4,44.3L14.4,44.3c-0.6-0.6-0.6-1.5,0-2l3.7-3.7c0.6-0.6,1.5-0.6,2,0h0c0.6,0.6,0.6,1.5,0,2l-3.7,3.7
		C15.9,44.8,15,44.8,14.4,44.3z"/>
	<path class="st0" d="M14.4,42.5L14.4,42.5c0.6-0.6,1.5-0.6,2,0l3.7,3.7c0.6,0.6,0.6,1.5,0,2h0c-0.6,0.6-1.5,0.6-2,0l-3.7-3.7
		C13.9,44,13.9,43.1,14.4,42.5z"/>
</g>
<g>
	<path class="st0" d="M28.1,52.4L28.1,52.4c0,0.8-0.6,1.4-1.4,1.4H16.4c-0.8,0-1.4-0.6-1.4-1.4v0c0-0.8,0.6-1.4,1.4-1.4h10.2
		C27.5,51,28.1,51.6,28.1,52.4z"/>
	<path class="st0" d="M27.9,51.5L27.9,51.5c0.6,0.6,0.6,1.5,0,2l-3.7,3.7c-0.6,0.6-1.5,0.6-2,0h0c-0.6-0.6-0.6-1.5,0-2l3.7-3.7
		C26.4,51,27.4,51,27.9,51.5z"/>
	<path class="st0" d="M27.9,53.3L27.9,53.3c-0.6,0.6-1.5,0.6-2,0l-3.7-3.7c-0.6-0.6-0.6-1.5,0-2h0c0.6-0.6,1.5-0.6,2,0l3.7,3.7
		C28.5,51.8,28.5,52.7,27.9,53.3z"/>
</g>
</svg>
