<svg id="Layer_1" data-name="Layer 1" xmlns="http://www.w3.org/2000/svg" viewBox="0 0 80.73 61.74"><defs><style>.cls-1{fill:#224f9c;}.cls-2{fill:#707070;}</style></defs><title>ico-claims</title><path class="cls-1" d="M29.16,42.09h7.13v7.13a1,1,0,0,0,1,1h6.11a1,1,0,0,0,1-1V42.09h7.13a1,1,0,0,0,1-1h0V35a1,1,0,0,0-1-1H44.44V26.81a1,1,0,0,0-1-1H37.31a1,1,0,0,0-1,1v7.13H29.16a1,1,0,0,0-1,1v6.11a1,1,0,0,0,1,1Z" transform="translate(0 -2.63)"/><path class="cls-2" d="M78.75,14.56a6.47,6.47,0,0,0-4.75-2H55.73V9.36a6.48,6.48,0,0,0-2-4.75,6.47,6.47,0,0,0-4.75-2H31.73a6.48,6.48,0,0,0-4.75,2,6.48,6.48,0,0,0-2,4.75v3.22H6.73a6.48,6.48,0,0,0-4.75,2,6.48,6.48,0,0,0-2,4.75V57.65A6.48,6.48,0,0,0,2,62.4a6.48,6.48,0,0,0,4.75,2H74a6.75,6.75,0,0,0,6.73-6.73V19.31A6.48,6.48,0,0,0,78.75,14.56ZM30.38,9.36A1.36,1.36,0,0,1,31.73,8H49a1.36,1.36,0,0,1,1.35,1.34v3.22h-20ZM13.73,59h-7a1.36,1.36,0,0,1-1.35-1.35V19.31A1.36,1.36,0,0,1,6.73,18h7Zm48.52,0H18.48V18H62.25Zm13.1-1.34A1.36,1.36,0,0,1,74,59H67V18h7a1.36,1.36,0,0,1,1.35,1.34Z" transform="translate(0 -2.63)"/></svg>