<?xml version="1.0" standalone="no"?>
<!DOCTYPE svg PUBLIC "-//W3C//DTD SVG 20010904//EN"
 "http://www.w3.org/TR/2001/REC-SVG-20010904/DTD/svg10.dtd">
<svg version="1.0" xmlns="http://www.w3.org/2000/svg"
 width="512.000000pt" height="512.000000pt" viewBox="0 0 512.000000 512.000000"
 preserveAspectRatio="xMidYMid meet">

<g transform="translate(0.000000,512.000000) scale(0.100000,-0.100000)"
fill="#000000" stroke="none">
<path d="M0 2560 l0 -2560 2560 0 2560 0 0 2560 0 2560 -2560 0 -2560 0 0
-2560z m3006 875 c110 -32 153 -73 338 -314 l171 -224 268 -73 c147 -40 282
-80 300 -89 48 -22 105 -81 135 -139 25 -48 27 -61 30 -208 4 -183 -6 -235
-65 -313 -52 -69 -143 -115 -225 -115 -47 0 -58 -3 -58 -16 0 -31 -64 -136
-104 -171 -108 -93 -259 -126 -385 -83 -115 39 -186 102 -237 214 l-25 56
-573 0 -573 0 -11 -38 c-53 -178 -278 -292 -467 -238 -114 33 -224 131 -258
232 l-14 39 -84 5 c-106 7 -175 41 -231 115 -60 79 -70 128 -66 323 3 148 6
173 26 218 39 86 89 125 264 206 l158 73 137 220 c130 207 142 221 201 262
108 73 89 72 728 72 477 1 579 -1 620 -14z"/>
<path d="M1786 3280 c-22 -11 -50 -30 -63 -42 -13 -12 -87 -122 -163 -244
l-140 -221 -149 -68 c-190 -85 -206 -96 -231 -144 -17 -35 -20 -59 -20 -187 0
-132 2 -150 22 -186 28 -49 68 -74 137 -83 57 -8 71 0 71 40 0 75 122 225 216
266 103 46 241 42 342 -8 95 -48 187 -169 199 -263 l6 -40 565 2 565 3 14 55
c74 288 447 382 654 163 48 -51 99 -140 99 -175 0 -38 10 -47 48 -41 53 8 95
36 121 83 21 38 22 50 19 184 -3 156 -9 174 -69 218 -13 9 -141 49 -284 88
-143 39 -275 75 -293 81 -26 9 -66 55 -203 235 -178 233 -220 278 -279 294
-21 6 -259 10 -590 10 -532 -1 -557 -2 -594 -20z"/>
<path d="M1535 2277 c-89 -43 -145 -127 -145 -219 0 -61 18 -105 64 -156 115
-127 310 -98 392 59 96 186 -121 407 -311 316z"/>
<path d="M3435 2277 c-191 -93 -191 -343 0 -433 121 -57 256 -1 316 131 84
184 -133 391 -316 302z"/>
</g>
</svg>
