<?xml version="1.0" encoding="utf-8"?>
<!-- Generator: Adobe Illustrator 21.1.0, SVG Export Plug-In . SVG Version: 6.00 Build 0)  -->
<svg version="1.1" id="Layer_1" xmlns="http://www.w3.org/2000/svg" xmlns:xlink="http://www.w3.org/1999/xlink" x="0px" y="0px"
	 viewBox="0 0 38.9 37.8" style="enable-background:new 0 0 38.9 37.8;" xml:space="preserve">
<style type="text/css">
	.st0{fill:#FFFFFF;}
</style>
<title>ico-medical</title>
<g>
	<g>
		<path class="st0" d="M2.3,27.8c0.3,0.3,0.6,0.4,0.9,0.4s0.6-0.1,0.9-0.4l15.3-15.3l15.3,15.3c0.3,0.3,0.6,0.4,0.9,0.4
			c0.3,0,0.6-0.1,0.9-0.4l2-2c0.3-0.3,0.4-0.6,0.4-0.9c0-0.3-0.1-0.6-0.4-0.9L20.4,5.9c-0.3-0.3-0.6-0.4-0.9-0.4s-0.6,0.1-0.9,0.4
			L0.4,24.1C0.1,24.4,0,24.6,0,25c0,0.3,0.1,0.6,0.4,0.9L2.3,27.8z"/>
	</g>
</g>
</svg>
