<?xml version="1.0" encoding="utf-8"?>
<!-- Generator: Adobe Illustrator 21.1.0, SVG Export Plug-In . SVG Version: 6.00 Build 0)  -->
<svg version="1.1" id="Layer_1" xmlns="http://www.w3.org/2000/svg" xmlns:xlink="http://www.w3.org/1999/xlink" x="0px" y="0px"
	 viewBox="0 0 100 100" style="enable-background:new 0 0 100 100;" xml:space="preserve">
<style type="text/css">
	.st0{fill:#444444;}
	.st1{stroke:#444444;stroke-width:0.378;stroke-miterlimit:10;}
	.st2{fill:#FFFFFF;stroke:#444444;stroke-width:0.378;stroke-miterlimit:10;}
</style>
<g>
	<path class="st0" d="M81.3,85.1"/>
	<path class="st0" d="M50.2,95.9c-11.8,0-23.5-2.7-34.6-7.9c-0.6-0.3-1.1-0.9-1.1-1.5V80c0-8.6,7.3-19.1,15.8-19.1H38v-8.2l-0.2-0.2
		c-1.5-1.9-2.8-4.1-3.9-6.3l-0.2-0.4l-0.4-0.1c-2.1-0.3-4.1-2.5-5.2-5.7c-1.4-4-0.7-7.6,1.7-8.6l0.5-0.2v-1.7c0-0.8,0-1.8,0-2.2
		v-0.6l-0.5-0.2c-0.5-0.2-1-0.3-1.4-0.4c-3.3-1-6.1-1.8-6.1-5.3c0-3.6,3.1-7.8,8.4-11.3c5.7-3.8,12.6-5.9,19.4-5.9
		s13.7,2.1,19.4,5.9c5.2,3.5,8.4,7.7,8.4,11.3c0,3.5-2.8,4.3-6.1,5.3h-0.1c-0.4,0.1-0.9,0.3-1.3,0.4l-0.5,0.2v0.6c0,0.3,0,1.3,0,2.1
		c0,0.6,0,1.7,0,1.7l0.5,0.2c2.3,1,3,4.6,1.6,8.6c-1.1,3.2-3.1,5.4-5.2,5.7l-0.4,0.1L66.2,46c-1,2.1-2.3,4.1-3.7,5.9l-0.2,0.2v0.1
		c0,0.1,0,0.1,0,0.2v8.3h7.6c3.9,0,7.8,2.2,11,6.3c2.9,3.8,4.6,8.6,4.6,12.9v6.5c0,0.6-0.3,1.1-0.9,1.4c-1.4,0.8-8.7,4.7-20.3,6.7
		C59.6,95.5,54.9,95.9,50.2,95.9z M30.3,63.9c-7.1,0-12.5,9.8-12.5,16.1v5.5l0.4,0.2c10.4,4.6,21.1,6.9,32,6.9
		c4.4,0,8.8-0.4,13.1-1.1c9.2-1.6,15.5-4.5,18.2-5.7l0.5-0.2V80c0-3.3-1.3-7.3-3.5-10.5c-2.5-3.6-5.6-5.6-8.8-5.6H61L51.3,76
		c-0.3,0.4-0.8,0.6-1.3,0.6s-1-0.2-1.3-0.6L39,63.9H30.3z M41.3,61.1l8.6,11.3l8.9-11.3v-5.4l-1.2,0.9c-2.5,1.9-5.1,2.8-7.7,2.8
		c-2.5,0-4.9-0.9-7.4-2.6L41.3,56V61.1z M34.7,42.4c0.2,0,0.3,0,0.5,0.1c0.4,0.1,0.8,0.5,1,0.9c2.7,6,7.9,13,13.8,13
		c6,0,11.2-7,13.8-12.9c0.2-0.4,0.5-0.7,1-0.9c0.2-0.1,0.3-0.1,0.5-0.1s0.3,0,0.5,0.1l0.3,0.1l0.3-0.2c0.6-0.4,1.6-1.6,2.3-3.4
		c0.6-1.7,0.6-2.9,0.5-3.5l-0.1-1.1l-1,0.5c-1.9,1-5.7,2.9-10.7,4c-2.7,0.6-5.4,0.9-8,0.9c-6.2,0-12.1-1.7-17.5-4.9l-1-0.6l-0.1,1.2
		c-0.1,0.6-0.1,1.8,0.5,3.5c0.6,1.8,1.6,3,2.3,3.4l0.3,0.2l0.4-0.1C34.4,42.4,34.5,42.4,34.7,42.4z M33.6,28.6c0,0.6,0,3.6,0,3.6
		l0.4,0.2c4.8,2.8,10,4.2,15.4,4.2c2.3,0,4.8-0.3,7.2-0.8c4.2-0.9,7.5-2.4,9.6-3.5l0.4-0.2v-0.5c0-0.4,0-2.8,0-3.1v-0.8h-33
		L33.6,28.6z M25.6,21.5l0.2,0.2c0.3,0.4,1.1,0.7,3.4,1.4l0.2,0.1c0.2,0.1,0.6,0.2,1,0.4c0.9,0.3,2.2,0.8,3.3,1h0.1h32.9h0.1
		c1-0.2,2.2-0.6,3.1-1c0.5-0.2,0.8-0.3,1.1-0.4l0.2-0.1c2.2-0.6,3-1,3.3-1.4l0.4-0.6l-0.3-0.2C74.4,16.2,63.9,7.1,50.1,7.1
		c-13.9,0-24.5,9.3-24.5,13.9c0,0.1,0,0.2,0,0.3C25.6,21.3,25.6,21.5,25.6,21.5z"/>
	<path class="st0" d="M39.6,78"/>
	<path class="st0" d="M39.6,78"/>
</g>
<g>
	<path class="st1" d="M56.9,12.4c-0.1,0-0.1,0.1-0.2,0.1c0.2-0.2,0.3-0.4,0.3-0.6c0,0-0.1,0-0.1,0.1c-0.4,0.2-0.9,0.4-1.3,0.6
		c-0.1,0-0.2,0-0.3,0c-0.5,0.2-1.1,0.4-1.6,0.6c-0.3,0.1-0.6,0.1-0.9,0.2c-0.3,0.1-0.6,0.2-0.9,0.3c-0.2,0.1-0.2,0-0.3-0.1
		c0.3-0.2,0.7-0.5,1-0.7c0.4-0.3,0.9-0.6,1.3-0.9c0.2-0.1,0.3-0.3,0.4-0.6c-0.3-0.1-0.5,0-0.8,0.2c-0.8,0.5-1.5,1-2.3,1.5
		c-0.1,0.1-0.2,0.1-0.3,0h-0.1c-0.2,0.1-0.3,0-0.3-0.2c0-0.1,0-0.1,0-0.2l0,0c0,0,0,0.1-0.1,0.1s-0.1-0.2-0.2-0.1
		c-0.1,0-0.1,0.1-0.2,0.2l0,0c-0.1,0-0.1,0-0.2,0c0-0.1,0-0.2-0.1-0.3c-0.1,0.1,0,0.3-0.2,0.3c0-0.1,0-0.2,0-0.4l0,0v0.1
		c0,0.2,0,0.3,0,0.5c0,0.1,0,0.2,0.2,0.2c0.1,0,0.1,0.1,0.1,0.2c-0.4-0.3-0.9-0.6-1.3-0.9c-0.6-0.4-1.3-0.9-1.9-1.3
		c-0.2-0.1-0.4-0.2-0.7-0.2l-0.1,0.1c0.1,0.2,0.1,0.3,0.2,0.4c0.4,0.3,0.8,0.6,1.2,0.9c0.5,0.4,1,0.7,1.5,1.1l0.1,0.1
		c-0.1,0-0.1,0-0.2,0c-0.3-0.1-0.6-0.3-0.9-0.4c-0.2-0.1-0.4-0.1-0.6-0.2c-0.3-0.1-0.6-0.1-0.9-0.2c-0.5-0.2-0.9-0.3-1.4-0.5
		c-0.1,0-0.3,0-0.4-0.1c-0.3-0.1-0.7-0.3-1-0.4c-0.2-0.1-0.3-0.2-0.5-0.3c0,0.2,0.1,0.3,0.1,0.5c-0.1-0.1-0.3-0.1-0.4-0.2
		c0,0,0,0.1-0.1,0.1c0,0.1,0,0.1,0,0.2c0.1,0.3,0.4,0.4,0.6,0.6c-0.1,0-0.2-0.1-0.3-0.1c0,0.3,0.2,0.4,0.3,0.6v0.1
		c0.2,0.2,0.3,0.3,0.5,0.5h-0.1l0.1,0.1c0.2,0.2,0.5,0.2,0.7,0.4c0,0,0,0,0.1,0c0.2,0,0.3,0,0.5,0.1H45l0,0c-0.1,0-0.1,0.1-0.2,0.1
		c0.2,0,0.3,0,0.5,0.1c0,0.1,0,0.2,0.2,0.1c0.1,0,0.2,0,0.3,0l0,0c0,0-0.1,0-0.1,0.1c0.2,0,0.4,0,0.6,0c0,0,0,0.1,0,0.2
		c0.2,0,0.3,0,0.5-0.1v0.1h0.1c0.1,0,0.2-0.1,0.3-0.1l0,0c0,0,0,0.1-0.1,0.1c0.2-0.1,0.4-0.1,0.6-0.2V15c0.1,0,0.2,0,0.3-0.1
		c0.1,0,0.1,0,0.2,0.1c-0.9,0.6-1.9,1.2-2.8,1.9c-0.1-0.1-0.1-0.1-0.2-0.2c-0.1-0.1-0.3-0.3-0.1-0.5c0,0,0,0,0-0.1s0-0.2-0.1-0.2
		s-0.2,0-0.3,0c-0.3,0.1-0.3,0.2-0.1,0.5c0.1,0.2,0.2,0.3,0.4,0.5V17c-0.2,0.1-0.2,0.3-0.4,0.4c-0.1,0-0.1,0.1-0.2,0.2
		c-0.1-0.1-0.2-0.1-0.2-0.1c-0.1,0-0.1-0.1-0.2-0.1c-0.1-0.1-0.3,0-0.4,0c-0.1,0.1-0.1,0.2,0,0.4c0.1,0.1,0.1,0.2,0.2,0.3
		c-0.1,0.1-0.2,0.2-0.3,0.3c-0.1,0.1-0.1,0.1-0.1,0.2s0.2,0.2,0.3,0.2s0.2-0.1,0.3-0.2c0-0.1,0.1-0.2,0.2-0.1c0.1,0,0.2,0.1,0.2,0.2
		c0.2,0.2,0.5,0.4,0.7,0.6c0.5,0.4,0.9,0.7,1.4,1.1c0.8,0.6,1.6,1.1,2.6,1.5c0.7,0.3,1.3,0.3,1.9-0.1c0.7-0.4,1.4-0.8,2-1.3
		c0.7-0.6,1.5-1.1,2.2-1.7c0.1-0.1,0.2-0.2,0.3-0.2s0.3,0.1,0.4,0.1c0.1,0.1,0.3,0.2,0.4,0.2c0.1,0,0.2-0.1,0.2-0.1
		c0.1-0.1,0-0.2-0.1-0.2c-0.1-0.1-0.2-0.1-0.2-0.2c-0.1-0.1-0.1-0.1-0.2-0.2c0.1-0.1,0.1-0.2,0.2-0.2c0.1-0.2,0.1-0.3,0-0.4
		s-0.3-0.1-0.5,0c-0.1,0.1-0.2,0.1-0.3,0.2h-0.2c-0.1-0.2-0.4-0.2-0.5-0.4c-0.1-0.2-0.1-0.2,0-0.4l0.1-0.1c0.1-0.1,0.2-0.3,0.3-0.4
		s0-0.3-0.1-0.3s-0.2,0-0.3,0h-0.1v0.1c0.1,0.2,0.1,0.3,0,0.4l-0.1,0.1c-0.1,0.1-0.1,0.1-0.3,0c-0.7-0.5-1.3-1-2-1.5
		c-0.2,0-0.3-0.1-0.2-0.3c0.1,0,0.2,0.1,0.4,0.1c0-0.1,0-0.1,0-0.2c0.2,0.1,0.4,0.2,0.7,0.2c0,0,0-0.1-0.1-0.1c0.2,0,0.4,0,0.6,0.1
		c0-0.1-0.1-0.1-0.1-0.2c0.3,0.1,0.4,0,0.7-0.1h0.1c0.2-0.1,0.5-0.1,0.7-0.2l0,0l0,0l0,0c0.2,0,0.5,0,0.7-0.2c0,0-0.1,0-0.1-0.1
		c0.3,0,0.6-0.1,0.8-0.3c-0.1,0-0.1,0-0.1-0.1c0.3-0.1,0.5-0.2,0.5-0.4c-0.1,0-0.1,0-0.1,0c0.3-0.1,0.4-0.3,0.5-0.6
		c-0.1,0-0.2,0.1-0.3,0.1c0.1-0.1,0.1-0.1,0.2-0.2c0.1-0.1,0.1-0.1,0.2-0.2c0.1-0.1,0.1-0.2,0.2-0.3c0,0,0,0,0-0.1
		C57.1,12.3,57,12.4,56.9,12.4z M49.6,13.4c-0.1-0.1-0.1-0.2,0-0.3C49.6,13.2,49.6,13.3,49.6,13.4z M55.9,17.7
		c0.1,0,0.2,0.1,0.1,0.2c0,0.1-0.1,0.2-0.2,0.3c-0.1,0.1-0.2,0-0.2,0c0-0.1-0.1-0.1-0.2-0.2C55.6,17.7,55.7,17.7,55.9,17.7z
		 M56.7,12.1c0,0.4-1.2,1-1.6,0.8l0,0C55.6,12.6,56.2,12.4,56.7,12.1z M54.7,12.9C54.7,12.9,54.7,13,54.7,12.9
		c-0.2,0.1-0.3,0.2-0.5,0.2l0,0C54.4,13,54.6,13,54.7,12.9z M54.1,13.3c0.2-0.1,0.4-0.2,0.6-0.2c0.1,0,0.3,0,0.4,0v0.1
		c-0.2,0-0.4,0-0.5,0.1c0,0,0,0,0,0.1c0.1,0,0.3,0.1,0.4,0.1l0,0c-0.2,0-0.5,0-0.7,0c0,0,0,0,0,0.1c0.1,0,0.2,0.1,0.3,0.1l0,0
		c-0.2,0-0.4-0.1-0.6-0.1l0,0c0.1,0,0.1,0.1,0.2,0.1l0,0c-0.2,0-0.3-0.1-0.5-0.1l0,0c0.1,0.1,0.1,0.1,0.2,0.2l0,0
		c-0.2,0-0.3-0.1-0.5-0.1l0,0c0.1,0.1,0.1,0.1,0.2,0.2l0,0c-0.2-0.1-0.3-0.1-0.5-0.2l0,0c0.1,0.1,0.1,0.1,0.2,0.2l0,0
		c-0.1,0-0.3-0.1-0.5-0.2c0,0.1,0.1,0.2,0.1,0.2l0,0c-0.1-0.1-0.3-0.1-0.5-0.2c0,0.1,0.1,0.2,0.1,0.3l0,0c-0.1-0.1-0.2-0.1-0.3-0.2
		c0.3-0.1,0.6-0.2,0.9-0.3c0.2-0.1,0.4-0.2,0.6-0.3C53.9,13.4,54,13.3,54.1,13.3z M52.1,13.7c0.3-0.1,0.6-0.2,0.9-0.3
		c0.2,0,0.5-0.1,0.7-0.1l0,0c-0.2,0.1-0.4,0.2-0.6,0.3c0-0.1,0-0.1-0.1-0.1c-0.3,0.2-0.7,0.3-1.1,0.4c-0.4,0.1-0.7,0.2-1.1,0.2l0,0
		c0.1,0,0.2,0,0.4-0.1C51.5,13.9,51.8,13.8,52.1,13.7z M53.7,11.9c-0.7,0.5-1.4,1-2.2,1.5c-0.1,0.1-0.1,0-0.2-0.1
		c0.9-0.6,1.7-1.2,2.6-1.8C54,11.7,53.9,11.8,53.7,11.9z M52,12.6c0.6-0.4,1.1-0.8,1.7-1.1c0.1-0.1,0.2-0.1,0.3-0.1l0,0l-0.1,0.1
		c-0.8,0.5-1.5,1-2.3,1.6c-0.1,0-0.1,0.1-0.2,0.1c-0.1,0-0.1,0-0.2,0c0,0,0,0,0-0.1C51.4,13,51.7,12.8,52,12.6z M50.9,13.3l-0.1-0.1
		c0.3,0.1,0.5,0.3,0.7,0.5l0,0c0,0-0.1,0-0.1-0.1c-0.1-0.1-0.2-0.1-0.3,0c-0.1,0.2-0.1,0.2-0.3,0.1c-0.1,0-0.1-0.1-0.2-0.2l0,0
		l0.1,0.1c0.1,0,0.2,0.1,0.2,0.1c0.1,0,0.1-0.1,0.2-0.2C51.1,13.4,51,13.3,50.9,13.3z M50.3,13.7c0.1-0.1,0.2,0,0.3,0.1
		c-0.1,0.1-0.2,0.2-0.3,0V13.7z M50.2,13.4c0-0.1,0-0.1,0-0.2C50.3,13.3,50.3,13.3,50.2,13.4z M50.7,13.4c-0.2-0.2-0.5-0.3-0.7-0.6
		C50.3,13,50.6,13.1,50.7,13.4z M49.7,13.5c0-0.1,0-0.2,0-0.2c0-0.1,0-0.2,0.1-0.2c0,0,0.1,0.1,0.1,0.2c0,0.2,0,0.3,0,0.5
		C49.8,13.7,49.7,13.6,49.7,13.5z M49.6,13.9c0.1,0,0.2,0.1,0.3,0.1c0-0.1,0-0.1,0-0.1c0.1,0,0.2,0,0.3,0.1c0.2,0.1,0.3,0.2,0.5,0.2
		s0.3,0.2,0.4,0.3c0,0,0,0.1,0,0.2c-0.2,0.1-0.3,0.1-0.4,0.4l0,0c-0.1,0-0.5,0-0.6,0C50,15,50,15,49.9,15c0-0.1,0-0.1,0-0.2
		c0.1-0.1,0.1-0.2-0.1-0.3c0,0.1,0.1,0.1,0.1,0.2c-0.2,0.2-0.3,0.2-0.1,0.3c0,0.2,0,0.2,0.2,0.2c0,0.2,0.1,0.1,0.2,0.1
		c0,0.1,0,0.1,0,0.1c0.2,0,0.3-0.1,0.5-0.1l0,0c0,0.1,0,0.1-0.1,0.2c-0.2-0.1-0.2,0-0.3,0.1c-0.1,0-0.1-0.1-0.2-0.2
		c0,0,0,0.1-0.1,0.1c-0.1-0.1-0.1-0.2-0.2,0c-0.1,0-0.1-0.3-0.3-0.1c-0.1-0.1,0-0.3-0.2-0.2c0-0.1,0-0.2,0-0.2h-0.1
		c0-0.1,0.1-0.2,0.1-0.3c-0.1,0-0.1,0-0.2,0c0.1-0.1,0.1-0.3,0.3-0.4c0.1,0,0.2-0.1,0.4-0.1h0.1c0,0,0,0,0-0.1
		c-0.2,0-0.4-0.1-0.5-0.1s-0.2,0-0.2,0.2c0,0,0,0-0.1,0.1s-0.2,0.1-0.1,0.3v0.1c0,0.1,0,0.1,0,0.2c0,0.1,0.1,0.1,0.1,0.2
		c0.1,0.1,0.1,0.2,0.2,0.3c0,0.1,0.3,0.1,0.4,0.1c0.1,0.3-0.2,0.4-0.1,0.7c-0.1,0-0.2,0-0.3,0c0-0.3,0.1-0.6-0.1-0.9
		c0,0-0.1,0-0.1,0.1c0-0.1,0-0.2-0.1-0.4c-0.1,0-0.1,0.1-0.2,0.1c-0.1-0.2,0.1-0.3,0.1-0.5c-0.1,0-0.1,0-0.1,0
		c0.1-0.1,0.1-0.2,0.2-0.3h-0.1c0.1-0.1,0.2-0.2,0.3-0.3l0,0C49.3,13.9,49.4,14.1,49.6,13.9z M50.9,17.3c-0.1,0.1-0.1,0.2-0.2,0.3
		c0-0.1-0.1-0.1-0.1-0.2C50.7,17.3,50.8,17.3,50.9,17.3z M50.6,17c0.1,0,0.1,0,0.2,0.1l0,0c0,0-0.1,0-0.1,0.1
		C50.6,17.2,50.6,17.1,50.6,17z M50.8,17L50.8,17L50.8,17c0,0,0,0,0.1-0.1C50.8,16.9,50.8,17,50.8,17z M50.8,16.3
		c-0.1,0-0.1-0.1-0.1-0.2c0.1,0.1,0.2,0.3,0.3,0.4l0,0c0,0-0.1,0-0.1-0.1C50.9,16.4,50.8,16.3,50.8,16.3z M50.7,15.7
		c0.3,0.3,0.6,0.5,0.8,0.9C51.2,16.5,50.7,15.9,50.7,15.7z M50.7,15.3c0.2,0.1,0.4,0.3,0.5,0.4l0,0c-0.2,0.2-0.2,0.2-0.3,0
		C50.8,15.6,50.6,15.5,50.7,15.3z M50.8,15.3C50.9,15.3,50.9,15.2,50.8,15.3c0.1,0,0.3,0,0.4,0.1c0.8,0.5,1.5,1.1,2.3,1.7
		c0.1,0,0.1,0.1,0.2,0.1c0,0.1,0,0.2,0,0.3C52.7,16.7,51.8,16,50.8,15.3z M51.3,17.6c-0.1-0.2,0-0.3,0.1-0.4
		c0.2-0.2,0.4-0.4,0.6-0.6c0,0.1,0,0.2,0.1,0.4c0,0.2,0,0.4,0,0.6c0,0.1,0,0.1-0.1,0.2c-0.3,0.2-0.5,0.5-0.5,0.8
		c0,0.2,0,0.3,0.1,0.5c-0.2,0-0.3,0-0.6,0c0.1-0.2,0.2-0.3,0.3-0.5s0.2-0.5,0.4-0.8c0.1-0.1,0.1-0.2,0.2-0.3
		c0.1-0.1,0.1-0.2,0.2-0.3c0-0.1,0-0.3-0.1-0.3s-0.2,0.1-0.2,0.2c-0.1,0.2-0.1,0.4-0.1,0.6c0,0.1,0,0.2-0.1,0.3
		c-0.2,0.4-0.6,0.7-0.9,1c-0.1,0.1-0.1,0.1-0.2,0.1c0.2-0.1,0.3-0.3,0.5-0.4c0.1-0.1,0.3-0.3,0.4-0.5C51.4,17.9,51.4,17.8,51.3,17.6
		z M50.8,19.1c0,0-0.1,0-0.2,0l0,0c0.2-0.2,0.4-0.3,0.5-0.5l0,0C51,18.7,50.9,18.9,50.8,19.1z M51.7,17.3c0-0.1,0.1-0.2,0.1-0.3
		c0,0,0,0,0.1,0C51.9,17.1,51.8,17.2,51.7,17.3C51.8,17.3,51.8,17.3,51.7,17.3z M52,19.2L52,19.2c0.1,0,0.1,0,0.1,0.1
		c-0.2,0-0.4,0-0.5,0c-1.3,0-2.7,0-4,0c0,0-0.1,0-0.1-0.1l0.1-0.1C49,19.2,50.5,19.2,52,19.2z M48.8,20c0.1,0.1,0.2,0.1,0.3,0
		s0.1-0.2,0-0.4c0.4,0,0.9,0,1.3,0c0,0.1-0.1,0.1-0.1,0.2s0,0.1,0.1,0.2s0.3,0.1,0.3,0c0.1-0.1,0.1-0.2-0.1-0.4c0.3,0,0.5,0,0.8,0
		c-0.1,0.2-0.2,0.3-0.3,0.5L51,20.2c-0.9,0-1.8,0-2.7,0c-0.1,0-0.1,0-0.2-0.1C48,20,48,19.8,47.9,19.7c0.3,0,0.5,0,0.7,0
		c0,0.1-0.1,0.1-0.1,0.2C48.7,19.9,48.8,19.9,48.8,20z M48.8,19.7l0.1-0.1c0.1,0,0.1,0.1,0.2,0.2L49,19.9
		C48.9,20,48.8,19.9,48.8,19.7z M50.5,19.7c0.1,0,0.1,0.1,0.2,0.1c0,0-0.1,0.1-0.1,0.2c-0.1-0.1-0.1-0.1-0.1-0.2
		C50.4,19.7,50.4,19.7,50.5,19.7z M47.7,17.8c-0.3-0.2-0.4-0.4-0.3-0.7c0-0.2,0.1-0.4,0.1-0.6c0-0.1,0.1-0.1,0.1-0.1
		c0.1,0.1,0.2,0.1,0.3,0.2s0.3,0.3,0.4,0.4v0.1c-0.1,0.8,0.3,1.3,1,1.7c0,0,0.1,0,0.1,0.1c-0.2,0-0.4-0.1-0.5-0.2
		c-0.5-0.5-0.9-1-1-1.7c0-0.1-0.1-0.2-0.1-0.3c0,0-0.1-0.1-0.2-0.1c0,0-0.1,0.1-0.1,0.2s0,0.2,0.1,0.3c0.2,0.2,0.3,0.5,0.4,0.8
		c0.1,0.3,0.3,0.6,0.4,0.9c0,0,0,0.1,0.1,0.1c-0.2,0-0.4,0-0.6,0C48,19,48,19,48,18.9C48.2,18.5,48.1,18.1,47.7,17.8z M49.5,16.8
		c0-0.1,0-0.1,0.1-0.1s0.2,0.1,0.2,0.2c0,0.2-0.1,0.3-0.2,0.4c0,0,0,0-0.1,0c0-0.1,0-0.2,0-0.2C49.5,17,49.5,16.9,49.5,16.8z
		 M50,15.7c0.1,0,0.2-0.1,0.3-0.1c0,0.1,0.1,0.3,0.1,0.4c-0.1,0-0.1,0-0.2,0.1C50.2,16,50.1,15.9,50,15.7z M50.3,17.3
		c-0.1,0.1-0.1,0.1-0.2,0.2C50.1,17.4,50.2,17.3,50.3,17.3L50.3,17.3z M50.2,16.4c-0.1,0.1-0.1,0.1-0.2,0.2c0,0-0.1,0.1,0,0.1
		c0,0.1,0,0.1,0.1,0.2h0.1c0.1,0.2,0,0.4-0.2,0.6c0-0.1-0.1-0.2-0.1-0.3c0-0.4,0-0.7,0-1.1c0,0,0,0,0.1,0
		C50.1,16.1,50.1,16.2,50.2,16.4z M49.9,17.6c-0.1,0.1-0.1,0.1-0.2,0.2l-0.1-0.1c0-0.1,0-0.2,0.1-0.2S49.9,17.6,49.9,17.6z
		 M49.3,18.6c-0.1,0-0.2,0-0.2,0C49,18.5,49,18.5,49,18.4c0-0.2,0.4-0.5,0.5-0.5c0,0,0,0,0.1,0c-0.1,0.1-0.3,0.1-0.3,0.3
		c-0.1,0-0.3,0-0.3,0.2c0,0.1,0.1,0.1,0.1,0.2c0.1,0,0.2,0,0.3-0.2c0.1,0,0.1,0,0.2,0C49.5,18.4,49.4,18.5,49.3,18.6z M49.5,18.6
		c0,0.1,0,0.2,0,0.3c-0.1-0.1-0.2-0.1-0.3-0.2C49.3,18.7,49.4,18.7,49.5,18.6z M49.4,18.4c-0.1,0-0.1,0.1-0.1,0.1l-0.1-0.1l0.1-0.1
		C49.3,18.3,49.3,18.4,49.4,18.4z M49.8,16.5c-0.1-0.1-0.2-0.2-0.1-0.3l0.1-0.1l0,0C49.8,16.3,49.8,16.4,49.8,16.5z M49.5,17.5
		c0.1,0.2,0,0.3-0.1,0.4c-0.3,0.2-0.3,0.2-0.6,0.5c-0.2-0.2-0.3-0.4-0.3-0.6s0-0.3,0-0.5c0-0.1,0-0.2,0-0.3c0.1,0,0.1,0,0.2-0.1
		c0,0.1,0,0.1,0,0.2s0,0.2,0.2,0.1H49c0,0.1,0.1,0.2,0.1,0.3c0,0,0.1,0,0.1-0.1C49.4,17.3,49.4,17.3,49.5,17.5z M49.2,17.3
		c-0.1-0.1,0-0.4-0.3-0.2c0-0.1,0-0.2,0-0.3C49.1,16.9,49.3,17,49.2,17.3z M48.4,16.6c0-0.3,0.3-0.5,0.7-0.8
		C48.9,16.1,48.7,16.4,48.4,16.6z M48.5,16.7c0,0.1,0,0.2,0,0.2s0,0-0.1,0l-0.1-0.1c0,0,0,0,0-0.1C48.3,16.8,48.4,16.7,48.5,16.7z
		 M48.9,19.1c-0.1,0-0.4-0.3-0.5-0.6C48.5,18.6,48.7,18.8,48.9,19.1z M47.9,17.3C47.8,17.3,47.8,17.3,47.9,17.3
		c-0.1-0.1-0.1-0.2-0.2-0.3c0,0,0,0,0.1,0C47.8,17.1,47.8,17.2,47.9,17.3z M49.9,19C49.9,19,49.9,19.1,49.9,19
		c-0.1,0.1-0.2,0.1-0.3,0c-0.1-0.2,0-0.5,0.2-0.6l0,0C49.9,18.6,49.9,18.8,49.9,19z M49.7,18.1L49.7,18.1c0.2-0.2,0.4-0.4,0.6-0.5
		l0,0C50.1,17.8,49.9,17.9,49.7,18.1z M50.3,17.5C50.4,17.5,50.4,17.4,50.3,17.5l0.2,0.1c0,0,0,0-0.1,0
		C50.4,17.5,50.4,17.5,50.3,17.5z M45.9,11.3c0.1,0.1,0.3,0.1,0.4,0.2c1,0.7,2,1.4,3,2.1c0.1,0,0.1,0.1,0.1,0.2c0,0,0,0-0.1,0
		C48.2,13,47,12.2,45.9,11.3L45.9,11.3z M46.8,12.3c-0.2-0.2-0.5-0.3-0.7-0.5c-0.1-0.1-0.2-0.2-0.3-0.4c1.1,0.8,2.2,1.6,3.2,2.3
		c-0.1,0-0.1,0.1-0.2,0.1C48.1,13.3,47.5,12.8,46.8,12.3z M46.3,13.2c0.8,0,1.5,0.5,2.3,0.7l0,0c-0.3-0.1-0.6-0.1-0.9-0.2
		c0.1-0.1,0-0.1-0.1-0.1C47.2,13.6,46.8,13.5,46.3,13.2C46.4,13.3,46.3,13.3,46.3,13.2L46.3,13.2z M46.1,13.2
		c-0.3,0-0.5-0.2-0.8-0.3C45.4,12.9,46,13.1,46.1,13.2z M45.3,13c0.3,0.2,0.6,0.3,0.9,0.4h0.1c0.1,0.2,0.3,0.2,0.5,0.3
		c0.4,0.1,0.8,0.2,1.3,0.3c-0.1,0.1-0.2,0.1-0.3,0.2c0-0.1,0-0.1,0-0.2c-0.1,0-0.2,0.1-0.3,0.1c0-0.1,0-0.1,0.1-0.2
		c-0.1,0-0.3,0.1-0.4,0.1c0-0.1,0.1-0.1,0.1-0.2l0,0c-0.1,0-0.2,0.1-0.4,0.1l0,0v-0.1h-0.1c-0.1,0-0.2,0.1-0.3,0.1
		c0-0.1,0.1-0.1,0.1-0.2c-0.2,0-0.4,0.1-0.5,0.1l0,0c0.1-0.1,0.2-0.1,0.3-0.2c0,0,0,0,0-0.1c-0.2,0-0.4,0.1-0.6,0.1l0,0
		c0.1,0,0.2-0.1,0.2-0.1s0,0,0-0.1c-0.1,0-0.2,0-0.3,0s-0.2,0-0.3,0c0.1,0,0.2-0.1,0.2-0.1l0,0c-0.1,0-0.3,0-0.5,0
		c0.1,0,0.1-0.1,0.2-0.1l0,0c-0.2,0-0.3,0-0.5-0.1c0.1,0,0.2,0,0.3-0.1c0,0,0,0,0-0.1c-0.2,0-0.3-0.1-0.5-0.1
		C44.8,12.8,45,12.9,45.3,13z M43.1,12c0.5,0.2,1,0.5,1.5,0.7c-0.1,0-0.2,0-0.3,0.1h-0.1c-0.3-0.2-0.6-0.3-0.9-0.5
		C43.2,12.2,43.2,12.1,43.1,12L43.1,12z M47.9,14.8L47.9,14.8c0-0.1,0-0.2,0-0.3l0,0c-0.1,0.1-0.3,0.2-0.4,0.4l0,0
		c0-0.1,0.1-0.2,0.1-0.2l0,0c-0.2,0.1-0.4,0.2-0.5,0.3l0,0c0.1-0.1,0.1-0.2,0.2-0.3l0,0c-0.2,0.1-0.4,0.2-0.6,0.4l0,0
		c0.1-0.2,0.2-0.3,0.3-0.5l0,0c-0.2,0.1-0.4,0.4-0.7,0.4c0.1-0.2,0.3-0.3,0.4-0.5l0,0c-0.3,0.1-0.5,0.3-0.8,0.4l0,0
		c0.2-0.1,0.3-0.3,0.5-0.4l0,0c-0.3,0.1-0.5,0.4-0.9,0.4c0.2-0.2,0.4-0.3,0.5-0.5c-0.4,0.2-0.7,0.4-1.1,0.3c0.3-0.1,0.5-0.3,0.8-0.4
		c0,0,0,0,0-0.1c-0.1,0-0.1,0-0.2,0c-0.3,0.1-0.6,0.1-0.8,0.2c-0.1,0-0.2,0-0.3-0.1c0.2,0,0.3,0,0.5-0.1c0.2,0,0.3-0.1,0.5-0.2
		c0,0,0,0,0-0.1c-0.1,0-0.1,0-0.2,0c-0.3,0.1-0.6,0.1-0.9,0c-0.1,0-0.2-0.1-0.4-0.2c0.2,0,0.3,0,0.5,0s0.3,0,0.5,0c0,0,0,0,0-0.1
		c-0.1,0-0.1,0-0.2,0c-0.3,0-0.6-0.1-0.9-0.2c-0.1,0-0.2-0.1-0.3-0.2l0,0c0.4,0.1,0.7,0.2,1.1,0.3c0,0,0,0,0-0.1l-0.1-0.1
		c-0.3-0.1-0.6-0.3-0.9-0.4c-0.2-0.1-0.4-0.2-0.5-0.4c0.2,0.1,0.4,0.2,0.5,0.3c0.3,0.1,0.6,0.3,0.9,0.4c0.1,0,0.1,0.1,0.2,0.2
		c0.1,0.1,0.2,0.2,0.3,0.2c0,0,0,0,0,0.1l0,0c0.2,0.1,0.5,0.2,0.7,0.3l0.1,0.1c0.2,0.1,0.4,0.1,0.7,0.2c0.1,0,0.1,0,0.1,0.1
		c0,0,0.1,0,0.2,0.1c0.1,0,0.1,0,0.2,0c0,0.1,0,0.1,0.3,0.1c0.1,0.1,0.1,0.1,0.4,0c0,0,0,0.1-0.1,0.2C47.7,14.8,47.8,14.8,47.9,14.8
		c0,0.2,0,0.2,0.5,0v0.1c0.2-0.1,0.5,0,0.6-0.3c-0.1,0-0.1,0-0.2,0l0,0c0.1,0,0.1,0,0.2,0c0,0.1-0.1,0.1-0.1,0.1c0,0.1,0,0.1,0,0.2
		c0,0.1,0,0.2,0.1,0.3c0,0,0,0-0.1,0c0-0.1,0-0.2,0-0.3c-0.1,0.1-0.2,0.2-0.3,0.3l0,0c0-0.1,0-0.2,0-0.3
		C48.1,14.6,48,14.7,47.9,14.8z M43.8,18C43.8,18.1,43.7,18.1,43.8,18c-0.1-0.1-0.2-0.1-0.3-0.2c0-0.1,0-0.2,0-0.2
		c0.1,0,0.2-0.1,0.2-0.1c0.1,0,0.2,0.1,0.4,0.2C44,17.9,43.9,18,43.8,18z M55.2,18.4l0.1,0.1c-0.4,0.3-0.7,0.6-1,0.8
		c-1,0.8-2,1.4-3.1,2.1c-0.8,0.4-1.5,0.4-2.3,0.1s-1.5-0.8-2.2-1.3s-1.4-1-2.1-1.5c-0.1-0.1-0.2-0.2-0.3-0.3c-0.1-0.1-0.1-0.1,0-0.1
		s0.2-0.1,0.3-0.1c0.1-0.1,0.2,0,0.3,0.1c0.2,0.1,0.3,0.3,0.5,0.4c1,0.7,2,1.3,3,1.8c0.4,0.2,0.9,0.4,1.4,0.4c0.4,0,0.7-0.1,1.1-0.3
		c1.2-0.6,2.4-1.2,3.5-2c0.2-0.1,0.3-0.2,0.5-0.3C55,18.3,55,18.3,55.2,18.4z M54.6,18c0.1,0,0.1,0.1,0.2,0.2
		c-0.2,0.2-0.5,0.3-0.7,0.5c-1,0.7-2.1,1.3-3.2,1.9c-0.7,0.4-1.5,0.4-2.2,0c-1.3-0.7-2.6-1.4-3.8-2.4c0,0,0,0-0.1,0
		c0.1-0.1,0.2-0.1,0.2-0.2c0,0,0.1,0,0.2-0.1c0.3-0.1,0.3-0.1,0.4,0.2c0.1,0.1,0.1,0.2,0.2,0.3c0.1,0.2,0.2,0.2,0.4,0
		c0.1-0.1,0.1-0.1,0.2-0.2c0-0.1,0-0.1,0-0.2c0,0-0.1,0-0.2,0c-0.1,0-0.2,0-0.3-0.1s-0.2-0.2-0.2-0.3c0-0.1,0.1-0.2,0.2-0.3
		c-0.1,0-0.1,0.1-0.2,0.1c0,0-0.1,0-0.1-0.1c0-0.2,0-0.3-0.3-0.4c0.2-0.2,0.5-0.3,0.7-0.5c0.7-0.5,1.4-1,2.1-1.4
		c0.1-0.1,0.3-0.1,0.4-0.2c0.1,0.1,0,0.2-0.1,0.3c-0.8,0.5-1.5,1-2.3,1.6C46,16.9,45.9,17,45.6,17c0.1,0,0.1,0,0.2,0
		c0,0.1,0,0.1,0,0.2l0,0c0,0,0,0,0-0.1c0-0.2,0.1-0.2,0.2-0.3c0.5-0.3,1-0.6,1.5-1c0.3-0.2,0.7-0.5,1-0.7c0.1-0.1,0.2-0.1,0.3-0.1
		l0,0l-0.1,0.1c-0.7,0.5-1.4,1-2.1,1.5c-0.2,0.1-0.3,0.2-0.5,0.4L46,17.1c0.9-0.6,1.8-1.3,2.7-1.9c0.1-0.1,0.2-0.2,0.3,0h0.1
		c0,0.2-0.2,0.3-0.3,0.4c-0.3,0.2-0.5,0.4-0.6,0.8c-0.1-0.1-0.2-0.2-0.4-0.2c-0.1-0.1-0.2-0.1-0.3,0l-0.1,0.1c0,0.2-0.1,0.4-0.1,0.7
		c-0.1,0.3,0,0.5,0.3,0.7c0.2,0.1,0.4,0.3,0.4,0.6c0,0.1,0,0.2,0,0.3c-0.1,0.2-0.1,0.3-0.4,0.3c-0.1,0-0.1,0-0.2,0l0,0
		c-0.1,0.4,0,0.4,0.3,0.4c0.2,0,0.3,0.1,0.3,0.2c0.1,0.1,0.1,0.2,0.2,0.3c0.1,0.1,0.2,0.2,0.3,0.2c0.8,0,1.7,0,2.5,0
		c0.2,0,0.3-0.1,0.4-0.2c0.1-0.1,0.1-0.2,0.1-0.2c0.1-0.2,0.3-0.4,0.6-0.3c0,0,0,0,0.1,0l0,0c0-0.1,0-0.2,0-0.3h-0.1
		c-0.3-0.1-0.4-0.2-0.5-0.5c0-0.3,0.1-0.6,0.4-0.7c0.3-0.1,0.3-0.2,0.3-0.5c0-0.2,0-0.5-0.1-0.8c0-0.3-0.2-0.3-0.4-0.2
		c-0.2,0.2-0.5,0.4-0.7,0.6C51,17,51,17.2,51,17.3c0.1,0.3,0,0.5-0.2,0.7s-0.4,0.4-0.6,0.6c-0.1,0.1-0.2,0.1-0.2,0.1
		c0-0.3,0-0.7,0-1c0-0.1,0.1-0.1,0.2-0.1c0.2,0,0.3,0,0.4-0.2c0.1-0.1,0.2-0.3,0.3-0.4v-0.1v-0.1H51l0,0c0.2,0,0.2,0,0.2-0.2
		c0,0,0,0,0-0.1c0.1,0,0.1,0,0.3,0c-0.2-0.2-0.2-0.5,0-0.7c0.7,0.5,1.5,1.1,2.2,1.6c-0.1,0.2-0.2,0.3-0.3,0.4h-0.1
		c-0.1,0-0.1,0-0.2,0c-0.1,0-0.2,0.1-0.1,0.2c0.1,0.1,0.2,0.3,0.3,0.4s0.2,0,0.2-0.1c0.1-0.2,0.3-0.4,0.4-0.6l0.1-0.1
		C54.4,17.9,54.5,18,54.6,18z M54.1,17l0.1,0.1c-0.3,0-0.2,0.2-0.2,0.4c-0.2,0-0.2-0.1-0.1-0.4c-0.2-0.1-0.3-0.2-0.5-0.3
		c-0.6-0.4-1.2-0.8-1.8-1.2c-0.1-0.1-0.2-0.2-0.4-0.3c0.1-0.1,0.2-0.1,0.3,0C52.4,15.8,53.2,16.4,54.1,17z M51.3,14.8
		c0,0,0.1-0.1,0.2-0.1c0,0,0.2,0,0.1,0.2C51.6,14.8,51.5,14.8,51.3,14.8z M56.7,13.1C56.7,13.1,56.7,13.2,56.7,13.1
		c0,0.1-0.1,0.2-0.2,0.2c-0.2,0.1-0.3,0.1-0.5,0.2c-0.3,0.1-0.5,0.1-0.8,0.2c0,0,0,0-0.1,0l0,0c0.4,0,0.8-0.1,1.1-0.1l0,0
		c-0.1,0.1-0.2,0.1-0.3,0.2c-0.3,0-0.6,0.1-0.9,0.1c-0.1,0-0.1,0-0.2,0c0.3,0.1,0.6,0.1,0.9,0.2c-0.3,0.1-0.5,0.1-0.8,0.1
		c-0.2,0-0.5-0.1-0.7-0.1c0.2,0.2,0.5,0.2,0.8,0.4c-0.4,0.1-0.7-0.1-1.1-0.2c0.1,0.2,0.3,0.3,0.5,0.4c-0.4,0-0.6-0.2-0.9-0.3l0,0
		l0.1,0.1c0,0.2,0.1,0.2,0.2,0.2c0,0,0,0,0.1,0.1c-0.3,0-0.5-0.2-0.8-0.3l0,0c0.1,0.1,0.3,0.2,0.4,0.4c-0.4,0.1-0.6-0.2-0.8-0.3l0,0
		c0.1,0.1,0.2,0.3,0.3,0.4c-0.2,0-0.3-0.1-0.4-0.2c-0.1-0.1-0.2-0.1-0.3-0.2l0,0l0,0c0.1,0.2,0.1,0.3,0.2,0.5
		c-0.2,0-0.4-0.2-0.6-0.3l0,0c0,0.1,0,0.1,0,0.2c-0.2,0-0.2-0.3-0.4-0.3c-0.1-0.3-0.4-0.2-0.6-0.4c0.3,0,0.5-0.1,0.8-0.1
		c0,0,0,0,0.1,0c0.2,0,0.2,0,0.3,0.3c-0.1-0.1-0.2-0.1-0.4-0.2c0,0.1,0,0.2,0.1,0.3c-0.1-0.1-0.2-0.1-0.3-0.2c0,0.2,0.2,0.3,0.4,0.3
		c0.1,0,0.3,0,0.4,0l0,0l0,0l0,0c0.1,0,0.3-0.1,0.4-0.1c0.1,0,0.1,0,0.2-0.1H53c0.1,0,0.2,0,0.3-0.1h0.1c0.1,0,0.3,0,0.4-0.1
		c0,0,0.1,0,0.2-0.1c0.2-0.1,0.3-0.2,0.5-0.3c0.1,0,0.2,0,0.2-0.1c0.1,0,0.2-0.1,0.2-0.2C55.6,13.4,56.1,13.3,56.7,13.1z M56.5,12.9
		c-0.3,0.1-0.6,0.2-0.9,0.3c-0.1,0-0.1,0-0.2-0.1c0.2-0.1,0.5-0.2,0.7-0.3s0.5-0.2,0.7-0.3C56.9,12.7,56.7,12.8,56.5,12.9z"/>
	<path class="st1" d="M48.1,11.1c0.1-0.1,0.3-0.3,0.4-0.4c0.4-0.3,0.3-0.4,0.2-0.7c0-0.1-0.1-0.2-0.1-0.4c0.3,0.1,0.6,0.1,0.9,0.2
		c0,0,0.1,0,0.1-0.1c0.1-0.2,0.2-0.3,0.3-0.5L50,9.1c0.1,0.2,0.2,0.3,0.3,0.5s0.1,0.2,0.4,0.2c0.2,0,0.4,0,0.7-0.1
		c-0.1,0.1-0.1,0.2-0.2,0.4c0,0.1-0.1,0.2-0.2,0.3c-0.1,0.2,0,0.2,0.1,0.3c0.2,0.1,0.4,0.3,0.5,0.5c0,0,0,0,0,0.1
		c-0.1,0-0.3,0.1-0.4,0.1c-0.1,0-0.2,0.1-0.4,0.1c-0.1,0-0.1,0.1-0.1,0.2c0,0.2,0,0.4,0,0.6c0.2,0,0.3,0,0.5,0s0.2,0.1,0.2,0.2
		c0,0.1-0.1,0.2-0.3,0.2c-0.5,0-1,0-1.5,0c-0.4,0-0.7,0-1.1,0c-0.1,0-0.2,0-0.2-0.1c-0.1-0.1,0-0.2,0.1-0.3c0.2,0,0.3,0,0.5,0
		c0.1,0,0.1,0,0.1-0.1c0-0.2,0-0.4,0-0.5l-0.1-0.1C48.7,11.3,48.4,11.2,48.1,11.1z M48.4,11L48.4,11c0.5,0,0.9-0.1,1.3-0.2
		c-0.2-0.1-0.5-0.1-0.7-0.2c0,0,0,0-0.1,0C48.7,10.7,48.6,10.8,48.4,11z M50.4,12.2C50.4,12.1,50.4,12.1,50.4,12.2
		c-0.2-0.2-0.3-0.3-0.5-0.4h-0.1c-0.2,0.1-0.3,0.2-0.5,0.4C49.8,12.2,50.1,12.2,50.4,12.2z M51,9.9C51,9.9,51,9.8,51,9.9
		c-0.2,0-0.3,0-0.5,0c-0.1,0-0.1,0-0.2,0.1c-0.1,0.2-0.2,0.4-0.3,0.6l0,0C50.4,10.4,50.7,10.1,51,9.9z M49.8,11
		C49.7,10.9,49.7,10.9,49.8,11c-0.2,0-0.3,0.1-0.4,0.2c-0.2,0.1-0.2,0.2-0.2,0.4c0,0.1,0,0.2,0,0.4l0,0C49.4,11.6,49.6,11.3,49.8,11
		z M50.1,10.7L50.1,10.7c0.4,0.1,0.8,0.2,1.2,0.3c0,0,0,0,0-0.1c-0.1-0.1-0.3-0.3-0.4-0.3c-0.1,0-0.2,0-0.3,0l0,0
		C50.4,10.7,50.2,10.7,50.1,10.7z M50.1,10.9C50.1,10.9,50.1,11,50.1,10.9c0.1,0.4,0.3,0.7,0.5,1.1c0-0.2,0.1-0.4,0.1-0.5
		s0-0.1-0.1-0.2C50.4,11.2,50.3,11.1,50.1,10.9z M48.4,11.1c0.6,0.2,0.9,0.2,1.2-0.2C49.2,10.9,48.9,11,48.4,11.1z M49.7,10.7
		C49.7,10.6,49.7,10.6,49.7,10.7c-0.3-0.3-0.6-0.5-0.8-0.7l0,0c0.1,0.2,0.1,0.3,0.2,0.5c0,0,0,0,0.1,0
		C49.2,10.5,49.5,10.6,49.7,10.7z M50.1,10.8L50.1,10.8c0.2,0.2,0.4,0.3,0.6,0.5c0,0,0,0,0.1,0c0.2,0,0.4-0.1,0.5-0.1l0,0
		C50.9,11,50.5,10.9,50.1,10.8z M49.7,10.6C49.7,10.5,49.7,10.5,49.7,10.6c-0.1-0.2-0.2-0.4-0.3-0.6c0,0,0-0.1-0.1-0.1
		c-0.2,0-0.3-0.1-0.5-0.1l0,0C49.2,10.1,49.4,10.3,49.7,10.6z M49.9,11C49.9,11,49.8,11,49.9,11c-0.2,0.3-0.4,0.7-0.6,1
		c0.1,0,0.2-0.1,0.3-0.2c0.2-0.1,0.2-0.2,0.3-0.4C49.8,11.3,49.9,11.1,49.9,11z M50.5,12L50.5,12c-0.1-0.4-0.3-0.7-0.5-1
		c0,0.2,0,0.4,0,0.7v0.1C50.2,11.8,50.3,11.9,50.5,12z M50,9.4c0,0.4,0,0.7-0.1,1.1c0.1-0.2,0.2-0.3,0.3-0.4c0.1-0.1,0.1-0.3,0-0.4
		C50.1,9.6,50.1,9.5,50,9.4z M49.8,10.5C49.8,10.5,49.9,10.5,49.8,10.5c0-0.4,0-0.7,0-1.1c-0.2,0.2-0.4,0.5-0.2,0.8
		C49.8,10.3,49.8,10.4,49.8,10.5z M50.1,10.6L50.1,10.6c0.2,0,0.5-0.1,0.7-0.2l0,0c0.1-0.2,0.2-0.3,0.2-0.5l0,0
		C50.7,10.2,50.4,10.4,50.1,10.6z M49.3,12.2c0.1,0.3,0.2,0.3,0.5,0.2C49.7,12.2,49.7,12.2,49.3,12.2z M50.8,12.5
		c-0.2-0.2-0.3-0.3-0.5-0.2C50.3,12.5,50.6,12.5,50.8,12.5z M48.8,12.4L48.8,12.4c-0.1-0.1-0.1-0.2-0.2-0.2c0,0-0.1,0-0.2,0.1
		c0,0.1,0,0.1,0.1,0.1C48.6,12.5,48.7,12.4,48.8,12.4z"/>
	<path class="st2" d="M46,17.4c0.9-0.6,1.8-1.3,2.7-1.9c0.1-0.1,0.2-0.2,0.3,0h0.1c0,0.2-0.2,0.3-0.3,0.4c-0.3,0.2-0.5,0.4-0.6,0.8
		c-0.1-0.1-0.2-0.2-0.4-0.2c-0.1-0.1-0.2-0.1-0.3,0l-0.1,0.1c0,0.2-0.1,0.4-0.1,0.7c-0.1,0.3,0,0.5,0.3,0.7c0.2,0.1,0.4,0.3,0.4,0.6
		c0,0.1,0,0.2,0,0.3c-0.1,0.2-0.1,0.3-0.4,0.3c-0.1,0-0.1,0-0.2,0l0,0c-0.1,0.4,0,0.4,0.3,0.4c0.2,0,0.3,0.1,0.3,0.2
		c0.1,0.1,0.1,0.2,0.2,0.3c0.1,0.1,0.2,0.2,0.3,0.2c0.8,0,1.7,0,2.5,0c0.2,0,0.3-0.1,0.4-0.2c0.1-0.1,0.1-0.2,0.1-0.2
		c0.1-0.2,0.3-0.4,0.6-0.3c0,0,0,0,0.1,0l0,0c0-0.1,0-0.2,0-0.3h-0.1c-0.3-0.1-0.4-0.2-0.5-0.5c0-0.3,0.1-0.6,0.4-0.7
		c0.3-0.1,0.3-0.2,0.3-0.5c0-0.2,0-0.5-0.1-0.8c0-0.3-0.2-0.3-0.4-0.2c-0.2,0.2-0.5,0.4-0.7,0.6C51,17.3,51,17.5,51,17.6
		c0.1,0.3,0,0.5-0.2,0.7s-0.4,0.4-0.6,0.6C50.1,19,50,19,50,19c0-0.3,0-0.7,0-1c0-0.1,0.1-0.1,0.2-0.1c0.2,0,0.3,0,0.4-0.2
		c0.1-0.1,0.2-0.3,0.3-0.4v-0.1v-0.1H51l0,0c0.2,0,0.2,0,0.2-0.2c0,0,0,0,0-0.1c0.1,0,0.1,0,0.3,0c-0.2-0.2-0.2-0.5,0-0.7
		c0.7,0.5,1.5,1.1,2.2,1.6c-0.1,0.2-0.2,0.3-0.3,0.4h-0.1c-0.1,0-0.1,0-0.2,0c-0.1,0-0.2,0.1-0.1,0.2c0.1,0.1,0.2,0.3,0.3,0.4
		s0.2,0,0.2-0.1c0.1-0.2,0.3-0.4,0.4-0.6l0.1-0.1c0.1,0.1,0.3,0.1,0.4,0.2c0.1,0,0.1,0.1,0.2,0.2c-0.2,0.2-0.5,0.3-0.7,0.5
		c-1,0.7-2.1,1.3-3.2,1.9c-0.7,0.4-1.5,0.4-2.2,0c-1.3-0.7-2.6-1.4-3.8-2.4c0,0,0,0-0.1,0c0.1-0.1,0.2-0.1,0.2-0.2
		c0,0,0.1,0,0.2-0.1c0.3-0.1,0.3-0.1,0.4,0.2c0.1,0.1,0.1,0.2,0.2,0.3c0.1,0.2,0.2,0.2,0.4,0c0.1-0.1,0.1-0.1,0.2-0.2
		c0-0.1,0-0.1,0-0.2c0,0-0.1,0-0.2,0c-0.1,0-0.2,0-0.3-0.1s-0.2-0.2-0.2-0.3C45.8,17.5,45.9,17.4,46,17.4L46,17.4z"/>
	<path class="st2" d="M55.3,18.6c-0.4,0.3-0.7,0.6-1,0.8c-1,0.8-2,1.4-3.1,2.1c-0.8,0.4-1.5,0.4-2.3,0.1s-1.5-0.8-2.2-1.3
		s-1.4-1-2.1-1.5c-0.1-0.1-0.2-0.2-0.3-0.3c-0.1-0.1-0.1-0.1,0-0.1s0.2-0.1,0.3-0.1c0.1-0.1,0.2,0,0.3,0.1c0.2,0.1,0.3,0.3,0.5,0.4
		c1,0.7,2,1.3,3,1.8c0.4,0.2,0.9,0.4,1.4,0.4c0.4,0,0.7-0.1,1.1-0.3c1.2-0.6,2.4-1.2,3.5-2c0.2-0.1,0.3-0.2,0.5-0.3
		c0.2-0.1,0.2-0.1,0.4,0C55.2,18.5,55.2,18.5,55.3,18.6z"/>
	<path class="st2" d="M46.8,14.3c-0.2,0.1-0.4,0.4-0.7,0.4c0.1-0.2,0.3-0.3,0.4-0.5l0,0c-0.3,0.1-0.5,0.3-0.8,0.4l0,0
		c0.2-0.1,0.3-0.3,0.5-0.4l0,0c-0.3,0.1-0.5,0.4-0.9,0.4c0.2-0.2,0.4-0.3,0.5-0.5c-0.4,0.2-0.7,0.4-1.1,0.3c0.3-0.1,0.5-0.3,0.8-0.4
		c0,0,0,0,0-0.1c-0.1,0-0.1,0-0.2,0C45,14,44.7,14,44.5,14.1c-0.1,0-0.2,0-0.3-0.1c0.2,0,0.3,0,0.5-0.1c0.2,0,0.3-0.1,0.5-0.2
		c0,0,0,0,0-0.1c-0.1,0-0.1,0-0.2,0c-0.3,0.1-0.6,0.1-0.9,0c-0.1,0-0.2-0.1-0.4-0.2c0.2,0,0.3,0,0.5,0s0.3,0,0.5,0c0,0,0,0,0-0.1
		c-0.1,0-0.1,0-0.2,0c-0.3,0-0.6-0.1-0.9-0.2c-0.1,0-0.2-0.1-0.3-0.2l0,0c0.4,0.1,0.7,0.2,1.1,0.3c0,0,0,0,0-0.1L44.3,13
		c-0.3-0.1-0.6-0.3-0.9-0.4c-0.2-0.1-0.4-0.2-0.5-0.4c0.2,0.1,0.4,0.2,0.5,0.3c0.3,0.1,0.6,0.3,0.9,0.4c0.1,0,0.1,0.1,0.2,0.2
		c0.1,0.1,0.2,0.2,0.3,0.2c0,0,0,0,0,0.1l0,0c0.2,0.1,0.5,0.2,0.7,0.3l0.1,0.1c0.2,0.1,0.4,0.1,0.7,0.2c0.1,0,0.1,0,0.1,0.1
		c0,0,0.1,0,0.2,0.1c0.1,0,0.1,0,0.2,0c0,0.1,0,0.1,0.3,0.1c0.1,0.1,0.1,0.1,0.4,0c0,0,0,0.1-0.1,0.2c0.1,0,0.2,0,0.3,0
		c0,0.2,0,0.2,0.5,0v0.1c0.2-0.1,0.5,0,0.6-0.3c-0.1,0-0.1,0-0.2,0l0,0c0.1,0,0.1,0,0.2,0c0,0.1-0.1,0.1-0.1,0.1c0,0.1,0,0.1,0,0.2
		c0,0.1,0,0.2,0.1,0.3c0,0,0,0-0.1,0c0-0.1,0-0.2,0-0.3c-0.1,0.1-0.2,0.2-0.3,0.3l0,0c0-0.1,0-0.2,0-0.3c-0.1,0.1-0.2,0.2-0.3,0.3
		l0,0c0-0.1,0-0.2,0.1-0.3l0,0c-0.1,0.1-0.3,0.2-0.4,0.4l0,0c0-0.1,0.1-0.2,0.1-0.2l0,0c-0.2,0.1-0.4,0.2-0.5,0.3l0,0
		c0.1-0.1,0.1-0.2,0.2-0.3l0,0c-0.2,0.1-0.4,0.2-0.6,0.4l0,0C46.6,14.6,46.7,14.5,46.8,14.3L46.8,14.3z"/>
	<path class="st2" d="M48.9,14.3L48.9,14.3c0-0.1,0.1-0.2,0.2-0.3l0,0c0.1,0,0.3,0.1,0.4,0c0.1,0,0.2,0.1,0.3,0.1c0-0.1,0-0.1,0-0.1
		c0.1,0,0.2,0,0.3,0.1c0.2,0.1,0.3,0.2,0.5,0.2s0.3,0.2,0.4,0.3c0,0,0,0.1,0,0.2c-0.2,0.1-0.3,0.1-0.4,0.4l0,0c-0.1,0-0.5,0-0.6,0
		c-0.1-0.1-0.1-0.1-0.2-0.1c0-0.1,0-0.1,0-0.2c0.1-0.1,0.1-0.2-0.1-0.3c0,0.1,0.1,0.1,0.1,0.2c-0.2,0.2-0.3,0.2-0.1,0.3
		c0,0.2,0,0.2,0.2,0.2c0,0.2,0.1,0.1,0.2,0.1c0,0.1,0,0.1,0,0.1c0.2,0,0.3-0.1,0.5-0.1l0,0c0,0.1,0,0.1-0.1,0.2
		c-0.2-0.1-0.2,0-0.3,0.1c-0.1,0-0.1-0.1-0.2-0.2c0,0,0,0.1-0.1,0.1c-0.1-0.1-0.1-0.2-0.2,0c-0.1,0-0.1-0.3-0.3-0.1
		c-0.1-0.1,0-0.3-0.2-0.2c0-0.1,0-0.2,0-0.2h-0.1c0-0.1,0.1-0.2,0.1-0.3c-0.1,0-0.1,0-0.2,0c0.1-0.1,0.1-0.3,0.3-0.4
		c0.1,0,0.2-0.1,0.4-0.1h0.1c0,0,0,0,0-0.1c-0.2,0-0.4-0.1-0.5-0.1s-0.2,0-0.2,0.2c0,0,0,0-0.1,0.1s-0.2,0.1-0.1,0.3v0.1
		c0,0.1,0,0.1,0,0.2c0,0.1,0.1,0.1,0.1,0.2c0.1,0.1,0.1,0.2,0.2,0.3c0,0.1,0.3,0.1,0.4,0.1c0.1,0.3-0.2,0.4-0.1,0.7
		c-0.1,0-0.2,0-0.3,0c0-0.3,0.1-0.6-0.1-0.9c0,0-0.1,0-0.1,0.1c0-0.1,0-0.2-0.1-0.4c-0.1,0-0.1,0.1-0.2,0.1
		c-0.1-0.2,0.1-0.3,0.1-0.5c-0.1,0-0.1,0-0.1,0C48.8,14.5,48.9,14.4,48.9,14.3z M50.3,14.3L50.3,14.3l0.1,0.1c0,0,0.1,0,0.1,0.1
		c0.1,0.1,0.2,0.1,0.3,0.1s0.1-0.1,0.1-0.1c0-0.1,0-0.2-0.1-0.2C50.7,14.3,50.5,14.3,50.3,14.3z"/>
	<path class="st2" d="M52.5,14.5C52.5,14.5,52.5,14.4,52.5,14.5c0.2-0.1,0.3-0.1,0.5-0.2c0.1,0,0.1,0,0.2-0.1h0.1
		c0.1,0,0.2,0,0.3-0.1h0.1c0.1,0,0.3,0,0.4-0.1c0,0,0.1,0,0.2-0.1c0.2-0.1,0.3-0.2,0.5-0.3c0.1,0,0.2,0,0.2-0.1
		c0.1,0,0.2-0.1,0.2-0.2c0.5-0.1,1.1-0.2,1.6-0.3l0,0c-0.1,0.1-0.1,0.1-0.2,0.2c-0.2,0.1-0.3,0.1-0.5,0.2c-0.3,0.1-0.5,0.1-0.8,0.2
		c0,0,0,0-0.1,0l0,0c0.4,0,0.8-0.1,1.1-0.1l0,0c-0.1,0.1-0.2,0.1-0.3,0.2c-0.3,0-0.6,0.1-0.9,0.1c-0.1,0-0.1,0-0.2,0
		c0.3,0.1,0.6,0.1,0.9,0.2c-0.3,0.1-0.5,0.1-0.8,0.1c-0.2,0-0.5-0.1-0.7-0.1c0.2,0.2,0.5,0.2,0.8,0.4c-0.4,0.1-0.7-0.1-1.1-0.2
		c0.1,0.2,0.3,0.3,0.5,0.4c-0.4,0-0.6-0.2-0.9-0.3l0,0l0.1,0.1c0,0.2,0.1,0.2,0.2,0.2c0,0,0,0,0.1,0.1c-0.3,0-0.5-0.2-0.8-0.3l0,0
		c0.1,0.1,0.3,0.2,0.4,0.4c-0.4,0.1-0.6-0.2-0.8-0.3l0,0c0.1,0.1,0.2,0.3,0.3,0.4c-0.2,0-0.3-0.1-0.4-0.2
		C52.7,14.6,52.6,14.5,52.5,14.5L52.5,14.5z"/>
	<path class="st2" d="M46,17.4L46,17.4c-0.1,0.1-0.2,0.1-0.3,0.1c0,0-0.1,0-0.1-0.1c0-0.2,0-0.3-0.3-0.4c0.2-0.2,0.5-0.3,0.7-0.5
		c0.7-0.5,1.4-1,2.1-1.4c0.1-0.1,0.3-0.1,0.4-0.2c0.1,0.1,0,0.2-0.1,0.3c-0.8,0.5-1.5,1-2.3,1.6C46,16.9,45.9,17,45.6,17
		c0.1,0,0.1,0,0.2,0c0,0.1,0,0.1,0,0.2l0,0c0,0,0,0,0-0.1c0-0.2,0.1-0.2,0.2-0.3c0.5-0.3,1-0.6,1.5-1c0.3-0.2,0.7-0.5,1-0.7
		c0.1-0.1,0.2-0.1,0.3-0.1l0,0l-0.1,0.1c-0.7,0.5-1.4,1-2.1,1.5c-0.2,0.1-0.3,0.2-0.5,0.4C46.1,17.3,46.1,17.3,46,17.4z"/>
	<path class="st2" d="M48.1,19.6c0.3,0,0.5,0,0.7,0c0,0.1-0.1,0.1-0.1,0.2s0,0.1,0.1,0.2s0.2,0.1,0.3,0s0.1-0.2,0-0.4
		c0.4,0,0.9,0,1.3,0c0,0.1-0.1,0.1-0.1,0.2s0,0.1,0.1,0.2s0.3,0.1,0.3,0c0.1-0.1,0.1-0.2-0.1-0.4c0.3,0,0.5,0,0.8,0
		c-0.1,0.2-0.2,0.3-0.3,0.5L51,20.2c-0.9,0-1.8,0-2.7,0c-0.1,0-0.1,0-0.2-0.1C48.2,19.9,48.2,19.8,48.1,19.6z"/>
	<path class="st2" d="M48.5,19.1c-0.2,0-0.4,0-0.6,0C48,19,48,19,48,18.9c0.2-0.4,0.1-0.9-0.3-1.1c-0.3-0.2-0.4-0.4-0.3-0.7
		c0-0.2,0.1-0.4,0.1-0.6c0-0.1,0.1-0.1,0.1-0.1c0.1,0.1,0.2,0.1,0.3,0.2s0.3,0.3,0.4,0.4v0.1c-0.1,0.8,0.3,1.3,1,1.7
		c0,0,0.1,0,0.1,0.1c-0.2,0-0.4-0.1-0.5-0.2c-0.5-0.5-0.9-1-1-1.7c0-0.1-0.1-0.2-0.1-0.3c0,0-0.1-0.1-0.2-0.1c0,0-0.1,0.1-0.1,0.2
		s0,0.2,0.1,0.3c0.2,0.2,0.3,0.5,0.4,0.8c0.1,0.3,0.3,0.6,0.4,0.9C48.5,19,48.5,19,48.5,19.1z"/>
	<path class="st2" d="M53.8,17c-0.2-0.1-0.3-0.2-0.5-0.3c-0.6-0.4-1.2-0.8-1.8-1.2c-0.1-0.1-0.2-0.2-0.4-0.3c0.1-0.1,0.2-0.1,0.3,0
		C52.2,15.8,53.1,16.4,53.8,17l0.2,0.1c-0.3,0-0.2,0.2-0.2,0.4C53.8,17.5,53.7,17.4,53.8,17z"/>
	<path class="st2" d="M51.6,19.1c-0.2,0-0.3,0-0.6,0c0.1-0.2,0.2-0.3,0.3-0.5s0.2-0.5,0.4-0.8c0.1-0.1,0.1-0.2,0.2-0.3
		c0.1-0.1,0.1-0.2,0.2-0.3c0-0.1,0-0.3-0.1-0.3s-0.2,0.1-0.2,0.2c-0.1,0.2-0.1,0.4-0.1,0.6c0,0.1,0,0.2-0.1,0.3
		c-0.2,0.4-0.6,0.7-0.9,1c-0.1,0.1-0.1,0.1-0.2,0.1c0.2-0.1,0.3-0.3,0.5-0.4c0.1-0.1,0.3-0.3,0.4-0.5c0.1-0.2,0.2-0.4,0.1-0.6
		c-0.1-0.2,0-0.3,0.1-0.4c0.2-0.2,0.4-0.4,0.6-0.6c0,0.1,0,0.2,0.1,0.4c0,0.2,0,0.4,0,0.6c0,0.1,0,0.1-0.1,0.2
		c-0.3,0.2-0.5,0.5-0.5,0.8C51.5,18.7,51.5,18.9,51.6,19.1z"/>
	<path class="st2" d="M48.8,18.4c-0.2-0.2-0.3-0.4-0.3-0.6s0-0.3,0-0.5c0-0.1,0-0.2,0-0.3c0.1,0,0.1,0,0.2-0.1c0,0.1,0,0.1,0,0.2
		s0,0.2,0.2,0.1H49c0,0.1,0.1,0.2,0.1,0.3c0,0,0.1,0,0.1-0.1c0.1-0.1,0.2-0.1,0.3,0.1s0,0.3-0.1,0.4C49.1,18.1,49,18.1,48.8,18.4z"
		/>
	<path class="st2" d="M55.2,13.1c-0.2,0-0.4,0-0.5,0.1c0,0,0,0,0,0.1c0.1,0,0.3,0.1,0.4,0.1l0,0c-0.2,0-0.5,0-0.7,0c0,0,0,0,0,0.1
		c0.1,0,0.2,0.1,0.3,0.1l0,0c-0.2,0-0.4-0.1-0.6-0.1l0,0c0.1,0,0.1,0.1,0.2,0.1l0,0c-0.2,0-0.3-0.1-0.5-0.1l0,0
		c0.1,0.1,0.1,0.1,0.2,0.2l0,0c-0.2,0-0.3-0.1-0.5-0.1l0,0c0.1,0.1,0.1,0.1,0.2,0.2l0,0c-0.2-0.1-0.3-0.1-0.5-0.2l0,0
		c0.1,0.1,0.1,0.1,0.2,0.2l0,0c-0.1,0-0.3-0.1-0.5-0.2c0,0.1,0.1,0.2,0.1,0.2l0,0c-0.1-0.1-0.3-0.1-0.5-0.2c0,0.1,0.1,0.2,0.1,0.3
		l0,0c-0.1-0.1-0.2-0.1-0.3-0.2c0.3-0.1,0.6-0.2,0.9-0.3c0.2-0.1,0.4-0.2,0.6-0.3c0.1-0.1,0.3-0.1,0.4-0.2c0.2-0.1,0.4-0.2,0.6-0.2
		C54.9,13,55.1,13,55.2,13.1L55.2,13.1z"/>
	<path class="st2" d="M47.2,14.1c0-0.1,0.1-0.1,0.1-0.2l0,0c-0.1,0-0.2,0.1-0.4,0.1l0,0v-0.1h-0.1c-0.1,0-0.2,0.1-0.3,0.1
		c0-0.1,0.1-0.1,0.1-0.2c-0.2,0-0.4,0.1-0.5,0.1l0,0c0.1-0.1,0.2-0.1,0.3-0.2c0,0,0,0,0-0.1c-0.2,0-0.4,0.1-0.6,0.1l0,0
		c0.1,0,0.2-0.1,0.2-0.1s0,0,0-0.1c-0.1,0-0.2,0-0.3,0s-0.2,0-0.3,0c0.1,0,0.2-0.1,0.2-0.1l0,0c-0.1,0-0.3,0-0.5,0
		c0.1,0,0.1-0.1,0.2-0.1l0,0c-0.2,0-0.3,0-0.5-0.1c0.1,0,0.2,0,0.3-0.1c0,0,0,0,0-0.1c-0.2,0-0.3-0.1-0.5-0.1c0.3-0.1,0.5,0,0.8,0.1
		c0.3,0.2,0.6,0.3,0.9,0.4h0.1c0.1,0.2,0.3,0.2,0.5,0.3c0.4,0.1,0.8,0.2,1.3,0.3c-0.1,0.1-0.2,0.1-0.3,0.2c0-0.1,0-0.1,0-0.2
		c-0.1,0-0.2,0.1-0.3,0.1c0-0.1,0-0.1,0.1-0.2C47.4,14,47.3,14.1,47.2,14.1z"/>
	<path class="st2" d="M45.8,11.4c1.1,0.8,2.2,1.6,3.2,2.3c-0.1,0-0.1,0.1-0.2,0.1c-0.7-0.5-1.4-1-2.1-1.5c-0.2-0.2-0.5-0.3-0.7-0.5
		C45.9,11.7,45.8,11.6,45.8,11.4z"/>
	<path class="st2" d="M49.3,13.8c-1.1-0.8-2.3-1.7-3.4-2.5c0,0,0,0,0-0.1c0.1,0.1,0.3,0.1,0.4,0.2c1,0.7,2,1.4,3,2.1
		C49.3,13.6,49.4,13.7,49.3,13.8C49.4,13.8,49.4,13.8,49.3,13.8z"/>
	<path class="st2" d="M52.1,19.3c-0.2,0-0.4,0-0.5,0c-1.3,0-2.7,0-4,0c0,0-0.1,0-0.1-0.1l0.1-0.1c1.5,0,2.9,0,4.4,0
		C52,19.2,52.1,19.3,52.1,19.3L52.1,19.3z"/>
	<path class="st2" d="M53.7,17.1c0,0.1,0,0.2,0,0.3c-1-0.7-1.9-1.4-2.9-2.1c0,0,0,0,0-0.1c0.1,0,0.2,0,0.3,0.1
		c0.8,0.5,1.5,1.1,2.3,1.7C53.6,17,53.6,17.1,53.7,17.1z"/>
	<path class="st2" d="M51.2,13.2c0.3-0.2,0.5-0.4,0.8-0.6c0.6-0.4,1.1-0.8,1.7-1.1c0.1-0.1,0.2-0.1,0.3-0.1l0,0l-0.1,0.1
		c-0.8,0.5-1.5,1-2.3,1.6c-0.1,0-0.1,0.1-0.2,0.1S51.2,13.2,51.2,13.2L51.2,13.2z"/>
	<path class="st2" d="M52.5,14.5c0.1,0.2,0.1,0.3,0.2,0.5c-0.2,0-0.4-0.2-0.6-0.3l0,0c0,0.1,0,0.1,0,0.2c-0.2,0-0.2-0.3-0.4-0.3
		c-0.1-0.3-0.4-0.2-0.6-0.4c0.3,0,0.5-0.1,0.8-0.1c0,0,0,0,0.1,0c0.2,0,0.2,0,0.3,0.3c-0.1-0.1-0.2-0.1-0.4-0.2c0,0.1,0,0.2,0.1,0.3
		c-0.1-0.1-0.2-0.1-0.3-0.2c0,0.2,0.2,0.3,0.4,0.3C52.2,14.5,52.3,14.5,52.5,14.5L52.5,14.5z"/>
	<path class="st2" d="M51.4,13.3c0.9-0.6,1.7-1.2,2.6-1.8c-0.1,0.2-0.2,0.3-0.3,0.4C53,12.4,52.3,12.9,51.4,13.3
		C51.5,13.4,51.4,13.4,51.4,13.3z"/>
	<path class="st2" d="M53.7,13.3c-0.2,0.1-0.4,0.2-0.6,0.3c0-0.1,0-0.1-0.1-0.1c-0.3,0.2-0.7,0.3-1.1,0.4c-0.4,0.1-0.7,0.2-1.1,0.2
		l0,0c0.1,0,0.2,0,0.4-0.1c0.3-0.1,0.6-0.1,0.8-0.3c0.3-0.1,0.6-0.2,0.9-0.3C53.2,13.4,53.5,13.3,53.7,13.3
		C53.7,13.2,53.7,13.3,53.7,13.3z"/>
	<path class="st2" d="M55.1,12.9c0.5-0.2,1.1-0.5,1.6-0.7C56.7,12.5,55.5,13.1,55.1,12.9L55.1,12.9z"/>
	<path class="st2" d="M46.3,13.2c0.8,0,1.5,0.5,2.3,0.7l0,0c-0.3-0.1-0.6-0.1-0.9-0.2c0.1-0.1,0-0.1-0.1-0.1
		C47.2,13.6,46.8,13.5,46.3,13.2C46.4,13.3,46.3,13.3,46.3,13.2L46.3,13.2z"/>
	<path class="st2" d="M50,16c0.1,0.1,0.1,0.3,0.2,0.4c-0.1,0.1-0.1,0.1-0.2,0.2c0,0-0.1,0.1,0,0.1c0,0.1,0,0.1,0.1,0.2h0.1
		c0.1,0.2,0,0.4-0.2,0.6c0-0.1-0.1-0.2-0.1-0.3C49.9,16.7,49.9,16.4,50,16C49.9,16,50,16,50,16z"/>
	<path class="st2" d="M57,12.5c-0.1,0.2-0.2,0.3-0.4,0.4c-0.3,0.1-0.6,0.2-0.9,0.3c-0.1,0-0.1,0-0.2-0.1c0.2-0.1,0.5-0.2,0.7-0.3
		C56.5,12.7,56.7,12.6,57,12.5z"/>
	<path class="st2" d="M55.5,17.9c0.1-0.1,0.2-0.2,0.4-0.2c0.1,0,0.2,0.1,0.1,0.2c0,0.1-0.1,0.2-0.2,0.3c-0.1,0.1-0.2,0-0.2,0
		C55.6,18,55.6,18,55.5,17.9z"/>
	<path class="st2" d="M51.4,16.5c-0.3-0.1-0.7-0.6-0.8-0.9C50.9,16,51.3,16.2,51.4,16.5z"/>
	<path class="st2" d="M48.4,16.6c0-0.3,0.3-0.5,0.7-0.8C48.9,16.1,48.7,16.4,48.4,16.6z"/>
	<path class="st2" d="M49.9,18.5c0,0.2,0,0.3,0,0.5c0,0,0,0.1-0.1,0.1s-0.2,0-0.2,0C49.5,18.9,49.7,18.5,49.9,18.5L49.9,18.5z"/>
	<path class="st2" d="M50.6,13.5l0.1,0.1c0.1,0,0.2,0.1,0.2,0.1c0.1,0,0.1-0.1,0.2-0.2c0,0-0.1-0.1-0.1-0.2l-0.1-0.1
		c0.3,0.1,0.5,0.3,0.7,0.5l0,0c0,0-0.1,0-0.1-0.1c-0.1-0.1-0.2-0.1-0.3,0c-0.1,0.2-0.1,0.2-0.3,0.1C50.6,13.7,50.6,13.6,50.6,13.5
		C50.5,13.5,50.6,13.5,50.6,13.5z"/>
	<path class="st2" d="M50.7,15.3c0.2,0.1,0.4,0.3,0.5,0.4l0,0c-0.2,0.2-0.2,0.2-0.3,0C50.8,15.6,50.6,15.5,50.7,15.3z"/>
	<path class="st2" d="M49.9,13.7c-0.1,0-0.2-0.1-0.2-0.2c0-0.1,0-0.2,0-0.2c0-0.1,0-0.2,0.1-0.2c0,0,0.1,0.1,0.1,0.2
		C50,13.4,49.9,13.6,49.9,13.7z"/>
	<path class="st2" d="M49.5,17.4c0-0.1,0-0.2,0-0.2c0-0.1,0-0.2,0-0.3c0-0.1,0-0.1,0.1-0.1s0.2,0.1,0.2,0.2
		C49.7,17.1,49.7,17.3,49.5,17.4C49.6,17.4,49.5,17.4,49.5,17.4z"/>
	<path class="st2" d="M49.7,18.3c-0.1,0.1-0.2,0.2-0.4,0.3c-0.1,0-0.2,0-0.2,0C49,18.5,49,18.5,49,18.4c0-0.2,0.4-0.5,0.5-0.5
		c0,0,0,0,0.1,0c-0.1,0.1-0.3,0.1-0.3,0.3c-0.1,0-0.3,0-0.3,0.2c0,0.1,0.1,0.1,0.1,0.2c0.1,0,0.2,0,0.3-0.2
		C49.5,18.3,49.6,18.3,49.7,18.3z"/>
	<path class="st2" d="M50,15.7c0.1,0,0.2-0.1,0.3-0.1c0,0.1,0.1,0.3,0.1,0.4c-0.1,0-0.1,0-0.2,0.1C50.2,16,50.1,15.9,50,15.7z"/>
	<path class="st2" d="M50.1,12.8c0.3,0.2,0.5,0.3,0.7,0.6C50.5,13.2,50.2,13.1,50.1,12.8z"/>
	<path class="st2" d="M46.1,13.2c-0.3,0-0.5-0.2-0.8-0.3C45.4,12.9,46,13.1,46.1,13.2z"/>
	<path class="st2" d="M49.9,17.6c-0.1,0.1-0.1,0.1-0.2,0.2l-0.1-0.1c0-0.1,0-0.2,0.1-0.2S49.9,17.6,49.9,17.6z"/>
	<path class="st2" d="M51.2,18.6c-0.1,0.2-0.3,0.3-0.4,0.5c0,0-0.1,0-0.2,0l0,0C50.8,18.9,50.9,18.7,51.2,18.6
		C51.1,18.6,51.2,18.6,51.2,18.6z"/>
	<path class="st2" d="M48.9,16.8c0.3,0,0.4,0.2,0.3,0.5c-0.1-0.1,0-0.4-0.3-0.2C48.9,17,48.9,16.9,48.9,16.8z"/>
	<path class="st2" d="M48.8,19.7l0.1-0.1c0.1,0,0.1,0.1,0.2,0.2L49,19.9C48.9,20,48.8,19.9,48.8,19.7z"/>
	<path class="st2" d="M50.6,20c-0.1-0.1-0.1-0.1-0.1-0.2s0-0.2,0.1-0.1c0.1,0,0.1,0.1,0.2,0.1C50.7,19.9,50.6,19.9,50.6,20z"/>
	<path class="st2" d="M48.4,18.4c0.2,0.2,0.4,0.4,0.5,0.6C48.7,19.1,48.5,18.7,48.4,18.4z"/>
	<path class="st2" d="M49.8,16.1c0,0.1,0,0.3,0,0.4c-0.1-0.1-0.2-0.2-0.1-0.3C49.7,16.2,49.7,16.1,49.8,16.1L49.8,16.1z"/>
	<path class="st2" d="M50.6,13.8c-0.1,0.1-0.2,0.2-0.3,0v-0.1C50.4,13.6,50.5,13.6,50.6,13.8z"/>
	<path class="st2" d="M50.3,17.6c-0.2,0.2-0.4,0.3-0.6,0.5l0,0C49.9,17.9,50.1,17.7,50.3,17.6L50.3,17.6z"/>
	<path class="st2" d="M49.5,18.6c0,0.1,0,0.2,0,0.3c-0.1-0.1-0.2-0.1-0.3-0.2C49.3,18.7,49.4,18.7,49.5,18.6z"/>
	<path class="st2" d="M50.7,16c0.1,0.1,0.2,0.3,0.3,0.4l0,0c0,0-0.1,0-0.1-0.1l-0.1-0.1C50.7,16.2,50.7,16.1,50.7,16z"/>
	<path class="st2" d="M50.6,17.3c0.1,0,0.2,0,0.3-0.1c-0.1,0.1-0.1,0.2-0.2,0.3C50.6,17.5,50.6,17.4,50.6,17.3z"/>
	<path class="st2" d="M50.1,17.6c0-0.1,0-0.3,0.1-0.3l0.1,0.1C50.3,17.4,50.2,17.5,50.1,17.6z"/>
	<path class="st2" d="M47.8,17.3c0-0.1-0.1-0.2-0.1-0.3c0,0,0,0,0.1,0C47.8,17.1,47.8,17.2,47.8,17.3L47.8,17.3z"/>
	<path class="st2" d="M54.7,13c-0.2,0.1-0.4,0.1-0.5,0.2l0,0C54.4,13,54.6,13,54.7,13C54.7,12.9,54.7,13,54.7,13z"/>
	<path class="st2" d="M51.7,17.3c0-0.1,0.1-0.2,0.1-0.3c0,0,0,0,0.1,0C51.9,17.1,51.8,17.2,51.7,17.3C51.8,17.3,51.8,17.3,51.7,17.3
		z"/>
	<path class="st2" d="M48.4,17l-0.1-0.1c0,0,0,0,0-0.1c0.1,0,0.1,0,0.2-0.1C48.5,16.8,48.5,16.9,48.4,17C48.4,16.9,48.4,17,48.4,17z
		"/>
	<path class="st2" d="M49.4,18.4c-0.1,0-0.1,0.1-0.1,0.1l-0.1-0.1l0.1-0.1C49.3,18.3,49.3,18.4,49.4,18.4z"/>
	<path class="st2" d="M49.6,13.1c0,0.1,0,0.2,0,0.3C49.5,13.3,49.5,13.2,49.6,13.1z"/>
	<path class="st2" d="M50.8,17.2c0,0-0.1,0-0.1,0.1c0-0.1,0-0.1,0-0.2C50.7,17.1,50.7,17.1,50.8,17.2C50.8,17.1,50.8,17.1,50.8,17.2
		z"/>
	<path class="st2" d="M50.7,16.9c0.1,0,0.1,0,0.2-0.1c0,0.1,0,0.1-0.1,0.1C50.8,17,50.7,17,50.7,16.9C50.7,17,50.7,17,50.7,16.9z"/>
	<path class="st2" d="M50.5,17.6c0,0-0.1-0.1-0.2-0.1c0.1,0,0.1-0.1,0.1,0C50.5,17.4,50.5,17.5,50.5,17.6
		C50.5,17.5,50.5,17.6,50.5,17.6z"/>
	<path class="st2" d="M50.2,13.4c0-0.1,0-0.1,0-0.2C50.3,13.3,50.3,13.3,50.2,13.4z"/>
	<path class="st2" d="M48.4,11c0.2-0.1,0.3-0.3,0.5-0.4c0,0,0,0,0.1,0c0.2,0.1,0.5,0.1,0.7,0.2C49.3,10.8,48.8,10.9,48.4,11L48.4,11
		z"/>
	<path class="st2" d="M50.4,12.2c-0.3,0-0.7,0-1.1,0c0.2-0.2,0.3-0.3,0.5-0.4h0.1C50.1,11.9,50.3,12,50.4,12.2
		C50.4,12.1,50.4,12.1,50.4,12.2z"/>
	<path class="st2" d="M51,9.9c-0.3,0.2-0.6,0.5-0.9,0.7l0,0c0.1-0.2,0.2-0.4,0.3-0.6c0,0,0.1-0.1,0.2-0.1C50.7,9.9,50.8,9.8,51,9.9
		C51,9.8,51,9.9,51,9.9z"/>
	<path class="st2" d="M49.8,11c-0.2,0.3-0.4,0.7-0.5,1l0,0c0-0.1,0-0.2,0-0.4s0-0.3,0.2-0.4C49.5,11.1,49.6,11,49.8,11
		C49.7,10.9,49.7,10.9,49.8,11z"/>
	<path class="st2" d="M50.1,10.7c0.1,0,0.3-0.1,0.4-0.1l0,0c0.1,0,0.2-0.1,0.3,0c0.2,0.1,0.3,0.2,0.4,0.3c0,0,0,0,0,0.1
		C50.9,10.9,50.5,10.8,50.1,10.7L50.1,10.7z"/>
	<path class="st2" d="M50.1,10.9c0.2,0.1,0.3,0.2,0.5,0.3c0,0,0.1,0.1,0.1,0.2c0,0.2,0,0.4-0.1,0.5C50.4,11.7,50.2,11.3,50.1,10.9
		C50.1,11,50.1,10.9,50.1,10.9z"/>
	<path class="st2" d="M48.4,11.1c0.4-0.1,0.8-0.2,1.2-0.2C49.3,11.3,49,11.3,48.4,11.1z"/>
	<path class="st2" d="M49.7,10.7c-0.2-0.1-0.4-0.1-0.7-0.2c0,0,0,0-0.1,0c-0.1-0.2-0.1-0.3-0.2-0.5l0,0
		C49.1,10.2,49.4,10.4,49.7,10.7C49.7,10.6,49.7,10.6,49.7,10.7z"/>
	<path class="st2" d="M50.1,10.8c0.4,0.1,0.8,0.2,1.2,0.3l0,0c-0.2,0-0.4,0.1-0.5,0.1c0,0,0,0-0.1,0C50.5,11.1,50.3,11,50.1,10.8
		L50.1,10.8z"/>
	<path class="st2" d="M49.7,10.6c-0.3-0.2-0.6-0.5-0.9-0.7l0,0c0.2,0,0.3,0.1,0.5,0.1c0,0,0.1,0,0.1,0.1
		C49.6,10.1,49.7,10.3,49.7,10.6C49.7,10.5,49.7,10.5,49.7,10.6z"/>
	<path class="st2" d="M49.9,11c0,0.1,0,0.3,0,0.4c0,0.2-0.1,0.3-0.3,0.4c-0.1,0-0.2,0.1-0.3,0.2C49.5,11.7,49.6,11.3,49.9,11
		C49.8,11,49.9,11,49.9,11z"/>
	<path class="st2" d="M50.5,12c-0.1-0.1-0.3-0.2-0.4-0.3c0,0,0,0,0-0.1c0-0.2,0-0.4,0-0.7C50.2,11.3,50.3,11.7,50.5,12L50.5,12z"/>
	<path class="st2" d="M50,9.4c0.1,0.1,0.1,0.2,0.2,0.3c0.1,0.1,0.1,0.3,0,0.4c-0.1,0.1-0.2,0.2-0.3,0.4C49.9,10.1,50,9.7,50,9.4z"/>
	<path class="st2" d="M49.8,10.5c0-0.1-0.1-0.2-0.1-0.4c-0.2-0.3,0-0.5,0.2-0.8C49.9,9.8,49.9,10.1,49.8,10.5
		C49.9,10.5,49.8,10.5,49.8,10.5z"/>
	<path class="st2" d="M50.1,10.6c0.3-0.2,0.6-0.5,0.9-0.7l0,0c-0.1,0.2-0.2,0.3-0.2,0.5l0,0C50.6,10.5,50.4,10.6,50.1,10.6
		L50.1,10.6z"/>
	<path class="st2" d="M49.3,12.2c0.4,0,0.4,0,0.5,0.2C49.5,12.5,49.4,12.5,49.3,12.2z"/>
	<path class="st2" d="M50.8,12.5c-0.3,0.1-0.5,0-0.5-0.2C50.5,12.2,50.6,12.2,50.8,12.5z"/>
	<path class="st2" d="M48.8,12.4c-0.1,0-0.2,0-0.3,0s-0.1-0.1-0.1-0.1s0.1-0.1,0.2-0.1C48.7,12.3,48.8,12.3,48.8,12.4L48.8,12.4z"/>
	<path class="st1" d="M50.3,14.3c0.2,0,0.3,0,0.5,0c0.1,0,0.1,0.1,0.1,0.2l-0.1,0.1c-0.1,0-0.2,0-0.3-0.1c0,0-0.1,0-0.1-0.1
		C50.4,14.4,50.4,14.4,50.3,14.3L50.3,14.3z"/>
</g>
<polygon class="st0" points="27.9,63.4 27.9,66.4 37.9,66.4 37.9,63.4 40.8,63.4 40.8,69.4 25.1,69.4 25.1,63.4 "/>
<polygon class="st0" points="62.2,63.4 62.2,66.4 72.2,66.4 72.2,63.4 75,63.4 75,69.4 59.3,69.4 59.3,63.4 "/>
<rect x="48.5" y="74.5" class="st0" width="3.2" height="19.3"/>
</svg>
