<svg id="Layer_1" data-name="Layer 1" xmlns="http://www.w3.org/2000/svg" viewBox="0 0 39 40"><defs><style>.cls-1{fill:#fff;}</style></defs><title>ico-ready</title><path class="cls-1" d="M19.72,45a1.07,1.07,0,0,1-.89-.4,1.52,1.52,0,0,1-.39-.91V31.77H6.78a1.07,1.07,0,0,1-.89-.4,1.31,1.31,0,0,1-.39-1V19.55a1.32,1.32,0,0,1,1.28-1.31H18.44V6.31A1.32,1.32,0,0,1,19.72,5H30.28a1.07,1.07,0,0,1,.89.4,1.52,1.52,0,0,1,.39.91V18.23H43.22a1.07,1.07,0,0,1,.89.4,1.52,1.52,0,0,1,.39.91V30.35a1.32,1.32,0,0,1-1.28,1.31H31.57V43.59a1.32,1.32,0,0,1-1.28,1.31Zm0-16a1.07,1.07,0,0,1,.89.4,1.52,1.52,0,0,1,.39.91V42.27h8V30.35A1.32,1.32,0,0,1,30.28,29H41.93V20.86H30.28a1.07,1.07,0,0,1-.89-.4,1.52,1.52,0,0,1-.39-.91V7.63H21V19.55a1.32,1.32,0,0,1-1.28,1.31H8.07V29Z" transform="translate(-5.5 -5)"/></svg>