<svg id="Layer_1" data-name="Layer 1" xmlns="http://www.w3.org/2000/svg" viewBox="0 0 39.47 33.31"><defs><style>.cls-1{fill:#0357a3;}</style></defs><title>ico-community</title><path class="cls-1" d="M21.77,41.65a1.23,1.23,0,0,1-.88-.36l-11-9H6.51a1.24,1.24,0,1,1,0-2.48h3.95a1.24,1.24,0,0,1,.88.36l11,9H36a.32.32,0,0,0,.32-.32c0-.2-.34-.31-.5-.34L23.49,35.81a1.24,1.24,0,0,1-.71-.35l-5-5,.07-.22-.15.14a2.72,2.72,0,0,1,3.93-3.77l3.57,3.57a.47.47,0,1,0,.66-.66l-9.43-9.43h-10a1.24,1.24,0,1,1,0-2.48H17a1.23,1.23,0,0,1,.88.36l9.79,9.79A2.94,2.94,0,0,1,23.57,32L23.49,32l-3.57-3.57a.25.25,0,0,0-.35,0,.25.25,0,0,0,0,.35l4.67,4.67,12,2.66a2.89,2.89,0,0,1,2.63,2.79,2.8,2.8,0,0,1-2.8,2.8Z" transform="translate(-5.27 -8.35)"/><path class="cls-1" d="M33.84,28.58a1.23,1.23,0,0,1-.87-.36l-1.33-1.33c-5-4.46-8.68-7.68-8.68-12A6.48,6.48,0,0,1,29.5,8.35a7,7,0,0,1,4.34,1.55,7,7,0,0,1,4.35-1.55,6.48,6.48,0,0,1,6.55,6.55c0,4.32-3.65,7.55-8.69,12l-1.32,1.32A1.23,1.23,0,0,1,33.84,28.58ZM29.5,10.82a4,4,0,0,0-4.07,4.07c0,3.06,2.85,5.72,7.88,10.17l.53.53.48-.48c5.09-4.5,7.93-7.17,7.94-10.23a4,4,0,0,0-4.07-4.07,4.57,4.57,0,0,0-3.4,1.59,1.24,1.24,0,0,1-1.89,0A4.57,4.57,0,0,0,29.5,10.82Z" transform="translate(-5.27 -8.35)"/></svg>