<?xml version="1.0" encoding="utf-8"?>
<!-- Generator: Adobe Illustrator 21.1.0, SVG Export Plug-In . SVG Version: 6.00 Build 0)  -->
<svg version="1.1" id="Layer_1" xmlns="http://www.w3.org/2000/svg" xmlns:xlink="http://www.w3.org/1999/xlink" x="0px" y="0px"
	 viewBox="0 0 20 20" style="enable-background:new 0 0 20 20;" xml:space="preserve">
<style type="text/css">
	.st0{fill:#0857A4;}
</style>
<g>
	<g>
		<path class="st0" d="M14.2,9.2h-0.6c-0.1,0-0.2,0-0.3,0.1c-0.1,0.1-0.1,0.2-0.1,0.3v3.3c0,0.5-0.2,0.8-0.5,1.2
			c-0.3,0.3-0.7,0.5-1.2,0.5H3c-0.5,0-0.8-0.2-1.2-0.5c-0.3-0.3-0.5-0.7-0.5-1.2V4.3c0-0.5,0.2-0.8,0.5-1.2C2,2.9,2.5,2.7,3,2.7h7.3
			c0.1,0,0.2,0,0.3-0.1c0.1-0.1,0.1-0.2,0.1-0.3V1.7c0-0.1,0-0.2-0.1-0.3c-0.1-0.1-0.2-0.1-0.3-0.1H3c-0.8,0-1.5,0.3-2.1,0.8
			C0.3,2.8,0,3.5,0,4.3v8.6c0,0.8,0.3,1.5,0.8,2.1c0.6,0.6,1.3,0.8,2.1,0.8h8.6c0.8,0,1.5-0.3,2.1-0.8c0.6-0.6,0.8-1.3,0.8-2.1V9.6
			c0-0.1,0-0.2-0.1-0.3C14.3,9.3,14.3,9.2,14.2,9.2z"/>
		<path class="st0" d="M18.3,0.2C18.2,0.1,18,0,17.9,0h-5.3c-0.2,0-0.4,0.1-0.5,0.2s-0.2,0.3-0.2,0.5c0,0.2,0.1,0.4,0.2,0.5L14,3
			L7.2,9.7C7.1,9.8,7,9.8,7,9.9c0,0.1,0,0.2,0.1,0.3l1.2,1.2c0.1,0.1,0.2,0.1,0.3,0.1c0.1,0,0.2,0,0.3-0.1l6.8-6.8l1.9,1.9
			c0.1,0.1,0.3,0.2,0.5,0.2s0.4-0.1,0.5-0.2c0-0.2,0.1-0.3,0.1-0.5V0.6C18.5,0.5,18.4,0.4,18.3,0.2z"/>
	</g>
</g>
</svg>
