<?xml version="1.0" encoding="utf-8"?>
<!-- Generator: Adobe Illustrator 21.1.0, SVG Export Plug-In . SVG Version: 6.00 Build 0)  -->
<svg version="1.1" id="Layer_1" xmlns="http://www.w3.org/2000/svg" xmlns:xlink="http://www.w3.org/1999/xlink" x="0px" y="0px"
	 viewBox="0 0 80.8 89" style="enable-background:new 0 0 80.8 89;" xml:space="preserve">
<style type="text/css">
	.st0{fill:#444444;}
</style>
<title>ico-claims</title>
<path class="st0" d="M64.8,6.4L37.8,32.6c-0.2,0.2-0.4,0.5-0.5,0.8l-2.5,9.7c-0.2,0.6,0,1.3,0.5,1.8c0.4,0.3,0.8,0.5,1.3,0.5
	c0.2,0,0.3,0,0.5-0.1l9.7-2.5c0.3-0.1,0.6-0.2,0.8-0.5l26.9-26.2c0,0,0,0,0,0l0,0l5.9-5.9c0.7-0.7,0.7-1.9,0-2.6l-7.2-7.2
	C72.9,0.2,72.5,0,72,0c-0.5,0-1,0.2-1.3,0.5L64.8,6.4C64.8,6.4,64.8,6.4,64.8,6.4L64.8,6.4L64.8,6.4z M45.3,39.4L39.2,41l1.6-6.1
	l25.3-24.5l4.5,4.5L45.3,39.4z M72,4.5L76.5,9l-3.3,3.3l-4.5-4.5L72,4.5z M72,4.5"/>
<path class="st0" d="M63.4,23.8c-1,0-1.8,0.8-1.8,1.8v59.2H3.7V14.4h55.6c1,0,1.8-0.8,1.8-1.8c0-1-0.8-1.8-1.8-1.8H1.8
	c-1,0-1.8,0.8-1.8,1.8v74.2c0,1,0.8,1.8,1.8,1.8h61.5c1,0,1.8-0.8,1.8-1.8V25.7C65.2,24.6,64.4,23.8,63.4,23.8L63.4,23.8z
	 M63.4,23.8"/>
<rect x="10.8" y="51.9" class="st0" width="43.8" height="3.8"/>
<rect x="10.8" y="61.8" class="st0" width="43.8" height="3.8"/>
<rect x="10.8" y="71.4" class="st0" width="43.8" height="3.8"/>
</svg>
