<?xml version="1.0" encoding="utf-8"?>
<!-- Generator: Adobe Illustrator 23.0.1, SVG Export Plug-In . SVG Version: 6.00 Build 0)  -->
<svg version="1.1" id="Layer_1" xmlns="http://www.w3.org/2000/svg" xmlns:xlink="http://www.w3.org/1999/xlink" x="0px" y="0px"
	 viewBox="0 0 454 454" style="enable-background:new 0 0 454 454;" xml:space="preserve">
<style type="text/css">
	.st0{fill:#FFFFFF;}
</style>
<title>ico-profile</title>
<path class="st0" d="M226.4,0C101.7,0,0,101.7,0,226.4S101.7,454,226.4,454S454,351.2,454,226.4S352.3,0,226.4,0z M126.04,396.58
	l53.8-29.33c12.44-6.74,20.11-19.8,20.11-33.89v-28.4c0,0-1.55-1.87-3.63-4.46c-2.07-2.59-14.1-13.16-19.18-26.95l-1.45-6.32
	c0,0-11.71-12.75-14.3-18.55c-2.59-5.8-2.28-20.94,0-24.77s13.79-13.68,13.79-13.68v-49.34l-0.1-1.35c0-0.1-1.35-13.27,7.57-23.43
	c8.29-9.54,23.43-14.3,44.67-14.3s36.28,4.77,44.67,14.2c9.02,10.16,7.67,23.63,7.67,24.67l-0.1,50.17c0,0,8.08,7.67,10.99,13.16
	c2.9,5.49,2.38,18.35,0,24.77s-14.72,17.72-14.72,17.72l-2.59,7.88c-8.19,16.38-18.66,23.43-20.73,25.81
	c-2.07,2.38-4.04,4.56-4.04,4.56v29.23c0,14.62,8.29,27.99,21.35,34.52l56.7,28.5C264.63,433.48,187.82,433.37,126.04,396.58z
	 M354.18,377.19L281,337.81c-2.28-1.14-3.63-3.42-3.63-5.91v-17.62c0.83-1.14,16.27-14.82,24.15-36.38
	c7.26-9.43,18.55-17.1,18.55-29.23v-24.77c0-7.05-4.46-13.89-8.5-19.59v-41.46c0.41-4.56,1.87-28.19-15.34-47.78
	c-14.62-16.79-37.83-25.19-68.72-25.19s-54.11,8.5-68.72,25.19c-17.21,19.59-15.86,43.33-15.44,46.95v42.39
	c-4.04,5.8-10.47,12.65-10.47,19.59v24.77c0,9.33,7.98,18.14,14.62,24.67c5.18,22.18,18.45,31.41,23.84,39.08l-0.31,20.73
	c0,2.38-1.35,4.66-3.42,5.8L98.99,377.3c-42.39-36.38-69.24-90.18-69.24-149.78c0-107.8,88.83-197.77,196.63-197.77
	s196.63,88.83,196.63,197.77C423.11,285.05,398.03,339.77,354.18,377.19z"/>
</svg>
