<svg id="Layer_1" data-name="Layer 1" xmlns="http://www.w3.org/2000/svg" viewBox="0 0 33.52 39.21"><defs><style>.cls-1{fill:#1057a7;}</style></defs><title>ico-mental-health-blue</title><path class="cls-1" d="M33.42,6.78A18,18,0,0,0,20.16.39c-4.3,0-8.4,1.8-12.17,5.35l0,0C4.29,9.54,4.77,13,5.38,17.47l.11.83c.1.75-.56,1.91-1.19,3-1,1.69-1.95,3.43-.74,4.26C5.63,27,6,29.77,6.33,32.45c.08.64.17,1.3.27,1.94C6.79,35.49,7.72,36,9.46,36a21.36,21.36,0,0,0,2.39-.19,17.38,17.38,0,0,1,1.84-.15,2.69,2.69,0,0,1,.69.07c1.26.34,2.42,2,3.29,3.84H31c1.16,0-.2-6.85-.27-7.06-.94-2.95,1-5.83,2.74-8.37a25,25,0,0,0,2-3.19C37.7,16.23,36.08,10.12,33.42,6.78ZM24.89,8.63,26,7.51a1,1,0,1,1,1.4,1.4L26.29,10a1,1,0,0,1-1.4-1.4ZM19.28,5.54a1,1,0,1,1,2,0V7.12a1,1,0,0,1-2,0Zm-6.15,2a1,1,0,0,1,1.4,0l1.12,1.12a1,1,0,0,1-1.4,1.4L13.12,8.91A1,1,0,0,1,13.12,7.51Zm-2,8.12a1,1,0,1,1,0-2h1.58a1,1,0,0,1,0,2Zm4.48,5-1.12,1.12a1,1,0,0,1-1.4-1.4l1.12-1.12a1,1,0,0,1,1.4,1.4Zm5.61,3.09a1,1,0,1,1-2,0V22.18a1,1,0,1,1,2,0Zm-1-4.05a5.06,5.06,0,1,1,5.06-5.06A5.06,5.06,0,0,1,20.26,19.71Zm7.14,2.08a1,1,0,0,1-1.4,0l-1.12-1.12a1,1,0,0,1,1.4-1.4L27.4,20.4A1,1,0,0,1,27.4,21.79Zm2-6.15H27.8a1,1,0,1,1,0-2h1.58a1,1,0,1,1,0,2Z" transform="translate(-3 -0.39)"/></svg>