<svg id="Layer_1" data-name="Layer 1" xmlns="http://www.w3.org/2000/svg" viewBox="0 0 39.06 36.95"><title>ico-key</title><path d="M34.46,27.38q.5.53.89.93t.85.77a1.34,1.34,0,0,0,.66.37q.4,0,1.53-1.14t1.14-1.53q0-.19-.66-1T37.18,24q-1-1-2-2l-1.9-1.85-1.07-1a.73.73,0,0,0-.53-.23q-.39,0-1.53,1.14T29,21.58a1.34,1.34,0,0,0,.37.66q.37.45.77.85l.93.89.6.57-2.23,2.23L21.2,18.54a14,14,0,0,0,3-8.47A8.34,8.34,0,0,0,21.86,3.9a8.34,8.34,0,0,0-6.16-2.38,13.62,13.62,0,0,0-7.27,2.2A17.64,17.64,0,0,0,2.67,9.49,13.62,13.62,0,0,0,.47,16.75a8.34,8.34,0,0,0,2.38,6.16A8.34,8.34,0,0,0,9,25.29a14,14,0,0,0,8.47-3L33.06,37.83a2.15,2.15,0,0,0,1.58.65,3.16,3.16,0,0,0,2.79-2.79,2.15,2.15,0,0,0-.65-1.58L31.66,29l2.23-2.23.57.6Zm-16-13.79a4.3,4.3,0,0,1-3.16,1.3,4.54,4.54,0,0,1-1.93-.44,4.54,4.54,0,0,1,.44,1.93,4.44,4.44,0,0,1-4.46,4.46,4.44,4.44,0,0,1-4.46-4.46,4.44,4.44,0,0,1,4.46-4.46,4.54,4.54,0,0,1,1.93.44,4.54,4.54,0,0,1-.44-1.93A4.44,4.44,0,0,1,15.32,6a4.44,4.44,0,0,1,4.46,4.46,4.3,4.3,0,0,1-1.3,3.16Zm0,0" transform="translate(-0.47 -1.52)"/></svg>