<?xml version="1.0" encoding="utf-8"?>
<!-- Generator: Adobe Illustrator 22.1.0, SVG Export Plug-In . SVG Version: 6.00 Build 0)  -->
<svg version="1.1" id="Layer_1" xmlns="http://www.w3.org/2000/svg" xmlns:xlink="http://www.w3.org/1999/xlink" x="0px" y="0px"
	 width="460px" height="478.9px" viewBox="0 0 460 478.9" style="enable-background:new 0 0 460 478.9;" xml:space="preserve">
<style type="text/css">
	.st0{fill:#FFFFFF;}
</style>
<title>ico-home</title>
<path class="st0" d="M213.7,172.4c-1.3,1.3-2.2,2.8-2.6,4.5l-13.6,60.3c-0.9,3.4,0.1,7.1,2.6,9.6c1.9,1.9,4.4,2.9,7.1,2.9
	c0.8,0,1.7-0.1,2.5-0.3l60.3-13.6c1.7-0.4,3.3-1.3,4.5-2.6L448.2,63.8c3.9-3.9,3.9-10.2,0-14.1L401.5,2.9C399.6,1,397.1,0,394.4,0
	c-2.6,0-5.2,1-7.1,2.9L213.7,172.4z M258.4,213.2l-33.2,8.6l8.6-33.2L366.6,59.9l24.6,24.6L258.4,213.2z M394.4,32.1L420,56.7
	l-14.7,13.7l-24.6-24.6L394.4,32.1z"/>
<path class="st0" d="M355.9,128.9c-5.5,0-22,7.5-22,13v305.6H45V90h289c5.5,0,10-16.5,10-22s-4.5-10-10-10H23c-5.5,0-10,4.5-10,10
	v401.4c0,5.5,4.5,10,10,10h332.9c5.5,0,10-4.5,10-10V141.9C365.9,136.4,361.4,128.9,355.9,128.9L355.9,128.9z"/>
<rect x="71.2" y="272.6" class="st0" width="236.9" height="28.8"/>
<rect x="71.2" y="326.6" class="st0" width="236.9" height="28.8"/>
<rect x="71.2" y="378.6" class="st0" width="236.9" height="28.8"/>
</svg>
