<?xml version="1.0" encoding="utf-8"?>
<!-- Generator: Adobe Illustrator 22.1.0, SVG Export Plug-In . SVG Version: 6.00 Build 0)  -->
<svg version="1.1" id="Layer_1" xmlns="http://www.w3.org/2000/svg" xmlns:xlink="http://www.w3.org/1999/xlink" x="0px" y="0px"
	 width="454px" height="454px" viewBox="0 0 454 454" style="enable-background:new 0 0 454 454;" xml:space="preserve">
<style type="text/css">
	.st0{fill:#FFFFFF;}
</style>
<title>ico-profile</title>
<path class="st0" d="M226.4,0C101.7,0,0,101.7,0,226.4S101.7,454,226.4,454S454,351.2,454,226.4S352.3,0,226.4,0z M129.6,390.6
	l51.9-28.3c12-6.5,19.4-19.1,19.4-32.7v-27.4c0,0-1.5-1.8-3.5-4.3s-13.6-12.7-18.5-26l-1.4-6.1c0,0-11.3-12.3-13.8-17.9
	s-2.2-20.2,0-23.9s13.3-13.2,13.3-13.2v-47.6l-0.1-1.3c0-0.1-1.3-12.8,7.3-22.6c8-9.2,22.6-13.8,43.1-13.8s35,4.6,43.1,13.7
	c8.7,9.8,7.4,22.8,7.4,23.8l-0.1,48.4c0,0,7.8,7.4,10.6,12.7s2.3,17.7,0,23.9s-14.2,17.1-14.2,17.1l-2.5,7.6
	c-7.9,15.8-18,22.6-20,24.9s-3.9,4.4-3.9,4.4v28.2c0,14.1,8,27,20.6,33.3L323,391C263.3,426.2,189.2,426.1,129.6,390.6z
	 M349.7,371.9l-70.6-38c-2.2-1.1-3.5-3.3-3.5-5.7v-17c0.8-1.1,15.7-14.3,23.3-35.1c7-9.1,17.9-16.5,17.9-28.2V224
	c0-6.8-4.3-13.4-8.2-18.9v-40c0.4-4.4,1.8-27.2-14.8-46.1c-14.1-16.2-36.5-24.3-66.3-24.3s-52.2,8.2-66.3,24.3
	c-16.6,18.9-15.3,41.8-14.9,45.3v40.9c-3.9,5.6-10.1,12.2-10.1,18.9V248c0,9,7.7,17.5,14.1,23.8c5,21.4,17.8,30.3,23,37.7l-0.3,20
	c0,2.3-1.3,4.5-3.3,5.6L103.5,372c-40.9-35.1-66.8-87-66.8-144.5c0-104,85.7-190.8,189.7-190.8s189.7,85.7,189.7,190.8
	C416.2,283,392,335.8,349.7,371.9z"/>
</svg>
