<?xml version="1.0" encoding="utf-8"?>
<!-- Generator: Adobe Illustrator 22.1.0, SVG Export Plug-In . SVG Version: 6.00 Build 0)  -->
<svg version="1.1" id="Layer_2_1_" xmlns="http://www.w3.org/2000/svg" xmlns:xlink="http://www.w3.org/1999/xlink" x="0px" y="0px"
	 width="39.3px" height="39.3px" viewBox="0 0 39.3 39.3" style="enable-background:new 0 0 39.3 39.3;" xml:space="preserve">
<title>ico-close-black</title>
<g>
	<path d="M33.1,6.2c-3.6-3.6-8.4-5.6-13.4-5.6c-5.1,0-9.8,2-13.4,5.6s-5.6,8.4-5.6,13.4c0,5.1,2,9.8,5.6,13.4
		c3.6,3.6,8.4,5.6,13.4,5.6c5.1,0,9.8-2,13.4-5.6s5.6-8.4,5.6-13.4C38.7,14.6,36.7,9.8,33.1,6.2L33.1,6.2z M31.6,31.6
		c-3.2,3.2-7.4,4.9-11.9,4.9S11,34.7,7.8,31.6C1.2,25,1.2,14.3,7.8,7.8c3.2-3.2,7.4-4.9,11.9-4.9s8.7,1.8,11.9,4.9
		C38.1,14.3,38.1,25,31.6,31.6L31.6,31.6z"/>
	<path d="M28,11.3c-0.4-0.4-1.1-0.4-1.5,0l-6.8,6.8l-6.8-6.8c-0.4-0.4-1.1-0.4-1.5,0s-0.4,1.1,0,1.5l6.8,6.8l-6.8,6.8
		c-0.4,0.4-0.4,1.1,0,1.5c0.2,0.2,0.5,0.3,0.8,0.3s0.6-0.1,0.8-0.3l6.8-6.8l6.8,6.8c0.2,0.2,0.5,0.3,0.8,0.3s0.6-0.1,0.8-0.3
		c0.4-0.4,0.4-1.1,0-1.5l-6.8-6.8l6.8-6.8C28.5,12.4,28.5,11.7,28,11.3L28,11.3z"/>
</g>
</svg>
