<?xml version="1.0" encoding="utf-8"?>
<!-- Generator: Adobe Illustrator 21.1.0, SVG Export Plug-In . SVG Version: 6.00 Build 0)  -->
<svg version="1.1" id="Layer_1" xmlns="http://www.w3.org/2000/svg" xmlns:xlink="http://www.w3.org/1999/xlink" x="0px" y="0px"
	 viewBox="0 0 512 512" style="enable-background:new 0 0 512 512;" xml:space="preserve">
<style type="text/css">
	.st0{fill:#444444;}
</style>
<g>
	<g>
		<path class="st0" d="M480.5,202.9h-21.4c-1.5-30.3-10.2-98-57.4-147.4C366.5,18.7,317.5,0,256,0S145.5,18.7,110.3,55.5
			c-47.2,49.3-56,117-57.4,147.4H31.5v149.3h47.6c3.1,11.6,7.7,25.1,14.3,39.1c22.9,47.9,60.6,79.7,109.4,92.4V512h106.4v-28.4
			c48.8-12.8,86.5-44.5,109.4-92.4c6.7-13.9,11.2-27.5,14.3-39.1h47.6V202.9L480.5,202.9z M131.9,76.2C161.3,45.6,203,30,256,30
			c52.9,0,94.6,15.5,123.9,46.1c39.5,41.1,47.6,99.9,49.1,126.8H82.9C84.4,176.1,92.4,117.5,131.9,76.2z M279.2,482h-46.4v-16.7
			h46.4V482z M391.5,378.3c-18,37.6-45.6,62.5-82.3,74.2v-17.1H202.8v17.1c-36.4-11.6-63.9-36.1-81.9-73.3
			c-12.8-26.5-16.9-51.7-18-61l4.1-8H405l4.1,8.1C408,327.3,404.1,351.9,391.5,378.3z M450.5,322.1L450.5,322.1h-5.9L423.5,280h-335
			l-21.2,42.1h-5.9v-89.3h389.1V322.1z"/>
	</g>
</g>
<g>
	<g>
		<polygon class="st0" points="294.8,116.3 268,112.4 256,88.1 244,112.4 217.2,116.3 236.6,135.2 232,161.9 256,149.3 280,161.9 
			275.4,135.2 		"/>
	</g>
</g>
</svg>
