<?xml version="1.0" encoding="utf-8"?>
<!-- Generator: Adobe Illustrator 21.1.0, SVG Export Plug-In . SVG Version: 6.00 Build 0)  -->
<svg version="1.1" id="Layer_2" xmlns="http://www.w3.org/2000/svg" xmlns:xlink="http://www.w3.org/1999/xlink" x="0px" y="0px"
	 viewBox="0 0 39.3 39.3" style="enable-background:new 0 0 39.3 39.3;" xml:space="preserve">
<style type="text/css">
	.st0{fill:#FFFFFF;}
	.st1{fill:#B2B2B2;}
</style>
<title>ico-close-black</title>
<path class="st0" d="M19.7,0C8.8,0,0,8.8,0,19.6c0,10.9,8.8,19.7,19.6,19.7c10.9,0,19.7-8.8,19.7-19.6c0,0,0,0,0-0.1
	C39.3,8.8,30.5,0,19.7,0z M19.7,36.8c-9.5,0-17.2-7.6-17.2-17.1S10.2,2.5,19.6,2.5s17.2,7.6,17.2,17.1c0,0,0,0,0,0
	C36.8,29.1,29.1,36.7,19.7,36.8z"/>
<path class="st0" d="M28.1,14.3L25,11.2c0,0-5,5.3-5.3,5.3s-5.3-5.3-5.3-5.3l-3.1,3.1c0,0,5.3,4.9,5.3,5.3S11.2,25,11.2,25l3.1,3.1
	c0,0,5-5.3,5.3-5.3s5.3,5.3,5.3,5.3l3.1-3.1c0,0-5.3-5-5.3-5.3S28.1,14.3,28.1,14.3z"/>
<path class="st1" d="M19.7,2.5c-9.5,0-17.2,7.6-17.2,17.1s7.6,17.2,17.1,17.2s17.2-7.6,17.2-17.1c0,0,0,0,0,0
	C36.8,10.2,29.1,2.5,19.7,2.5z M28.1,25L25,28.1c0,0-5-5.3-5.3-5.3s-5.3,5.3-5.3,5.3L11.2,25c0,0,5.3-4.9,5.3-5.3s-5.3-5.3-5.3-5.3
	l3.1-3.1c0,0,5,5.3,5.3,5.3s5.3-5.3,5.3-5.3l3.1,3.1c0,0-5.3,5-5.3,5.3S28.1,25,28.1,25L28.1,25z"/>
</svg>
