<svg id="Layer_1" data-name="Layer 1" xmlns="http://www.w3.org/2000/svg" viewBox="0 0 76.04 76.04"><defs><style>.cls-1{fill:#1c4075;}.cls-2{fill:#fff;}</style></defs><title>ico-edit-hover</title><path class="cls-1" d="M45.35,7.33a38,38,0,1,0,38,38A38.06,38.06,0,0,0,45.35,7.33Z" transform="translate(-7.33 -7.33)"/><path d="M45.36,45.36" transform="translate(-7.33 -7.33)"/><path class="cls-2" d="M64,32.4l-5.66-5.66a1.06,1.06,0,0,0-1.5,0L28.56,55l0,0a1.39,1.39,0,0,0-.64.88l-1.49,6.67a1.39,1.39,0,0,0,1.35,1.69,1.36,1.36,0,0,0,.3,0l6.68-1.49a1.39,1.39,0,0,0,.88-.64l0,0,1.75-1.75-7.16-7.16L33,50.53l7.16,7.16L57.73,40.13,50.58,33l2.71-2.71,7.16,7.16L64,33.9A1.06,1.06,0,0,0,64,32.4Z" transform="translate(-7.33 -7.33)"/></svg>