<?xml version="1.0" encoding="utf-8"?>
<!-- Generator: Adobe Illustrator 23.0.1, SVG Export Plug-In . SVG Version: 6.00 Build 0)  -->
<svg version="1.1" id="Layer_1" xmlns="http://www.w3.org/2000/svg" xmlns:xlink="http://www.w3.org/1999/xlink" x="0px" y="0px"
	 viewBox="0 0 596 478.9" style="enable-background:new 0 0 596 478.9;" xml:space="preserve">
<style type="text/css">
	.st0{fill:#FFFFFF;}
</style>
<title>ico-home</title>
<path class="st0" d="M51.96,457.22c-11.9,0-23.13-4.68-31.64-13.19c-8.51-8.51-13.19-19.74-13.19-31.64V66.51
	c0-11.9,4.68-23.13,13.19-31.64l0.14-0.14c7.77-8.41,18.69-13.05,30.77-13.05H544.4c11.9,0,23.13,4.68,31.64,13.19
	c8.68,8.68,13.11,19.82,12.47,31.36l-0.01,0.14v346.75c0,24.32-19.78,44.1-44.1,44.1H51.96z M51.23,51.25
	c-7.74,0-14.53,7.13-14.53,15.26v345.88c0,7.87,6.65,14.53,14.53,14.53H544.4c7.87,0,14.53-6.65,14.53-14.53V65.05
	c0-7.73-6.38-13.79-14.53-13.79H51.23z"/>
<path class="st0" d="M186.45,225.66l5.48-2.12l5.47,2.12H186.45z M184.37,217.27c-16.66-7.14-32.91-12.89-48.29-17.08l-0.95-0.26
	l-0.98,0.12c-0.09,0.01-0.2,0.01-0.31,0.01c-0.21,0-0.43-0.01-0.67-0.03c5.22-1.79,11.16-4.04,17.46-6.46
	c3.33-1.28,6.21-2.38,7.7-2.88c3.03-1.01,4.08-3.6,3.77-5.73c-0.65-4.48-4.77-4.7-10.48-5.02c-3.63-0.2-8.56-0.36-14.26-0.55
	c-8.6-0.28-22.91-0.75-33.68-1.65c4.49-0.84,9.23-1.46,12.77-1.46c3.94,0,6.85-1.19,8.66-3.54c2.85-3.69,1.67-8.24,0.71-11.89
	c-0.33-1.28-0.71-2.74-0.71-3.5c0-1.17-0.26-2.23-0.71-3.22c1.89,0.6,3.88,0.98,5.96,0.98c0.7,0,1.41-0.04,2.09-0.13
	c11.41-1.43,14.64-4.98,18.6-10.68c0.5-0.71,1.03-1.47,1.63-2.28c2.29-3.05,3.46-7.36,4.7-11.92c1.32-4.87,2.96-10.88,5.77-12.84
	c0.63,0.43,1.51,1.23,2.1,1.76c1.97,1.78,4.2,3.79,7.25,3.79c0.4,0,0.8-0.04,1.2-0.11c7.73-1.08,8.39-7.2,8.84-11.26
	c0.2-1.84,0.43-3.93,1.04-6.38c0.21-0.83,0.76-3.05,5.95-3.05c1.28,0,2.22,0.16,2.23,0.16l0.43,0.08l0.46,0.01h1.8l0.33-0.04
	c0,0,0,0,0,0c0,0,0.53-0.06,1.31-0.06c2.54,0,5.72,0.52,6.4,3.01c0.6,2.19,0.9,4.12,1.16,5.83c0.67,4.32,1.51,9.69,8.15,11.59
	l0.16,0.04c0.52,0.13,1.06,0.2,1.61,0.2c2.99,0,5.25-1.91,7.24-3.59c0.65-0.55,1.65-1.39,2.31-1.79c2.9,2.29,4.73,8.9,6.08,13.81
	c1.13,4.09,2.12,7.66,3.78,10.23c3.83,8.19,12.04,13.47,21.07,13.54c0.3,0.02,0.6,0.02,0.9,0.02c2.42,0,4.78-0.54,7.02-1.37
	c-0.66,1.1-1.04,2.3-1.04,3.67c0,0.52-0.28,1.79-0.5,2.8c-0.81,3.67-1.91,8.71,1.18,12.55c1.9,2.37,4.84,3.57,8.72,3.57
	c3.55,0,8.29,0.62,12.79,1.46c-10.95,0.91-25.62,1.38-34.41,1.66c-6.01,0.19-11.2,0.36-15.05,0.57c-6.08,0.33-9.76,0.53-10.8,4.54
	c-0.58,2.21,0.39,4.51,2.39,5.71l0.39,0.23l0.43,0.16c0.99,0.37,2.74,1.08,4.97,1.99c6.49,2.64,13.03,5.25,18.87,7.33
	c-0.31,0.04-0.59,0.06-0.83,0.06h-0.67l-0.65,0.18c-15.38,4.19-31.62,9.94-48.29,17.08l-7.56,3.24L184.37,217.27z"/>
<rect x="108.46" y="264.48" class="st0" width="378.38" height="28.8"/>
<rect x="108.81" y="332.98" class="st0" width="378.02" height="28.8"/>
<rect x="320.77" y="162.03" class="st0" width="166.07" height="28.8"/>
</svg>
