<?xml version="1.0" encoding="utf-8"?>
<!-- Generator: Adobe Illustrator 21.1.0, SVG Export Plug-In . SVG Version: 6.00 Build 0)  -->
<svg version="1.1" id="Layer_1" xmlns="http://www.w3.org/2000/svg" xmlns:xlink="http://www.w3.org/1999/xlink" x="0px" y="0px"
	 viewBox="0 0 512 512" style="enable-background:new 0 0 512 512;" xml:space="preserve">
<g>
	<g>
		<path d="M485.1,80.1H291.9c-3.9,0-7.6-1.4-10.5-3.9L246,45.6c-6.8-5.9-15.6-9.1-24.6-9.1h-127c-14.8,0-26.9,12.1-26.9,26.9v36
			H26.9C12.1,99.3,0,111.4,0,126.2v298.4c0,14.8,12.1,26.9,26.9,26.9h390.7c14.8,0,26.9-12.1,26.9-26.9v-35.9h40.6
			c14.8,0,26.9-12.1,26.9-26.9V107C512,92.2,499.9,80.1,485.1,80.1z M423,424.6c0,3-2.4,5.4-5.4,5.4H26.9c-3,0-5.4-2.4-5.4-5.4
			V227.4H423v221.2L423,424.6z M423,205.9H21.5v-79.7c0-3,2.4-5.4,5.4-5.4h126.9c3.9,0,7.6,1.4,10.5,3.9l35.4,30.6
			c6.8,5.9,15.6,9.1,24.6,9.1h193.2c3,0,5.4,2.4,5.4,5.4V205.9z M490.5,361.8c0,3-2.4,5.4-5.4,5.4h-40.6V169.9
			c0-14.8-12.1-26.9-26.9-26.9H224.4c-3.9,0-7.6-1.4-10.5-3.9l-35.4-30.6c-6.8-5.9-15.6-9.1-24.6-9.1H89v-36c0-3,2.4-5.4,5.4-5.4
			h126.9c3.9,0,7.6,1.4,10.5,3.9l35.4,30.6c6.8,5.9,15.6,9.1,24.6,9.1h193.2c3,0,5.4,2.4,5.4,5.4L490.5,361.8L490.5,361.8z"/>
	</g>
</g>
<g>
	<g>
		<path d="M268.4,319H233v-35.4c0-5.9-4.8-10.8-10.8-10.8c-5.9,0-10.8,4.8-10.8,10.8V319h-35.4c-5.9,0-10.8,4.8-10.8,10.8
			s4.8,10.8,10.8,10.8h35.4v35.4c0,5.9,4.8,10.8,10.8,10.8c5.9,0,10.8-4.8,10.8-10.8v-35.4h35.4c5.9,0,10.8-4.8,10.8-10.8
			C279.2,323.8,274.4,319,268.4,319z"/>
	</g>
</g>
</svg>
