<?xml version="1.0" encoding="utf-8"?>
<!-- Generator: Adobe Illustrator 21.1.0, SVG Export Plug-In . SVG Version: 6.00 Build 0)  -->
<svg version="1.1" id="Layer_1" xmlns="http://www.w3.org/2000/svg" xmlns:xlink="http://www.w3.org/1999/xlink" x="0px" y="0px"
	 viewBox="0 0 698.8 512" style="enable-background:new 0 0 698.8 512;" xml:space="preserve">
<style type="text/css">
	.st0{fill:#444444;}
</style>
<g>
	<path class="st0" d="M566.6,233.4H540v-47.8c0-11.5-9.4-20.8-20.8-20.8h-9.7V27.7H204.9V43H182v15.2h-22.9v53.3h-9.7
		c-11.4,0-20.8,9.4-20.8,20.8v332.8h0.1c0,4.3,1.3,8.5,4,12c3.7,4.9,9.4,7.7,15.5,7.7h340.9c8.8,0,16.5-5.9,18.7-13.8l77.8-213.6
		V256C585.7,242.9,577.7,233.4,566.6,233.4z M519.2,180.1c3,0,5.6,2.5,5.6,5.6v47.8h-15.2v-53.3H519.2z M494.3,43v121.9v68.6H225.7
		c-1.8,0-3.5,0.3-5.1,0.8c-0.2,0-0.3,0-0.5,0.1V43H494.3z M204.9,58.2V253l-0.5,1.3l-7.2,19.7V58.2H204.9z M174.4,73.4h7.6v242.3
		l-7.6,20.9V111.5V73.4z M144,132.3c0-3,2.5-5.6,5.6-5.6h9.7v250.9L144,419.2V132.3z M493.3,466.3c-0.5,1.9-2.2,3.2-4.2,3.2H148.3
		c-1.8,0-3-1.1-3.4-1.7c-0.5-0.6-1.2-2-0.9-3.1l15.2-41.9l0,0l22.9-62.6l0,0l22.9-62.6l0,0l3.6-9.8l11.7-32v-0.1l1.4-3.9
		c0.5-1.9,2.2-3.2,4.1-3.2h268.6h15.2H540h26.6c2.9,0,3.7,4.1,3.8,6.2L493.3,466.3z"/>
	<path class="st0" d="M265.8,157.2h182.8c4.2,0,7.6-3.4,7.6-7.6s-3.4-7.6-7.6-7.6H265.8c-4.2,0-7.6,3.4-7.6,7.6
		C258.2,153.8,261.6,157.2,265.8,157.2z"/>
	<path class="st0" d="M265.8,103.9H342c4.2,0,7.6-3.4,7.6-7.6c0-4.2-3.4-7.6-7.6-7.6h-76.2c-4.2,0-7.6,3.4-7.6,7.6
		C258.2,100.5,261.6,103.9,265.8,103.9z"/>
	<path class="st0" d="M265.8,210.5h182.8c4.2,0,7.6-3.4,7.6-7.6c0-4.2-3.4-7.6-7.6-7.6H265.8c-4.2,0-7.6,3.4-7.6,7.6
		C258.2,207.1,261.6,210.5,265.8,210.5z"/>
</g>
</svg>
