<?xml version="1.0" encoding="utf-8"?>
<!-- Generator: Adobe Illustrator 21.1.0, SVG Export Plug-In . SVG Version: 6.00 Build 0)  -->
<svg version="1.1" id="Layer_1" xmlns="http://www.w3.org/2000/svg" xmlns:xlink="http://www.w3.org/1999/xlink" x="0px" y="0px"
	 viewBox="0 0 37.2 39.7" style="enable-background:new 0 0 37.2 39.7;" xml:space="preserve">
<g>
	<g>
		<g>
			<path d="M16,39.7c-2.1,0-3.9-1.7-3.9-3.9v-8c-4.6-2.4-7.5-7.2-7.5-12.4c0-7.7,6.3-14,14-14s14,6.3,14,14c0,5.2-2.9,10-7.5,12.4v8
				c0,2.1-1.7,3.9-3.9,3.9H16z M15.1,36.1c0.1,0.4,0.5,0.7,0.9,0.7h5.2c0.4,0,0.8-0.3,0.9-0.7H15.1z M22.1,33.1V29
				c-1.1,0.3-2.3,0.5-3.5,0.5c-1.2,0-2.4-0.2-3.5-0.5v4.2H22.1z M17.9,26.5c0.2,0,0.5,0,0.7,0c0.3,0,0.5,0,0.7,0
				c-0.1-1.6,0-4.2,1-6.7h-3.4C17.8,22.2,17.9,24.9,17.9,26.5z M18.6,4.4c-6.1,0-11,5-11,11c0,4.7,3,8.9,7.4,10.4
				c0-1.8-0.2-4.7-1.6-6.7c-0.3-0.4-0.4-1-0.1-1.5c0.3-0.5,0.7-0.8,1.3-0.8h8.2c0.5,0,1,0.3,1.3,0.8s0.2,1.1-0.1,1.5
				c-1.4,2-1.6,4.9-1.6,6.7c4.4-1.6,7.4-5.7,7.4-10.4C29.7,9.4,24.7,4.4,18.6,4.4z"/>
			<path d="M4.5,5.9c-0.4,0-0.8-0.2-1-0.4l-3-3c-0.6-0.6-0.6-1.5,0-2.1C0.7,0.2,1.1,0,1.5,0c0.4,0,0.8,0.2,1,0.4l3,3
				c0.3,0.3,0.4,0.6,0.4,1s-0.2,0.8-0.4,1C5.2,5.8,4.9,5.9,4.5,5.9z"/>
			<path d="M32.8,5.9c-0.4,0-0.8-0.2-1-0.4c-0.3-0.3-0.4-0.6-0.4-1s0.2-0.8,0.4-1l3-3C35,0.2,35.4,0,35.8,0c0.4,0,0.8,0.2,1,0.4
				c0.3,0.3,0.4,0.6,0.4,1s-0.2,0.8-0.4,1l-3,3C33.5,5.8,33.2,5.9,32.8,5.9z"/>
			<path d="M35.8,30.9c-0.4,0-0.8-0.2-1-0.4l-3-3c-0.3-0.3-0.4-0.6-0.4-1c0-0.4,0.2-0.8,0.4-1c0.3-0.3,0.6-0.4,1-0.4s0.8,0.2,1,0.4
				l3,3c0.3,0.3,0.4,0.6,0.4,1s-0.2,0.8-0.4,1C36.5,30.8,36.2,30.9,35.8,30.9z"/>
			<path d="M1.5,30.9c-0.4,0-0.8-0.2-1-0.4c-0.6-0.6-0.6-1.5,0-2.1l3-3c0.3-0.3,0.6-0.4,1-0.4c0.4,0,0.8,0.2,1,0.4
				c0.6,0.6,0.6,1.5,0,2.1l-3,3C2.2,30.8,1.8,30.9,1.5,30.9z"/>
		</g>
	</g>
</g>
</svg>
