<?xml version="1.0" encoding="utf-8"?>
<!-- Generator: Adobe Illustrator 21.1.0, SVG Export Plug-In . SVG Version: 6.00 Build 0)  -->
<svg version="1.1" id="Layer_1" xmlns="http://www.w3.org/2000/svg" xmlns:xlink="http://www.w3.org/1999/xlink" x="0px" y="0px"
	 viewBox="0 0 500 500" style="enable-background:new 0 0 500 500;" xml:space="preserve">
<style type="text/css">
	.st0{fill:#0857A4;}
</style>
<path class="st0" d="M86.5,451.1c-32.2,0-58.5-26.5-58.5-59V108.3c0-32.6,26.2-59.1,58.5-59.1h280.9c32.2,0,58.5,15.7,58.5,48.3v0.1
	H404v-0.1c0-14.4-11.6-26.1-25.8-26.1H75.6c-14.2,0-25.8,11.7-25.8,26.1v305.3c0,14.4,11.6,26.1,25.8,26.1h302.6
	c14.2,0,25.8-11.7,25.8-26.1v-0.1h21.8v0.1c0,32.6-26.2,48.3-58.5,48.3H86.5z M389,352.5c-3.6,0-7-1.4-9.5-4.1
	c-2.5-2.6-3.9-6.1-3.9-9.8c0-3.7,1.4-7.2,3.9-9.8l57.4-59.3H191.9c-7.4,0-13.4-6.2-13.4-13.9c0-7.7,6-13.9,13.4-13.9h244.9
	l-57.4-59.3c-2.5-2.6-3.9-6.1-3.9-9.8c0-3.7,1.4-7.2,3.9-9.8c2.5-2.6,5.9-4.1,9.5-4.1s7,1.4,9.5,4.1l79.7,82.4
	c2.7,2.7,4,6.5,3.8,10.5c0.2,3.8-1.2,7.6-3.8,10.3l-79.7,82.4C395.9,351.1,392.5,352.5,389,352.5z"/>
</svg>
