<?xml version="1.0" encoding="utf-8"?>
<!-- Generator: Adobe Illustrator 21.1.0, SVG Export Plug-In . SVG Version: 6.00 Build 0)  -->
<svg version="1.1" id="Layer_1" xmlns="http://www.w3.org/2000/svg" xmlns:xlink="http://www.w3.org/1999/xlink" x="0px" y="0px"
	 viewBox="0 0 400 393.8" style="enable-background:new 0 0 400 393.8;" xml:space="preserve">
<style type="text/css">
	.st0{fill:#FFFFFF;}
</style>
<path class="st0" d="M22.4,268.1c0.8,0,1.7-0.2,2.5-0.4c3.8-1.4,5.8-5.5,4.4-9.3c-23.8-66-8-138.1,41-188.2
	c69.9-71.5,185-72.9,256.5-3l1.1,1.1l-21.9,0.2c-4,0.1-7.2,3.4-7.2,7.4c0.1,4,3.3,7.2,7.3,7.2h0.1l39.4-0.5c1.9,0,3.8-0.8,5.1-2.2
	c1.4-1.4,2.1-3.2,2.1-5.1l-0.5-39.4c-0.1-4-3.3-7.3-7.4-7.2c-4,0.1-7.2,3.4-7.2,7.4l0.2,21.9l-1.1-1.1
	c-77.3-75.5-201.5-74.1-277,3.2c-26.2,26.8-44.1,60.2-51.7,96.8c-7.4,35.5-4.9,72.3,7.4,106.5C16.6,266.2,19.4,268.1,22.4,268.1
	L22.4,268.1z M22.4,268.1"/>
<path class="st0" d="M329.6,323.8c-35.4,36.3-82.6,54.6-129.8,54.5c-45.8,0-91.5-17.1-126.7-51.6l-1.1-1.1l21.9-0.2
	c4-0.1,7.2-3.4,7.2-7.4c-0.1-4-3.3-7.2-7.3-7.2h-0.1l-39.4,0.6c-4,0.1-7.2,3.4-7.2,7.4l0.5,39.4c0.1,4,3.3,7.2,7.3,7.2H55
	c4-0.1,7.2-3.4,7.2-7.4L61.9,336l1.1,1.1c38.1,37.2,87.4,55.7,136.9,55.7c50.9,0,101.8-19.7,140.1-58.9
	c26.2-26.8,44.1-60.2,51.7-96.8c7.4-35.5,4.9-72.3-7.4-106.5c-1.4-3.8-5.5-5.8-9.3-4.4c-3.8,1.4-5.8,5.5-4.4,9.3
	C394.3,201.5,378.6,273.6,329.6,323.8L329.6,323.8z M329.6,323.8"/>
<path class="st0" d="M199.9,84.2c-32.3,0-58.6,26.3-58.6,58.6v29.3h-2.6c-10.4,0-18.9,8.5-18.9,18.9v80.6c0,10.4,8.5,18.9,18.9,18.9
	H261c10.4,0,18.9-8.5,18.9-18.9V191c0-10.4-8.5-18.9-18.9-18.9h-2.6v-29.4C258.6,110.5,232.2,84.2,199.9,84.2L199.9,84.2z
	 M155.8,142.8c0-24.3,19.8-44.1,44.1-44.1c24.3,0,44.1,19.8,44.1,44.1v29.4h-88.2V142.8z M265.4,191v80.6c0,2.4-1.9,4.3-4.3,4.3
	H138.8c-2.4,0-4.3-1.9-4.3-4.3V191c0-2.4,1.9-4.3,4.3-4.3h122.3C263.4,186.7,265.4,188.6,265.4,191L265.4,191z M265.4,191"/>
<path class="st0" d="M202.1,210.4c-5.4-1-11,1.9-13.4,7.1c-2.4,5.3-0.8,11.3,4,14.8c1,0.7,1.2,1.4,1.2,2.5v15.8
	c0,4.4,4.6,7.7,9.2,5.3c1.9-1,3-3.1,3-5.4v-15.8c0-1.1,0.2-1.9,1.3-2.6c3.3-2.4,5-5.8,5-9.8C212.2,216.4,208,211.6,202.1,210.4
	L202.1,210.4z M202.1,210.4"/>
</svg>
