<?xml version="1.0" encoding="utf-8"?>
<!-- Generator: Adobe Illustrator 21.1.0, SVG Export Plug-In . SVG Version: 6.00 Build 0)  -->
<svg version="1.1" id="Layer_1" xmlns="http://www.w3.org/2000/svg" xmlns:xlink="http://www.w3.org/1999/xlink" x="0px" y="0px"
	 viewBox="0 0 118.9 90" style="enable-background:new 0 0 118.9 90;" xml:space="preserve">
<style type="text/css">
	.st0{fill:#FFFFFF;stroke:#010101;stroke-miterlimit:10;}
	.st1{fill:url(#SVGID_1_);}
	.st2{fill:url(#SVGID_2_);}
	.st3{fill:url(#SVGID_3_);}
	.st4{fill:url(#SVGID_4_);}
</style>
<g>
	<path class="st0" d="M106.2,68.3"/>
	<linearGradient id="SVGID_1_" gradientUnits="userSpaceOnUse" x1="51.1872" y1="-8.9306" x2="104.3569" y2="40.3722">
		<stop  offset="0" style="stop-color:#387CC0"/>
		<stop  offset="1" style="stop-color:#05BAB9"/>
	</linearGradient>
	<path class="st1" d="M73.3,0.3c0.6,0,45.6,38.2,45.6,38.2l-13.4,13.4l-57.1-48C48.4,3.9,68.2,0.3,73.3,0.3z"/>
	<linearGradient id="SVGID_2_" gradientUnits="userSpaceOnUse" x1="21.1436" y1="84.0627" x2="72.3798" y2="-5.8425">
		<stop  offset="1.141827e-02" style="stop-color:#FCD127"/>
		<stop  offset="1" style="stop-color:#F8961D"/>
	</linearGradient>
	<path class="st2" d="M45.6,38.5C45.1,38.5,0,76.6,0,76.6L13.4,90l57.1-48C70.5,42,50.7,38.5,45.6,38.5z"/>
	<linearGradient id="SVGID_3_" gradientUnits="userSpaceOnUse" x1="108.1028" y1="83.727" x2="55.5874" y2="31.2116">
		<stop  offset="0" style="stop-color:#E9487B"/>
		<stop  offset="0.8279" style="stop-color:#F9A12E"/>
	</linearGradient>
	<path class="st3" d="M66.8,38.1c5.7,0,7.3-0.4,12,3.6c14.6,12.2,40.1,35.6,40.1,35.6l-14,12.3c0,0-36.9-32.8-52.9-45.9
		c-3.9-3.2-6.4-5.2-6.4-5.2s9.3-0.2,16-0.3C63.7,38.2,65.6,38.1,66.8,38.1z"/>
	<linearGradient id="SVGID_4_" gradientUnits="userSpaceOnUse" x1="57.5205" y1="2.8686" x2="-3.383" y2="52.1715">
		<stop  offset="0" style="stop-color:#8DC641"/>
		<stop  offset="1" style="stop-color:#2AB34B"/>
	</linearGradient>
	<path class="st4" d="M52.1,0c-5.7,0-7.3-0.4-12,3.6C25.5,15.7,0,39.2,0,39.2l14,12.3c0,0,36.9-32.8,52.9-45.9
		c3.9-3.2,6.4-5.2,6.4-5.2s-9.3-0.2-16-0.3C55.2,0,53.4,0,52.1,0z"/>
</g>
</svg>
