<svg id="Layer_1" data-name="Layer 1" xmlns="http://www.w3.org/2000/svg" viewBox="0 0 460.02 478.9"><defs><style>.cls-1{fill:#fff;}</style></defs><title>ico-home</title><path class="cls-1" d="M477.8,191.9a15.74,15.74,0,0,0-6.2-10.6L257.6,13.8a16,16,0,0,0-19.3.1L24.3,181.3A16.32,16.32,0,0,0,21.2,204a16,16,0,0,0,22.5,3.1L248,47,452.4,207a15.83,15.83,0,0,0,9.6,3.2,15.5,15.5,0,0,0,12.7-6.4A15.79,15.79,0,0,0,477.8,191.9Zm-41.1,55-179-144.3a15.76,15.76,0,0,0-19.3,0L59.4,246.8A16.15,16.15,0,0,0,53,259.7V473.3a16.15,16.15,0,0,0,16,16.2H426.9a16.09,16.09,0,0,0,16-16.2V259.7A16.21,16.21,0,0,0,436.7,246.9ZM277,457.1H219V354.6h58Zm134,0H309V338.5a16.07,16.07,0,0,0-16-16.1H203a16.07,16.07,0,0,0-16,16.1V457.2H85V267.7L248,135.9,411,267.7Z" transform="translate(-17.94 -10.6)"/></svg>