<?xml version="1.0" encoding="iso-8859-1"?>
<!-- Generator: Adobe Illustrator 21.1.0, SVG Export Plug-In . SVG Version: 6.00 Build 0)  -->
<svg version="1.1" id="Layer_1" xmlns:serif="http://www.serif.com/"
	 xmlns="http://www.w3.org/2000/svg" xmlns:xlink="http://www.w3.org/1999/xlink" x="0px" y="0px" viewBox="0 0 55.1 54"
	 style="enable-background:new 0 0 55.1 54;" xml:space="preserve">
<g>
	<path style="fill:#F5A623;" d="M27.489,5.915c-12.113,0-22.024,9.911-22.024,22.024s9.911,22.146,22.024,22.146
		s22.146-10.033,22.146-22.146S39.724,5.915,27.489,5.915z M27.489,48.2c-11.137,0-20.261-9.124-20.261-20.261
		S16.352,7.678,27.489,7.678S47.75,16.802,47.75,27.939S38.626,48.2,27.489,48.2z"/>
</g>
<circle style="fill:#F5A623;" cx="27.489" cy="37.972" r="2.08"/>
<path style="fill:#F5A623;" d="M25.654,31.12V16.315c0-0.734,0.734-1.346,1.713-1.346c0.979,0,1.835,0.612,1.835,1.346v14.683
	c0,0.734-0.856,1.346-1.713,1.346C26.632,32.344,25.654,31.854,25.654,31.12z"/>
</svg>
