<?xml version="1.0" encoding="utf-8"?>
<!-- Generator: Adobe Illustrator 21.1.0, SVG Export Plug-In . SVG Version: 6.00 Build 0)  -->
<svg version="1.1" id="Layer_1" xmlns="http://www.w3.org/2000/svg" xmlns:xlink="http://www.w3.org/1999/xlink" x="0px" y="0px"
	 viewBox="0 0 36 41.7" style="enable-background:new 0 0 36 41.7;" xml:space="preserve">
<style type="text/css">
	.st0{fill:#777777;}
</style>
<title>ico-mental-health-blue</title>
<path class="st0" d="M29.3,41.7H15.1L14.8,41c-1-2.1-1.9-3-2.5-3.2c-0.1,0-0.2,0-0.3,0c-0.6,0-1.1,0.1-1.7,0.1
	c-0.8,0.1-1.7,0.2-2.5,0.2l0,0c-3,0-3.9-1.4-4.1-2.7c-0.1-0.7-0.2-1.3-0.3-2c-0.3-2.4-0.6-4.9-2.2-6c-2.2-1.6-0.6-4.4,0.4-6
	c0.4-0.7,0.8-1.4,1-2.2l-0.1-0.8c-0.6-4.6-1.2-8.5,3-12.8C9.4,1.9,13.8,0,18.5,0c5.5,0.2,10.7,2.7,14.2,6.9l0,0
	c2.9,3.6,4.7,10.3,2.2,15.5c-0.6,1.2-1.3,2.3-2.1,3.4c-1.5,2.2-3.3,4.9-2.5,7.2c0,0,1.5,6.4,0.3,8C30.2,41.4,29.8,41.7,29.3,41.7z
	 M16.7,39.2h11.8c-0.1-1.8-0.3-3.7-0.7-5.5c-1.1-3.5,1.1-6.8,2.9-9.4c0.7-1,1.4-2,1.9-3.1c1.9-4.1,0.5-9.7-1.9-12.8
	c-3.1-3.6-7.6-5.8-12.3-5.9c-3.9,0-7.8,1.7-11.3,5c-3.2,3.3-2.8,6.2-2.2,10.6L5,19c0.2,1.1-0.5,2.3-1.3,3.8s-1.2,2.3-1.1,2.6
	c2.6,1.8,3,5.1,3.3,7.8c0.1,0.6,0.2,1.3,0.3,1.9c0,0.1,0.1,0.5,1.6,0.5c0.7,0,1.5-0.1,2.2-0.2c0.7-0.1,1.3-0.1,2-0.2
	c0.3,0,0.7,0,1,0.1C14.3,35.8,15.6,37,16.7,39.2z"/>
<path class="st0" d="M23.2,9.5l1.1-1.1c0.3-0.4,1-0.5,1.4-0.2c0.4,0.3,0.5,1,0.2,1.4c-0.1,0.1-0.1,0.1-0.2,0.2l-1.1,1.1
	c-0.4,0.3-1.1,0.2-1.4-0.2C22.9,10.3,22.9,9.8,23.2,9.5L23.2,9.5z"/>
<path class="st0" d="M17.5,6.4c0-0.6,0.4-1,1-1s1,0.4,1,1V8c0,0.6-0.4,1-1,1s-1-0.4-1-1V6.4z"/>
<path class="st0" d="M11.4,8.4c0.4-0.4,1-0.4,1.4,0l1.1,1.1c0.3,0.4,0.2,1.1-0.2,1.4c-0.4,0.3-0.8,0.3-1.2,0l-1.1-1.1
	C11,9.4,11,8.8,11.4,8.4L11.4,8.4z"/>
<path class="st0" d="M9.4,16.5c-0.6,0-1-0.4-1-1s0.4-1,1-1H11c0.6,0,1,0.4,1,1s-0.4,1-1,1H9.4z"/>
<path class="st0" d="M13.9,21.5l-1.1,1.1c-0.4,0.3-1.1,0.2-1.4-0.2c-0.3-0.4-0.3-0.8,0-1.2l1.1-1.1c0.4-0.3,1.1-0.2,1.4,0.2
	C14.1,20.7,14.1,21.2,13.9,21.5z"/>
<path class="st0" d="M19.5,24.6c0,0.6-0.4,1-1,1s-1-0.4-1-1V23c0-0.6,0.4-1,1-1s1,0.4,1,1V24.6z"/>
<path class="st0" d="M18.4,21L18.4,21c-2.9,0-5.1-2.4-5.1-5.3c0-2.9,2.4-5.1,5.3-5.1c2.9,0,5.1,2.4,5.1,5.3c0,2.8-2.3,5-5.1,5.1
	H18.4z M18.5,12.1c-1.9,0-3.4,1.5-3.4,3.4c0,1.9,1.5,3.4,3.4,3.4h0.1c1.9,0,3.4-1.6,3.4-3.5S20.4,12,18.5,12.1L18.5,12.1z"/>
<path class="st0" d="M25.6,22.6c-0.4,0.4-1,0.4-1.4,0l-1.1-1.1c-0.3-0.4-0.2-1.1,0.2-1.4c0.4-0.3,0.8-0.3,1.2,0l1.2,1.1
	C26,21.6,26,22.3,25.6,22.6L25.6,22.6z"/>
<path class="st0" d="M27.6,16.5h-1.6c-0.6,0-1-0.4-1-1s0.4-1,1-1h1.6c0.6,0,1,0.4,1,1S28.2,16.5,27.6,16.5L27.6,16.5z"/>
</svg>
