<?xml version="1.0" encoding="utf-8"?>
<!-- Generator: Adobe Illustrator 21.1.0, SVG Export Plug-In . SVG Version: 6.00 Build 0)  -->
<svg version="1.1" id="Capa_1" xmlns="http://www.w3.org/2000/svg" xmlns:xlink="http://www.w3.org/1999/xlink" x="0px" y="0px"
	 viewBox="0 0 480 480" style="enable-background:new 0 0 480 480;" xml:space="preserve">
<g>
	<g>
		<path d="M416,32h-88h-48.8c-4.4-21.6-25.5-35.6-47.2-31.2C216.3,4,204,16.3,200.8,32H64c-4.4,0-8,3.6-8,8v422c0,4.4,3.6,8,8,8h352
			c4.4,0,8-3.6,8-8V40C424,35.6,420.4,32,416,32z M160,48h48c4.4,0,8-3.6,8-8c0-13.3,10.7-24,24-24s24,10.7,24,24c0,4.4,3.6,8,8,8
			h48v24H160L160,48L160,48z M152,88h176c4.4,0,8-3.6,8-8h40v342H104V80h40C144,84.5,147.6,88,152,88z M408,454H72V48h72v16H96
			c-4.4,0-8,3.6-8,8v358c0,4.4,3.6,8,8,8h288c4.4,0,8-3.6,8-8V72c0-4.4-3.6-8-8-8h-48V48h72V454z"/>
	</g>
</g>
<g>
	<g>
		<path d="M280,248c-3.6,0-6.8,2.4-7.7,5.9l-10.4,38.3L256,151.7c-0.2-4.4-3.9-7.8-8.3-7.6c-3.5,0.2-6.6,2.6-7.4,6l-25.4,101.3
			l-4.1-12.4c-3.8-11.5-16.2-17.7-27.7-13.9c-9,3-15,11.4-15,20.8v2.1h-32v16h40c4.4,0,8-3.6,8-8V246c0-3.3,2.6-6,5.9-6
			c2.6,0,4.9,1.6,5.7,4.1l12.8,38.5c1.1,3.4,4.3,5.7,7.9,5.5c3.6-0.1,6.6-2.6,7.5-6.1l18.6-74.2l5.7,136.6c0.2,3.9,3.2,7.2,7.1,7.6
			c0.3,0,0.6,0,0.9,0c3.6,0,6.8-2.4,7.7-5.9l22.4-82.1H344v-16L280,248L280,248z"/>
	</g>
</g>
</svg>
