<svg id="Layer_1" data-name="Layer 1" xmlns="http://www.w3.org/2000/svg" viewBox="0 0 80.81 61.9"><defs><style>.cls-1{fill:#1057a7;}</style></defs><title>ico-claims</title><path class="cls-1" d="M29.2,39.5h7.1v7.1a.94.94,0,0,0,1,1h6.1a.94.94,0,0,0,1-1V39.5h7.1a.94.94,0,0,0,1-1h0V32.4a.94.94,0,0,0-1-1H44.4V24.2a.94.94,0,0,0-1-1H37.3a.94.94,0,0,0-1,1v7.1H29.1a.94.94,0,0,0-1,1v6.1a1.27,1.27,0,0,0,1.1,1.1Z" transform="translate(0.1 0.1)"/><path class="cls-1" d="M78.8,11.9a6.57,6.57,0,0,0-4.8-2H55.7V6.7a6.73,6.73,0,0,0-2-4.8,6.57,6.57,0,0,0-4.8-2H31.7a6.73,6.73,0,0,0-4.8,2,6.57,6.57,0,0,0-2,4.8V9.9H6.7a6.73,6.73,0,0,0-4.8,2,6.57,6.57,0,0,0-2,4.8V55a6.73,6.73,0,0,0,2,4.8,6.57,6.57,0,0,0,4.8,2H74a6.7,6.7,0,0,0,6.7-6.7V16.7A6.64,6.64,0,0,0,78.8,11.9ZM30.4,6.7a1.43,1.43,0,0,1,1.4-1.4H49a1.32,1.32,0,0,1,1.3,1.3V9.8h-20ZM13.7,56.4h-7a1.32,1.32,0,0,1-1.3-1.3V16.7a1.35,1.35,0,0,1,1.4-1.3h7v41Zm48.5,0H18.5v-41H62.3v41ZM75.3,55A1.32,1.32,0,0,1,74,56.3H67v-41h7a1.32,1.32,0,0,1,1.3,1.3Z" transform="translate(0.1 0.1)"/></svg>