<?xml version="1.0" encoding="utf-8"?>
<!-- Generator: Adobe Illustrator 21.1.0, SVG Export Plug-In . SVG Version: 6.00 Build 0)  -->
<svg version="1.1" id="Layer_1" xmlns="http://www.w3.org/2000/svg" xmlns:xlink="http://www.w3.org/1999/xlink" x="0px" y="0px"
	 viewBox="0 0 39.6 39.6" style="enable-background:new 0 0 39.6 39.6;" xml:space="preserve">
<style type="text/css">
	.st0{fill:#444444;}
</style>
<title>ico-calendar</title>
<g>
	<g>
		<rect x="17.8" y="27.7" class="st0" width="4" height="4"/>
	</g>
</g>
<g>
	<g>
		<path class="st0" d="M19.8,0C8.8,0,0,8.8,0,19.8s8.8,19.8,19.8,19.8s19.8-8.8,19.8-19.8S30.7,0,19.8,0z M19.8,35.9
			c-8.9,0-16.2-7.2-16.2-16.2S10.8,3.6,19.8,3.6c8.9,0,16.2,7.2,16.2,16.2C35.9,28.7,28.7,35.9,19.8,35.9z"/>
	</g>
</g>
<g>
	<g>
		<path class="st0" d="M27.4,13.9c-1-4.2-5.3-6.9-9.5-5.8c-3.6,0.9-6.1,4.1-6.1,7.7h4c0.2-2.2,2.1-3.8,4.3-3.6s3.8,2.1,3.6,4.3
			c-0.4,2-2.2,3.3-4.2,3.3c-1,0-1.8,0.8-1.8,1.8l0,0v4.2h4v-2.3C25.9,22.3,28.4,18.1,27.4,13.9z"/>
	</g>
</g>
</svg>
