<?xml version="1.0" encoding="utf-8"?>
<!-- Generator: Adobe Illustrator 23.0.1, SVG Export Plug-In . SVG Version: 6.00 Build 0)  -->
<svg version="1.1" id="Capa_1" xmlns="http://www.w3.org/2000/svg" xmlns:xlink="http://www.w3.org/1999/xlink" x="0px" y="0px"
	 viewBox="0 0 512 512" style="enable-background:new 0 0 512 512;" xml:space="preserve">
<style type="text/css">
	.st0{fill:url(#SVGID_1_);}
	.st1{fill:#E30000;}
</style>
<linearGradient id="SVGID_1_" gradientUnits="userSpaceOnUse" x1="347.8395" y1="390.183" x2="216.8395" y2="-68.8169">
	<stop  offset="0" style="stop-color:#3C5894"/>
	<stop  offset="1" style="stop-color:#4FBBC3"/>
</linearGradient>
<path class="st0" d="M273,407.6h173c10.7,0,19.4-8.7,19.4-19.4v-77h-54.5c-30.4,0-55.1-24.7-55.1-55.1v-3.5
	c0-30.4,24.7-55.1,55.1-55.1h54.5v-70H133.1c-7.2,0-13.1-5.9-13.1-13.1s5.9-13.1,13.1-13.1h46.2l21-11.7h-72.3
	c-10.7,0-19.4,8.7-19.4,19.4V240l-26.3,11.7V108.9c0-25.2,20.5-45.7,45.7-45.7h119.5l107-59.5C359,1.3,363.9,0,368.9,0
	c10.7,0,20.5,5.8,25.7,15.1l26.8,48.1H446c25.2,0,45.7,20.5,45.7,45.7v88.6H512v113.7h-20.3v77c0,25.2-20.5,45.7-45.7,45.7H261.6
	L273,407.6z M410.9,223.7c-15.9,0-28.8,12.9-28.8,28.8v3.5c0,15.9,12.9,28.8,28.8,28.8h74.8v-61.2H410.9z M463.7,101.2
	c-3-6.9-9.8-11.7-17.7-11.7h-10l6.5,11.7H463.7z M412.4,101.2l-40.8-73.3c-0.5-0.9-1.7-1.6-2.9-1.6c-0.5,0-1,0.1-1.4,0.3l-134,74.5
	H412.4z M417.9,277.9c-12.7,0-23-10.3-23-23c0-12.7,10.3-23,23-23c6.1,0,11.9,2.4,16.2,6.7c4.3,4.3,6.7,10.1,6.7,16.2
	C440.8,267.6,430.5,277.9,417.9,277.9z"/>
<g>
	<g>
		<path class="st1" d="M148.8,504.5c77.1,0,140-62.7,140-140s-62.9-140-140-140s-140,62.9-140,140S71.7,504.5,148.8,504.5z
			 M148.8,244.2c66.3,0,120.3,54,120.3,120.3s-54,120.3-120.3,120.3s-120.3-54-120.3-120.3S82.5,244.2,148.8,244.2z"/>
		<path class="st1" d="M96.3,415.6c1.9,1.9,4.3,2.9,7,2.9c2.7,0,5.1-1,7-2.9l38.6-38.6l38.6,38.6c1.9,1.9,4.3,2.9,7,2.9
			c2.7,0,5.1-1,7-2.9c3.9-3.9,3.9-10.1,0-14L162.8,363l38.6-38.6c3.9-3.9,3.9-10.1,0-14s-10.1-3.9-14,0L148.8,349l-38.6-38.6
			c-3.9-3.9-10.1-3.9-14,0c-3.9,3.9-3.9,10.1,0,14l38.6,38.6l-38.6,38.6C92.4,405.4,92.4,411.7,96.3,415.6z"/>
	</g>
</g>
</svg>
