<svg id="Layer_1" data-name="Layer 1" xmlns="http://www.w3.org/2000/svg" viewBox="0 0 39.38 31.5"><title>ico-id</title><path d="M38.72,5.21a3.16,3.16,0,0,0-2.32-1H3.59a3.16,3.16,0,0,0-2.32,1,3.16,3.16,0,0,0-1,2.32V32.47a3.16,3.16,0,0,0,1,2.32,3.16,3.16,0,0,0,2.32,1H36.41a3.29,3.29,0,0,0,3.28-3.28V7.53a3.16,3.16,0,0,0-1-2.32ZM37.06,32.47a.66.66,0,0,1-.66.66H3.59a.66.66,0,0,1-.66-.66V20H37.06V32.47Zm0-20.34H2.94V7.53a.66.66,0,0,1,.66-.66H36.41a.66.66,0,0,1,.66.66Zm0,0" transform="translate(-0.31 -4.25)"/><rect x="5.25" y="23.62" width="5.25" height="2.63"/><rect x="13.13" y="23.62" width="7.87" height="2.63"/></svg>