<?xml version="1.0" encoding="utf-8"?>
<!-- Generator: Adobe Illustrator 21.1.0, SVG Export Plug-In . SVG Version: 6.00 Build 0)  -->
<svg version="1.1" id="Layer_1" xmlns="http://www.w3.org/2000/svg" xmlns:xlink="http://www.w3.org/1999/xlink" x="0px" y="0px"
	 viewBox="0 0 39.4 31.5" style="enable-background:new 0 0 39.4 31.5;" xml:space="preserve">
<style type="text/css">
	.st0{fill:#0857A4;}
</style>
<title>ico-id</title>
<path class="st0" d="M38.4,1c-0.6-0.6-1.4-1-2.3-1H3.3C2.4,0,1.6,0.3,1,1C0.3,1.6,0,2.4,0,3.3v24.9c0,0.9,0.4,1.7,1,2.3
	c0.6,0.6,1.4,1,2.3,1h32.8c1.8,0,3.3-1.5,3.3-3.3v-25C39.4,2.4,39,1.6,38.4,1L38.4,1z M36.8,28.2c0,0.4-0.3,0.7-0.7,0.7H3.3
	c-0.4,0-0.7-0.3-0.7-0.7V15.8h34.1V28.2z M36.8,7.9H2.6V3.3c0-0.4,0.3-0.7,0.7-0.7h32.8c0.4,0,0.7,0.3,0.7,0.7L36.8,7.9z"/>
<rect x="5.2" y="23.6" class="st0" width="5.2" height="2.6"/>
<rect x="13.1" y="23.6" class="st0" width="7.9" height="2.6"/>
</svg>
