<?xml version="1.0" encoding="utf-8"?>
<!-- Generator: Adobe Illustrator 21.1.0, SVG Export Plug-In . SVG Version: 6.00 Build 0)  -->
<svg version="1.1" id="Layer_1" xmlns="http://www.w3.org/2000/svg" xmlns:xlink="http://www.w3.org/1999/xlink" x="0px" y="0px"
	 viewBox="0 0 162.2 162.1" style="enable-background:new 0 0 162.2 162.1;" xml:space="preserve">
<style type="text/css">
	.st0{fill:#AAAAAA;}
	.st1{fill:#0077B7;}
</style>
<title>ico-claims</title>
<path class="st0" d="M81.1,162.1c-44.7,0-81.1-36.3-81.1-81S36.4,0,81.1,0s81.1,36.4,81.1,81.1S125.8,162.1,81.1,162.1z M81.1,4
	C38.6,4,4,38.5,4,81.1c0,42.5,34.6,77.1,77.1,77.1s77.1-34.6,77.1-77.1C158.2,38.5,123.6,4,81.1,4z"/>
<g>
	<path class="st1" d="M52,92.5h29.9c0.6,0,1,0.4,1,1l0,0v0.9c0,0.6-0.4,1-1,1l0,0H52c-0.6,0-1-0.4-1-1l0,0v-0.9
		C50.9,93,51.4,92.5,52,92.5C51.9,92.5,52,92.5,52,92.5z"/>
	<path class="st1" d="M90.8,92.5h19.9c0.6,0,1,0.4,1,1l0,0v0.9c0,0.6-0.4,1-1,1l0,0H90.8c-0.6,0-1-0.4-1-1l0,0v-0.9
		C89.7,93,90.2,92.5,90.8,92.5C90.7,92.5,90.7,92.5,90.8,92.5z"/>
	<path class="st1" d="M120.3,55.5c-0.8-0.8-2-1.3-3.1-1.3H45.1c-1.2,0-2.3,0.5-3.1,1.3s-1.3,2-1.3,3.1v44.9c0,1.2,0.5,2.3,1.3,3.1
		c0.8,0.8,2,1.3,3.1,1.3h72c2.4,0,4.4-2,4.4-4.4v-45C121.6,57.4,121.1,56.3,120.3,55.5z M118,103.5c0,0.5-0.4,0.8-0.9,0.9h-72
		c-0.5,0-0.8-0.4-0.9-0.9V58.6c0-0.5,0.4-0.9,0.8-0.9l0,0h72.1c0.4,0,0.8,0.3,0.9,0.8c0,0.1,0,0.1,0,0.2l0,0
		C118,58.7,118,103.5,118,103.5z"/>
	<path class="st1" d="M73.3,73.7c0-0.3-2.2-0.8-3.2-0.8s-0.5-1-0.5-1.5s1.9-1,1.6-1.5c-0.5-0.9-1.7,0.8-2.9,0.7
		c-0.8,0-1.5-0.5-1.8-1.2c-0.4-0.5-0.5-2.4-1.3-2.8c-0.5-0.2-0.9,0.6-1.3,0.5c-0.5-0.2-0.4-0.6-0.6-1.5C63.1,64.8,62,65,62,65h-0.2
		c0,0-1.3-0.2-1.5,0.7c-0.2,0.9,0,1.4-0.6,1.5c-0.3,0.1-0.8-0.9-1.3-0.5c-0.9,0.5-0.9,2.2-1.3,2.8c-0.5,0.6-0.5,1-1.8,1.2
		s-2.4-1.6-2.9-0.7c-0.2,0.4,1.6,0.9,1.6,1.5c0,0.5,0.6,1.5-0.4,1.5s-3.2,0.5-3.2,0.8c0,0.7,8.2,0.5,7.5,0.8
		c-0.7,0.2-3.7,1.5-4.4,1.4s1.4,0.7,2,0.6c1.7,0.5,3.4,1.1,5.1,1.8c0,0-2.4,0.9-1.1,0.9h4.2c1.3,0-1.1-0.9-1.1-0.9
		c1.7-0.7,3.4-1.3,5.1-1.8c0.6,0,2.7-0.8,2-0.6c-0.6,0.2-3.7-1.2-4.3-1.4C65.2,74.2,73.3,74.4,73.3,73.7z"/>
	<path class="st1" d="M52,84.6h58.6c0.6,0,1,0.4,1,1l0,0v0.9c0,0.6-0.4,1-1,1l0,0H52c-0.6,0-1-0.4-1-1l0,0v-0.9
		C50.9,85.1,51.4,84.6,52,84.6C51.9,84.6,52,84.6,52,84.6z"/>
	<path class="st1" d="M83.8,69.9H111c0.6,0,1,0.4,1,1l0,0v0.9c0,0.6-0.4,1-1,1l0,0H83.8c-0.6,0-1-0.4-1-1l0,0V71
		C82.7,70.4,83.2,69.9,83.8,69.9C83.7,69.9,83.7,69.9,83.8,69.9z"/>
</g>
</svg>
