<?xml version="1.0" encoding="utf-8"?>
<!-- Generator: Adobe Illustrator 21.1.0, SVG Export Plug-In . SVG Version: 6.00 Build 0)  -->
<svg version="1.1" id="Capa_1" xmlns="http://www.w3.org/2000/svg" xmlns:xlink="http://www.w3.org/1999/xlink" x="0px" y="0px"
	 viewBox="0 0 662.8 481.5" style="enable-background:new 0 0 662.8 481.5;" xml:space="preserve">
<style type="text/css">
	.st0{fill:url(#SVGID_1_);}
	.st1{fill:url(#SVGID_2_);}
	.st2{fill:url(#SVGID_3_);}
	.st3{fill:url(#SVGID_4_);}
	.st4{fill:url(#SVGID_5_);}
	.st5{fill:url(#SVGID_6_);}
	.st6{fill:url(#SVGID_7_);}
	.st7{fill:url(#SVGID_8_);}
	.st8{fill:url(#SVGID_9_);}
	.st9{fill:url(#SVGID_10_);}
	.st10{fill-rule:evenodd;clip-rule:evenodd;fill:url(#SVGID_11_);}
	.st11{fill:url(#SVGID_12_);}
</style>
<linearGradient id="SVGID_1_" gradientUnits="userSpaceOnUse" x1="271.4778" y1="322.7266" x2="487.467" y2="15.242">
	<stop  offset="0" style="stop-color:#3C5894"/>
	<stop  offset="1" style="stop-color:#4FBBC3"/>
</linearGradient>
<path class="st0" d="M600.6,9H57.5C33,9,13.1,29,13.1,53.4V428c0,24.5,19.9,44.4,44.4,44.4h543.1c24.5,0,44.4-19.9,44.4-44.4V53.4
	C645,29,625.1,9,600.6,9z M624,428c0,12.9-10.5,23.3-23.3,23.3H57.5c-12.9,0-23.3-10.5-23.3-23.3V53.4c0-12.9,10.5-23.3,23.3-23.3
	h543.1c12.9,0,23.3,10.5,23.3,23.3V428z"/>
<linearGradient id="SVGID_2_" gradientUnits="userSpaceOnUse" x1="289.9079" y1="335.6726" x2="505.8971" y2="28.188">
	<stop  offset="0" style="stop-color:#3C5894"/>
	<stop  offset="1" style="stop-color:#4FBBC3"/>
</linearGradient>
<path class="st1" d="M359.1,187h85.3c5.8,0,10.5-4.7,10.5-10.5c0-5.8-4.7-10.5-10.5-10.5h-85.3c-5.8,0-10.5,4.7-10.5,10.5
	C348.5,182.3,353.2,187,359.1,187z"/>
<linearGradient id="SVGID_3_" gradientUnits="userSpaceOnUse" x1="350.2099" y1="378.0311" x2="566.1991" y2="70.5465">
	<stop  offset="0" style="stop-color:#3C5894"/>
	<stop  offset="1" style="stop-color:#4FBBC3"/>
</linearGradient>
<path class="st2" d="M486.5,187h10.5c5.8,0,10.5-4.7,10.5-10.5c0-5.8-4.7-10.5-10.5-10.5h-10.5c-5.8,0-10.5,4.7-10.5,10.5
	C476,182.3,480.7,187,486.5,187z"/>
<linearGradient id="SVGID_4_" gradientUnits="userSpaceOnUse" x1="178.3344" y1="257.299" x2="394.3236" y2="-50.1856">
	<stop  offset="0" style="stop-color:#3C5894"/>
	<stop  offset="1" style="stop-color:#4FBBC3"/>
</linearGradient>
<path class="st3" d="M106.8,356.1H96.3c-5.8,0-10.5,4.7-10.5,10.5c0,5.8,4.7,10.5,10.5,10.5h10.5c5.8,0,10.5-4.7,10.5-10.5
	C117.4,360.8,112.7,356.1,106.8,356.1z"/>
<linearGradient id="SVGID_5_" gradientUnits="userSpaceOnUse" x1="217.1227" y1="284.5454" x2="433.1119" y2="-22.9392">
	<stop  offset="0" style="stop-color:#3C5894"/>
	<stop  offset="1" style="stop-color:#4FBBC3"/>
</linearGradient>
<path class="st4" d="M170,356.1H149c-5.8,0-10.5,4.7-10.5,10.5c0,5.8,4.7,10.5,10.5,10.5H170c5.8,0,10.5-4.7,10.5-10.5
	C180.6,360.8,175.8,356.1,170,356.1z"/>
<linearGradient id="SVGID_6_" gradientUnits="userSpaceOnUse" x1="255.911" y1="311.7919" x2="471.9002" y2="4.3072">
	<stop  offset="0" style="stop-color:#3C5894"/>
	<stop  offset="1" style="stop-color:#4FBBC3"/>
</linearGradient>
<path class="st5" d="M222.7,356.1h-10.5c-5.8,0-10.5,4.7-10.5,10.5c0,5.8,4.7,10.5,10.5,10.5h10.5c5.8,0,10.5-4.7,10.5-10.5
	C233.2,360.8,228.5,356.1,222.7,356.1z"/>
<linearGradient id="SVGID_7_" gradientUnits="userSpaceOnUse" x1="294.6993" y1="339.0383" x2="510.6885" y2="31.5537">
	<stop  offset="0" style="stop-color:#3C5894"/>
	<stop  offset="1" style="stop-color:#4FBBC3"/>
</linearGradient>
<path class="st6" d="M285.9,356.1h-21.1c-5.8,0-10.5,4.7-10.5,10.5c0,5.8,4.7,10.5,10.5,10.5h21.1c5.8,0,10.5-4.7,10.5-10.5
	C296.4,360.8,291.7,356.1,285.9,356.1z"/>
<linearGradient id="SVGID_8_" gradientUnits="userSpaceOnUse" x1="329.9592" y1="363.8062" x2="545.9484" y2="56.3215">
	<stop  offset="0" style="stop-color:#3C5894"/>
	<stop  offset="1" style="stop-color:#4FBBC3"/>
</linearGradient>
<path class="st7" d="M320.5,359.1c-1.9,2-3.1,4.7-3.1,7.5c0,2.7,1.1,5.5,3.1,7.5c2,1.9,4.7,3.1,7.5,3.1s5.5-1.2,7.5-3.1
	c1.9-2,3.1-4.7,3.1-7.5c0-2.7-1.2-5.5-3.1-7.5C331.5,355.2,324.4,355.2,320.5,359.1z"/>
<linearGradient id="SVGID_9_" gradientUnits="userSpaceOnUse" x1="305.5031" y1="346.6273" x2="521.4924" y2="39.1427">
	<stop  offset="0" style="stop-color:#3C5894"/>
	<stop  offset="1" style="stop-color:#4FBBC3"/>
</linearGradient>
<path class="st8" d="M570.8,109.1H359.1c-5.8,0-10.5,4.7-10.5,10.5s4.7,10.5,10.5,10.5h211.7c5.8,0,10.5-4.7,10.5-10.5
	S576.6,109.1,570.8,109.1z"/>
<linearGradient id="SVGID_10_" gradientUnits="userSpaceOnUse" x1="305.8478" y1="346.8694" x2="521.837" y2="39.3848">
	<stop  offset="0" style="stop-color:#3C5894"/>
	<stop  offset="1" style="stop-color:#4FBBC3"/>
</linearGradient>
<path class="st9" d="M569.3,299.2H94.6c-5.8,0-10.5,4.7-10.5,10.5s4.7,10.5,10.5,10.5h474.7c5.8,0,10.5-4.7,10.5-10.5
	S575.1,299.2,569.3,299.2z"/>
<linearGradient id="SVGID_11_" gradientUnits="userSpaceOnUse" x1="149.0153" y1="236.7042" x2="365.0045" y2="-70.7805">
	<stop  offset="0" style="stop-color:#3C5894"/>
	<stop  offset="1" style="stop-color:#4FBBC3"/>
</linearGradient>
<path class="st10" d="M286.8,204.1c-0.3-0.7,0.3-1.2,0.9-1.4c0.7,0,1.6,0.3,1.7,1c-0.2,0.5-0.5,1.1-1,1.1
	C287.8,204.8,287.2,204.7,286.8,204.1z M299.5,184.7c-6.6,9.5-36.3,7.9-57.5,6.5c-0.2,0.4-0.5,0.8-0.8,1.2c0.9,1.2,0.5,3-0.5,4.3
	c0.8,0.4,1.7,0.7,2.6,1.1c0.1-0.3,0.2-0.6,0.3-1l-0.2-0.2c0.2-0.2,0.4-0.5,0.6-0.7c1.4-2.4,4.3-4,11.2-3.7c-0.2,1.4-0.6,2.4-1.1,3.2
	c0.3,0.6,0.7,1.7,1.1,3.3c-0.4-1.4-1.1-2.1-1.9-2.4c-0.1,0.1-0.3,0.3-0.5,0.4c-0.1,0.6-0.1,1.3-0.1,1.9c0.2,0.1,0.4,0.3,0.5,0.6
	c0.2,0.7-0.1,1.2-0.6,1.6c0,0.2,0,0.4,0,0.6c0.2,0.1,0.5,0.2,0.7,0.3c0.7-0.6,1.6-1.3,2.8-1.9c0.8-0.6,1.8-1.1,2.8-1.4
	c2.6-1.1,5.4-2,7.3-1.9c0.6,4.7-2.3,6.5-7,7.1c2.5,0.7,4.8,1.3,7,1.6c1.4-3,6.9-7.4,11.1-6.6c-0.4,0.7-0.9,1.7-1.6,2.6
	c0.4,0.3,0.9,0.8,1.5,1.4c2-2.4,4.9-4.4,5.9-4.9c0.6,1.5,0.9,2.7,1,3.7c0.9-0.3,1.7-0.1,1.7,1c0,0.4,0.6,1.4,0.8,2.3
	c2.3,1.4,6.2,5.8,0.1,5.8c-0.1,0-0.1,0-0.2,0c0.2,1.5,0.1,3.2-0.3,4.7c-2.1-0.1-4.8-1.1-7.3-2.5c0,1-1,1.8-4.1,1.9
	c1.5,2.1,1.9,4-1.3,4c-5.3,0-6.3-5.2-5.9-8.4c0,0,0-0.1,0-0.1c0,0,0,0,0.1,0c0-0.1,0-0.2,0-0.3c-0.6-0.4-1.2-0.9-1.8-1.2
	c-1.5-0.3-3-0.6-4.5-1c-0.7,0.2-1.4,0.5-2.2,1c0.7,1.1,0.2,3.3-2.9,5.3c-0.2-0.1-0.4-0.2-0.6-0.3c-0.1,0.1-0.1,0.3-0.2,0.4
	c0.4,0.2,0.7,0.8,1.2,0.9l1.9,2c0.9,1.4,1.6,3.1,1.8,4.8c-0.2,0.5,0.3,1-0.1,1.3h-0.3c-1.2-0.9-2-1.8-2.6-2.9
	c0.2,1.6,2.5,5.3-2.1,5.3c-0.7,0-1.3-0.1-1.7-0.2c-0.5,0.1-1,0.1-1.6,0.1c0,0,0,0-0.1,0c3.7,2.9,6.6,8.5,2,8.5
	c-1.4,0-2.5-0.7-3.4-1.8c-0.2,0.1-0.6,0.3-1,0.3c0.1,0.1,0.1,0.1,0.2,0.2c0,0.6-0.6,0.9-0.9,1.2c-0.5-0.1-1.1-0.2-1.5-0.7
	c0-0.2,0-0.4,0.1-0.5c-1.8,0-2.9-0.4-3.3-0.9c-1.2,1.8-3.2,3-4.7,4.6c-0.3-0.2-0.2-0.7-0.1-1c0.7-2.6,2.7-5.1,5.2-6.1c0,0,0,0,0.1,0
	c1.2-1.6,3.3-3.1,3.3-3c0,0,0.2,0.2,0.4,0.4c-0.1-0.3-0.1-0.6-0.1-0.9c-0.5,0.4-1,0.7-1.6,1c-0.3-0.2-0.5-0.5-0.7-0.8
	c-0.2,0.1-0.4,0.3-0.6,0.4c-0.4-0.1-0.7-0.2-1.1-0.4c0.2,1.2-0.1,2.3-2.5,2.3c-8.4,0-2.4-5.7,0.2-6.2c-1.4-0.4-2.8-0.8-3.9-1.1
	c0.8-0.6,1.6-1.1,2.3-1.5c0,0,0,0-0.1,0c0.1-0.5,0.7-0.3,1.1-0.7c0.3-0.1,0.6-0.1,0.9-0.2c1.6-0.6,3.1-0.8,4.2-0.6
	c1.7-5.7,3.7-12.3-4.8-15.9c3.2,5-0.8,5.9-1.4,8.7c-3.5-9.1-10.2-13.3-19.3-15.4c2.1,3.4,3.6,8.2,4.6,12.8c2.5-4.3,8.5-4.9,11.2,0.2
	c0.4,0.5,0.8,1.1,1.1,1.8c0,0.5,0,1,0,1.4c0.4,2,0.4,4.6-0.2,7.7c-3.1,18-18.5,12.6-33.6,9.4c2.2,6,7,10.1,9.5,12.5
	c0.7,0.1,1.3,0.3,1.7,0.5c0.3,0,0.6,0.2,0.8,0.5c-0.2,0.3-0.6,0.4-1,0.4c0.4,0.5,0.4,0.8-0.4,0.8c0.3,0.2,0.5,0.3,0.7,0.6
	c-0.5,0.6-1.5,0.1-2.2,0c-1.8-0.7-3.7-0.8-5.3-1.6c0,0-0.1,0-0.1-0.1c-1.7-0.4-3.8-0.8-6.2-1.3c8,11.4-17.2,6.7-19,2.9
	c-1.5,2.8-1.9,4.9-5.5,4.9c-6.3,0-1.5-6.5-0.3-8.4c-0.4,0.1-15,5-14.9,4.3c0.1-0.7,0.2-1.4,0.3-2c-0.3-0.1-0.4-0.1-0.3-0.5
	c0.2-0.1,0.4-0.2,0.6-0.3c0.1-0.4,0.3-0.8,0.4-1.2c-0.5-0.3-1.3-0.4-1.2-1c0.7-0.1,1.4-0.2,2-0.3c2.9-3.8,8.7-2.3,12.6-11.5
	c-5.8,0.7-10.3,1-14.2,1c-0.3,0.1-0.6,0.2-0.9,0.2c-2.3,0.8-4.1,1.2-5.5,1.2c-1.7,0.3-3.5,0.5-5.3,0.6c-2-0.2-4-0.6-5.2-2.2
	c-0.5-0.7-0.6-1.5-0.7-2.4c-2.4-0.7-5-1.5-8.1-2.3c2.4,3.7,9.1,11.5,1.9,11.5c-6.5,0-5.5-7.2-4.1-10.9c0,0,0-0.1,0-0.1
	c0-0.1,0.1-0.1,0.1-0.1c0.1-0.3,0.2-0.6,0.4-0.8c-0.5-0.1-1-0.3-1.5-0.4c-0.7,4.2-2.9,8.4-7.2,8.4c-3.1,0-3.1-1.8-1.9-4
	c-2.6-0.5-2.1-2.2-1.1-3.8c-1.6-0.3-1.9-1.1-1.7-2c-1.3,0.7-2.7,1.1-4.3,1.1c-6.8,0,1.7-5.9,7-8.8l0.5-1.9c0,0,0,0,0,0
	c0,0-0.3,0-0.7,0.1c0.2,1.1-0.7,1.9-3.8,1.9c-5.7,0-2.8-3.6-1-5.4c-2.2,0.5-4.6,1-7,1.4c-1.2,3.1-3.7,4.5-6.2,5.6
	c-0.1,0.1-0.2,0.1-0.4,0.1c-1.1,0.4-2.3,0.8-3.3,1.2c-0.9-2,0-4,1.7-5.6c-4.4,0.5-8.4,0.8-11.1,0.3c-1.1,0.2-2.3,0-3.3,0.4
	c-0.3,0-0.3-0.4-0.3-0.7c0.4-0.2,0.7-0.4,1.1-0.6c-0.9-0.7-1-1.7,0-3.1c-0.3-0.3-0.5-0.5-0.6-0.8c-0.1,0.1-0.3,0.2-0.4,0.3
	c-0.6,0-1.3-0.3-1.5-1c0,0,0-0.1,0-0.1c-0.2,0-0.5,0-0.8,0c-9.6,0,1.3-8.6,2.7-6.1c0.7-0.7,1.3-1.1,1.3-1.1c0,0,1.3,1.2,2.3,2.5
	c0.2-0.3,0.4-0.5,0.6-0.7c0-1,0.1-2.1,0.4-2.9c0,0,0,0,0,0c0-0.1,0-0.1,0.1-0.1c0.5-1.7,1.3-2.7,1.6-2.2c0.6,1.2,6.3,5.6,7.6,8.4
	c0.1,0,0.3,0,0.4,0c0.4-0.6,0.8-1.3,1.3-1.8c-0.2-0.7-0.3-1.5-0.3-2.1c-0.1-0.2-0.3-0.3,0-0.5c-0.1-0.9-0.1-1.7-0.4-2
	c-0.5-0.6,7.6,3.4,10.2,6.3c1.2-0.1,2.3-0.2,3.5-0.4c-12.2-6.3-11.5-6.9-6.6-6.2c-0.5-0.5-1.1-1.1-1.7-1.4c-0.1-0.3,0.2-0.3,0.4-0.5
	c2.5-0.1,4.8,0.9,6.1,2.7c1.3,0.2,2.7,0.5,4.1,0.7c-1.3-1.3-1.5-3.6,0.7-5c1.4-0.8,2.7-0.6,3.8,0.6c0.2-0.3,0.4-0.5,0.6-0.7
	c1.7,1,3.8,3.5,3.5,5.1c0.2,0.2,0.3,0.4,0.5,0.6c1-0.1,1.9-0.3,2.5-0.7c-2-0.8-4-3.1-4.9-4.9c2.5,0,7.8,0.4,11.6,0.3
	c0.1-0.7,0.4-1.3,0.8-2c-18.6-6.9-48.6,8.6-61.4-8.7c-8.3-11.2-0.9-10.4,5.8-7.8c0.6-0.1,1.2-0.2,1.8-0.1c1.1,0.3,2.4,1.1,2.9,2.2
	c1.3,0.7,2.3,1.3,2.8,1.7c1.1-0.3,2.4-0.5,3.7-0.6c-2.7,0-4.4-0.7-5.4-3.3c1.6-0.4,2.9-0.8,4-1.1c-0.5-0.2-0.8-0.5-0.9-0.8
	c-0.2,0-0.5,0-0.7,0c-7.4,0,0.5-6.7,0.5-6.5c0,0.1,0,0.2,0.1,0.3c0.9-1.5,2.6-3,2.6-3c0,0.3,1.1,1.4,2,2.6c0.3-0.4,0.6-0.8,0.8-1.1
	c-0.8-1.5-1.2-3.1-1.2-4.4c-0.1-5.8,6.7,0.1,9.1,4.9c1.8-1.3,4.3-2.1,4.7-1.2c-0.2-0.5,3.3,1,5.5,2.6c0.1-3.5-6.2-7.6-3.4-11.8
	c-0.2-0.7,0-1.7,0.3-2.6c-0.3,0.2-0.6,0.3-1,0.3c0.7,1.5,0.4,2.9-2.8,2.9c-1.5,0-2.2-0.5-2.5-1.1c-0.3,0.1-0.5,0.1-0.8,0.1
	c-2.4,0-3.7-2.9-2.8-4.7c-2.5,0.4-4.8,1-6.9,1.6c0.7-0.3,1.9-1.5,3.6-2.9c-2.6-0.3-2.4-2.3-1.4-4c-0.9-0.5-1.7-1-2.4-1.5
	c0.9-0.6,1.7-1,2.4-1.4c-0.1,0-0.2-0.1-0.3-0.1c0.1-0.7,0.9-0.5,1.4-0.7c0.4,0,0.8,0,1.2,0.1c3.2-0.5,5,1.4,5.7,3.3
	c0.1,0.1,0.2,0.2,0.3,0.3c1.4-0.4,2.9-0.5,4.5-0.2c-0.5-2.1-0.8-3.8-1.1-5.3c-0.1,0-0.2,0-0.2,0c-0.4,0.2-1,0.3-1.7,0.3
	c0.6,0.7,1.1,1.4,1.9,2.1c0.1,0.3-0.1,0.7-0.5,0.7c-3-0.2-5.2-3.1-6.7-5.4c-4.6-0.7-1.5-4.8,0.8-6.1c-0.2,0-0.4-0.1-0.6-0.3
	c-0.4-0.3-0.5-1-0.3-1.4c0.3-0.4,0.7-0.5,1.2-0.6c0.5-3.8,3.7-8.1,3.8-7.6c0.1,0.4,3.1,4.6,4.1,8.1c0.5,0,0.9,0.4,1,1.1
	c0.1,0.6,0.9,2.2,0.8,3.5c2.2,2,4.9,5.6,7.5,9c0.2-0.1,0.3-0.2,0.5-0.3c0.5,0.1,1.2,0.2,1.4,0.8c0,0.4-0.1,0.7-0.2,0.9
	c1.8-0.9,3.6-0.8,3.6,2.1c0,0.8-0.2,1.7-0.7,2.4c1.3,1.7,2.3,2.9,2.9,3.1c1.5-12.4,19.3-27.3,23.9-38.1c6.4-15-7.9-11,3.3-16
	c10.8-4.8,19,18,8.9,18.7c0.9,3.5,9.7,9.9,9.5,3c0,0.4,5.1,1.2,7,2.8c1.4-0.1,2.9-0.2,4.4-0.2c1.1,0,2.1-0.1,3.1-0.2
	c0.1-0.1,0.2-0.2,0.3-0.3c0.1,0.1,0.2,0.2,0.3,0.3c9.4-0.5,15.6-0.9,19.6,0.4c0.2-0.3,0.4-0.5,0.6-0.7c0.3,0.3,0.6,0.8,0.9,1.4
	c0-0.2,0-0.4,0-0.5c0.8-0.4,8-5.5,9.2-10.9c-12.6-0.6,0.3-11.5,2.7-9.9c12.6,8.6-4.3,27.2,1.8,31.8c6.4-2.3,17.9-1.1,26.8,3.3
	c-0.1-2.5,0.4-5.1,1-6.5c6.9,3,5.4,5.8,3.8,9.3c0,0,0,0.1,0,0.1c1.2,0.9,2.2,1.8,3.2,2.8c0.8-1.6,3-3.3,4.2-3.7
	c-0.3-0.7-0.6-1.3-0.8-2c0-1.4,0.3-2.7,0.8-3.9c0.5-0.3,0.7,0.1,0.9,0.5c0.1,0.7,0.4,1.6,1.1,2c0.9,2,0.9,4.4,0.3,6.5l-0.3,0.3
	c0.2,0.6,0.3,1.2,0.2,1.7c0.3-0.2,0.6-0.5,0.9-0.7c0,0,0,0-0.1,0c-0.2-2.3,1.1-4.3,2.9-5.9c-0.9-0.4-1.2-1.1-1-1.9
	c-2.8-0.9-0.9-4.6,0.6-6.1c-0.8-3.9-0.1-9.1,0.2-10c3.4,2.2,4,5,3.9,7.7c0,0.1,0,0.3,0,0.4c0.8-1.7,2.7-3.5,2.7-3.6
	c0-0.5,4.6,3.1,4,5.2c2.2,1.9,4.8,5.5-1.2,5.5c-0.3,0-0.6,0-0.9,0c-1.6,5.6-5,7.6-8.4,8.4c0.1,0.2,0.2,0.4,0.1,0.8
	c0,0.4,0,1,0.1,1.5c2.4-3.2,7.4-7,9.4-7.6c-0.1,1.7-0.9,4.8-2.3,7.4c0.5-0.4,0.9-0.5,0.9-0.4c0,0.1,1,1.1,1.8,2.2
	c1.5-1.8,4.3-2.7,5.3,0.8c-0.1,1.5-2.5,2.7-3.3,3.4c0.4,1.6,0.2,3.3-2.7,3.3c-1.2,0-2-0.1-2.7-0.3c0.7,1.2-0.1,2.5-3,2.5
	c-1.7,0-4.4-1.4-6.4-2.6c-0.7,0.7-1.7,1.4-2.8,2.2c-1,8.9-5.6,4.9-8.4,4.6c-0.6,0.3-1.1,0.5-1.7,0.8c-0.1,0.1-0.1,0.2-0.2,0.3
	c-0.5,1.2-0.9,2.7-1.3,4.2c7.8,1.3,15.6-0.5,22.2-1.5c-0.6,2.7-2,4.3-4.5,6c0.3,0.1,0.6,0.3,1,0.4c0.8-1.4,2.6-3.1,4.7-4.5
	c0.9-1.1,2-2,3.6-2.4c0.4-0.2,1-0.4,1.5-0.4c1.2-0.4,2.4-0.7,3.3-0.7c-0.4,0.8-0.9,1.6-1.5,2.4c0.7-0.4,1.1-0.5,1.1-0.1
	c0,0.4,0.6,1.5,0.9,2.6c0.5-1.1,1.1-2.2,1.1-2.7c-0.3-2.2,11.4,6.2,1.4,6.3c-0.2,0.6-1.1,1.3-2,2c0.5,0.2,1,0.4,1.4,0.7
	c0.1,0,0.2,0,0.3,0l0.2,0.2c0,0.1,0,0.1,0,0.2c0.2,0.2,0.3,0.4,0.4,0.7c0.8,0.6,1.7,1.3,2.3,2c0-0.2,0.1-0.4,0.1-0.6
	c0.3-0.6,0.7-1.1,1.1-1.6c0-0.4-0.1-0.9-0.2-1.3C289.8,172.8,307.6,173,299.5,184.7z M276.1,208.8c0.7-0.6,1.3-1.1,1.9-1.6
	c-0.2,0.1-0.4,0.1-0.7,0.2c0,0,0,0,0,0c-0.6,0.3-1.2,0.6-1.8,0.9c-0.1-0.3-0.2-0.6-0.3-0.9c-0.1,0-0.2,0-0.3,0c0,0.2,0,0.5,0,0.7
	C275.3,208.3,275.6,208.5,276.1,208.8z M256.9,218.8c-0.6-1.3-1.1-2.8-1.6-4.2c0,0,0,0,0,0c-0.2,0.5-0.5,1-0.7,1.4
	C255.3,216.7,256.4,217.8,256.9,218.8z M244.9,222.3c-0.6,0-1.3-0.1-2.1-0.3c0.1,0.1,0.1,0.3,0.1,0.5c0,0.3,0.6,1.4,1,2.5
	c0.1-0.3,0.4-0.4,0.7-0.7c0.2-0.1,0.4-0.1,0.6-0.1c-0.1-0.6-0.1-1.3,0-2C245.2,222.2,245.1,222.3,244.9,222.3z M248.6,200
	c0.1-0.7,0.5-1.5,1.1-2.1c-1.4,0.2-3,0.4-4.7,0.6C246.2,199,247.4,199.5,248.6,200z M122,208c-0.2,0.2-0.4,0.3-0.7,0.4
	c0.4,0.3,0.8,0.7,1.2,1.1c0,0,0,0,0-0.1C122,209.1,121.8,208.6,122,208z M125.6,212.7C125.6,212.7,125.6,212.7,125.6,212.7
	C125.6,212.7,125.6,212.7,125.6,212.7C125.6,212.7,125.6,212.7,125.6,212.7z M127.3,206.2C127.4,206.2,127.4,206.3,127.3,206.2
	C127.4,206.3,127.4,206.2,127.3,206.2C127.4,206.2,127.4,206.2,127.3,206.2z M129.5,219.2c0.2,0.2,0.4,0.4,0.6,0.7
	c0.5-0.4,0.9-0.9,1.3-1.2C130.8,218.7,130.1,218.9,129.5,219.2z M96.4,178.7c1,0,2.1,0,3.1,0.1c0.6-0.5,1.2-1,1.8-1.5
	C100.1,178.2,98.4,178.6,96.4,178.7z M103.4,175.2c-0.5,0.8-1.2,1.5-1.9,2c0.7-0.4,1.4-0.8,2.1-1.2l0.2,0.1c0.2,0.5-0.3,0.7-0.3,1.2
	c-0.1,0.6-0.4,1.1-0.7,1.6c0.5,0,1,0.1,1.4,0.1c0.2-0.4,0.5-0.8,0.8-1.2c-0.4-0.6-0.3-1.5,0.1-2.4
	C104.6,175.4,104,175.4,103.4,175.2z M106,171.2c0.1,0.1,0.1,0.2,0.2,0.4c0.2-0.1,0.3-0.1,0.5-0.2
	C106.4,171.3,106.2,171.2,106,171.2z M231,192.7c0.4-0.3,1-0.5,1.5-0.8c0.7-0.5,1.5-0.8,2.4-1.1c-4.4-0.3-8.1-0.5-10.8-0.5
	C226.1,190.8,228.4,191.7,231,192.7z M222.5,176.4c1.2-1.3,2.3-2.6,3.2-4.1c-2.5,0.6-5,1.4-7.5,2.5
	C220.3,175.4,221.7,175.9,222.5,176.4z M220.5,167.2c-0.3-0.3-0.5-0.7-0.5-1c-0.1,0.2-0.2,0.3-0.4,0.5c0.3,0.2,0.6,0.4,0.8,0.6
	C220.4,167.2,220.5,167.2,220.5,167.2z M141.8,218.8c-0.2-0.8-0.3-1.5-0.4-2.2c-1.1,0.6-2.2,1.1-3.2,1.5
	C139.1,218,140.3,218.2,141.8,218.8z M152.5,219.6c-1.9-0.2-3.7-0.5-5.5-0.9c0.2,1.1,0.1,7.2,1.3,8c0.3,0.1,0.6,0.1,0.8,0.2
	c-0.3-0.3-0.5-0.6-0.8-0.9C149.6,222.5,151,220.5,152.5,219.6z M177.5,222.7c-0.4-0.7-0.9-1.6-1.7-2.3c0-0.1-0.1-0.1-0.1-0.2
	c0,0.3-0.1,0.5-0.2,0.8c0,0.4-0.2,0.9-0.6,1.3c-0.1,0.1-0.2,0.2-0.3,0.4C175.6,222.7,176.6,222.7,177.5,222.7z M193.6,215.2
	c0.6,0.6,1.1,1.3,1.5,2.1c0.7-0.9,1.4-1.5,2.1-2C196,215.2,194.8,215.2,193.6,215.2z M202.5,215.9c0.2,0.3,0.4,0.5,0.6,0.9
	c0.1-0.2,0.1-0.5,0.1-0.8C203,216,202.8,216,202.5,215.9z M209.4,221.8c0.5-0.1,0.9-0.2,1.2-0.4c0.5-1.1,1-2.2,1.2-3.7
	c-0.2,0-0.4-0.1-0.6-0.1C210.5,218.9,209.8,219.4,209.4,221.8z M232.2,219c-2.3,0.5-4.8,0.7-7.3,0.6c1.2,1.1,2.2,3.1,2.7,5.9
	C230.1,225.6,230.7,224.8,232.2,219z M147.5,228.5c1.4,0.4,2.9,0.6,4.4,0.5c-0.8-0.5-1.6-1.1-2.3-1.8c-1.2-0.3-2.4-0.6-3.6-0.9
	C146.1,227.2,146.5,228,147.5,228.5z M136,218.6c-0.4,0.1-0.9,0.1-1.3,0.1c-0.5,0-1,0-1.4,0c0,0.7,0,1.5,0,2.3
	C134.5,220.1,135.1,219.2,136,218.6z M114.6,174.2c1.8,1.8,2.7,4-1.3,4.2c-0.1,0.2-0.2,0.3-0.3,0.5c1.9-0.3,3.6-0.8,5-1.8
	c-2.1-1.4,1-4.3,3.2-5.4C118.8,172.7,116.7,173.6,114.6,174.2z M116.5,152c0.2,0.2,0.4,0.4,0.6,0.6c0.1-0.1,0.2-0.1,0.3-0.2
	C117.1,152.3,116.8,152.2,116.5,152z M118.2,157.7c-0.6,0.8-1.1,2.1-1.5,4.1c0.8-0.7,2.3-1.4,3.8-2.1
	C118.9,159.5,118.2,158.7,118.2,157.7z M126.7,162c-0.9,1-2.7,1.8-6.2,1.8c-2.2,0-3.5-0.2-4.1-0.5c-0.2,1.3-0.3,2.8-0.4,4.6
	c0,0,0,0,0,0c4.9-1.9,9.3-3.7,12-5.1C127.7,162.9,127.3,162.6,126.7,162z M143.5,170.2c-6.3,5.5-10.8,10.5-15.7,14.1
	c5.5-0.6,11.1-1.2,16.6-1.6C143.5,180,143.2,176,143.5,170.2z M141.9,205c0,0.2,0,0.3-0.1,0.5c-0.4,0.8-0.9,1.6-1.5,2.3
	c-0.6,1.1-1.1,2.3-1.7,3.5c-1.1-4.8-2.6-3.8-0.4-10.1c-4.6,2.3-5.9,5.8-6,9.7c0.5,0.1,1.1,0.3,1.7,0.5c0.1,0.9,0.1,1.9-0.2,2.8
	c0.3-0.2,0.9-0.3,2-0.1c0.1,0,0.3,0,0.4,0c0.5-0.1,1-0.1,1.5,0l0.2,0c1.1-0.3,2.3-0.6,3.4-0.8c0.3-9.4,8.3-9.7,11.8-6.2
	c0.6-4.7,1-9.4,3.7-13.2C149.6,195.2,145.2,199.5,141.9,205z M163.5,153.5c-0.6-2.9-1.1-5.5-1.5-7.9c-0.2-0.2-0.5-0.4-0.8-0.5
	c-1.3,5-4.6,12.9-6.7,20.3c0.5,0.2,1,0.5,1.4,0.7c0.5-0.7,1.5-1.4,2.9-2c0.2,0.1,0.4,0.2,0.6,0.3c-0.8-4,0.5-10,3.7-10
	c0.2,0,0.4,0,0.6,0.1C163.6,154.1,163.6,153.8,163.5,153.5z M168.8,159.7c0,0.6,0,1.2,0,1.8c0,0.3,0.1,0.5,0.2,0.8
	c0.1-0.2,0.3-0.4,0.4-0.6C169.2,161,169,160.3,168.8,159.7z M168.7,168.7c-0.5-0.2-0.8-0.6-1-1c-0.9-1-1.6-2.5-1.9-4.1
	c-0.4,1.5-1.1,2.8-1.9,3.5c1.2,1.3,2.3,2.9,1,3.8c3.1,1.8,6.2,3.8,9.1,5.9c0-0.1,0-0.2,0.1-0.3C171.9,174.2,170.1,171.5,168.7,168.7
	z M164.1,176.8c-0.2,0.9-1.3,1.8-3.2,2.7c-0.9-0.4-1.7-0.9-2.2-1.3c-0.5,0.3-1.1,0.7-1.8,1c-3.9-1.9-4.3-3.7-1.3-5.6
	c-0.1-0.4-0.1-0.7,0.1-1.1c-0.9-0.4-1.8-0.8-2.7-1.1c-0.7,3.3-0.9,6.2-0.5,8.6c0.6,0.3,4.9,1.4,9.7,2.7c4.7,0.4,9.2,1.3,13,2.9
	C172.3,182.3,168.3,179.3,164.1,176.8z M171.6,200.2c2,1.3,4.7-0.3,5.2-2.4C176.1,198,169.6,197.7,171.6,200.2z M179.6,180.9
	c0.5,1.1,1,1.9,1.3,2.2c0.1-0.5,0.2-1,0.3-1.5C180.7,181.4,180.1,181.1,179.6,180.9z M182.1,201.6c-5.5,9.5-22.8,2.4-15.6-7
	c-5.3,2.6-0.2,14,0.9,16.8c7.3-0.8,14.1-0.9,20.9-0.7c0-0.2,0.1-0.5,0.1-0.7C186.7,208.4,189.5,208.5,182.1,201.6z M192.1,183
	c-1,0.1-2,0.2-3.1,0.2c-1,0-2-0.1-3-0.2c0,0.1,0,0.2,0,0.4c1,3.4,2.3,7.1,3.5,8.8C191.9,188.6,192.2,185.4,192.1,183z M197.5,201.4
	c-3.8,4-4.5,6.2-4.2,9.6c6.4,0.4,13,1.1,20,1.9c2.2-2.6,5.6-7.5,5.5-8.4C217.2,210.2,201.5,208.9,197.5,201.4z M205.2,197.6
	c-1.9-0.1-3.2,0.4-1,3c1.2,0.7,6.9,1,5.2-2.1c0,0-1.1-0.4-2.5-0.7c-0.1,0.2-0.2,0.4-0.2,0.7c-0.2,0.4-0.7,0.3-1,0.3
	C205.1,198.6,205.2,198.1,205.2,197.6z M201.2,187.6c1.5-1.1,3.9-2,7-2.7c-0.1-0.1-0.1-0.1-0.2-0.2c3.2-0.8,6.5-2.2,9.4-4.1
	C211.7,182.4,203.4,184.5,201.2,187.6z M210.5,144.5c0,0.5,0.1,1.1,0.1,1.7c0.1-0.6,0.2-1.2,0.2-1.8
	C210.7,144.4,210.6,144.5,210.5,144.5z M223.9,157.4c-0.5-2.2-5.6-5.4-9.4-8.9c-0.3,3.9-0.9,8.2-2,12.5v0c0,2.7-0.8,5.1-2.1,6.6
	c0,0.1-0.1,0.2-0.1,0.3c-1.1,2.6-2.4,5-4.1,7.1c2.5-1.7,5.6-3.4,8.9-5.2c0,0,0-0.1-0.1-0.1c-3.7-1.8-4.1-3.6-1.4-5.4
	c0.8-2.3,5.3-5,5.4-2.8c0,0.4,1,2.1,1.1,3.5c0.1-0.2,0.3-0.5,0.5-0.7c-0.6-1.4-1.1-2.8-1.3-4.2c0.3-1.2,0.7-2.3,0.8-3.6
	c0.9-0.2,0.9,1,1.1,1.6c0.8,1.6,1,3.7,0.5,5.4c0.4-0.2,0.9-0.5,1.4-0.7c1.3,0.6,2.2,1.2,2.7,1.8c0.9-0.4,1.8-0.8,2.7-1.2
	C230.2,154,225.5,164.6,223.9,157.4z M240,174.8c0.6,1.3,0.2,2.5-3.3,2.5c-1.1,0-1.8-0.2-2.3-0.5c-0.4,0.1-0.9,0.2-1.6,0.2
	c-0.5,0-0.9,0-1.3-0.1c-1.2,2.3-2.5,4.4-3.9,6.1c2.2-0.1,4.5-0.1,6.8-0.1c2.5-2.3,5.1-5.1,6.8-8.2
	C240.9,174.7,240.5,174.7,240,174.8z M272.2,132.2c0.1-0.1,0.2-0.1,0.4-0.1c0.2-0.5,0.5-0.9,0.7-1.3c-0.2-0.1-0.4-0.3-0.5-0.4
	C272.7,131,272.5,131.6,272.2,132.2C272.2,132.2,272.2,132.2,272.2,132.2z M267.8,152.2c0.5-0.3,1.2-0.3,1.7-0.4
	c0.1-0.4,0.3-0.9,0.6-1.4c-1.1-0.1-1.7-0.3-2-0.8c-0.3,0.1-0.7,0.2-1.2,0.2c-0.1,0-0.1,0-0.2,0c-0.4,0.6-0.9,1.1-1.4,1.7
	C266.9,151.4,267.7,151.6,267.8,152.2z M263.4,151.6c0.2,0,0.4,0,0.6-0.1c0.2-0.2,0.4-0.5,0.6-0.7c0-0.5-0.4-1-0.4-1.5
	c-0.9-0.4-1.2-1-1.1-1.8c-0.7-0.2-1.4-0.4-1.4-1.2c0,0,0-0.1,0-0.1c-0.2,0-0.4,0-0.5,0C262.3,147.9,263,149.7,263.4,151.6z
	 M242.2,171.5c0.1,0.1,0.1,0.2,0.2,0.3c0-0.1,0.1-0.2,0.1-0.3C242.4,171.5,242.3,171.5,242.2,171.5z M252.5,173.2c0,0.1,0,0.1,0,0.2
	c0.1-0.1,0.1-0.1,0.2-0.2C252.6,173.2,252.6,173.2,252.5,173.2z M255.1,177.8c-0.1,0-0.2,0-0.3,0c-5.1,0-4.3-2.2-2.7-4
	c-0.2,0.1-0.4,0.3-0.6,0.4c-0.4-0.1-0.8-0.2-1.2-0.5c-0.8,3.3-1.7,6.5-3.3,9.1c3.7,0,7.4,0.1,10.9,0.1
	C256.7,181.4,255.7,179.5,255.1,177.8z M267.2,178.9c-0.1,0-0.1,0.1-0.2,0.1c-0.6,0-1.1-0.3-1.4-0.8c0,0,0,0,0,0c-0.1,0-0.1,0-0.2,0
	c-1.5-0.5-2.5-1-2.9-1.7c-0.5,0.6-1.7,1.1-4.2,1.1c-0.1,0-0.1,0-0.2,0c2.5,1.5,5.5,3.7,6.9,5.6c0.7,0,1.5,0,2.2,0
	c-1.6-0.6-0.9-2.2,0.4-3.5C267.4,179.4,267.2,179.2,267.2,178.9z M272.4,180c-0.3,1.5-0.5,2.6-1.5,3.1c1.2,0,2.3,0,3.5,0
	c-1-1-1.3-2.3-1.1-3.5C273.1,179.7,272.8,179.9,272.4,180z M273.7,178.2c0.2-0.4,0.4-0.7,0.6-1.1c-0.4,0-0.8-0.1-1.2-0.1
	C273.5,177.4,273.7,177.8,273.7,178.2z M275.3,173.2c-0.4,0.2-0.8,0.3-1.1,0.5c0.6,0.4,1.2,0.8,1.8,1.3c0.1-0.2,0.4-0.3,0.6-0.3
	C276,174.3,275.6,173.8,275.3,173.2z M294.8,179.2c-0.4-0.8-0.9-0.8-1.5-0.8c-0.5,0.6-1,1.1-1.4,1.6c0.2,0.2,0.2,0.4,0.1,0.8
	c-0.2,0.4-0.7,0.5-1.1,0.4c-1.2,1.3-1.1,0.8-0.8-0.6c-0.1-0.1-0.2-0.2-0.2-0.3c-0.2,0.3-0.6,0.6-1.2,0.8c0.2,0.4,0.3,0.8,0.4,1.2
	C293.1,181.7,295.3,180.8,294.8,179.2z M197.3,104.7c3.4,0.3,5.9,1.9,5.9,5.8c0,5.9-20.2,4.1-23.7,3.7c-3.2,0-3.2-1.2-1.4-2.8
	c-0.2-0.3-0.3-0.6-0.3-0.9c0-0.9,0.7-1.7,1.7-1.7h2.2c-2-9.2,1.9-3.7-8.2-9c7.3-9.8,5.4-1.7,3.1-13.7c12.3-0.4,4.6,3.3,12.6-6.1
	c8,9.4,0.3,5.7,12.6,6.1c-2.3,12-4.2,3.9,3.1,13.7C196.8,104,197.6,101.5,197.3,104.7z M189.1,104.5c-0.8,0.8-1.7,1.5-2.5,2.3
	c1.2-0.5,2.5-0.9,3.7-1.2C189.9,105.2,189.5,104.8,189.1,104.5z"/>
<linearGradient id="SVGID_12_" gradientUnits="userSpaceOnUse" x1="425.0219" y1="430.582" x2="641.0111" y2="123.0973">
	<stop  offset="0" style="stop-color:#3C5894"/>
	<stop  offset="1" style="stop-color:#4FBBC3"/>
</linearGradient>
<path class="st11" d="M569.8,356.1H370.1c-5.8,0-10.5,4.7-10.5,10.5c0,5.8,4.7,10.5,10.5,10.5h199.7c5.8,0,10.5-4.7,10.5-10.5
	C580.3,360.8,575.6,356.1,569.8,356.1z"/>
</svg>
