<svg id="Layer_2" data-name="Layer 2" xmlns="http://www.w3.org/2000/svg" viewBox="0 0 38.44 36.25"><defs><style>.cls-1{fill:#ca2026;}</style></defs><title>ico-error</title><path class="cls-1" d="M38.6,34.24,21.84,2.81a2.43,2.43,0,0,0-2.14-1.27,2.4,2.4,0,0,0-2.12,1.27L.73,34.24a2.4,2.4,0,0,0,.06,2.37,2.42,2.42,0,0,0,2.08,1.18H36.47a2.42,2.42,0,0,0,2.12-3.55ZM19.71,33a2.41,2.41,0,1,1,2.42-2.4A2.41,2.41,0,0,1,19.71,33Zm2.42-9.63a2.42,2.42,0,0,1-4.84,0V13.66a2.42,2.42,0,1,1,4.84,0Zm0,0" transform="translate(-0.45 -1.54)"/></svg>