<?xml version="1.0" encoding="utf-8"?>
<!-- Generator: Adobe Illustrator 23.0.1, SVG Export Plug-In . SVG Version: 6.00 Build 0)  -->
<svg version="1.1" id="Layer_1" xmlns="http://www.w3.org/2000/svg" xmlns:xlink="http://www.w3.org/1999/xlink" x="0px" y="0px"
	 viewBox="0 0 724 578.9" style="enable-background:new 0 0 724 578.9;" xml:space="preserve">
<style type="text/css">
	.st0{fill:url(#SVGID_1_);}
	.st1{fill:url(#SVGID_2_);}
</style>
<title>ico-home</title>
<g>
	<g>
		<g>
			
				<linearGradient id="SVGID_1_" gradientUnits="userSpaceOnUse" x1="271.5234" y1="108.2153" x2="490.4912" y2="552.7864" gradientTransform="matrix(1 0 0 -1 0 579.87)">
				<stop  offset="0" style="stop-color:#3C5894"/>
				<stop  offset="1" style="stop-color:#4FBBC3"/>
			</linearGradient>
			<path class="st0" d="M561.2,89.8C507.7,36.3,436.6,6.9,361,6.9S214.3,36.3,160.8,89.8S77.9,214.4,77.9,290s29.4,146.7,82.9,200.2
				s124.6,82.9,200.2,82.9s146.7-29.4,200.2-82.9s82.9-124.6,82.9-200.2S614.7,143.2,561.2,89.8z M361,539.9
				c-137.8,0-249.9-112.1-249.9-249.9S223.2,40,361,40S610.9,152.2,610.9,290S498.8,539.9,361,539.9z"/>
		</g>
	</g>
	<g>
		<g>
			
				<linearGradient id="SVGID_2_" gradientUnits="userSpaceOnUse" x1="269.7409" y1="104.5964" x2="493.0707" y2="558.0236" gradientTransform="matrix(1 0 0 -1 0 579.87)">
				<stop  offset="0" style="stop-color:#3C5894"/>
				<stop  offset="1" style="stop-color:#4FBBC3"/>
			</linearGradient>
			<path class="st1" d="M379.2,273.1H343c-20.6,0-37.4-16.8-37.4-37.4s16.8-37.4,37.4-37.4h72.5c9.4,0,16.9-7.6,16.9-16.9
				c0-9.4-7.6-16.9-16.9-16.9h-37.6v-37.4c0-9.4-7.6-16.9-16.9-16.9s-16.9,7.6-16.9,16.9v37.4h-1.2c-39.3,0-71.3,32-71.3,71.3
				s32,71.3,71.3,71.3H379c20.6,0,37.4,16.8,37.4,37.4s-16.8,37.4-37.4,37.4h-72.5c-9.4,0-16.9,7.6-16.9,16.9s7.6,16.9,16.9,16.9
				h37.6v37.4c0,9.4,7.6,16.9,16.9,16.9c9.4,0,16.9-7.6,16.9-16.9v-37.4h1.2c39.3,0,71.3-32,71.3-71.3S418.4,273.1,379.2,273.1z"/>
		</g>
	</g>
</g>
</svg>
