<?xml version="1.0" encoding="utf-8"?>
<!-- Generator: Adobe Illustrator 21.1.0, SVG Export Plug-In . SVG Version: 6.00 Build 0)  -->
<svg version="1.1" id="Layer_1" xmlns="http://www.w3.org/2000/svg" xmlns:xlink="http://www.w3.org/1999/xlink" x="0px" y="0px"
	 viewBox="0 0 38.9 37.8" style="enable-background:new 0 0 38.9 37.8;" xml:space="preserve">
<style type="text/css">
	.st0{fill:#666766;}
</style>
<title>ico-medical</title>
<g>
	<g>
		<path class="st0" d="M27.6,37.8c-0.2,0-0.4-0.1-0.6-0.3l-2.3-2.9c-0.1-0.1-0.2-0.2-0.2-0.3H4.1c-0.4,0-0.8-0.3-0.8-0.8V16.7
			c0-0.2,0.1-0.5,0.3-0.6l13.2-10C16.9,6,17.1,6,17.2,6c0.2,0,0.3,0.1,0.5,0.2l13.2,10c0.2,0.1,0.3,0.4,0.3,0.6v2.5l0,0.9
			c0.2,0,0.6-0.1,0.8-0.1c0.1,0,0.2,0,0.3,0c0.1,0,0.2,0,0.3,0c1.8,0.1,3.3,1.1,4,2.8c0.8,1.7,0.5,3.6-0.6,5.1l-7.8,9.7
			C28.1,37.7,27.9,37.8,27.6,37.8z M22.8,21.5c-1.2,0.1-2.3,0.8-2.8,1.9c-0.5,1.2-0.3,2.5,0.4,3.5l6.6,8.2c0.1,0.2,0.4,0.3,0.6,0.3
			c0.2,0,0.5-0.1,0.6-0.3l6.6-8.2c0.8-1,1-2.3,0.4-3.5c-0.5-1.1-1.5-1.9-2.7-1.9l-0.2,0c-2.2,0-3.9,1.8-3.9,3.9
			c0,0.4-0.3,0.8-0.8,0.8c-0.4,0-0.8-0.3-0.8-0.8c0-2.2-1.8-3.9-3.9-3.9L22.8,21.5z M17.2,7.9c-0.2,0-0.3,0.1-0.5,0.2L5.1,16.9
			c-0.2,0.1-0.3,0.4-0.3,0.6V32c0,0.4,0.3,0.8,0.8,0.8h16l1.7,0c-0.3-0.4-0.9-1.1-1.1-1.3l-2.9-3.7c-1.2-1.4-1.4-3.4-0.6-5.1
			c0.7-1.7,2.3-2.7,4-2.8c0.1,0,0.2,0,0.3,0c1.6,0,3,0.7,4.1,1.9c0.1,0.2,0.4,0.3,0.6,0.3c0.2,0,0.4-0.1,0.6-0.3
			c0.3-0.4,0.7-0.7,1.1-1c0.2-0.1,0.3-0.2,0.3-0.2v-3.2c0-0.2-0.1-0.5-0.3-0.6L17.7,8C17.6,7.9,17.4,7.9,17.2,7.9z"/>
	</g>
	<g>
		<path class="st0" d="M27.6,37.6c-0.2,0-0.3-0.1-0.4-0.2l-2.3-2.9c-0.2-0.2-0.3-0.4-0.3-0.4H4.1c-0.3,0-0.6-0.3-0.6-0.6V16.7
			c0-0.2,0.1-0.4,0.2-0.5l13.2-10c0.1-0.1,0.2-0.1,0.3-0.1c0.1,0,0.2,0,0.3,0.1l13.2,10c0.1,0.1,0.2,0.3,0.2,0.5v2.5
			c0,0.3,0,1.1,0,1.1s0.7-0.1,1-0.1c0,0,0,0,0,0c0.1,0,0.2,0,0.3,0c0.1,0,0.2,0,0.3,0c1.7,0.1,3.2,1.1,3.9,2.7
			c0.7,1.6,0.5,3.5-0.6,4.9l-7.8,9.7C28,37.6,27.8,37.6,27.6,37.6z M22.8,21.3c-1.3,0.1-2.4,0.8-2.9,2c-0.5,1.2-0.4,2.6,0.5,3.7
			l6.6,8.2c0.2,0.2,0.5,0.4,0.7,0.4c0.3,0,0.6-0.1,0.7-0.4l6.6-8.2c0.8-1,1-2.4,0.5-3.7c-0.5-1.2-1.6-2-2.9-2l-0.2,0
			c-2.3,0-4.1,1.8-4.1,4.1c0,0.3-0.3,0.6-0.6,0.6c-0.3,0-0.6-0.3-0.6-0.6c0-2.3-1.8-4.1-4.1-4.1L22.8,21.3z M17.2,7.7
			c-0.2,0-0.4,0.1-0.6,0.2L5,16.7c-0.2,0.2-0.4,0.5-0.4,0.8V32c0,0.5,0.4,1,1,1h16c0.4,0,2.1,0,2.1,0s-1.1-1.3-1.3-1.6l-2.9-3.7
			c-1.1-1.4-1.3-3.3-0.6-4.9c0.7-1.6,2.2-2.6,3.9-2.7c0.1,0,0.2,0,0.3,0c1.5,0,2.9,0.7,3.9,1.8c0.2,0.2,0.4,0.3,0.7,0.3
			c0.3,0,0.5-0.1,0.7-0.3c0.3-0.4,0.7-0.7,1.1-0.9c0.3-0.2,0.4-0.3,0.4-0.3v-3.3c0-0.3-0.1-0.6-0.4-0.8L17.8,7.9
			C17.7,7.8,17.4,7.7,17.2,7.7z"/>
	</g>
	<path class="st0" d="M31.8,12.9c-0.2,0-0.3-0.1-0.5-0.2L17.7,2c-0.1-0.1-0.3-0.2-0.5-0.2c-0.2,0-0.3,0.1-0.5,0.2L3.1,12.7
		c-0.1,0.1-0.3,0.2-0.5,0.2c-0.2,0-0.5-0.1-0.6-0.3c-0.3-0.3-0.2-0.8,0.1-1.1L16.8,0.1c0.1-0.1,0.3-0.2,0.5-0.2
		c0.2,0,0.3,0.1,0.5,0.2l14.6,11.4c0.3,0.3,0.4,0.7,0.2,1.1C32.3,12.8,32.1,12.9,31.8,12.9z"/>
	<path class="st0" d="M31.8,12.7c-0.1,0-0.2,0-0.3-0.1L17.8,1.9c-0.2-0.1-0.4-0.2-0.6-0.2s-0.4,0.1-0.6,0.2L3,12.6
		c-0.1,0.1-0.2,0.1-0.3,0.1c-0.2,0-0.4-0.1-0.5-0.2c-0.2-0.3-0.1-0.6,0.1-0.8L16.9,0.2c0.1-0.1,0.2-0.1,0.3-0.1c0.1,0,0.2,0,0.3,0.1
		l14.6,11.4c0.3,0.2,0.3,0.6,0.1,0.8C32.2,12.6,32,12.7,31.8,12.7z"/>
</g>
</svg>
