<?xml version="1.0" encoding="utf-8"?>
<!-- Generator: Adobe Illustrator 21.1.0, SVG Export Plug-In . SVG Version: 6.00 Build 0)  -->
<svg version="1.1" id="Layer_1" xmlns="http://www.w3.org/2000/svg" xmlns:xlink="http://www.w3.org/1999/xlink" x="0px" y="0px"
	 viewBox="0 0 39.6 39.6" style="enable-background:new 0 0 39.6 39.6;" xml:space="preserve">
<title>ico-calendar</title>
<g>
	<path d="M14.4,39.6c-0.3,0-0.7-0.1-0.9-0.4c-0.2-0.2-0.4-0.6-0.4-0.9l0-11.8l-11.8,0c-0.3,0-0.7-0.1-0.9-0.4
		C0.1,25.8,0,25.5,0,25.1l0-10.7c0-0.7,0.6-1.3,1.3-1.3l11.8,0l0-11.8c0-0.7,0.6-1.3,1.3-1.3l10.7,0c0.3,0,0.7,0.1,0.9,0.4
		c0.2,0.2,0.4,0.6,0.4,0.9l0,11.8l11.8,0c0.3,0,0.7,0.1,0.9,0.4c0.2,0.2,0.4,0.6,0.4,0.9l0,10.7c0,0.7-0.6,1.3-1.3,1.3l-11.8,0
		l0,11.8c0,0.7-0.6,1.3-1.3,1.3L14.4,39.6z M14.4,23.8c0.3,0,0.7,0.1,0.9,0.4c0.2,0.2,0.4,0.6,0.4,0.9l0,11.8l8.1,0l0-11.8
		c0-0.7,0.6-1.3,1.3-1.3l11.8,0l0-8.1l-11.8,0c-0.3,0-0.7-0.1-0.9-0.4c-0.2-0.2-0.4-0.6-0.4-0.9l0-11.8l-8.1,0l0,11.8
		c0,0.7-0.6,1.3-1.3,1.3l-11.8,0l0,8.1L14.4,23.8z"/>
</g>
</svg>
