<?xml version="1.0" encoding="utf-8"?>
<!-- Generator: Adobe Illustrator 21.1.0, SVG Export Plug-In . SVG Version: 6.00 Build 0)  -->
<svg version="1.1" id="Capa_1" xmlns="http://www.w3.org/2000/svg" xmlns:xlink="http://www.w3.org/1999/xlink" x="0px" y="0px"
	 viewBox="0 0 512 512" style="enable-background:new 0 0 512 512;" xml:space="preserve">
<style type="text/css">
	.st0{fill:url(#SVGID_1_);}
	.st1{fill:url(#SVGID_2_);}
	.st2{fill:url(#SVGID_3_);}
	.st3{fill:url(#SVGID_4_);}
</style>
<g>
	<linearGradient id="SVGID_1_" gradientUnits="userSpaceOnUse" x1="253.4644" y1="328.2449" x2="227.4644" y2="67.2449">
		<stop  offset="0" style="stop-color:#3C5894"/>
		<stop  offset="1" style="stop-color:#4FBBC3"/>
	</linearGradient>
	<path class="st0" d="M487.4,231.3h-29.2v-52.4c0-12.6-10.3-22.8-22.8-22.8h-10.6V5.7H90.7v16.8H65.6v16.7H40.5v58.5H29.8
		C17.3,97.6,7,107.9,7,120.4v365h0.1c0,4.7,1.4,9.3,4.4,13.2c4.1,5.4,10.3,8.4,17,8.4h373.9c9.7,0,18.1-6.5,20.5-15.1l85.3-234.3
		v-1.5C508.3,241.7,499.5,231.3,487.4,231.3z M435.4,172.8c3.3,0,6.1,2.7,6.1,6.1v52.4h-16.7v-58.5h10.5V172.8z M408.1,22.5v133.7
		v75.2H113.5c-2,0-3.8,0.3-5.6,0.9c-0.2,0-0.3,0-0.5,0.1V22.5H408.1z M90.7,39.1v213.6l-0.5,1.4l-7.9,21.6V39.1H90.7z M57.2,55.8
		h8.3v265.7l-8.3,22.9V97.6V55.8z M23.9,120.4c0-3.3,2.7-6.1,6.1-6.1h10.6v275.2l-16.8,45.6V120.4z M407,486.7
		c-0.5,2.1-2.4,3.5-4.6,3.5H28.6c-2,0-3.3-1.2-3.7-1.9c-0.5-0.7-1.3-2.2-1-3.4l16.7-46l0,0l25.1-68.7l0,0l25.1-68.7l0,0l3.9-10.7
		l12.8-35.1v-0.1l1.5-4.3c0.5-2.1,2.4-3.5,4.5-3.5h294.6h16.7h33.3h29.2c3.2,0,4.1,4.5,4.2,6.8L407,486.7z"/>
	<linearGradient id="SVGID_2_" gradientUnits="userSpaceOnUse" x1="276.2986" y1="325.9702" x2="250.2986" y2="64.9703">
		<stop  offset="0" style="stop-color:#3C5894"/>
		<stop  offset="1" style="stop-color:#4FBBC3"/>
	</linearGradient>
	<path class="st1" d="M157.5,147.7h200.5c4.6,0,8.3-3.7,8.3-8.3s-3.7-8.3-8.3-8.3H157.5c-4.6,0-8.3,3.7-8.3,8.3
		C149.1,144,152.9,147.7,157.5,147.7z"/>
	<linearGradient id="SVGID_3_" gradientUnits="userSpaceOnUse" x1="224.1849" y1="331.1617" x2="198.1849" y2="70.1617">
		<stop  offset="0" style="stop-color:#3C5894"/>
		<stop  offset="1" style="stop-color:#4FBBC3"/>
	</linearGradient>
	<path class="st2" d="M157.5,89.3H241c4.6,0,8.3-3.7,8.3-8.3c0-4.6-3.7-8.3-8.3-8.3h-83.6c-4.6,0-8.3,3.7-8.3,8.3
		C149.1,85.5,152.9,89.3,157.5,89.3z"/>
	<linearGradient id="SVGID_4_" gradientUnits="userSpaceOnUse" x1="270.5329" y1="326.5446" x2="244.5329" y2="65.5446">
		<stop  offset="0" style="stop-color:#3C5894"/>
		<stop  offset="1" style="stop-color:#4FBBC3"/>
	</linearGradient>
	<path class="st3" d="M157.5,206.2h200.5c4.6,0,8.3-3.7,8.3-8.3c0-4.6-3.7-8.3-8.3-8.3H157.5c-4.6,0-8.3,3.7-8.3,8.3
		C149.1,202.4,152.9,206.2,157.5,206.2z"/>
</g>
</svg>
