<svg id="Layer_2" data-name="Layer 2" xmlns="http://www.w3.org/2000/svg" viewBox="0 0 36.94 31.32"><defs><style>.cls-1{fill:#21b448;}.cls-2{font-size:10px;fill:#fff;font-family:OpenSans-Bold, Open Sans;font-weight:700;}</style></defs><title>ico-email-waiting</title><path d="M4,12.93l3.86,2.68L12.75,19l.8.57,1,.71c.27.18.6.39,1,.61a5.67,5.67,0,0,0,1.08.51,3,3,0,0,0,.94.17h0a3,3,0,0,0,.94-.17,5.76,5.76,0,0,0,1.08-.51c.38-.23.71-.43,1-.61l1-.71.8-.57,8.81-6.12a8.93,8.93,0,0,0,2.29-2.31,5,5,0,0,0,.92-2.84,3,3,0,0,0-3-3H3.74a2.69,2.69,0,0,0-2.23,1A3.8,3.8,0,0,0,.73,8.18a4.39,4.39,0,0,0,1,2.57A9.33,9.33,0,0,0,4,12.93Zm0,0" transform="translate(-0.73 -4.76)"/><path d="M32.56,14.94q-6.17,4.18-9.37,6.49-1.07.79-1.74,1.23a10.59,10.59,0,0,1-1.78.9,5.41,5.41,0,0,1-2.07.46h0a5.41,5.41,0,0,1-2.07-.46,10.66,10.66,0,0,1-1.78-.9q-.67-.44-1.74-1.23-2.54-1.86-9.35-6.49A10,10,0,0,1,.73,13.3V28.24a2.9,2.9,0,0,0,.88,2.13,2.9,2.9,0,0,0,2.13.88H31.44a3,3,0,0,0,3-3V13.3a10.42,10.42,0,0,1-1.88,1.64Zm0,0" transform="translate(-0.73 -4.76)"/><circle class="cls-1" cx="28.83" cy="23.21" r="8.11"/><text class="cls-2" transform="translate(25.72 26.49)">1</text></svg>