<svg id="Layer_1" data-name="Layer 1" xmlns="http://www.w3.org/2000/svg" viewBox="0 0 76 76"><defs><style>.cls-1{fill:#1057a7;}</style></defs><title>ico-help-blue</title><path d="M38,38" transform="translate(-0.02 -0.05)"/><path class="cls-1" d="M38,.05a38,38,0,1,0,38,38A38,38,0,0,0,38,.05Zm0,4.32A33.68,33.68,0,1,1,4.35,38.05,33.68,33.68,0,0,1,38,4.37Z" transform="translate(-0.02 -0.05)"/><rect class="cls-1" x="32.77" y="51.41" width="6.79" height="6.79"/><path class="cls-1" d="M49.09,28A13.29,13.29,0,0,0,33,18.19,13.57,13.57,0,0,0,22.6,31.26h6.79A6.73,6.73,0,1,1,42.8,32.45,7.12,7.12,0,0,1,35.67,38a3,3,0,0,0-3.06,3.06h0v7.13h6.79v-3.9A13.66,13.66,0,0,0,49.09,28Z" transform="translate(-0.02 -0.05)"/></svg>