<?xml version="1.0" encoding="utf-8"?>
<!-- Generator: Adobe Illustrator 23.0.1, SVG Export Plug-In . SVG Version: 6.00 Build 0)  -->
<svg version="1.1" id="Layer_1" xmlns="http://www.w3.org/2000/svg" xmlns:xlink="http://www.w3.org/1999/xlink" x="0px" y="0px"
	 viewBox="0 0 724 478.9" style="enable-background:new 0 0 724 478.9;" xml:space="preserve">
<style type="text/css">
	.st0{fill:#FFFFFF;}
</style>
<title>ico-home</title>
<g>
	<g>
		<path class="st0" d="M553.98,473.9c-7.55,0-15.13-0.97-22.51-2.88c-31.47-8.23-55.99-32.75-64-64l-0.39-1.5H265.41l-0.39,1.5
			c-10.21,39.38-45.73,66.89-86.36,66.89c0,0,0,0,0,0c-7.55,0-15.13-0.97-22.51-2.88c-31.47-8.23-55.99-32.75-64-64l-0.39-1.5H70.47
			c-38.15,0-69.2-31.56-69.2-70.35v-64.44c-0.16-27.28,15.78-52.25,40.6-63.62l65-29.68l57.21-91.27
			C180.18,60.38,207.95,45,238.36,45l165.18,0c27.45,0,53.71,12.92,70.26,34.57l73.91,96.72l123.15,33.72
			C700.97,218.3,722,245.97,722,277.3v57.86c0,38.79-31.04,70.35-69.2,70.35h-12.07l-0.39,1.5
			C630.13,446.39,594.62,473.9,553.98,473.9z M553.99,323.96c-33.29,0-60.37,27.08-60.37,60.37c-0.08,16.03,6.16,31.15,17.56,42.56
			c11.4,11.4,26.6,17.73,42.8,17.81c33.3,0,60.38-27.08,60.38-60.37S587.27,323.96,553.99,323.96z M178.66,323.96
			c-33.29,0-60.37,27.08-60.37,60.37c-0.08,16.03,6.15,31.15,17.56,42.56c11.4,11.4,26.6,17.73,42.8,17.81
			c33.3,0,60.38-27.08,60.38-60.37S211.95,323.96,178.66,323.96z M553.79,295.32c3.32,0,6.68,0.19,10,0.56
			c20.13,2.18,39.1,11.27,53.42,25.61c14.29,14.32,23.37,33.26,25.55,53.35l0.19,1.78h10.02c22.23,0,40.31-18.6,40.31-41.46V277.3
			c0.17-18.29-12.13-34.57-29.9-39.58l-128.1-35.03c-3.2-0.91-5.84-2.7-7.62-5.16L451,97.03c-11.47-14.72-28.76-23.15-47.46-23.15
			l-165.18,0c-20.27,0-39.38,10.57-49.89,27.59l-59.51,95.03c-1.36,2.31-3.56,4.25-6.23,5.5l-68.71,31.4
			c-14.57,6.76-23.87,21.42-23.7,37.36v62.42h-0.16v2c0,22.86,18.08,41.46,40.31,41.46h19.22l0.19-1.79
			c4.9-45.33,42.98-79.52,88.58-79.52c3.32,0,6.68,0.19,10,0.56c20.13,2.18,39.1,11.27,53.42,25.61
			c14.3,14.32,23.37,33.26,25.55,53.35l0.19,1.78h197.39l0.19-1.79C470.12,329.51,508.2,295.32,553.79,295.32z"/>
	</g>
</g>
</svg>
