<svg id="Layer_1" data-name="Layer 1" xmlns="http://www.w3.org/2000/svg" viewBox="0 0 36.03 41.68"><defs><style>.cls-1{fill:#1057a7;}</style></defs><title>ico-mental-health-blue</title><path class="cls-1" d="M29.27,41.56H15.15l-.34-.72c-1-2.11-1.94-3-2.49-3.17a1.17,1.17,0,0,0-.33,0,16.14,16.14,0,0,0-1.71.14,22.72,22.72,0,0,1-2.53.2h0c-3,0-3.91-1.44-4.12-2.65-.1-.67-.2-1.34-.28-2-.3-2.4-.6-4.87-2.24-6C-1.11,25.8.52,23,1.49,21.4a8,8,0,0,0,1-2.21l-.11-.82c-.63-4.59-1.16-8.54,3-12.77,4-3.81,8.43-5.73,13.07-5.73A19.29,19.29,0,0,1,32.64,6.72l0,0c2.9,3.64,4.65,10.3,2.2,15.48a26.32,26.32,0,0,1-2.12,3.4c-1.54,2.25-3.32,4.85-2.55,7.25,0,0,1.5,6.41.33,8A1.54,1.54,0,0,1,29.27,41.56Zm-12.56-2.5H28.49a31.41,31.41,0,0,0-.7-5.48c-1.12-3.51,1.12-6.78,2.91-9.4a24,24,0,0,0,1.92-3.07c1.92-4.06.54-9.7-1.91-12.8A16.77,16.77,0,0,0,18.39,2.38c-3.94,0-7.75,1.69-11.28,5C3.89,10.71,4.28,13.62,4.88,18l.11.86c.15,1.1-.47,2.27-1.35,3.79S2.42,25,2.52,25.27c2.59,1.79,3,5.11,3.32,7.77.08.63.17,1.27.26,1.9,0,.14.1.55,1.63.55a19.94,19.94,0,0,0,2.22-.18,18.86,18.86,0,0,1,2-.16,4,4,0,0,1,1,.1C14.32,35.63,15.58,36.9,16.71,39.06Z" transform="translate(0 0.12)"/><path class="cls-1" d="M23.16,9.37l1.11-1.12a1,1,0,1,1,1.4,1.4l-1.11,1.09a1,1,0,0,1-1.4-1.4Z" transform="translate(0 0.12)"/><path class="cls-1" d="M17.55,6.28a1,1,0,1,1,2,0V7.86a1,1,0,0,1-2,0Z" transform="translate(0 0.12)"/><path class="cls-1" d="M11.4,8.28a1,1,0,0,1,1.4,0L13.92,9.4a1,1,0,0,1-1.4,1.4L11.39,9.65a1,1,0,0,1,0-1.4Z" transform="translate(0 0.12)"/><path class="cls-1" d="M9.4,16.4a1,1,0,0,1,0-2H11a1,1,0,0,1,0,2Z" transform="translate(0 0.12)"/><path class="cls-1" d="M13.88,21.4l-1.12,1.12a1,1,0,0,1-1.4-1.4L12.48,20a1,1,0,0,1,1.4,1.4Z" transform="translate(0 0.12)"/><path class="cls-1" d="M19.49,24.49a1,1,0,0,1-2,0V22.92a1,1,0,1,1,2,0Z" transform="translate(0 0.12)"/><path class="cls-1" d="M18.41,20.83h0a5.18,5.18,0,1,1,.17,0Zm.08-8.89a3.44,3.44,0,0,0,0,6.88h.14a3.44,3.44,0,0,0-.14-6.89Z" transform="translate(0 0.12)"/><path class="cls-1" d="M25.63,22.52a1,1,0,0,1-1.4,0L23.11,21.4a1,1,0,0,1,1.4-1.4l1.16,1.14a1,1,0,0,1,0,1.39Z" transform="translate(0 0.12)"/><path class="cls-1" d="M27.63,16.37H26.07a1,1,0,1,1,0-2h1.58a1,1,0,0,1,0,2Z" transform="translate(0 0.12)"/></svg>