<svg id="Layer_1" data-name="Layer 1" xmlns="http://www.w3.org/2000/svg" viewBox="0 0 137.67 114.73"><defs><style>.cls-1{fill:#fff;}</style></defs><title>ico-menu-open</title><path class="cls-1" d="M139.44,19.66a5.42,5.42,0,0,0-5.74-5.74H7.51a5.42,5.42,0,0,0-5.74,5.74V31.11a5.42,5.42,0,0,0,5.74,5.74H133.69a5.42,5.42,0,0,0,5.74-5.74Zm0,0" transform="translate(-1.76 -13.91)"/><path class="cls-1" d="M139.44,65.54a5.43,5.43,0,0,0-5.74-5.74H7.51a5.43,5.43,0,0,0-5.74,5.74V77a5.43,5.43,0,0,0,5.74,5.74H133.69A5.43,5.43,0,0,0,139.44,77Zm0,0" transform="translate(-1.76 -13.91)"/><path class="cls-1" d="M139.44,111.45a5.42,5.42,0,0,0-5.74-5.74H7.51a5.42,5.42,0,0,0-5.74,5.74V122.9a5.42,5.42,0,0,0,5.74,5.74H133.69a5.42,5.42,0,0,0,5.74-5.74Zm0,0" transform="translate(-1.76 -13.91)"/></svg>