<?xml version="1.0" encoding="utf-8"?>
<!-- Generator: Adobe Illustrator 21.1.0, SVG Export Plug-In . SVG Version: 6.00 Build 0)  -->
<svg version="1.1" id="Layer_1" xmlns="http://www.w3.org/2000/svg" xmlns:xlink="http://www.w3.org/1999/xlink" x="0px" y="0px"
	 viewBox="0 0 162.2 162.1" style="enable-background:new 0 0 162.2 162.1;" xml:space="preserve">
<style type="text/css">
	.st0{fill:#AAAAAA;}
	.st1{fill:#0077B7;}
</style>
<title>ico-claims</title>
<path class="st0" d="M81.1,162.1C36.4,162.1,0,125.7,0,81S36.4-0.1,81.1-0.1s81.1,36.4,81.1,81.1S125.8,162.1,81.1,162.1z M81.1,3.9
	C38.6,3.9,4,38.5,4,81s34.6,77.1,77.1,77.1s77.1-34.6,77.1-77.1S123.6,3.9,81.1,3.9z"/>
<g>
	<path class="st1" d="M82.1,125.8c-0.3,0-0.7-0.2-1.2-0.5l-0.1-0.1c-1.5-1.3-3-2.6-4.4-3.8c-2.4-2.1-4.7-4-7-6l-1-0.8
		c-9.2-7.8-17.1-14.6-22.7-21.2c-6.4-7.5-9.4-14.5-9.4-22.1c0-6.9,2.3-13.3,6.6-18.1c4.4-5.1,10.5-7.8,17.2-7.8
		c7.6,0,13.9,3.5,18.7,10.4c0.8,1.2,1.7,2.5,2.3,3.7l0.7,1.4l0.7-1.3c0.8-1.4,1.5-2.5,2.4-3.7c4.9-6.9,11.2-10.4,18.8-10.4
		c6.8,0,12.8,2.7,17.4,7.8c4.3,4.8,6.6,11.3,6.6,18.1c0,7.5-3,14.5-9.4,22.1c-5.5,6.5-13.3,13.3-23.7,22.1
		c-3.4,2.8-7.3,6.1-11.3,9.7l-0.2,0.2C83,125.6,82.5,125.8,82.1,125.8z M60.2,49.1c-5.7,0-10.8,2.3-14.4,6.5
		c-3.6,4-5.5,9.6-5.5,15.6c0,14.3,12.3,24.8,30.8,40.8l0.6,0.5c3.3,2.7,6.6,5.5,9.7,8.2l0.5,0.4l0.5-0.4c2.9-2.4,5.6-4.7,8.2-7
		l1.8-1.5c18.8-16.1,31.3-26.7,31.4-41.1c0-6-2-11.6-5.6-15.6c-3.6-4.2-8.7-6.5-14.4-6.5c-7.9,0-12.9,4.8-15.7,8.7
		c-2.5,3.6-3.9,7.1-4.3,8.5c-0.3,0.8-1,1.3-1.8,1.3s-1.5-0.5-1.9-1.4c-0.4-1.3-1.8-4.9-4.3-8.4C73,53.8,67.9,49.1,60.2,49.1z"/>
	<path class="st1" d="M103.9,81.5L103.9,81.5c-1.1,0-1.9-0.8-1.9-1.8V59.5c0-1,0.8-1.8,1.8-1.8h0.1c1,0,1.8,0.8,1.8,1.8v20.1
		C105.7,80.6,104.9,81.5,103.9,81.5z"/>
	<path class="st1" d="M115.7,69.6L115.7,69.6c0,1.1-0.8,1.9-1.8,1.9H93.8c-1,0-1.8-0.8-1.8-1.8v-0.1c0-1,0.8-1.8,1.8-1.8h20.1
		C114.9,67.7,115.7,68.6,115.7,69.6z"/>
</g>
</svg>
