<svg id="Layer_1" data-name="Layer 1" xmlns="http://www.w3.org/2000/svg" viewBox="0 0 40.2 38.61"><defs><style>.cls-1{fill:#0357a3;}</style></defs><title>ico-financial</title><path class="cls-1" d="M43,9.11a24.76,24.76,0,0,0-4-1.2,18.32,18.32,0,0,0-8.17,0c-.4.09-.79.2-1.19.32a2.21,2.21,0,0,1,.55,1.08,8.13,8.13,0,0,1,.08,1A16.68,16.68,0,0,1,41.73,11c-3.39,2-7.87,1.92-11.54.39,0,.42-.05.83-.09,1.25s-.06.72-.08,1.07a15.36,15.36,0,0,0,13-1c0,.6,0,1.2,0,1.8a14.76,14.76,0,0,1-13,.67q0,1.17,0,2.35A17,17,0,0,0,43,17c0,.69,0,1.39,0,2.08-4.17,2-8.73,1.55-13,.26q0,.61,0,1.22l.4-.07a11.13,11.13,0,0,1,8.13,2,16.68,16.68,0,0,0,4.47-1.05c0,.53,0,1.07,0,1.6a13.06,13.06,0,0,1-2.45,1.28,12.31,12.31,0,0,1,1.34,1.82c.37-.16.74-.34,1.1-.54,0,.76,0,1.52,0,2.28,0,.06-.05.13-.14.21a12.47,12.47,0,0,1,.6,2.08,15.26,15.26,0,0,0,1.3-.89.89.89,0,0,0,.37-.65,1.15,1.15,0,0,0,.05-.34c0-4.56,0-9.11.11-13.67a22.3,22.3,0,0,0,.11-3.74C45.18,10.11,43.57,9.36,43,9.11Z" transform="translate(-5.17 -5.13)"/><path class="cls-1" d="M20.52,33.49l-.08,0a18.29,18.29,0,0,1-2.65.29h-.65a16.72,16.72,0,0,1-3.48-.36,13.51,13.51,0,0,1-2.82-.93c-.38-.18-2.71-1.2-2.71-1.64,0-.95,0-1.9,0-2.84a21.37,21.37,0,0,0,9.35,2.24A18.59,18.59,0,0,0,20.68,30a12.24,12.24,0,0,1,1-3.06,15.78,15.78,0,0,1-4.28.59,18.64,18.64,0,0,1-9-2.43,1.47,1.47,0,0,0-.3-.12c0-.9,0-1.8,0-2.7a32.3,32.3,0,0,0,10.44,1.94,21.46,21.46,0,0,0,5.66-.74A11.43,11.43,0,0,1,26,22.1a11.09,11.09,0,0,1,3-1.33c0-.57,0-1.13,0-1.7s0-1.26,0-1.89c0-.8,0-1.61,0-2.41,0-.2,0-.4,0-.6s0-.52,0-.8c.05-.77.14-1.58.17-2.36,0-.12,0-.23,0-.35a7.63,7.63,0,0,0-.08-1.21,1.65,1.65,0,0,0-.58-.89,9.16,9.16,0,0,0-2.31-1.36A30,30,0,0,0,21.41,5.7a21.67,21.67,0,0,0-5-.57,22.56,22.56,0,0,0-5.12.59,21.16,21.16,0,0,0-5.5,2.18,1.22,1.22,0,0,0-.65,1.3,1.46,1.46,0,0,0,0,.3c.26,7.29.27,14.59.27,21.88a1.46,1.46,0,0,0,.07.43,1.13,1.13,0,0,0,.46.82,18.91,18.91,0,0,0,11.56,4,17,17,0,0,0,3.56-.37,12.54,12.54,0,0,1-.5-2.13Q20.55,33.79,20.52,33.49Zm-4-25.62a21.15,21.15,0,0,1,8.35,1.76,14,14,0,0,1-7.3,1.93A17.8,17.8,0,0,1,9.06,9.38,18.88,18.88,0,0,1,16.49,7.87Zm-8.56,4a19.53,19.53,0,0,0,9.36,2.38,17.66,17.66,0,0,0,8.52-2.13c.23-.13.46-.25.68-.38,0,.75,0,1.51-.05,2.26l-.57.3a18.11,18.11,0,0,1-8.36,2.07,17.4,17.4,0,0,1-9.37-2.71L8,13.6C8,13,7.95,12.47,7.93,11.9ZM8,16.8a20,20,0,0,0,9.47,2.35,20.76,20.76,0,0,0,8.42-1.8l.44-.19c0,.87,0,1.75,0,2.62L26,20a17.6,17.6,0,0,1-7.38,1.54A31.2,31.2,0,0,1,8.07,19.37C8.06,18.51,8.05,17.66,8,16.8Z" transform="translate(-5.17 -5.13)"/><path class="cls-1" d="M42.38,30.75q-.11-.5-.27-1t-.38-1a12.43,12.43,0,0,0-1.11-2.1,12,12,0,0,0-1.51-1.83A10.93,10.93,0,0,0,36,22.6a9.28,9.28,0,0,0-3.93-.9,9.54,9.54,0,0,0-1.45.11l-.49.09L29.9,22l-.45.11L29,22.2c-.29.1-.57.2-.85.32a10.57,10.57,0,0,0-1.85,1l-.32.23-.13.1-.45.37-.24.21a11.29,11.29,0,0,0-1,1.08c-.2.24-.39.49-.57.75a11.32,11.32,0,0,0-1.65,3.46c0,.16-.09.33-.13.49s-.07.32-.1.48h0a11,11,0,0,0-.18,1.61c0,.16,0,.31,0,.46s0,.31,0,.46c0,.32,0,.64.09,1A11.41,11.41,0,0,0,22,36l.14.42.16.42a10.77,10.77,0,0,0,9.86,6.91,10.2,10.2,0,0,0,1.45-.1,12.63,12.63,0,0,0,7.17-4.35,10.26,10.26,0,0,0,1.68-8.11C42.46,31,42.42,30.89,42.38,30.75Zm-18-1.34c.08-.2.17-.4.26-.59a9.06,9.06,0,0,1,1.35-2,8.61,8.61,0,0,1,3-2.2l.45-.17.45-.16.35-.09.36-.09a7.34,7.34,0,0,1,1.49-.16,7.26,7.26,0,0,1,4.12,1.31,9.21,9.21,0,0,1,2.09,2,10.66,10.66,0,0,1,1.39,2.38,10.1,10.1,0,0,1,.61,2s0,.06,0,.09A8,8,0,0,1,39,38a10.37,10.37,0,0,1-5.69,3.46,8.09,8.09,0,0,1-1.13.08,8.53,8.53,0,0,1-7.77-5.43c-.06-.14-.11-.28-.16-.42s-.09-.28-.14-.43a9.26,9.26,0,0,1-.3-1.34,8.5,8.5,0,0,1-.07-1.46c0-.17,0-.34,0-.5s0-.35.05-.52A8.86,8.86,0,0,1,24.17,30C24.23,29.78,24.3,29.6,24.38,29.41Z" transform="translate(-5.17 -5.13)"/><path class="cls-1" d="M28,30.36a3.36,3.36,0,0,0,.93,1.39,2.92,2.92,0,0,0,.39.29,2.67,2.67,0,0,0,.41.21l.08,0a9.47,9.47,0,0,0,1.51.38c0,1,.06,2,.07,3.16A5.93,5.93,0,0,1,30,34.72a1,1,0,0,0-.73-.34,1.12,1.12,0,0,0-1,.66.94.94,0,0,0,.19,1,7.91,7.91,0,0,0,3,2v.33a1,1,0,0,0,.29.74,1.13,1.13,0,0,0,.79.32.93.93,0,0,0,1-1v-.06a3.28,3.28,0,0,0,2.19-.86,4.75,4.75,0,0,0,1.61-3.42,2.58,2.58,0,0,0-.74-1.74,3.09,3.09,0,0,0-.27-.25,6.91,6.91,0,0,0-3-1.23c0-.29,0-.58,0-.88q0-.7-.06-1.4a6.22,6.22,0,0,1,1,.35.92.92,0,0,0,1.31-.7,1.13,1.13,0,0,0-.17-.89,1,1,0,0,0-.42-.35,7.4,7.4,0,0,0-1.8-.55h0a1.1,1.1,0,0,0-1.12-1,1,1,0,0,0-.7.28.9.9,0,0,0-.24.68h0a5.7,5.7,0,0,0-.62.11,4.79,4.79,0,0,0-.57.17,4,4,0,0,0-.45.2,3.71,3.71,0,0,0-.45.27,3.28,3.28,0,0,0-.53.47,2.39,2.39,0,0,0-.24.32,2.64,2.64,0,0,0-.3,2.07A3,3,0,0,0,28,30.36Zm7.25,4a2.66,2.66,0,0,1-1,1.76,1.65,1.65,0,0,1-.74.27c0-1.15,0-2.23-.07-3.29a4.89,4.89,0,0,1,1.55.67A.66.66,0,0,1,35.25,34.32Zm-4-3.8-.41-.1a1.18,1.18,0,0,1-.91-.92.64.64,0,0,1,.12-.45,1,1,0,0,1,.39-.32,2.63,2.63,0,0,1,.73-.23c0,.34,0,.68,0,1Z" transform="translate(-5.17 -5.13)"/></svg>