<?xml version="1.0" encoding="utf-8"?>
<svg version="1.1" id="Layer_1" xmlns="http://www.w3.org/2000/svg" xmlns:xlink="http://www.w3.org/1999/xlink" x="0px" y="0px"
	 width="460px" height="478.9px" viewBox="0 0 460 478.9" style="enable-background:new 0 0 460 478.9;" xml:space="preserve">
<style type="text/css">
	.st0{fill:#FFFFFF;}
</style>
<title>ico-home</title>
<path class="st0" d="M459.9,181.3c-0.5-4.2-2.8-8.1-6.2-10.6L239.7,3.2C233.9-1.1,226-1,220.4,3.3L6.4,170.7
	c-7.1,5.4-8.4,15.6-3.1,22.7c5.3,7.1,15.3,8.5,22.4,3.2c0,0,0.1,0,0.1-0.1L230.1,36.4l204.4,160c2.8,2.1,6.1,3.2,9.6,3.2
	c5,0,9.8-2.3,12.7-6.4C459.4,189.8,460.5,185.5,459.9,181.3z M418.8,236.3L239.8,92c-5.7-4.4-13.6-4.4-19.3,0l-179,144.2
	c-4,3.1-6.4,7.8-6.4,12.9v213.6c0,8.9,7.1,16.1,16,16.2H409c8.9,0,16-7.3,16-16.2c0,0,0,0,0,0V249.1
	C425,244.1,422.7,239.4,418.8,236.3L418.8,236.3z M259.1,446.5h-58V344h58V446.5z M393.1,446.5h-102V327.9c0-8.9-7.1-16.1-16-16.1
	h-90c-8.9,0-16,7.2-16,16.1v118.7h-102V257.1l163-131.8l163,131.8V446.5z"/>
</svg>
