<?xml version="1.0" encoding="utf-8"?>
<!-- Generator: Adobe Illustrator 21.1.0, SVG Export Plug-In . SVG Version: 6.00 Build 0)  -->
<svg version="1.1" id="Layer_1" xmlns="http://www.w3.org/2000/svg" xmlns:xlink="http://www.w3.org/1999/xlink" x="0px" y="0px"
	 viewBox="0 0 162.2 162.1" style="enable-background:new 0 0 162.2 162.1;" xml:space="preserve">
<style type="text/css">
	.st0{fill:#AAAAAA;}
	.st1{fill:#0077B7;}
</style>
<title>ico-claims</title>
<path class="st0" d="M81.1,162.1C36.4,162.1,0,125.7,0,81S36.4-0.1,81.1-0.1s81.1,36.4,81.1,81.1S125.8,162.1,81.1,162.1z M81.1,3.9
	C38.6,3.9,4,38.5,4,81s34.6,77.1,77.1,77.1s77.1-34.6,77.1-77.1S123.6,3.9,81.1,3.9z"/>
<path class="st1" d="M47.9,114.6c-3.2,0-5.7-2.6-5.7-5.7V63.8c0-3.2,2.6-5.7,5.7-5.7h2.6c0.7-1.6,2.3-2.7,4-2.7h5.3
	c1.8,0,3.3,1.1,4,2.7h3.5v-3.6c0-3.9,3.2-7.1,7.1-7.1h13.3c3.9,0,7.1,3.2,7.1,7.1v3.6h3.5c0.7-1.6,2.3-2.7,4-2.7h5.3
	c1.8,0,3.3,1.1,4,2.7h2.6c3.2,0,5.7,2.6,5.7,5.7v45.1c0,3.2-2.6,5.7-5.7,5.7C114.2,114.6,47.9,114.6,47.9,114.6z M114.3,111.2
	c1.2,0,2.2-1,2.2-2.2V63.8c0-1.2-1-2.2-2.2-2.2h-2.6c-0.7,1.6-2.3,2.7-4,2.7h-0.9v46.9H114.3z M103.2,111.2v-47h-0.9
	c-1.8,0-3.3-1.1-4-2.7H63.9c-0.7,1.6-2.3,2.7-4,2.7H59v46.9L103.2,111.2L103.2,111.2z M47.9,61.6c-1.2,0-2.2,1-2.2,2.2v45.1
	c0,1.2,1,2.2,2.2,2.2h7.5V64.2h-0.9c-1.8,0-3.3-1.1-4-2.7h-2.6V61.6z M101.4,59.9c0,0.5,0.4,0.9,0.9,0.9h5.3c0.5,0,0.9-0.4,0.9-0.9
	s-0.4-0.9-0.9-0.9h-5.3C101.8,58.9,101.4,59.3,101.4,59.9L101.4,59.9z M54.6,58.9c-0.5,0-0.9,0.4-0.9,0.9s0.4,0.9,0.9,0.9h5.3
	c0.5,0,0.9-0.4,0.9-0.9s-0.4-0.9-0.9-0.9H54.6z M91.3,58.1v-3.6c0-2-1.6-3.6-3.6-3.6H74.5c-2,0-3.6,1.6-3.6,3.6v3.6H91.3z"/>
<path class="st1" d="M114.3,58.6h-2.9c-0.5-1.5-2-2.7-3.7-2.7h-5.3c-1.7,0-3.2,1.1-3.7,2.7h-4.4v-4.1c0-3.6-2.9-6.6-6.6-6.6H74.5
	c-3.6,0-6.6,2.9-6.6,6.6v4.1h-4.4c-0.5-1.5-2-2.7-3.7-2.7h-5.3c-1.7,0-3.2,1.1-3.7,2.7h-2.9c-2.9,0-5.2,2.3-5.2,5.2v45.1
	c0,2.9,2.3,5.2,5.2,5.2h66.4c2.9,0,5.2-2.3,5.2-5.2V63.8C119.5,60.9,117.2,58.6,114.3,58.6L114.3,58.6z M102.3,58.4h5.3
	c0.8,0,1.4,0.6,1.4,1.4s-0.6,1.4-1.4,1.4h-5.3c-0.8,0-1.4-0.6-1.4-1.4l0,0l0,0C100.9,59,101.6,58.4,102.3,58.4L102.3,58.4z
	 M59.9,63.7c1.7,0,3.2-1.1,3.7-2.7h35.1c0.5,1.5,2,2.7,3.7,2.7h1.4v47.9H58.5V63.7H59.9z M70.4,54.5c0-2.2,1.8-4.1,4.1-4.1h13.3
	c2.2,0,4.1,1.8,4.1,4.1v4.1H70.4V54.5z M54.6,58.4h5.3c0.8,0,1.4,0.6,1.4,1.4s-0.6,1.4-1.4,1.4h-5.3c-0.8,0-1.4-0.6-1.4-1.4l0,0l0,0
	C53.2,59,53.8,58.4,54.6,58.4L54.6,58.4z M45.2,108.9V63.8c0-1.5,1.2-2.7,2.7-2.7h2.9c0.5,1.5,2,2.7,3.7,2.7H56v47.9h-8
	C46.4,111.7,45.2,110.4,45.2,108.9L45.2,108.9z M117,108.9c0,1.5-1.2,2.7-2.7,2.7h-8V63.7h1.4c1.7,0,3.2-1.1,3.7-2.7h2.9
	c1.5,0,2.7,1.2,2.7,2.7V108.9z"/>
<path class="st1" d="M95.3,79.3h-7.4v-7.4c0-0.9-0.8-1.8-1.7-1.8H76c-0.9,0-1.6,0.8-1.6,1.8v7.4h-7.5c-0.9,0-1.6,0.8-1.6,1.8v10.2
	c0,0.9,0.7,1.6,1.6,1.6h7.5v7.5c0,0.9,0.7,1.6,1.6,1.6h10.2c0.9,0,1.7-0.7,1.7-1.6v-7.5h7.4c0.9,0,1.7-0.7,1.7-1.6V81
	C97,80.1,96.2,79.3,95.3,79.3z M93.6,89.4h-7.5c-0.9,0-1.6,0.8-1.6,1.8v7.4h-6.8v-7.4c0-0.9-0.8-1.8-1.7-1.8h-7.4v-6.8H76
	c0.9,0,1.7-0.7,1.7-1.6v-7.5h6.8V81c0,0.9,0.7,1.6,1.6,1.6h7.5V89.4z"/>
</svg>
