<?xml version="1.0" encoding="utf-8"?>
<!-- Generator: Adobe Illustrator 21.1.0, SVG Export Plug-In . SVG Version: 6.00 Build 0)  -->
<svg version="1.1" id="Layer_1" xmlns="http://www.w3.org/2000/svg" xmlns:xlink="http://www.w3.org/1999/xlink" x="0px" y="0px"
	 viewBox="0 0 512 512" style="enable-background:new 0 0 512 512;" xml:space="preserve">
<style type="text/css">
	.st0{fill:#444444;}
</style>
<g>
	<g>
		<polygon class="st0" points="294.8,107.3 268,103.4 256,79.1 244,103.4 217.2,107.3 236.6,126.2 232,152.9 256,140.3 280,152.9 
			275.4,126.2 		"/>
	</g>
</g>
<g>
	<g>
		<path class="st0" d="M504.3,181.6c7.3-11,9.5-24.5,6.2-37.2c-3.3-12.7-11.9-23.5-23.6-29.5L277.2,7.1c-13.2-6.8-29.1-6.8-42.3,0
			L25.1,114.9c-11.7,6-20.3,16.7-23.6,29.5c-3.3,12.7-1.1,26.3,6.2,37.2l14.6,22v42.7h-14v63.9l2.2,3.6c1.2,2,13.1,20.1,50.1,37.3
			c47,21.8,112.8,32.9,195.4,32.9s148.3-11.1,195.4-32.9c37-17.2,48.9-35.3,50.1-37.3l2.2-3.6v-63.9h-14v-42.7L504.3,181.6z
			 M473.6,300.6L473.6,300.6c-4.5,4.8-15.8,14.9-38.7,24.9c-29.5,13-84.5,28.4-178.9,28.4s-149.4-15.4-178.9-28.4
			c-22.9-10.1-34.3-20.1-38.7-24.9v-24.2h435.3L473.6,300.6L473.6,300.6z M52.3,246.3v-32.2h407.3v32.2H52.3z M479.2,165l-12.6,19
			H45.4l-12.6-19c-2.6-3.9-3.3-8.5-2.2-13c1.2-4.5,4.1-8.2,8.3-10.3L248.6,33.9c4.6-2.4,10.2-2.4,14.8,0l209.7,107.8
			c4.2,2.1,7.1,5.8,8.3,10.3S481.8,161.1,479.2,165z"/>
	</g>
</g>
<path class="st0" d="M399.8,356.9c0,0-20.3,67.3-90.6,91.5v-12.5H202v12.7c-69.9-23.7-89.4-89.6-89.4-89.6h-32
	c0,0,16.6,96.6,121.4,122V514h107.2v-33.2C414,455,430.6,356.9,430.6,356.9H399.8z M279.2,483.3h-46.4v-16.7h46.4V483.3z"/>
</svg>
