<?xml version="1.0" encoding="utf-8"?>
<!-- Generator: Adobe Illustrator 21.1.0, SVG Export Plug-In . SVG Version: 6.00 Build 0)  -->
<svg version="1.1" id="Layer_1" xmlns="http://www.w3.org/2000/svg" xmlns:xlink="http://www.w3.org/1999/xlink" x="0px" y="0px"
	 viewBox="0 0 38.9 37.8" style="enable-background:new 0 0 38.9 37.8;" xml:space="preserve">
<style type="text/css">
	.st0{fill:#666766;}
</style>
<title>ico-medical</title>
<g>
	<g>
		<g>
			<path class="st0" d="M18.7,20.1c-1.8,0.1-3.6,0.7-5.2,1.7c-1.6,1-2.9,2.4-3.8,4.1c-4.1,0.4-7.7,3.1-9.3,6.9
				C-0.1,34,0,35.2,0.7,36.2c0.7,1,1.8,1.6,3,1.6h31.5c1.2,0,2.3-0.6,3-1.6c0.7-1,0.8-2.3,0.4-3.4c-1.6-3.9-5.2-6.5-9.3-6.9
				c-0.9-1.7-2.2-3.1-3.8-4.1c-1.6-1-3.4-1.6-5.2-1.7L18.7,20.1z M37,35.3c-0.4,0.6-1,0.9-1.7,0.9H3.7c-0.7,0-1.3-0.3-1.7-0.9
				c-0.4-0.6-0.5-1.3-0.2-1.9c1.4-3.4,4.7-5.8,8.4-6c0.3,0,0.5-0.2,0.7-0.4c1.6-3.3,5-5.4,8.6-5.4c3.3,0,6.2,1.6,8,4.3
				c-0.8,0.1-1.6,0.2-2.4,0.4c-0.4,0.1-0.6,0.5-0.5,1c0.1,0.3,0.4,0.6,0.7,0.6c0.1,0,0.1,0,0.2,0c0.9-0.3,1.8-0.4,2.7-0.4l0.5,0
				c3.7,0.2,7,2.6,8.4,6C37.4,34.1,37.4,34.8,37,35.3z"/>
		</g>
	</g>
</g>
<g>
	<g>
		<path class="st0" d="M20.2,20.1v-4.3h3.1c6.2,0,11.2-5,11.2-11.2V0.9c0-0.4-0.3-0.8-0.8-0.8h-3.8c-4.7,0-8.8,2.9-10.4,7.1
			C17.8,3,13.8,0.1,9.1,0.1H5.2c-0.4,0-0.8,0.3-0.8,0.8v3.8c0,6.2,5,11.2,11.2,11.2h3.1v4.3L20.2,20.1z M20.2,11.2
			c0-5.3,4.3-9.6,9.6-9.6h3.1v3.1c0,5.3-4.3,9.6-9.6,9.6h-2l8.4-8.4c0.3-0.3,0.3-0.8,0-1.1c-0.3-0.3-0.8-0.3-1.1,0l-8.4,8.4
			L20.2,11.2L20.2,11.2z M9.2,5.9l8.4,8.4h-2C10.3,14.3,6,10,6,4.7V1.6h3.1c5.3,0,9.6,4.3,9.6,9.6v2l-8.4-8.4
			c-0.3-0.3-0.8-0.3-1.1,0C8.9,5.1,8.9,5.6,9.2,5.9z"/>
	</g>
</g>
</svg>
