<svg id="Layer_1" data-name="Layer 1" xmlns="http://www.w3.org/2000/svg" viewBox="0 0 41.56 39.69"><defs><style>.cls-1{fill:#0357a3;}</style></defs><title>ico-career</title><path class="cls-1" d="M29.68,36.89a1,1,0,0,1,1,1V39.2a1,1,0,0,1-.47.83,1.55,1.55,0,1,0,1.58,0,1,1,0,0,1-.47-.83V37.85a1,1,0,0,1,1-1h5.59V26H33.32a3.48,3.48,0,1,1-4.73,0H26v3.71a1,1,0,0,1-1,1H23.65a1,1,0,0,1-.83-.47,1.55,1.55,0,1,0,0,1.58,1,1,0,0,1,.83-.47H25a1,1,0,0,1,1,1v4.65ZM17,38.82a1,1,0,0,1-1-1,1,1,0,0,1,1-1h7V33.32a3.48,3.48,0,1,1,0-4.73V26H20.32a1,1,0,0,1-1-1V23.65a1,1,0,0,1,.47-.83,1.55,1.55,0,1,0-1.58,0,1,1,0,0,1,.47.83V25a1,1,0,0,1-1,1H12.17v3.71a1,1,0,0,1-1,1H9.86A1,1,0,0,1,9,30.17a1.55,1.55,0,1,0,0,1.58,1,1,0,0,1,.83-.47h1.35a1,1,0,0,1,1,1v4.65h1.12a1,1,0,0,1,1,.95,1,1,0,0,1-1,1H11.21a1,1,0,0,1-1-1V33.32a3.48,3.48,0,1,1,0-4.73V12.15a1,1,0,0,1,1-1h5.47a3.48,3.48,0,1,1,4.73,0H33a1,1,0,0,1,0,1.92H26v3.57a3.48,3.48,0,1,1,0,4.73V24h3.71a1,1,0,0,1,1,1v1.35a1,1,0,0,1-.47.83,1.55,1.55,0,1,0,1.58,0,1,1,0,0,1-.47-.83V25a1,1,0,0,1,1-1h5.59V20.32a1,1,0,0,1,1-1h1.35a1,1,0,0,1,.83.47,1.55,1.55,0,1,0,0-1.58,1,1,0,0,1-.83.47H38.79a1,1,0,0,1-1-1V13.11h-1a1,1,0,1,1,0-1.92h2a1,1,0,0,1,1,1v4.53a3.48,3.48,0,1,1,0,4.73V37.85a1,1,0,0,1-1,1H33.32a3.48,3.48,0,1,1-4.73,0ZM24,24V20.32a1,1,0,0,1,1-1h1.35a1,1,0,0,1,.83.47,1.56,1.56,0,1,0,0-1.58,1,1,0,0,1-.83.47H25a1,1,0,0,1-1-1V13.11H20.32a1,1,0,0,1-1-1V10.8a1,1,0,0,1,.47-.83,1.55,1.55,0,1,0-1.58,0,1,1,0,0,1,.47.83v1.35a1,1,0,0,1-1,1H12.17V24h4.51a3.48,3.48,0,1,1,4.73,0Z" transform="translate(-4.22 -5.16)"/></svg>