<?xml version="1.0" encoding="utf-8"?>
<!-- Generator: Adobe Illustrator 21.1.0, SVG Export Plug-In . SVG Version: 6.00 Build 0)  -->
<svg version="1.1" id="Layer_1" xmlns="http://www.w3.org/2000/svg" xmlns:xlink="http://www.w3.org/1999/xlink" x="0px" y="0px"
	 viewBox="0 0 516 468" style="enable-background:new 0 0 516 468;" xml:space="preserve">
<style type="text/css">
	.st0{fill:#FFFFFF;}
</style>
<g>
	<path class="st0" d="M509,123c0,111.3,0,222.6,0,333.9c-166.5,0-333.1,0-500,0C9,344,9,231,9,118c3.4,10.3,13.1,13.8,20.6,20
		c-3.6-1.4-7.3-2.8-11.2-4.3c0.6,8.9,5.8,14.3,11.4,19.3c-0.7,0.9-1.7,2.2-1.6,2.3c5.5,5.7,11.2,11.2,16.5,16.5
		c-0.5,0.1-2,0.3-4.3,0.7c1.5,1.6,2.3,2.7,3.4,3.6c7.2,5.8,17,7.1,23.6,13.8c0.5,0.5,1.5,0.8,2.2,0.9c5.5,0.7,11,1.5,16.5,2.1
		c1.5,0.2,2.9,0,4.4,0c0,0.3,0,0.7,0,1c-1.7,1.1-3.4,2.2-6.3,3.9c6.6,0.9,11.9,1.6,17.2,2.3c-1.2,3.4,1.4,5.2,6,4.7
		c3.4-0.4,6.8-0.6,10.3-0.9c0.2,0,0.4,0.3,0.9,0.7c-0.9,0.8-1.7,1.6-3.8,3.6c8.2,0,14.9,0,21.7,0c-0.4,1.4-0.8,2.9-1.5,5.2
		c6-0.8,11.2-1.5,16.1-2.1c-0.1,1.2-0.8,3.2-0.2,3.6c1,0.8,2.8,1.1,4.1,0.8c3.6-0.8,7.2-2.1,10.8-3.1c0.3-0.1,0.7,0,1.3,0.1
		c-0.7,1.4-1.3,2.6-2.4,4.9c7-2.1,12.8-3.8,19-5.7c-0.3,1.4-0.6,2.6-1.2,4.8c3.4-1,6.2-1.6,8.9-2.7c3.5-1.4,3.5-1.6,6.5,2.5
		c-31.7,21.3-63.3,42.7-94.9,63.9c-2.2-2.6-4-4.3-5.3-6.3c-3.2-4.9-8.8-9.7-1.9-15.9c0.5-0.5,0.5-1.5,0.7-2.3
		c1.2-3.9-0.4-5.9-4.2-5.8c-3.6,0.1-7.3,0.2-10.7,1.3c-9.9,3.1-11.2,7.3-5.1,15.5c4.3,5.8,8.5,11.6,12.5,17.6c0.6,1,0.5,3.7-0.1,4
		c-5.8,2.8-6.6,11.3-14.5,12.2c-2.3,0.2-4.1,4.7-6.2,7.2c-3.3-2.1-5.4-3.5-7.6-4.9c-2.4-1.4-4.7-3-7.2-4.2
		c-4.7-2.1-11.8-1.6-13.6,1.3c-2.6,4.1-2.1,8.4,0.4,12.6c2.1,3.5,4.1,7,6.5,11.2c-3.7,3-7.3,5.9-10.8,9c-2.4,2.1-4.5,4.3-3.1,8.1
		c1.3,3.6,7.2,6.4,11.5,5.3c4.3-1.1,7.6-3.3,9.9-7.3c1.4-2.6,3.3-5.5,7-3.6c2.7,1.4,5.2,3.4,7.5,5.5c8.5,7.3,16.5,15.2,25.4,22.1
		c15.8,12.4,32,24.4,48.2,36.4c27.2,20.1,56,37.5,87.2,50.5c22.2,9.2,44.6,8.9,66.2-1.9c24.6-12.4,47.7-27.2,69.8-43.7
		c25.4-19,50.8-38.1,76.1-57.2c3-2.3,6-6.5,8.9-6.5c4.3,0,9.4,2.1,12.7,5c4.2,3.8,8.6,6.8,14,7c2.3,0.1,5.2-1.9,6.9-3.9
		c2.6-3,0.4-5.9-2-8.1c-2.6-2.5-5.5-4.7-8.1-7.2c-2.5-2.4-4.7-5.1-6.9-7.5c2.6-3.2,4.8-5.5,6.6-8.1c4.3-6.2,4.5-10.9,0.9-14.8
		c-4.1-4.3-9-4.4-15.7-0.2c-3,1.9-5.9,4.2-9,5.8c-1.7,0.8-5.2,1.3-5.7,0.5c-3.9-6.2-12-7.2-15.9-14c-3.8-6.7-5-6.1,0.3-12
		c1-1.1,2.2-2,3.2-3.2c3.5-4.5,7.3-8.9,10.3-13.8c3-4.9,0.7-9.6-4.9-10.9c-3.3-0.8-6.8-1-10.2-1.2c-1.5-0.1-3.9,0-4.5,0.9
		c-0.8,1.1-0.8,3.8,0,4.8c4.9,5.3,3,9.9-1.1,14.4c-1.2,1.3-2.5,2.7-3.6,4.1c-3.7,4.8-4.7,4.9-9.4,1.5
		c-22.9-16.6-45.8-33.3-68.8-49.8c-6.2-4.5-10.2-9.4-7.8-17.2c3.9,1.5,7.8,3.1,12.6,4.9c-0.4-2.5-0.7-3.9-1-5.8
		c7.4,4.9,15.1,7.1,24,5.8c-0.8-1.4-1.5-2.6-2.2-3.7c6.2,0.7,12.3,1.5,19.4,2.3c-1.6-2.8-2.3-3.9-3.1-5.3c9.8,2.1,14.2,1.4,22.8-3.5
		c0.8-0.4,1.9-0.3,2.8-0.6c7.8-2,15.7-4.1,23.5-6.2c0.5-0.1,0.8-0.8,1.1-1.1c-0.5-0.6-1-1.1-1.3-1.6c-0.1-0.2,0.2-0.6,0.2-0.6
		c7.9-0.5,15.8,0.2,22.8-5.5c-1.3-0.7-2.2-1.3-4.4-2.5c10.7-1.1,19.8-2.9,27-9.7c-1.7-0.8-3-1.5-5-2.4c9.6-1.7,15.9-7.3,17.7-15.2
		c-1.7,0.3-3.4,0.6-5.1,0.8c10.2-2.7,12.8-11.4,16.9-20.2c-3.6,1.1-6.1,1.8-8.6,2.6c1.8-2.3,3.9-3.8,5.8-5.5c2-1.8,4.3-3.6,5.7-5.8
		C505.5,130.5,507.1,126.7,509,123z"/>
	<path class="st0" d="M9,112C9,78.7,9,45.4,9,12c166.7,0,333.3,0,500,0c0,36.3,0,72.7,0,109c-3.3,1.2-6.7,2.4-10,3.6
		c-2.4,0.9-4.8,1.8-8.5,3.1c5.7-7.7,10-14.4,8.8-20.8c-1.3,0.8-2.6,1.5-3.9,2.2c-14.6,7-29.1,14.1-43.8,20.8
		c-2.6,1.2-6.1,0.1-8.7,1.3c-18,8.2-36.7,14.4-56,18.8c-10.5,2.4-21.2,3.8-31.6,6.6c-10,2.7-19.7,6.7-29.6,10.2
		c-5.8,2-6.8,1.5-9.5-5c11.1-7.7,22.2-15.4,33.4-23.1c14.6-10,29.3-19.7,43.7-30c6.7-4.8,11.4-11.5,13.3-20
		c-10-3.5-18.2,0.3-25.8,5.3c-26.2,17.2-52.2,34.8-78.3,52.2c-2.6,1.7-5.2,4-8.6,1c-0.8-0.7-2.9-0.8-3.9-0.3
		c-5.8,2.6-10.5-0.3-10.9-6.9c-0.1-1.9-0.4-3.8-0.6-5.6c-0.4,0-0.7-0.1-1.1-0.1c-0.7,1.6-1.5,3.3-2.3,5.1c-3.3-1.3-4-7.5-8.4-4.8
		c-2.5,1.5-4,4.7-5.9,7.1c0.4,0.4,0.7,0.8,1.1,1.2c-2.4,0.4-4.9,0.8-7.2,1.2c-0.7-3.6-1.3-6.5-1.8-9.3c-4,2.6,1.4,10.2-6.8,10.7
		c-0.3-4.3-0.6-8.3-0.8-12.3c-0.6,0-1.1-0.1-1.7-0.1c-0.3,1.3-0.9,2.6-0.9,3.9c-0.2,5.3-0.2,10.7-0.5,16c-0.3,4.2,1.2,7,5.5,8.1
		c3.1,0.8,4.3,2.5,3.3,6.1c-14.9-10.4-29.5-20.6-44.1-30.9c-21.7-15.3-43.2-30.6-64.9-45.8c-6.9-4.9-14.8-7-23.3-6.1
		c-1.2,0.1-3.3,2.4-3.1,3.1c1.8,5.5,3.1,11.2,8.4,15c13.6,9.7,27.1,19.5,40.5,29.4c16.9,12.4,33.8,24.8,50.6,37.3
		c1.6,1.2,3,2.6,4.5,3.9c-2.3,0.4-4.1,0.2-5.6-0.5c-10.2-4.5-20.2-9.2-30.5-13.5c-6.3-2.6-12.8-5-19.4-6.6c-10.3-2.6-21-3.7-31-6.9
		c-16.1-5.2-31.8-11.6-47.7-17.6c-4.4-1.7-9.5-0.7-13.3-2c-11.5-4.2-22.3-10-33.3-15.4c-5.6-2.8-11.1-6-18-9.8
		c1.6,6.3,2.8,11.3,4.1,16.5c-4.8-2.6-9.4-5.1-13.8-7.4C10.1,110.6,9.5,111.3,9,112z M200.4,81.1c9.9,3.3,18.5,6,26.9,9
		c1.5,0.6,3.5,2.4,3.7,3.9c0.9,6,0.9,12.2,1.7,18.2c0.4,3.3-0.9,3.9-3.8,3.9c-5.4,0.1-10.9,0.3-16.3,1c-5.1,0.7-6.8,4.2-4.9,8.9
		c1.5,3.7,4.4,5,8.3,4.9c12.5-0.1,25-0.2,37.5-0.1c16.9,0.2,33.8,0.7,50.7,1c6.1,0.1,8.6-1.8,8.9-6.7c0.3-3.9-2.4-6.4-7.8-7.1
		c-5.5-0.7-11-1.1-16.2-1.5c0-7.4-0.2-14.5,0.1-21.6c0.1-2.5,1.6-4.7,4.8-5.2c4.3-0.7,8.6-1.9,12.9-2.9c4.4-1,8.8-2.1,13.2-3.1
		c0.1-0.6,0.3-1.3,0.4-1.9c-6.2-5.3-12.3-10.7-18.7-15.8c-4.6-3.6-5.9-6.4-3.7-11.9c1.4-3.5,3.5-6.7,5.1-10c1.8-3.5,3.4-7.2,5.6-12
		c-8.9,1-16.3,2.2-23.8,2.7c-7.3,0.5-8.1,1.3-12.1-5.7c-3.2-5.6-6.6-11.1-10.4-17.4c-1.7,2.2-2.6,3.3-3.5,4.5
		c-4,5.8-7.8,11.7-11.9,17.4c-0.7,1-2.3,2.3-3.3,2.2c-9.1-1.4-18.2-3.2-29.1-5.1c2,5.1,3.6,8.9,5.1,12.7c4,10.9,8.7,15.9-5.2,24.7
		C209.6,71.4,205.5,76.4,200.4,81.1z"/>
	<path d="M499,124.6c-2.4,0.9-4.8,1.8-8.5,3.1c5.7-7.7,10-14.4,8.8-20.8c-1.3,0.8-2.6,1.5-3.9,2.2c-14.6,7-29.1,14.1-43.8,20.8
		c-2.6,1.2-6.1,0.1-8.7,1.3c-18,8.2-36.7,14.4-56,18.8c-10.5,2.4-21.2,3.8-31.6,6.6c-10,2.7-19.7,6.7-29.6,10.2
		c-5.8,2-6.8,1.5-9.5-5c11.1-7.7,22.2-15.4,33.4-23.1c14.6-10,29.3-19.7,43.7-30c6.7-4.8,11.4-11.5,13.3-20
		c-10-3.5-18.2,0.3-25.8,5.3c-26.2,17.2-52.2,34.8-78.3,52.2c-2.6,1.7-5.2,4-8.6,1c-0.8-0.7-2.9-0.8-3.9-0.3
		c-5.8,2.6-10.5-0.3-10.9-6.9c-0.1-1.9-0.4-3.8-0.6-5.6c-0.4,0-0.7-0.1-1.1-0.1c-0.7,1.6-1.5,3.3-2.3,5.1c-3.3-1.3-4-7.5-8.4-4.8
		c-2.5,1.5-4,4.7-5.9,7.1c0.4,0.4,0.7,0.8,1.1,1.2c-2.4,0.4-4.9,0.8-7.2,1.2c-0.7-3.6-1.3-6.5-1.8-9.3c-4,2.6,1.4,10.2-6.8,10.7
		c-0.3-4.3-0.6-8.3-0.8-12.3c-0.6,0-1.1-0.1-1.7-0.1c-0.3,1.3-0.9,2.6-0.9,3.9c-0.2,5.3-0.2,10.7-0.5,16c-0.3,4.2,1.2,7,5.5,8.1
		c3.1,0.8,4.3,2.5,3.3,6.1c-14.9-10.4-29.5-20.6-44.1-30.9c-21.7-15.3-43.2-30.6-64.9-45.8c-6.9-4.9-14.8-7-23.3-6.1
		c-1.2,0.1-3.3,2.4-3.1,3.1c1.8,5.5,3.1,11.2,8.4,15c13.6,9.7,27.1,19.5,40.5,29.4c16.9,12.4,33.8,24.8,50.6,37.3
		c1.6,1.2,3,2.6,4.5,3.9c-2.3,0.4-4.1,0.2-5.6-0.5c-10.2-4.5-20.2-9.2-30.5-13.5c-6.3-2.6-12.8-5-19.4-6.6c-10.3-2.6-21-3.7-31-6.9
		c-16.1-5.2-31.8-11.6-47.7-17.6c-4.4-1.7-9.5-0.7-13.3-2c-11.5-4.2-22.3-10-33.3-15.4c-5.6-2.8-11.1-6-18-9.8
		c1.6,6.3,2.8,11.3,4.1,16.5c-4.8-2.6-9.4-5.1-13.8-7.4c-0.7,1-1.3,1.7-1.8,2.4c0,2,0,4,0,6c3.4,10.3,13.1,13.8,20.6,20
		c-3.6-1.4-7.3-2.8-11.2-4.3c0.6,8.9,5.8,14.3,11.4,19.3c-0.7,0.9-1.7,2.2-1.6,2.3c5.5,5.7,11.2,11.2,16.5,16.5
		c-0.5,0.1-2,0.3-4.3,0.7c1.5,1.6,2.3,2.7,3.4,3.6c7.2,5.8,17,7.1,23.6,13.8c0.5,0.5,1.5,0.8,2.2,0.9c5.5,0.7,11,1.5,16.5,2.1
		c1.5,0.2,2.9,0,4.4,0c0,0.3,0,0.7,0,1c-1.7,1.1-3.4,2.2-6.3,3.9c6.6,0.9,11.9,1.6,17.2,2.3c-1.2,3.4,1.4,5.2,6,4.7
		c3.4-0.4,6.8-0.6,10.3-0.9c0.2,0,0.4,0.3,0.9,0.7c-0.9,0.8-1.7,1.6-3.8,3.6c8.2,0,14.9,0,21.7,0c-0.4,1.4-0.8,2.9-1.5,5.2
		c6-0.8,11.2-1.5,16.1-2.1c-0.1,1.2-0.8,3.2-0.2,3.6c1,0.8,2.8,1.1,4.1,0.8c3.6-0.8,7.2-2.1,10.8-3.1c0.3-0.1,0.7,0,1.3,0.1
		c-0.7,1.4-1.3,2.6-2.4,4.9c7-2.1,12.8-3.8,19-5.7c-0.3,1.4-0.6,2.6-1.2,4.8c3.4-1,6.2-1.6,8.9-2.7c3.5-1.4,3.5-1.6,6.5,2.5
		c-31.7,21.3-63.3,42.7-94.9,63.9c-2.2-2.6-4-4.3-5.3-6.3c-3.2-4.9-8.8-9.7-1.9-15.9c0.5-0.5,0.5-1.5,0.7-2.3
		c1.2-3.9-0.4-5.9-4.2-5.8c-3.6,0.1-7.3,0.2-10.7,1.3c-9.9,3.1-11.2,7.3-5.1,15.5c4.3,5.8,8.5,11.6,12.5,17.6c0.6,1,0.5,3.7-0.1,4
		c-5.8,2.8-6.6,11.3-14.5,12.2c-2.3,0.2-4.1,4.7-6.2,7.2c-3.3-2.1-5.4-3.5-7.6-4.9c-2.4-1.4-4.7-3-7.2-4.2
		c-4.7-2.1-11.8-1.6-13.6,1.3c-2.6,4.1-2.1,8.4,0.4,12.6c2.1,3.5,4.1,7,6.5,11.2c-3.7,3-7.3,5.9-10.8,9c-2.4,2.1-4.5,4.3-3.1,8.1
		c1.3,3.6,7.2,6.4,11.5,5.3c4.3-1.1,7.6-3.3,9.9-7.3c1.4-2.6,3.3-5.5,7-3.6c2.7,1.4,5.2,3.4,7.5,5.5c8.5,7.3,16.5,15.2,25.4,22.1
		c15.8,12.4,32,24.4,48.2,36.4c27.2,20.1,56,37.5,87.2,50.5c22.2,9.2,44.6,8.9,66.2-1.9c24.6-12.4,47.7-27.2,69.8-43.7
		c25.4-19,50.8-38.1,76.1-57.2c3-2.3,6-6.5,8.9-6.5c4.3,0,9.4,2.1,12.7,5c4.2,3.8,8.6,6.8,14,7c2.3,0.1,5.2-1.9,6.9-3.9
		c2.6-3,0.4-5.9-2-8.1c-2.6-2.5-5.5-4.7-8.1-7.2c-2.5-2.4-4.7-5.1-6.9-7.5c2.6-3.2,4.8-5.5,6.6-8.1c4.3-6.2,4.5-10.9,0.9-14.8
		c-4.1-4.3-9-4.4-15.7-0.2c-3,1.9-5.9,4.2-9,5.8c-1.7,0.8-5.2,1.3-5.7,0.5c-3.9-6.2-12-7.2-15.9-14c-3.8-6.7-5-6.1,0.3-12
		c1-1.1,2.2-2,3.2-3.2c3.5-4.5,7.3-8.9,10.3-13.8c3-4.9,0.7-9.6-4.9-10.9c-3.3-0.8-6.8-1-10.2-1.2c-1.5-0.1-3.9,0-4.5,0.9
		c-0.8,1.1-0.8,3.8,0,4.8c4.9,5.3,3,9.9-1.1,14.4c-1.2,1.3-2.5,2.7-3.6,4.1c-3.7,4.8-4.7,4.9-9.4,1.5
		c-22.9-16.6-45.8-33.3-68.8-49.8c-6.2-4.5-10.2-9.4-7.8-17.2c3.9,1.5,7.8,3.1,12.6,4.9c-0.4-2.5-0.7-3.9-1-5.8
		c7.4,4.9,15.1,7.1,24,5.8c-0.8-1.4-1.5-2.6-2.2-3.7c6.2,0.7,12.3,1.5,19.4,2.3c-1.6-2.8-2.3-3.9-3.1-5.3c9.8,2.1,14.2,1.4,22.8-3.5
		c0.8-0.4,1.9-0.3,2.8-0.6c7.8-2,15.7-4.1,23.5-6.2c0.5-0.1,0.8-0.8,1.1-1.1c-0.5-0.6-1-1.1-1.3-1.6c-0.1-0.2,0.2-0.6,0.2-0.6
		c7.9-0.5,15.8,0.2,22.8-5.5c-1.3-0.7-2.2-1.3-4.4-2.5c10.7-1.1,19.8-2.9,27-9.7c-1.7-0.8-3-1.5-5-2.4c9.6-1.7,15.9-7.3,17.7-15.2
		c-1.7,0.3-3.4,0.6-5.1,0.8c10.2-2.7,12.8-11.4,16.9-20.2c-3.6,1.1-6.1,1.8-8.6,2.6c1.8-2.3,3.9-3.8,5.8-5.5c2-1.8,4.3-3.6,5.7-5.8
		c2.2-3.5,3.9-7.3,5.8-11c0-0.7,0-1.3,0-2C505.7,122.2,502.3,123.4,499,124.6z M249.3,157.7c-3.9-2.6-4.1-5.1,0-9
		C249.3,152.4,249.3,155,249.3,157.7z M466,304.1c4.7-0.4,6.8,2.1,4.9,6.4c-1.5,3.4-4,6.5-6.6,9.2c-2.4,2.4-5.2,1.6-7.3-1
		c-1.7-2.1-3.3-4.2-5.3-6.8C455.3,307.3,460.1,304.6,466,304.1z M492.8,115.2c-1.3,13.4-40.3,32.7-54.6,26.7
		c-0.2-0.5-0.4-1.1-0.7-1.6C456,131.9,474.5,123.5,492.8,115.2z M425.3,142.7c0.2,0.5,0.4,0.9,0.6,1.4c-6.1,2-12.3,4-18.4,6
		c-0.1-0.4-0.3-0.7-0.4-1.1C413.2,147,419.3,144.9,425.3,142.7z M405.5,155.4c7.1-2.7,14.3-5.4,21.6-7.4c4.9-1.3,10.2-1.1,15.3-1.6
		c0.1,0.9,0.2,1.8,0.3,2.7c-6.1,0.8-12.2,1.6-18.3,2.4c-0.1,0.7-0.2,1.3-0.3,2c4.6,1,9.1,2.1,13.7,3.1c0,0.2,0.1,0.4,0.1,0.6
		c-7.7,0-15.4,0-23.1,0c-0.1,0.6-0.3,1.3-0.4,1.9c3.9,1.7,7.8,3.4,11.7,5.1c-0.1,0.4-0.1,0.8-0.2,1.1c-7-1.1-13.9-2.3-20.9-3.4
		c-0.3,0.5-0.5,1-0.8,1.5c2.2,1.7,4.3,3.3,6.5,5c0,0.3,0,0.6,0,0.8c-5.5-1-10.9-2.1-16.4-3.1c-0.3,0.3-0.6,0.6-0.9,0.9
		c2.1,2.4,4.2,4.7,6.3,7.1c-0.1,0.4-0.1,0.8-0.2,1.1c-5.1-1.5-10.3-3-15.4-4.5c-0.3,0.3-0.6,0.6-1,0.9c1.8,2.2,3.6,4.5,5.5,6.7
		c-0.2,0.5-0.3,0.9-0.5,1.4c-5.7-1.9-11.4-3.9-17.1-5.8c-0.3,0.3-0.6,0.5-0.9,0.8c1.9,2.2,3.8,4.5,5.7,6.7c-0.1,0.4-0.3,0.9-0.4,1.3
		c-4.7-1.6-9.3-3.2-15.4-5.2c1.6,3.3,2.6,5.4,3.7,7.4c-0.2,0.4-0.3,0.8-0.5,1.2c-4.9-1.9-9.7-3.7-16.2-6.2c1.5,3.6,2.5,6.1,3.5,8.5
		c-0.3,0.3-0.5,0.7-0.8,1c-2.9-2.3-5.8-4.6-9.6-7.5c11-3.7,20.8-7.5,31-10.3c7.5-2.1,14.2-5.3,20.5-9.9
		C395.7,158.7,400.8,157.2,405.5,155.4z M334.7,168.3c10.3-4.7,20.8-7.8,31.8-9.6c8.3-1.4,16.5-3.4,24.8-5.1
		c0.1,0.2,0.2,0.5,0.3,0.7c-6.5,3.9-13,7.8-20,11.9c-0.8-2-1.3-3.1-1.9-4.7c-11.4,7.7-24.2,11.4-37.3,13.8
		c-12.8,2.3-25.2,7.2-38.4,6.1c-0.1-0.4-0.2-0.9-0.3-1.3c4.1-0.8,8.2-1.4,12.2-2.6C315.6,174.7,325.6,172.5,334.7,168.3z
		 M391.1,107.5c-24.5,17.1-49.1,33.9-73.6,50.8c-2.5,1.7-4.1,1.6-5.8-2c30-20.9,59.7-41.6,90.1-62.8
		C400.1,100.3,395.8,104.2,391.1,107.5z M331.7,131.6c19.1-12.9,38.4-25.7,57.8-38.3c2.7-1.8,6.4-2.1,9.6-3.1c0.3,0.5,0.5,1,0.8,1.5
		c-1.3,1-2.5,2.2-3.9,3.1c-26.2,17.7-52.3,35.4-78.5,53.1c-2.3,1.6-4.5,3.6-7,4.7c-2,0.9-4.4,0.8-6.6,1.2c-0.1-0.7-0.3-1.3-0.4-2
		C312.8,145.1,322.1,138.1,331.7,131.6z M295.6,155.5c-1.4-1.4-3.3-2.4-4.6-4.1c9.3,3.2,16.3,9.6,23.3,15.9c-0.3,0.5-0.6,1-0.9,1.5
		c-1.3-0.8-2.8-1.5-3.9-2.6c-4.6-4.2-7-4-10.2,1.2c-3.9,6.2-4.9,6.6-11.1,2.2c-2.4-1.7-4.2-4.2-6.3-6.4c0.5-0.4,1-0.8,1.5-1.2
		c1.2,1.3,2.2,3.2,3.7,3.9c2.3,1.2,5.5,2.8,7.4,2c2.3-0.9,4.7-4,5.3-6.5C300.1,159.8,297.4,157.3,295.6,155.5z M274.9,168.1
		c4-3.3,6.4-0.6,8.9,3.2c-3.3,2.3-6.1,6-9.8,1.5C273.4,171.9,273.9,168.9,274.9,168.1z M271.6,159.8c0-2.8,0-4.7,0-6.7
		C275.5,155.2,275.5,156.2,271.6,159.8z M289.3,159.2c-7.9-6.7-17.4-11.4-23.4-20.3C275.1,144.2,284.1,149.5,289.3,159.2z
		 M254.4,162.1c0.2-2.6,0-5.3,0.1-8c0.1-2.9,0.8-6.4,4.3-6c1.5,0.1,3.6,3.7,3.7,5.9c0.3,5.2-0.3,10.5-0.6,16.1
		C256.8,169.1,253.9,167.2,254.4,162.1z M249.4,176.8c3.5,1.3,7.2,2.7,11.5,4.3c-0.2-2.2-0.3-3.3-0.3-3.9c3.5,0.6,7.1,1.1,10.9,1.7
		c5.3,2,11,5.2,17,6.3c6.1,1.1,9,5.3,12.4,9.2c0.7,0.8-0.4,4.9-1.7,5.5c-5.5,2.7-11,5-12,12.1c-0.1,0.5-0.8,1.1-1.3,1.4
		c-2.5,1.5-17,0.2-19.1-1.7c-4.5-4-4.5-4-7.6-3.4c-0.4-2-0.8-4-1.3-6.4c3.7-4.6,2.8-8-4.8-11.4c1.1,2.7,1.8,4.7,2.6,6.7
		c-8.3,7.1-8.6,8.3-2.9,10.9c-0.1,6.1-0.1,6.1,5.2,6.2c-0.4,7.6,4.2,3,7.3,2.6c0.2,1.8,0.5,3.4,0.7,5.1c5.7-1,11.3-2,16.9-3
		c0.3,0.5,0.5,1,0.8,1.6c-0.7,1.8-1.3,3.5-2.1,5.5c-5.3-3.4-6.7,1-9,4.6c-1.8-1.6-3.5-3.1-6.1-5.4c-0.7,1.2-1.5,2.4-2.4,3.9
		c-2.4-1.7-4.7-6.6-7.2-0.9c-4.1-0.9-3.5-9.3-9.5-4.7c-2-2.3-0.5-8.7-7-5.5c0-2.7,0-5.1,0-8c-1.4-0.1-2.7-0.3-4.7-0.5
		c0.9-3.3,1.8-6.4,2.8-10.2c-2.1,0.4-3.8,0.7-6.5,1.1c3.6-5.1,3.5-11.4,11.3-12.6c4.2-0.7,8.2-2.8,12.8-2c1.1,0.2,2.5-0.8,3.7-1.3
		c0-0.7-0.1-1.3-0.1-2c-6.1-0.8-12.2-2.1-18.4-2.2c-3.2,0-7.7,0.5-7.4,6c0,0.7-1.7,1.4-2.6,2.1c-2.7,2.3-7.3,4-2.6,8.7
		c0.6,0.6-0.1,2.5-0.4,3.8c-0.5,2.2-1.2,4.5-0.5,6.3c1.3,2.2,2.7,4.4,4,6.6c2.4,4,4.6,8.1,7.2,11.9c1.5,2.2,11,4.7,13.2,3.5
		c3.6,8.7-5.2,14.6-4.5,22.4c-3.2,0.3-6,0.5-9.1,0.8c1.2-10.6,3-21.3-4.5-30.9c-0.8,0.5-1.9,1.3-4,2.8c-0.6-4.4-1.1-8.3-1.8-13.3
		c-2,1.6-3.6,2.9-5.4,4.4c-2-6.1,1.9-11.1,3.7-17c-1.7,0.1-2.9,0.2-5.1,0.3c1.9-3.2,3.5-5.9,5.5-9.1c-1.2-0.6-2.1-1.1-3.2-1.6
		c4.1-3.2,7.8-6.2,11.6-9.2c-0.3-0.4-0.6-0.8-0.9-1.2C239.5,177.2,244.7,182.3,249.4,176.8z M293.1,291.2c-1.7,2.5-3.8,5.4-6.1,8.8
		c-1.5-2.6-2.7-4.8-3.8-6.6C286.6,292.7,289.8,292,293.1,291.2z M284.6,283.3c2.6,1.1,3.9,1.7,5.2,2.2c0.2,0.6,0.4,1.1,0.6,1.7
		c-1.6,0.8-3.2,1.7-4.8,2.5C285.3,287.9,285,286.1,284.6,283.3z M291.5,282c-1.4,0.4-3.1-0.2-4.7-0.4c0-0.5-0.1-1-0.1-1.4
		c1.8-0.8,3.6-1.6,6.8-3C292.5,279.8,292.3,281.8,291.5,282z M291.1,257.5c-3.9-1.7-3.9-4.7-3.4-8.2c3.5,4.7,7,9.4,10.6,14.1
		c-0.4,0.5-0.8,0.9-1.2,1.4c-0.9-0.7-1.9-1.4-2.6-2.3C293.2,260.9,292.6,258.1,291.1,257.5z M286.3,236.8c9.6,9.5,21,16.2,26.3,29.6
		C303.7,263.6,287.7,245.6,286.3,236.8z M287.3,223.7c6.8,4.7,12.8,8.7,18.6,12.7c-0.3,1-0.3,1.4-0.4,1.6c-5.6,6.5-5.6,6.5-11.9,0.5
		C289.7,234.9,285.4,231.5,287.3,223.7z M292.8,223.2c0.2-0.6,0.5-1.1,0.7-1.7c3.9,1.3,8.5,1.6,11.7,3.9
		c26.3,18.7,52.4,37.7,78.6,56.6c2,1.5,4.7,2.1,8,3.5c-0.3,2.5-0.8,5.4-1.2,8.8C357.8,270.4,325.3,246.8,292.8,223.2z M309.5,300.7
		c-2.7-5.7-1.5-10.6,3.3-14.8c6.7-6,13.2-12.1,20.9-19.3c0.8,5,1.7,8.5,1.8,12c0.2,7.2,0.3,14.3-0.1,21.5c-0.1,2.3-1.5,5.1-3.2,6.5
		c-8.8,7.5-15.6,16.3-16.7,28c-0.6,5.9,1.3,11.9,2,18c-5.5,0-11.9,0-18.9,0c4-5.8,8.2-10.8,11.2-16.4c4.5-8.4,8.1-17.4,12.4-26
		c2-4.1,4.7-7.9,7.1-11.9c2-3.4,4.4-6.7,5.6-10.4c1.4-4.3-1.5-10.5-4.7-10.1c-2.8,0.4-6.8,3-7.6,5.5c-2.1,6.2-2.5,13-3.9,19.4
		c-0.8,3.5-1.7,7.3-3.6,10.2c-8.4,12.8-18.9,23.6-30.6,33.4c-2.2,1.9-5,3.1-8,3.9c5.3-4.8,10.8-9.4,15.9-14.4
		c5.1-5,10-10.3,14.4-15.9C311.2,314.2,312.9,307.7,309.5,300.7z M290.1,352.2c-1,1.1-3.8,0.7-5.7,0.9c-0.2-0.4-0.4-0.9-0.5-1.3
		c6.3-5.5,12.5-11.1,18.8-16.6c0.3,0.2,0.6,0.4,0.9,0.5C299.1,341.3,294.8,347,290.1,352.2z M323.6,293c1.2-3.5,2.4-7,3.7-10.5
		c0.8,0.3,1.6,0.6,2.4,0.8c-1.3,3.5-2.6,7-3.9,10.4C325,293.5,324.3,293.2,323.6,293z M331.6,358.5c1.5,0,2.9,0.8,4.4,1.2
		c-0.1,0.6-0.2,1.3-0.3,1.9c-6.2,0.3-12.4,1-18.7,1c-45.3,0.2-90.6,0.2-136,0.2c-1.5,0-2.9-1.3-4.4-2c1.3-0.8,2.7-2.3,4-2.3
		C230.9,358.4,281.2,358.4,331.6,358.5z M223.2,383.5c2.6,2.8,6,2.5,9.1,0.4c4-2.6,4.3-7,1.2-13.5c14.9,0,29.7,0,44.4,0
		c-1.2,2.1-3.2,4.2-3.3,6.4c-0.1,2.1,1.5,4.7,3.1,6.2c4,3.5,9,3.1,11.5-0.2c2.9-3.9,2-8.4-2.1-12c9.2,0,18.5,0,28.3,0
		c-3.3,5.7-6.1,11-9.3,15.9c-0.7,1.1-2.8,1.8-4.2,1.8c-30.3,0.1-60.6,0.1-90.9-0.1c-1.8,0-4.4-1.7-5.3-3.3
		c-2.6-4.4-4.5-9.2-7.1-14.7c8.7,0,16.5,0,24.2,0c-0.9,2.1-2.6,4.3-2.6,6.5C220.3,379.2,221.6,381.8,223.2,383.5z M223.4,375.7
		c0.7-0.7,3.3-3.6,3.8-3.3c2.4,1.5,4.3,3.9,6.4,6c-1.7,1.5-3.3,4-5.1,4.2C225.7,382.8,223.1,381.1,223.4,375.7z M282.4,373.4
		c2.1,0.4,4.4,2.9,5.2,5c0.4,1.1-2.3,3.3-4.6,6.4c-2.4-3-4.6-4.4-4.9-6.3C277.5,375.7,279.3,372.7,282.4,373.4z M185,310.6
		c-9.9-5.6-12.1-13.5-10.5-23.5c1-6.6,2.7-13,3.9-19.6c0.6-3.2,2.5-3.5,4.6-2.1c3.3,2.2,6.5,4.6,9.3,7.5c4.6,4.8,8.8,10,13,15.2
		c0.9,1.1,1.5,2.7,1.4,4c-1.9,26.5,11.1,44.7,32.5,58.2c1.2,0.8,2.4,1.7,4.5,3.2c-7-0.2-12.2-1.8-16.3-5.9
		c-16.4-16.7-29.7-35-33.4-58.9c-0.5-3.4-1.7-6.9-3.6-9.7c-1.1-1.6-4.4-2.7-6.2-2.2c-1.5,0.3-3.4,3.5-3.2,5.2
		c0.5,3.7,1.3,7.9,3.5,10.6c6.5,7.8,9.1,17.2,12.7,26.3c4,10.1,9.3,19.8,14.1,29.6c0.6,1.1,1.2,2.2,2.1,3.9c-6.8,0-13,0-20,0
		c1-2.2,1.8-3.8,2.5-5.4C202,333.5,197.9,317.8,185,310.6z M246.8,275.5c-0.1-3.1,1.3-3.5,3.6-2.6c3.5,1.2,6,3.1,5.3,7.6
		c-0.8,5.4-2.3,10.1-6.3,13.9c-0.6,0-1.3-0.1-1.9-0.1c-0.4-2.6-1.1-5.2-1.1-7.9C246.4,282.8,246.9,279.1,246.8,275.5z M264.6,237.4
		c4.9-1.2,8-2,11.5-2.8c1.6,5.1,3.2,9.9,4.8,15.1c-2.1,0.8-3.7,1.5-5.4,2.1C272.2,247.3,268.8,242.9,264.6,237.4z M275,293.5
		c-1.7,2.5-3.7,4.8-6,7.6c-1-3.9,1.5-9.5,3.8-9.7C273.5,291.3,275.1,293.3,275,293.5z M270.4,260.3c-2.6,2.2-5,3.9-6.8,6.1
		c-1.1,1.3-1.8,3.4-1.7,5.1c0.2,2,1.2,4.1,2.4,5.7c0.3,0.4,3-1.1,4.5-1.7c2,6.4,0.1,15.1-5.2,19.5c-1.2-3.4-3.1-6.3-3.1-9.2
		c0-12.7,0.6-25.4,0.9-38.1c0.8-0.1,1.5-0.2,2.3-0.2C266,251.8,268.2,256.2,270.4,260.3z M261.3,303.6c-2.5,2.8-4.4,4.9-6.2,6.9
		c-1.3-1.6-3.4-3.1-3.6-4.9c-0.4-3.2,0.6-6.8,4.6-6.9C257.5,298.7,259,301.3,261.3,303.6z M240.6,336.7c-1.7,1-5.2,1.2-6.5,0.2
		c-2.2-1.9-4.4-5-4.4-7.7c-0.1-5.2,12.8-15.9,18.2-16c0.6,0,1.3,0.3,3,0.6c-3.9,3.2-11,2.4-9.4,9.5c-5-0.2-9.5,0.4-9.7,5.8
		c-0.1,2,2.5,5,4.6,5.9c3.9,1.7,7.7-1.4,9.7-7.1c1.8-0.1,3.8-0.2,7.1-0.4C248.2,331.1,244.6,334.3,240.6,336.7z M247,337.5
		c0,4.2,0,7.4,0,11.8c-3.2-2.2-5.7-3.9-9.2-6.3C241.2,341.1,243.8,339.5,247,337.5z M242.2,329.6c-1.8,1.6-3.1,3.6-3.9,3.4
		c-1.3-0.3-2.9-2-3.1-3.3c-0.2-1,1.8-3.4,2.4-3.3C239,326.7,240.3,328.1,242.2,329.6z M256.5,266c-2.3-3.4-7.4-5.4-4.6-10.7
		c0.9-1.6,2.3-2.9,3.5-4.4c0.4,0.2,0.8,0.5,1.1,0.7C256.5,256.4,256.5,261.1,256.5,266z M247.1,298.4c2.5,6.2,1.1,10.6-4.5,13.9
		c-10.9,6.3-11.9,7.3-18.8,17.2c-6.8-5.9-9-13.5-9.7-21.6c-0.4-5.6,0.4-11.3,0.4-16.9c0-2.9-0.6-5.8-0.9-9.2c1.9-0.7,4.1-1.5,7-2.6
		c0.5,2.5,1.2,4.6,1.2,6.6c0.1,4,1.4,5.3,5.2,3.3c1.1-0.6,2.4-0.9,3.7-1.4c1.3,3.2,2.6,6.3,4,9.6c1.6-0.9,2.6-1.3,3.4-1.8
		C243.1,291.9,244.7,292.4,247.1,298.4z M237.1,291.6c-2.2-4.7-1.4-13.9-10.5-5.3c-0.4-4.3-0.7-7.4-1-10.5
		C234.2,277,238.7,282.9,237.1,291.6z M208.4,269.5c0.1-8.9,11.6-18.3,25.4-28.6C227.4,252.3,219.6,262.4,208.4,269.5z M212.1,272
		c-0.5,3-0.9,5.3-1.2,7.5c-0.7,0.4-1.5,0.8-2.2,1.2c-1.6-1.6-3.3-3.2-4.9-4.8c0.4-0.6,0.8-1.1,1.2-1.7
		C206.9,273.5,209,272.9,212.1,272z M225.8,352.4c-5-0.4-14.4-11.9-18.2-21.6C213.8,338.2,219.6,345,225.8,352.4z M191.2,292.1
		c-0.7,0.3-1.5,0.5-2.2,0.8c-1.4-3.4-2.7-6.8-4.1-10.2c0.7-0.3,1.5-0.6,2.2-0.9C188.4,285.3,189.8,288.7,191.2,292.1z M260.6,349.9
		c0,1-1.6,2.8-2.4,2.8c-2.1,0-5.3,0-6.3-1.3c-4.1-5.6,0.7-17.7,7.6-19.7c0.1,0,0.3,0.1,1.3,0.5C260.7,338,260.8,344,260.6,349.9z
		 M253.6,319.2c-0.3-0.4-0.6-0.9-1-1.3c7.3-5.3,14.6-10.7,21.9-16c0.4,0.4,0.8,0.9,1.2,1.3C268.4,308.5,261,313.8,253.6,319.2z
		 M274.5,297.4c2.5-0.8,4.4-2.1,5-1.6c1.3,1,1.8,2.9,2.6,4.5c-0.6,0.3-1.2,0.7-1.8,1C278.9,300.3,277.4,299.3,274.5,297.4z
		 M124.9,86.7c4.5,2,9.5,3.4,13.4,6.2c33.9,23.9,67.6,48,101.3,72.2c1.8,1.3,2.5,4.3,3.7,6.5c-0.6,0.5-1.1,1-1.7,1.5
		c-39.2-28.2-78.4-56.4-117.7-84.6C124.2,88,124.6,87.3,124.9,86.7z M153,121.4c-7.8-5.7-15.6-11.4-23.3-17.2
		c-4.3-3.2-7.9-6.9-9.5-14.1c37.5,27.1,73.8,53.3,110.5,79.9c-2.2,1.1-4.1,2.1-6.4,3.2C200.7,156.1,176.9,138.8,153,121.4z
		 M136.3,153.5c28.7,0,52.8,16.8,79.6,25c-0.1,0.4-0.2,0.8-0.3,1.2c-10-1.9-20-3.9-30.5-5.9c2.1-5.1-1.1-4.8-3.7-5
		c-14.3-1-27.8-4.8-40.3-12.1c-1.6-0.9-3.1-2-4.6-3C136.2,153.5,136,153.1,136.3,153.5z M129.6,152.6c-10.2-1.4-18.2-6.4-26.6-11.5
		C108.1,140.8,127.8,149.1,129.6,152.6z M102.1,146.5c9.7,5.5,20.6,9.1,30.9,13.5c1.3,0.6,3.2,0.6,4,1.6c4.9,5.7,11.7,7.2,18.5,9
		c14.5,3.7,28.9,7.7,43.9,11.8c-3.6,2.2-6.8,4.1-10.5,6.4c0.2-2.3,0.4-4.1,0.7-7c-3.8,1.5-6.9,2.7-10.5,4.1c0.5-2,1-3.6,1.8-6.6
		c-5.1,1.5-9.2,2.7-13.6,4c1.6-2.2,2.8-3.8,4-5.5c-0.3-0.5-0.6-1.1-0.9-1.6c-4.2,1.4-8.4,2.7-13,4.2c0.3-0.6,0.6-1.1,0.7-1.6
		c0.3-1.5,0.6-3.1,0.8-4.6c-1.6,0-3.3-0.5-4.7-0.1c-3.4,1.1-6.8,2.6-11.3,4.4c1.6-2.9,2.5-4.7,4.2-7.9c-7.1,1.6-12.8,2.8-18.4,4
		c-0.1-0.2-0.2-0.5-0.3-0.7c2.9-2.5,5.8-5,8.6-7.6c-0.3-0.6-0.6-1.3-0.8-1.9c-6.4,1.6-12.7,3.2-19.1,4.7c-0.1-0.2-0.2-0.5-0.3-0.7
		c2.7-1.7,5.3-3.4,8-5c-0.2-0.6-0.4-1.3-0.6-1.9c-3.1,0.3-6.3,0.6-9.4,1c-3.3,0.4-6.5,1-10.1,0.6c2.7-1.4,5.5-2.8,8.2-4.3
		c-0.1-0.5-0.2-0.9-0.3-1.4c-5.1,0-10.2,0-15.8,0c1.9-1.2,3.5-2.2,5.1-3.2c-0.1-0.5-0.2-1-0.3-1.5c-5.8-0.7-11.6-1.4-17.8-2.1
		c3.8-0.8,7.2-1.5,10.5-2.2c0-0.6,0-1.2,0-1.8c-5.8-1.4-11.6-2.8-18.4-4.5C86.2,138.8,93.9,141.9,102.1,146.5z M29.1,112.3
		c17.8,8.3,35.6,16.6,52,24.3c-2.1,0.5-6.2,1.5-10.2,2.3c-1.1,0.2-2.4,0.3-3.3-0.1c-10.3-5.6-20.8-11-30.8-17.1
		c-3.4-2-5.6-5.9-8.4-8.9C28.6,112.6,28.8,112.4,29.1,112.3z M193.7,207.5c-0.3-0.2-0.6-0.4-1-0.6c0.8-3,1.6-5.9,2.4-8.9
		c-0.4-0.3-0.7-0.5-1.1-0.8c-5,4-10,8-15,12c-0.4-0.3-0.7-0.7-1.1-1c1-2.8,2-5.6,3-8.4c-0.3-0.3-0.6-0.6-1-0.9
		c-6,3.4-12.1,6.8-18.1,10.2c-0.3-0.3-0.6-0.7-0.9-1c2.1-3.7,4.1-7.5,6.2-11.2c-0.4-0.4-0.8-0.8-1.2-1.2c-6.5,4-13,8.1-19.6,12.1
		c-0.4-0.5-0.9-1-1.3-1.5c3-5.1,6.1-10.3,9.1-15.4c-0.4-0.4-0.8-0.8-1.2-1.2c-7.8,4.2-13.4,12.5-24.1,14c4.7-6,8.8-11.1,12.9-16.3
		c-0.4-0.4-0.7-0.9-1.1-1.3c-8.7,4.9-16.7,11.3-27,12.5c-0.4-0.4-0.7-0.8-1.1-1.1c5.2-4.7,10.3-9.4,15.5-14c-0.3-0.5-0.7-0.9-1-1.4
		c-9.9,3.6-17.3,13.5-29.5,12.9c5.3-6.2,13.5-8.8,17.3-17.7c-12.8,5.4-23.5,14-38,10.7c9.3-4.6,17.9-8.8,26.6-13.1
		c-0.2-0.7-0.5-1.4-0.7-2.1c-2.3,0.4-4.5,0.9-6.8,1.3c-9.6,1.9-19.1,4.1-28.8,5.5c-3.4,0.5-7.1-1.1-10.6-2.8c5.7-1,11.5-1.6,17.2-3
		c5.7-1.4,11.2-3.6,16.8-5.4c-0.1-0.8-0.2-1.5-0.3-2.3c-2.2,0-4.5-0.3-6.7,0.1c-10.6,1.9-21.2,2.9-31.7,0.5c-4.3-1-8.3-3.1-12.2-5.8
		c5.8,0.4,11.6,1.2,17.4,1.2c5.9-0.1,11.8-1,17.6-1.6c0.1-0.8,0.1-1.5,0.2-2.3c-2.3-0.5-4.6-1.3-6.9-1.3c-10.7,0-20.9-1.9-30.5-6.4
		c-3.5-1.6-6.5-4.3-9.7-6.5c0.2-0.4,0.4-0.8,0.6-1.2c12.5,3.2,24.9,6.4,37.4,9.5c0.2-0.6,0.5-1.3,0.7-1.9c-1.6-0.9-3.1-1.9-4.8-2.7
		c-10.3-4.7-20.6-9.3-30.9-14.2c-6.4-3-12.9-6.1-15.5-14.7c6.4,3.3,12,6.4,17.8,9.1c10.1,4.7,20.5,8.9,30.5,13.6
		c2.1,1,3.5,3.5,5.3,5.3c2.8,2.7,5.6,5.4,8.5,8.2c0,0-0.8,0.9-0.8,1.7c0,0.6,0.9,1.4,1.6,1.7c8.3,3.8,16.6,7.4,25.3,10.1
		c1,1.3,1.7,3.5,3,3.9c7.6,2.3,15.3,4.2,23,6c1.9,0.4,3.9-0.7,5,2.5c0.4,1.2,4.1,1.7,6.3,1.8c2.4,0.1,4.9-0.6,7.3-0.9
		c0.3,4.4,1.5,5,9.5,3.9c3.1,4.6,3.9,4.6,13.3,1.1c-0.5,1.7-1,3.1-1.8,5.6c4.2-0.6,7.7-1,11.2-1.5c1.4,5.6,1.4,5.6,15.6-0.6
		c-0.1,1.4-0.2,2.8-0.3,4.9c7.8-1.8,16-0.7,21.6-9.5c-2.7,0-4.6,0-6.5,0c0-0.3,0-0.6,0-1c2.5,0,5,0,8.1,0c-0.9,1.8-2.1,3.2-2.5,4.9
		c-0.4,1.9-0.4,4-0.2,6c0.4,3.8,1.2,7.7,1.8,11.5c-0.6,0.1-1.3,0.1-1.9,0.2c0-2.8,0-5.7,0-9.6c-4.3,3.8-7.8,6.9-11.4,10.1
		c-0.4-0.2-0.7-0.4-1.1-0.7c0.3-2.8,0.6-5.5,1-9.4C200.4,201.5,197.1,204.5,193.7,207.5z M52.1,317.7c-0.6,0.4-2.1,0.3-2.7-0.2
		c-2.3-2.1-4.9-4.2-6.3-6.8c-1-1.8-1.3-5.6-0.2-6.6c1.7-1.5,5.2-2.5,7.4-1.9c4.1,1.2,7.9,3.8,13.4,6.6
		C59,312.5,55.6,315.2,52.1,317.7z M439.9,331c1.1,1.2,2.2,2.4,4.1,4.4c-12.1,9.8-23.7,19.6-35.6,28.9
		c-33.6,26.3-69.4,49.4-106.4,70.7c-25.8,14.8-52.1,15.3-79.2,4.2c-26.8-10.9-50.4-27.1-73.7-43.8c-23.8-17.2-47.1-34.9-70.5-52.5
		c-3.4-2.6-6.4-5.8-9.5-8.8c-2.2-2.1-1.9-3.6,0.9-4.9c3.2-1.4,6.3-2.8,9.4-4.4c3.8-1.9,6.5,0.3,9.1,2.3c6,4.5,11.6,9.5,17.7,13.8
		c32.8,22.9,66.9,43.7,102.2,62.5c14.8,7.9,30.9,12.6,47.7,13.8c13,1,25.3-3.3,37-8.6c41.5-18.8,80.9-41.4,118.3-67.5
		c5.3-3.7,10.3-7.9,15.6-11.7C433.3,325,434.8,325.3,439.9,331z M421.5,317.6c2.4,1.4,3.9,4.3,6.2,7.1c-8.1,5.4-15.8,10.6-23.5,15.7
		c-35.3,23.1-71.7,44.2-109.3,63.2c-24.9,12.5-49.8,12.7-74.4,0.3c-45.7-23.1-89.6-49.2-130.4-80.3c-0.4-0.3-0.8-0.6-2.3-1.6
		c3-2.2,5.3-4.1,7.9-5.7c1.5-0.9,3.4-1.3,5.2-1.9c9.4-3.1,9.4-3.1,14.5,5.7c2,3.4,4,7,6.3,10.2c4.3,6,8.3,6.5,13.6,1.5
		c2.5-2.4,5-5,6.6-8c1-1.9,1.2-5,0.4-6.9c-0.5-1.1-3.7-1.5-5.7-1.6c-3.7-0.1-7.8,1.2-10.4-2.8c-2.1-3.2-5.8-6.4-5.8-9.6
		c0-3,4-5.9,6.3-8.9c-2.5,1.6-5,3.2-7,4.6c-1.1-0.9-2-1.7-3.1-2.6c1.3-7,0.1-8.7-10.2-12.1c8.3-5.6,16.3-10.8,24.2-16.2
		c24.1-16.4,48.1-33,72.3-49.2c4.1-2.8,9-4.4,13.8-6.7c1.7,5.1,1.1,7.7-2.8,10.3c-26.5,17.6-52.8,35.5-79.1,53.3
		c-6.8,4.6-11.6,6.3-20.2,7.4c1.9,0.5,3.7,1,6,1.6c0,2.5,0,5.1,0,7.7c0.3,0.1,0.6,0.1,0.9,0.2c0.5-0.8,1.4-1.6,1.3-2.3
		c-0.4-6,3.8-7.6,8-10.2c17-10.5,33.7-21.5,50.4-32.5c11.4-7.5,22.5-15.4,34-22.9c2.9-1.9,6.5-2.9,9.7-4.2c0.4,0.4,0.8,0.9,1.2,1.3
		c-1.5,1.6-2.8,3.4-4.6,4.7c-24.1,17.3-48.3,34.5-72.4,51.7c-5.7,4.1-11.4,8.1-17,12.3c-1.4,1-2.4,2.6-3.5,4
		c30.7-21.5,61.4-42.9,92.1-64.4c3.4-2.4,6.5-5.5,9.7,0.2c0.3,0.6,2.1,0.4,3.5,0.5c-1.6,6.2-6.6,9.6-11.2,13.4
		c-9.1,7.4-17.7,15.1-22,27.3c-4.2-2.6-8-5.1-12-7.4c-3.7-2.1-7.6-4-11.6-0.9c-1.3,1-2.4,2.7-2.8,4.3c-1.6,7.6-2.8,15.4-4.3,23
		c-2,10.4,0.6,17.4,9.4,23.1c7.5,4.9,12.6,11.4,14.1,20.2c0.5,3.2,0.4,6.7-0.4,9.8c-2,8.3-5,10.4-13.5,10.7
		c-2.3,0.1-4.6,0.3-6.5,0.4c-0.4,0.6-0.6,0.7-0.6,0.8c-2,13.3-1.6,13.8,11.9,13.7c5.4,0,9.2,2.6,11.6,7.3c2,3.9,3.4,7.9,5.3,11.8
		c2.4,4.9,6,7.3,11.9,7.3c28.5-0.1,57,0,85.4,0.3c6.1,0.1,10.1-2.7,13.2-7.4c1.7-2.6,3.3-5.4,4.8-8.2c4.2-8,10.3-12.4,19.7-11.2
		c0.8,0.1,1.7,0,2.5,0c0.3,0,0.6-0.2,1.6-0.5c0.2-3.6,0.4-7.5,0.7-11.7c-1.5-0.4-2.5-0.9-3.6-1.1c-10.1-2-14.3-6.5-15.5-16.7
		c-1.3-11.9,2.6-19.4,13.2-24.9c9.6-5,10.4-7.4,8.8-18.4c-1.2-8.5-1-17.3-2.1-25.8c-1.1-8.7-6.3-11-13.1-5.5
		c-8.1,6.7-15.6,14-23.2,21.3c-4,3.8-4.9,8.8-2.7,13.8c4.2,9.6,1.3,17.6-5.4,24.6c-6.6,6.8-13.5,13.3-20.5,19.7
		c-2.4,2.1-5.5,3.4-8.1,4.8c0-11.6-0.3-22.7,0.2-33.8c0.1-3.1,3-5.1,6.5-4.1c6,1.6,10.6-0.5,13.9-5.3c3.2-4.6,6.1-9.5,8.7-14.5
		c0.6-1.1-0.5-3.2-0.9-4.8c-0.4-1.7-0.9-3.3-1.4-5c1.7-0.4,3.4-0.8,5.1-1.1c0.2,0,0.3,0,0.5,0c7.4,0.9,7.4,0.9,8.4-6.5
		c0.1-0.8,0.5-1.6,0.9-2.6c2.6,0,5.1,0,9.1,0c-5.4-8-6.9-15.5,1.4-23.1c24.5,18.1,49.8,36.7,76.2,56.2c-4,5.2-7.6,10.2-11.6,15
		c-0.8,0.9-3.1,0.7-4.7,0.5c-1.8-0.2-3.5-1.3-5.2-1.4c-4.2-0.3-6.7,2.8-4.5,6.3c2.8,4.5,6.5,8.7,10.6,12.2c3.3,2.8,6.3-0.1,8.4-2.7
		c5-6.3,9.7-12.7,14.6-19c1-1.3,2.1-2.6,2.5-3C412.6,313.9,417.3,315.2,421.5,317.6z M403.1,282.2c1.2,0.8,2.2,1.9,4,3.5
		c-9.4,0.8-7.4,7.5-7.5,12.9c-7.3-0.7-8.2-4.4-5-15.1c-5.9-3.7-11.5-6.9-16.8-10.6c-20.1-14-40-28.2-60-42.4
		c-4.3-3.1-8.5-6.4-13.2-9.9c4.2-2.2,7.5-3.6,11.5-0.7C345.1,240.7,374.1,261.4,403.1,282.2z M307.3,205.5c0,0,3.4-3.6,6.5-3.4
		c0,0,5.6-0.2,4.3,5.2C318,207.3,313.6,207.6,307.3,205.5z M492,150.1c0.3,0.2,0.6,0.5,0.9,0.7c-2.2,1.9-4,4.6-6.6,5.6
		c-5.3,2.2-11,3.9-16.6,5.2c-8.7,2.1-17.6,3.7-26.3,5.6c-0.7,0.2-1.4,0.6-2,0.9c0.1,0.6,0.2,1.1,0.3,1.7c13.1-1.4,26.1-2.8,39.2-4.1
		c0.2,0.5,0.5,0.9,0.7,1.4c-3.4,1.9-6.7,4.9-10.4,5.4c-10.5,1.5-21.1,1.9-31.7,2.8c-1.7,0.1-3.5,0-5.3,0.7c8.8,4.8,19,2.9,29.5,5.8
		c-9.3,3.4-17.5,2.9-25.7,1.8c-8-1-15.9-2.9-24-3.9c7.2,6.5,17.1,7.6,26.2,12.2c-13.5,3.1-23.9-4-36.1-8.1
		c3.7,7.8,10.8,9.7,16.6,14.5c-12.3,1.3-20.5-6.3-29.8-10.7c-0.3,0.4-0.5,0.8-0.8,1.2c1.3,1.5,3.9,3.1,3.8,4.5c-0.6,6.4,2.6,7.7,8,7
		c0.6-0.1,1.4,1.1,2.7,2.2c-11.5,1.5-18.1-6.9-26.3-11.1c-0.3,0.4-0.7,0.8-1,1.2c4.7,4.3,9.4,8.5,15,13.6
		c-12.8,2.4-19-6.4-26.6-11.9c-0.5,0.4-1,0.8-1.4,1.3c3,4.5,5.9,9,9.3,14.1c-6.5-0.2-10.7-3.5-14.9-7c-3-2.4-6.3-4.5-9.4-6.7
		c0,0,0,0,0,0c0,0-0.1,0-0.1,0c2.5,5.4,5.1,10.8,7.7,16.6c-8.4-0.5-13.7-6.3-19.3-11.3c-0.4,0.2-0.8,0.4-1.2,0.6
		c0.3,2.4,0.6,4.7,1,7.3c-6.3-0.4-7.2-10-14.7-8.6c-2.6-8.7-13.8-6.3-19.3-14.2c9.4-1.1,17.7-2.1,26-3.1c0.7-0.1,1.3,0,2-0.1
		c7.6-0.6,7.6-0.6,11.1,8.6c-4.6-2.9-8.1-5-12.7-7.9c0.7,3.4,1.2,5.8,1.9,9.6c-4-2.3-7.1-4.2-10.3-6c1.2,5.4,7.4,10.1,12.6,9.7
		c5-0.4,10.1-0.8,15.1-1.2c0,0,0-0.1-0.1-0.1c0.1,0,0.1,0.1,0.2,0.1c0.4-0.5,0.7-1.4,1.1-1.6c4.9-1.3,9.9-2.5,14.8-3.8
		c2-0.5,4-1.4,6-2c1.3-0.4,2.7-1,4.1-1c3.6,0,7.4,1.4,9.3-3.4c0.2-0.4,2.1-0.2,3.2-0.2c4.5,0,8.8,0.3,12.6-3.2
		c1.6-1.4,4.9-0.8,7.1-1.9c5.5-2.7,10.7-5.9,16.3-8.6c2.5-1.2,5.3-1.4,8-2.1c3.5-0.8,6.2-2.3,5.7-6.5
		C455.7,157.9,473.8,154,492,150.1z M487.4,141.9c-9.6,3.9-19.6,7.2-29.5,10.4c-1.8,0.6-4.2-0.8-6.4-2.3c8.5-3.3,17-6.4,25.4-9.9
		c8.2-3.5,16.2-7.5,24.8-11.5C498.7,135.2,493.5,139.4,487.4,141.9z"/>
	<path d="M200.4,81.1c5.1-4.7,9.2-9.7,14.3-13c13.8-8.8,9.2-13.8,5.2-24.7c-1.4-3.9-3-7.6-5.1-12.7c10.9,2,20,3.7,29.1,5.1
		c1,0.2,2.5-1.1,3.3-2.2c4.1-5.7,7.9-11.6,11.9-17.4c0.8-1.2,1.7-2.3,3.5-4.5c3.8,6.3,7.3,11.8,10.4,17.4c4,7,4.8,6.2,12.1,5.7
		c7.5-0.5,14.9-1.6,23.8-2.7c-2.3,4.8-3.9,8.4-5.6,12c-1.7,3.4-3.7,6.6-5.1,10c-2.2,5.4-0.9,8.2,3.7,11.9
		c6.4,5.1,12.5,10.5,18.7,15.8c-0.1,0.6-0.3,1.3-0.4,1.9c-4.4,1-8.8,2.1-13.2,3.1c-4.3,1-8.5,2.2-12.9,2.9c-3.2,0.5-4.7,2.6-4.8,5.2
		c-0.3,7.1-0.1,14.2-0.1,21.6c5.2,0.5,10.7,0.9,16.2,1.5c5.4,0.7,8,3.2,7.8,7.1c-0.3,4.9-2.8,6.8-8.9,6.7c-16.9-0.3-33.8-0.8-50.7-1
		c-12.5-0.2-25,0-37.5,0.1c-3.9,0-6.7-1.2-8.3-4.9c-1.9-4.6-0.2-8.1,4.9-8.9c5.4-0.8,10.8-0.9,16.3-1c2.9-0.1,4.2-0.6,3.8-3.9
		c-0.7-6.1-0.8-12.2-1.7-18.2c-0.2-1.5-2.1-3.3-3.7-3.9C218.8,87.1,210.3,84.4,200.4,81.1z M208.7,76c0.3,0.6,0.7,1.1,1,1.7
		c14.6-2.9,29.2-5.8,43.8-8.7c-8.5-2.8-16.7-4.8-25.1-6.7c-0.6-0.1-1.5-0.2-1.9,0.2C220.6,66.9,214.6,71.5,208.7,76z M278.8,116.5
		c0.2-0.4,0.3-0.8,0.5-1.1c-5.8-4.1-11.5-8.2-17.3-12.2c-0.7-0.5-2.1-0.6-2.8-0.2c-6.2,3.1-11.4,7.5-16.8,13.6
		C255.4,116.5,267.1,116.5,278.8,116.5z M297.5,38.3c-0.2-0.4-0.5-0.9-0.7-1.3c-5.1,0.5-10.3,0.9-15.3,1.7c-2,0.3-4.8,1.1-5.7,2.5
		c-4.1,6.9-7.6,14.2-11.4,21.4c0.4,0.3,0.8,0.6,1.2,0.9C276.2,55,286.9,46.7,297.5,38.3z M255.8,75.7c-0.5-0.4-1-0.9-1.6-1.3
		c-4.1,3-8.1,6.4-12.5,8.9c-5.7,3.2-7.7,7.5-6.8,13.9c0.6,4.2,0.5,8.5,0.8,12.7c0.5,0,1,0,1.4,0.1C243.3,98.5,249.5,87.1,255.8,75.7
		z M267.2,67.3c0.1,0.5,0.2,1,0.2,1.5c13.5,2.5,27,5,40.5,7.6c0.2-0.6,0.5-1.2,0.7-1.8c-4.8-4-9.2-8.7-14.6-11.7
		c-2.5-1.4-6.9,0.7-10.5,1.3c-0.3,0-0.7,0-1,0.1C277.5,65.2,272.4,66.3,267.2,67.3z M267.5,74.9c-0.4,0.4-0.7,0.8-1.1,1.2
		c5.6,11.6,11.2,23.1,16.8,34.7c1.7-6.5,2.4-12.5,2.6-18.6c0-1.9-1-4.4-2.4-5.5C278.3,82.5,272.9,78.8,267.5,74.9z M210.1,80
		c21.1,8,30.3,6.1,42.2-8.4C238.3,74.4,224.9,77.1,210.1,80z M252.7,65.3c0.2-0.4,0.4-0.9,0.6-1.3c-9.8-8-19.6-16-29.4-23.9
		c-0.4,0.3-0.8,0.6-1.3,0.9c1.9,5.8,3.7,11.6,5.6,17.3c0.2,0.6,1.1,1.3,1.8,1.5C237.6,61.6,245.1,63.5,252.7,65.3z M267.6,71
		c-0.1,0.3-0.3,0.7-0.4,1c6.8,5,13.6,10,20.4,14.9c0.6,0.4,1.6,0.8,2.3,0.7c6.1-1.5,12.2-3,18.4-4.6c0-0.4,0-0.9-0.1-1.3
		C294.7,78.1,281.2,74.6,267.6,71z M254.5,61.9c0.4-0.2,0.7-0.4,1.1-0.6c-3.3-6.7-6.5-13.3-9.8-20c-0.5-1-1.4-2.3-2.3-2.5
		c-5.8-1.1-11.6-2-17.4-2.9c-0.2,0.5-0.5,1-0.7,1.4C235.1,45.5,244.8,53.7,254.5,61.9z M259.5,76.5c-0.4-0.1-0.8-0.2-1.2-0.2
		c-6.4,11.8-12.7,23.6-19.1,35.4c4.1-1.6,7.3-4.4,10.9-6.1c6.4-3,8.5-7.9,8.5-14.4C258.7,86.2,259.2,81.3,259.5,76.5z M279.6,111.7
		c0.3-0.3,0.6-0.5,0.9-0.8c-5.5-11.5-11.1-23.1-16.6-34.6c-0.8,7.7-0.9,15.1-0.8,22.6c0,0.8,0.8,1.9,1.5,2.4
		C269.6,104.8,274.6,108.2,279.6,111.7z M263.3,21.2c-0.6,12.9-1.2,25.2-1.8,38.4c3.5-5.2,6.3-9.5,9.2-13.7
		c3.2-4.7,2.9-9.3-0.2-13.9C268.2,28.7,266,25.2,263.3,21.2z M258.3,59.9c0.4-0.2,0.8-0.3,1.3-0.5c0-12.5,0-25,0-38.3
		c-6.7,8.4-12.9,15.9-6.2,26.6C255.6,51.5,256.7,55.9,258.3,59.9z M268,64.1c0.2,0.3,0.3,0.7,0.5,1c7.8-2.1,15.5-4.1,23.3-6.2
		c0.6-0.2,1.2-0.7,1.5-1.2c2.7-5.4,5.3-10.8,7.9-16.2c-0.4-0.2-0.7-0.4-1.1-0.6C289.4,48.6,278.7,56.3,268,64.1z M240.9,118.7
		c2.9,9.1,7.3,11.1,16.8,7.7C254.3,119.3,253.2,117.7,240.9,118.7z M291.5,126.6c-5.5-8.2-9.7-9.7-17.2-6.3
		C275.4,126.9,283,129.8,291.5,126.6z M223.3,126.4c0.3-0.6,0.5-1.2,0.8-1.8c-2.7-2.1-5.3-4.7-8.4-6c-1.2-0.5-4.5,1.5-5.4,3.2
		c-1.5,2.7,0.7,4.4,3.3,4.6C216.9,126.6,220.1,126.4,223.3,126.4z"/>
	<path class="st0" d="M128.4,294c30.7-21.5,61.4-42.9,92.1-64.4c3.4-2.4,6.5-5.5,9.7,0.2c0.3,0.6,2.1,0.4,3.5,0.5
		c-1.6,6.2-6.6,9.6-11.2,13.4c-9.1,7.4-17.7,15.1-22,27.3c-4.2-2.6-8-5.1-12-7.4c-3.7-2.1-7.6-4-11.6-0.9c-1.3,1-2.4,2.7-2.8,4.3
		c-1.6,7.6-2.8,15.4-4.3,23c-2,10.4,0.6,17.4,9.4,23.1c7.5,4.9,12.6,11.4,14.1,20.2c0.5,3.2,0.4,6.7-0.4,9.8
		c-2,8.3-5,10.4-13.5,10.7c-2.3,0.1-4.6,0.3-6.5,0.4c-0.4,0.6-0.6,0.7-0.6,0.8c-2,13.3-1.6,13.8,11.9,13.7c5.4,0,9.2,2.6,11.6,7.3
		c2,3.9,3.4,7.9,5.3,11.8c2.4,4.9,6,7.3,11.9,7.3c28.5-0.1,57,0,85.4,0.3c6.1,0.1,10.1-2.7,13.2-7.4c1.7-2.6,3.3-5.4,4.8-8.2
		c4.2-8,10.3-12.4,19.7-11.2c0.8,0.1,1.7,0,2.5,0c0.3,0,0.6-0.2,1.6-0.5c0.2-3.6,0.4-7.5,0.7-11.7c-1.5-0.4-2.5-0.9-3.6-1.1
		c-10.1-2-14.3-6.5-15.5-16.7c-1.3-11.9,2.6-19.4,13.2-24.9c9.6-5,10.4-7.4,8.8-18.4c-1.2-8.5-1-17.3-2.1-25.8
		c-1.1-8.7-6.3-11-13.1-5.5c-8.1,6.7-15.6,14-23.2,21.3c-4,3.8-4.9,8.8-2.7,13.8c4.2,9.6,1.3,17.6-5.4,24.6
		c-6.6,6.8-13.5,13.3-20.5,19.7c-2.4,2.1-5.5,3.4-8.1,4.8c0-11.6-0.3-22.7,0.2-33.8c0.1-3.1,3-5.1,6.5-4.1c6,1.6,10.6-0.5,13.9-5.3
		c3.2-4.6,6.1-9.5,8.7-14.5c0.6-1.1-0.5-3.2-0.9-4.8c-0.4-1.7-0.9-3.3-1.4-5c1.7-0.4,3.4-0.8,5.1-1.1c0.2,0,0.3,0,0.5,0
		c7.4,0.9,7.4,0.9,8.4-6.5c0.1-0.8,0.5-1.6,0.9-2.6c2.6,0,5.1,0,9.1,0c-5.4-8-6.9-15.5,1.4-23.1c24.5,18.1,49.8,36.7,76.2,56.2
		c-4,5.2-7.6,10.2-11.6,15c-0.8,0.9-3.1,0.7-4.7,0.5c-1.8-0.2-3.5-1.3-5.2-1.4c-4.2-0.3-6.7,2.8-4.5,6.3c2.8,4.5,6.5,8.7,10.6,12.2
		c3.3,2.8,6.3-0.1,8.4-2.7c5-6.3,9.7-12.7,14.6-19c1-1.3,2.1-2.6,2.5-3c5,2,9.7,3.4,13.9,5.8c2.4,1.4,3.9,4.3,6.2,7.1
		c-8.1,5.4-15.8,10.6-23.5,15.7c-35.3,23.1-71.7,44.2-109.3,63.2c-24.9,12.5-49.8,12.7-74.4,0.3c-45.7-23.1-89.6-49.2-130.4-80.3
		c-0.4-0.3-0.8-0.6-2.3-1.6c3-2.2,5.3-4.1,7.9-5.7c1.5-0.9,3.4-1.3,5.2-1.9c9.4-3.1,9.4-3.1,14.5,5.7c2,3.4,4,7,6.3,10.2
		c4.3,6,8.3,6.5,13.6,1.5c2.5-2.4,5-5,6.6-8c1-1.9,1.2-5,0.4-6.9c-0.5-1.1-3.7-1.5-5.7-1.6c-3.7-0.1-7.8,1.2-10.4-2.8
		c-2.1-3.2-5.8-6.4-5.8-9.6c0-3,4-5.9,6.3-8.9C127.2,294.1,127.8,294,128.4,294z"/>
	<path class="st0" d="M444,335.4c-12.1,9.8-23.7,19.6-35.6,28.9c-33.6,26.3-69.4,49.4-106.4,70.7c-25.8,14.8-52.1,15.3-79.2,4.2
		c-26.8-10.9-50.4-27.1-73.7-43.8c-23.8-17.2-47.1-34.9-70.5-52.5c-3.4-2.6-6.4-5.8-9.5-8.8c-2.2-2.1-1.9-3.6,0.9-4.9
		c3.2-1.4,6.3-2.8,9.4-4.4c3.8-1.9,6.5,0.3,9.1,2.3c6,4.5,11.6,9.5,17.7,13.8c32.8,22.9,66.9,43.7,102.2,62.5
		c14.8,7.9,30.9,12.6,47.7,13.8c13,1,25.3-3.3,37-8.6c41.5-18.8,80.9-41.4,118.3-67.5c5.3-3.7,10.3-7.9,15.6-11.7
		c6.4-4.5,7.9-4.2,13,1.5C441,332.3,442.1,333.5,444,335.4z"/>
	<path class="st0" d="M153.2,189.7c-7.8,4.2-13.4,12.5-24.1,14c4.7-6,8.8-11.1,12.9-16.3c-0.4-0.4-0.7-0.9-1.1-1.3
		c-8.7,4.9-16.7,11.3-27,12.5c-0.4-0.4-0.7-0.8-1.1-1.1c5.2-4.7,10.3-9.4,15.5-14c-0.3-0.5-0.7-0.9-1-1.4
		c-9.9,3.6-17.3,13.5-29.5,12.9c5.3-6.2,13.5-8.8,17.3-17.7c-12.8,5.4-23.5,14-38,10.7c9.3-4.6,17.9-8.8,26.6-13.1
		c-0.2-0.7-0.5-1.4-0.7-2.1c-2.3,0.4-4.5,0.9-6.8,1.3c-9.6,1.9-19.1,4.1-28.8,5.5c-3.4,0.5-7.1-1.1-10.6-2.8c5.7-1,11.5-1.6,17.2-3
		c5.7-1.4,11.2-3.6,16.8-5.4c-0.1-0.8-0.2-1.5-0.3-2.3c-2.2,0-4.5-0.3-6.7,0.1c-10.6,1.9-21.2,2.9-31.7,0.5c-4.3-1-8.3-3.1-12.2-5.8
		c5.8,0.4,11.6,1.2,17.4,1.2c5.9-0.1,11.8-1,17.6-1.6c0.1-0.8,0.1-1.5,0.2-2.3c-2.3-0.5-4.6-1.3-6.9-1.3c-10.7,0-20.9-1.9-30.5-6.4
		c-3.5-1.6-6.5-4.3-9.7-6.5c0.2-0.4,0.4-0.8,0.6-1.2c12.5,3.2,24.9,6.4,37.4,9.5c0.2-0.6,0.5-1.3,0.7-1.9c-1.6-0.9-3.1-1.9-4.8-2.7
		c-10.3-4.7-20.6-9.3-30.9-14.2c-6.4-3-12.9-6.1-15.5-14.7c6.4,3.3,12,6.4,17.8,9.1c10.1,4.7,20.5,8.9,30.5,13.6
		c2.1,1,3.5,3.5,5.3,5.3c2.8,2.7,5.6,5.4,8.5,8.2c0,0-0.8,0.9-0.8,1.7c0,0.6,0.9,1.4,1.7,1.7c8.3,3.8,16.6,7.4,25.3,10.1
		c1,1.3,1.7,3.5,3,3.9c7.6,2.3,15.3,4.2,23,6c1.9,0.4,3.9-0.7,5,2.5c0.4,1.2,4.1,1.7,6.3,1.8c2.4,0.1,4.9-0.6,7.3-0.9
		c0.3,4.4,1.5,5,9.5,3.9c3.1,4.6,3.9,4.6,13.3,1.1c-0.5,1.7-1,3.1-1.8,5.6c4.2-0.6,7.7-1,11.2-1.5c1.4,5.6,1.4,5.6,15.6-0.6
		c-0.1,1.4-0.2,2.8-0.3,4.9c7.8-1.8,16-0.7,21.6-9.5c-2.7,0-4.6,0-6.5,0c0-0.3,0-0.6,0-1c2.5,0,5,0,8.1,0c-0.9,1.8-2.1,3.3-2.5,4.9
		c-0.4,1.9-0.4,4-0.2,6c0.4,3.8,1.2,7.7,1.8,11.5c-0.6,0.1-1.3,0.1-1.9,0.2c0-2.8,0-5.7,0-9.6c-4.3,3.8-7.8,6.9-11.4,10.1
		c-0.4-0.2-0.7-0.4-1.1-0.7c0.3-2.8,0.6-5.5,1-9.4c-4.2,3.8-7.5,6.8-10.9,9.8c-0.3-0.2-0.6-0.4-1-0.6c0.8-3,1.6-5.9,2.4-8.9
		c-0.4-0.3-0.7-0.5-1.1-0.8c-5,4-10,8-15,12c-0.4-0.3-0.7-0.7-1.1-1c1-2.8,2-5.6,3-8.4c-0.3-0.3-0.6-0.6-1-0.9
		c-6,3.4-12.1,6.8-18.1,10.2c-0.3-0.3-0.6-0.7-0.9-1c2.1-3.7,4.1-7.5,6.2-11.2c-0.4-0.4-0.8-0.8-1.2-1.2c-6.5,4-13,8.1-19.6,12.1
		c-0.4-0.5-0.9-1-1.3-1.5c3-5.1,6.1-10.3,9.1-15.4C153.9,190.6,153.6,190.1,153.2,189.7z"/>
	<path class="st0" d="M227.2,189.5c-1.2-0.6-2.1-1.1-3.2-1.6c4.1-3.2,7.8-6.2,11.6-9.2c-0.3-0.4-0.6-0.8-0.9-1.2
		c4.9-0.3,10,4.8,14.7-0.7c3.5,1.3,7.2,2.7,11.5,4.3c-0.2-2.2-0.3-3.3-0.3-3.9c3.5,0.6,7.1,1.1,10.9,1.7c5.3,2,11,5.2,17,6.3
		c6.1,1.1,9,5.3,12.4,9.2c0.7,0.8-0.4,4.9-1.7,5.5c-5.5,2.7-11,5-12,12.1c-0.1,0.5-0.8,1.1-1.3,1.4c-2.5,1.5-17,0.2-19.1-1.7
		c-4.5-4-4.5-4-7.6-3.4c-0.4-2-0.8-4-1.3-6.4c3.7-4.6,2.8-8-4.8-11.4c1.1,2.7,1.8,4.7,2.6,6.7c-8.3,7.1-8.6,8.3-2.9,10.9
		c-0.1,6.1-0.1,6.1,5.2,6.2c-0.4,7.6,4.2,3,7.3,2.6c0.2,1.8,0.5,3.4,0.7,5.1c5.7-1,11.3-2,16.9-3c0.3,0.5,0.5,1,0.8,1.6
		c-0.7,1.8-1.3,3.5-2.1,5.5c-5.3-3.4-6.7,1-9,4.6c-1.8-1.6-3.5-3.1-6.1-5.4c-0.7,1.2-1.5,2.4-2.4,3.9c-2.4-1.7-4.7-6.6-7.2-0.9
		c-4.1-0.9-3.5-9.3-9.5-4.7c-2-2.3-0.5-8.7-7-5.5c0-2.7,0-5.1,0-8c-1.4-0.1-2.7-0.3-4.7-0.5c0.9-3.3,1.8-6.4,2.8-10.2
		c-2.1,0.4-3.8,0.7-6.5,1.1c3.6-5.1,3.5-11.4,11.3-12.6c4.2-0.7,8.2-2.8,12.8-2c1.1,0.2,2.5-0.8,3.7-1.3c0-0.7-0.1-1.3-0.1-2
		c-6.1-0.8-12.2-2.1-18.4-2.2c-3.2,0-7.7,0.5-7.4,6c0,0.7-1.7,1.4-2.6,2.1c-2.7,2.3-7.3,4-2.6,8.7c0.6,0.6-0.1,2.5-0.4,3.8
		c-0.5,2.2-1.2,4.5-0.5,6.3c1.3,2.2,2.7,4.4,4,6.6c2.4,4,4.6,8.1,7.2,11.9c1.5,2.2,11,4.7,13.2,3.5c3.6,8.7-5.2,14.6-4.5,22.4
		c-3.2,0.3-6,0.5-9.1,0.8c1.2-10.6,3-21.3-4.5-30.9c-0.8,0.5-1.9,1.3-4,2.8c-0.6-4.4-1.1-8.3-1.8-13.3c-2,1.6-3.6,2.9-5.4,4.4
		c-2-6.1,1.9-11.1,3.7-17c-1.7,0.1-2.9,0.2-5.1,0.3C223.6,195.4,225.2,192.7,227.2,189.5z M275.4,190.6c-0.2,0.2-0.5,0.5-0.7,0.7
		c1.4,1,2.9,1.9,4.3,2.9c1.2,0.8,2.9,1.1,3.6,2.2c2.8,4.3,6.8,4.7,11,3.4c1.8-0.5,4.4-2.7,4.4-4.1c0-2.4-1.2-5.2-4.9-5.1
		C287.2,190.7,281.3,190.6,275.4,190.6z"/>
	<path class="st0" d="M349,196c0.4-0.5,0.7-1.4,1.2-1.6c4.9-1.3,9.9-2.5,14.8-3.8c2-0.5,4-1.4,6-2c1.3-0.4,2.7-1,4.1-1
		c3.6,0,7.4,1.4,9.3-3.4c0.2-0.4,2.1-0.2,3.2-0.2c4.5,0,8.8,0.3,12.6-3.2c1.6-1.4,4.9-0.8,7.1-1.9c5.5-2.7,10.7-5.9,16.3-8.6
		c2.5-1.2,5.3-1.4,8-2.1c3.5-0.8,6.2-2.3,5.7-6.5c18.4-3.9,36.5-7.8,54.7-11.7c0.3,0.2,0.6,0.5,0.9,0.7c-2.2,1.9-4,4.6-6.6,5.6
		c-5.3,2.2-11,3.9-16.6,5.2c-8.7,2.1-17.6,3.7-26.3,5.6c-0.7,0.2-1.4,0.6-2,0.9c0.1,0.6,0.2,1.1,0.3,1.7c13.1-1.4,26.1-2.8,39.2-4.1
		c0.2,0.5,0.5,0.9,0.7,1.4c-3.4,1.9-6.7,4.9-10.4,5.4c-10.5,1.5-21.1,1.9-31.7,2.8c-1.7,0.1-3.5,0-5.3,0.7c8.8,4.8,19,2.9,29.5,5.8
		c-9.3,3.4-17.5,2.9-25.7,1.8c-8-1-15.9-2.9-24-3.9c7.2,6.5,17.1,7.6,26.2,12.2c-13.5,3.1-23.9-4-36.1-8.1
		c3.7,7.8,10.8,9.7,16.6,14.5c-12.3,1.3-20.5-6.3-29.8-10.7c-0.3,0.4-0.5,0.8-0.8,1.2c1.3,1.5,3.9,3.1,3.8,4.5c-0.6,6.4,2.6,7.7,8,7
		c0.6-0.1,1.4,1.1,2.7,2.2c-11.5,1.5-18.1-6.9-26.3-11.1c-0.3,0.4-0.7,0.8-1,1.2c4.7,4.3,9.4,8.5,15,13.6
		c-12.8,2.4-19-6.4-26.6-11.9c-0.5,0.4-1,0.8-1.4,1.3c3,4.5,5.9,9,9.3,14.1c-6.5-0.2-10.7-3.5-14.9-7c-3-2.5-6.4-4.5-9.6-6.8
		C348.9,195.9,349,196,349,196z"/>
	<path class="st0" d="M128.4,294c-0.6,0.1-1.1,0.1-1.7,0.2c-2.5,1.6-5,3.2-7,4.6c-1.1-0.9-2-1.7-3.1-2.6c1.3-7,0.1-8.7-10.2-12.1
		c8.3-5.6,16.3-10.8,24.2-16.2c24.1-16.4,48.1-33,72.3-49.2c4.1-2.8,9-4.4,13.8-6.7c1.7,5.1,1.1,7.7-2.8,10.3
		c-26.5,17.6-52.8,35.5-79.1,53.3c-6.8,4.6-11.6,6.3-20.2,7.4c1.9,0.5,3.7,1,6,1.6c0,2.5,0,5.1,0,7.7c0.3,0.1,0.6,0.1,0.9,0.2
		c0.5-0.8,1.4-1.6,1.3-2.3c-0.4-6,3.8-7.6,8-10.2c17-10.5,33.7-21.5,50.4-32.5c11.4-7.5,22.5-15.4,34-22.9c2.9-1.9,6.5-2.9,9.7-4.2
		c0.4,0.4,0.8,0.9,1.2,1.3c-1.5,1.6-2.8,3.4-4.6,4.7c-24.1,17.3-48.3,34.5-72.4,51.7c-5.7,4.1-11.4,8.1-17,12.3
		C130.5,291,129.5,292.6,128.4,294z"/>
	<path class="st0" d="M198.6,370.5c8.7,0,16.5,0,24.2,0c-0.9,2.1-2.6,4.3-2.6,6.5c0,2.2,1.4,4.8,2.9,6.5c2.6,2.8,6,2.5,9.1,0.4
		c4-2.6,4.3-7,1.2-13.5c14.9,0,29.7,0,44.4,0c-1.2,2.1-3.2,4.2-3.3,6.4c-0.1,2.1,1.5,4.7,3.1,6.2c4,3.5,9,3.1,11.5-0.2
		c2.9-3.9,2-8.4-2.1-12c9.2,0,18.5,0,28.3,0c-3.3,5.7-6.1,11-9.3,15.9c-0.7,1.1-2.8,1.8-4.2,1.8c-30.3,0.1-60.6,0.1-90.9-0.1
		c-1.8,0-4.4-1.7-5.3-3.3C203.1,380.8,201.2,376,198.6,370.5z"/>
	<path class="st0" d="M213.3,352.5c-6.8,0-13,0-20,0c1-2.2,1.8-3.8,2.5-5.4c6.2-13.6,2.1-29.3-10.8-36.5
		c-9.9-5.6-12.1-13.5-10.5-23.5c1-6.6,2.7-13,3.9-19.6c0.6-3.2,2.5-3.5,4.6-2.1c3.3,2.2,6.5,4.6,9.3,7.5c4.6,4.8,8.8,10,13,15.2
		c0.9,1.1,1.5,2.7,1.4,4c-1.9,26.5,11.1,44.7,32.5,58.2c1.2,0.8,2.4,1.7,4.5,3.2c-7-0.2-12.2-1.8-16.3-5.9
		c-16.4-16.7-29.7-35-33.4-58.9c-0.5-3.4-1.7-6.9-3.6-9.7c-1.1-1.6-4.4-2.7-6.2-2.2c-1.5,0.3-3.4,3.5-3.2,5.2
		c0.5,3.7,1.3,7.9,3.5,10.6c6.5,7.8,9.1,17.2,12.7,26.3c4,10.1,9.3,19.8,14.1,29.6C211.7,349.7,212.4,350.8,213.3,352.5z"/>
	<path class="st0" d="M394.6,283.5c-5.9-3.7-11.5-6.9-16.8-10.6c-20.1-14-40-28.2-60-42.4c-4.3-3.1-8.5-6.4-13.2-9.9
		c4.2-2.2,7.5-3.6,11.5-0.7c28.9,20.8,57.9,41.6,86.8,62.3c1.2,0.8,2.2,1.9,4,3.5c-9.4,0.8-7.4,7.5-7.5,12.9
		C392.3,297.9,391.4,294.2,394.6,283.5z"/>
	<path class="st0" d="M317.5,352.6c-5.5,0-11.9,0-18.9,0c4-5.8,8.2-10.8,11.2-16.4c4.5-8.4,8.1-17.4,12.4-26c2-4.1,4.7-7.9,7.1-11.9
		c2-3.4,4.4-6.7,5.6-10.4c1.4-4.3-1.5-10.5-4.7-10.1c-2.8,0.4-6.8,3-7.6,5.5c-2.1,6.2-2.5,13-3.9,19.4c-0.8,3.5-1.7,7.3-3.6,10.2
		c-8.4,12.8-18.9,23.6-30.6,33.4c-2.2,1.9-5,3.1-8,3.9c5.3-4.8,10.8-9.4,15.9-14.4c5.1-5,10-10.3,14.4-15.9
		c4.5-5.6,6.2-12.1,2.8-19.1c-2.7-5.7-1.5-10.6,3.3-14.8c6.7-6,13.2-12.1,20.9-19.3c0.8,5,1.7,8.5,1.8,12c0.2,7.2,0.3,14.3-0.1,21.5
		c-0.1,2.3-1.5,5.1-3.2,6.5c-8.8,7.5-15.6,16.3-16.7,28C314.9,340.5,316.8,346.6,317.5,352.6z"/>
	<path class="st0" d="M223.8,329.4c-6.8-5.9-9-13.5-9.7-21.6c-0.4-5.6,0.4-11.3,0.4-16.9c0-2.9-0.6-5.8-0.9-9.2
		c1.9-0.7,4.1-1.5,7-2.6c0.5,2.5,1.2,4.6,1.2,6.6c0.1,4,1.4,5.3,5.2,3.3c1.1-0.6,2.4-0.9,3.7-1.4c1.3,3.2,2.6,6.3,4,9.6
		c1.6-0.9,2.6-1.3,3.4-1.8c5.1-3.4,6.7-2.9,9.1,3c2.5,6.2,1.1,10.6-4.5,13.9C231.7,318.6,230.7,319.5,223.8,329.4z"/>
	<path class="st0" d="M442.7,149.1c-6.1,0.8-12.2,1.6-18.3,2.4c-0.1,0.7-0.2,1.3-0.3,2c4.6,1,9.1,2.1,13.7,3.1
		c0,0.2,0.1,0.4,0.1,0.6c-7.7,0-15.4,0-23.1,0c-0.1,0.6-0.3,1.3-0.4,1.9c3.9,1.7,7.8,3.4,11.7,5.1c-0.1,0.4-0.1,0.8-0.2,1.1
		c-7-1.1-13.9-2.3-20.9-3.4c-0.3,0.5-0.5,1-0.8,1.5c2.2,1.7,4.3,3.3,6.5,5c0,0.3,0,0.6,0,0.8c-5.5-1-10.9-2.1-16.4-3.1
		c-0.3,0.3-0.6,0.6-0.9,0.9c2.1,2.4,4.2,4.7,6.3,7.1c-0.1,0.4-0.1,0.8-0.2,1.1c-5.1-1.5-10.3-3-15.4-4.5c-0.3,0.3-0.6,0.6-1,0.9
		c1.8,2.2,3.6,4.5,5.5,6.7c-0.2,0.5-0.3,0.9-0.5,1.4c-5.7-1.9-11.4-3.9-17.1-5.8c-0.3,0.3-0.6,0.5-0.9,0.8c1.9,2.2,3.8,4.5,5.7,6.7
		c-0.1,0.4-0.3,0.9-0.4,1.3c-4.7-1.6-9.3-3.2-15.4-5.2c1.6,3.3,2.6,5.4,3.7,7.4c-0.2,0.4-0.3,0.8-0.5,1.2c-4.9-1.9-9.7-3.7-16.2-6.2
		c1.5,3.6,2.5,6.1,3.5,8.5c-0.3,0.3-0.5,0.7-0.8,1c-2.9-2.3-5.8-4.6-9.6-7.5c11-3.7,20.8-7.5,31-10.3c7.5-2.1,14.2-5.3,20.5-9.9
		c4-2.9,9.1-4.5,13.8-6.3c7.1-2.7,14.3-5.4,21.6-7.4c4.9-1.3,10.2-1.1,15.3-1.6C442.5,147.3,442.6,148.2,442.7,149.1z"/>
	<path class="st0" d="M167.3,183.2c1.6-2.2,2.8-3.8,4-5.5c-0.3-0.5-0.6-1.1-0.9-1.6c-4.2,1.4-8.4,2.7-13,4.2
		c0.3-0.6,0.6-1.1,0.7-1.6c0.3-1.5,0.6-3.1,0.8-4.6c-1.6,0-3.3-0.5-4.7-0.1c-3.4,1.1-6.8,2.6-11.3,4.4c1.6-2.9,2.5-4.7,4.2-7.9
		c-7.1,1.6-12.8,2.8-18.4,4c-0.1-0.2-0.2-0.5-0.3-0.7c2.9-2.5,5.8-5,8.6-7.6c-0.3-0.6-0.6-1.3-0.8-1.9c-6.4,1.6-12.7,3.2-19.1,4.7
		c-0.1-0.2-0.2-0.5-0.3-0.7c2.7-1.7,5.3-3.4,8-5c-0.2-0.6-0.4-1.3-0.6-1.9c-3.1,0.3-6.3,0.6-9.4,1c-3.3,0.4-6.5,1-10.1,0.6
		c2.7-1.4,5.5-2.8,8.2-4.3c-0.1-0.5-0.2-0.9-0.3-1.4c-5.1,0-10.2,0-15.8,0c1.9-1.2,3.5-2.2,5.1-3.2c-0.1-0.5-0.2-1-0.3-1.5
		c-5.8-0.7-11.6-1.4-17.8-2.1c3.8-0.8,7.2-1.5,10.5-2.2c0-0.6,0-1.2,0-1.8c-5.8-1.4-11.6-2.8-18.4-4.5c10.5-3.5,18.2-0.4,26.4,4.2
		c9.7,5.5,20.6,9.1,30.9,13.5c1.3,0.6,3.2,0.6,4,1.6c4.9,5.7,11.7,7.2,18.5,9c14.5,3.7,28.9,7.7,43.9,11.8
		c-3.6,2.2-6.8,4.1-10.5,6.4c0.2-2.3,0.4-4.1,0.7-7c-3.8,1.5-6.9,2.7-10.5,4.1c0.5-2,1-3.6,1.8-6.6
		C175.9,180.6,171.8,181.9,167.3,183.2z"/>
	<path class="st0" d="M120.2,90.2c37.5,27.1,73.8,53.3,110.5,79.9c-2.2,1.1-4.1,2.1-6.4,3.2c-23.6-17.2-47.5-34.5-71.3-51.9
		c-7.8-5.7-15.6-11.4-23.3-17.2C125.4,101.1,121.8,97.3,120.2,90.2z"/>
	<path class="st0" d="M241.6,173.2c-39.2-28.2-78.4-56.4-117.7-84.6c0.3-0.6,0.6-1.2,0.9-1.8c4.5,2,9.5,3.4,13.4,6.2
		c33.9,23.9,67.6,48,101.3,72.2c1.8,1.3,2.5,4.3,3.7,6.5C242.7,172.2,242.2,172.7,241.6,173.2z"/>
	<path class="st0" d="M335.6,361.6c-6.2,0.3-12.4,1-18.7,1c-45.3,0.2-90.6,0.2-136,0.2c-1.5,0-2.9-1.3-4.4-2c1.3-0.8,2.7-2.3,4-2.3
		c50.3-0.1,100.6-0.1,151,0c1.5,0,2.9,0.8,4.4,1.2C335.8,360.3,335.7,361,335.6,361.6z"/>
	<path class="st0" d="M391.8,285.5c-0.3,2.5-0.8,5.4-1.2,8.8c-32.8-23.8-65.3-47.4-97.8-71c0.2-0.6,0.5-1.1,0.7-1.7
		c3.9,1.3,8.5,1.6,11.7,3.9c26.3,18.7,52.4,37.7,78.6,56.6C385.9,283.5,388.5,284.1,391.8,285.5z"/>
	<path class="st0" d="M303.4,151.9c9.4-6.8,18.7-13.8,28.3-20.2c19.1-12.9,38.4-25.7,57.8-38.3c2.7-1.8,6.4-2.1,9.6-3.1
		c0.3,0.5,0.5,1,0.8,1.5c-1.3,1-2.5,2.2-3.9,3.1c-26.2,17.7-52.3,35.4-78.5,53.1c-2.3,1.6-4.5,3.6-7,4.7c-2,0.9-4.4,0.8-6.6,1.2
		C303.7,153.2,303.5,152.5,303.4,151.9z"/>
	<path class="st0" d="M348.9,195.9c2.5,5.5,5.1,10.9,7.8,16.7c-8.4-0.5-13.7-6.3-19.3-11.3c-0.4,0.2-0.8,0.4-1.2,0.6
		c0.3,2.4,0.6,4.7,1,7.3c-6.3-0.4-7.2-10-14.7-8.6c-2.6-8.7-13.8-6.3-19.3-14.2c9.4-1.1,17.7-2.1,26-3.1c0.7-0.1,1.3,0,2-0.1
		c7.6-0.6,7.6-0.6,11.1,8.6c-4.6-2.9-8.1-5-12.7-7.9c0.7,3.4,1.2,5.8,1.9,9.6c-4-2.3-7.1-4.2-10.3-6c1.2,5.4,7.4,10.1,12.6,9.7
		c5.1-0.4,10.1-0.8,15.2-1.2C349,196,348.9,195.9,348.9,195.9z"/>
	<path class="st0" d="M311.7,156.3c30-20.9,59.7-41.6,90.1-62.8c-1.8,6.8-6.1,10.7-10.8,14c-24.5,17.1-49.1,33.9-73.6,50.8
		C315,160,313.4,159.9,311.7,156.3z"/>
	<path class="st0" d="M391.6,154.3c-6.5,3.9-13,7.8-20,11.9c-0.8-2-1.3-3.1-1.9-4.7c-11.4,7.7-24.2,11.4-37.3,13.8
		c-12.8,2.3-25.2,7.2-38.4,6.1c-0.1-0.4-0.2-0.9-0.3-1.3c4.1-0.8,8.2-1.4,12.2-2.6c9.7-2.9,19.7-5.1,28.8-9.3
		c10.3-4.7,20.8-7.8,31.8-9.6c8.3-1.4,16.5-3.4,24.8-5.1C391.4,153.8,391.5,154.1,391.6,154.3z"/>
	<path class="st0" d="M437.6,140.3c18.5-8.4,36.9-16.8,55.3-25.1c-1.3,13.4-40.3,32.7-54.6,26.7C438,141.3,437.8,140.8,437.6,140.3z
		"/>
	<path class="st0" d="M136.3,153.5c28.7,0,52.8,16.8,79.6,25c-0.1,0.4-0.2,0.8-0.3,1.2c-10-1.9-20-3.9-30.5-5.9
		c2.1-5.1-1.1-4.8-3.7-5c-14.3-1-27.8-4.8-40.3-12.1c-1.6-0.9-3.1-2-4.6-3C136.2,153.5,136,153.1,136.3,153.5z"/>
	<path class="st0" d="M29.1,112.3c17.8,8.3,35.6,16.6,52,24.3c-2.1,0.5-6.2,1.5-10.2,2.3c-1.1,0.2-2.4,0.3-3.3-0.1
		c-10.3-5.6-20.8-11-30.8-17.1c-3.4-2-5.6-5.9-8.4-8.9C28.6,112.6,28.8,112.4,29.1,112.3z"/>
	<path class="st0" d="M263.7,247.4c2.3,4.4,4.5,8.8,6.7,13c-2.6,2.2-5,3.9-6.8,6.1c-1.1,1.3-1.8,3.4-1.7,5.1c0.2,2,1.2,4.1,2.4,5.7
		c0.3,0.4,3-1.1,4.5-1.7c2,6.4,0.1,15.1-5.2,19.5c-1.2-3.4-3.1-6.3-3.1-9.2c0-12.7,0.6-25.4,0.9-38.1
		C262.2,247.5,262.9,247.5,263.7,247.4z"/>
	<path class="st0" d="M501.6,128.6c-3,6.6-8.1,10.8-14.3,13.3c-9.6,3.9-19.6,7.2-29.5,10.4c-1.8,0.6-4.2-0.8-6.4-2.3
		c8.5-3.3,17-6.4,25.4-9.9C485,136.5,493,132.6,501.6,128.6z"/>
	<path class="st0" d="M451.7,311.9c3.6-4.6,8.5-7.3,14.4-7.8c4.7-0.4,6.8,2.1,4.9,6.4c-1.5,3.4-4,6.5-6.6,9.2
		c-2.4,2.4-5.2,1.6-7.3-1C455.3,316.6,453.7,314.5,451.7,311.9z"/>
	<path class="st0" d="M63.6,308.9c-4.7,3.6-8,6.3-11.5,8.9c-0.6,0.4-2.1,0.3-2.7-0.2c-2.3-2.1-4.9-4.2-6.3-6.8
		c-1-1.8-1.3-5.6-0.2-6.6c1.7-1.5,5.2-2.5,7.4-1.9C54.4,303.5,58.1,306,63.6,308.9z"/>
	<path class="st0" d="M312.6,266.4c-8.8-2.8-24.9-20.8-26.3-29.6C295.9,246.3,307.3,253,312.6,266.4z"/>
	<path class="st0" d="M208.4,269.5c0.1-8.9,11.6-18.3,25.4-28.6C227.4,252.3,219.6,262.4,208.4,269.5z"/>
	<path class="st0" d="M260.7,332.1c0,5.9,0.1,11.8-0.1,17.8c0,1-1.6,2.8-2.4,2.8c-2.1,0-5.3,0-6.3-1.3c-4.1-5.6,0.7-17.7,7.6-19.7
		C259.5,331.6,259.7,331.8,260.7,332.1z"/>
	<path class="st0" d="M283.4,161.9c1.2,1.3,2.2,3.2,3.7,3.9c2.3,1.2,5.5,2.8,7.4,2c2.3-0.9,4.7-4,5.3-6.5c0.3-1.6-2.4-4.1-4.1-5.9
		c-1.4-1.4-3.3-2.4-4.6-4.1c9.3,3.2,16.3,9.6,23.3,15.9c-0.3,0.5-0.6,1-0.9,1.5c-1.3-0.8-2.8-1.5-3.9-2.6c-4.6-4.2-7-4-10.2,1.2
		c-3.9,6.2-4.9,6.6-11.1,2.2c-2.4-1.7-4.2-4.2-6.3-6.4C282.4,162.8,282.9,162.4,283.4,161.9z"/>
	<path class="st0" d="M287.3,223.7c6.8,4.7,12.8,8.7,18.6,12.7c-0.3,1-0.3,1.4-0.4,1.6c-5.6,6.5-5.6,6.5-11.9,0.5
		C289.7,234.9,285.4,231.5,287.3,223.7z"/>
	<path class="st0" d="M261.8,170c-5-0.9-7.9-2.8-7.4-7.9c0.2-2.6,0-5.3,0.1-8c0.1-2.9,0.8-6.4,4.3-6c1.5,0.1,3.6,3.7,3.7,5.9
		C262.7,159.2,262.1,164.4,261.8,170z"/>
	<path class="st0" d="M247.6,294.3c-0.4-2.6-1.1-5.2-1.1-7.9c-0.1-3.6,0.5-7.2,0.3-10.8c-0.1-3.1,1.3-3.5,3.6-2.6
		c3.5,1.2,6,3.1,5.3,7.6c-0.8,5.4-2.3,10.1-6.3,13.9C248.9,294.3,248.2,294.3,247.6,294.3z"/>
	<path class="st0" d="M253,327.5c-4.8,3.7-8.4,6.9-12.5,9.2c-1.7,1-5.2,1.2-6.5,0.2c-2.2-1.9-4.4-5-4.4-7.7
		c-0.1-5.2,12.8-15.9,18.2-16c0.6,0,1.3,0.3,3,0.6c-3.9,3.2-11,2.4-9.4,9.5c-5-0.2-9.5,0.4-9.7,5.8c-0.1,2,2.5,5,4.6,5.9
		c3.9,1.7,7.7-1.4,9.7-7.1C247.8,327.7,249.7,327.6,253,327.5z"/>
	<path class="st0" d="M264.6,237.4c4.9-1.2,8-2,11.5-2.8c1.6,5.1,3.2,9.9,4.8,15.1c-2.1,0.8-3.7,1.5-5.4,2.1
		C272.2,247.3,268.8,242.9,264.6,237.4z"/>
	<path class="st0" d="M266,138.9c9.1,5.3,18.2,10.6,23.4,20.3C281.5,152.5,271.9,147.8,266,138.9z"/>
	<path class="st0" d="M129.6,152.6c-10.2-1.4-18.2-6.4-26.6-11.5C108.1,140.8,127.8,149.1,129.6,152.6z"/>
	<path class="st0" d="M261.3,303.6c-2.5,2.8-4.4,4.9-6.2,6.9c-1.3-1.6-3.4-3.1-3.6-4.9c-0.4-3.2,0.6-6.8,4.6-6.9
		C257.5,298.7,259,301.3,261.3,303.6z"/>
	<path class="st0" d="M303.5,335.8c-4.4,5.5-8.7,11.2-13.4,16.5c-1,1.1-3.8,0.7-5.7,0.9c-0.2-0.4-0.4-0.9-0.5-1.3
		c6.3-5.5,12.5-11.1,18.8-16.6C302.9,335.4,303.2,335.6,303.5,335.8z"/>
	<path class="st0" d="M225.6,275.8c8.6,1.2,13.1,7.1,11.5,15.8c-2.2-4.7-1.4-13.9-10.5-5.3C226.2,282.1,225.9,279,225.6,275.8z"/>
	<path class="st0" d="M223.4,375.7c0.7-0.7,3.3-3.6,3.8-3.3c2.4,1.5,4.3,3.9,6.4,6c-1.7,1.5-3.3,4-5.1,4.2
		C225.7,382.8,223.1,381.1,223.4,375.7z"/>
	<path class="st0" d="M282.9,384.7c-2.4-3-4.6-4.4-4.9-6.3c-0.5-2.8,1.3-5.7,4.4-5.1c2.1,0.4,4.4,2.9,5.2,5
		C288,379.4,285.2,381.7,282.9,384.7z"/>
	<path class="st0" d="M207.6,330.7c6.3,7.5,12,14.3,18.2,21.6C220.8,352,211.4,340.5,207.6,330.7z"/>
	<path class="st0" d="M256.5,251.6c0,4.7,0,9.5,0,14.4c-2.3-3.4-7.4-5.4-4.6-10.7c0.9-1.6,2.3-2.9,3.5-4.4
		C255.8,251.2,256.1,251.4,256.5,251.6z"/>
	<path class="st0" d="M283.8,171.3c-3.3,2.3-6.1,6-9.8,1.5c-0.7-0.9-0.2-3.9,0.8-4.7C278.8,164.8,281.3,167.5,283.8,171.3z"/>
	<path class="st0" d="M275.8,303.2c-7.4,5.3-14.8,10.7-22.2,16c-0.3-0.4-0.6-0.9-1-1.3c7.3-5.3,14.6-10.7,21.9-16
		C275,302.3,275.4,302.7,275.8,303.2z"/>
	<path class="st0" d="M247,337.5c0,4.2,0,7.4,0,11.8c-3.2-2.2-5.7-3.9-9.2-6.3C241.2,341.1,243.8,339.5,247,337.5z"/>
	<path class="st0" d="M287.7,249.3c3.5,4.7,7,9.4,10.6,14.1c-0.4,0.5-0.8,0.9-1.2,1.4c-0.9-0.7-1.9-1.4-2.6-2.3
		c-1.2-1.6-1.8-4.4-3.4-5C287.2,255.8,287.2,252.8,287.7,249.3z"/>
	<path class="st0" d="M283.3,293.5c3.4-0.8,6.6-1.5,9.9-2.3c-1.7,2.5-3.8,5.4-6.1,8.8C285.5,297.4,284.3,295.3,283.3,293.5z"/>
	<path class="st0" d="M269,301.1c-1-3.9,1.5-9.5,3.8-9.7c0.7-0.1,2.3,2,2.1,2.1C273.2,295.9,271.3,298.3,269,301.1z"/>
	<path class="st0" d="M189,292.9c-1.4-3.4-2.7-6.8-4.1-10.2c0.7-0.3,1.5-0.6,2.2-0.9c1.4,3.4,2.7,6.8,4.1,10.3
		C190.4,292.4,189.7,292.7,189,292.9z"/>
	<path class="st0" d="M426,144.1c-6.1,2-12.3,4-18.4,6c-0.1-0.4-0.3-0.7-0.4-1.1c6-2.1,12.1-4.2,18.1-6.4
		C425.5,143.2,425.7,143.7,426,144.1z"/>
	<path class="st0" d="M323.6,293c1.2-3.5,2.4-7,3.7-10.5c0.8,0.3,1.6,0.6,2.4,0.8c-1.3,3.5-2.6,7-3.9,10.4
		C325,293.5,324.3,293.2,323.6,293z"/>
	<path class="st0" d="M208.6,280.7c-1.6-1.6-3.3-3.2-4.9-4.8c0.4-0.6,0.8-1.1,1.2-1.7c2.1-0.6,4.2-1.3,7.2-2.2
		c-0.5,3-0.9,5.3-1.2,7.5C210.1,279.9,209.3,280.3,208.6,280.7z"/>
	<path class="st0" d="M242.2,329.6c-1.8,1.6-3.1,3.6-3.9,3.4c-1.3-0.3-2.9-2-3.1-3.3c-0.2-1,1.8-3.4,2.4-3.3
		C239,326.7,240.3,328.1,242.2,329.6z"/>
	<path class="st0" d="M249.3,148.7c0,3.6,0,6.2,0,9C245.4,155.1,245.2,152.6,249.3,148.7z"/>
	<path class="st0" d="M290.4,287.2c-1.6,0.8-3.2,1.7-4.8,2.5c-0.3-1.8-0.5-3.7-1-6.5c2.6,1.1,3.9,1.7,5.2,2.2
		C290,286.1,290.2,286.7,290.4,287.2z"/>
	<path class="st0" d="M286.7,280.2c1.8-0.8,3.6-1.6,6.8-3c-1.1,2.6-1.3,4.6-2.1,4.9c-1.4,0.4-3.1-0.2-4.7-0.4
		C286.8,281.1,286.8,280.7,286.7,280.2z"/>
	<path class="st0" d="M280.3,301.3c-1.5-1-3-2-5.8-3.9c2.5-0.8,4.4-2.1,5-1.6c1.3,1,1.8,2.9,2.6,4.5
		C281.6,300.6,281,300.9,280.3,301.3z"/>
	<path class="st0" d="M271.6,159.8c0-2.8,0-4.7,0-6.7C275.5,155.2,275.5,156.2,271.6,159.8z"/>
	<path class="st0" d="M208.7,76c5.9-4.5,11.9-9.1,17.9-13.6c0.4-0.3,1.3-0.3,1.9-0.2c8.3,1.9,16.6,3.9,25.1,6.7
		c-14.6,2.9-29.2,5.8-43.8,8.7C209.3,77.1,209,76.6,208.7,76z"/>
	<path class="st0" d="M278.8,116.5c-11.7,0-23.3,0-36.4,0c5.4-6.1,10.6-10.4,16.8-13.6c0.7-0.4,2.1-0.2,2.8,0.2
		c5.8,4,11.6,8.1,17.3,12.2C279.1,115.7,278.9,116.1,278.8,116.5z"/>
	<path class="st0" d="M297.5,38.3c-10.6,8.4-21.3,16.7-31.9,25.1c-0.4-0.3-0.8-0.6-1.2-0.9c3.7-7.1,7.3-14.4,11.4-21.4
		c0.9-1.5,3.7-2.2,5.7-2.5c5.1-0.8,10.2-1.1,15.3-1.7C297,37.4,297.3,37.9,297.5,38.3z"/>
	<path class="st0" d="M255.8,75.7c-6.2,11.4-12.5,22.8-18.7,34.2c-0.5,0-1,0-1.4-0.1c-0.2-4.2-0.2-8.5-0.8-12.7
		c-0.9-6.3,1.2-10.7,6.8-13.9c4.4-2.5,8.3-5.9,12.5-8.9C254.7,74.8,255.2,75.2,255.8,75.7z"/>
	<path class="st0" d="M267.2,67.3c5.1-1,10.2-2.1,15.4-3.1c0.3-0.1,0.7-0.1,1-0.1c3.6-0.5,8-2.6,10.5-1.3c5.4,2.9,9.8,7.7,14.6,11.7
		c-0.2,0.6-0.5,1.2-0.7,1.8c-13.5-2.5-27-5-40.5-7.6C267.4,68.3,267.3,67.8,267.2,67.3z"/>
	<path class="st0" d="M267.5,74.9c5.3,3.9,10.8,7.6,15.9,11.8c1.4,1.2,2.5,3.7,2.4,5.5c-0.2,6.1-0.9,12.1-2.6,18.6
		c-5.6-11.6-11.2-23.1-16.8-34.7C266.8,75.7,267.2,75.3,267.5,74.9z"/>
	<path class="st0" d="M210.1,80c14.8-2.9,28.2-5.6,42.2-8.4C240.4,86.2,231.2,88,210.1,80z"/>
	<path class="st0" d="M252.7,65.3c-7.5-1.8-15.1-3.7-22.6-5.6c-0.7-0.2-1.6-0.8-1.8-1.5c-1.9-5.7-3.8-11.5-5.6-17.3
		c0.4-0.3,0.8-0.6,1.3-0.9c9.8,8,19.6,16,29.4,23.9C253.1,64.4,252.9,64.9,252.7,65.3z"/>
	<path class="st0" d="M267.6,71c13.5,3.6,27,7.2,40.6,10.7c0,0.4,0,0.9,0.1,1.3c-6.1,1.5-12.2,3.1-18.4,4.6
		c-0.7,0.2-1.7-0.2-2.3-0.7C280.8,82,274,77,267.2,72C267.3,71.7,267.5,71.3,267.6,71z"/>
	<path class="st0" d="M254.5,61.9c-9.7-8.2-19.4-16.3-29.1-24.5c0.2-0.5,0.5-1,0.7-1.4c5.8,0.9,11.6,1.8,17.4,2.9
		c0.9,0.2,1.8,1.5,2.3,2.5c3.3,6.6,6.6,13.3,9.8,20C255.3,61.4,254.9,61.6,254.5,61.9z"/>
	<path class="st0" d="M259.5,76.5c-0.3,4.9-0.7,9.7-0.8,14.6c-0.1,6.6-2.2,11.5-8.5,14.4c-3.7,1.7-6.8,4.5-10.9,6.1
		c6.4-11.8,12.7-23.6,19.1-35.4C258.7,76.3,259.1,76.4,259.5,76.5z"/>
	<path class="st0" d="M279.6,111.7c-5-3.5-10-6.9-15-10.4c-0.7-0.5-1.5-1.6-1.5-2.4c-0.1-7.4-0.1-14.9,0.8-22.6
		c5.5,11.5,11.1,23.1,16.6,34.6C280.2,111.2,279.9,111.4,279.6,111.7z"/>
	<path class="st0" d="M263.3,21.2c2.6,4,4.9,7.4,7.1,10.9c3.1,4.6,3.4,9.2,0.2,13.9c-2.9,4.2-5.7,8.5-9.2,13.7
		C262.1,46.4,262.7,34.2,263.3,21.2z"/>
	<path class="st0" d="M258.3,59.9c-1.6-4.1-2.7-8.5-5-12.2c-6.7-10.8-0.4-18.2,6.2-26.6c0,13.3,0,25.8,0,38.3
		C259.1,59.6,258.7,59.8,258.3,59.9z"/>
	<path class="st0" d="M268,64.1c10.7-7.7,21.4-15.5,32-23.2c0.4,0.2,0.7,0.4,1.1,0.6c-2.6,5.4-5.2,10.8-7.9,16.2
		c-0.3,0.5-0.9,1.1-1.5,1.2c-7.8,2.1-15.5,4.1-23.3,6.2C268.3,64.8,268.1,64.4,268,64.1z"/>
	<path class="st0" d="M240.9,118.7c12.3-1,13.4,0.6,16.8,7.7C248.2,129.8,243.8,127.8,240.9,118.7z"/>
	<path class="st0" d="M291.5,126.6c-8.6,3.2-16.2,0.3-17.2-6.3C281.8,116.9,286.1,118.4,291.5,126.6z"/>
	<path class="st0" d="M223.3,126.4c-3.2,0-6.5,0.2-9.6-0.1c-2.6-0.2-4.9-1.8-3.3-4.6c0.9-1.7,4.2-3.7,5.4-3.2c3.1,1.3,5.6,3.9,8.4,6
		C223.9,125.2,223.6,125.8,223.3,126.4z"/>
	<path d="M275.4,190.6c5.9,0,11.9,0.1,17.8,0c3.6-0.1,4.9,2.7,4.9,5.1c0,1.4-2.6,3.6-4.4,4.1c-4.2,1.2-8.2,0.9-11-3.4
		c-0.7-1.1-2.4-1.4-3.6-2.2c-1.5-0.9-2.9-1.9-4.3-2.9C274.9,191.1,275.1,190.8,275.4,190.6z"/>
</g>
</svg>
