<svg id="Layer_1" data-name="Layer 1" xmlns="http://www.w3.org/2000/svg" xmlns:xlink="http://www.w3.org/1999/xlink" viewBox="0 0 491.7 58.2"><defs><style>.cls-1,.cls-7{fill:#fff;}.cls-1{stroke:#010101;stroke-miterlimit:10;}.cls-2{fill:url(#linear-gradient);}.cls-3{fill:url(#linear-gradient-2);}.cls-4{fill:url(#linear-gradient-3);}.cls-5{fill:url(#linear-gradient-4);}.cls-6{fill:#175aa5;}</style><linearGradient id="linear-gradient" x1="32.65" y1="63.69" x2="66.58" y2="32.23" gradientTransform="matrix(1, 0, 0, -1, 0, 58)" gradientUnits="userSpaceOnUse"><stop offset="0" stop-color="#387cc0"/><stop offset="1" stop-color="#05bab9"/></linearGradient><linearGradient id="linear-gradient-2" x1="13.5" y1="4.35" x2="46.19" y2="61.73" gradientTransform="matrix(1, 0, 0, -1, 0, 58)" gradientUnits="userSpaceOnUse"><stop offset="0.01" stop-color="#fcd127"/><stop offset="1" stop-color="#f8961d"/></linearGradient><linearGradient id="linear-gradient-3" x1="68.98" y1="4.57" x2="35.47" y2="38.08" gradientTransform="matrix(1, 0, 0, -1, 0, 58)" gradientUnits="userSpaceOnUse"><stop offset="0" stop-color="#e9487b"/><stop offset="0.83" stop-color="#f9a12e"/></linearGradient><linearGradient id="linear-gradient-4" x1="36.69" y1="56.19" x2="-2.17" y2="24.73" gradientTransform="matrix(1, 0, 0, -1, 0, 58)" gradientUnits="userSpaceOnUse"><stop offset="0" stop-color="#8dc641"/><stop offset="1" stop-color="#2ab34b"/></linearGradient></defs><title>logo-myservice-reversed</title><path class="cls-1" d="M67.7,43.6" transform="translate(0 0)"/><path class="cls-2" d="M46.8.2c.4,0,29.1,24.4,29.1,24.4l-8.6,8.6L30.9,2.5S43.5.2,46.8.2Z" transform="translate(0 0)"/><path class="cls-3" d="M29.1,24.5C28.8,24.5,0,48.9,0,48.9l8.6,8.6L45,26.8S32.4,24.5,29.1,24.5Z" transform="translate(0 0)"/><path class="cls-4" d="M42.6,24.3c3.6,0,4.6-.2,7.7,2.3,9.3,7.8,25.6,22.7,25.6,22.7L67,57.2s-23.5-21-33.8-29.3c-2.5-2.1-4.1-3.3-4.1-3.3s5.9-.1,10.2-.2C40.7,24.4,41.8,24.3,42.6,24.3Z" transform="translate(0 0)"/><path class="cls-5" d="M33.3,0c-3.6,0-4.6-.2-7.7,2.3C16.3,10,0,25,0,25l8.9,7.8s23.5-21,33.8-29.3C45.2,1.4,46.8.2,46.8.2S40.8.1,36.5,0Z" transform="translate(0 0)"/><path class="cls-6" d="M97.3,4.8h10.2L119,37.3h.1L130.3,4.8h10.1V46.3h-6.9v-32h-.1l-11.5,32h-6l-11.5-32h-.1v32H97.4V4.8Z" transform="translate(0 0)"/><path class="cls-6" d="M144.8,16.2h7.3l7.8,22.4h.1l7.6-22.4h6.9L162.8,47.9c-.5,1.4-1.1,2.7-1.6,3.9a17.74,17.74,0,0,1-1.9,3.3,10.44,10.44,0,0,1-2.8,2.3,9.19,9.19,0,0,1-4.3.8,35.53,35.53,0,0,1-4.6-.3V52.3l1.6.3a8.08,8.08,0,0,0,1.6.1,5,5,0,0,0,1.9-.3,3.6,3.6,0,0,0,1.2-.8,5.67,5.67,0,0,0,.8-1.3c.2-.5.4-1.1.6-1.7l.8-2.3Z" transform="translate(0 0)"/><path class="cls-6" d="M184.8,32.5a10.33,10.33,0,0,0,.8,4.1,7.69,7.69,0,0,0,2.3,2.8,12.62,12.62,0,0,0,3.3,1.6,17.71,17.71,0,0,0,4.1.5,12.65,12.65,0,0,0,4.1-.6,8.56,8.56,0,0,0,2.7-1.4,4.81,4.81,0,0,0,1.5-2,6.35,6.35,0,0,0,.5-2.3,4.88,4.88,0,0,0-1.1-3.5,5.36,5.36,0,0,0-2.4-1.6,45,45,0,0,0-5.1-1.5c-2-.5-4.4-1.1-7.2-1.9a16.68,16.68,0,0,1-4.4-1.8,11.56,11.56,0,0,1-2.8-2.5,8.47,8.47,0,0,1-1.5-3,11.24,11.24,0,0,1-.4-3.2,10.29,10.29,0,0,1,1.3-5.4A11.55,11.55,0,0,1,184,7a13.65,13.65,0,0,1,4.9-2.2,20.75,20.75,0,0,1,5.5-.7,23.67,23.67,0,0,1,6.1.8,17.32,17.32,0,0,1,5.1,2.5,12,12,0,0,1,3.5,4.2,11.69,11.69,0,0,1,1.3,5.7h-7.3q-.3-4-2.7-5.7a10.8,10.8,0,0,0-6.2-1.7,11.53,11.53,0,0,0-2.6.3,8.54,8.54,0,0,0-2.4.9,5.81,5.81,0,0,0-1.8,1.7,4.41,4.41,0,0,0-.7,2.6,4.67,4.67,0,0,0,1.4,3.5,8.8,8.8,0,0,0,3.6,1.9,13.73,13.73,0,0,1,1.8.5c1.1.3,2.3.6,3.6,1s2.6.7,3.9,1,2.2.6,2.7.7a11.41,11.41,0,0,1,3.5,1.7,11.85,11.85,0,0,1,2.5,2.5,9.39,9.39,0,0,1,1.5,3,12.61,12.61,0,0,1-.9,9.3,11.83,11.83,0,0,1-3.7,4,17,17,0,0,1-5.3,2.3,24.58,24.58,0,0,1-6,.7,24.11,24.11,0,0,1-6.7-.9,16.62,16.62,0,0,1-5.5-2.7,13,13,0,0,1-3.7-4.6,17,17,0,0,1-1.5-6.7h6.9Z" transform="translate(0 0)"/><path class="cls-6" d="M221.1,33a12.7,12.7,0,0,0,.5,3.4,6.9,6.9,0,0,0,1.5,2.8,6.67,6.67,0,0,0,2.5,1.9,8,8,0,0,0,3.6.7,8.41,8.41,0,0,0,4.7-1.2,6.78,6.78,0,0,0,2.6-3.7h6.3a11.39,11.39,0,0,1-1.8,4.4,11.84,11.84,0,0,1-3.1,3.2,13.64,13.64,0,0,1-4,2,18.42,18.42,0,0,1-4.7.7,15.39,15.39,0,0,1-6.3-1.2,13.11,13.11,0,0,1-7.4-8.3,21.46,21.46,0,0,1-1-6.4,17.75,17.75,0,0,1,1-6.1,16.09,16.09,0,0,1,2.9-5.1,14.42,14.42,0,0,1,4.6-3.5,13.2,13.2,0,0,1,6-1.3,13.43,13.43,0,0,1,6.4,1.5,14.87,14.87,0,0,1,4.7,3.9,17.14,17.14,0,0,1,2.7,5.6,15.8,15.8,0,0,1,.4,6.5H221.1Zm15.4-4.4a10.11,10.11,0,0,0-.7-3,8.74,8.74,0,0,0-1.5-2.5,6.58,6.58,0,0,0-2.3-1.7,7.35,7.35,0,0,0-3-.7,8.29,8.29,0,0,0-3.2.6,7,7,0,0,0-2.4,1.7,8.21,8.21,0,0,0-1.6,2.5,10.76,10.76,0,0,0-.7,3.1Z" transform="translate(0 0)"/><path class="cls-6" d="M247,16.2h6.2V22h.1a8.56,8.56,0,0,1,1.1-2.4,10,10,0,0,1,2-2.1A9.75,9.75,0,0,1,259,16a8,8,0,0,1,3-.6,6.22,6.22,0,0,1,1.6.1c.3,0,.6.1.9.1V22c-.5-.1-.9-.1-1.4-.2a8.2,8.2,0,0,0-4.6.6,7,7,0,0,0-2.6,2,9.74,9.74,0,0,0-1.7,3.2,15.1,15.1,0,0,0-.6,4.4V46.3H247Z" transform="translate(0 0)"/><path class="cls-6" d="M266.9,16.2h7.2l7.6,23.1h.1l7.3-23.1H296l-10.7,30h-7.4Z" transform="translate(0 0)"/><path class="cls-6" d="M300.2,4.8h6.6v6.3h-6.6Zm0,11.4h6.6v30h-6.6Z" transform="translate(0 0)"/><path class="cls-6" d="M333.1,26.3a6.15,6.15,0,0,0-2.2-4.2,7.62,7.62,0,0,0-4.6-1.4,8.42,8.42,0,0,0-2.7.4,6.27,6.27,0,0,0-2.7,1.6,8.81,8.81,0,0,0-2,3.3,16.84,16.84,0,0,0-.8,5.5,15.53,15.53,0,0,0,.4,3.7,12.15,12.15,0,0,0,1.4,3.3,7.18,7.18,0,0,0,2.5,2.4,7,7,0,0,0,3.7.9,6.81,6.81,0,0,0,4.8-1.8,8.73,8.73,0,0,0,2.4-5.1h6.6a14.81,14.81,0,0,1-4.4,9C333.2,46,330,47,326.2,47a14.91,14.91,0,0,1-6.2-1.2,13.27,13.27,0,0,1-7.4-8.2,20.65,20.65,0,0,1-1-6.2,21.32,21.32,0,0,1,.9-6.3,12.67,12.67,0,0,1,2.8-5.1,12,12,0,0,1,4.6-3.4,16,16,0,0,1,6.5-1.2,16.79,16.79,0,0,1,5,.7,11.68,11.68,0,0,1,4.2,2,11,11,0,0,1,3,3.4,12.23,12.23,0,0,1,1.4,4.8Z" transform="translate(0 0)"/><path class="cls-6" d="M350.3,33a12.7,12.7,0,0,0,.5,3.4,6.9,6.9,0,0,0,1.5,2.8,6.67,6.67,0,0,0,2.5,1.9,8,8,0,0,0,3.6.7,8.41,8.41,0,0,0,4.7-1.2,6.78,6.78,0,0,0,2.6-3.7H372a11.39,11.39,0,0,1-1.8,4.4,11.84,11.84,0,0,1-3.1,3.2,13.64,13.64,0,0,1-4,2,18.42,18.42,0,0,1-4.7.7,15.39,15.39,0,0,1-6.3-1.2,13.11,13.11,0,0,1-7.4-8.3,21.46,21.46,0,0,1-1-6.4,17.75,17.75,0,0,1,1-6.1,16.09,16.09,0,0,1,2.9-5.1,14.42,14.42,0,0,1,4.6-3.5,13.2,13.2,0,0,1,6-1.3,13.43,13.43,0,0,1,6.4,1.5,14.87,14.87,0,0,1,4.7,3.9,17.14,17.14,0,0,1,2.7,5.6,15.8,15.8,0,0,1,.4,6.5H350.3Zm15.4-4.4a10.1,10.1,0,0,0-.7-3,8.74,8.74,0,0,0-1.5-2.5,6.58,6.58,0,0,0-2.3-1.7,7.35,7.35,0,0,0-3-.7,8.29,8.29,0,0,0-3.2.6,7,7,0,0,0-2.4,1.7,8.21,8.21,0,0,0-1.6,2.5,10.76,10.76,0,0,0-.7,3.1Z" transform="translate(0 0)"/><g id="MyService"><path class="cls-6" d="M479.1.2H396a12.63,12.63,0,0,0-12.6,12.7V34.6A12.7,12.7,0,0,0,396,47.3h83.1a12.63,12.63,0,0,0,12.6-12.7V12.9A12.57,12.57,0,0,0,479.1.2Z" transform="translate(0 0)"/></g><g id="BETA"><path class="cls-7" d="M412.4,21.8a5.78,5.78,0,0,0,2.2-1.8,4.88,4.88,0,0,0,.8-2.8,6.69,6.69,0,0,0-.5-2.6,3.91,3.91,0,0,0-1.4-1.7,7.26,7.26,0,0,0-2.2-.9,12.31,12.31,0,0,0-2.9-.3H398v22h10.6a9.67,9.67,0,0,0,2.9-.4,7.07,7.07,0,0,0,2.5-1.1,5.51,5.51,0,0,0,1.7-2,6.53,6.53,0,0,0,.6-2.9,5.78,5.78,0,0,0-1-3.5A5.25,5.25,0,0,0,412.4,21.8Zm-9.5-6.3h4.5a4.87,4.87,0,0,1,1.2.1,3.58,3.58,0,0,1,1.1.4,1.39,1.39,0,0,1,.7.8,2.27,2.27,0,0,1,.3,1.3,2.48,2.48,0,0,1-.8,2,3.7,3.7,0,0,1-2.1.6h-4.9V15.5Zm8.4,13a2.36,2.36,0,0,1-.8.9,3.7,3.7,0,0,1-1.1.5,6.15,6.15,0,0,1-1.4.1h-5.2V24h5.3a3.9,3.9,0,0,1,2.5.7,3,3,0,0,1,1,2.4A2.9,2.9,0,0,1,411.3,28.5Zm14-4.2h10.6V20.5H425.3V15.8h11.6V11.7H420.5v22h16.6V29.6H425.3V24.3Zm32.1-12.5h-18v4.1H446V33.8h4.8v-18h6.6Zm11.7,0h-4.9l-8.3,22h4.9l1.7-4.9h8.2l1.7,4.9h5Zm-5.4,13.5,2.9-8.1h.1l2.8,8.1Z" transform="translate(0 0)"/></g></svg>