<?xml version="1.0" encoding="utf-8"?>
<!-- Generator: Adobe Illustrator 21.0.2, SVG Export Plug-In . SVG Version: 6.00 Build 0)  -->
<svg version="1.1" id="Layer_2" xmlns="http://www.w3.org/2000/svg" xmlns:xlink="http://www.w3.org/1999/xlink" x="0px" y="0px"
	 viewBox="0 0 480 108" style="enable-background:new 0 0 480 108;" xml:space="preserve">
<style type="text/css">
	.st0{fill:#FFFFFF;}
	.st1{fill:none;stroke:#000000;stroke-width:1.2756;stroke-miterlimit:3.8637;}
</style>
<g>
	<path d="M161.5,46.7h-6.5l-0.8,1.8c-0.3,0.6-0.4,1.1-0.4,1.5c0,0.5,0.2,0.9,0.6,1.1c0.2,0.1,0.9,0.3,1.8,0.3V52H150v-0.5
		c0.7-0.1,1.2-0.4,1.6-0.8c0.4-0.5,1-1.4,1.6-2.8l6.6-14.8h0.3l6.7,15.2c0.6,1.4,1.2,2.3,1.6,2.7c0.3,0.3,0.7,0.4,1.3,0.5V52h-9
		v-0.5h0.4c0.7,0,1.2-0.1,1.5-0.3c0.2-0.1,0.3-0.4,0.3-0.6c0-0.2,0-0.3-0.1-0.5c0-0.1-0.2-0.4-0.4-1L161.5,46.7z M161,45.7l-2.8-6.4
		l-2.8,6.4H161z"/>
	<path d="M181.9,39.2v10c0,1,0.1,1.6,0.3,1.8c0.2,0.2,0.6,0.4,1.1,0.5V52h-5.2v-1.7c-0.6,0.7-1.2,1.3-1.8,1.6
		c-0.6,0.3-1.3,0.5-2.1,0.5c-0.7,0-1.4-0.2-1.9-0.7s-0.9-1-1.1-1.6c-0.2-0.6-0.3-1.6-0.3-3.1V42c0-1-0.1-1.6-0.3-1.8
		c-0.2-0.2-0.5-0.4-1.1-0.5v-0.5h5.2v8.7c0,0.9,0,1.5,0.1,1.8c0.1,0.3,0.2,0.5,0.4,0.6c0.2,0.1,0.4,0.2,0.6,0.2
		c0.3,0,0.6-0.1,0.9-0.3c0.4-0.2,0.8-0.7,1.3-1.4V42c0-1-0.1-1.6-0.3-1.8c-0.2-0.2-0.5-0.4-1.1-0.5v-0.5H181.9z"/>
	<path d="M191.8,38.8l0.2,4.4h-0.5c-0.6-1.3-1.1-2.2-1.7-2.7c-0.6-0.5-1.2-0.7-1.8-0.7c-0.4,0-0.7,0.1-1,0.4
		c-0.3,0.3-0.4,0.5-0.4,0.9c0,0.2,0.1,0.5,0.3,0.7c0.3,0.4,1.1,1,2.4,1.9c1.3,0.9,2.2,1.7,2.6,2.3c0.4,0.6,0.6,1.3,0.6,2.1
		c0,0.7-0.2,1.4-0.5,2.1s-0.9,1.2-1.5,1.6c-0.6,0.4-1.4,0.5-2.1,0.5c-0.6,0-1.4-0.2-2.4-0.6c-0.3-0.1-0.5-0.2-0.6-0.2
		c-0.3,0-0.6,0.2-0.8,0.7h-0.5l-0.2-4.6h0.5c0.4,1.2,1,2.1,1.7,2.7c0.7,0.6,1.4,0.9,2,0.9c0.4,0,0.8-0.1,1.1-0.4
		c0.3-0.3,0.4-0.6,0.4-1c0-0.4-0.1-0.8-0.4-1.1c-0.3-0.3-0.9-0.8-1.8-1.4c-1.4-1-2.3-1.7-2.7-2.2c-0.6-0.7-0.9-1.6-0.9-2.5
		c0-1,0.3-1.9,1-2.7c0.7-0.8,1.7-1.2,2.9-1.2c0.7,0,1.4,0.2,2,0.5c0.2,0.1,0.4,0.2,0.6,0.2c0.2,0,0.3,0,0.4-0.1
		c0.1-0.1,0.3-0.3,0.5-0.6H191.8z"/>
	<path d="M198.3,34.5v4.7h3v1.4h-3v7.9c0,0.7,0,1.2,0.1,1.4c0.1,0.2,0.2,0.4,0.4,0.5c0.2,0.1,0.3,0.2,0.5,0.2c0.6,0,1.2-0.5,1.7-1.4
		l0.4,0.3c-0.7,1.8-1.9,2.6-3.6,2.6c-0.8,0-1.5-0.2-2.1-0.7s-0.9-1-1.1-1.5c-0.1-0.3-0.1-1.1-0.1-2.5v-6.9h-1.7v-0.5
		c1.1-0.8,2.1-1.7,2.9-2.6c0.8-0.9,1.5-1.9,2.1-3H198.3z"/>
	<path d="M206.5,39.2v2.9c0.8-1.3,1.6-2.2,2.2-2.6c0.6-0.4,1.3-0.6,1.8-0.6c0.5,0,0.9,0.2,1.2,0.5c0.3,0.3,0.5,0.8,0.5,1.3
		c0,0.6-0.1,1.1-0.4,1.4c-0.3,0.3-0.7,0.5-1.1,0.5c-0.5,0-0.9-0.2-1.3-0.5c-0.4-0.3-0.6-0.5-0.6-0.5c-0.1-0.1-0.2-0.1-0.3-0.1
		c-0.3,0-0.5,0.1-0.8,0.3c-0.4,0.3-0.7,0.8-0.8,1.3c-0.3,0.9-0.4,1.9-0.4,2.9V49l0,0.8c0,0.5,0,0.9,0.1,1c0.1,0.2,0.3,0.4,0.5,0.5
		c0.2,0.1,0.6,0.2,1.1,0.2V52h-6.9v-0.5c0.6,0,0.9-0.2,1.1-0.5c0.2-0.3,0.3-0.9,0.3-2.1v-7.1c0-0.7,0-1.2-0.1-1.4
		c-0.1-0.3-0.2-0.4-0.4-0.6c-0.2-0.1-0.5-0.2-0.9-0.2v-0.5H206.5z"/>
	<path d="M219.2,50.1c-1.6,1.4-3,2.1-4.2,2.1c-0.7,0-1.3-0.2-1.8-0.7c-0.5-0.5-0.7-1.1-0.7-1.8c0-1,0.4-1.9,1.3-2.6
		c0.8-0.8,2.7-1.8,5.5-3.1v-1.3c0-1-0.1-1.6-0.2-1.8c-0.1-0.3-0.3-0.5-0.6-0.7c-0.3-0.2-0.6-0.3-1-0.3c-0.6,0-1.1,0.1-1.5,0.4
		c-0.2,0.2-0.4,0.4-0.4,0.6c0,0.2,0.1,0.4,0.4,0.7c0.3,0.4,0.5,0.8,0.5,1.1c0,0.4-0.2,0.8-0.5,1.1c-0.3,0.3-0.8,0.5-1.3,0.5
		c-0.6,0-1.1-0.2-1.4-0.5c-0.4-0.3-0.6-0.8-0.6-1.2c0-0.7,0.3-1.3,0.8-1.9c0.5-0.6,1.2-1.1,2.2-1.4c0.9-0.3,1.9-0.5,2.9-0.5
		c1.2,0,2.2,0.3,2.9,0.8c0.7,0.5,1.2,1.1,1.4,1.7c0.1,0.4,0.2,1.3,0.2,2.6v5c0,0.6,0,1,0.1,1.1c0,0.2,0.1,0.3,0.2,0.3
		c0.1,0.1,0.2,0.1,0.3,0.1c0.2,0,0.5-0.2,0.7-0.5l0.4,0.3c-0.5,0.7-0.9,1.2-1.4,1.5c-0.5,0.3-1,0.5-1.7,0.5c-0.7,0-1.3-0.2-1.7-0.5
		S219.3,50.8,219.2,50.1z M219.2,49.1v-4.3c-1.1,0.6-1.9,1.3-2.5,2.1c-0.4,0.5-0.5,1-0.5,1.5c0,0.4,0.2,0.8,0.5,1.1
		c0.2,0.2,0.5,0.4,1,0.4C218.1,49.9,218.6,49.6,219.2,49.1z"/>
	<path d="M229.8,33.4v15.9c0,0.9,0.1,1.5,0.3,1.7c0.2,0.3,0.6,0.4,1.2,0.4V52h-6.9v-0.5c0.6,0,1-0.2,1.3-0.5
		c0.2-0.2,0.3-0.8,0.3-1.7V36.1c0-0.9-0.1-1.5-0.3-1.7c-0.2-0.3-0.6-0.4-1.2-0.4v-0.5H229.8z"/>
	<path d="M236.2,39.2v10.1c0,0.9,0.1,1.5,0.3,1.7c0.2,0.3,0.6,0.4,1.2,0.4V52h-6.9v-0.5c0.6,0,1-0.2,1.3-0.5
		c0.2-0.2,0.3-0.8,0.3-1.7v-7.5c0-0.9-0.1-1.5-0.3-1.7c-0.2-0.3-0.6-0.4-1.2-0.4v-0.5H236.2z M234.3,33c0.6,0,1.1,0.2,1.5,0.6
		c0.4,0.4,0.6,0.9,0.6,1.5c0,0.6-0.2,1.1-0.6,1.5s-0.9,0.6-1.5,0.6s-1.1-0.2-1.5-0.6s-0.6-0.9-0.6-1.5c0-0.6,0.2-1.1,0.6-1.5
		C233.2,33.2,233.7,33,234.3,33z"/>
	<path d="M244.6,50.1c-1.6,1.4-3,2.1-4.2,2.1c-0.7,0-1.3-0.2-1.8-0.7s-0.7-1.1-0.7-1.8c0-1,0.4-1.9,1.3-2.6s2.7-1.8,5.5-3.1v-1.3
		c0-1-0.1-1.6-0.2-1.8c-0.1-0.3-0.3-0.5-0.6-0.7c-0.3-0.2-0.6-0.3-1-0.3c-0.6,0-1.1,0.1-1.5,0.4c-0.2,0.2-0.4,0.4-0.4,0.6
		c0,0.2,0.1,0.4,0.4,0.7c0.3,0.4,0.5,0.8,0.5,1.1c0,0.4-0.2,0.8-0.5,1.1s-0.8,0.5-1.3,0.5c-0.6,0-1.1-0.2-1.4-0.5
		c-0.4-0.3-0.6-0.8-0.6-1.2c0-0.7,0.3-1.3,0.8-1.9c0.5-0.6,1.2-1.1,2.2-1.4c0.9-0.3,1.9-0.5,2.9-0.5c1.2,0,2.2,0.3,2.9,0.8
		c0.7,0.5,1.2,1.1,1.4,1.7c0.1,0.4,0.2,1.3,0.2,2.6v5c0,0.6,0,1,0.1,1.1s0.1,0.3,0.2,0.3c0.1,0.1,0.2,0.1,0.3,0.1
		c0.2,0,0.5-0.2,0.7-0.5l0.4,0.3c-0.5,0.7-0.9,1.2-1.4,1.5s-1,0.5-1.7,0.5c-0.7,0-1.3-0.2-1.7-0.5S244.7,50.8,244.6,50.1z
		 M244.6,49.1v-4.3c-1.1,0.6-1.9,1.3-2.5,2.1c-0.4,0.5-0.5,1-0.5,1.5c0,0.4,0.2,0.8,0.5,1.1c0.2,0.2,0.5,0.4,1,0.4
		C243.5,49.9,244,49.6,244.6,49.1z"/>
	<path d="M255.4,39.2v1.7c0.7-0.7,1.3-1.2,1.9-1.6c0.6-0.3,1.2-0.5,1.9-0.5c0.8,0,1.5,0.2,2.1,0.7c0.5,0.5,0.9,1,1.1,1.7
		c0.1,0.5,0.2,1.5,0.2,3v5c0,1,0.1,1.6,0.3,1.8c0.2,0.2,0.5,0.4,1.1,0.5V52h-6.5v-0.5c0.5-0.1,0.8-0.3,1-0.6
		c0.1-0.2,0.2-0.8,0.2-1.7v-5.7c0-1,0-1.7-0.1-2s-0.2-0.5-0.4-0.6s-0.4-0.2-0.6-0.2c-0.8,0-1.5,0.6-2.2,1.7v6.8c0,1,0.1,1.6,0.3,1.8
		c0.2,0.3,0.5,0.4,1,0.5V52h-6.5v-0.5c0.5-0.1,0.9-0.2,1.1-0.5c0.2-0.2,0.2-0.8,0.2-1.8V42c0-1-0.1-1.6-0.3-1.8
		c-0.2-0.2-0.5-0.4-1.1-0.5v-0.5H255.4z"/>
	<path d="M288.3,33v6.5h-0.5c-0.6-1.8-1.5-3.1-2.7-4.1s-2.6-1.4-4-1.4c-1.4,0-2.5,0.4-3.5,1.2s-1.6,1.9-2,3.3s-0.6,2.8-0.6,4.3
		c0,1.8,0.2,3.3,0.6,4.7s1.1,2.3,2,3s2,0.9,3.3,0.9c0.4,0,0.9,0,1.4-0.1s1-0.2,1.4-0.4V47c0-0.7,0-1.2-0.2-1.4
		c-0.1-0.2-0.3-0.4-0.6-0.6c-0.3-0.2-0.7-0.3-1.1-0.3h-0.5v-0.5h9v0.5c-0.7,0-1.2,0.1-1.4,0.3c-0.3,0.1-0.5,0.4-0.6,0.7
		c-0.1,0.2-0.1,0.6-0.1,1.3v3.9c-1.2,0.5-2.4,0.9-3.7,1.2s-2.6,0.4-4,0.4c-1.8,0-3.2-0.2-4.4-0.7s-2.2-1.1-3.1-1.9s-1.6-1.7-2.1-2.6
		c-0.6-1.3-1-2.7-1-4.2c0-2.8,1-5.1,2.9-7.1c2-1.9,4.4-2.9,7.4-2.9c0.9,0,1.8,0.1,2.5,0.2c0.4,0.1,1.1,0.3,1.9,0.6s1.4,0.5,1.6,0.5
		c0.3,0,0.5-0.1,0.7-0.3c0.2-0.2,0.4-0.5,0.6-1.1H288.3z"/>
	<path d="M296.3,38.8c1.1,0,2.1,0.3,3.1,0.9s1.7,1.4,2.2,2.4c0.5,1.1,0.7,2.2,0.7,3.5c0,1.8-0.5,3.3-1.4,4.6
		c-1.1,1.5-2.6,2.2-4.6,2.2c-1.9,0-3.4-0.7-4.4-2c-1-1.3-1.6-2.9-1.6-4.7c0-1.8,0.5-3.4,1.6-4.8C293,39.5,294.5,38.8,296.3,38.8z
		 M296.4,39.8c-0.5,0-0.9,0.2-1.2,0.5c-0.3,0.4-0.6,1-0.7,2.1c-0.1,1-0.2,2.5-0.2,4.3c0,1,0.1,1.9,0.2,2.7c0.1,0.6,0.3,1.1,0.6,1.5
		c0.3,0.3,0.7,0.5,1.1,0.5c0.4,0,0.8-0.1,1-0.3c0.4-0.3,0.6-0.7,0.7-1.3c0.2-0.9,0.3-2.6,0.3-5.3c0-1.5-0.1-2.6-0.3-3.2
		c-0.2-0.6-0.4-1-0.8-1.3C297.1,39.9,296.8,39.8,296.4,39.8z"/>
	<path d="M308.7,52.4l-4.3-9.9c-0.5-1.2-0.9-2-1.2-2.3c-0.2-0.2-0.5-0.4-0.9-0.5v-0.5h6.8v0.5c-0.4,0-0.7,0.1-0.9,0.2
		c-0.2,0.2-0.3,0.4-0.3,0.7c0,0.3,0.2,1,0.6,1.9l2.1,4.8l1.7-4.1c0.5-1.2,0.7-2,0.7-2.5c0-0.3-0.1-0.5-0.3-0.7s-0.6-0.3-1.1-0.3
		v-0.5h4.2v0.5c-0.4,0.1-0.7,0.2-1,0.5s-0.6,1-1.1,2.2l-4.3,10H308.7z"/>
	<path d="M326.3,45.1h-7c0.1,1.7,0.5,3,1.4,4c0.6,0.8,1.4,1.1,2.3,1.1c0.5,0,1-0.2,1.5-0.5c0.4-0.3,0.9-0.9,1.4-1.6l0.5,0.3
		c-0.7,1.4-1.5,2.4-2.3,3s-1.8,0.9-2.9,0.9c-1.9,0-3.3-0.7-4.3-2.2c-0.8-1.2-1.2-2.6-1.2-4.4c0-2.1,0.6-3.8,1.7-5.1
		c1.2-1.3,2.5-1.9,4.1-1.9c1.3,0,2.4,0.5,3.4,1.6C325.7,41.5,326.3,43,326.3,45.1z M323,44.2c0-1.5-0.1-2.5-0.2-3s-0.4-1-0.7-1.2
		c-0.2-0.2-0.4-0.2-0.8-0.2c-0.5,0-0.9,0.2-1.2,0.7c-0.5,0.8-0.8,1.9-0.8,3.3v0.5H323z"/>
	<path d="M331.8,39.2v2.9c0.8-1.3,1.6-2.2,2.2-2.6c0.6-0.4,1.3-0.6,1.8-0.6c0.5,0,0.9,0.2,1.2,0.5s0.5,0.8,0.5,1.3
		c0,0.6-0.1,1.1-0.4,1.4c-0.3,0.3-0.7,0.5-1.1,0.5c-0.5,0-0.9-0.2-1.3-0.5c-0.4-0.3-0.6-0.5-0.6-0.5c-0.1-0.1-0.2-0.1-0.3-0.1
		c-0.3,0-0.5,0.1-0.8,0.3c-0.4,0.3-0.7,0.8-0.8,1.3c-0.3,0.9-0.4,1.9-0.4,2.9V49l0,0.8c0,0.5,0,0.9,0.1,1c0.1,0.2,0.3,0.4,0.5,0.5
		c0.2,0.1,0.6,0.2,1.1,0.2V52h-6.9v-0.5c0.6,0,0.9-0.2,1.1-0.5s0.3-0.9,0.3-2.1v-7.1c0-0.7,0-1.2-0.1-1.4c-0.1-0.3-0.2-0.4-0.4-0.6
		c-0.2-0.1-0.5-0.2-0.9-0.2v-0.5H331.8z"/>
	<path d="M342.8,39.2v1.7c0.7-0.7,1.3-1.2,1.9-1.6c0.6-0.3,1.2-0.5,1.9-0.5c0.8,0,1.5,0.2,2.1,0.7c0.5,0.5,0.9,1,1.1,1.7
		c0.1,0.5,0.2,1.5,0.2,3v5c0,1,0.1,1.6,0.3,1.8c0.2,0.2,0.5,0.4,1.1,0.5V52h-6.5v-0.5c0.5-0.1,0.8-0.3,1-0.6
		c0.1-0.2,0.2-0.8,0.2-1.7v-5.7c0-1,0-1.7-0.1-2s-0.2-0.5-0.4-0.6s-0.4-0.2-0.6-0.2c-0.8,0-1.5,0.6-2.2,1.7v6.8c0,1,0.1,1.6,0.3,1.8
		c0.2,0.3,0.5,0.4,1,0.5V52h-6.5v-0.5c0.5-0.1,0.9-0.2,1.1-0.5c0.2-0.2,0.2-0.8,0.2-1.8V42c0-1-0.1-1.6-0.3-1.8
		c-0.2-0.2-0.5-0.4-1.1-0.5v-0.5H342.8z"/>
	<path d="M357,39.2v1.7c0.7-0.8,1.4-1.3,1.9-1.6c0.6-0.3,1.3-0.5,2-0.5c0.8,0,1.5,0.2,2.1,0.6s1,1,1.3,1.8c0.7-0.8,1.4-1.4,2.1-1.8
		c0.7-0.4,1.4-0.5,2.1-0.5c0.9,0,1.6,0.2,2.1,0.6c0.5,0.4,0.9,0.9,1.1,1.5c0.2,0.6,0.3,1.6,0.3,3v5.2c0,1,0.1,1.6,0.3,1.8
		c0.2,0.2,0.5,0.4,1.1,0.5V52h-6.6v-0.5c0.5,0,0.9-0.2,1.1-0.6c0.2-0.2,0.2-0.8,0.2-1.7v-5.5c0-1.1,0-1.9-0.1-2.2
		c-0.1-0.3-0.2-0.5-0.4-0.7s-0.4-0.2-0.7-0.2c-0.4,0-0.8,0.1-1.2,0.4s-0.8,0.7-1.2,1.3v6.9c0,0.9,0.1,1.5,0.2,1.7
		c0.2,0.3,0.6,0.5,1.2,0.6V52h-6.6v-0.5c0.4,0,0.6-0.1,0.8-0.3c0.2-0.2,0.3-0.4,0.4-0.6c0.1-0.2,0.1-0.7,0.1-1.5v-5.5
		c0-1.2,0-1.9-0.1-2.2c-0.1-0.3-0.2-0.5-0.5-0.7s-0.4-0.2-0.7-0.2c-0.4,0-0.7,0.1-1,0.3c-0.4,0.3-0.9,0.8-1.4,1.4v6.9
		c0,0.9,0.1,1.5,0.3,1.8s0.5,0.5,1.1,0.5V52h-6.6v-0.5c0.5-0.1,0.9-0.2,1.1-0.5c0.2-0.2,0.2-0.8,0.2-1.8V42c0-1-0.1-1.6-0.3-1.8
		c-0.2-0.2-0.5-0.4-1.1-0.5v-0.5H357z"/>
	<path d="M384.5,45.1h-7c0.1,1.7,0.5,3,1.4,4c0.6,0.8,1.4,1.1,2.3,1.1c0.5,0,1-0.2,1.5-0.5c0.4-0.3,0.9-0.9,1.4-1.6l0.5,0.3
		c-0.7,1.4-1.5,2.4-2.3,3s-1.8,0.9-2.9,0.9c-1.9,0-3.3-0.7-4.3-2.2c-0.8-1.2-1.2-2.6-1.2-4.4c0-2.1,0.6-3.8,1.7-5.1
		c1.2-1.3,2.5-1.9,4.1-1.9c1.3,0,2.4,0.5,3.4,1.6C383.9,41.5,384.4,43,384.5,45.1z M381.1,44.2c0-1.5-0.1-2.5-0.2-3s-0.4-1-0.7-1.2
		c-0.2-0.2-0.4-0.2-0.8-0.2c-0.5,0-0.9,0.2-1.2,0.7c-0.5,0.8-0.8,1.9-0.8,3.3v0.5H381.1z"/>
	<path d="M389.9,39.2v1.7c0.7-0.7,1.3-1.2,1.9-1.6c0.6-0.3,1.2-0.5,1.9-0.5c0.8,0,1.5,0.2,2.1,0.7c0.5,0.5,0.9,1,1.1,1.7
		c0.1,0.5,0.2,1.5,0.2,3v5c0,1,0.1,1.6,0.3,1.8c0.2,0.2,0.5,0.4,1.1,0.5V52H392v-0.5c0.5-0.1,0.8-0.3,1-0.6c0.1-0.2,0.2-0.8,0.2-1.7
		v-5.7c0-1,0-1.7-0.1-2s-0.2-0.5-0.4-0.6s-0.4-0.2-0.6-0.2c-0.8,0-1.5,0.6-2.2,1.7v6.8c0,1,0.1,1.6,0.3,1.8c0.2,0.3,0.5,0.4,1,0.5
		V52h-6.5v-0.5c0.5-0.1,0.9-0.2,1.1-0.5c0.2-0.2,0.2-0.8,0.2-1.8V42c0-1-0.1-1.6-0.3-1.8c-0.2-0.2-0.5-0.4-1.1-0.5v-0.5H389.9z"/>
	<path d="M403.9,34.5v4.7h3v1.4h-3v7.9c0,0.7,0,1.2,0.1,1.4c0.1,0.2,0.2,0.4,0.4,0.5c0.2,0.1,0.3,0.2,0.5,0.2c0.6,0,1.2-0.5,1.7-1.4
		l0.4,0.3c-0.7,1.8-1.9,2.6-3.6,2.6c-0.8,0-1.5-0.2-2.1-0.7s-0.9-1-1.1-1.5c-0.1-0.3-0.1-1.1-0.1-2.5v-6.9h-1.7v-0.5
		c1.1-0.8,2.1-1.7,2.9-2.6c0.8-0.9,1.5-1.9,2.1-3H403.9z"/>
	<path d="M150.2,92v-0.5h0.6c0.5,0,0.9-0.1,1.1-0.2c0.3-0.2,0.5-0.4,0.6-0.6c0.1-0.2,0.1-0.7,0.1-1.6V77.7c0-0.9,0-1.4-0.1-1.7
		s-0.3-0.4-0.6-0.6c-0.3-0.2-0.7-0.2-1.1-0.2h-0.6v-0.5h7.7c2.1,0,3.7,0.3,5,0.8c1.5,0.7,2.7,1.7,3.5,3.1s1.2,3,1.2,4.7
		c0,1.2-0.2,2.3-0.6,3.3c-0.4,1-0.9,1.9-1.5,2.5c-0.6,0.7-1.3,1.2-2.1,1.6c-0.8,0.4-1.8,0.7-3,0.9c-0.5,0.1-1.3,0.2-2.4,0.2H150.2z
		 M156.7,75.7v13.4c0,0.7,0,1.1,0.1,1.3s0.2,0.3,0.3,0.4c0.2,0.1,0.6,0.2,1,0.2c1.4,0,2.5-0.5,3.2-1.4c1-1.3,1.5-3.3,1.5-6.1
		c0-2.2-0.3-4-1-5.3c-0.6-1-1.3-1.7-2.1-2.1C159.1,75.9,158.1,75.7,156.7,75.7z"/>
	<path d="M178.2,85.6h-6.5c0.1,1.6,0.5,2.8,1.3,3.7c0.6,0.7,1.3,1.1,2.1,1.1c0.5,0,1-0.1,1.4-0.4c0.4-0.3,0.9-0.8,1.3-1.5l0.4,0.3
		c-0.6,1.3-1.4,2.2-2.1,2.8c-0.8,0.5-1.7,0.8-2.7,0.8c-1.8,0-3.1-0.7-4-2c-0.7-1.1-1.1-2.4-1.1-4.1c0-2,0.5-3.6,1.6-4.7
		c1.1-1.2,2.3-1.8,3.8-1.8c1.2,0,2.2,0.5,3.1,1.5C177.7,82.2,178.1,83.7,178.2,85.6z M175.1,84.8c0-1.4-0.1-2.3-0.2-2.8
		s-0.4-0.9-0.7-1.2c-0.2-0.2-0.4-0.2-0.7-0.2c-0.4,0-0.8,0.2-1.1,0.6c-0.5,0.8-0.7,1.8-0.7,3.1v0.4H175.1z"/>
	<path d="M183,90.8v4.4c0,0.6,0,1,0.1,1.2s0.2,0.4,0.5,0.5s0.6,0.2,1.2,0.2v0.5H178v-0.5c0.5,0,0.9-0.2,1.2-0.4
		c0.2-0.2,0.3-0.7,0.3-1.5V82.6c0-0.8-0.1-1.4-0.3-1.6c-0.2-0.2-0.6-0.4-1.1-0.4v-0.5h5v1.6c0.4-0.6,0.8-1,1.3-1.3
		c0.6-0.4,1.3-0.6,2-0.6c0.9,0,1.7,0.3,2.4,0.8s1.3,1.3,1.6,2.3c0.4,1,0.6,2,0.6,3.1c0,1.2-0.2,2.3-0.6,3.3c-0.4,1-0.9,1.8-1.7,2.3
		c-0.7,0.5-1.5,0.8-2.4,0.8c-0.7,0-1.3-0.1-1.8-0.4C183.9,91.7,183.5,91.3,183,90.8z M183,89.5c0.7,1,1.5,1.5,2.3,1.5
		c0.5,0,0.8-0.2,1.1-0.7c0.4-0.7,0.7-2.1,0.7-4.1c0-2-0.2-3.4-0.7-4.2c-0.3-0.5-0.8-0.7-1.3-0.7c-0.9,0-1.6,0.6-2.1,1.9V89.5z"/>
	<path d="M198.1,90.2c-1.4,1.3-2.7,1.9-3.9,1.9c-0.7,0-1.2-0.2-1.7-0.7c-0.4-0.4-0.7-1-0.7-1.7c0-0.9,0.4-1.7,1.2-2.4
		c0.8-0.7,2.5-1.7,5.1-2.9v-1.2c0-0.9,0-1.5-0.1-1.7c-0.1-0.2-0.3-0.4-0.6-0.6c-0.3-0.2-0.6-0.3-0.9-0.3c-0.6,0-1,0.1-1.4,0.4
		c-0.2,0.2-0.3,0.3-0.3,0.5c0,0.2,0.1,0.4,0.4,0.7c0.3,0.4,0.5,0.7,0.5,1.1c0,0.4-0.2,0.8-0.5,1.1c-0.3,0.3-0.7,0.4-1.2,0.4
		c-0.5,0-1-0.2-1.3-0.5s-0.5-0.7-0.5-1.1c0-0.6,0.2-1.2,0.7-1.7c0.5-0.6,1.2-1,2-1.3s1.8-0.4,2.7-0.4c1.1,0,2,0.2,2.7,0.7
		c0.7,0.5,1.1,1,1.3,1.6c0.1,0.4,0.2,1.2,0.2,2.5v4.6c0,0.5,0,0.9,0.1,1c0,0.1,0.1,0.2,0.2,0.3s0.2,0.1,0.3,0.1
		c0.2,0,0.4-0.2,0.7-0.5l0.4,0.3c-0.4,0.6-0.9,1.1-1.3,1.4c-0.5,0.3-1,0.4-1.5,0.4c-0.7,0-1.2-0.2-1.6-0.5
		C198.4,91.3,198.2,90.9,198.1,90.2z M198.1,89.3v-4c-1,0.6-1.8,1.2-2.3,1.9c-0.3,0.5-0.5,0.9-0.5,1.4c0,0.4,0.1,0.7,0.4,1
		c0.2,0.2,0.5,0.3,0.9,0.3C197.1,90,197.6,89.8,198.1,89.3z"/>
	<path d="M208.2,80.1v2.7c0.8-1.2,1.5-2,2.1-2.4c0.6-0.4,1.2-0.6,1.7-0.6c0.5,0,0.9,0.1,1.1,0.4c0.3,0.3,0.4,0.7,0.4,1.2
		c0,0.6-0.1,1-0.4,1.3s-0.6,0.5-1,0.5c-0.4,0-0.8-0.1-1.2-0.4s-0.5-0.4-0.6-0.5c-0.1-0.1-0.2-0.1-0.3-0.1c-0.2,0-0.5,0.1-0.7,0.3
		c-0.3,0.3-0.6,0.7-0.8,1.2c-0.3,0.8-0.4,1.7-0.4,2.7v2.7l0,0.7c0,0.5,0,0.8,0.1,0.9c0.1,0.2,0.3,0.4,0.5,0.5c0.2,0.1,0.5,0.2,1,0.2
		V92h-6.4v-0.5c0.5,0,0.9-0.2,1-0.4c0.2-0.2,0.3-0.9,0.3-1.9v-6.6c0-0.7,0-1.1-0.1-1.3c-0.1-0.2-0.2-0.4-0.4-0.5s-0.4-0.2-0.9-0.2
		v-0.5H208.2z"/>
	<path d="M218.2,75.8v4.3h2.8v1.3h-2.8v7.3c0,0.7,0,1.1,0.1,1.3c0.1,0.2,0.2,0.4,0.3,0.5c0.2,0.1,0.3,0.2,0.4,0.2
		c0.6,0,1.1-0.4,1.6-1.3l0.4,0.3c-0.7,1.6-1.8,2.4-3.3,2.4c-0.8,0-1.4-0.2-1.9-0.6c-0.5-0.4-0.9-0.9-1-1.4c-0.1-0.3-0.1-1.1-0.1-2.3
		v-6.4h-1.5v-0.4c1.1-0.8,2-1.5,2.7-2.4s1.4-1.8,2-2.8H218.2z"/>
	<path d="M225.8,80.1v1.6c0.7-0.7,1.3-1.2,1.8-1.5c0.6-0.3,1.2-0.4,1.8-0.4c0.8,0,1.4,0.2,1.9,0.5s0.9,0.9,1.2,1.6
		c0.7-0.8,1.3-1.3,1.9-1.7c0.6-0.3,1.3-0.5,1.9-0.5c0.8,0,1.5,0.2,2,0.6c0.5,0.4,0.8,0.9,1,1.4c0.2,0.6,0.3,1.5,0.3,2.8v4.9
		c0,0.9,0.1,1.5,0.2,1.7c0.2,0.2,0.5,0.4,1,0.4V92h-6.1v-0.5c0.5,0,0.8-0.2,1.1-0.6c0.2-0.2,0.2-0.8,0.2-1.6v-5.1c0-1.1,0-1.7-0.1-2
		s-0.2-0.5-0.4-0.6c-0.2-0.1-0.4-0.2-0.6-0.2c-0.4,0-0.7,0.1-1.1,0.4c-0.4,0.3-0.7,0.7-1.1,1.2v6.4c0,0.9,0.1,1.4,0.2,1.6
		c0.2,0.3,0.6,0.5,1.1,0.5V92h-6.1v-0.5c0.3,0,0.6-0.1,0.8-0.2c0.2-0.1,0.3-0.3,0.4-0.5c0.1-0.2,0.1-0.7,0.1-1.4v-5.1
		c0-1.1,0-1.7-0.1-2s-0.2-0.5-0.4-0.6s-0.4-0.2-0.6-0.2c-0.3,0-0.6,0.1-0.9,0.3c-0.4,0.3-0.8,0.7-1.3,1.3v6.4c0,0.8,0.1,1.4,0.2,1.7
		c0.2,0.3,0.5,0.4,1,0.5V92h-6.1v-0.5c0.5-0.1,0.9-0.2,1.1-0.5c0.1-0.2,0.2-0.7,0.2-1.7v-6.7c0-0.9-0.1-1.5-0.2-1.7s-0.5-0.4-1-0.4
		v-0.5H225.8z"/>
	<path d="M251.3,85.6h-6.5c0.1,1.6,0.5,2.8,1.3,3.7c0.6,0.7,1.3,1.1,2.1,1.1c0.5,0,1-0.1,1.4-0.4c0.4-0.3,0.9-0.8,1.3-1.5l0.4,0.3
		c-0.6,1.3-1.4,2.2-2.1,2.8c-0.8,0.5-1.7,0.8-2.7,0.8c-1.8,0-3.1-0.7-4-2c-0.7-1.1-1.1-2.4-1.1-4.1c0-2,0.5-3.6,1.6-4.7
		c1.1-1.2,2.3-1.8,3.8-1.8c1.2,0,2.2,0.5,3.1,1.5C250.7,82.2,251.2,83.7,251.3,85.6z M248.2,84.8c0-1.4-0.1-2.3-0.2-2.8
		c-0.1-0.5-0.4-0.9-0.7-1.2c-0.2-0.2-0.4-0.2-0.7-0.2c-0.4,0-0.8,0.2-1.1,0.6c-0.5,0.8-0.7,1.8-0.7,3.1v0.4H248.2z"/>
	<path d="M256.3,80.1v1.5c0.6-0.7,1.2-1.1,1.8-1.4c0.6-0.3,1.2-0.5,1.8-0.5c0.8,0,1.4,0.2,1.9,0.6c0.5,0.4,0.8,1,1,1.6
		c0.1,0.5,0.2,1.4,0.2,2.8v4.6c0,0.9,0.1,1.5,0.2,1.7c0.2,0.2,0.5,0.4,1,0.4V92h-6v-0.5c0.4-0.1,0.8-0.2,1-0.6
		c0.1-0.2,0.2-0.7,0.2-1.6v-5.3c0-1,0-1.6-0.1-1.8s-0.2-0.5-0.4-0.6c-0.2-0.1-0.4-0.2-0.6-0.2c-0.7,0-1.4,0.5-2,1.6v6.4
		c0,0.9,0.1,1.5,0.2,1.7c0.2,0.2,0.5,0.4,0.9,0.4V92h-6v-0.5c0.5-0.1,0.9-0.2,1.1-0.5c0.1-0.2,0.2-0.7,0.2-1.7v-6.7
		c0-0.9-0.1-1.5-0.2-1.7c-0.2-0.2-0.5-0.4-1-0.4v-0.5H256.3z"/>
	<path d="M269.3,75.8v4.3h2.8v1.3h-2.8v7.3c0,0.7,0,1.1,0.1,1.3c0.1,0.2,0.2,0.4,0.3,0.5c0.2,0.1,0.3,0.2,0.4,0.2
		c0.5,0,1.1-0.4,1.6-1.3l0.4,0.3c-0.7,1.6-1.8,2.4-3.3,2.4c-0.8,0-1.4-0.2-1.9-0.6c-0.5-0.4-0.9-0.9-1-1.4c-0.1-0.3-0.1-1.1-0.1-2.3
		v-6.4h-1.5v-0.4c1.1-0.8,2-1.5,2.7-2.4c0.8-0.8,1.4-1.8,2-2.8H269.3z"/>
	<path d="M282.8,79.7c1,0,2,0.3,2.9,0.8s1.6,1.3,2,2.3c0.5,1,0.7,2.1,0.7,3.2c0,1.7-0.4,3.1-1.3,4.2c-1,1.4-2.5,2.1-4.3,2.1
		c-1.8,0-3.2-0.6-4.1-1.9s-1.4-2.7-1.4-4.4c0-1.7,0.5-3.2,1.5-4.4C279.7,80.4,281.1,79.7,282.8,79.7z M282.8,80.6
		c-0.4,0-0.8,0.2-1.1,0.5c-0.3,0.3-0.5,1-0.6,1.9c-0.1,1-0.1,2.3-0.1,4c0,0.9,0.1,1.8,0.2,2.5c0.1,0.6,0.3,1.1,0.6,1.4
		s0.7,0.5,1,0.5c0.4,0,0.7-0.1,1-0.3c0.3-0.3,0.5-0.7,0.7-1.2c0.2-0.8,0.3-2.4,0.3-4.9c0-1.4-0.1-2.4-0.2-3
		c-0.2-0.5-0.4-0.9-0.7-1.2C283.5,80.7,283.2,80.6,282.8,80.6z"/>
	<path d="M294.1,81.3v8.2c0,0.8,0.1,1.3,0.3,1.5c0.3,0.3,0.8,0.5,1.5,0.4V92h-7v-0.5c0.5,0,0.9-0.1,1.1-0.2c0.2-0.1,0.4-0.3,0.5-0.5
		s0.1-0.6,0.1-1.3v-8.2h-1.7v-1.2h1.7v-0.9l0-0.6c0-1.2,0.4-2.2,1.3-3c0.9-0.8,2.1-1.2,3.6-1.2c1,0,1.8,0.2,2.3,0.6
		c0.5,0.4,0.8,0.8,0.8,1.3c0,0.4-0.2,0.7-0.5,1s-0.7,0.4-1.2,0.4c-0.4,0-0.8-0.1-1-0.3c-0.3-0.2-0.4-0.5-0.4-0.8
		c0-0.1,0-0.2,0.1-0.5c0-0.1,0.1-0.3,0.1-0.4c0-0.2-0.1-0.3-0.2-0.4c-0.1-0.1-0.3-0.2-0.5-0.2c-0.2,0-0.5,0.1-0.6,0.3
		c-0.2,0.2-0.2,0.5-0.2,1l0,2.2v1.5h1.8v1.2H294.1z"/>
	<path d="M323.8,74.8v0.5c-0.6,0.1-1.2,0.4-1.7,1c-0.4,0.4-0.9,1.4-1.6,3l-5.9,13.2h-0.4l-5.9-13.7c-0.7-1.7-1.2-2.6-1.4-2.9
		c-0.2-0.3-0.7-0.5-1.4-0.5v-0.5h8.3v0.5h-0.3c-0.7,0-1.3,0.1-1.5,0.3c-0.2,0.1-0.3,0.3-0.3,0.6c0,0.2,0,0.3,0.1,0.5
		c0.1,0.2,0.3,0.8,0.7,1.7l3.7,8.6l3.4-7.6c0.4-0.9,0.7-1.5,0.7-1.9s0.1-0.6,0.1-0.8c0-0.3-0.1-0.5-0.2-0.7s-0.3-0.3-0.6-0.4
		c-0.4-0.1-0.8-0.2-1.4-0.2v-0.5H323.8z"/>
	<path d="M331.3,85.6h-6.5c0.1,1.6,0.5,2.8,1.3,3.7c0.6,0.7,1.3,1.1,2.1,1.1c0.5,0,1-0.1,1.4-0.4c0.4-0.3,0.9-0.8,1.3-1.5l0.4,0.3
		c-0.6,1.3-1.4,2.2-2.1,2.8c-0.8,0.5-1.7,0.8-2.7,0.8c-1.8,0-3.1-0.7-4-2c-0.7-1.1-1.1-2.4-1.1-4.1c0-2,0.5-3.6,1.6-4.7
		c1.1-1.2,2.3-1.8,3.8-1.8c1.2,0,2.2,0.5,3.1,1.5C330.8,82.2,331.2,83.7,331.3,85.6z M328.2,84.8c0-1.4-0.1-2.3-0.2-2.8
		c-0.1-0.5-0.4-0.9-0.7-1.2c-0.2-0.2-0.4-0.2-0.7-0.2c-0.4,0-0.8,0.2-1.1,0.6c-0.5,0.8-0.7,1.8-0.7,3.1v0.4H328.2z"/>
	<path d="M336.2,75.8v4.3h2.8v1.3h-2.8v7.3c0,0.7,0,1.1,0.1,1.3c0.1,0.2,0.2,0.4,0.3,0.5c0.2,0.1,0.3,0.2,0.4,0.2
		c0.5,0,1.1-0.4,1.6-1.3l0.4,0.3c-0.7,1.6-1.8,2.4-3.3,2.4c-0.8,0-1.4-0.2-1.9-0.6c-0.5-0.4-0.9-0.9-1-1.4c-0.1-0.3-0.1-1.1-0.1-2.3
		v-6.4h-1.5v-0.4c1.1-0.8,2-1.5,2.7-2.4c0.8-0.8,1.4-1.8,2-2.8H336.2z"/>
	<path d="M348.9,85.6h-6.5c0.1,1.6,0.5,2.8,1.3,3.7c0.6,0.7,1.3,1.1,2.1,1.1c0.5,0,1-0.1,1.4-0.4c0.4-0.3,0.9-0.8,1.3-1.5l0.4,0.3
		c-0.6,1.3-1.4,2.2-2.1,2.8c-0.8,0.5-1.7,0.8-2.7,0.8c-1.8,0-3.1-0.7-4-2c-0.7-1.1-1.1-2.4-1.1-4.1c0-2,0.5-3.6,1.6-4.7
		c1.1-1.2,2.3-1.8,3.8-1.8c1.2,0,2.2,0.5,3.1,1.5C348.4,82.2,348.8,83.7,348.9,85.6z M345.8,84.8c0-1.4-0.1-2.3-0.2-2.8
		c-0.1-0.5-0.4-0.9-0.7-1.2c-0.2-0.2-0.4-0.2-0.7-0.2c-0.4,0-0.8,0.2-1.1,0.6c-0.5,0.8-0.7,1.8-0.7,3.1v0.4H345.8z"/>
	<path d="M354,80.1v2.7c0.8-1.2,1.5-2,2.1-2.4c0.6-0.4,1.2-0.6,1.7-0.6c0.5,0,0.9,0.1,1.1,0.4c0.3,0.3,0.4,0.7,0.4,1.2
		c0,0.6-0.1,1-0.4,1.3c-0.3,0.3-0.6,0.5-1,0.5c-0.4,0-0.8-0.1-1.2-0.4s-0.5-0.4-0.6-0.5c-0.1-0.1-0.2-0.1-0.3-0.1
		c-0.2,0-0.5,0.1-0.7,0.3c-0.3,0.3-0.6,0.7-0.8,1.2c-0.3,0.8-0.4,1.7-0.4,2.7v2.7l0,0.7c0,0.5,0,0.8,0.1,0.9
		c0.1,0.2,0.3,0.4,0.5,0.5c0.2,0.1,0.5,0.2,1,0.2V92h-6.4v-0.5c0.5,0,0.9-0.2,1-0.4c0.2-0.2,0.3-0.9,0.3-1.9v-6.6
		c0-0.7,0-1.1-0.1-1.3c-0.1-0.2-0.2-0.4-0.4-0.5s-0.4-0.2-0.9-0.2v-0.5H354z"/>
	<path d="M365.9,90.2c-1.4,1.3-2.7,1.9-3.9,1.9c-0.7,0-1.2-0.2-1.7-0.7c-0.4-0.4-0.7-1-0.7-1.7c0-0.9,0.4-1.7,1.2-2.4
		c0.8-0.7,2.5-1.7,5.1-2.9v-1.2c0-0.9,0-1.5-0.1-1.7c-0.1-0.2-0.3-0.4-0.6-0.6c-0.3-0.2-0.6-0.3-0.9-0.3c-0.5,0-1,0.1-1.4,0.4
		c-0.2,0.2-0.3,0.3-0.3,0.5c0,0.2,0.1,0.4,0.4,0.7c0.3,0.4,0.5,0.7,0.5,1.1c0,0.4-0.2,0.8-0.5,1.1c-0.3,0.3-0.7,0.4-1.2,0.4
		c-0.5,0-1-0.2-1.3-0.5c-0.4-0.3-0.5-0.7-0.5-1.1c0-0.6,0.2-1.2,0.7-1.7c0.5-0.6,1.2-1,2-1.3s1.8-0.4,2.7-0.4c1.1,0,2,0.2,2.7,0.7
		c0.7,0.5,1.1,1,1.3,1.6c0.1,0.4,0.2,1.2,0.2,2.5v4.6c0,0.5,0,0.9,0.1,1c0,0.1,0.1,0.2,0.2,0.3s0.2,0.1,0.3,0.1
		c0.2,0,0.4-0.2,0.7-0.5l0.4,0.3c-0.4,0.6-0.9,1.1-1.3,1.4c-0.5,0.3-1,0.4-1.5,0.4c-0.7,0-1.2-0.2-1.6-0.5
		C366.2,91.3,366,90.9,365.9,90.2z M365.9,89.3v-4c-1,0.6-1.8,1.2-2.3,1.9c-0.3,0.5-0.5,0.9-0.5,1.4c0,0.4,0.1,0.7,0.4,1
		c0.2,0.2,0.5,0.3,0.9,0.3C364.8,90,365.3,89.8,365.9,89.3z"/>
	<path d="M375.9,80.1v1.5c0.6-0.7,1.2-1.1,1.8-1.4c0.6-0.3,1.2-0.5,1.8-0.5c0.8,0,1.4,0.2,1.9,0.6c0.5,0.4,0.8,1,1,1.6
		c0.1,0.5,0.2,1.4,0.2,2.8v4.6c0,0.9,0.1,1.5,0.2,1.7c0.2,0.2,0.5,0.4,1,0.4V92h-6v-0.5c0.4-0.1,0.8-0.2,1-0.6
		c0.1-0.2,0.2-0.7,0.2-1.6v-5.3c0-1,0-1.6-0.1-1.8s-0.2-0.5-0.4-0.6c-0.2-0.1-0.4-0.2-0.6-0.2c-0.7,0-1.4,0.5-2,1.6v6.4
		c0,0.9,0.1,1.5,0.2,1.7c0.2,0.2,0.5,0.4,0.9,0.4V92h-6v-0.5c0.5-0.1,0.9-0.2,1.1-0.5c0.1-0.2,0.2-0.7,0.2-1.7v-6.7
		c0-0.9-0.1-1.5-0.2-1.7c-0.2-0.2-0.5-0.4-1-0.4v-0.5H375.9z"/>
	<path d="M391.7,79.8l0.2,4h-0.4c-0.5-1.2-1.1-2-1.6-2.5c-0.6-0.4-1.1-0.7-1.7-0.7c-0.3,0-0.6,0.1-0.9,0.3c-0.2,0.2-0.4,0.5-0.4,0.8
		c0,0.2,0.1,0.4,0.3,0.7c0.3,0.3,1,0.9,2.3,1.8c1.2,0.8,2.1,1.6,2.5,2.1c0.4,0.6,0.6,1.2,0.6,2c0,0.7-0.2,1.3-0.5,1.9
		s-0.8,1.1-1.4,1.5s-1.3,0.5-2,0.5c-0.6,0-1.3-0.2-2.3-0.5c-0.3-0.1-0.4-0.1-0.5-0.1c-0.3,0-0.5,0.2-0.7,0.6h-0.4l-0.2-4.3h0.4
		c0.4,1.1,0.9,2,1.6,2.5c0.7,0.6,1.3,0.8,1.9,0.8c0.4,0,0.7-0.1,1-0.4c0.3-0.2,0.4-0.6,0.4-0.9c0-0.4-0.1-0.8-0.4-1.1
		s-0.8-0.7-1.7-1.3c-1.3-0.9-2.1-1.6-2.5-2.1c-0.6-0.7-0.8-1.5-0.8-2.3c0-0.9,0.3-1.7,0.9-2.5c0.6-0.7,1.5-1.1,2.7-1.1
		c0.6,0,1.3,0.2,1.9,0.5c0.2,0.1,0.4,0.2,0.6,0.2c0.2,0,0.3,0,0.4-0.1c0.1-0.1,0.2-0.2,0.4-0.5H391.7z"/>
	<path d="M394.5,82.8v-0.6c1-0.4,1.7-1,2.1-1.6c0.4-0.7,0.7-1.4,0.7-2.1c0-0.1,0-0.2-0.1-0.3c-0.1-0.1-0.1-0.1-0.2-0.1
		c-0.1,0-0.1,0-0.2,0.1c-0.2,0.1-0.5,0.2-0.9,0.2c-0.5,0-0.9-0.2-1.3-0.6c-0.4-0.4-0.6-0.8-0.6-1.4c0-0.6,0.2-1,0.6-1.5
		s0.9-0.6,1.5-0.6c0.7,0,1.3,0.3,1.9,0.8c0.5,0.6,0.8,1.3,0.8,2.3c0,1.2-0.4,2.3-1.1,3.2C397,81.7,396,82.4,394.5,82.8z"/>
	<path d="M412.1,87.1h-6.1l-0.7,1.7c-0.2,0.6-0.4,1-0.4,1.4c0,0.5,0.2,0.8,0.6,1.1c0.2,0.1,0.8,0.2,1.7,0.3V92h-5.7v-0.5
		c0.6-0.1,1.1-0.3,1.5-0.8c0.4-0.4,0.9-1.3,1.5-2.6l6.2-13.7h0.2l6.2,14.1c0.6,1.3,1.1,2.2,1.5,2.5c0.3,0.3,0.7,0.4,1.2,0.5V92h-8.3
		v-0.5h0.3c0.7,0,1.1-0.1,1.4-0.3c0.2-0.1,0.3-0.3,0.3-0.6c0-0.2,0-0.3-0.1-0.5c0-0.1-0.1-0.4-0.4-1L412.1,87.1z M411.7,86.1
		l-2.6-5.9l-2.6,5.9H411.7z"/>
	<path d="M424.9,81.3v8.2c0,0.8,0.1,1.3,0.3,1.5c0.3,0.3,0.8,0.5,1.5,0.4V92h-7v-0.5c0.5,0,0.9-0.1,1.1-0.2c0.2-0.1,0.4-0.3,0.5-0.5
		s0.1-0.6,0.1-1.3v-8.2h-1.7v-1.2h1.7v-0.9l0-0.6c0-1.2,0.4-2.2,1.3-3c0.9-0.8,2.1-1.2,3.6-1.2c1,0,1.8,0.2,2.3,0.6
		c0.5,0.4,0.8,0.8,0.8,1.3c0,0.4-0.2,0.7-0.5,1s-0.7,0.4-1.2,0.4c-0.4,0-0.8-0.1-1-0.3c-0.3-0.2-0.4-0.5-0.4-0.8
		c0-0.1,0-0.2,0.1-0.5c0-0.1,0.1-0.3,0.1-0.4c0-0.2-0.1-0.3-0.2-0.4c-0.1-0.1-0.3-0.2-0.5-0.2c-0.2,0-0.5,0.1-0.6,0.3
		c-0.2,0.2-0.2,0.5-0.2,1l0,2.2v1.5h1.8v1.2H424.9z"/>
	<path d="M432.2,81.3v8.2c0,0.8,0.1,1.3,0.3,1.5c0.3,0.3,0.8,0.5,1.5,0.4V92h-7v-0.5c0.5,0,0.9-0.1,1.1-0.2c0.2-0.1,0.4-0.3,0.5-0.5
		s0.1-0.6,0.1-1.3v-8.2H427v-1.2h1.7v-0.9l0-0.6c0-1.2,0.4-2.2,1.3-3c0.9-0.8,2.1-1.2,3.6-1.2c1,0,1.8,0.2,2.3,0.6
		c0.5,0.4,0.8,0.8,0.8,1.3c0,0.4-0.2,0.7-0.5,1s-0.7,0.4-1.2,0.4c-0.4,0-0.8-0.1-1-0.3c-0.3-0.2-0.4-0.5-0.4-0.8
		c0-0.1,0-0.2,0.1-0.5c0-0.1,0.1-0.3,0.1-0.4c0-0.2-0.1-0.3-0.2-0.4c-0.1-0.1-0.3-0.2-0.5-0.2c-0.2,0-0.5,0.1-0.6,0.3
		c-0.2,0.2-0.2,0.5-0.2,1l0,2.2v1.5h1.8v1.2H432.2z"/>
	<path d="M440.9,90.2c-1.4,1.3-2.7,1.9-3.9,1.9c-0.7,0-1.2-0.2-1.7-0.7c-0.4-0.4-0.7-1-0.7-1.7c0-0.9,0.4-1.7,1.2-2.4
		c0.8-0.7,2.5-1.7,5.1-2.9v-1.2c0-0.9,0-1.5-0.1-1.7c-0.1-0.2-0.3-0.4-0.6-0.6c-0.3-0.2-0.6-0.3-0.9-0.3c-0.5,0-1,0.1-1.4,0.4
		c-0.2,0.2-0.3,0.3-0.3,0.5c0,0.2,0.1,0.4,0.4,0.7c0.3,0.4,0.5,0.7,0.5,1.1c0,0.4-0.2,0.8-0.5,1.1c-0.3,0.3-0.7,0.4-1.2,0.4
		c-0.5,0-1-0.2-1.3-0.5c-0.4-0.3-0.5-0.7-0.5-1.1c0-0.6,0.2-1.2,0.7-1.7c0.5-0.6,1.2-1,2-1.3s1.8-0.4,2.7-0.4c1.1,0,2,0.2,2.7,0.7
		c0.7,0.5,1.1,1,1.3,1.6c0.1,0.4,0.2,1.2,0.2,2.5v4.6c0,0.5,0,0.9,0.1,1c0,0.1,0.1,0.2,0.2,0.3s0.2,0.1,0.3,0.1
		c0.2,0,0.4-0.2,0.7-0.5l0.4,0.3c-0.4,0.6-0.9,1.1-1.3,1.4c-0.5,0.3-1,0.4-1.5,0.4c-0.7,0-1.2-0.2-1.6-0.5
		C441.3,91.3,441,90.9,440.9,90.2z M440.9,89.3v-4c-1,0.6-1.8,1.2-2.3,1.9c-0.3,0.5-0.5,0.9-0.5,1.4c0,0.4,0.1,0.7,0.4,1
		c0.2,0.2,0.5,0.3,0.9,0.3C439.9,90,440.4,89.8,440.9,89.3z"/>
	<path d="M450.7,80.1v9.4c0,0.8,0.1,1.4,0.3,1.6c0.2,0.2,0.6,0.4,1.1,0.4V92h-6.4v-0.5c0.5,0,0.9-0.2,1.2-0.5
		c0.2-0.2,0.3-0.7,0.3-1.5v-6.9c0-0.8-0.1-1.4-0.3-1.6c-0.2-0.2-0.6-0.4-1.1-0.4v-0.5H450.7z M449,74.4c0.5,0,1,0.2,1.4,0.6
		c0.4,0.4,0.6,0.8,0.6,1.4s-0.2,1-0.6,1.4c-0.4,0.4-0.8,0.6-1.4,0.6s-1-0.2-1.4-0.6s-0.6-0.8-0.6-1.4s0.2-1,0.6-1.4
		C448,74.5,448.4,74.4,449,74.4z"/>
	<path d="M456.9,80.1v2.7c0.8-1.2,1.5-2,2.1-2.4c0.6-0.4,1.2-0.6,1.7-0.6c0.5,0,0.9,0.1,1.1,0.4c0.3,0.3,0.4,0.7,0.4,1.2
		c0,0.6-0.1,1-0.4,1.3c-0.3,0.3-0.6,0.5-1,0.5c-0.4,0-0.8-0.1-1.2-0.4s-0.5-0.4-0.6-0.5c-0.1-0.1-0.2-0.1-0.3-0.1
		c-0.2,0-0.5,0.1-0.7,0.3c-0.3,0.3-0.6,0.7-0.8,1.2c-0.3,0.8-0.4,1.7-0.4,2.7v2.7l0,0.7c0,0.5,0,0.8,0.1,0.9
		c0.1,0.2,0.3,0.4,0.5,0.5c0.2,0.1,0.5,0.2,1,0.2V92h-6.4v-0.5c0.5,0,0.9-0.2,1-0.4c0.2-0.2,0.3-0.9,0.3-1.9v-6.6
		c0-0.7,0-1.1-0.1-1.3c-0.1-0.2-0.2-0.4-0.4-0.5s-0.4-0.2-0.9-0.2v-0.5H456.9z"/>
	<path d="M469.8,79.8l0.2,4h-0.4c-0.5-1.2-1.1-2-1.6-2.5c-0.6-0.4-1.1-0.7-1.7-0.7c-0.3,0-0.6,0.1-0.9,0.3c-0.2,0.2-0.4,0.5-0.4,0.8
		c0,0.2,0.1,0.4,0.3,0.7c0.3,0.3,1,0.9,2.3,1.8c1.2,0.8,2.1,1.6,2.5,2.1c0.4,0.6,0.6,1.2,0.6,2c0,0.7-0.2,1.3-0.5,1.9
		s-0.8,1.1-1.4,1.5s-1.3,0.5-2,0.5c-0.6,0-1.3-0.2-2.3-0.5c-0.3-0.1-0.4-0.1-0.5-0.1c-0.3,0-0.5,0.2-0.7,0.6h-0.4l-0.2-4.3h0.4
		c0.4,1.1,0.9,2,1.6,2.5c0.7,0.6,1.3,0.8,1.9,0.8c0.4,0,0.7-0.1,1-0.4c0.3-0.2,0.4-0.6,0.4-0.9c0-0.4-0.1-0.8-0.4-1.1
		s-0.8-0.7-1.7-1.3c-1.3-0.9-2.1-1.6-2.5-2.1c-0.6-0.7-0.8-1.5-0.8-2.3c0-0.9,0.3-1.7,0.9-2.5c0.6-0.7,1.5-1.1,2.7-1.1
		c0.6,0,1.3,0.2,1.9,0.5c0.2,0.1,0.4,0.2,0.6,0.2c0.2,0,0.3,0,0.4-0.1c0.1-0.1,0.2-0.2,0.4-0.5H469.8z"/>
</g>
<path d="M52.5,80.7c-0.1,0.1-0.2,0.3-0.3,0.3"/>
<path d="M55.5,57.1c0.3,0,0.6-0.3,0.6-0.6c0-0.4-0.3-0.6-0.6-0.6c-0.3,0-0.6,0.3-0.6,0.6C54.8,56.9,55.1,57.1,55.5,57.1L55.5,57.1z"
	/>
<path d="M84.7,30.5L84.7,30.5l-22.7,0v0h0l0,18.4c0,1.8,0.8,3.3,1.8,3.8l8.7,5.2c0.2,0.2,0.5,0.4,0.8,0.4c0.3,0,0.5-0.1,0.7-0.3
	l8.9-5.3c1-0.5,1.8-2,1.8-3.8L84.7,30.5L84.7,30.5L84.7,30.5z M69.5,35.8h-2v-4.7h2V35.8L69.5,35.8z M68.1,37.4l0.3-0.3l-0.2-0.3
	l0.4,0l0.2-0.4l0.2,0.4l0.4,0l-0.2,0.3l0.3,0.3l-0.4,0.1v0.4l-0.3-0.3l-0.3,0.3v-0.4L68.1,37.4L68.1,37.4z M62.6,43.3v-4.5H65v4.5
	H62.6L62.6,43.3z M63,36.8l0.4,0l0.2-0.4l0.2,0.4l0.4,0L64,37.1l0.3,0.3l-0.4,0.1v0.4l-0.3-0.3l-0.3,0.3v-0.4l-0.4-0.1l0.3-0.3
	L63,36.8L63,36.8z M65.7,41.4l0.4,0l0.2-0.4l0.2,0.4l0.4,0l-0.2,0.3L67,42L66.6,42v0.4l-0.3-0.3L66,42.4V42L65.6,42l0.3-0.3
	L65.7,41.4L65.7,41.4z M67.3,37.8c0-0.1-0.2-0.2-0.2-0.2c-0.2,0-0.3,0.4-0.5,0.4c-0.1,0-0.2,0-0.2-0.1c0-0.1,0.3-0.2,0.4-0.3
	c-1.5,0-1.5,0.7-1.7,0.7c-0.4,0,0.3-0.7,0.5-0.9c-0.3,0-0.5-0.4-0.8-0.6c0.2-0.2,0.2-0.1,0.4,0c0-0.2,0.1-0.3,0.5-0.3
	c0.7,0,0.5,0.6,0.6,0.6c0.1,0,0-0.6,0.4-0.6c0.7,0,1.5,1.7,0.7,1.7C67,38.1,67.3,37.8,67.3,37.8L67.3,37.8z M65.6,32.9l0.3-0.3
	l-0.2-0.3l0.4,0l0.2-0.4l0.2,0.4l0.4,0l-0.2,0.3l0.3,0.3l-0.4,0.1v0.4l-0.3-0.3L66,33.3v-0.4L65.6,32.9L65.6,32.9z M65,31.1v4.7
	h-2.4v-4.7H65L65,31.1z M69.5,55.4l-5.4-3.3c-0.9-0.6-1.4-1.7-1.5-3v-5.2h6.9V55.4L69.5,55.4z M67.6,43.3v-4.5h2v4.5H67.6L67.6,43.3
	z M76.5,55.7L74,57.2h0c-0.2,0.1-0.4,0.2-0.7,0.2c-0.3,0-0.5-0.1-0.7-0.2l-2.5-1.5V43.9h6.4V55.7L76.5,55.7z M76.5,43.3h-6.4V31.1
	h6.4V43.3L76.5,43.3z M84.1,49.1c-0.1,1.3-0.6,2.4-1.5,3l-5.4,3.3V43.9h6.9V49.1L84.1,49.1z M84.1,43.3h-6.9V31.1h6.9V43.3
	L84.1,43.3z"/>
<path d="M69.2,48.1c0-0.1-0.9,0.3-0.6,0.3c0-0.2,0.5-0.7,0.7-0.9c0-0.3-0.4,0-0.8,0.2c1.3-1.9,0.5-1.1-0.3-1c1.2-1.2,0.9-1.2,0-0.8
	c0.7-0.5,0.8-1.2,0.7-1.3c-0.6,0.8-1.2,0.7-1.2,1.5c0,0.5-0.2,1.3-0.4,1.6c-0.3,0.4-0.1-1.4-1-1.4c-0.3,0-1,0-1.2,0.3
	c0.2,0,0.5,0.5,0.5,0.6c0,0.2,0.2,0.7-0.1,0.7c-0.3,0-0.7-0.6-0.7-0.9c0-0.3,0-0.2,0-0.7c0-0.7-1.2-1.8-1.7-1.8
	c0,0.5,0.7,0.6,0.7,1.3c-0.3,0-0.7-0.5-0.7-0.2c0,0.3,0.4,0.4,0.4,0.7c0,0.3-0.5-0.1-0.5,0.2c0,0.3,0.3,0.2,0.3,0.5
	c-0.2-0.1-0.4,0-0.4,0.1c0,0.1,0.1,0.2,0.2,0.3C63,47.4,63,47.5,63,47.9c0,1.5,0.9,2.1,1.6,2.1c0.5,0,0.4-0.3,0.5-0.5
	c0,0.2,0.3-0.1,0.3,0.3c0,0.4-0.5,0.3-0.5,0.6c0,0.5,0.7,0,0.7,0.6c0,0.7-0.1,0.7-0.1,0.9c0,0.2,0.8-0.3,0.7-0.3
	c0.2,0.1,0.2,0.6,0.5,0.6c0.2,0,0.3-0.6,0.4-0.6c-0.1,0,0.7,0.5,0.7,0.3c0-0.7-0.3-0.4-0.3-0.9c0-0.4,0.9-0.3,0.8-0.6
	c-0.1-0.2-0.2-0.1-0.3-0.4c0,0.1-0.7-1.1,0.2-0.5C69.1,50.3,69.2,48.2,69.2,48.1L69.2,48.1z"/>
<path d="M93.4,52.9c0.4,0,0.7-0.3,0.7-0.7s-0.3-0.7-0.7-0.7s-0.7,0.3-0.7,0.7S93,52.9,93.4,52.9L93.4,52.9z"/>
<path d="M90.4,54.7c0.4,0,0.7-0.3,0.7-0.7c0-0.4-0.3-0.7-0.7-0.7s-0.7,0.3-0.7,0.7C89.7,54.4,90,54.7,90.4,54.7L90.4,54.7z"/>
<path d="M54.5,58.9c0.4,0,0.7-0.3,0.7-0.7c0-0.4-0.3-0.7-0.7-0.7c-0.4,0-0.7,0.3-0.7,0.7C53.7,58.6,54,58.9,54.5,58.9L54.5,58.9z"/>
<path d="M56.8,59.1c0.4,0,0.7-0.3,0.7-0.7c0-0.4-0.3-0.7-0.7-0.7c-0.4,0-0.7,0.3-0.7,0.7C56,58.8,56.4,59.1,56.8,59.1L56.8,59.1z"/>
<path d="M121.5,27.7c1.1,1.3,1.3,3.4,0.6,5c-0.4,0-0.4-0.6-0.4-0.9c-0.8-1.5-1.4-3.4-0.7-5C121.4,26.8,121.2,27.4,121.5,27.7
	L121.5,27.7z"/>
<path d="M26.5,29.5c-0.2,1-0.2,2.3,0,3.2c-0.2,0.2-0.2-0.2-0.4-0.2c-1.5-1.1-0.8-3.3-1.2-4.9c0.1-0.1,0.3-0.2,0.4-0.1
	C26.1,28,26.4,28.7,26.5,29.5L26.5,29.5z"/>
<path d="M124.9,29.6c0.2,0.4-0.2,0.9-0.5,1.1c-0.4,0.1-0.8-0.1-1-0.4c-0.1-0.4,0.1-0.8,0.5-1C124.3,29.2,124.7,29.3,124.9,29.6
	L124.9,29.6z"/>
<path d="M24.1,31.4c-0.1,0.4-0.2,0.7-0.5,0.9c-0.2,0-0.6,0-0.8-0.2c-0.2-0.2-0.3-0.6-0.2-0.8c0.2-0.3,0.5-0.3,0.8-0.4
	C23.7,31,24,31.1,24.1,31.4L24.1,31.4z"/>
<path d="M126.5,32c0.1,0.2,0.1,0.4,0,0.6c-0.3,0.4-0.7,0.5-1.1,0.4c-0.3-0.2-0.4-0.4-0.4-0.7c0.1-0.3,0.4-0.6,0.7-0.7
	C126,31.6,126.2,31.8,126.5,32L126.5,32z"/>
<path d="M124.2,32.1c0.3,0.2,0.1,0.6,0,0.8c-0.2,0.2-0.5,0.5-0.8,0.4c-0.2-0.2-0.4-0.2-0.5-0.5c0-0.4,0.2-0.8,0.6-0.9
	C123.8,31.8,124,32,124.2,32.1L124.2,32.1z"/>
<path d="M121.3,32.7c0,0.4,0,1-0.5,1.1c-0.5,0.2-0.8-0.2-0.9-0.6c0-0.4,0.2-0.8,0.6-1C120.8,32.2,121.1,32.4,121.3,32.7L121.3,32.7z
	"/>
<path d="M28.4,32.9c0.1,0.4-0.3,0.6-0.5,0.8c-0.3,0.1-0.6-0.2-0.8-0.4c-0.3-0.3,0.1-0.5,0.2-0.8C27.7,32.2,28.3,32.4,28.4,32.9
	L28.4,32.9z"/>
<path d="M26.1,33c0,0.3-0.2,0.6-0.4,0.8c-0.3,0.1-0.6-0.1-0.8-0.4c-0.2-0.4,0-0.8,0.4-0.9C25.6,32.3,25.9,32.7,26.1,33L26.1,33z"/>
<path d="M111.7,33.2c0.4,0.8,0.7,1.8,0.8,2.9c-0.2,0.8,0.1,1.8-0.4,2.3c-0.6-0.2-0.6-0.9-1-1.2c-0.7-1.4-0.1-3,0.2-4.4
	C111.6,32.6,111.6,33,111.7,33.2L111.7,33.2z"/>
<path d="M24.2,33.6c0.1,0.5-0.2,0.7-0.5,1c-0.5,0.1-0.8-0.2-1-0.6c0-0.4,0.2-0.8,0.5-1C23.6,33.1,24,33.3,24.2,33.6L24.2,33.6z"/>
<path d="M118,34.8c0.5,1.2,0.6,2.6,0.2,3.8l-0.2,0.2c-0.6-1.1-1.3-2.1-1.6-3.2c0-0.8,0.2-1.6,0.5-2.3c0.3-0.2,0.4,0,0.6,0.3
	C117.4,34,117.6,34.6,118,34.8L118,34.8z"/>
<path d="M123,34.1c0,0.4-0.2,0.8-0.6,1c-0.4,0.1-0.8,0-0.9-0.5c-0.1-0.4,0.1-0.8,0.4-1C122.3,33.4,122.8,33.8,123,34.1L123,34.1z"/>
<path d="M26.1,35.3c0,0.3-0.3,0.7-0.6,0.8c-0.3,0.2-0.6-0.2-0.8-0.3c-0.1-0.3-0.2-0.6,0-0.9c0.1-0.2,0.4-0.2,0.6-0.3
	C25.7,34.8,26,34.9,26.1,35.3L26.1,35.3z"/>
<path d="M27.9,35.1c0.2,0.4-0.3,0.6-0.4,0.8c-0.5,0.2-0.7-0.2-0.9-0.5c-0.1-0.4,0.2-0.6,0.4-0.9C27.4,34.4,27.7,34.8,27.9,35.1
	L27.9,35.1z"/>
<path d="M124.1,35c0,0.5-0.8,1-0.9,1.6c-0.4,1.1-1.4,1.9-2.5,2.2c-0.2,0.2-0.6,0.5-0.9,0.5c-0.1-0.8,0.6-1.5,1.1-2.2
	C121.7,36,122.9,35.3,124.1,35L124.1,35z"/>
<path d="M25.3,36.7c0.6,0.7,0.9,1.3,1.6,1.9c0,0.2-0.1,0.4-0.3,0.4c-1.9-0.1-3.3-2.1-4.2-3.5c0.1-0.4,0.6-0.1,0.9-0.1
	C24,35.8,24.8,36,25.3,36.7L25.3,36.7z"/>
<path d="M124.6,37.2c-0.1,1.7-0.9,3.5-2.5,4.3c-0.4,0.2-0.9,0.6-1.3,0.3c0.8-1.7,2.1-3.1,3.5-4.6H124.6L124.6,37.2z"/>
<path d="M117,38.4c0.1,0.6-0.2,1-0.7,1.2c-0.4,0-0.7-0.3-0.9-0.6c0-0.4,0.2-0.8,0.6-0.9c0.1-0.1,0.3-0.1,0.5-0.1
	C116.7,38,116.8,38.2,117,38.4L117,38.4z"/>
<path d="M23.1,38.8c0.8,0.5,1.4,1.2,2.1,1.9c-0.5,0.4-1.2,0-1.7,0c-1.3-0.5-2.3-1.6-3.6-2c0-0.4,0.6-0.3,0.8-0.4
	C21.6,38.2,22.3,38.6,23.1,38.8L23.1,38.8z"/>
<path d="M65.6,26.9c-2.2-0.9-3.7,1.4-6,1.2c-0.3,0.2-0.2,0.4-0.4,0.6c-0.1,0.1-0.3,0-0.4,0c-0.1-1-0.4-1.8-0.6-2.8
	c-0.2-0.4-0.1-1-0.3-1.4c-1.3-3.5,3.1-0.8,4-2.9c0.8-1.8-1.5-2-2.1-3.2V18c-0.6-0.6-1.3-0.8-1.7-1.7c0.3-1,0.4-2.1,0.1-3.1
	c0-0.2-0.2-0.6-0.6-0.4c-0.8,1-1.3,1.9-2,2.9c-0.8-0.6-1.5-1.3-2.3-1.8c-0.6-0.1-1.2-0.7-1.8-0.4c-0.1,0.2,0,0.4,0.1,0.6
	c0,1.6,0.8,2.8,1.9,3.9l0.1,0.6c-0.7,1.6-0.5,3.5-0.7,5.3c-1.8,4.6-4.7,8.9-8.6,12.1c-2.3,2.6-5,5-5.3,8.5c-0.1,0.6,0.1,1.2-0.4,1.6
	c-1.3-0.5-2.6-1.1-3.7-2c-1.8-1.3-4.4-1.1-5.6-3.4c-0.5-0.9,0.1-1.8,0.6-2.5c1.3-1.3,1.2-3.6,0.4-5.1c-0.2,0-0.2,0.2-0.3,0.2
	c-0.1,2.4-2,4-1.3,6.6c0.2,0.8,0.6,1.2,0.8,2c-0.3-0.1-0.7-0.1-0.9-0.2c-0.9-0.1-1.7-0.5-2.7-0.4c-1.8,0.8-4.3-0.2-5.8,1.5
	c-0.2,0-0.6,0.1-0.5,0.4c0.9,0,1.7,0.2,2.6,0.2c1.4,0.2,2.3-0.9,3.3-1.4h0.2c0.4-0.4,1.1-0.2,1.6-0.2c2.5,0.3,4.4,1.5,6.5,2.7v0.2
	c-0.8,0.4-1.7,0.6-2.5,1c-0.9,0.7-1.9,1.6-2.2,2.7c-0.6,1,0.2,1.9,0.6,2.7c0,0.4,0.1,0.9,0.4,1c1.3-1.4,0.1-3,0.3-4.6
	c0.3-1.2,1.4-1.8,2.6-2.1c2.3-1,3.9,0.9,5.7,1.9c0,1.8,0.2,3.6-0.2,5.4c-0.6,0.2-1.3,0.3-1.9,0.3c-3.1,0.2-5.6,2-8.4,2.9
	c-1.3,0.4-2.8,0.4-4,0.9c1,0.3,2-0.1,3.1-0.1c3.9-0.6,6.9-3.6,11.1-3l0.1,0.1c-0.5,1-1.1,1.8-1.9,2.6c-0.1-0.4-0.2-0.8-0.6-1
	c-0.3-0.2-0.7,0-0.9,0.3c-0.1,0.2-0.1,0.4,0,0.6c0.2,0.4,0.5,0.4,0.9,0.6c-0.1,0.4-0.5,0.5-0.8,0.8c-1.1,1.9-3.4,1.1-4.7,2.4
	c-0.2,0.3-0.9,0.4-0.6,0.9c1.5,0.2,3-0.2,4.1-1c1.5-1.6,3-3.2,4.5-4.8c0.2,1.3-0.1,2.6-0.9,3.6c-0.4-0.2-0.6-0.5-1.1-0.6
	c-0.4,0.1-0.7,0.5-0.7,0.8c0.2,0.3,0.3,0.6,0.6,0.8c-1.3,1-3.1,1-4.6,1.5c-2.9,0.4-5.7,0.6-8.6,0.6c-1.4-0.1-3,0.4-4.3,0
	c-1.5,0.3-3.1-0.2-4.4,0.6c-0.2,0.2,0,0.4,0,0.6c1.8,1.2,4.3,0.2,6.4,0.6h15.6c1.2,0,2.3-0.1,3.2-0.6c2-1.2,3.1-3.2,4.2-5.3
	c0.4-0.7,0.7-1.6,0.8-2.4c0.4-1.4,1.6-2.3,3-2.4c0.2,2.1-0.2,4.2-0.7,6.1c-0.2,1.3-1.1,2.5-0.6,3.9c0.1,0.6,0.8,0.6,1.3,0.7
	c4.8-0.1,9.6-0.3,14.7,0.1c0.9,0.2,1.7,0.4,2.7,0.4c0.1-0.1,0.4-0.2,0.2-0.4c-0.1-0.4-0.4-1-1-1.1c-0.1-0.2-0.4-0.2-0.6-0.3
	c-2.5-1.4-5.6-0.7-8.6-0.6c-1.5,0.2-3.1,0.4-4.4-0.4c-0.6-0.7-0.2-3-0.2-3c0-0.9,2.2-7.2,2.5-7.7c0.1-0.6,0.3-1.2,0.2-1.8
	c0.3-0.8,0.2-1.8,0.2-2.7c0.2-1.3,0.8-2.5,1.2-3.7c0.2-0.6,0.4-1.2,0.7-1.8c0.2-0.8,0.3-1.5,0.8-2.1c1.3,0.8,2.6,0.8,3.2,2.3
	l0.5,3.3c0,0.2,0.2,0.6,0.4,0.4c1-0.7,0.7-2.2,0.7-3.2c0.2-1.2-0.6-1.8-1-2.9C60.1,38,59.6,37,59.6,37c-0.2-0.9-2.1-1.5-1.6-2.6
	c0.2-0.9,0.5-1.8,1.3-2.3c0.1,0.1,0.2,0.2,0.2,0.3l0.5-0.3l0-3.3c1.3,0,3.2,0.2,4.5,0.2c0.4,0.1,0.6,0.4,1,0.4l0.3-0.4l3.2-0.6
	C67.7,28.5,66.9,26.9,65.6,26.9L65.6,26.9z"/>
<path class="st0" d="M69.1,28.4c0.1,0,0.2,0,0.3-0.1L69.1,28.4L69.1,28.4z"/>
<path d="M34.6,39.5c0,0.5-0.2,0.8-0.6,0.9c-0.3-0.1-0.6-0.2-0.8-0.5c-0.2-0.4,0.2-0.8,0.6-0.9C34.1,39.1,34.5,39.1,34.6,39.5
	L34.6,39.5z"/>
<path d="M32,39.5c0.2,0.2,0.3,0.6,0.2,0.9c-0.3,0.2-0.7,0.4-1,0.1c-0.2-0.2-0.5-0.5-0.3-0.8C31.2,39.4,31.7,39.2,32,39.5L32,39.5z"
	/>
<path class="st0" d="M87.2,39.9C87.2,39.9,87.2,40,87.2,39.9"/>
<path d="M117.4,40.6c0.2,0.4-0.2,0.8-0.5,0.9c-0.4-0.1-0.9-0.2-0.9-0.7c0-0.3,0.3-0.5,0.6-0.6C116.9,40.1,117.3,40.4,117.4,40.6
	L117.4,40.6z"/>
<path d="M119.5,40.5c0.1,0.2,0.4,0.5,0.1,0.7c-0.2,0.1-0.3,0.2-0.4,0.3c-0.4,0.1-0.8-0.1-1-0.5c-0.1-0.4,0.3-0.6,0.6-0.8
	C119.1,40.2,119.3,40.4,119.5,40.5L119.5,40.5z"/>
<path d="M22,41c-0.2,0.5-0.6,0.7-1.1,0.5c-0.1-0.1-0.2-0.3-0.3-0.5c0-0.3,0.1-0.6,0.4-0.7C21.5,40.4,21.9,40.6,22,41L22,41z"/>
<path d="M35.4,41.7c0,0.3-0.4,0.6-0.7,0.8c-0.4,0-0.7-0.3-0.9-0.6c0-0.3,0.2-0.7,0.5-0.8C34.8,40.9,35.2,41.2,35.4,41.7L35.4,41.7z"
	/>
<path d="M33.1,41.4c0.1,0.1,0.2,0.4,0.1,0.6c-0.2,0.2-0.6,0.6-1,0.3c-0.2-0.2-0.5-0.4-0.4-0.8c0.2-0.2,0.4-0.4,0.6-0.5
	C32.7,41,32.8,41.2,33.1,41.4L33.1,41.4z"/>
<path d="M125.6,41.9c0,0.3-0.3,0.6-0.5,0.8c-0.3,0.1-0.7,0-0.9-0.2c-0.2-0.1-0.2-0.4-0.2-0.6c0.2-0.3,0.5-0.4,0.8-0.5
	C125.2,41.4,125.4,41.6,125.6,41.9L125.6,41.9z"/>
<path d="M128.1,42.2c-0.1,0.4-0.4,0.7-0.8,0.7c-0.2,0-0.7-0.1-0.6-0.5c0-0.3,0.2-0.6,0.4-0.6C127.5,41.6,128,41.8,128.1,42.2
	L128.1,42.2z"/>
<path d="M26.5,42.8c0.1,0.5-0.1,0.8-0.5,1c-0.3,0.2-0.6,0-0.8-0.2c-0.2-0.2-0.4-0.5-0.2-0.8c0.1-0.4,0.4-0.3,0.7-0.4
	C26.1,42.4,26.3,42.5,26.5,42.8L26.5,42.8z"/>
<path d="M28.5,43.2c0.1,0.3-0.2,0.4-0.3,0.7c-0.2,0.1-0.5,0.2-0.7,0.1c-0.3-0.2-0.6-0.6-0.3-1C27.5,42.4,28.3,42.7,28.5,43.2
	L28.5,43.2z"/>
<path d="M123.2,43c0,0.4-0.3,0.7-0.6,0.9c-0.4,0.1-0.7-0.2-0.8-0.5c0-0.3,0.2-0.6,0.4-0.8C122.7,42.6,123.1,42.6,123.2,43L123.2,43z
	"/>
<path d="M126.5,43.6c-0.1,0.4,0,0.8-0.4,1c-0.3,0.1-0.7,0-1-0.2c-0.2-0.2-0.3-0.6-0.2-0.8c0.2-0.3,0.6-0.6,1-0.5
	C126.2,43.3,126.3,43.5,126.5,43.6L126.5,43.6z"/>
<path d="M25,44.4c0.2,0.3-0.2,0.4-0.3,0.6c-0.3,0.2-0.6,0-0.8-0.1c-0.3-0.2-0.2-0.6-0.1-0.8C24.2,43.5,24.9,44,25,44.4L25,44.4z"/>
<path d="M124,45.2c0.2,0,0.1,0.3,0,0.4c-1,0.5-2.4,0.6-3.2-0.2c-0.5-0.4-1.1-0.6-1.6-0.9c0.2-0.5,0.9-0.5,1.4-0.6
	C121.8,44.1,122.7,45.2,124,45.2L124,45.2z"/>
<path d="M26.9,44.8c0.1,0.3-0.2,0.4-0.2,0.7c-0.2,0.2-0.5,0.2-0.7,0.1c-0.4-0.2-0.5-0.7-0.3-1C26.2,44.2,26.7,44.4,26.9,44.8
	L26.9,44.8z"/>
<path d="M30.4,45.1c0.2,0.4-0.1,0.7-0.4,0.9c-0.3,0.2-0.5-0.1-0.8-0.1c-0.2-0.3-0.6-0.6-0.2-0.9C29.4,44.3,30.2,44.6,30.4,45.1
	L30.4,45.1z"/>
<path d="M76.3,46.8c-0.1,0.8-1.4-0.1-1.2,0.9c0.2,0.8,0.3,1.7,0.8,2.2c0.4,0.5,0.2,1.4,0.2,2c-0.3,0.6-0.9,1-1.5,1.3
	c-1.1-0.1-2.8,0.6-3.3-0.8c-0.2-0.6-0.6-1.2-0.6-1.9c0.1-0.1,0.3-0.1,0.4-0.2c0-0.3-0.3-0.4-0.3-0.7c1.3-0.2-0.5-1.4,0.6-1.4
	c0.9,0.9,2.4,0.6,3.2,1.7c0.2,0.2,0.3,0.4,0.6,0.5c-0.2-0.9-0.6-1.9-0.8-2.9c-0.1-0.5,0.1-1,0.5-1.3C75.4,45.6,75.9,46.3,76.3,46.8
	L76.3,46.8z"/>
<path d="M33.9,46.5c0.1,0.4-0.2,0.6-0.4,0.8c-0.4,0.2-0.6-0.2-0.7-0.4c-0.1-0.4,0.2-0.6,0.4-0.8C33.4,46.1,33.8,46.2,33.9,46.5
	L33.9,46.5z"/>
<path d="M58.4,46.9c0.5,1.6,0.3,3.2-0.5,4.5c0,0.3,0.1,0.8-0.4,0.8c-1.1-1.5-0.3-3.6,0.2-5.1C57.8,46.7,58.3,46.5,58.4,46.9
	L58.4,46.9z"/>
<path d="M92.4,47.7c0.6,1.1,0.6,2.6,0.1,3.7l-0.3,0.3c-0.4-0.9-0.8-1.8-0.9-2.8c0.2-0.7,0.4-1.4,0.5-2.1
	C92.2,46.6,92.2,47.3,92.4,47.7L92.4,47.7z"/>
<path d="M37,48.1c-0.2,0.5-0.9,0.6-1.3,0.9c-1,0.7-2.3,0.9-3.5,0.7c1-1.4,2.6-2.3,4.5-1.9C36.7,48,36.9,47.9,37,48.1L37,48.1z"/>
<path d="M20.7,49.5c1.5,1,1.9,2.5,2.7,3.9c0.1,0.2,0.5,0.2,0.4,0.5c-0.3,0.2-0.6-0.2-1.1-0.2c-1.5-0.7-2.5-2.4-2.4-4.1
	C20.3,49.5,20.6,49.5,20.7,49.5L20.7,49.5z"/>
<path d="M90.8,50.8c0,0.4,0,0.8-0.4,0.9c-0.4,0.1-0.8-0.1-0.9-0.5c-0.1-0.3,0.1-0.4,0.2-0.6C90.1,50.3,90.6,50.4,90.8,50.8
	L90.8,50.8z"/>
<path d="M107.5,52.9c0-0.8,0.2-1.5,0.3-2.2c0.1-0.2,0.2-0.5,0.2-0.8c1-1.3,2.9-0.9,4.4-0.8c0.6,0.3,1.3,0.3,2,0.4
	c0.3-0.2,0.7-0.2,1-0.2c1.3-0.7,0.4-2.2,0.5-3.3l-0.5-1.2c-0.1-0.2-0.2-0.5-0.3-0.8c-0.2-0.3-0.4-0.8-0.6-1.1
	c-0.7-1.8-2-2.8-3.1-4.2c-2-2.6-5.2-4.1-8.4-5.2c-3.1-1.1-6.3,0.3-9.1,1.3c-0.9-0.2-1.3-0.9-1.5-1.7c-0.2-1.5,0.2-3,0.8-4.2
	c0.1-1,0.8-1.8,1.1-2.7c0.7-2.2,1.5-4.4,1.6-6.9c0.1-1.5-1-2.5-2.1-3.2c-0.8-0.2-1.6-0.2-2.2,0.4c-0.5,1.1-1.6,1.8-2.6,2.3
	c-0.1,0.7,0.8,0.2,1,0.5c0.9,0.2,1.9-0.1,2.6,0.4c0.1,1.6-0.8,2.9-1.7,4.1c-1.3,2-2.8,4-3.6,6.2L87,30.2l0.2,9.8
	c1.3,2.1,2.8,4.5,5.2,5.3c1.3,1,2.9,2.3,4.6,1.4c0.9-0.3,1,1,1.4,1.5c0.5,1.5-0.6,2.5-0.7,3.9l-1,2.2c-1.2,2.3-2.3,4.8-4.1,6.8
	c-0.6,0-1,0.6-1.5,0.7c-0.3,0.4-1,0.1-1.3,0.3c-1.2,0.5-3,0.2-3.8,1.4c0.1,0.1,0.2,0.2,0.3,0.2c2.4,0,5.1,0.2,7.7,0.1
	c0.3-0.1,0.6-0.4,0.6-0.8c-0.4-0.7,0.1-1.3,0.4-1.8c0.2-1,0.8-1.6,1.1-2.5c0.8-1.6,1.8-3.2,2.7-4.9l1.2-2c0.3-0.7,0.8-1.5,1.2-2.2
	c0.3-0.3,0.5-0.7,0.7-1.1c0-0.4-0.2-0.6-0.4-0.8c0.3-0.3,0.7-0.2,1.1-0.3c1,0.6,2,1.6,2.2,2.6l0.4,1l0.2,0.5l-0.1,1.3l0.2,1.2
	c0.2,1.9-0.2,3.9-0.4,5.8c-0.7,2.3-3.3,2.1-5.2,2.6c-0.5,0.3-1.4,0.2-1.4,1c2.3,0.5,5,0.2,7.5,0.2c0.4-0.2,0.5-0.5,0.7-0.9
	c0.1-0.5,0.6-1,0.4-1.5c-0.4-0.6,0-1.4-0.2-2.2c0.1-0.2,0.1-0.5,0-0.8c0.3-1.2,0.2-2.6,0.5-3.7L107.5,52.9L107.5,52.9z"/>
<path d="M127.1,51.3c-1.3,1.8-2.6,3.8-4.8,4.5c-0.2,0-0.3,0.1-0.4-0.1c1.3-1.4,2.1-3.7,4.2-4.2C126.3,51.3,126.7,51.2,127.1,51.3
	L127.1,51.3z"/>
<path d="M18.8,53.3c-0.2,0.2,0,0.5-0.4,0.6c-0.3,0.2-0.7,0-0.8-0.4c-0.2-0.4,0.2-0.8,0.5-0.9C18.4,52.8,18.7,52.9,18.8,53.3
	L18.8,53.3z"/>
<path d="M30.2,53.9c0.1,0.4-0.3,0.4-0.5,0.4c-1.7,0.6-3.4,0-4.6-1.2c0-0.2,0-0.3,0.2-0.4C26.9,53.2,28.8,52.9,30.2,53.9L30.2,53.9z"
	/>
<path d="M21,53.3c0.1,0.2,0.1,0.4,0.1,0.6c-0.2,0.4-0.6,0.4-1,0.4c-0.2-0.1-0.4-0.3-0.5-0.5c0-0.4,0.4-0.6,0.7-0.8
	C20.5,53.1,20.8,53.1,21,53.3L21,53.3z"/>
<path d="M58.1,53.5c0.1,0.4-0.2,0.6-0.5,0.8c-0.4,0.1-0.7-0.1-0.8-0.3c-0.1-0.3,0-0.7,0.3-0.8C57.4,53.1,58,53.2,58.1,53.5
	L58.1,53.5z"/>
<path d="M128.6,53.7c0.1,0.4-0.2,0.6-0.5,0.8c-0.2,0.1-0.5,0-0.8-0.1c0-0.2-0.3-0.4-0.2-0.6c0.2-0.4,0.5-0.5,0.9-0.5
	C128.2,53.5,128.4,53.5,128.6,53.7L128.6,53.7z"/>
<path d="M131.2,53.5c0.2,0.4,0,0.6-0.2,0.9c-0.2,0.3-0.5,0.4-0.7,0.2c-0.2-0.2-0.6-0.4-0.6-0.7c0-0.3,0.4-0.6,0.6-0.7
	C130.7,53.1,130.9,53.5,131.2,53.5L131.2,53.5z"/>
<path d="M17.1,54.7c0,0.3-0.2,0.4-0.3,0.7c-0.2,0.1-0.4,0.2-0.6,0.2c-0.3-0.1-0.5-0.4-0.6-0.6c0.1-0.4,0.3-0.7,0.7-0.8
	C16.6,54.2,17,54.3,17.1,54.7L17.1,54.7z"/>
<path d="M100.6,54.7c0.1,0.2,0,0.4,0,0.5c-0.2,0.3-0.6,0.6-1,0.4c-0.2-0.2-0.5-0.5-0.4-0.8C99.7,54.3,100.3,54.2,100.6,54.7
	L100.6,54.7z"/>
<path d="M23.5,55.3c-0.1,0.3-0.2,0.6-0.6,0.6c-0.4,0-0.5-0.3-0.7-0.4c0-0.4,0-0.7,0.3-0.9C23.1,54.4,23.5,54.8,23.5,55.3L23.5,55.3z
	"/>
<path d="M19.7,55.4c0.1,0.4-0.2,0.7-0.4,0.9c-0.5,0.2-0.9-0.2-1.1-0.6c0-0.4,0.3-0.8,0.7-0.9C19.3,54.8,19.5,55.2,19.7,55.4
	L19.7,55.4z"/>
<path d="M103.3,55.3c0.1,0.4,0,0.8-0.4,1c-0.5,0.2-0.9-0.2-1.1-0.6c0.2-0.3,0.2-0.8,0.7-0.8C102.8,54.9,103.1,55,103.3,55.3
	L103.3,55.3z"/>
<path d="M21.5,55.5c0.1,0.3-0.1,0.4-0.2,0.6c-0.2,0-0.3,0.2-0.6,0.2c-0.2-0.2-0.5-0.3-0.5-0.6c0-0.4,0.2-0.6,0.5-0.8
	C21.2,54.9,21.4,55.1,21.5,55.5L21.5,55.5z"/>
<path d="M126.4,55.8c-0.1,0.3-0.4,0.5-0.7,0.6c-0.3,0.1-0.5-0.2-0.8-0.3c-0.2-0.2-0.1-0.5,0-0.7C125.3,54.7,126.4,55,126.4,55.8
	L126.4,55.8z"/>
<path d="M129.4,55.9c-0.1,0.4-0.6,0.6-1,0.7c-0.4-0.2-0.8-0.4-0.5-0.9c0.2-0.2,0.2-0.3,0.5-0.4C128.9,55.2,129.3,55.5,129.4,55.9
	L129.4,55.9z"/>
<path d="M110.6,56.2c0.2,0.5-0.3,0.7-0.6,0.9c-0.3,0-0.5-0.2-0.8-0.3c-0.1-0.4,0.1-0.8,0.6-1C110.1,55.8,110.3,55.9,110.6,56.2
	L110.6,56.2z"/>
<path d="M99.7,56.7c0.2,0.1,0.1,0.4,0.1,0.5c-0.2,0.2-0.6,0.6-0.9,0.3c-0.3-0.2-0.5-0.4-0.4-0.8C98.6,56.3,99.5,56.3,99.7,56.7
	L99.7,56.7z"/>
<path d="M101.9,57c0,0.3,0,0.5-0.3,0.6c-0.3,0.3-0.6,0-0.9-0.1c-0.1-0.2-0.2-0.4,0-0.6c0.1-0.2,0.3-0.3,0.5-0.3
	C101.4,56.7,101.8,56.7,101.9,57L101.9,57z"/>
<path d="M34.6,57c0.2,0.2,0,0.5-0.1,0.8c-0.2,0.2-0.6,0.4-1,0.2c-0.4-0.2-0.4-0.7-0.3-1c0.2-0.1,0.2-0.4,0.6-0.4
	C34.1,56.7,34.3,56.8,34.6,57L34.6,57z"/>
<path d="M114.8,57.2c0.1,0.4-0.3,0.6-0.6,0.6c-0.5,0.2-0.7-0.2-0.9-0.5c0-0.2,0.2-0.4,0.3-0.6C114.2,56.5,114.5,56.9,114.8,57.2
	L114.8,57.2z"/>
<path d="M112.7,57.2c0.2,0.4-0.3,0.6-0.4,0.8c-0.3,0.1-0.6,0.1-0.9-0.2c-0.2-0.1-0.2-0.4-0.2-0.6c0.2-0.2,0.4-0.4,0.6-0.5
	C112.1,56.7,112.5,56.9,112.7,57.2L112.7,57.2z"/>
<path d="M130.5,57.7c0.1,0.6-0.6,0.3-0.9,0.4c-1.7,1-3.8,0.2-5.4-0.4c0.1-0.5,0.7-0.3,1-0.5c1.7-1.1,3.4,0.2,5.2,0.3L130.5,57.7
	L130.5,57.7z"/>
<path d="M22,57.2l-0.2,0.3c-1.5,0.9-3.4,1.5-5.1,0.9l-0.2-0.2c1.5-1.1,3.4-1.4,5.3-1.1L22,57.2L22,57.2z"/>
<path d="M118.8,57.5c0,0.3-0.2,0.6-0.4,0.8c-0.4,0.1-0.9,0-1-0.4c-0.1-0.3,0.2-0.6,0.5-0.8C118.2,57,118.7,57.1,118.8,57.5
	L118.8,57.5z"/>
<path d="M29.1,57.6c-0.2,0.3-0.1,0.6-0.5,0.8c-0.4,0.2-0.9-0.2-1-0.5c-0.1-0.4,0.2-0.6,0.4-0.8C28.5,56.9,28.8,57.3,29.1,57.6
	L29.1,57.6z"/>
<path d="M26.3,57.8c0.1,0.3-0.1,0.4-0.2,0.6c-0.2,0.2-0.6,0.2-0.8,0.1c-0.3-0.2-0.6-0.5-0.4-1c0.2-0.2,0.4-0.3,0.6-0.4
	C25.8,57.3,26.2,57.4,26.3,57.8L26.3,57.8z"/>
<path d="M121.6,58.7c0,0.4-0.3,0.6-0.6,0.7c-0.3,0-0.6-0.2-0.8-0.4c-0.1-0.2-0.1-0.6,0.2-0.8c0.1-0.1,0.4-0.1,0.5-0.2
	C121.3,58.1,121.5,58.4,121.6,58.7L121.6,58.7z"/>
<path d="M23.3,58.3c0.1,0.3-0.2,0.4-0.2,0.7c-0.1,0.7-0.6,1.1-0.9,1.7c-0.8,0.9-1.8,0.9-2.9,1.2l-0.2-0.3c1.2-1.5,2.4-2.6,4-3.4
	L23.3,58.3L23.3,58.3z"/>
<path d="M119.6,59.2c0.1,0.5-0.3,0.6-0.6,0.8c-0.4,0-0.6-0.2-0.8-0.5c-0.1-0.4,0.3-0.6,0.5-0.8C119.2,58.6,119.5,58.9,119.6,59.2
	L119.6,59.2z"/>
<path d="M27.9,59.2c0,0.1,0,0.2,0.1,0.2c0,0.4-0.4,0.6-0.6,0.8c-0.4,0-0.6-0.1-0.9-0.4c-0.2-0.4,0-0.8,0.4-0.9
	C27.3,58.8,27.8,58.8,27.9,59.2L27.9,59.2z"/>
<path d="M126.9,60.4c0.4,0,0.5-0.5,0.9-0.6c0.4-0.1,0.8,0.2,1,0.4c0.2,0.5-0.2,0.7-0.5,0.9c-0.3,0.2-0.9-0.2-0.8,0.3
	c0.3,0.2,0.5,0.5,0.6,0.8c-0.1,0.2-0.4,0.1-0.5,0c-1.2-0.5-2.4-1.3-2.9-2.5c-0.2-0.4-0.9-0.6-0.5-1
	C125.4,58.7,126.3,59.7,126.9,60.4L126.9,60.4z"/>
<path d="M130.7,59.1c0.2,0.2,0.1,0.6,0,0.8c-0.2,0.4-0.8,0.2-1.2,0.2c-0.2-0.2-0.4-0.4-0.3-0.7c0.2-0.2,0.3-0.4,0.6-0.5
	C130.2,58.8,130.5,58.9,130.7,59.1L130.7,59.1z"/>
<path d="M116.3,61.3c0.4,0.4,0.7,1.1,0.9,1.6c-0.1,0.1-0.3,0.1-0.4,0.1c-1.3-0.8-3.1-1.6-3.6-3.2c-0.1-0.2-0.4-0.4-0.4-0.6
	c1-0.2,2,0.6,2.7,1.1C115.9,60.7,116.2,60.9,116.3,61.3L116.3,61.3z"/>
<path d="M25.7,59.8c0.2,0.4-0.2,0.6-0.4,0.8c-0.4,0.1-0.7-0.1-0.9-0.3c-0.3-0.4,0.2-0.8,0.6-1C25.3,59.3,25.5,59.6,25.7,59.8
	L25.7,59.8z"/>
<path d="M121.3,60.7c0,0.2-0.3,0.4-0.4,0.6c-0.3,0-0.6,0.2-0.9-0.1c-0.1-0.2-0.3-0.5,0-0.7C120.4,59.9,121,60.3,121.3,60.7
	L121.3,60.7z"/>
<path d="M131.2,61.3c0.1,0.5-0.2,0.8-0.6,1c-0.4,0.1-0.7-0.2-1-0.4c-0.2-0.2,0-0.5,0-0.8c0.3-0.2,0.6-0.4,1-0.3
	C130.9,61,131,61.1,131.2,61.3L131.2,61.3z"/>
<path d="M103.7,66.8c0,0.5-0.9,0.4-1.2,0.7c-1.2,0.6-2.7,0.6-4.2,0.6v-0.2C99.8,66.6,101.8,66.2,103.7,66.8L103.7,66.8z"/>
<path d="M45.9,68.5c0,0.4-0.2,0.6-0.6,0.7c-0.3,0-0.6-0.2-0.7-0.4c-0.2-0.5,0.2-0.7,0.5-0.9C45.5,67.9,45.8,68.2,45.9,68.5
	L45.9,68.5z"/>
<path d="M103.1,68.9c-0.1,0.4-0.2,0.8-0.6,0.9c-0.4,0.1-0.6-0.1-0.9-0.3c-0.2-0.2-0.1-0.4-0.1-0.6C101.8,68.2,102.8,68.2,103.1,68.9
	L103.1,68.9z"/>
<path d="M111,69.1c-1,0.6-2.1,1.4-3.4,1.4l-2.1,0l-0.2-0.2c1.3-1.6,3.7-1.6,5.8-1.4V69.1L111,69.1z"/>
<path d="M35,70c0,0.4-0.2,0.6-0.5,0.8c-0.4,0.1-0.7-0.1-0.8-0.4c-0.2-0.4,0-0.7,0.3-0.9C34.4,69.2,34.8,69.7,35,70L35,70z"/>
<path d="M37,70.4c0.1,0.2-0.1,0.3-0.2,0.5c-0.2,0.1-0.6,0.2-0.8,0c-0.3-0.2-0.4-0.4-0.2-0.7c0.1-0.2,0.4-0.2,0.5-0.4
	C36.6,70,36.9,70.2,37,70.4L37,70.4z"/>
<path d="M21.8,74.5c-0.4,0.5-1-0.1-1.5-0.4c-1.4-0.8-1.3-2.4-2.7-3.3c0.2-0.5,0.5,0,0.8,0c0.2,0.2,0.6,0.3,0.8,0.4
	C20.6,72,20.9,73.3,21.8,74.5L21.8,74.5z"/>
<path d="M137.4,59c-0.6-1.2-1.7-1.6-3-1.6c-1,0.1-1.8,0.8-2.2,1.6c-0.2,0.9,0.1,1.7,0.8,2.2c0.3,0.1,0.6,0.1,0.8-0.2
	c0.2-0.5-0.4-0.5-0.4-0.9c-0.2-0.6,0-1,0.4-1.4c0.4-0.4,1.1-0.2,1.5-0.2c0.5,0.3,1,0.6,1.2,1.2c0.2,0.7,0.2,1.4,0,2.1
	c-0.4,1-1.4,1.8-2.5,2c-3.3,0.5-39.4,0.3-39.4,0.3c-4.2,0.4-9.1-0.8-12.7,1.4c-1.7,0.8-2.5,2.6-2.9,4.3c-1.1,1-2.2,2.1-3.1,3.2
	l-0.1-0.1c0.2-1,0.6-1.8,0.8-2.8c0.6-0.8,0.6-1.9,1-2.8c1.5-2.4,2.9-4.9,5.3-6.6c1-1.3,2.7-1.1,4.2-1.1c1.6,0.8,3.5,1,5.5,0.8
	c0.1-0.1,0.1-0.2,0.1-0.3c-0.6-0.5-1.5-0.7-2.1-1.2c-1.6-0.8-3.1,0.2-4.8,0.1c-0.1-0.1-0.2-0.1-0.1-0.2c1.5-1.1,3.2-1.9,4.9-2.6
	c1.4-0.8,2.9-1.2,4.3-1.7c0.6,0,1.2-0.5,1.7-0.2l2.1-0.6c0.1,0,0.2,0.2,0.3,0.1c1.8-0.6,4,0,6.1-0.1l0.3,0.2l1.9,0.5
	c0.7,0.1,1,0.9,1.8,1c0.4-0.6-0.4-0.8-0.6-1.2c0.9-0.2,1.9,0,2.7,0.4l-0.4,0.4c-0.2,0.4,0.1,0.8,0.5,0.9c0.3,0.1,0.5-0.1,0.7-0.2
	c0.5-0.4,0-0.7,0.1-1c2.9,0.5,5.8,1.2,8.4,2.4c0.8,0.2,1.5,0.8,2.3,0.8c-0.8-0.8-2-1.2-3-1.6c-0.7-0.4-1.6-0.4-2.1-1
	c0.1-0.2,0.4-0.1,0.5-0.3c1.4-0.2,2.5-1.2,3.5-2.2c0.1-0.2,0.5-0.2,0.5-0.5c-0.4-0.4-1,0.1-1.4,0.1c-1.7,0.3-2.4,2.3-4,2.6
	c-2-0.5-4.1-1-6.1-1.5c-1-0.2-2.1-0.2-3-0.6l-2.2-0.2h-4c0-0.1-0.2-0.1-0.1-0.2c1.4-0.4,2.7-1.2,4.1-1.6l10.6-4.9
	c1.1-1,2.1-2.1,3-3.3c0-0.3-0.2-0.6-0.4-0.8c-0.3-0.1-0.6-0.1-0.8,0.2c-0.5,0.4,0,0.8,0,1.2c-0.5,0.6-1.2,1.2-1.8,1.6
	c-0.2,0-10.9,4.9-10.9,4.9c-1.6,0.7-3.2,1.4-4.8,1.8L97.7,52c-0.2,0.5-0.6,0.8-1,0.9c-0.6,0.1-1.1,0.5-1.8,0.5
	c-5.2,2-10.5,4.1-14.6,8.2c0.2-0.5,0.4-1.1,0.4-1.7c-0.1-0.6,0-1.3-0.4-1.8c-0.1-0.2-0.4-0.9-0.3-1.1l-0.6,0.4
	c-0.4,0.9-0.7,2.5-0.3,3.4c0.1,0.7,0.7,1.6,0.2,2.2c-1.9,2.3-3,5.1-4.2,7.8c-0.5-0.1-0.7-0.5-0.9-1c1.3-1.7,2.4-3.6,2.8-5.8
	c0.3-0.2,0.1-0.7,0.4-1c-0.1-0.6,0.4-1.3,0-1.8c0.3-0.9-1.2-1.7-0.3-2.2l-0.7,0.4c-1.7,2.2,0.9,5.6-1.1,7.8v0.2
	c-0.6,0.7-0.8,1.4-1.6,1.9c-1-0.4-1.3-1.5-1.9-2.3c-0.9-0.8-0.9-2.6-0.4-3.7c0.4-1.2-0.2-2.2-0.4-3.2l-0.4-0.2
	c-1,1.2-1.3,3.2-0.6,4.7c0.4,0.7,0.4,1.7,1,2.3c0.4,1.2,1.1,1.9,1.7,3c0.2,0.4-0.2,0.5-0.4,0.7c-0.4-0.3-0.4-0.9-0.8-1.2
	c-1.3-2.8-3-5-5.1-7.3c-0.1-0.4-0.4-0.7-0.2-1.1c0.8-0.7,0.9-2.1,0.5-3c-0.1-0.2-0.3-0.4-0.3-0.6L66,56.7c0.1,1.4-0.8,2.6-0.4,4.1
	v0.1c-4.1-3.1-8.6-5.8-13.2-8l-0.4,1c1.2,0.3,4.2,2.2,4.2,2.2c1.4,0.5,2.7,1.4,4,2.1c5.4,3,9,8,11.4,13.5c0,0.4,0.4,0.9,0.2,1.4
	c-0.8-1.3-2-2-3-3c-0.3-1.9-1.4-3.7-3-4.4c-0.6-0.9-1.9-1-2.9-1.2l-14.4-0.1c-11.7-0.2-22.5,0.4-34.1,0.2c-1.6-0.2-3.6-0.7-4.1-2.4
	c-0.3-0.6-0.3-1.6,0-2.2c0.4-0.8,1.2-1,2-1.1c0.6,0.1,1.1,0.7,1.4,1.1c0,0.5-0.4,1-0.6,1.4c0,0.2,0.2,0.5,0.5,0.4
	c0.5-0.2,0.9-0.8,1-1.3c0-0.3,0.2-0.7-0.1-0.9c-0.2-0.8-1.1-1.4-1.9-1.6c-1-0.1-2,0.2-2.7,0.9c-1,0.8-0.9,2.2-0.6,3.4
	c0.6,1.8,2.5,3,4.3,3.2l38.6,0.2c3.8,0.2,8-0.4,11.8,0.3c1.4,0.4,2.9,1.5,3.2,3c0,0.1-0.2,0-0.3,0c-3.1-2-7.3-2.8-11.3-2.3
	c-1.6-0.1-3,0.5-4.4,0.9c-0.8,0.2-1.5-0.2-1.9-0.6c-1.4-1.3-3.9-1.2-5.8-0.7c0,0.1,0,0.2,0,0.3c1.9-0.2,3.1,1.5,4.8,1.7
	c0.4,0.1,0.7-0.4,1.1,0c-1.8,0.9-3.6,1.9-5.5,2.5c-0.6-0.1-0.9-0.7-1.4-1c-0.8-0.8-2.1-0.5-3.2-0.6c-0.4,0.1-0.7-0.2-0.9,0
	c0.3,0.6,1,1,1.7,1.3c1,0.4,2.1,0,3.1,0.6c-0.2,0.3-0.6,0.4-0.8,0.6c-1.9,0.7-3.4,2.4-5.5,2.3c-2.2,0.2-4.4-0.4-5.9-1.9
	c-0.6-1.6-2.3-2.4-4-2.3c-0.1,0.1-0.3,0.1-0.2,0.3c0.9,0.5,1.5,1.6,2.4,2.2c0.6,0.7,1.6,0,2.1,0.8c0.8,0.5,1.7,1,2.6,1.1
	c0.6,0.3,1.3,0.4,2.1,0.6l-0.3,0.2c-3.6,1.2-7.8,1.3-11.8,1.2c-1.2,0-2.3-0.4-3.5-0.4c0.2,0.2,0.6,0.4,1,0.6
	c-0.3,0.2-0.7,0.3-1.1,0.3c-0.5,0.1-1,0.2-1.5,0.4c-0.6,0-1.2,0.2-1.7,0.4c-0.7,0.7-1.5,1.5-2.3,1.8c0,0.2,0,0.4,0.2,0.4
	c0.8-0.3,1.7-0.1,2.5-0.4c1.3-0.1,2.1-1.6,3.1-2.2c1.1-0.9,2.7-0.7,4-0.5c0.8,0.2-0.1,0.5,0.2,1c0.3,0.3,0.6,0.6,1,0.5
	c0.1-0.1,0.2-0.2,0.3-0.2c0.2-0.3,0.2-0.7,0-1c0.6-0.4,1.3,0,1.9-0.2c1.5,0,3-0.4,4.5-0.4c0.2,0,0.5-0.3,0.8,0
	c-0.1,0.3-0.5,0.4-0.4,0.8c0.1,0.4,0.5,0.5,0.8,0.6c0.4-0.2,0.8-0.4,0.6-1C34,76,33.7,76,33.5,75.8c0.8-0.4,1.8-0.5,2.6-0.9
	c0.6-0.1,1.2-0.3,1.7-0.6c0.5,0,1-0.5,1.4-0.3c-0.2,0.7-0.5,1.3-0.8,1.9c-0.6,2.1-1.1,4.9,0,7c0.1,0,0.2,0,0.2-0.1
	c-0.8-2.1-0.4-4.6,0.4-6.6c0.6-3.4,4-4.4,6.5-5.7l0.1,0.2c-0.7,1.8-1.7,3.4-1.5,5.6c0.1,0.4-0.2,0.7,0,1c0.7-0.4,1.1-1.2,1.5-1.8
	c0.3-1.8-0.8-4,1.1-5.4c3.3-1.3,6.3-3,10.1-3c0.1,0.1,0.4-0.1,0.4,0.2c-0.8,0.9-1.9,1.7-2.3,2.8c-1.3,1.8-1.2,4.8-0.7,6.9
	c0.4,1.2-0.7,1.9-1.2,2.9c-0.2,0.3-0.3,0.9-0.5,1.3l0.8,0.1c0.7-0.7,1.3-1.6,1.3-2.6c0.1,0.4,0.4,0.7,0.8,0.8
	c0.3-0.4-0.2-0.8-0.3-1.2c0.6-0.4,0.9,0.4,1.4,0.6c0.8,0.2,1.5,0.6,2.4,0.6l0.3-0.3c-0.9-1.4-2.6-1.6-4.1-1.7
	c-0.8-1.3-0.8-3-0.7-4.6c0.2-0.8,0.3-1.7,0.8-2.5c0.2-0.6,0.8-1.1,1.1-1.5c0.7-0.7,1.6-1.2,2.5-1.4h0.1c0,0.1,0,0.1,0,0.1
	c-1.1,0.8-1.2,2-1.8,3c-0.7,1-1,2.4-0.4,3.5c0.2,0.5,0.1,1.3,0.7,1.7c0.5-0.7,0.6-1.6,0.8-2.4c-0.1-1.3-0.9-2.6-0.2-3.8
	c0.4-1,1.2-1.4,2.1-1.8c2.2-0.2,4.1,0.9,6,1.8c0.4,0.3,1.1,0.5,1.2,1.1c0,1.1-0.6,2.2-1.5,2.7c-1.1,0.6-2.6,0.7-3.6,0
	c-0.6-0.6-0.8-1.6-0.6-2.4c0.4-0.5,1-0.9,1.7-0.6c0.4,0.2,0.8,0.6,1.3,0.4c0.2-0.1,0.3-0.4,0.2-0.6c-0.4-0.2-0.6-0.8-1.2-0.9
	c-0.8-0.1-1.7-0.1-2.2,0.4c-0.8,0.7-1.2,1.8-0.9,2.8c0.3,1.3,1.2,2.2,2.5,2.6c1.8,0.4,3.7-0.1,4.9-1.7c0.5-0.5,0.6-1.1,0.9-1.7
	c1.9,1.2,3.3,3.2,4.1,5.3c0,0.7,0.2,1.4,0,2l1.4,0.1c-0.1-0.3,0-0.7,0.1-1c0.5-2.6,2.1-4.8,4.1-6.6c0.7-0.4,0.5,0.5,0.7,0.8
	c0.6,1.5,2,2.6,3.5,3c1.7,0.3,3.3-0.1,4.3-1.4c0.5-1,1.2-2.4,0.3-3.4c-0.6-0.7-1.3-1-2.2-1c-1,0-1.7,0.7-2.2,1.5
	c0,0.3,0,0.7,0.2,0.8c0.2,0,0.5,0,0.6-0.2c0.1-0.6,0.6-0.9,1.1-1.2c0.4-0.2,0.9,0,1.3,0.2c0.4,0.4,0.5,1,0.6,1.6
	c-0.1,0.8-0.6,1.6-1.3,1.9c-1.2,0.6-2.8,0.3-3.8-0.4c-0.5-0.5-0.8-1.1-1.1-1.8c-0.1-0.6-0.3-1.2,0-1.8c1.7-1,3.6-1.8,5.7-2
	c0.8,0.2,1.5,0.7,2.1,1.3c1.8,1.9-0.4,4.6,0.9,6.6c0.5-0.1,0.5-0.7,0.7-1.1c0.6-1.4-0.2-3-0.5-4.4c-0.5-0.9-0.8-1.6-1.5-2.4
	c0.2-0.1,0.3-0.1,0.5-0.1c0.8,0.6,1.7,1.2,2.4,2.1c1.2,1.9,1.7,4.1,1.5,6.6c-0.3,1.2-1.6,1.8-2.6,2.2c-0.4,0.3-0.9,0.8-1.1,1.3
	c0.5,0.3,1.2,0,1.6-0.2c0.8-0.3,1.2-1.2,1.7-1.7c0.1,0,0,0.2,0.1,0.2c0,0.4-0.2,1,0.2,1.2c0.2-0.6,0.2-1.4,0.4-2
	c0.5,0.6,0.6,1.3,0.8,2c0.4,0.7,1,1.7,1.9,1.8c0.2-0.4,0-0.7-0.1-1c-0.1-1-1-1.5-1.5-2.2c-1.4-1.9-0.8-4.9-1.8-7.1
	c-0.4-1.2-1.2-2-2.1-3l0.2-0.2c1.9,0,3.6,0.6,5.4,1c2.2,1.1,5.4,0.8,6.4,3.7c0.4,1.6,1.2,3.1,2.3,4.3l0.1-0.1c0.2-0.4,0.2-1.1,0-1.5
	c-0.2-2-2-2.5-2.9-4.2l0.1-0.2c1,0.3,1.9,0.5,2.9,0.9c3.2,0.9,5.4,4,5.8,7.2c0,2.6-0.5,4.7-1.5,6.8c-0.1,0.3-0.7,0.7-0.3,1
	c0.4-0.3,0.5-0.8,0.8-1.2c1.3-2.2,2-5.2,1.3-8c0-0.5-0.6-0.9-0.4-1.4c0.2,0.2,0.4,0.3,0.7,0.4c0.2-0.2,0.6-0.2,0.8-0.4
	c0-0.2,0.2-0.5,0-0.7c-0.2-0.4-0.8-0.4-1.2-0.3c-0.2,0.2-0.4,0.6-0.5,0.9c-0.4-0.7-0.8-1.6-1.4-2.1l0.1-0.1c1.8,0.6,3.4,1.5,5.2,2
	c0.4,0.2,0.8,0.4,1.4,0.4c1.5,0.6,3.3,0.8,4.9,1.2c1.2-0.1,2.2,0.4,3.4,0.2v-0.1l0,0c-0.4-0.6-1.4,0-1.9-0.4c-2.7-0.3-5.4-1-7.8-2
	c0-0.1,0.2-0.1,0.3-0.1c0.4-0.2,0.7-0.6,0.6-1c-0.2-0.3-0.5-0.4-0.9-0.4c-0.2,0.1-0.6,0.4-0.6,0.7c0,0.3,0.3,0.7,0.6,0.8
	c-0.1,0.1-0.2,0-0.4,0c-1.2-0.6-2.4-1.1-3.6-1.6c-0.4-0.1-0.8-0.4-1.2-0.5c-0.9-0.4-1.8-0.9-2.7-1.2c-2.5-1.3-5.4-2-8.1-3
	c-0.6-0.2-1.2-0.3-1.7-0.5c-1-0.3-2-0.5-3-0.8c-3.4-0.8-7.9-0.9-10.8,0.9c-0.5-0.2-0.8,0.6-1,0.1c0.8-2.2,3.3-2.9,5.4-3
	c15.9-0.2,30.8-0.3,46.5-0.5c1.8,0,3.6-0.6,4.6-2.3C137.8,61.7,137.9,60.1,137.4,59L137.4,59z M74.3,73.7c-0.2,0.5-0.5,0.9-0.4,1.4
	l-0.2,0.1c0.1-0.6-0.5-1-0.3-1.6c-0.3-0.5-0.3-1.1-0.6-1.6c-0.4-0.6,0.3-0.9,0.6-1.4c0.6,0.2,0.8,0.8,1.2,1.2
	C74.8,72.6,74.3,73.1,74.3,73.7L74.3,73.7z"/>
<path d="M117.4,71.2c0,0.1,0.2,0.2,0.2,0.4c-1.4,1.2-3.3,1.6-5.3,1.7c-0.2,0-0.3,0.2-0.5,0.1c-0.1-0.1-0.2-0.2-0.1-0.3
	C113.1,71.5,115.2,70.7,117.4,71.2L117.4,71.2z"/>
<path d="M111,71.8c0.2,0.6-0.2,0.9-0.6,1.1c-0.4,0-0.7-0.3-0.9-0.6c-0.1-0.3,0.2-0.5,0.3-0.7C110.1,71.3,110.8,71.3,111,71.8
	L111,71.8z"/>
<path d="M35.6,71.9c0.1,0.3,0,0.6-0.2,0.8C35.2,73,34.9,73,34.7,73c-0.3,0-0.4-0.4-0.5-0.6c0-0.4,0.2-0.6,0.5-0.8
	C35,71.6,35.4,71.6,35.6,71.9L35.6,71.9z"/>
<path d="M28.5,74.5v0.3c-1,0.2-1.9,0-2.6-0.6c-0.6-0.8-1.2-1.6-2.1-2c0-0.1-0.2-0.3,0-0.4C25.8,71.8,27,73.4,28.5,74.5L28.5,74.5z"
	/>
<path d="M123.4,71.9c-0.9,1.4-1.7,3-3.3,3.6c-0.3,0-0.5,0.4-0.8,0.1c0.6-1.5,2-3.2,3.5-3.8C123,71.8,123.2,71.8,123.4,71.9
	L123.4,71.9z"/>
<path d="M37.9,72.4c0,0.4-0.3,0.5-0.6,0.8c-0.3,0-0.5-0.2-0.7-0.4c-0.2-0.4,0.2-0.6,0.4-0.8C37.4,71.8,37.7,72.1,37.9,72.4
	L37.9,72.4z"/>
<path d="M128.4,72.6c-0.4,0.5-0.2,1.3-0.6,1.8c-0.8,0.9-1.5,2-2.7,2.2c-0.2-0.4,0.3-0.8,0.5-1.2c0.6-1.2,1.3-2.6,2.6-3.1L128.4,72.6
	L128.4,72.6z"/>
<path d="M16.2,73c0.1,0.3,0.2,0.6,0,0.9C16,74,15.6,74.1,15.3,74c-0.4-0.2-0.5-0.6-0.3-1C15.2,72.7,15.9,72.5,16.2,73L16.2,73z"/>
<path d="M13.9,73.4c0,0.2,0.2,0.4,0.1,0.6c-0.1,0.2-0.3,0.4-0.6,0.5c-0.4,0.1-0.7-0.2-0.9-0.5c0-0.4,0.1-0.7,0.4-0.8
	C13.3,73,13.7,73.2,13.9,73.4L13.9,73.4z"/>
<path d="M18.6,73.7c0.1,0.3,0.2,0.9-0.3,1c-0.6,0.2-0.9-0.2-1.2-0.5c0-0.4,0.2-0.6,0.5-0.8C18,73.3,18.3,73.4,18.6,73.7L18.6,73.7z"
	/>
<path d="M25.1,74.2c0,0.3,0,0.7-0.3,0.8c-0.2,0.2-0.6,0.1-0.8,0.1c-0.1-0.2-0.5-0.4-0.3-0.7c0.2-0.2,0.3-0.3,0.6-0.4
	C24.6,74,25,73.9,25.1,74.2L25.1,74.2z"/>
<path d="M132.2,74.5c-0.1,0.3-0.3,0.6-0.6,0.6c-0.4,0-0.7-0.1-0.9-0.4c-0.2-0.4,0.2-0.7,0.5-0.8C131.6,73.9,132.1,74,132.2,74.5
	L132.2,74.5z"/>
<path d="M125,74.7c0,0.3-0.3,0.6-0.5,0.7c-0.6,0.2-1-0.2-1.2-0.6c0.1-0.4,0.4-0.6,0.7-0.7C124.4,74,124.7,74.3,125,74.7L125,74.7z"
	/>
<path d="M129.9,74.6c0,0.3-0.2,0.6-0.4,0.7c-0.3,0.1-0.7,0.1-1-0.2c-0.4-0.3-0.1-0.6,0.2-0.8C129.1,74.1,129.8,74.1,129.9,74.6
	L129.9,74.6z"/>
<path d="M15.2,75.3c0.1,0.4-0.1,0.8-0.5,1c-0.4,0-0.8-0.2-0.9-0.6c0-0.4,0.1-0.7,0.4-0.8C14.6,74.8,14.9,75,15.2,75.3L15.2,75.3z"/>
<path d="M123,75.7c0.1,0.4-0.1,0.8-0.6,1c-0.3,0.1-0.5-0.1-0.8-0.3c-0.2-0.2-0.4-0.6,0-0.8C121.9,75,122.7,75.3,123,75.7L123,75.7z"
	/>
<path d="M36.5,76.2c0.2,0.4-0.3,0.5-0.4,0.8c-0.2,0.1-0.5,0.1-0.6,0c-0.2-0.2-0.4-0.5-0.3-0.8c0.2-0.2,0.3-0.3,0.5-0.4
	C36.1,75.5,36.3,75.9,36.5,76.2L36.5,76.2z"/>
<path d="M131.5,76.4c0.1,0.3-0.2,0.4-0.2,0.6c-0.2,0.2-0.6,0.2-0.9,0.2c-0.4-0.2-0.4-0.5-0.4-0.9c0.2-0.2,0.3-0.4,0.6-0.4
	C130.9,75.9,131.4,76,131.5,76.4L131.5,76.4z"/>
<path d="M129,76.6c0.2,0.5-0.3,0.7-0.6,0.8c-0.2,0-0.4-0.1-0.4,0.2c1,0.5,1.7,1.4,2.5,2.1V80c-1.4,0-2.9-0.4-3.9-1.5
	c-0.3-0.2-0.8-0.2-1.1-0.5c0.5-0.5,1.5-0.3,2.2-0.4c0.5-0.6-0.6-1,0.1-1.4c0.2,0,0.4-0.3,0.7-0.2C128.7,76.1,128.9,76.3,129,76.6
	L129,76.6z"/>
<path d="M112.8,76.6c0.1,0.2-0.2,0.4-0.2,0.6c-0.2,0.2-0.6,0.3-0.9,0.2c-0.2-0.3-0.5-0.5-0.4-0.9C111.7,75.9,112.7,76,112.8,76.6
	L112.8,76.6z"/>
<path d="M24.1,78c-0.1,0.4-0.3,0.6-0.7,0.6c-0.3,0-0.6-0.2-0.7-0.5c0-0.3,0.2-0.4,0.2-0.6C23.4,77.2,24.2,77.4,24.1,78L24.1,78z"/>
<path d="M27.3,77.5c0,0.6-0.6,0.9-0.8,1.4c-0.6,1.3-1.7,2.5-3.2,2.6c-0.2-0.4,0.5-0.8,0.7-1.2c0.6-1.4,1.9-2.1,3.1-2.9H27.3
	L27.3,77.5z"/>
<path d="M111.9,78c0,0.4-0.4,0.8-0.7,0.9c-0.4,0.1-0.6-0.2-0.8-0.3c-0.3-0.3-0.1-0.6,0-1C110.9,77.2,111.5,77.6,111.9,78L111.9,78z"
	/>
<path d="M114.3,78.3c0,0.4-0.3,0.8-0.7,0.9c-0.1-0.1-0.3,0-0.4-0.1c-0.3-0.2-0.5-0.4-0.5-0.7c0.2-0.2,0.3-0.5,0.6-0.6
	C113.6,77.8,114.2,77.8,114.3,78.3L114.3,78.3z"/>
<path d="M33.5,78.3c0,0.4-0.3,0.7-0.6,0.8c-0.4,0-0.6-0.2-0.8-0.5c-0.1-0.4,0.3-0.6,0.5-0.8C33.1,77.7,33.2,78,33.5,78.3L33.5,78.3z
	"/>
<path d="M36.2,78.4c-0.1,0.4-0.4,0.6-0.8,0.7c-0.3-0.1-0.6-0.2-0.7-0.5c0-0.4,0.3-0.6,0.6-0.8C35.7,77.8,36.1,78,36.2,78.4
	L36.2,78.4z"/>
<path d="M122.9,81.2c0.2,0.2,0.6,0.4,0.5,0.6c-0.6,0.3-1.1-0.4-1.7-0.6c-1-1-1.7-2-2.1-3.2c0.4-0.4,0.8,0.1,1.1,0.2
	C121.5,79.1,122.4,80.1,122.9,81.2L122.9,81.2z"/>
<path d="M124.3,78.4c0.1,0.3,0.1,0.6-0.1,0.9c-0.2,0.4-0.8,0.3-1.1,0.2c-0.2-0.2-0.6-0.6-0.3-0.9c0.1-0.3,0.5-0.4,0.8-0.5
	C123.8,78.1,124,78.3,124.3,78.4L124.3,78.4z"/>
<path d="M39.9,79.5c0,0.3,0.1,0.8-0.3,1c-0.4,0.1-0.8,0-1-0.5c-0.2-0.5,0.2-0.6,0.5-0.8C39.4,79.1,39.6,79.3,39.9,79.5L39.9,79.5z"
	/>
<path d="M114.2,82.1c0.6,0.8,1,1.8,1,2.8c-0.1,0.3,0.2,0.6,0,0.8H115c-1.8-1.3-2.2-3.1-2.9-4.9c-0.2-0.1-0.2-0.2-0.2-0.4
	c0.4-0.4,0.7,0.4,1.1,0.5L114.2,82.1L114.2,82.1z"/>
<path d="M45,80.7C45,80.7,45,80.8,45,80.7c-1.5,1.2-3.8,1.9-5.6,0.8c0-0.1,0-0.3,0.2-0.4c1.2-0.4,2.3-0.9,3.5-0.8L45,80.7L45,80.7z"
	/>
<path d="M36,80.9c-1.3,0.8-2.6,2.5-4.2,2.9c-0.3,0.1-0.5,0.6-0.9,0.3c0.7-2.2,3.1-3.3,5.2-3.5V80.9L36,80.9z"/>
<path d="M111.9,82.7c0.1,0.3,0,0.8-0.3,0.8c-0.2,0.2-0.6,0.2-0.8,0c-0.4-0.2-0.4-0.5-0.4-0.8c0.1-0.3,0.4-0.3,0.6-0.4
	C111.4,82.4,111.7,82.4,111.9,82.7L111.9,82.7z"/>
<path d="M108.6,82.9c-0.2,0.6-0.9,0.9-1.4,1c-1.3,0.5-2.6-0.2-3.8-0.5c0-0.3,0.4-0.2,0.6-0.4c1.3-0.3,2.7-0.6,4-0.2
	C108.2,82.8,108.5,82.7,108.6,82.9L108.6,82.9z"/>
<path d="M36,84.1c-0.1,0.2-0.2,0.5-0.5,0.6c-0.3,0.1-0.6,0-0.8-0.2c-0.1-0.2-0.4-0.4-0.2-0.7c0.1-0.3,0.4-0.4,0.6-0.4
	C35.6,83.4,35.9,83.7,36,84.1L36,84.1z"/>
<path d="M38.3,84.4c-0.1,0.2-0.2,0.6-0.6,0.8c-0.3,0.1-0.6-0.1-0.8-0.3c-0.1-0.2-0.2-0.5-0.1-0.8c0.1-0.2,0.4-0.2,0.6-0.4
	C37.8,83.7,38.2,84.1,38.3,84.4L38.3,84.4z"/>
<path d="M111.1,84.8c0,0.3-0.1,0.5-0.3,0.8c-0.2,0.3-0.6,0.3-0.9,0.2c-0.3,0-0.4-0.4-0.5-0.6c-0.2-0.3,0.2-0.5,0.3-0.8
	C110.2,84,110.9,84.2,111.1,84.8L111.1,84.8z"/>
<path d="M112.9,84.7c0,0.2,0.2,0.4,0.1,0.6c-0.2,0.2-0.4,0.7-0.9,0.5c-0.2,0.1-0.4-0.2-0.5-0.3c-0.2-0.4,0-1,0.5-1.1
	C112.4,84.3,112.7,84.6,112.9,84.7L112.9,84.7z"/>
<path d="M36.9,85.9c0.1,0.4-0.1,0.8-0.4,1.1c-0.4,0.1-1,0.1-1.2-0.4c0-0.4,0-0.9,0.5-1.2C36.2,85.3,36.7,85.4,36.9,85.9L36.9,85.9z"
	/>
<path d="M39.2,85.7c-0.1,1.1-0.3,2.5-1.4,3.1c-0.6,0.1-1.3,0.7-1.9,0.3V89C36.7,87.8,38.2,86.9,39.2,85.7L39.2,85.7z"/>
<path d="M104.9,86.7c0.2,0.2-0.1,0.4-0.2,0.6c-0.2,0.3-0.7,0.2-1,0c-0.3-0.1-0.3-0.5-0.2-0.8c0.1-0.2,0.3-0.4,0.5-0.4
	C104.4,86.1,104.7,86.4,104.9,86.7L104.9,86.7z"/>
<path d="M43.1,88.5c0.6,0.9,0.2,2.2,0.6,3.2c-0.7,0.1-1-0.7-1.4-1.1c-0.9-1.2-0.8-2.8-1.2-4.2c0.1-0.1,0.2-0.1,0.3-0.1
	c0.6,0.4,1,1.2,1.5,1.7C42.8,88.3,43.2,88.3,43.1,88.5L43.1,88.5z"/>
<path d="M106.9,87c0,0.3-0.4,0.4-0.6,0.6c-0.3,0-0.5-0.2-0.8-0.4c-0.1-0.4,0.2-0.5,0.4-0.7C106.4,86.3,106.7,86.5,106.9,87L106.9,87
	z"/>
<path d="M111.6,90.5c0,0.1,0,0.4-0.2,0.3h-0.2c-1.1-1-2.3-2.2-2.1-3.8l0.2,0C110.4,87.9,111.5,88.9,111.6,90.5L111.6,90.5z"/>
<path d="M108.6,89.3c0,0.3-0.2,0.6-0.4,0.8c-0.4,0.1-1.1,0.1-1.2-0.5c0-0.4,0.4-0.6,0.6-0.8C108.1,88.6,108.5,88.9,108.6,89.3
	L108.6,89.3z"/>
<path d="M106,90.1c-0.6,1.5-2.1,2.2-3.1,3.4c-0.2-0.1-0.1-0.4-0.1-0.6c0.4-1.5,1.6-3,3.1-3.6C106.5,89.3,105.9,89.8,106,90.1
	L106,90.1z"/>
<path d="M109,91.3c0,0.4-0.4,0.5-0.6,0.7c-0.3,0-0.6-0.1-0.9-0.4c0-0.4,0.3-0.5,0.5-0.7C108.5,90.8,108.8,91,109,91.3L109,91.3z"/>
<path d="M79.5,18.8c0.5,0,1,0.4,1,1c0,0.5-0.4,1-1,1H67.7c-0.5,0-1-0.4-1-1c0-0.5,0.4-1,1-1H79.5L79.5,18.8z M71.1,20.5
	c1.1,0,0.1-1.4-0.6-1.4h-1.1c-1.1,0-0.1,1.4,0.6,1.4H71.1L71.1,20.5z M76,20.5c1.1,0,0.1-1.4-0.6-1.4h-1.1c-1.1,0-0.1,1.4,0.6,1.4
	H76L76,20.5z M79.5,19.1h-0.4c-1.1,0-0.2,1.4,0.4,1.4C80.3,20.5,80.3,19.1,79.5,19.1L79.5,19.1z"/>
<path d="M78.4,32.3l2.2,0.9l2.2-0.9L82,35.6l1.8-0.4l-0.6,2l0.6,1.9l-1.6-0.4l0.7,3.6l-2.2-0.9l-2.2,0.9l0.9-3.6l-1.8,0.5l0.5-2
	l-0.5-1.9l1.7,0.3L78.4,32.3L78.4,32.3z M81.7,38.2c0.5,0,0.5-0.7,0.5-1.3c0-1.4-1.1,0-1.6-1.3c-0.4,1.1-1.5,0.1-1.5,1.2
	c0,0.8,0,1.3,0.8,1.3H81.7L81.7,38.2z M79.5,37c0,0.5,0.7,0.2,1.2,0.2S82,37.5,82,37c0-0.7-0.7-0.5-1.2-0.5S79.5,36.3,79.5,37
	L79.5,37z"/>
<polygon points="73.2,37.1 73.2,36.7 72.8,36.6 73.1,36.3 72.9,36 73.3,36 73.5,35.6 73.7,36 74.1,36 74,36.3 74.3,36.6 73.9,36.7 
	73.9,37.1 73.5,36.9 73.2,37.1 "/>
<polygon points="71.4,39.4 71.4,39 71,38.9 71.3,38.6 71.2,38.2 71.5,38.3 71.8,37.9 72,38.3 72.4,38.2 72.2,38.6 72.5,38.9 
	72.1,39 72.1,39.4 71.8,39.1 71.4,39.4 "/>
<polygon points="74.4,39.1 74.4,38.7 74,38.6 74.3,38.3 74.1,38 74.5,38 74.7,37.6 75,38 75.4,38 75.2,38.3 75.5,38.6 75.1,38.7 
	75.1,39.1 74.7,38.8 74.4,39.1 "/>
<polygon points="74.7,40.8 74.7,40.5 74.5,40.5 74.7,40.3 74.6,40.1 74.8,40.1 74.9,39.9 75.1,40.1 75.3,40.1 75.2,40.3 75.3,40.5 
	75.1,40.5 75.1,40.8 74.9,40.6 74.7,40.8 "/>
<polygon points="72,42.7 72,42 71.3,41.8 71.8,41.3 71.5,40.7 72.2,40.8 72.6,40.1 73,40.8 73.7,40.7 73.3,41.3 73.8,41.8 73.2,42 
	73.2,42.7 72.6,42.2 72,42.7 "/>
<polygon points="73.4,5 74.8,8.4 78.3,7.4 76.5,10.6 79.5,12.8 75.9,13.4 76.1,17.1 73.4,14.6 70.6,17.1 70.9,13.4 67.2,12.8 
	70.2,10.6 68.4,7.4 72,8.4 73.4,5 "/>
<path d="M60.6,82c-0.4,0.2-0.6,0.3-0.5,0.7l0.5,2.1c0.1,0.4,0.1,1-0.1,1.4c-0.3,0.5-1,0.7-1.4,0.9c-0.3,0.1-1.1,0.2-1.7,0
	c-0.4-0.2-0.7-0.4-0.8-1.1L56,83.8c-0.1-0.6-0.3-0.5-0.8-0.5l0-0.2l2.7-0.6l0,0.2c-0.5,0.1-0.8,0.2-0.6,0.8l0.5,2.2
	c0.1,0.4,0.3,1.3,1.4,1c1.4-0.3,1.2-1.3,1.1-1.8l-0.5-2c-0.1-0.4-0.2-0.6-0.9-0.5l0-0.2l1.7-0.4L60.6,82L60.6,82z"/>
<path d="M64.5,82.5c-0.2-0.4-0.9-1.1-1.8-0.9c-0.4,0.1-0.8,0.4-0.7,0.8c0.1,0.4,0.3,0.5,1,0.6l1.3,0.2c0.3,0.1,1,0.3,1.1,1
	c0.1,0.6-0.2,1.5-1.7,1.8c-0.7,0.2-1.2,0-1.4,0.1c-0.2,0-0.2,0.2-0.2,0.3l-0.2,0.1l-0.4-1.6l0.2-0.1c0.3,0.6,0.9,1.3,1.9,1.1
	c0.9-0.2,0.8-0.9,0.8-1c-0.1-0.4-0.5-0.5-1.1-0.6l-0.6-0.1c-1.5-0.2-1.6-0.8-1.7-1.1c-0.1-0.4,0-1.4,1.5-1.7c0.6-0.1,1.1,0,1.3-0.1
	c0.2,0,0.2-0.1,0.2-0.3l0.2-0.1l0.3,1.4L64.5,82.5L64.5,82.5z"/>
<path d="M69.8,85.1l-2.9,0.3l0-0.2c0.6-0.1,0.8-0.1,0.7-0.7l-0.3-3.6c-0.6,0.1-1.4,0.2-1.4,1.3l-0.2,0l-0.1-1.4l4.8-0.5l0.1,1.4
	l-0.2,0c-0.3-1.1-1.1-1-1.7-1l0.3,3.6c0.1,0.6,0.2,0.6,0.8,0.5L69.8,85.1L69.8,85.1z"/>
<path d="M76.5,85.1l-1.7,0l-1.6-2.2l-0.2,0l0,1.3c0,0.5,0.2,0.6,0.7,0.6l0,0.2L70.9,85l0-0.2c0.6,0,0.7-0.1,0.7-0.6l0.1-3
	c0-0.6-0.2-0.6-0.7-0.6l0-0.2l2.6,0.1c0.6,0,2.3,0.1,2.3,1.2c0,0.8-0.9,1-1.3,1.1l1.6,2c0.1,0.1,0.2,0.1,0.3,0.1L76.5,85.1
	L76.5,85.1z M73,82.7c1.1,0,1.5-0.1,1.5-1c0-0.7-0.3-1-1-1c-0.4,0-0.5,0.1-0.5,0.3L73,82.7L73,82.7z"/>
<path d="M81.8,85.8l-2.6-0.3l0-0.2c0.5,0,0.6,0,0.7-0.2c0-0.2-0.2-0.7-0.3-0.9l-1.8-0.2c-0.3,0.5-0.4,0.7-0.5,0.8
	c0,0.3,0.4,0.3,0.6,0.4l0,0.2l-1.6-0.2l0-0.2c0.4,0,0.6-0.2,0.9-0.7l2.2-3.5l0.2,0l1.3,3.8c0.3,0.8,0.4,1,0.8,1L81.8,85.8L81.8,85.8
	z M79.5,83.9l-0.6-1.7l-1,1.5L79.5,83.9L79.5,83.9z"/>
<path d="M86.5,86.7l-4.6-0.8l0-0.2c0.5,0,0.7,0.1,0.8-0.3l0.6-3.2c0.1-0.4-0.2-0.5-0.6-0.6l0-0.2l2.8,0.5l0,0.2
	c-0.6-0.1-0.8-0.1-0.9,0.5L84,85.7c-0.1,0.3,0.1,0.4,0.6,0.5c1.2,0.2,1.7-0.3,2.3-0.9l0.2,0L86.5,86.7L86.5,86.7z"/>
<path d="M89.6,87.4l-2.8-0.6l0-0.2c0.4,0.1,0.7,0.1,0.8-0.3l0.7-3.2c0.1-0.4-0.3-0.5-0.6-0.6l0-0.2l2.8,0.6l0,0.2
	c-0.4-0.1-0.8-0.1-0.8,0.3l-0.7,3.2c-0.1,0.4,0.2,0.5,0.7,0.6L89.6,87.4L89.6,87.4z"/>
<path d="M95.2,88.1l-2.6-0.3l0-0.2c0.5,0,0.6,0,0.7-0.2c0-0.2-0.2-0.7-0.3-0.9l-1.8-0.2c-0.3,0.5-0.4,0.7-0.4,0.8
	c0,0.3,0.4,0.3,0.6,0.4l0,0.2l-1.6-0.2l0-0.2c0.4,0,0.6-0.2,0.9-0.7l2.2-3.5l0.2,0l1.4,3.7c0.3,0.8,0.4,1,0.8,1L95.2,88.1L95.2,88.1
	z M92.9,86.3l-0.6-1.7l-0.9,1.6L92.9,86.3L92.9,86.3z"/>
<path d="M74.5,33.4c0-1.6-0.9-0.1-1.4-1.5c-0.4,1.2-1.5,0.2-1.5,1.4c0,0.5,0.1,0.8,0.4,0.9v0.5c0,0.1,0.1,0.2,0.2,0.2h1.7
	c0.1,0,0.2-0.1,0.2-0.2v-0.5C74.4,34,74.5,33.7,74.5,33.4L74.5,33.4z M73.1,33.7c-0.5,0-1.1,0.3-1.1-0.2c0-0.8,0.5-0.6,1-0.6
	c0.5,0,1.2-0.2,1.2,0.6C74.2,34,73.6,33.7,73.1,33.7L73.1,33.7z"/>
<path d="M88.7,53.4c0.4,0,0.7-0.3,0.7-0.7c0-0.4-0.3-0.7-0.7-0.7c-0.4,0-0.7,0.3-0.7,0.7C87.9,53.1,88.3,53.4,88.7,53.4L88.7,53.4z"
	/>
<path d="M85.2,29.2c0,0-0.4,0.6-0.4,0.7c0,0.2,0.2,0.4,0.4,0.4s0.4-0.2,0.4-0.4C85.5,29.9,85.2,29.2,85.2,29.2L85.2,29.2z"/>
<path d="M61.2,29.2c0,0-0.4,0.6-0.4,0.7c0,0.2,0.2,0.4,0.4,0.4c0.2,0,0.4-0.2,0.4-0.4C61.6,29.9,61.2,29.2,61.2,29.2L61.2,29.2z"/>
<path d="M67.2,29.2c0,0-0.3,0.6-0.3,0.7c0,0.2,0.2,0.4,0.4,0.4c0.2,0,0.4-0.2,0.4-0.4C67.6,29.9,67.2,29.2,67.2,29.2L67.2,29.2z"/>
<path d="M73.2,29.2c0,0-0.4,0.6-0.4,0.7c0,0.2,0.2,0.4,0.4,0.4c0.2,0,0.4-0.2,0.4-0.4C73.6,29.9,73.2,29.2,73.2,29.2L73.2,29.2z"/>
<path d="M79.2,29.2c0,0-0.3,0.6-0.3,0.7c0,0.2,0.2,0.4,0.4,0.4c0.2,0,0.4-0.2,0.4-0.4C79.5,29.9,79.2,29.2,79.2,29.2L79.2,29.2z"/>
<path d="M61.2,37.4c0,0,0.3,0.6,0.3,0.7c0,0.2-0.2,0.4-0.4,0.4c-0.2,0-0.4-0.2-0.4-0.4C60.9,38.1,61.2,37.4,61.2,37.4L61.2,37.4z"/>
<path d="M61.2,45.4c0,0,0.3,0.6,0.3,0.7c0,0.2-0.2,0.4-0.4,0.4c-0.2,0-0.4-0.2-0.4-0.4C60.9,46.1,61.2,45.4,61.2,45.4L61.2,45.4z"/>
<path d="M62.2,51.8c0,0,0.4,0.6,0.4,0.7c0,0.2-0.2,0.4-0.4,0.4c-0.2,0-0.4-0.2-0.4-0.4C61.8,52.4,62.2,51.8,62.2,51.8L62.2,51.8z"/>
<path d="M67.2,55.1c0,0,0.4,0.6,0.4,0.7c0,0.2-0.2,0.4-0.4,0.4c-0.2,0-0.4-0.2-0.4-0.4C66.8,55.8,67.2,55.1,67.2,55.1L67.2,55.1z"/>
<path d="M85.5,37.4c0,0-0.3,0.6-0.3,0.7c0,0.2,0.2,0.4,0.4,0.4c0.2,0,0.4-0.2,0.4-0.4C85.8,38.1,85.5,37.4,85.5,37.4L85.5,37.4z"/>
<path d="M85.5,45.4c0,0-0.3,0.6-0.3,0.7c0,0.2,0.2,0.4,0.4,0.4c0.2,0,0.4-0.2,0.4-0.4C85.8,46.1,85.5,45.4,85.5,45.4L85.5,45.4z"/>
<path d="M84.5,51.8c0,0-0.4,0.6-0.4,0.7c0,0.2,0.2,0.4,0.4,0.4c0.2,0,0.4-0.2,0.4-0.4C84.9,52.4,84.5,51.8,84.5,51.8L84.5,51.8z"/>
<path d="M79.5,55.1c0,0-0.3,0.6-0.3,0.7c0,0.2,0.2,0.4,0.4,0.4c0.2,0,0.4-0.2,0.4-0.4C79.9,55.8,79.5,55.1,79.5,55.1L79.5,55.1z"/>
<path d="M73.4,58.7c0,0-0.3,0.6-0.3,0.7c0,0.2,0.2,0.4,0.4,0.4c0.2,0,0.4-0.2,0.4-0.4C73.7,59.4,73.4,58.7,73.4,58.7L73.4,58.7z"/>
<path d="M83.1,46.8c0.1,0.1,0.3,0.2,0.5,0.1l0.2-0.6c0,0-0.3-0.3-0.4-0.3c-0.6,0.2-1.3,0.2-1.7,0.8c0,0.4,0.3,0.8,0.6,1
	c0.2-0.1,0.3,0.2,0.4,0.3c0,0.2-0.1,0.3-0.3,0.3c-0.5-0.5-1.2,0.2-1.6-0.4c0.1-0.6,0.5-1.2,0-1.7c0-0.1,0.2-0.2,0.1-0.3
	c-0.2-0.5-0.8-0.1-1.1-0.1c-0.6-0.1-1,0.2-1.4,0.7c0,0.2,0.1,0.4,0.3,0.6c0.2,0,0.2,0,0.3,0.2l-0.4,0.2c0.1,0.1,0.1,0.3,0.2,0.4
	c-0.3,0.1-0.5-0.3-0.6-0.5c0-0.3,0-0.8-0.4-0.9c-0.1,0-0.3,0.1-0.3,0.1c-0.1,0.1-0.2,0.4-0.2,0.6c0,0.3,0.1,0.7,0.1,0.7
	s1.2,0.9,1.4,1.4c-0.3,0.7-0.3,1.6-1.1,2c-0.2,0.2-0.2,0.4-0.2,0.6l0.2,0.2c0.5-0.3,1.4-0.3,1.4-1.2c0.2-0.3,0.4-0.7,0.7-1
	c0.4-0.1,0.7,0.1,0.9,0.4c-0.1,0.6-0.5,0.9-1,1.1c-0.1,0.1,0,0.2,0,0.3c0.2,0.3,0.6,0.2,0.8,0.1c0.6-0.4,0.9-1.2,1.5-1.4
	c0.1,0.4-0.8,0.5-0.2,0.9c0.3-0.1,0.8,0,1-0.4c-0.3-0.6,0.9-0.9,0.2-1.5c0-0.6,0.6-0.8,0.6-1.4c-0.2-0.6-0.9-0.6-1.1-1.2
	C82.6,46.6,82.9,46.6,83.1,46.8L83.1,46.8z"/>
<path d="M55.6,53.7c0.4,0,0.7-0.3,0.7-0.7c0-0.4-0.3-0.7-0.7-0.7c-0.4,0-0.7,0.3-0.7,0.7C54.9,53.4,55.2,53.7,55.6,53.7L55.6,53.7z"
	/>
<path d="M16.8,76.4c0.4,0,0.7-0.3,0.7-0.7c0-0.4-0.3-0.7-0.7-0.7c-0.4,0-0.7,0.3-0.7,0.7C16,76,16.3,76.4,16.8,76.4L16.8,76.4z"/>
<path d="M41.5,81.9L41.5,81.9L41.5,81.9l-0.1-0.1v0C41.4,81.9,41.4,81.9,41.5,81.9L41.5,81.9h-0.2v0c0,0,0,0,0,0v-0.1c0,0,0,0,0,0v0
	h0.1C41.4,81.7,41.5,81.7,41.5,81.9C41.5,81.8,41.4,81.8,41.5,81.9L41.5,81.9C41.5,81.9,41.5,81.9,41.5,81.9L41.5,81.9L41.5,81.9z
	 M41.4,81.8C41.4,81.8,41.4,81.8,41.4,81.8C41.4,81.8,41.4,81.7,41.4,81.8C41.4,81.7,41.4,81.7,41.4,81.8L41.4,81.8L41.4,81.8z"/>
<path d="M41.6,81.8C41.6,81.8,41.6,81.7,41.6,81.8C41.5,81.7,41.5,81.7,41.6,81.8C41.5,81.8,41.5,81.8,41.6,81.8L41.6,81.8
	C41.6,81.8,41.6,81.8,41.6,81.8C41.6,81.9,41.6,81.9,41.6,81.8C41.5,81.9,41.5,81.9,41.6,81.8C41.5,81.9,41.5,81.9,41.6,81.8
	l-0.1,0.1v0L41.6,81.8C41.5,81.8,41.5,81.9,41.6,81.8C41.6,81.9,41.6,81.8,41.6,81.8C41.6,81.8,41.6,81.8,41.6,81.8L41.6,81.8
	C41.5,81.8,41.5,81.8,41.6,81.8C41.5,81.8,41.5,81.7,41.6,81.8C41.6,81.7,41.6,81.7,41.6,81.8C41.6,81.7,41.6,81.7,41.6,81.8
	L41.6,81.8L41.6,81.8L41.6,81.8L41.6,81.8z"/>
<path d="M41.8,81.7C41.8,81.7,41.8,81.7,41.8,81.7l-0.1,0.1h0l0-0.1h0l0,0.1h0l0-0.1c0,0,0,0,0,0v0h0.1v0c0,0,0,0,0,0c0,0,0,0,0,0
	l0,0.1h0l0-0.1l0,0c0,0,0,0,0,0v0L41.8,81.7L41.8,81.7C41.8,81.7,41.7,81.7,41.8,81.7C41.7,81.8,41.7,81.8,41.8,81.7L41.8,81.7
	L41.8,81.7L41.8,81.7C41.8,81.8,41.8,81.8,41.8,81.7C41.8,81.7,41.8,81.7,41.8,81.7L41.8,81.7L41.8,81.7L41.8,81.7L41.8,81.7z"/>
<path d="M41.8,81.9C41.9,81.9,41.9,81.9,41.8,81.9C41.9,81.8,41.9,81.8,41.8,81.9C41.9,81.8,41.9,81.8,41.8,81.9
	C41.9,81.8,41.8,81.8,41.8,81.9c0-0.1,0-0.1,0.1-0.1c0,0,0.1,0,0.1,0.1C41.9,81.8,41.9,81.9,41.8,81.9L41.8,81.9L41.8,81.9z
	 M41.9,81.8C41.9,81.8,41.9,81.8,41.9,81.8C41.9,81.8,41.9,81.8,41.9,81.8C41.9,81.8,41.9,81.7,41.9,81.8
	C41.9,81.7,41.9,81.8,41.9,81.8C41.9,81.8,41.9,81.8,41.9,81.8L41.9,81.8z"/>
<path d="M42,81.8C42,81.8,42,81.8,42,81.8C42,81.8,42,81.8,42,81.8C42,81.9,42,81.9,42,81.8C42,81.9,41.9,81.9,42,81.8
	C41.9,81.9,42,81.8,42,81.8C42,81.8,42,81.9,42,81.8C42,81.9,42,81.9,42,81.8C42,81.8,42,81.8,42,81.8C42,81.8,42,81.8,42,81.8
	L42,81.8L42,81.8L42,81.8L42,81.8L42,81.8L42,81.8z"/>
<path d="M87.2,28.3L87.2,28.3l-27.6,0v0h0l0,21.1c0,2.2,0.9,4,2.2,4.6l10.6,6.8c0.2,0.3,0.6,0.4,1,0.4c0.3,0,0.6-0.1,0.9-0.3L85,54
	c1.3-0.6,2.2-2.5,2.2-4.6L87.2,28.3L87.2,28.3L87.2,28.3z M86.4,49.7c-0.1,1.6-0.7,2.9-1.8,3.7L74.2,60h-0.1
	c-0.2,0.2-0.5,0.3-0.8,0.3c-0.3,0-0.6-0.1-0.8-0.3l-10.4-6.6c-1.1-0.8-1.6-2.1-1.8-3.7V29h26.1V49.7L86.4,49.7z"/>
<path d="M77.1,59.1l0.3-0.2C77.3,58.9,77.2,59,77.1,59.1L77.1,59.1z"/>
<path d="M56.2,87.9l-2.6,0.3l0-0.2c0.5-0.1,0.6-0.1,0.6-0.3c0-0.2-0.3-0.7-0.5-0.9l-1.8,0.2c-0.2,0.5-0.3,0.8-0.3,0.9
	c0,0.3,0.4,0.2,0.7,0.2l0,0.2l-1.6,0.2l0-0.2c0.4-0.1,0.5-0.3,0.7-0.9l1.4-3.9l0.2,0l2.2,3.3c0.4,0.7,0.6,0.9,1,0.8L56.2,87.9
	L56.2,87.9z M53.6,86.6l-1-1.5L52,86.8L53.6,86.6L53.6,86.6z"/>
<path d="M102,78c-0.5-1.2-1.5-2.1-2.7-2.5c-1.3-0.3-2.6-0.1-3.5,0.9c-1.4,1.2-0.4,3.1-0.4,4.6c0,0.3,0,0.6-0.3,0.7
	c-5.8-0.5-11.1-2-16.8-2.6c-1.3-0.2-2.6-0.2-3.9-0.4l-1.6-0.2c-5,0.2-9.9,0.4-14.6,1.6c-1,0.3-2.1,0.4-3.1,0.8
	c-0.7-0.1-1.3,0.4-2,0.2l-1.3,0.3c-0.1,0-0.3,0-0.4,0c-0.6-1.6,1.3-2.6,0.7-4.2c-0.5-0.9-1.5-1.8-2.7-1.6c-1.3-0.2-2.5,0.6-3.2,1.6
	c-0.9,2,0.2,4.1,0.6,6c-0.1,0.6,0.6,1.4,0,1.9c-1.3-0.9-2.9-1.4-4.5-0.9c-0.5,0.2-1.3-0.1-1.6,0.5c1.7,0.9,3.9,0.8,5.8,0.7
	c0.2-0.1,0.4-0.1,0.6,0c0.2,1-0.2,2.4,0.4,3.4c0.7,1,1.9,1.2,3.1,1.3c3.7-0.1,6.9-1.2,10.2-2c0.5,0,0.9-0.3,1.5-0.3
	c1.8-0.4,3.7-0.7,5.6-0.8c-0.8,1.1-1.3,2.3-1.7,3.6c-0.5,1.1,0.8,1.2,1.2,1.8c-1.2,0.4-2.1,1.2-3.3,1.7c-2.5-0.1-4.7,0.9-7.1,1.2
	c0,0.5,0.8,0.4,0.9,0.9c-0.1,0.4-0.5,0.4-0.8,0.6c0,0.2,0,0.3,0.2,0.3c0.2-0.3,0.8-0.1,1-0.4c0.8,0,1.5-0.2,2.2-0.3
	c0.7-0.3,1.4-0.3,2-0.8c0.8-0.2,1.3-0.8,2.2-1c1.2,0,2.3-0.4,3.4-0.5v0.2c-0.9,1.5-1.9,3-2.8,4.4c-0.2,0.3,0,0.6,0.3,0.6
	c0.6,0.2,1.1,0,1.5-0.2c0.8-1.4,1.6-2.8,2.3-4.3c0.3-1.4,1.3-2.1,2.3-3c0.2-0.1,0.4-0.3,0.6-0.1c-0.8,0.9-1.3,1.8-1.9,2.8
	c-0.3,1.1-0.4,2.6,0.6,3.5c0.5,0.4,1.2,0.3,1.8,0.3c1.5-0.8,3.5,0.5,4.7-1c0.7-0.1,0.8,0.7,1.2,1.1c0.7,0.2,1.4,0.9,2.1,0.4
	c0-0.4-0.5-0.8-0.8-1.2c-0.5-0.8-1.1-1.5-1.5-2.3c-0.2-0.6-0.6-0.9-0.6-1.5c0.7,0.2,1.3,0.7,2.1,0.8c0.7,0.3,1.5,0.2,2.1,0.6
	c0.5,0.7,1.3,1.1,2,1.5c1,0.5,2.1,0.6,3.1,1c0.4,0,1,0.4,1.3,0c-0.2-0.2-0.4-0.3-0.6-0.4c-0.1-0.5,0.7-0.2,1-0.6
	c-0.1-0.2-0.3-0.3-0.5-0.3c-0.6-0.3-2-0.4-2.4-0.6c-0.5-0.1-0.9-0.3-1.4-0.4c-2.4,0-3.7-2.2-5.6-3c0.4-0.4,1.1-0.7,1.4-1.3
	c0.4-0.6,0.5-1.5,0.1-2.1c-0.4-1.2-1.9-1.1-2.9-1.8l0.1-0.1c1.5-0.1,2.9,0.3,4.3,0.6c3.8,0.5,7.3,2,11.3,2c2.2,0,4.9,0.1,6-2
	c0.2-1.2,0.4-2.5,0.6-3.7C100.9,82.1,102.2,80.2,102,78L102,78z M59.2,96.2l-0.6-0.5c0.3-0.4,0.9-0.2,1.3-0.4c1-0.3,2.2-0.7,3.4-0.5
	C62.1,95.8,60.5,95.9,59.2,96.2L59.2,96.2z M83.9,95.6c0.9,0.4,2.9,0.8,4.2,1c-0.1,0.5-1.1,0-1,0.8c-1.2-0.5-2.7-0.7-3.6-1.7
	C83.7,95.7,83.8,95.6,83.9,95.6L83.9,95.6z M46.7,78.6c0.1-0.7,0.3-1.5,1-2c1-0.5,2.3-0.4,3.1,0.1c0.3,0.2,0.5,0.4,0.6,0.8
	c0.2,0.7-0.1,1.4-0.6,1.8h-0.4c0-0.6,0-1.3,0.2-1.8c0-0.5-0.4-0.5-0.8-0.7c-0.7-0.2-1.3,0.1-1.8,0.4c-0.4,0.5-0.8,1.1-0.5,1.8
	c0.3,0.4,0,1,0.2,1.5l-0.1,0.2C47.2,80.1,46.6,79.5,46.7,78.6L46.7,78.6z M48.6,79.8c0.6,0.4,1.4,0.2,2.1,0.4c0.1,0.4,0.1,1-0.2,1.4
	c-0.7-0.2-1.5-0.1-1.9-0.7C48.7,80.5,48.5,80.1,48.6,79.8L48.6,79.8z M48.4,78.4c0.1-0.3,0-0.8,0.4-0.9c0.3-0.1,0.7-0.1,0.8,0.2
	c0,0.5-0.1,1-0.2,1.4C48.9,79.2,48.6,78.9,48.4,78.4L48.4,78.4z M67,91.3c-0.2-1.4,0.4-2.6,1.3-3.6c0.6-0.1,1.2-0.2,1.7,0.1
	c-1,0.3-2.3,0.5-2.6,1.8c0,0.5-0.1,0.8,0.1,1.2c0.4,0.8,1.4,0.4,2,1c0,0.2-0.2,0.4-0.4,0.5C68.5,91.9,67.7,91.8,67,91.3L67,91.3z
	 M65.6,94c1-0.4,1.9-1.2,3-0.9C67.9,93.7,66.6,94,65.6,94L65.6,94z M69.4,94.4c-0.6,1.3-1.2,2.5-1.9,3.8c-0.1,0.2-0.4,0.2-0.6,0.3
	c0-0.6,0.6-1,0.8-1.5c0.8-1.1,1.1-2.2,2-3.3C69.9,93.9,69.4,94.1,69.4,94.4L69.4,94.4z M70.4,92.1v0.2h-0.1L70.4,92.1L70.4,92.1
	L70.4,92.1C70.4,92.1,70.3,92.1,70.4,92.1L70.4,92.1L70.4,92.1z M70,91c-0.7-0.1-1.3-0.3-1.9-0.5c-0.4-0.4,0-0.8,0-1.3
	c0.6-0.9,2.1-1.3,2.9-0.5C70.9,89.6,70.6,90.4,70,91L70,91z M70.9,91c0.1-0.5,0.4-1.2,0.6-1.7C71.5,89.9,71.2,90.6,70.9,91L70.9,91z
	 M71.3,87.8c-0.5-0.1-0.8-0.7-1.3-0.7c0.5-0.2,1-0.1,1.5,0C71.7,87.3,71.4,87.5,71.3,87.8L71.3,87.8z M71.8,89L71.8,89l0-0.4h0V89
	L71.8,89z M71.8,90.8c0-0.2,0.1-0.4,0.1-0.6c0.2-0.2,0.4,0.2,0.5,0.3C72.3,90.7,72.1,90.9,71.8,90.8L71.8,90.8z M72.4,88.3
	c0.2-0.6,0.2-1,0.6-1.5c0.4,0,0.8,0,1.1,0.2c0.1,0.8,1.1,1.9,0,2.6c-0.4,0.2-0.9,0.5-1.3,0.2C72.3,89.3,72.2,88.9,72.4,88.3
	L72.4,88.3z M75.3,87.2c-0.1-0.4,0.4-0.1,0.5-0.2l1.2,0.1C76.4,87,75.7,88.5,75.3,87.2L75.3,87.2z M77.3,87.7
	c-0.5,0.2-0.8,0.7-1.3,0.8C76.2,88.1,76.8,87.7,77.3,87.7L77.3,87.7z M75.7,90.2v0.1h0L75.7,90.2L75.7,90.2L75.7,90.2z M75.7,92.7
	c0,0.1,0,0.2-0.1,0.3l-0.9-0.7C75.2,92.1,75.5,92.3,75.7,92.7L75.7,92.7z M74.7,91.4c0.1-0.1,0.3-0.1,0.4,0H74.7L74.7,91.4z
	 M74.1,90.8c0.2-0.2,0.4-0.6,0.6-0.6c0,0,0,0.1,0.1,0.1C74.6,90.5,74.4,90.7,74.1,90.8L74.1,90.8z M73.2,90.7H73l0.2-0.2
	C73.4,90.6,73.2,90.7,73.2,90.7L73.2,90.7z M73.3,92.3c0.5-0.6,1,0.3,1.2,0.8c0.6,0.9,2.1,1.7,1.5,2.9c-0.8,0.7-1.9,0-2.8,0.6
	c-0.4,0-1.2,0.1-1.4-0.4C72.3,94.8,72.7,93.4,73.3,92.3L73.3,92.3z M72.2,93l0.2-0.3c-0.3,1-0.8,2-1.3,2.9
	C70.9,94.6,71.8,93.9,72.2,93L72.2,93z M73.9,97.8c-0.8,0-1.9,0.5-2.6-0.2c0-0.3-0.3-0.5-0.3-0.8c0.6-0.2,1.2,0.5,1.8,0
	c0.9,0,1.9-0.1,2.8,0.1c0.4,0.1,1.1-0.7,1.2,0.1C76.5,98.3,74.9,97.4,73.9,97.8L73.9,97.8z M76.2,92v-0.1h0.1L76.2,92L76.2,92
	L76.2,92z M76.5,94.5c0,0.4,0.4,0.6,0.2,0.9C76.6,95.3,76.4,94.9,76.5,94.5L76.5,94.5z M77.6,96.9L77.4,97c-0.2-0.2-0.1-0.6-0.1-0.8
	C77.6,96.4,77.8,96.6,77.6,96.9L77.6,96.9z M79.6,97.9c0,0.1-0.2,0.1-0.3,0c-1.2-1.5-1.7-3.1-2.5-4.8l0.2,0
	C77.9,94.7,78.6,96.4,79.6,97.9L79.6,97.9z M81,94.2c-0.1,0-0.1,0.1-0.1,0.2c-1.2,0-1.9-0.6-2.8-1.2l0-0.2
	C79.2,93,80.1,93.7,81,94.2L81,94.2z M80,88.9c0.5,0.1,0.5,0.6,0.6,1c0,0.9-0.5,1.6-1.3,2c-0.4,0.2-1.1,0.3-1.5,0.2
	c1,0,2-0.4,2.4-1.4L80,88.9L80,88.9z M79.1,88.7c0.2,0.6,0.6,1.1,0.4,1.8c-0.4,0.8-1.2,0.8-1.9,0.9c-0.4,0-0.6-0.1-0.9-0.3
	c0-0.2,0-0.3-0.2-0.4c0.1-0.5-0.9-1-0.2-1.5C77,88.7,78.5,87.3,79.1,88.7L79.1,88.7z M99.3,85.8c-0.3,0.4,0,1-0.4,1.4
	c0,0.7-0.6,1.1-1.1,1.4c-4.7,1-9.4-0.6-13.9-1.4c-6.4-1.4-13.8-1.8-20.3-0.3c-3.1,0.6-6,1.3-9,2.1c-1.8,0.2-3.8,0.5-5.6,0
	c-1.4-0.7-0.8-2.5-1.3-3.8c0.1-1-0.3-1.8-0.3-2.8c-0.1-0.3-0.2-0.7-0.2-1c0.6,0.1,1.2,0.5,1.8,0.7c3.3,0.6,6.3-0.4,9.4-1
	c3-0.6,6-1.2,9.2-1.4c3.6,0,7.2-0.2,10.6,0.4c1.1,0,2.1,0.3,3.1,0.4c2.2,0.3,4.3,0.9,6.5,1c0.4,0.1,0.8,0.1,1.2,0.2
	c3.6,0.6,7.6,1.6,11,0C100.1,83.1,99.5,84.4,99.3,85.8L99.3,85.8z M98.2,80.9c0,0.6-0.6,0.5-0.9,0.7h-1c-0.2-0.3-0.1-0.8-0.1-1.1
	C96.9,80.7,97.6,80.7,98.2,80.9L98.2,80.9z M97.7,79.9c0.4-0.4-0.1-3,1.1-1.3c0,0.3,0,0.8-0.3,1C98.4,79.8,98.1,80.1,97.7,79.9
	L97.7,79.9z M101,79.5c-0.4,0.7-0.9,1.2-1.7,1.4c0-1,0.9-1.6,0.6-2.7c-0.5-0.8-1.5-1-2.5-0.8c-0.4,0.2-0.2,0.6-0.3,1l-0.2,1.3
	c-0.8,0-0.8-0.7-1.1-1.3c0-0.8,0.4-1.7,1.2-2.1c0.6-0.3,1.7-0.3,2.3,0.1c0.5,0.1,1.1,0.4,1.3,0.8C101.2,77.8,101.1,78.8,101,79.5
	L101,79.5z"/>
<line class="st1" x1="149.8" y1="64.7" x2="470.2" y2="64.7"/>
</svg>
