<?xml version="1.0" encoding="utf-8"?>
<!-- Generator: Adobe Illustrator 21.0.2, SVG Export Plug-In . SVG Version: 6.00 Build 0)  -->
<svg version="1.1" id="Layer_2" xmlns="http://www.w3.org/2000/svg" xmlns:xlink="http://www.w3.org/1999/xlink" x="0px" y="0px"
	 viewBox="0 0 461.6 94.5" style="enable-background:new 0 0 461.6 94.5;" xml:space="preserve">
<style type="text/css">
	.st0{fill:#FFFFFF;}
</style>
<title>logo-dva</title>
<path class="st0" d="M152.5,41.7h-6.6l-0.8,1.8c-0.2,0.5-0.4,1-0.4,1.5s0.2,0.9,0.6,1.2c0.6,0.2,1.2,0.3,1.8,0.3V47H141v-0.5
	c0.6-0.1,1.2-0.4,1.6-0.8c0.7-0.9,1.2-1.8,1.6-2.8l6.6-14.8h0.3l6.7,15.2c0.4,1,0.9,1.9,1.6,2.7c0.4,0.3,0.8,0.5,1.3,0.5V47h-9v-0.5
	h0.4c0.5,0,1.1-0.1,1.5-0.3c0.2-0.1,0.3-0.4,0.3-0.6c0-0.2,0-0.3-0.1-0.5c0-0.1-0.1-0.4-0.4-1L152.5,41.7z M152,40.7l-2.8-6.4
	l-2.8,6.4H152z"/>
<path class="st0" d="M172.9,34.2v10c-0.1,0.6,0,1.3,0.3,1.8c0.3,0.3,0.7,0.5,1.1,0.5V47h-5.2v-1.7c-0.5,0.6-1.1,1.2-1.8,1.6
	c-0.6,0.3-1.3,0.5-2.1,0.5c-0.7,0-1.4-0.2-1.9-0.7c-0.5-0.4-0.9-0.9-1.1-1.5c-0.2-1-0.3-2.1-0.3-3.1v-5c0.1-0.6,0-1.2-0.3-1.8
	c-0.3-0.3-0.7-0.5-1.1-0.5v-0.5h5.2V43c0,0.6,0,1.2,0.1,1.8c0.1,0.2,0.2,0.4,0.4,0.6c0.2,0.1,0.4,0.2,0.6,0.2c0.3,0,0.6-0.1,0.9-0.3
	c0.5-0.4,1-0.9,1.3-1.4V37c0.1-0.6,0-1.2-0.3-1.8c-0.3-0.3-0.7-0.5-1.1-0.5v-0.5H172.9z"/>
<path class="st0" d="M182.8,33.8l0.2,4.4h-0.5c-0.4-1-1-1.9-1.7-2.7c-0.5-0.4-1.1-0.7-1.8-0.7c-0.4,0-0.7,0.1-1,0.4
	c-0.3,0.2-0.4,0.5-0.4,0.9c0,0.3,0.1,0.5,0.3,0.7c0.7,0.7,1.6,1.4,2.4,1.9c1,0.6,2,1.4,2.7,2.3c0.4,0.6,0.6,1.4,0.6,2.1
	c0,0.7-0.2,1.4-0.5,2.1c-0.3,0.7-0.9,1.2-1.5,1.6c-0.7,0.4-1.4,0.6-2.1,0.5c-0.8,0-1.7-0.2-2.4-0.6c-0.2-0.1-0.4-0.1-0.6-0.2
	c-0.3,0-0.6,0.2-0.8,0.7h-0.4l-0.2-4.6h0.5c0.3,1,0.9,2,1.7,2.7c0.5,0.5,1.2,0.8,2,0.9c0.4,0,0.8-0.1,1.1-0.4c0.3-0.3,0.4-0.6,0.4-1
	s-0.1-0.8-0.4-1.1c-0.6-0.5-1.2-1-1.8-1.5c-1-0.6-1.9-1.4-2.7-2.2c-0.6-0.7-0.9-1.6-0.9-2.5c0-1,0.4-1.9,1-2.7
	c0.7-0.8,1.8-1.3,2.9-1.2c0.7,0,1.4,0.2,2,0.5c0.2,0.1,0.4,0.2,0.6,0.2c0.1,0,0.3,0,0.4-0.1c0.2-0.2,0.3-0.4,0.5-0.6L182.8,33.8z"/>
<path class="st0" d="M189.3,29.5v4.7h3v1.3h-3v7.9c0,0.5,0,1,0.1,1.4c0.1,0.2,0.2,0.4,0.4,0.5c0.1,0.1,0.3,0.2,0.5,0.2
	c0.6,0,1.2-0.4,1.7-1.3l0.4,0.3c-0.5,1.6-2,2.6-3.6,2.6c-0.7,0-1.5-0.2-2.1-0.7c-0.5-0.4-0.9-0.9-1.1-1.5c-0.1-0.8-0.2-1.7-0.1-2.5
	v-6.9h-1.7V35c1.1-0.7,2.1-1.6,2.9-2.6c0.8-0.9,1.5-1.9,2.1-3L189.3,29.5z"/>
<path class="st0" d="M197.5,34.2v2.9c0.6-1,1.3-1.9,2.2-2.6c0.5-0.4,1.2-0.6,1.9-0.7c0.5,0,0.9,0.1,1.2,0.5s0.5,0.8,0.5,1.3
	s-0.1,1-0.4,1.4c-0.3,0.3-0.7,0.5-1.1,0.5c-0.5,0-0.9-0.2-1.3-0.5c-0.2-0.2-0.4-0.4-0.6-0.5c-0.1-0.1-0.2-0.1-0.3-0.1
	c-0.3,0-0.5,0.1-0.8,0.3c-0.4,0.4-0.7,0.8-0.9,1.3c-0.3,0.9-0.5,1.9-0.4,2.9v3.7c0,0.3,0,0.7,0.1,1c0.1,0.2,0.3,0.4,0.5,0.5
	c0.3,0.1,0.7,0.2,1.1,0.2V47h-6.9v-0.5c0.4,0,0.8-0.2,1.1-0.5c0.3-0.7,0.4-1.4,0.3-2.1v-7.1c0-0.5,0-0.9-0.1-1.4
	c-0.1-0.2-0.2-0.4-0.4-0.6c-0.3-0.2-0.6-0.2-0.9-0.3V34L197.5,34.2z"/>
<path class="st0" d="M210.3,45.1c-1.1,1.2-2.6,1.9-4.2,2.1c-0.7,0-1.3-0.2-1.8-0.7s-0.7-1.1-0.7-1.8c0-1,0.5-2,1.3-2.6
	c1.7-1.3,3.5-2.3,5.5-3.1v-1.3c0-0.6,0-1.2-0.2-1.8c-0.1-0.3-0.3-0.5-0.6-0.7s-0.6-0.3-1-0.3c-0.5,0-1,0.1-1.5,0.4
	c-0.2,0.1-0.3,0.3-0.4,0.6c0,0.3,0.2,0.5,0.4,0.7c0.3,0.3,0.5,0.7,0.5,1.1c0,0.4-0.2,0.8-0.5,1.1c-0.4,0.3-0.8,0.5-1.3,0.5
	s-1-0.2-1.4-0.5s-0.6-0.7-0.6-1.2c0-0.7,0.3-1.4,0.8-1.9c0.6-0.6,1.3-1.1,2.2-1.4c0.9-0.3,1.9-0.5,2.9-0.5c1-0.1,2,0.2,2.9,0.8
	c0.6,0.4,1.1,1,1.4,1.7c0.2,0.9,0.2,1.8,0.2,2.6v5c0,0.4,0,0.7,0.1,1.1c0,0.1,0.1,0.2,0.2,0.3c0.1,0.1,0.2,0.1,0.3,0.1
	c0.2,0,0.5-0.2,0.7-0.5l0.4,0.3c-0.4,0.6-0.9,1.1-1.4,1.5c-0.5,0.3-1.1,0.5-1.7,0.5c-0.6,0-1.2-0.1-1.7-0.5
	C210.5,46.2,210.3,45.7,210.3,45.1z M210.3,44.1v-4.3c-1,0.5-1.8,1.2-2.5,2.1c-0.3,0.4-0.5,0.9-0.5,1.5c0,0.4,0.2,0.8,0.4,1.1
	c0.3,0.3,0.6,0.4,1,0.4C209.3,44.8,209.8,44.5,210.3,44.1z"/>
<path class="st0" d="M220.8,28.4v15.9c-0.1,0.6,0,1.2,0.3,1.7c0.3,0.3,0.8,0.5,1.2,0.4V47h-6.9v-0.5c0.5,0,0.9-0.2,1.3-0.5
	c0.2-0.5,0.3-1.1,0.3-1.7V31.1c0.1-0.6,0-1.2-0.3-1.7c-0.3-0.3-0.8-0.5-1.2-0.4v-0.5h5.3V28.4z"/>
<path class="st0" d="M227.2,34.2v10.1c-0.1,0.6,0,1.2,0.3,1.7c0.3,0.3,0.8,0.5,1.2,0.4V47h-6.9v-0.5c0.5,0,0.9-0.2,1.3-0.5
	c0.2-0.5,0.3-1.1,0.3-1.7v-7.5c0.1-0.6,0-1.2-0.3-1.7c-0.3-0.3-0.8-0.5-1.2-0.4v-0.5L227.2,34.2z M225.3,28c1.2,0,2.1,0.9,2.1,2.1
	s-0.9,2.1-2.1,2.1c-1.2,0-2.1-0.9-2.1-2.1c0-0.6,0.2-1.1,0.6-1.5C224.1,28.2,224.7,28,225.3,28z"/>
<path class="st0" d="M235.6,45.1c-1.1,1.2-2.6,1.9-4.2,2.1c-0.7,0-1.3-0.2-1.8-0.7s-0.7-1.1-0.7-1.8c0-1,0.5-2,1.3-2.6
	c1.7-1.3,3.5-2.3,5.5-3.1v-1.3c0-0.6,0-1.2-0.2-1.8c-0.1-0.3-0.3-0.5-0.6-0.7s-0.6-0.3-1-0.3c-0.5,0-1,0.1-1.5,0.4
	c-0.2,0.1-0.3,0.3-0.4,0.6c0,0.3,0.2,0.5,0.4,0.7c0.3,0.3,0.5,0.7,0.5,1.1c0,0.4-0.2,0.8-0.5,1.1c-0.4,0.3-0.8,0.5-1.3,0.5
	s-1-0.2-1.4-0.5s-0.6-0.7-0.6-1.2c0-0.7,0.3-1.4,0.8-1.9c0.6-0.6,1.3-1.1,2.2-1.4c0.9-0.3,1.9-0.5,2.9-0.5c1-0.1,2,0.2,2.9,0.8
	c0.6,0.4,1.1,1,1.4,1.7c0.2,0.9,0.2,1.8,0.2,2.6v5c0,0.4,0,0.7,0.1,1.1c0,0.1,0.1,0.2,0.2,0.3c0.1,0.1,0.2,0.1,0.3,0.1
	c0.2,0,0.5-0.2,0.7-0.5l0.4,0.3c-0.4,0.6-0.9,1.1-1.4,1.5c-0.5,0.3-1.1,0.5-1.7,0.5c-0.6,0-1.2-0.1-1.7-0.5
	C235.9,46.2,235.6,45.7,235.6,45.1z M235.6,44.1v-4.3c-1,0.5-1.8,1.2-2.5,2.1c-0.3,0.4-0.5,0.9-0.5,1.5c0,0.4,0.2,0.8,0.4,1.1
	c0.3,0.3,0.6,0.4,1,0.4C234.7,44.8,235.2,44.5,235.6,44.1z"/>
<path class="st0" d="M246.4,34.2v1.7c0.5-0.6,1.2-1.1,1.9-1.5c0.6-0.3,1.3-0.5,1.9-0.5c0.7,0,1.5,0.2,2.1,0.7c0.5,0.4,0.9,1,1.1,1.7
	c0.2,1,0.3,2,0.2,3v5c-0.1,0.6,0,1.3,0.3,1.8c0.3,0.3,0.7,0.5,1.1,0.5V47h-6.5v-0.5c0.4,0,0.8-0.3,1-0.6c0.2-0.5,0.3-1.1,0.2-1.7
	v-5.7c0-0.7,0-1.3-0.1-2c-0.1-0.3-0.2-0.5-0.4-0.6c-0.2-0.2-0.4-0.2-0.6-0.2c-0.8,0-1.5,0.6-2.2,1.7v6.8c-0.1,0.6,0,1.2,0.3,1.8
	c0.2,0.3,0.6,0.5,1,0.5V47h-6.5v-0.5c0.4,0,0.9-0.2,1.1-0.5c0.2-0.6,0.3-1.2,0.2-1.8V37c0.1-0.6,0-1.2-0.3-1.8
	c-0.3-0.3-0.7-0.5-1.1-0.5v-0.5H246.4z"/>
<path class="st0" d="M279.3,28v6.5h-0.5c-0.5-1.6-1.5-3-2.8-4.1c-1.1-0.9-2.5-1.4-4-1.4c-1.3,0-2.5,0.4-3.5,1.2c-1,0.9-1.7,2-2,3.3
	c-0.4,1.4-0.6,2.8-0.6,4.3c0,1.6,0.2,3.2,0.6,4.7c0.3,1.2,1,2.3,2,3c1,0.6,2.2,1,3.3,0.9c0.5,0,0.9,0,1.4-0.1s1-0.2,1.4-0.4V42
	c0-0.5,0-1-0.1-1.4c-0.1-0.3-0.4-0.5-0.6-0.6c-0.4-0.2-0.7-0.3-1.1-0.3h-0.5v-0.5h9v0.5c-0.5,0-0.9,0.1-1.3,0.3
	c-0.3,0.2-0.5,0.4-0.6,0.7c-0.1,0.4-0.1,0.9-0.1,1.3v3.9c-1.2,0.5-2.4,0.9-3.7,1.2c-1.3,0.3-2.7,0.4-4,0.4c-1.5,0-3-0.2-4.4-0.7
	c-1.1-0.5-2.2-1.1-3.1-1.9c-0.9-0.7-1.6-1.6-2.1-2.6c-0.7-1.3-1-2.8-1-4.2c-0.1-2.7,1-5.2,2.9-7.1c2-1.9,4.6-3,7.4-2.9
	c0.8,0,1.7,0.1,2.5,0.2c0.7,0.2,1.3,0.4,2,0.6c0.5,0.2,1,0.4,1.6,0.5c0.3,0,0.5-0.1,0.7-0.3c0.3-0.3,0.5-0.7,0.6-1.1L279.3,28z"/>
<path class="st0" d="M287.3,33.8c1.1,0,2.2,0.3,3.1,0.9c1,0.6,1.7,1.4,2.2,2.5s0.8,2.3,0.8,3.5c0.1,1.6-0.4,3.2-1.4,4.5
	c-1.1,1.5-2.8,2.3-4.6,2.2c-1.7,0.1-3.4-0.6-4.4-2c-1-1.3-1.6-3-1.6-4.7s0.5-3.4,1.6-4.8C284,34.5,285.6,33.8,287.3,33.8z
	 M287.4,34.8c-0.5,0-0.9,0.2-1.2,0.5c-0.4,0.6-0.7,1.3-0.7,2.1c-0.1,1-0.2,2.5-0.2,4.3c0,0.9,0.1,1.8,0.2,2.7
	c0.1,0.5,0.3,1.1,0.6,1.5c0.3,0.3,0.7,0.5,1.1,0.5s0.7-0.1,1-0.3c0.4-0.3,0.6-0.8,0.7-1.3c0.2-1.7,0.3-3.5,0.3-5.3
	c0-1.1,0-2.1-0.3-3.2c-0.1-0.5-0.4-0.9-0.8-1.3C288,34.9,287.7,34.8,287.4,34.8L287.4,34.8z"/>
<path class="st0" d="M299.7,47.4l-4.3-9.9c-0.3-0.8-0.7-1.6-1.2-2.3c-0.2-0.3-0.6-0.4-0.9-0.5v-0.5h6.8v0.5c-0.3,0-0.6,0-0.9,0.2
	c-0.2,0.2-0.3,0.4-0.3,0.7c0.1,0.7,0.3,1.3,0.6,1.9l2.1,4.8l1.7-4.1c0.4-0.8,0.6-1.6,0.7-2.5c0-0.3-0.1-0.5-0.3-0.7
	c-0.3-0.2-0.7-0.3-1.1-0.3v-0.5h4.2v0.5c-0.4,0-0.7,0.2-1,0.5c-0.5,0.7-0.9,1.4-1.1,2.2l-4.3,10L299.7,47.4z"/>
<path class="st0" d="M317.3,40.1h-7c0,1.4,0.5,2.9,1.4,4c0.5,0.7,1.4,1.1,2.3,1.1c0.5,0,1.1-0.2,1.5-0.5c0.6-0.5,1.1-1,1.4-1.7
	l0.5,0.3c-0.5,1.2-1.3,2.2-2.3,3c-0.9,0.6-1.9,0.9-2.9,0.9c-1.7,0.1-3.4-0.7-4.3-2.2c-0.8-1.3-1.2-2.8-1.2-4.4
	c-0.1-1.9,0.5-3.7,1.7-5.1c1-1.2,2.5-1.9,4-1.9c1.3,0,2.5,0.6,3.4,1.6C316.8,36.7,317.4,38.4,317.3,40.1z M314,39.2c0-1,0-2-0.2-3
	c-0.1-0.5-0.4-0.9-0.8-1.2c-0.2-0.2-0.5-0.3-0.8-0.3c-0.5,0-0.9,0.3-1.2,0.7c-0.6,1-0.9,2.2-0.8,3.3v0.5H314z"/>
<path class="st0" d="M322.8,34.2v2.9c0.6-1,1.3-1.9,2.2-2.6c0.5-0.4,1.2-0.6,1.9-0.7c0.5,0,0.9,0.1,1.2,0.5c0.3,0.4,0.5,0.8,0.5,1.3
	s-0.1,1-0.4,1.4c-0.3,0.3-0.7,0.5-1.1,0.5c-0.5,0-0.9-0.2-1.3-0.5c-0.2-0.2-0.4-0.4-0.6-0.5c-0.1-0.1-0.2-0.1-0.3-0.1
	c-0.3,0-0.5,0.1-0.8,0.3c-0.4,0.4-0.7,0.8-0.9,1.3c-0.3,0.9-0.5,1.9-0.4,2.9v3.7c0,0.3,0,0.7,0.1,1c0.1,0.2,0.3,0.4,0.5,0.5
	c0.3,0.1,0.7,0.2,1.1,0.2V47h-6.9v-0.5c0.4,0,0.8-0.2,1.1-0.5c0.2-0.7,0.3-1.4,0.2-2v-7.1c0-0.5,0-0.9-0.1-1.4
	c-0.1-0.2-0.2-0.4-0.4-0.6c-0.3-0.2-0.6-0.2-0.9-0.3v-0.5L322.8,34.2z"/>
<path class="st0" d="M333.8,34.2v1.7c0.5-0.6,1.2-1.1,1.9-1.5c0.6-0.3,1.3-0.5,1.9-0.5c0.7,0,1.5,0.2,2.1,0.7c0.5,0.4,0.9,1,1.1,1.7
	c0.2,1,0.3,2,0.2,3v5c-0.1,0.6,0,1.3,0.3,1.8c0.3,0.3,0.7,0.5,1.1,0.5V47h-6.5v-0.5c0.4,0,0.8-0.3,1-0.6c0.2-0.5,0.3-1.1,0.2-1.7
	v-5.7c0-0.7,0-1.3-0.1-2c-0.1-0.3-0.2-0.5-0.4-0.6c-0.2-0.2-0.4-0.2-0.6-0.2c-0.8,0-1.5,0.6-2.2,1.7v6.8c-0.1,0.6,0,1.3,0.3,1.8
	c0.2,0.3,0.6,0.5,1,0.5V47h-6.5v-0.5c0.4,0,0.9-0.2,1.1-0.5c0.2-0.6,0.3-1.2,0.2-1.8V37c0.1-0.6,0-1.2-0.3-1.8
	c-0.3-0.3-0.7-0.5-1.1-0.5v-0.5H333.8z"/>
<path class="st0" d="M348,34.2v1.7c0.6-0.6,1.2-1.2,2-1.6c0.6-0.3,1.3-0.5,2-0.5s1.4,0.2,2.1,0.6c0.6,0.4,1,1,1.3,1.8
	c0.6-0.7,1.3-1.3,2.1-1.8c0.6-0.4,1.4-0.5,2.1-0.5c0.8,0,1.5,0.2,2.1,0.6c0.5,0.4,0.9,1,1,1.6c0.2,1,0.4,2,0.3,3v5.2
	c-0.1,0.6,0,1.3,0.3,1.8c0.3,0.3,0.7,0.5,1.1,0.5V47h-6.6v-0.5c0.5,0,0.9-0.2,1.1-0.6c0.2-0.5,0.3-1.1,0.3-1.7v-5.5
	c0-0.7,0-1.5-0.1-2.2c-0.1-0.3-0.2-0.5-0.4-0.7c-0.2-0.2-0.4-0.2-0.7-0.2c-0.4,0-0.9,0.2-1.2,0.4c-0.5,0.4-0.9,0.8-1.2,1.3v6.9
	c-0.1,0.6,0,1.2,0.2,1.7c0.3,0.4,0.7,0.6,1.2,0.6V47h-6.6v-0.5c0.3,0,0.6-0.1,0.8-0.3c0.2-0.1,0.3-0.3,0.4-0.6
	c0.1-0.5,0.1-1,0.1-1.5v-5.5c0-0.7,0-1.5-0.1-2.2c-0.1-0.3-0.2-0.5-0.5-0.7c-0.2-0.2-0.4-0.2-0.7-0.3c-0.4,0-0.7,0.1-1,0.3
	c-0.5,0.4-1,0.9-1.4,1.4V44c0,0.6,0.1,1.2,0.3,1.8c0.3,0.3,0.7,0.5,1.1,0.5V47h-6.6v-0.5c0.4,0,0.9-0.2,1.2-0.5
	c0.2-0.6,0.3-1.2,0.2-1.8V37c0.1-0.6,0-1.2-0.3-1.8c-0.3-0.3-0.7-0.5-1.1-0.5v-0.5H348z"/>
<path class="st0" d="M375.5,40.1h-7c0,1.4,0.5,2.9,1.4,4c0.5,0.7,1.4,1.1,2.3,1.1c0.5,0,1.1-0.2,1.5-0.5c0.6-0.4,1-1,1.4-1.6
	l0.5,0.3c-0.5,1.2-1.3,2.2-2.3,3c-0.9,0.6-1.9,0.9-2.9,0.9c-1.7,0.1-3.3-0.8-4.3-2.2c-0.8-1.3-1.2-2.8-1.2-4.4
	c-0.1-1.9,0.5-3.7,1.7-5.1c1-1.2,2.5-1.9,4-1.9c1.3,0,2.5,0.6,3.4,1.6C375,36.8,375.5,38.4,375.5,40.1z M372.1,39.2c0-1,0-2-0.2-3
	c-0.1-0.5-0.4-0.9-0.8-1.2c-0.2-0.2-0.5-0.3-0.8-0.3c-0.5,0-0.9,0.3-1.2,0.7c-0.6,1-0.9,2.2-0.8,3.3v0.5H372.1z"/>
<path class="st0" d="M380.9,34.2v1.7c0.5-0.6,1.2-1.1,1.9-1.5c0.6-0.3,1.3-0.5,1.9-0.5c0.7,0,1.5,0.2,2.1,0.7c0.5,0.4,0.9,1,1.1,1.7
	c0.2,1,0.3,2,0.2,3v5c-0.1,0.6,0,1.3,0.3,1.8c0.3,0.3,0.7,0.5,1.1,0.5V47H383v-0.5c0.4,0,0.8-0.3,1-0.6c0.2-0.5,0.3-1.1,0.2-1.7
	v-5.7c0-0.7,0-1.3-0.1-2c-0.1-0.3-0.2-0.5-0.4-0.6c-0.2-0.2-0.4-0.2-0.6-0.2c-0.8,0-1.5,0.6-2.2,1.7v6.8c-0.1,0.6,0,1.2,0.3,1.8
	c0.2,0.3,0.6,0.5,1,0.5V47h-6.4v-0.5c0.4,0,0.9-0.2,1.1-0.5c0.2-0.6,0.3-1.2,0.2-1.8V37c0.1-0.6,0-1.2-0.3-1.8
	c-0.3-0.3-0.7-0.5-1.1-0.5v-0.5H380.9z"/>
<path class="st0" d="M394.9,29.5v4.7h3v1.3h-3v7.9c0,0.5,0,1,0.1,1.4c0.1,0.2,0.2,0.4,0.4,0.5c0.1,0.1,0.3,0.2,0.5,0.2
	c0.6,0,1.2-0.4,1.7-1.3l0.4,0.3c-0.5,1.6-2,2.6-3.6,2.6c-0.7,0-1.5-0.2-2.1-0.7c-0.5-0.4-0.9-0.9-1.1-1.5c-0.1-0.8-0.2-1.7-0.1-2.5
	v-6.9h-1.7V35c1.1-0.7,2.1-1.6,2.9-2.6c0.8-0.9,1.5-1.9,2.1-3L394.9,29.5z"/>
<path class="st0" d="M141.1,87v-0.5h0.6c0.4,0,0.8-0.1,1.1-0.2s0.5-0.4,0.6-0.6c0.1-0.5,0.1-1.1,0.1-1.6V72.7c0-0.6,0-1.1-0.1-1.7
	c-0.1-0.2-0.3-0.5-0.6-0.6c-0.4-0.2-0.8-0.3-1.1-0.3h-0.6v-0.5h7.7c1.7-0.1,3.4,0.2,5,0.8c1.5,0.6,2.7,1.7,3.5,3.1
	c1.3,2.5,1.6,5.4,0.6,8.1c-0.3,0.9-0.8,1.8-1.5,2.5c-0.6,0.7-1.3,1.2-2.1,1.6c-1,0.4-2,0.8-3,0.9c-0.8,0.1-1.6,0.2-2.4,0.2L141.1,87
	z M147.7,70.8v13.4c0,0.4,0,0.9,0.1,1.3c0.1,0.2,0.2,0.3,0.3,0.4c0.3,0.1,0.7,0.2,1,0.2c1.3,0.1,2.5-0.5,3.2-1.4
	c1-1.3,1.5-3.4,1.5-6.1c0.1-1.8-0.3-3.6-1-5.3c-0.4-0.9-1.2-1.7-2.1-2.1C149.8,70.8,148.8,70.7,147.7,70.8L147.7,70.8z"/>
<path class="st0" d="M169.2,80.6h-6.5c0,1.4,0.5,2.7,1.3,3.7c0.5,0.7,1.3,1,2.1,1.1c0.5,0,1-0.1,1.4-0.4c0.5-0.4,1-0.9,1.3-1.5
	l0.4,0.3c-0.5,1.1-1.2,2.1-2.1,2.8c-0.8,0.6-1.7,0.8-2.7,0.8c-1.6,0.1-3.1-0.7-4-2c-0.8-1.2-1.1-2.6-1.1-4.1
	c-0.1-1.7,0.5-3.4,1.6-4.7c0.9-1.1,2.3-1.7,3.8-1.8c1.2,0,2.4,0.5,3.1,1.5C168.8,77.5,169.3,79,169.2,80.6z M166.1,79.8
	c0-0.9,0-1.9-0.2-2.8c-0.1-0.4-0.3-0.9-0.7-1.2c-0.2-0.2-0.5-0.2-0.7-0.2c-0.5,0-0.9,0.3-1.1,0.7c-0.5,0.9-0.8,2-0.8,3.1v0.4H166.1z
	"/>
<path class="st0" d="M174,85.8v4.4c0,0.4,0,0.8,0.1,1.2c0.1,0.2,0.2,0.4,0.4,0.5c0.4,0.1,0.8,0.2,1.2,0.2v0.5H169v-0.5
	c0.4,0,0.9-0.1,1.2-0.4c0.2-0.5,0.3-1,0.3-1.5V77.6c0.1-0.6,0-1.1-0.3-1.6c-0.3-0.3-0.7-0.4-1.1-0.4v-0.5h5v1.6
	c0.3-0.5,0.8-1,1.3-1.3c0.6-0.4,1.3-0.6,2-0.6c0.9,0,1.7,0.3,2.4,0.8c0.7,0.6,1.3,1.4,1.6,2.3c0.4,1,0.6,2.1,0.6,3.1
	c0,1.1-0.2,2.2-0.6,3.3c-0.3,0.9-0.9,1.7-1.7,2.3c-0.7,0.5-1.6,0.8-2.4,0.8c-0.6,0-1.3-0.1-1.8-0.4C174.8,86.6,174.4,86.2,174,85.8z
	 M174,84.5c0.5,0.9,1.4,1.4,2.3,1.5c0.5,0,0.9-0.3,1.1-0.7c0.5-1.3,0.8-2.7,0.7-4.1c0.1-1.4-0.1-2.9-0.7-4.2
	c-0.3-0.5-0.8-0.8-1.3-0.8c-0.9,0-1.6,0.6-2.1,1.8V84.5z"/>
<path class="st0" d="M189.1,85.2c-1,1.1-2.4,1.8-3.9,1.9c-0.6,0-1.2-0.2-1.7-0.7c-0.4-0.4-0.7-1-0.7-1.7c0-0.9,0.4-1.8,1.1-2.4
	c1.6-1.2,3.3-2.2,5.1-2.9v-1.2c0-0.6,0-1.1-0.1-1.7c-0.1-0.3-0.3-0.5-0.6-0.6c-0.3-0.2-0.6-0.3-0.9-0.3c-0.5,0-1,0.1-1.4,0.4
	c-0.2,0.1-0.3,0.3-0.3,0.5c0,0.3,0.2,0.5,0.4,0.7c0.3,0.3,0.5,0.7,0.5,1.1s-0.2,0.8-0.5,1.1c-0.3,0.3-0.8,0.5-1.2,0.4
	c-0.5,0-1-0.2-1.3-0.5s-0.5-0.7-0.5-1.1c0-0.7,0.3-1.3,0.7-1.8c0.5-0.6,1.2-1,2-1.3c0.9-0.3,1.8-0.4,2.7-0.4s1.9,0.2,2.7,0.7
	c0.6,0.4,1,0.9,1.3,1.5c0.2,0.8,0.2,1.6,0.2,2.4v4.6c0,0.3,0,0.7,0.1,1c0,0.1,0.1,0.2,0.2,0.3c0.1,0.1,0.2,0.1,0.3,0.1
	c0.2,0,0.4-0.2,0.7-0.5l0.4,0.3c-0.3,0.5-0.8,1-1.3,1.4c-0.5,0.3-1,0.4-1.5,0.4c-0.6,0-1.1-0.1-1.6-0.5
	C189.4,86.3,189.2,85.8,189.1,85.2z M189.1,84.3v-4c-0.9,0.5-1.7,1.1-2.3,1.9c-0.3,0.4-0.5,0.9-0.5,1.4c0,0.4,0.2,0.7,0.4,1
	c0.2,0.2,0.6,0.4,0.9,0.3C188.2,84.9,188.7,84.7,189.1,84.3z"/>
<path class="st0" d="M199.2,75.1v2.7c0.5-0.9,1.2-1.8,2.1-2.4c0.5-0.4,1.1-0.6,1.7-0.6c0.4,0,0.8,0.1,1.1,0.4s0.5,0.8,0.4,1.2
	c0,0.5-0.1,0.9-0.4,1.3c-0.2,0.3-0.6,0.5-1,0.5s-0.8-0.1-1.2-0.4c-0.2-0.2-0.4-0.3-0.6-0.5c-0.1-0.1-0.2-0.1-0.3-0.1
	c-0.3,0-0.5,0.1-0.7,0.3c-0.4,0.3-0.6,0.8-0.8,1.2c-0.3,0.9-0.4,1.8-0.4,2.7v3.4c0,0.3,0,0.6,0.1,0.9c0.1,0.2,0.2,0.4,0.4,0.5
	c0.3,0.1,0.7,0.2,1,0.2V87h-6.4v-0.5c0.4,0,0.7-0.2,1-0.4c0.2-0.6,0.3-1.3,0.3-1.9v-6.6c0-0.4,0-0.9-0.1-1.3
	c-0.1-0.2-0.2-0.4-0.4-0.5c-0.3-0.1-0.6-0.2-0.9-0.2v-0.5H199.2z"/>
<path class="st0" d="M209.2,70.8v4.3h2.8v1.3h-2.8v7.3c0,0.4,0,0.9,0.1,1.3c0.1,0.2,0.2,0.4,0.3,0.5s0.3,0.2,0.4,0.2
	c0.6,0,1.1-0.4,1.6-1.3l0.4,0.3c-0.5,1.5-1.8,2.5-3.3,2.4c-0.7,0-1.4-0.2-1.9-0.6c-0.5-0.3-0.8-0.8-1-1.4c-0.1-0.8-0.2-1.6-0.1-2.3
	v-6.4h-1.6V76c1-0.7,1.9-1.5,2.7-2.4c0.8-0.8,1.4-1.8,2-2.8H209.2z"/>
<path class="st0" d="M216.8,75.1v1.6c0.5-0.6,1.1-1.1,1.8-1.5c0.6-0.3,1.2-0.4,1.8-0.4c0.7,0,1.3,0.2,1.9,0.5c0.6,0.4,1,1,1.2,1.6
	c0.6-0.7,1.2-1.2,1.9-1.7c0.6-0.3,1.3-0.5,1.9-0.5c0.7,0,1.4,0.2,2,0.6c0.5,0.4,0.8,0.9,1,1.4c0.2,0.9,0.3,1.8,0.3,2.8v4.9
	c-0.1,0.6,0,1.2,0.3,1.7c0.3,0.3,0.6,0.4,1,0.4V87h-6.1v-0.5c0.4,0,0.8-0.2,1.1-0.5c0.2-0.5,0.3-1,0.2-1.6v-5.1c0-0.7,0-1.3-0.1-2
	c-0.1-0.3-0.2-0.5-0.4-0.6s-0.4-0.2-0.6-0.2c-0.4,0-0.8,0.2-1.1,0.4c-0.4,0.3-0.8,0.7-1.1,1.2v6.4c0,0.5,0,1.1,0.2,1.6
	c0.3,0.3,0.7,0.5,1.1,0.5V87H219v-0.5c0.3,0,0.6-0.1,0.8-0.3c0.2-0.1,0.3-0.3,0.4-0.5c0.1-0.4,0.1-0.9,0.1-1.3v-5.1
	c0-0.7,0-1.3-0.1-2c-0.1-0.2-0.2-0.5-0.4-0.6s-0.4-0.2-0.6-0.2c-0.3,0-0.7,0.1-0.9,0.3c-0.5,0.3-0.9,0.8-1.3,1.3v6.4
	c-0.1,0.6,0,1.1,0.2,1.6c0.2,0.3,0.6,0.5,1,0.5V87h-6.1v-0.5c0.4,0,0.8-0.2,1.1-0.5c0.2-0.5,0.3-1.1,0.2-1.7v-6.7
	c0.1-0.6,0-1.1-0.2-1.7c-0.3-0.3-0.6-0.4-1-0.4V75L216.8,75.1L216.8,75.1z"/>
<path class="st0" d="M242.3,80.6h-6.5c0,1.3,0.4,2.7,1.2,3.7c0.5,0.7,1.3,1,2.1,1.1c0.5,0,1-0.1,1.4-0.4c0.5-0.4,1-0.9,1.3-1.5
	l0.4,0.3c-0.5,1.1-1.2,2.1-2.1,2.8c-0.8,0.6-1.7,0.8-2.7,0.8c-1.6,0.1-3.1-0.7-4-2c-0.8-1.2-1.1-2.6-1.1-4.1
	c-0.1-1.7,0.5-3.5,1.7-4.8c0.9-1.1,2.3-1.7,3.8-1.8c1.2,0,2.4,0.5,3.1,1.5C241.8,77.5,242.3,79,242.3,80.6z M239.2,79.8
	c0-0.9,0-1.9-0.2-2.8c-0.1-0.4-0.3-0.9-0.7-1.2c-0.2-0.2-0.5-0.2-0.7-0.2c-0.5,0-0.9,0.3-1.1,0.7c-0.5,0.9-0.8,2-0.8,3.1v0.4H239.2z
	"/>
<path class="st0" d="M247.3,75.1v1.5c0.5-0.6,1.1-1.1,1.8-1.4c0.6-0.3,1.2-0.5,1.8-0.4c0.7,0,1.4,0.2,1.9,0.6s0.8,1,1,1.6
	c0.2,0.9,0.2,1.8,0.2,2.8v4.6c-0.1,0.6,0,1.2,0.3,1.7c0.3,0.3,0.6,0.4,1,0.4V87h-6v-0.5c0.4,0,0.8-0.2,1-0.6c0.2-0.5,0.2-1,0.2-1.6
	V79c0-0.6,0-1.2-0.1-1.8c-0.1-0.2-0.2-0.4-0.4-0.6c-0.2-0.1-0.4-0.2-0.6-0.2c-0.7,0-1.4,0.5-2,1.6v6.4c-0.1,0.6,0,1.2,0.3,1.7
	c0.2,0.3,0.6,0.4,0.9,0.4V87h-6v-0.5c0.4,0,0.8-0.2,1.1-0.5c0.2-0.5,0.3-1.1,0.2-1.7v-6.7c0.1-0.6,0-1.1-0.3-1.7
	c-0.3-0.3-0.6-0.4-1-0.4V75L247.3,75.1L247.3,75.1z"/>
<path class="st0" d="M260.3,70.8v4.3h2.8v1.3h-2.8v7.3c0,0.4,0,0.9,0.1,1.3c0.1,0.2,0.2,0.4,0.3,0.5c0.1,0.1,0.3,0.2,0.4,0.2
	c0.5,0,1.1-0.4,1.6-1.3l0.4,0.3c-0.5,1.5-1.8,2.5-3.3,2.4c-0.7,0-1.4-0.2-1.9-0.6c-0.5-0.3-0.8-0.8-1-1.4c-0.1-0.8-0.2-1.6-0.1-2.3
	v-6.4h-1.5V76c1-0.7,1.9-1.5,2.7-2.4c0.8-0.8,1.4-1.8,2-2.8H260.3z"/>
<path class="st0" d="M273.8,74.8c1,0,2,0.3,2.9,0.8s1.6,1.3,2,2.3c0.5,1,0.7,2.1,0.7,3.2c0.1,1.5-0.4,3-1.3,4.2
	c-1,1.4-2.6,2.1-4.3,2.1c-1.6,0.1-3.1-0.6-4.1-1.9c-1-1.2-1.5-2.8-1.5-4.3c0-1.6,0.5-3.2,1.5-4.4C270.7,75.4,272.2,74.7,273.8,74.8z
	 M273.8,75.7c-0.4,0-0.8,0.2-1.1,0.5c-0.4,0.6-0.6,1.2-0.6,1.9c-0.1,1-0.1,2.3-0.1,4c0,0.8,0.1,1.7,0.2,2.5c0.1,0.5,0.3,1,0.6,1.4
	c0.3,0.3,0.6,0.5,1,0.5s0.7-0.1,1-0.3c0.3-0.3,0.6-0.7,0.7-1.2c0.2-1.6,0.3-3.2,0.3-4.9c0-1,0-2-0.2-3c-0.1-0.5-0.4-0.9-0.7-1.2
	C274.4,75.7,274.1,75.6,273.8,75.7z"/>
<path class="st0" d="M285.1,76.3v8.2c-0.1,0.5,0,1,0.3,1.5c0.4,0.4,1,0.5,1.5,0.4V87h-7v-0.5c0.4,0,0.8,0,1.1-0.2
	c0.2-0.1,0.4-0.3,0.5-0.5c0.1-0.4,0.2-0.8,0.1-1.3v-8.3h-1.7v-1.3h1.7v-1.5c0-1.1,0.5-2.2,1.3-3c1-0.9,2.3-1.3,3.6-1.2
	c0.8-0.1,1.6,0.1,2.3,0.6c0.4,0.3,0.7,0.8,0.8,1.3c0,0.4-0.2,0.8-0.5,1c-0.3,0.3-0.8,0.4-1.2,0.4c-0.4,0-0.7-0.1-1-0.3
	c-0.2-0.2-0.4-0.5-0.4-0.8c0-0.2,0-0.3,0.1-0.5c0-0.1,0-0.3,0-0.4s0-0.3-0.1-0.4s-0.3-0.2-0.5-0.2s-0.5,0.1-0.6,0.3
	c-0.2,0.3-0.3,0.6-0.3,1v2.2v1.4h1.8V76L285.1,76.3z"/>
<path class="st0" d="M314.8,69.8v0.5c-0.7,0.1-1.3,0.5-1.7,1c-0.6,0.9-1.2,1.9-1.6,3l-5.9,13.2h-0.4l-5.9-13.7c-0.4-1-0.9-2-1.4-2.9
	c-0.4-0.4-0.9-0.5-1.4-0.6v-0.5h8.3v0.5h-0.3c-0.5,0-1,0.1-1.5,0.3c-0.2,0.1-0.3,0.3-0.3,0.6c0,0.2,0,0.4,0.1,0.5
	c0.1,0.2,0.3,0.8,0.7,1.7l3.7,8.6l3.4-7.6c0.3-0.6,0.5-1.2,0.8-1.8c0.1-0.3,0.1-0.5,0.1-0.8c0-0.2-0.1-0.5-0.2-0.7
	c-0.2-0.2-0.4-0.4-0.6-0.4c-0.5-0.2-1-0.2-1.5-0.2V70L314.8,69.8z"/>
<path class="st0" d="M322.3,80.6h-6.5c0,1.3,0.4,2.7,1.3,3.7c0.5,0.7,1.3,1,2.1,1.1c0.5,0,1-0.1,1.4-0.4c0.5-0.4,1-0.9,1.3-1.5
	l0.4,0.3c-0.5,1.1-1.2,2.1-2.1,2.8c-0.8,0.6-1.7,0.8-2.7,0.8c-1.6,0.1-3.1-0.7-4-2c-0.8-1.2-1.1-2.6-1.1-4.1
	c-0.1-1.7,0.5-3.4,1.6-4.8c0.9-1.1,2.3-1.7,3.8-1.8c1.2,0,2.4,0.5,3.1,1.5C321.9,77.5,322.4,79,322.3,80.6z M319.2,79.8
	c0-0.9,0-1.9-0.2-2.8c-0.1-0.4-0.3-0.9-0.7-1.2c-0.2-0.2-0.5-0.2-0.7-0.2c-0.5,0-0.9,0.3-1.1,0.7c-0.5,0.9-0.8,2-0.8,3.1v0.4H319.2z
	"/>
<path class="st0" d="M327.2,70.8v4.3h2.8v1.3h-2.8v7.3c0,0.4,0,0.9,0.1,1.3c0.1,0.2,0.2,0.4,0.3,0.5c0.1,0.1,0.3,0.2,0.4,0.2
	c0.5,0,1.1-0.4,1.6-1.3l0.4,0.3c-0.5,1.5-1.8,2.5-3.3,2.4c-0.7,0-1.4-0.2-1.9-0.6c-0.5-0.3-0.8-0.8-1-1.4c-0.1-0.8-0.2-1.6-0.1-2.3
	v-6.4h-1.5V76c1-0.7,1.9-1.5,2.7-2.4c0.8-0.8,1.4-1.8,2-2.8H327.2z"/>
<path class="st0" d="M339.9,80.6h-6.5c0,1.3,0.4,2.7,1.3,3.7c0.5,0.7,1.3,1,2.1,1.1c0.5,0,1-0.1,1.4-0.4c0.5-0.4,1-0.9,1.3-1.5
	l0.4,0.3c-0.5,1.1-1.2,2.1-2.1,2.8c-0.8,0.6-1.7,0.8-2.7,0.8c-1.6,0.1-3.1-0.7-4-2c-0.8-1.2-1.1-2.6-1.1-4.1
	c-0.1-1.7,0.5-3.4,1.6-4.7c0.9-1.1,2.3-1.7,3.8-1.8c1.2,0,2.4,0.5,3.1,1.5C339.5,77.5,340,79,339.9,80.6z M336.8,79.8
	c0-0.9,0-1.9-0.2-2.8c-0.1-0.4-0.3-0.9-0.7-1.2c-0.2-0.2-0.5-0.2-0.7-0.2c-0.5,0-0.9,0.3-1.1,0.7c-0.5,0.9-0.8,2-0.8,3.1v0.4H336.8z
	"/>
<path class="st0" d="M345,75.1v2.7c0.5-0.9,1.2-1.8,2.1-2.4c0.5-0.4,1.1-0.6,1.7-0.6c0.4,0,0.8,0.1,1.1,0.4c0.3,0.3,0.5,0.8,0.4,1.2
	c0,0.5-0.1,0.9-0.4,1.3c-0.2,0.3-0.6,0.5-1,0.5s-0.8-0.1-1.2-0.4c-0.2-0.2-0.4-0.3-0.6-0.5c-0.1-0.1-0.2-0.1-0.3-0.1
	c-0.3,0-0.5,0.1-0.7,0.3c-0.4,0.3-0.6,0.8-0.8,1.2c-0.3,0.9-0.4,1.8-0.4,2.7v3.4c0,0.3,0,0.6,0.1,0.9c0.1,0.2,0.2,0.4,0.5,0.5
	s0.7,0.2,1,0.2V87h-6.4v-0.5c0.4,0,0.7-0.2,1-0.4c0.2-0.6,0.3-1.3,0.3-1.9v-6.6c0-0.4,0-0.9-0.1-1.3c-0.1-0.2-0.2-0.4-0.4-0.5
	c-0.3-0.1-0.6-0.2-0.9-0.2v-0.5H345z"/>
<path class="st0" d="M356.9,85.2c-1,1.1-2.4,1.8-3.9,1.9c-0.6,0-1.2-0.2-1.7-0.7c-0.4-0.4-0.7-1-0.7-1.7c0-0.9,0.4-1.8,1.2-2.4
	c1.6-1.2,3.3-2.2,5.1-2.9v-1.2c0-0.6,0-1.1-0.1-1.7c-0.1-0.3-0.3-0.5-0.5-0.6c-0.3-0.2-0.6-0.3-0.9-0.3c-0.5,0-1,0.1-1.4,0.4
	c-0.2,0.1-0.3,0.3-0.3,0.5c0,0.3,0.2,0.5,0.4,0.7c0.3,0.3,0.5,0.7,0.5,1.1s-0.2,0.8-0.5,1.1c-0.3,0.3-0.8,0.5-1.2,0.4
	c-0.5,0-1-0.2-1.3-0.5s-0.5-0.7-0.5-1.1c0-0.7,0.3-1.3,0.7-1.8c0.5-0.6,1.2-1,2-1.3c0.9-0.3,1.8-0.4,2.7-0.4c0.9,0,1.9,0.2,2.7,0.7
	c0.6,0.4,1,0.9,1.3,1.5c0.2,0.8,0.2,1.6,0.2,2.4v4.6c0,0.3,0,0.7,0.1,1c0,0.1,0.1,0.2,0.2,0.3c0.1,0.1,0.2,0.1,0.3,0.1
	c0.2,0,0.4-0.2,0.7-0.5l0.4,0.3c-0.3,0.5-0.8,1-1.3,1.4c-0.5,0.3-1,0.4-1.5,0.4c-0.6,0-1.1-0.1-1.6-0.5
	C357.2,86.3,356.9,85.8,356.9,85.2z M356.9,84.3v-4c-0.9,0.5-1.7,1.1-2.3,1.9c-0.3,0.4-0.5,0.9-0.5,1.4c0,0.4,0.2,0.7,0.4,1
	c0.2,0.2,0.6,0.4,0.9,0.3C356,84.9,356.5,84.7,356.9,84.3z"/>
<path class="st0" d="M366.9,75.1v1.5c0.5-0.6,1.1-1.1,1.8-1.4c0.6-0.3,1.2-0.5,1.8-0.4c0.7,0,1.4,0.2,1.9,0.6s0.8,1,1,1.6
	c0.2,0.9,0.2,1.8,0.2,2.8v4.6c-0.1,0.6,0,1.2,0.3,1.7c0.3,0.3,0.6,0.4,1,0.4V87h-6v-0.5c0.4,0,0.8-0.2,1-0.6c0.2-0.5,0.2-1,0.2-1.6
	V79c0-0.6,0-1.2-0.1-1.8c-0.1-0.2-0.2-0.4-0.4-0.6c-0.2-0.1-0.4-0.2-0.6-0.2c-0.7,0-1.4,0.5-2,1.6v6.4c-0.1,0.6,0,1.2,0.3,1.7
	c0.2,0.3,0.6,0.4,0.9,0.4V87h-6v-0.5c0.4,0,0.8-0.2,1.1-0.5c0.2-0.5,0.3-1.1,0.2-1.7v-6.7c0.1-0.6,0-1.1-0.3-1.7
	c-0.3-0.3-0.6-0.4-1-0.4V75L366.9,75.1L366.9,75.1z"/>
<path class="st0" d="M382.7,74.8l0.2,4h-0.4c-0.3-0.9-0.9-1.8-1.6-2.5c-0.5-0.4-1-0.6-1.7-0.7c-0.3,0-0.7,0.1-0.9,0.3
	c-0.2,0.2-0.4,0.5-0.4,0.8c0,0.2,0.1,0.5,0.3,0.7c0.7,0.7,1.4,1.3,2.3,1.8c0.9,0.6,1.8,1.3,2.5,2.2c0.4,0.6,0.6,1.3,0.6,2
	s-0.2,1.3-0.5,1.9s-0.8,1.1-1.4,1.5c-0.6,0.3-1.3,0.5-2,0.5c-0.8,0-1.5-0.2-2.3-0.5c-0.2-0.1-0.3-0.1-0.5-0.1
	c-0.3,0-0.5,0.2-0.7,0.6h-0.4l-0.2-4.3h0.4c0.3,1,0.8,1.8,1.6,2.5c0.5,0.5,1.2,0.8,1.9,0.8c0.4,0,0.7-0.1,1-0.4
	c0.3-0.2,0.4-0.6,0.4-0.9c0-0.4-0.1-0.8-0.4-1.1c-0.5-0.5-1.1-1-1.7-1.3c-0.9-0.6-1.8-1.3-2.5-2.1c-0.5-0.6-0.8-1.5-0.8-2.3
	c0-0.9,0.3-1.8,1-2.5s1.7-1.1,2.7-1.1c0.7,0,1.3,0.2,1.9,0.5c0.2,0.1,0.4,0.2,0.6,0.2c0.1,0,0.3,0,0.4-0.1c0.2-0.2,0.3-0.3,0.4-0.5
	L382.7,74.8z"/>
<path class="st0" d="M385.5,77.8v-0.6c0.9-0.3,1.6-0.9,2.1-1.6c0.4-0.6,0.7-1.3,0.7-2.1c0-0.1,0-0.2-0.1-0.3c0-0.1-0.1-0.1-0.2-0.1
	s-0.2,0-0.2,0.1c-0.3,0.2-0.6,0.2-0.9,0.2c-0.5,0-1-0.2-1.3-0.6c-0.4-0.4-0.6-0.9-0.5-1.4c0-0.6,0.2-1.1,0.6-1.5s1-0.6,1.5-0.6
	c0.7,0,1.4,0.3,1.9,0.8c0.5,0.6,0.8,1.5,0.8,2.3c0,1.2-0.4,2.3-1.1,3.2C387.9,76.8,386.8,77.5,385.5,77.8z"/>
<path class="st0" d="M403.1,82.1H397l-0.7,1.7c-0.2,0.4-0.3,0.9-0.4,1.4c0,0.4,0.2,0.9,0.6,1.1c0.5,0.2,1.1,0.3,1.7,0.3V87h-5.7
	v-0.5c0.6-0.1,1.1-0.3,1.5-0.8c0.6-0.8,1.1-1.7,1.5-2.6l6.2-13.7h0.2l6.2,14.1c0.3,0.9,0.8,1.7,1.5,2.5c0.3,0.3,0.8,0.4,1.2,0.5V87
	h-8.3v-0.5h0.3c0.5,0,1-0.1,1.4-0.3c0.2-0.1,0.3-0.4,0.3-0.6s0-0.3-0.1-0.5c0-0.1-0.1-0.4-0.4-1L403.1,82.1z M402.7,81.1l-2.6-5.9
	l-2.6,5.9H402.7z"/>
<path class="st0" d="M415.9,76.3v8.2c-0.1,0.5,0,1,0.3,1.5c0.4,0.4,1,0.5,1.5,0.4V87h-7v-0.5c0.4,0,0.8,0,1.1-0.2
	c0.2-0.1,0.4-0.3,0.5-0.5c0.1-0.4,0.2-0.8,0.1-1.3v-8.3h-1.7v-1.3h1.7v-1.5c0-1.1,0.5-2.2,1.3-3c1-0.9,2.3-1.3,3.6-1.2
	c0.8-0.1,1.6,0.1,2.3,0.6c0.4,0.3,0.7,0.8,0.8,1.3c0,0.4-0.2,0.8-0.5,1c-0.3,0.3-0.8,0.4-1.2,0.4c-0.4,0-0.7-0.1-1-0.3
	c-0.2-0.2-0.4-0.5-0.4-0.8c0-0.2,0-0.3,0.1-0.5c0-0.1,0-0.3,0-0.4s0-0.3-0.1-0.4s-0.3-0.2-0.5-0.2s-0.5,0.1-0.6,0.3
	c-0.2,0.3-0.3,0.6-0.3,1v2.2v1.4h1.8V76L415.9,76.3z"/>
<path class="st0" d="M423.3,76.3v8.2c-0.1,0.5,0,1,0.3,1.5c0.4,0.4,1,0.5,1.5,0.4V87h-7v-0.5c0.4,0,0.8,0,1.1-0.2
	c0.2-0.1,0.4-0.3,0.5-0.5c0.1-0.4,0.2-0.8,0.1-1.3v-8.3H418v-1.3h1.7v-1.5c0-1.1,0.5-2.2,1.3-3c1-0.9,2.3-1.3,3.6-1.2
	c0.8-0.1,1.6,0.1,2.3,0.6c0.4,0.3,0.7,0.8,0.8,1.3c0,0.4-0.2,0.8-0.5,1c-0.3,0.3-0.8,0.4-1.2,0.4c-0.4,0-0.7-0.1-1-0.3
	c-0.2-0.2-0.4-0.5-0.4-0.8c0-0.2,0-0.3,0.1-0.5c0-0.1,0-0.3,0-0.4s0-0.3-0.1-0.4s-0.3-0.2-0.5-0.2s-0.5,0.1-0.6,0.3
	c-0.2,0.3-0.3,0.6-0.3,1v2.2v1.4h1.7V76L423.3,76.3z"/>
<path class="st0" d="M432,85.2c-1,1.1-2.4,1.8-3.9,1.9c-0.6,0-1.2-0.2-1.7-0.7c-0.4-0.4-0.7-1-0.7-1.7c0-0.9,0.4-1.8,1.2-2.4
	c1.6-1.2,3.3-2.2,5.1-2.9v-1.2c0-0.6,0-1.1-0.1-1.7c-0.1-0.3-0.3-0.5-0.5-0.6c-0.3-0.2-0.6-0.3-0.9-0.3c-0.5,0-1,0.1-1.4,0.4
	c-0.2,0.1-0.3,0.3-0.3,0.5c0,0.3,0.2,0.5,0.4,0.7c0.3,0.3,0.5,0.7,0.5,1.1s-0.2,0.8-0.5,1.1c-0.3,0.3-0.8,0.5-1.2,0.4
	c-0.5,0-1-0.2-1.3-0.5s-0.5-0.7-0.5-1.1c0-0.7,0.3-1.3,0.7-1.8c0.5-0.6,1.2-1,2-1.3c0.9-0.3,1.8-0.4,2.7-0.4c0.9,0,1.9,0.2,2.7,0.7
	c0.6,0.4,1,0.9,1.3,1.5c0.2,0.8,0.2,1.6,0.2,2.4v4.6c0,0.3,0,0.7,0.1,1c0,0.1,0.1,0.2,0.2,0.3c0.1,0.1,0.2,0.1,0.3,0.1
	c0.2,0,0.4-0.2,0.7-0.5l0.4,0.3c-0.3,0.5-0.8,1-1.3,1.4c-0.5,0.3-1,0.4-1.5,0.4c-0.6,0-1.1-0.1-1.6-0.5
	C432.2,86.2,432,85.8,432,85.2z M432,84.3v-4c-0.9,0.5-1.7,1.1-2.3,1.9c-0.3,0.4-0.5,0.9-0.5,1.4c0,0.4,0.2,0.7,0.4,1
	c0.2,0.2,0.6,0.4,0.9,0.3C431,84.9,431.5,84.7,432,84.3z"/>
<path class="st0" d="M441.7,75.1v9.4c-0.1,0.6,0,1.1,0.3,1.6c0.3,0.3,0.7,0.4,1.1,0.4V87h-6.4v-0.5c0.4,0,0.9-0.1,1.2-0.5
	c0.2-0.5,0.3-1,0.3-1.6v-6.9c0.1-0.6,0-1.1-0.3-1.6c-0.3-0.3-0.7-0.4-1.1-0.4V75L441.7,75.1L441.7,75.1z M440,69.3c1.1,0,2,0.9,2,2
	s-0.9,2-2,2s-2-0.9-2-2c0-0.5,0.2-1.1,0.6-1.4S439.5,69.3,440,69.3z"/>
<path class="st0" d="M448,75.1v2.7c0.5-0.9,1.2-1.8,2-2.4c0.5-0.4,1.1-0.6,1.7-0.6c0.4,0,0.8,0.1,1.1,0.4c0.3,0.3,0.5,0.8,0.4,1.2
	c0,0.5-0.1,0.9-0.4,1.3c-0.2,0.3-0.6,0.5-1,0.5s-0.8-0.1-1.2-0.4c-0.2-0.2-0.4-0.3-0.6-0.5c-0.1-0.1-0.2-0.1-0.3-0.1
	c-0.3,0-0.5,0.1-0.7,0.3c-0.4,0.3-0.6,0.8-0.8,1.2c-0.3,0.9-0.4,1.8-0.4,2.7v3.4c0,0.3,0,0.6,0.1,0.9c0.1,0.2,0.2,0.4,0.5,0.5
	s0.7,0.2,1,0.2V87H443v-0.5c0.4,0,0.7-0.2,1-0.4c0.2-0.6,0.3-1.3,0.3-1.9v-6.6c0-0.4,0-0.9-0.1-1.3c-0.1-0.2-0.2-0.4-0.4-0.5
	c-0.3-0.1-0.6-0.2-0.9-0.2v-0.5H448z"/>
<path class="st0" d="M460.8,74.8l0.2,4h-0.4c-0.3-0.9-0.9-1.8-1.6-2.5c-0.5-0.4-1-0.6-1.7-0.7c-0.3,0-0.7,0.1-0.9,0.3
	c-0.2,0.2-0.4,0.5-0.4,0.8c0,0.2,0.1,0.5,0.3,0.7c0.7,0.7,1.4,1.3,2.3,1.8c1,0.6,1.8,1.3,2.5,2.2c0.4,0.6,0.6,1.3,0.6,2
	s-0.2,1.3-0.5,1.9s-0.8,1.1-1.4,1.5c-0.6,0.3-1.3,0.5-2,0.5c-0.8,0-1.5-0.2-2.3-0.5c-0.2-0.1-0.3-0.1-0.5-0.1
	c-0.3,0-0.5,0.2-0.7,0.6h-0.4l-0.2-4.3h0.4c0.3,1,0.8,1.8,1.6,2.5c0.5,0.5,1.2,0.8,1.9,0.8c0.4,0,0.7-0.1,1-0.4
	c0.3-0.2,0.4-0.6,0.4-0.9c0-0.4-0.1-0.8-0.4-1.1c-0.5-0.5-1.1-1-1.7-1.3c-0.9-0.6-1.8-1.3-2.5-2.1c-0.5-0.6-0.8-1.5-0.8-2.3
	c0-0.9,0.3-1.8,1-2.5c0.7-0.8,1.7-1.2,2.7-1.1c0.7,0,1.3,0.2,1.9,0.5c0.2,0.1,0.4,0.2,0.6,0.2c0.1,0,0.3,0,0.4-0.1
	c0.2-0.2,0.3-0.3,0.4-0.5L460.8,74.8z"/>
<path class="st0" d="M43.5,75.7c-0.1,0.1-0.2,0.3-0.3,0.3"/>
<path class="st0" d="M46.5,52.1c0.4,0,0.6-0.3,0.6-0.6c0-0.4-0.3-0.6-0.6-0.6c-0.4,0-0.6,0.3-0.6,0.6l0,0
	C45.8,51.8,46.1,52.1,46.5,52.1L46.5,52.1z"/>
<path class="st0" d="M75.7,25.5H53v18.4c0,1.8,0.8,3.3,1.8,3.8l8.8,5.2c0.4,0.4,1.1,0.5,1.5,0.1l0,0l8.9-5.3c1-0.5,1.8-2,1.8-3.8
	V25.5H75.7z M60.5,30.8h-2v-4.7h2V30.8z M59.1,32.4l0.3-0.3l-0.2-0.3h0.4l0.2-0.4l0.2,0.4h0.4l-0.2,0.3l0.3,0.3l-0.4,0.1v0.4
	l-0.3-0.3l-0.3,0.3v-0.4L59.1,32.4L59.1,32.4z M53.6,38.3v-4.5H56v4.5H53.6z M54,31.8h0.4l0.2-0.4l0.2,0.4h0.4L55,32.1l0.3,0.3
	l-0.4,0.1v0.4l-0.3-0.3l-0.3,0.3v-0.4l-0.4-0.1l0.3-0.3L54,31.8z M56.7,36.4h0.4l0.2-0.4l0.2,0.4h0.4l-0.2,0.3L58,37l-0.4,0.1v0.4
	l-0.3-0.3L57,37.5V37h-0.4l0.3-0.3L56.7,36.4L56.7,36.4z M58.3,32.8c0-0.1-0.2-0.2-0.2-0.2S57.7,33,57.6,33s-0.2,0-0.2-0.1
	s0.3-0.2,0.4-0.3c-1.5,0-1.5,0.7-1.7,0.7c-0.4,0,0.3-0.7,0.5-0.9c-0.3,0-0.5-0.4-0.8-0.6c0.2-0.2,0.2-0.1,0.4,0
	c0-0.2,0.1-0.3,0.5-0.3c0.7,0,0.5,0.6,0.6,0.6s0-0.6,0.4-0.6c0.7,0,1.5,1.7,0.7,1.7C58,33,58.3,32.8,58.3,32.8L58.3,32.8z
	 M56.6,27.8l0.3-0.3l-0.2-0.3h0.4l0.2-0.4l0.2,0.4h0.4l-0.2,0.3l0.3,0.3l-0.4,0.1v0.4L57.3,28L57,28.3v-0.4L56.6,27.8L56.6,27.8z
	 M56,26.1v4.7h-2.4v-4.7C53.6,26.1,56,26.1,56,26.1z M60.5,50.4l-5.4-3.3c-0.9-0.7-1.5-1.8-1.5-3v-5.2h6.9V50.4L60.5,50.4z
	 M58.5,38.3v-4.5h2v4.5H58.5z M67.5,50.7L65,52.2l0,0c-0.2,0.1-0.4,0.2-0.7,0.2c-0.2,0-0.5-0.1-0.7-0.2l-2.5-1.5V38.9h6.4V50.7
	L67.5,50.7z M67.5,38.3h-6.4V26.1h6.4V38.3L67.5,38.3z M75.1,44.1c0,1.2-0.6,2.3-1.5,3l-5.4,3.3V38.9h6.9V44.1z M75.1,38.3h-6.9
	V26.1h6.9V38.3L75.1,38.3z"/>
<path class="st0" d="M60.2,43.1c0-0.1-0.9,0.3-0.6,0.3c0.2-0.4,0.4-0.7,0.7-0.9c0-0.3-0.4,0-0.8,0.2c1.3-1.9,0.5-1.1-0.3-1
	c1.2-1.3,0.8-1.2,0-0.8c0.7-0.5,0.8-1.2,0.7-1.3c-0.6,0.8-1.2,0.7-1.2,1.5c0,0.6-0.2,1.1-0.4,1.6c-0.3,0.4-0.1-1.4-1-1.4
	c-0.3,0-1,0-1.2,0.3c0.2,0,0.4,0.5,0.4,0.6s0.2,0.7-0.1,0.7s-0.7-0.6-0.7-0.9s0-0.2,0-0.7c-0.2-0.8-0.8-1.5-1.7-1.8
	c0,0.5,0.7,0.6,0.7,1.3c-0.3,0-0.7-0.5-0.7-0.2s0.4,0.4,0.4,0.7s-0.5-0.1-0.5,0.2s0.3,0.2,0.3,0.5c-0.2-0.1-0.4,0-0.4,0.1
	s0.1,0.2,0.2,0.3c-0.1,0.1-0.1,0.2-0.1,0.7c0,1.5,0.9,2.1,1.6,2.1c0.5,0,0.4-0.3,0.5-0.5c0,0.3,0.3-0.1,0.3,0.3s-0.5,0.3-0.5,0.6
	s0.7,0,0.7,0.6c0,0.3,0,0.6-0.1,1c0,0.2,0.8-0.3,0.7-0.3c0.2,0.1,0.2,0.6,0.5,0.6s0.3-0.5,0.4-0.6c-0.1,0,0.7,0.5,0.7,0.3
	c0-0.7-0.3-0.4-0.3-0.8s0.9-0.3,0.8-0.6s-0.2-0.1-0.3-0.4c0,0.1-0.7-1.1,0.2-0.5S60.1,43.2,60.2,43.1L60.2,43.1z"/>
<path class="st0" d="M84.4,47.9c0.4,0,0.6-0.4,0.6-0.7c0-0.4-0.4-0.6-0.7-0.6c-0.3,0-0.6,0.3-0.6,0.6C83.7,47.6,84,47.9,84.4,47.9z"
	/>
<path class="st0" d="M81.4,49.7c0.4,0,0.6-0.4,0.6-0.7c0-0.4-0.4-0.6-0.7-0.6c-0.3,0-0.6,0.3-0.6,0.6C80.7,49.4,81,49.7,81.4,49.7z"
	/>
<path class="st0" d="M45.5,53.9c0.4,0,0.6-0.4,0.6-0.7c0-0.4-0.4-0.6-0.7-0.6s-0.6,0.3-0.6,0.6C44.7,53.6,45.1,53.9,45.5,53.9z"/>
<path class="st0" d="M47.8,54.1c0.4-0.1,0.6-0.4,0.5-0.8c-0.1-0.4-0.4-0.6-0.8-0.5c-0.3,0.1-0.5,0.3-0.5,0.6
	C47,53.8,47.4,54.1,47.8,54.1L47.8,54.1z"/>
<path class="st0" d="M112.5,22.7c1.1,1.4,1.4,3.4,0.6,5c-0.4,0-0.4-0.6-0.4-0.9c-0.8-1.5-1.4-3.4-0.7-5
	C112.4,21.9,112.2,22.5,112.5,22.7L112.5,22.7z"/>
<path class="st0" d="M17.5,24.5c-0.2,1-0.2,2.1,0,3.2c-0.2,0.2-0.2-0.2-0.4-0.2c-1.5-1.1-0.8-3.3-1.2-4.9c0.1-0.1,0.3-0.2,0.4-0.1
	C17,23,17.5,23.7,17.5,24.5L17.5,24.5z"/>
<path class="st0" d="M115.9,24.6c0.2,0.4-0.2,0.9-0.5,1.1c-0.4,0.1-0.8-0.1-1-0.4c-0.1-0.4,0.1-0.8,0.5-1
	C115.3,24.2,115.7,24.3,115.9,24.6L115.9,24.6z"/>
<path class="st0" d="M15.1,26.4c0,0.4-0.2,0.7-0.5,0.9c-0.2,0-0.6,0-0.8-0.2s-0.3-0.6-0.2-0.8c0.2-0.2,0.5-0.4,0.8-0.4
	C14.7,26,15,26,15.1,26.4z"/>
<path class="st0" d="M117.5,27c0.2,0.4,0,0.8-0.4,1c-0.2,0.1-0.5,0.1-0.7,0c-0.2-0.2-0.4-0.4-0.4-0.7c0.1-0.3,0.4-0.6,0.7-0.7
	C116.9,26.6,117.2,26.8,117.5,27L117.5,27z"/>
<path class="st0" d="M115.2,27.1c0.3,0.2,0.1,0.6,0,0.8c-0.2,0.2-0.5,0.5-0.8,0.4c-0.2-0.2-0.4-0.2-0.5-0.5c0-0.4,0.2-0.8,0.6-0.9
	C114.7,26.9,114.9,26.9,115.2,27.1L115.2,27.1z"/>
<path class="st0" d="M112.3,27.7c0,0.4,0,1-0.5,1.1c-0.4,0.1-0.8-0.1-0.9-0.5l0,0c-0.1-0.4,0.2-0.8,0.6-1
	C111.8,27.2,112.1,27.4,112.3,27.7L112.3,27.7z"/>
<path class="st0" d="M19.5,27.9c0.1,0.4-0.3,0.6-0.5,0.8c-0.3,0-0.6-0.1-0.8-0.4c-0.3-0.3,0.1-0.5,0.2-0.8c0.3-0.2,0.8-0.2,1,0.1
	C19.4,27.7,19.4,27.8,19.5,27.9L19.5,27.9z"/>
<path class="st0" d="M17.1,28c0,0.3-0.2,0.6-0.4,0.8c-0.3,0.1-0.6-0.1-0.8-0.4s0-0.7,0.3-0.9l0,0C16.6,27.3,16.9,27.7,17.1,28
	L17.1,28z"/>
<path class="st0" d="M102.7,28.2c0.4,0.9,0.7,1.8,0.8,2.8c-0.2,0.8,0.1,1.8-0.4,2.3c-0.6-0.2-0.6-0.9-1-1.2c-0.7-1.4-0.1-3,0.2-4.4
	C102.5,27.5,102.5,27.9,102.7,28.2L102.7,28.2z"/>
<path class="st0" d="M15.2,28.7c0.1,0.5-0.2,0.7-0.5,1c-0.4,0.1-0.8-0.2-1-0.6c0-0.4,0.2-0.8,0.5-1C14.6,28,15,28.2,15.2,28.7
	L15.2,28.7z"/>
<path class="st0" d="M109,29.8c0.5,1.2,0.6,2.6,0.2,3.8l-0.2,0.2c-0.7-1-1.2-2.1-1.6-3.2c0-0.8,0.2-1.6,0.5-2.3
	c0.3-0.2,0.4,0,0.6,0.3C108.4,29.1,108.6,29.5,109,29.8L109,29.8z"/>
<path class="st0" d="M114,29.1c0,0.4-0.2,0.8-0.6,1c-0.4,0.1-0.8-0.1-0.9-0.4l0,0c-0.1-0.4,0.1-0.8,0.4-1
	C113.4,28.4,113.8,28.8,114,29.1z"/>
<path class="st0" d="M17.1,30.3c0,0.4-0.3,0.7-0.6,0.8c-0.3,0.2-0.5-0.2-0.8-0.3c-0.1-0.3-0.1-0.6,0-0.9c0.1-0.2,0.4-0.2,0.6-0.3
	C16.7,29.8,17,29.9,17.1,30.3z"/>
<path class="st0" d="M18.9,30.1c0.2,0.4-0.3,0.6-0.4,0.8c-0.5,0.2-0.7-0.2-0.9-0.5s0.2-0.6,0.4-0.9C18.4,29.5,18.6,29.8,18.9,30.1z"
	/>
<path class="st0" d="M115.1,30c0,0.5-0.8,1-0.9,1.6c-0.5,1.1-1.4,1.9-2.5,2.2c-0.2,0.3-0.6,0.4-0.9,0.5c-0.1-0.8,0.6-1.5,1.1-2.2
	C112.7,31,113.8,30.3,115.1,30z"/>
<path class="st0" d="M16.3,31.7c0.5,0.7,1,1.3,1.6,1.9c0,0.2-0.1,0.4-0.2,0.4l0,0c-1.9-0.1-3.3-2.1-4.2-3.5c0.1-0.4,0.6-0.1,0.9-0.1
	C15,30.8,15.8,31,16.3,31.7z"/>
<path class="st0" d="M115.6,32.2c0,1.8-1,3.4-2.5,4.3c-0.4,0.2-0.9,0.6-1.3,0.3c0.9-1.7,2.1-3.3,3.5-4.6H115.6z"/>
<path class="st0" d="M108,33.4c0.1,0.5-0.2,1-0.7,1.2c-0.4,0-0.7-0.3-0.9-0.6c-0.1-0.4,0.2-0.8,0.6-0.9c0.1-0.1,0.3-0.1,0.5-0.1
	C107.7,33,107.8,33.2,108,33.4L108,33.4z"/>
<path class="st0" d="M14.1,33.8c0.8,0.6,1.5,1.2,2.1,1.9c-0.5,0.4-1.1,0-1.8,0c-1.4-0.5-2.3-1.6-3.6-2c0-0.4,0.6-0.3,0.8-0.4
	C12.5,33.3,13.3,33.4,14.1,33.8L14.1,33.8z"/>
<path class="st0" d="M56.6,21.9c-2.2-0.9-3.7,1.4-6,1.2c-0.3,0.2-0.2,0.4-0.4,0.6s-0.3,0-0.4,0c-0.1-1-0.4-1.8-0.6-2.8
	c-0.2-0.4-0.1-1-0.3-1.4c-1.3-3.5,3.1-0.8,4-2.9c0.8-1.8-1.5-2-2.1-3.2V13c-0.6-0.6-1.3-0.8-1.7-1.7c0.3-1,0.4-2.1,0.1-3.1
	c0-0.2-0.2-0.6-0.5-0.4c-0.8,1-1.3,1.9-2,2.9c-0.7-0.6-1.5-1.2-2.3-1.8c-0.6-0.1-1.2-0.7-1.8-0.4c-0.1,0.2,0,0.4,0.1,0.6
	c0.1,1.5,0.8,2.9,1.9,3.9l0.1,0.6c-0.7,1.6-0.5,3.5-0.7,5.3c-1.8,4.7-4.7,8.9-8.6,12.1c-2.3,2.6-5,5-5.3,8.5
	c-0.1,0.6,0.1,1.2-0.4,1.6c-1.3-0.5-2.6-1.1-3.7-2c-1.8-1.3-4.4-1.1-5.6-3.4c-0.5-0.9,0.1-1.8,0.5-2.5c1.4-1.3,1.1-3.6,0.4-5.1
	c-0.2,0-0.2,0.2-0.3,0.2c-0.1,2.4-2,4-1.3,6.6c0.2,0.8,0.6,1.2,0.8,2c-0.3,0-0.6-0.1-0.9-0.2c-0.8-0.2-1.7-0.4-2.6-0.4
	c-1.8,0.8-4.3-0.2-5.8,1.5c-0.2,0-0.6,0.1-0.5,0.4c0.9,0,1.7,0.2,2.6,0.2c1.4,0.2,2.3-0.9,3.3-1.4h0.2c0.4-0.4,1.1-0.2,1.6-0.2
	c2.5,0.3,4.4,1.5,6.5,2.7v0.2c-0.8,0.4-1.7,0.6-2.5,1c-1,0.6-1.8,1.6-2.2,2.7c-0.6,1,0.2,1.9,0.6,2.7c0,0.4,0.1,0.9,0.4,1
	c1.3-1.4,0.1-3,0.3-4.6c0.4-1.1,1.4-1.8,2.5-2c2.3-1,3.9,0.9,5.7,1.9c0.1,1.8,0,3.6-0.2,5.4C28.9,48,28.3,48,27.6,48
	c-3.1,0.2-5.6,2-8.4,2.9c-1.3,0.4-2.8,0.4-4,0.9c1,0.1,2,0.1,3-0.1c3.9-0.6,6.9-3.6,11.1-3l0.1,0.1c-0.5,1-1.1,1.8-1.9,2.6
	c-0.1-0.4-0.2-0.8-0.6-1c-0.3-0.1-0.7,0-0.9,0.3c-0.1,0.2-0.1,0.4,0,0.6c0.2,0.3,0.5,0.5,0.9,0.6c-0.1,0.4-0.5,0.5-0.8,0.8
	c-1.1,1.9-3.4,1.1-4.7,2.4c-0.2,0.3-0.9,0.4-0.6,0.9c1.4,0.2,2.9-0.2,4.1-1c1.5-1.6,3-3.2,4.5-4.8c0.2,1.3-0.1,2.6-0.9,3.6
	c-0.3-0.2-0.7-0.4-1.1-0.6c-0.4,0.1-0.6,0.4-0.7,0.8c0.1,0.3,0.3,0.6,0.6,0.8c-1.3,1-3,1-4.6,1.5c-2.9,0.4-5.8,0.6-8.6,0.6
	c-1.4-0.1-3,0.4-4.3,0c-1.5,0.3-3.1-0.2-4.4,0.6c-0.2,0.2,0,0.4,0,0.6c1.8,1.2,4.3,0.2,6.4,0.6h15.6c1.1,0.1,2.2-0.1,3.2-0.6
	c2-1.2,3.1-3.2,4.2-5.3c0.4-0.8,0.7-1.6,0.8-2.4c0.4-1.3,1.6-2.3,3-2.4c0.1,2-0.1,4.1-0.7,6.1c-0.2,1.3-1.1,2.5-0.6,3.9
	c0.1,0.6,0.8,0.6,1.3,0.7c4.8-0.1,9.6-0.3,14.7,0.1c0.9,0.2,1.8,0.4,2.7,0.4c0.1-0.1,0.4-0.2,0.2-0.4c-0.1-0.5-0.5-1-1-1.1
	c-0.1-0.2-0.4-0.2-0.5-0.3c-2.5-1.4-5.6-0.7-8.6-0.6c-1.5,0.2-3.1,0.4-4.4-0.4c-0.6-0.7-0.2-3-0.2-3c0.6-2.6,1.5-5.2,2.5-7.7
	c0.2-0.6,0.2-1.2,0.2-1.8c0.3-0.9,0.3-1.9,0.3-2.9c0.3-1.3,0.7-2.5,1.2-3.7c0.2-0.6,0.4-1.2,0.7-1.8c0.1-0.7,0.4-1.4,0.8-2.1
	c1.3,0.8,2.6,0.8,3.2,2.3l0.5,3.3c0,0.2,0.2,0.6,0.4,0.4c1-0.7,0.7-2.2,0.7-3.2c0.2-1.2-0.6-1.8-1-2.9c-0.3-0.4-0.5-0.8-0.7-1.2
	c-0.2-0.9-2.1-1.5-1.7-2.6c0.1-0.9,0.6-1.7,1.3-2.3c0.1,0.1,0.2,0.2,0.2,0.3l0.5-0.3v-3.3c1.3,0,3.2,0.2,4.5,0.2
	c0.4,0.1,0.6,0.4,1,0.4l0.3-0.4l3.2-0.6C58.7,23.4,57.8,21.9,56.6,21.9L56.6,21.9z"/>
<path class="st0" d="M25.6,34.5c0,0.4-0.2,0.8-0.6,0.9c-0.3-0.1-0.5-0.2-0.8-0.5s0.2-0.8,0.5-0.9C25.1,34.1,25.5,34.1,25.6,34.5
	L25.6,34.5z"/>
<path class="st0" d="M23,34.5c0.2,0.2,0.3,0.6,0.2,0.9c-0.3,0.2-0.7,0.4-1,0.1s-0.5-0.5-0.3-0.8S22.6,34.2,23,34.5L23,34.5z"/>
<path class="st0" d="M108.4,35.6c0.2,0.4-0.2,0.8-0.5,0.9c-0.4-0.1-0.9-0.2-0.9-0.7c0.1-0.4,0.5-0.7,0.9-0.6
	C108.1,35.2,108.3,35.4,108.4,35.6L108.4,35.6z"/>
<path class="st0" d="M110.5,35.5c0.1,0.2,0.4,0.5,0.1,0.7c-0.2,0.1-0.3,0.2-0.4,0.3c-0.4,0.1-0.8-0.1-1-0.5l0,0
	c-0.1-0.4,0.3-0.6,0.6-0.8S110.3,35.4,110.5,35.5L110.5,35.5z"/>
<path class="st0" d="M13,36c-0.1,0.4-0.5,0.7-0.9,0.6H12c-0.1-0.2-0.2-0.3-0.3-0.5c0-0.3,0.2-0.6,0.4-0.7C12.5,35.3,12.9,35.6,13,36
	z"/>
<path class="st0" d="M26.4,36.7c0,0.3-0.4,0.6-0.7,0.8c-0.4,0-0.7-0.2-0.9-0.6c0-0.3,0.2-0.7,0.5-0.8C25.8,36,26.3,36.2,26.4,36.7
	L26.4,36.7z"/>
<path class="st0" d="M24,36.4c0.2,0.2,0.2,0.4,0.1,0.6c-0.2,0.2-0.6,0.6-1,0.3c-0.2-0.2-0.5-0.4-0.4-0.8c0.2-0.2,0.4-0.4,0.6-0.5
	C23.6,36,23.8,36.2,24,36.4L24,36.4z"/>
<path class="st0" d="M116.6,36.9c0,0.3-0.2,0.6-0.5,0.8c-0.3,0.1-0.7,0-0.9-0.2c-0.2-0.1-0.2-0.4-0.2-0.6c0.2-0.3,0.4-0.4,0.8-0.5
	C116.1,36.4,116.4,36.6,116.6,36.9L116.6,36.9z"/>
<path class="st0" d="M119.1,37.2c-0.1,0.4-0.4,0.6-0.8,0.7c-0.2,0-0.7-0.1-0.6-0.5c0-0.3,0.1-0.5,0.4-0.6
	C118.4,36.6,118.9,36.7,119.1,37.2C119.1,37.2,119.1,37.2,119.1,37.2L119.1,37.2z"/>
<path class="st0" d="M17.5,37.8c0.1,0.4-0.1,0.9-0.5,1l0,0c-0.3,0.2-0.5,0-0.8-0.2c-0.2-0.2-0.3-0.5-0.2-0.8
	c0.1-0.4,0.4-0.3,0.7-0.4C17.1,37.4,17.4,37.6,17.5,37.8L17.5,37.8z"/>
<path class="st0" d="M19.5,38.2c0.1,0.3-0.2,0.4-0.3,0.7c-0.2,0.1-0.5,0.1-0.7,0c-0.3-0.2-0.6-0.6-0.3-1
	C18.5,37.3,19.3,37.6,19.5,38.2L19.5,38.2z"/>
<path class="st0" d="M114.3,38c0,0.4-0.3,0.7-0.6,0.9c-0.3,0.1-0.7-0.1-0.8-0.5c0-0.3,0.2-0.6,0.4-0.8
	C113.7,37.6,114.1,37.7,114.3,38L114.3,38z"/>
<path class="st0" d="M117.5,38.6c-0.1,0.4,0,0.8-0.4,1c-0.3,0.1-0.7,0-1-0.2c-0.2-0.2-0.3-0.6-0.2-0.8c0.2-0.4,0.6-0.6,1-0.5
	C117.2,38.3,117.3,38.5,117.5,38.6z"/>
<path class="st0" d="M16,39.4c0.2,0.3-0.2,0.4-0.3,0.6c-0.3,0.1-0.6,0.1-0.8-0.1c-0.3-0.2-0.2-0.6-0.1-0.8
	C15.1,38.5,15.8,39,16,39.4z"/>
<path class="st0" d="M115,40.2c0.2,0,0.1,0.3,0,0.4c-1,0.6-2.3,0.5-3.2-0.2c-0.5-0.3-1-0.6-1.6-0.9c0.2-0.5,0.9-0.5,1.4-0.6
	C112.8,39.1,113.7,40.2,115,40.2L115,40.2z"/>
<path class="st0" d="M17.9,39.8c0.1,0.3-0.2,0.4-0.2,0.7s-0.5,0.2-0.7,0.1c-0.3-0.1-0.5-0.5-0.4-0.9s0.5-0.5,0.9-0.4
	C17.7,39.4,17.9,39.6,17.9,39.8z"/>
<path class="st0" d="M21.4,40.1c0.2,0.4-0.1,0.7-0.4,0.9s-0.5-0.1-0.8-0.1C20,40.6,19.7,40.3,20,40C20.4,39.3,21.1,39.6,21.4,40.1z"
	/>
<path class="st0" d="M67.3,41.8c-0.1,0.8-1.4-0.1-1.2,1c0.1,0.8,0.4,1.6,0.8,2.2c0.4,0.5,0.2,1.4,0.2,2c-0.4,0.6-0.9,1-1.5,1.3
	c-1.1-0.1-2.8,0.6-3.3-0.8c-0.3-0.6-0.5-1.2-0.6-1.9c0.1-0.1,0.3-0.1,0.4-0.2c0-0.3-0.3-0.4-0.3-0.7c1.3-0.2-0.5-1.4,0.6-1.4
	c0.9,1,2.4,0.7,3.2,1.7c0.2,0.2,0.4,0.3,0.6,0.5c-0.2-1-0.6-1.9-0.8-2.9c-0.1-0.5,0.1-1,0.4-1.3C66.4,40.6,66.9,41.3,67.3,41.8
	L67.3,41.8z"/>
<path class="st0" d="M24.9,41.5c0.1,0.4-0.2,0.6-0.4,0.8s-0.5-0.2-0.7-0.4c-0.1-0.4,0.2-0.6,0.4-0.8C24.5,41.1,24.8,41.3,24.9,41.5z
	"/>
<path class="st0" d="M49.4,41.9c0.5,1.5,0.3,3.1-0.5,4.5c0,0.3,0.1,0.8-0.4,0.8c-1.1-1.5-0.3-3.6,0.2-5.1
	C48.8,41.7,49.3,41.5,49.4,41.9L49.4,41.9z"/>
<path class="st0" d="M83.3,42.7c0.6,1.2,0.6,2.5,0.1,3.7l-0.3,0.3c-0.5-0.9-0.8-1.8-0.9-2.8c0.2-0.7,0.4-1.4,0.5-2.1
	C83.2,41.6,83.2,42.3,83.3,42.7z"/>
<path class="st0" d="M28,43.1c-0.2,0.5-0.9,0.6-1.3,0.9c-1,0.7-2.3,0.9-3.5,0.7c1-1.5,2.8-2.3,4.5-1.9C27.7,43,27.9,42.9,28,43.1z"
	/>
<path class="st0" d="M11.7,44.5c1.5,1,1.9,2.5,2.7,3.9c0.1,0.2,0.5,0.2,0.4,0.5c-0.3,0.2-0.6-0.2-1.1-0.2c-1.5-0.8-2.5-2.4-2.4-4.1
	C11.3,44.5,11.6,44.5,11.7,44.5L11.7,44.5z"/>
<path class="st0" d="M81.8,45.8c0,0.4,0,0.8-0.4,0.9c-0.4,0.1-0.8-0.1-0.9-0.5l0,0c-0.1-0.3,0.1-0.4,0.2-0.6c0.3-0.3,0.7-0.2,1,0.1
	C81.7,45.7,81.8,45.7,81.8,45.8z"/>
<path class="st0" d="M98.5,47.9c0.1-0.7,0.1-1.5,0.3-2.2c0.1-0.3,0.2-0.6,0.2-0.8c1-1.3,2.9-0.9,4.4-0.8c0.6,0.2,1.3,0.4,2,0.4
	c0.3-0.2,0.7-0.3,1-0.2c1.3-0.7,0.4-2.2,0.5-3.3l-0.5-1.2c-0.1-0.3-0.2-0.5-0.3-0.8c-0.2-0.3-0.4-0.8-0.6-1.1
	c-0.7-1.8-2-2.8-3.1-4.2c-2-2.6-5.2-4.1-8.4-5.2S87.7,29,84.9,30c-0.8-0.2-1.4-0.9-1.6-1.7c-0.1-1.5,0.1-2.9,0.8-4.2
	c0.3-0.9,0.6-1.8,1.1-2.7c0.8-2.2,1.4-4.5,1.6-6.9c-0.1-1.4-0.9-2.6-2.1-3.2c-0.8-0.3-1.6-0.1-2.2,0.4c-0.6,1-1.5,1.8-2.6,2.3
	c-0.1,0.7,0.8,0.2,1,0.5c0.9,0.2,1.9-0.1,2.6,0.4c-0.1,1.5-0.7,3-1.7,4.1c-1.4,1.9-2.6,4-3.6,6.2l-0.2,0l0.2,9.8
	c1.3,2.1,2.8,4.5,5.2,5.3c1.3,1,2.9,2.3,4.6,1.4c0.9-0.3,1,1,1.4,1.5c0.5,1.5-0.6,2.5-0.7,3.9l-1,2.2c-1.2,2.3-2.3,4.8-4.1,6.8
	c-0.6,0-1,0.6-1.6,0.7c-0.3,0.4-1,0.1-1.3,0.3c-1.2,0.5-3,0.2-3.8,1.4c0.1,0.1,0.2,0.2,0.3,0.2c2.4,0,5.1,0.2,7.7,0.1
	c0.3-0.1,0.6-0.4,0.6-0.8c-0.4-0.7,0.1-1.3,0.4-1.8c0.2-1,0.8-1.6,1.1-2.5c0.8-1.6,1.8-3.2,2.7-4.9l1.2-2c0.3-0.8,0.8-1.5,1.2-2.2
	c0.3-0.3,0.5-0.7,0.7-1.1c0-0.4-0.2-0.6-0.4-0.8c0.3-0.3,0.7-0.2,1.1-0.3c1.1,0.5,1.9,1.5,2.2,2.6l0.4,1l0.2,0.5l-0.1,1.3l0.2,1.2
	c0.1,1.9,0,3.9-0.4,5.8c-0.7,2.3-3.3,2.1-5.2,2.6c-0.5,0.3-1.4,0.2-1.4,1c2.3,0.5,5,0.2,7.5,0.2c0.4-0.2,0.5-0.5,0.7-0.9
	c0.1-0.5,0.6-1,0.4-1.5c-0.4-0.6,0-1.4-0.2-2.2c0.1-0.2,0.1-0.5,0-0.8c0.3-1.2,0.2-2.6,0.5-3.7L98.5,47.9L98.5,47.9z"/>
<path class="st0" d="M118.1,46.3c-1.3,1.8-2.6,3.8-4.8,4.5c-0.2,0-0.3,0.1-0.4-0.1c1.3-1.4,2.1-3.7,4.2-4.2
	C117.3,46.3,117.7,46.2,118.1,46.3L118.1,46.3z"/>
<path class="st0" d="M9.8,48.3c-0.2,0.2,0,0.5-0.4,0.6c-0.3,0.1-0.7,0-0.8-0.4s0.1-0.8,0.5-0.9l0,0C9.4,47.8,9.7,47.9,9.8,48.3
	L9.8,48.3z"/>
<path class="st0" d="M21.2,48.9c0.1,0.4-0.3,0.4-0.5,0.4c-1.6,0.5-3.4,0.1-4.6-1.2c0-0.2,0-0.3,0.2-0.4C18,48.2,19.9,47.9,21.2,48.9
	z"/>
<path class="st0" d="M12,48.3c0.1,0.2,0.1,0.4,0.1,0.6c-0.2,0.3-0.6,0.5-1,0.4c-0.2-0.1-0.4-0.3-0.5-0.5c0.1-0.4,0.3-0.7,0.6-0.8
	C11.5,48,11.7,48.1,12,48.3L12,48.3z"/>
<path class="st0" d="M49.1,48.5c0.1,0.4-0.2,0.6-0.5,0.8c-0.3,0.1-0.6-0.1-0.8-0.3c-0.1-0.3,0-0.6,0.3-0.8
	C48.4,48.1,49,48.2,49.1,48.5L49.1,48.5z"/>
<path class="st0" d="M119.6,48.7c0.1,0.4-0.2,0.6-0.5,0.8c-0.3,0.1-0.5,0-0.8-0.1c0-0.2-0.3-0.4-0.2-0.6c0.2-0.3,0.5-0.5,0.9-0.5
	C119.2,48.4,119.4,48.6,119.6,48.7L119.6,48.7z"/>
<path class="st0" d="M122.2,48.5c0.2,0.4,0,0.6-0.2,0.9c-0.1,0.3-0.4,0.4-0.7,0.2c-0.2-0.2-0.6-0.4-0.6-0.7s0.4-0.6,0.6-0.7
	C121.7,48.1,121.9,48.5,122.2,48.5L122.2,48.5z"/>
<path class="st0" d="M8.1,49.7c0,0.3-0.2,0.4-0.3,0.7c-0.2,0.1-0.4,0.2-0.6,0.2c-0.3-0.1-0.5-0.4-0.6-0.6c0.1-0.4,0.3-0.7,0.7-0.8
	C7.7,49.1,8,49.4,8.1,49.7L8.1,49.7z"/>
<path class="st0" d="M91.6,49.7c0,0.2,0,0.3,0,0.5c-0.2,0.3-0.6,0.6-1,0.4c-0.2-0.2-0.5-0.5-0.4-0.8c0.2-0.4,0.7-0.5,1.1-0.3
	C91.4,49.5,91.5,49.6,91.6,49.7L91.6,49.7z"/>
<path class="st0" d="M14.5,50.3c-0.1,0.3-0.2,0.6-0.5,0.6s-0.5-0.3-0.7-0.4c0-0.4,0-0.7,0.3-0.9c0.4-0.1,0.8,0.1,0.9,0.5
	C14.5,50.1,14.5,50.2,14.5,50.3L14.5,50.3z"/>
<path class="st0" d="M10.7,50.4c0.1,0.3-0.1,0.7-0.4,0.9c-0.4,0.1-0.9-0.1-1.1-0.6c0-0.4,0.3-0.8,0.7-0.9
	C10.3,49.8,10.5,50.2,10.7,50.4L10.7,50.4z"/>
<path class="st0" d="M94.3,50.3c0.1,0.4,0,0.8-0.4,1c-0.5,0.2-0.9-0.2-1.1-0.6c0.2-0.3,0.2-0.8,0.7-0.8
	C93.8,49.9,94.1,50.1,94.3,50.3L94.3,50.3z"/>
<path class="st0" d="M12.5,50.5c0.1,0.3-0.1,0.4-0.2,0.6c-0.2,0-0.3,0.2-0.5,0.2s-0.5-0.3-0.5-0.6s0.2-0.6,0.5-0.8
	C12.2,49.9,12.5,50.1,12.5,50.5z"/>
<path class="st0" d="M117.4,50.8c-0.1,0.3-0.4,0.5-0.7,0.6c-0.3,0.1-0.5-0.2-0.8-0.3s-0.1-0.5,0-0.7c0.2-0.4,0.7-0.5,1.1-0.2
	C117.3,50.3,117.4,50.5,117.4,50.8L117.4,50.8z"/>
<path class="st0" d="M120.4,50.9c-0.1,0.4-0.6,0.7-1,0.7c-0.4-0.2-0.8-0.4-0.5-0.9c0.2-0.2,0.2-0.3,0.5-0.4c0.4-0.1,0.8,0.1,1,0.5
	C120.4,50.9,120.4,50.9,120.4,50.9z"/>
<path class="st0" d="M101.6,51.2c0.2,0.5-0.3,0.7-0.6,0.9c-0.3,0-0.5-0.2-0.8-0.3c-0.1-0.4,0.2-0.8,0.6-1
	C101.1,50.8,101.4,51,101.6,51.2L101.6,51.2z"/>
<path class="st0" d="M90.7,51.7c0.2,0.1,0.1,0.4,0.1,0.5c-0.2,0.2-0.6,0.6-0.9,0.3c-0.3-0.1-0.5-0.4-0.4-0.8c0.2-0.3,0.7-0.4,1-0.2
	C90.5,51.6,90.6,51.7,90.7,51.7L90.7,51.7z"/>
<path class="st0" d="M92.9,52c0.1,0.3-0.1,0.5-0.3,0.6c-0.3,0.3-0.6,0-0.9-0.1c-0.1-0.2-0.1-0.4,0-0.6c0.1-0.2,0.3-0.3,0.5-0.3
	C92.5,51.7,92.8,51.7,92.9,52L92.9,52z"/>
<path class="st0" d="M25.6,52c0.2,0.2,0,0.5-0.1,0.8c-0.2,0.3-0.7,0.4-1,0.2c-0.4-0.2-0.4-0.7-0.3-1c0.2-0.1,0.2-0.4,0.5-0.4
	C25.1,51.6,25.3,51.8,25.6,52L25.6,52z"/>
<path class="st0" d="M105.8,52.2c0.1,0.4-0.3,0.6-0.6,0.6c-0.5,0.2-0.7-0.2-0.9-0.5c0-0.2,0.2-0.4,0.3-0.6
	C105.2,51.5,105.5,51.9,105.8,52.2L105.8,52.2z"/>
<path class="st0" d="M103.7,52.2c0.2,0.4-0.3,0.6-0.4,0.8c-0.3,0.1-0.6,0.1-0.9-0.2c-0.2-0.1-0.2-0.4-0.2-0.6
	c0.2-0.2,0.4-0.4,0.6-0.5C103.1,51.7,103.5,51.9,103.7,52.2z"/>
<path class="st0" d="M121.6,52.7c0.1,0.6-0.6,0.3-0.9,0.4c-1.7,1-3.8,0.2-5.4-0.4c0.1-0.5,0.7-0.3,1-0.5c1.7-1.1,3.5,0.2,5.2,0.3
	L121.6,52.7L121.6,52.7z"/>
<path class="st0" d="M13,52.2l-0.2,0.3c-1.5,1-3.4,1.3-5.1,0.9l-0.2-0.2c1.6-1,3.5-1.4,5.3-1.1C12.9,52.1,13,52.2,13,52.2z"/>
<path class="st0" d="M109.8,52.5c0,0.3-0.1,0.6-0.4,0.8c-0.4,0.1-0.8,0-1-0.4c-0.1-0.3,0.2-0.6,0.5-0.8S109.7,52,109.8,52.5
	L109.8,52.5z"/>
<path class="st0" d="M20.1,52.6c-0.2,0.3-0.1,0.6-0.5,0.8c-0.4,0.1-0.8-0.1-1-0.5c-0.1-0.4,0.2-0.6,0.4-0.8
	C19.5,51.9,19.8,52.3,20.1,52.6L20.1,52.6z"/>
<path class="st0" d="M17.3,52.8c0.1,0.3-0.1,0.4-0.2,0.6c-0.2,0.2-0.5,0.2-0.8,0.1c-0.3-0.2-0.5-0.5-0.4-1c0.2-0.2,0.4-0.3,0.6-0.4
	C16.9,52.2,17.2,52.4,17.3,52.8L17.3,52.8z"/>
<path class="st0" d="M112.6,53.7c0,0.3-0.3,0.6-0.6,0.7c-0.3,0-0.6-0.1-0.8-0.4c-0.1-0.3-0.1-0.6,0.2-0.8c0.1-0.1,0.4-0.1,0.5-0.2
	C112.3,53.1,112.5,53.4,112.6,53.7L112.6,53.7z"/>
<path class="st0" d="M14.3,53.3c0.1,0.3-0.2,0.4-0.2,0.7c-0.2,0.6-0.5,1.2-0.9,1.7c-0.8,0.9-1.8,0.9-2.9,1.2l-0.2-0.3
	c1-1.4,2.4-2.6,4-3.4L14.3,53.3L14.3,53.3z"/>
<path class="st0" d="M110.6,54.2c0.1,0.5-0.3,0.6-0.6,0.8c-0.3,0-0.6-0.2-0.8-0.5c-0.1-0.4,0.3-0.6,0.5-0.8
	C110.2,53.6,110.5,53.8,110.6,54.2L110.6,54.2z"/>
<path class="st0" d="M18.9,54.2c0,0.1,0,0.2,0.1,0.2c0,0.4-0.4,0.6-0.6,0.8c-0.3,0-0.7-0.1-0.9-0.4c-0.2-0.3,0-0.7,0.3-0.9
	c0,0,0,0,0.1,0C18.3,53.8,18.8,53.8,18.9,54.2L18.9,54.2z"/>
<path class="st0" d="M117.9,55.4c0.4,0,0.5-0.5,0.9-0.6s0.8,0.1,1,0.4c0.2,0.5-0.2,0.7-0.5,0.9s-0.9-0.2-0.8,0.3
	c0.3,0.2,0.5,0.5,0.6,0.8c-0.1,0.2-0.4,0.1-0.5,0c-1.2-0.4-2.3-1.3-2.9-2.5c-0.2-0.4-0.9-0.6-0.5-1
	C116.3,53.8,117.3,54.4,117.9,55.4L117.9,55.4z"/>
<path class="st0" d="M121.8,54.1c0.2,0.2,0.2,0.5,0,0.8c-0.2,0.4-0.8,0.2-1.1,0.2c-0.2-0.2-0.4-0.4-0.3-0.7c0.1-0.2,0.3-0.4,0.6-0.5
	C121.2,53.8,121.5,53.9,121.8,54.1L121.8,54.1z"/>
<path class="st0" d="M107.3,56.3c0.4,0.5,0.7,1,0.9,1.6c-0.1,0.1-0.3,0.1-0.4,0.1c-1.3-0.8-3.1-1.6-3.6-3.2
	c-0.1-0.2-0.4-0.4-0.4-0.6c1-0.2,2,0.6,2.7,1.1C106.9,55.7,107.2,55.8,107.3,56.3L107.3,56.3z"/>
<path class="st0" d="M16.7,54.8c0.2,0.4-0.2,0.6-0.4,0.8c-0.3,0.1-0.7,0-0.9-0.3c-0.3-0.4,0.2-0.8,0.6-1
	C16.4,54.1,16.5,54.5,16.7,54.8L16.7,54.8z"/>
<path class="st0" d="M112.3,55.7c0,0.2-0.3,0.4-0.4,0.6c-0.3,0-0.6,0.2-0.9-0.1c-0.1-0.2-0.3-0.5,0-0.7
	C111.4,54.8,112.1,55.3,112.3,55.7L112.3,55.7z"/>
<path class="st0" d="M122.2,56.3c0.1,0.4-0.2,0.8-0.6,1c-0.4,0.1-0.8-0.1-1-0.4c-0.2-0.2,0-0.5,0-0.8c0.3-0.3,0.6-0.4,1-0.3
	C121.8,56,122,56.1,122.2,56.3L122.2,56.3z"/>
<path class="st0" d="M94.7,61.8c0,0.5-0.9,0.4-1.2,0.7c-1.3,0.5-2.7,0.8-4.2,0.6v-0.2C90.8,61.6,92.9,61.2,94.7,61.8z"/>
<path class="st0" d="M36.9,63.5c0,0.4-0.3,0.7-0.6,0.7s-0.5-0.2-0.6-0.4c-0.2-0.5,0.2-0.7,0.5-0.9C36.5,62.9,36.7,63.2,36.9,63.5z"
	/>
<path class="st0" d="M94.1,63.9c0,0.4-0.3,0.7-0.6,0.9c-0.4,0.1-0.6-0.1-0.9-0.3s-0.1-0.4-0.1-0.6c0.2-0.4,0.7-0.7,1.1-0.5
	C93.8,63.5,94,63.7,94.1,63.9z"/>
<path class="st0" d="M102,64.1c-1,0.8-2.2,1.3-3.4,1.4h-2.1l-0.2-0.2c1.3-1.6,3.7-1.6,5.8-1.4v0.2H102z"/>
<path class="st0" d="M26,65c0,0.3-0.2,0.7-0.5,0.8c-0.4,0-0.7-0.2-0.8-0.6c0-0.2,0.1-0.5,0.3-0.6C25.4,64.2,25.9,64.7,26,65L26,65z"
	/>
<path class="st0" d="M28,65.4c0.1,0.2-0.1,0.3-0.2,0.5c-0.2,0.2-0.5,0.2-0.8,0c-0.3-0.1-0.4-0.4-0.2-0.7l0,0
	c0.1-0.2,0.4-0.2,0.5-0.4C27.6,65,27.9,65.2,28,65.4z"/>
<path class="st0" d="M12.8,69.5c-0.4,0.5-1-0.1-1.5-0.4c-1.4-0.8-1.4-2.4-2.7-3.3c0.2-0.5,0.5,0,0.8,0c0.3,0.2,0.5,0.3,0.8,0.4
	C11.6,67,11.9,68.3,12.8,69.5L12.8,69.5z"/>
<path class="st0" d="M128.4,54c-0.6-1.1-1.8-1.7-3-1.6c-1,0.1-1.8,0.7-2.2,1.6c-0.2,0.8,0.1,1.7,0.8,2.2c0.3,0.1,0.6,0.1,0.8-0.2
	c0.2-0.5-0.4-0.5-0.4-0.9c-0.2-0.5,0-1.1,0.4-1.4c0.4-0.4,1.1-0.2,1.6-0.2c0.5,0.3,0.9,0.7,1.2,1.2c0.2,0.7,0.2,1.4,0,2.1
	c-0.5,1-1.4,1.8-2.5,2c-3.3,0.5-39.4,0.3-39.4,0.3c-4.2,0.4-9.1-0.8-12.7,1.4c-1.7,0.8-2.5,2.6-2.9,4.3c-1.1,1-2.1,2-3.1,3.2
	l-0.1-0.1c0.2-1,0.6-1.8,0.8-2.8c0.6-0.8,0.6-1.9,1-2.8c1.5-2.4,2.9-4.9,5.3-6.6c1-1.3,2.7-1.1,4.2-1.1c1.7,0.8,3.6,1,5.5,0.8
	c0.1-0.1,0.1-0.2,0.1-0.3c-0.6-0.5-1.5-0.7-2.1-1.2c-1.6-0.8-3.1,0.2-4.8,0.1c-0.1-0.1-0.2-0.1-0.1-0.2c1.5-1.1,3.2-2,4.9-2.6
	c1.4-0.7,2.9-1.3,4.4-1.7c0.6,0,1.2-0.5,1.7-0.2l2.1-0.6c0.1,0,0.2,0.2,0.3,0.1c1.8-0.6,4,0,6.1-0.1l0.3,0.2l1.9,0.5
	c0.7,0.1,1,0.9,1.8,1c0.4-0.6-0.4-0.8-0.6-1.2c0.9-0.2,1.8,0,2.7,0.4L102,50c-0.2,0.4,0.1,0.8,0.5,0.9s0.5-0.1,0.7-0.2
	c0.5-0.4,0-0.7,0.1-1c2.9,0.5,5.7,1.3,8.4,2.4c0.7,0.4,1.5,0.6,2.3,0.8c-0.9-0.7-1.9-1.2-3-1.6c-0.7-0.4-1.6-0.4-2.1-1
	c0.1-0.2,0.4-0.1,0.5-0.3c1.4-0.3,2.6-1.1,3.4-2.2c0.1-0.2,0.5-0.2,0.5-0.5c-0.4-0.4-1,0.1-1.4,0.1c-1.7,0.3-2.4,2.3-4,2.6
	c-2-0.5-4.1-1-6.1-1.5c-1-0.1-2-0.3-3-0.6l-2.2-0.2h-4c0-0.1-0.2-0.1-0.1-0.2c1.4-0.4,2.7-1.2,4.1-1.6l10.5-5c1.1-1,2.1-2.1,3-3.3
	c0-0.3-0.1-0.6-0.4-0.8c-0.3-0.1-0.6-0.1-0.8,0.2c-0.5,0.4,0,0.8,0,1.2c-0.5,0.7-1.1,1.2-1.8,1.6c-0.2,0-10.9,4.9-10.9,4.9
	c-1.6,0.8-3.2,1.4-4.8,1.8l-2.3,0.4c-0.2,0.4-0.5,0.8-1,0.9c-0.6,0.2-1.2,0.4-1.8,0.5c-5.2,2-10.5,4.1-14.6,8.2
	c0.2-0.5,0.4-1.1,0.4-1.7c0-0.6-0.1-1.2-0.4-1.8c-0.1-0.2-0.4-0.9-0.3-1.1l-0.6,0.4c-0.5,1.1-0.6,2.3-0.3,3.4
	c0.1,0.7,0.7,1.6,0.2,2.2c-1.9,2.3-3,5.1-4.2,7.8c-0.5-0.1-0.7-0.5-0.9-1C67,63,68,61,68.4,58.8c0.3-0.2,0.1-0.7,0.4-1
	c-0.1-0.6,0.4-1.3,0-1.8c0.3-0.9-1.2-1.7-0.3-2.2l-0.8,0.4c-1.7,2.2,0.9,5.6-1.1,7.8v0.2c-0.4,0.7-0.9,1.4-1.6,1.9
	c-1-0.4-1.3-1.5-1.9-2.3c-0.8-1.1-1-2.5-0.4-3.7C62.8,57,62.2,56,62,55l-0.4-0.2c-1,1.3-1.2,3.1-0.6,4.7c0.4,0.7,0.4,1.7,1,2.3
	c0.4,1.1,1,2.1,1.7,3c0.2,0.4-0.2,0.5-0.4,0.7c-0.4-0.3-0.4-0.9-0.8-1.2c-1.3-2.7-3-5.1-5.1-7.3c-0.1-0.4-0.4-0.7-0.2-1.1
	c0.7-0.8,0.9-2,0.5-3c-0.1-0.2-0.3-0.4-0.3-0.6L57,51.7c0.1,1.4-0.8,2.6-0.4,4.1v0.1c-4.1-3.1-8.5-5.8-13.2-8l-0.4,1
	c1.5,0.6,2.9,1.3,4.3,2.2c1.4,0.6,2.7,1.3,4,2.1c5.4,3,9,8,11.4,13.5c0,0.4,0.4,0.9,0.2,1.4c-0.9-1.1-1.9-2.1-3-3
	c-0.2-1.9-1.3-3.5-3-4.4c-0.6-0.9-1.9-1-2.9-1.2l-14.4-0.1c-11.9-0.3-22.6,0.2-34.2,0c-1.6-0.2-3.6-0.7-4.1-2.4
	c-0.3-0.7-0.3-1.5,0-2.2c0.4-0.7,1.2-1.1,2-1.1c0.6,0.2,1.1,0.6,1.4,1.1c0,0.5-0.4,1-0.6,1.4c0,0.2,0.2,0.5,0.5,0.4
	c0.5-0.3,0.9-0.7,1-1.3c0-0.3,0.2-0.7-0.1-0.9c-0.3-0.8-1-1.4-1.9-1.6c-1-0.1-2,0.2-2.7,0.9c-1,0.8-0.9,2.2-0.6,3.4
	c0.8,1.8,2.4,3,4.3,3.2L43,60.5c3.8,0.2,8-0.4,11.8,0.3c1.5,0.4,2.7,1.5,3.2,3c0,0.1-0.2,0-0.3,0c-3.4-2-7.4-2.9-11.3-2.3
	c-1.5,0.1-3,0.4-4.4,0.9c-0.7,0.1-1.4-0.1-1.9-0.6c-1.4-1.3-3.9-1.2-5.8-0.7c0,0.1,0,0.2,0,0.3c1.9-0.2,3.1,1.5,4.8,1.7
	c0.4,0.1,0.7-0.4,1.1,0c-1.8,1-3.6,1.8-5.5,2.5c-0.6-0.1-0.9-0.7-1.4-1c-0.8-0.8-2.1-0.5-3.2-0.6c-0.4,0.1-0.7-0.2-0.9,0
	c0.4,0.6,1,1.1,1.7,1.3c1,0.4,2.1,0,3,0.6c-0.3,0.2-0.5,0.4-0.8,0.6c-1.9,0.7-3.4,2.4-5.5,2.3c-2.1,0.3-4.3-0.4-5.9-1.9
	c-0.7-1.5-2.3-2.5-4-2.3c-0.1,0.1-0.3,0.1-0.2,0.3c0.9,0.5,1.5,1.6,2.4,2.2c0.6,0.7,1.6,0,2.1,0.8c0.8,0.5,1.7,0.9,2.6,1.1
	c0.7,0.3,1.4,0.4,2.1,0.6l-0.3,0.2c-3.6,1.2-7.8,1.3-11.8,1.2c-1.2,0-2.3-0.4-3.5-0.4c0.3,0.3,0.6,0.5,1,0.6
	c-0.3,0.2-0.7,0.3-1.1,0.3c-0.5,0.1-1,0.2-1.5,0.4c-0.6,0-1.2,0.1-1.7,0.4c-0.6,0.7-1.4,1.4-2.3,1.8c0,0.2,0,0.4,0.2,0.4
	c0.8-0.3,1.7-0.1,2.5-0.4c1.3-0.1,2.1-1.6,3.1-2.2c1.1-0.9,2.7-0.7,4-0.5c0.8,0.2-0.1,0.5,0.2,1c0.3,0.3,0.6,0.6,1,0.5
	c0.1-0.1,0.2-0.2,0.3-0.2c0.2-0.3,0.2-0.7,0-1c0.6-0.4,1.3,0,1.9-0.2c1.5,0,3-0.4,4.5-0.4c0.2,0,0.5-0.3,0.8,0
	c-0.1,0.3-0.5,0.4-0.4,0.8s0.5,0.5,0.8,0.6c0.4-0.2,0.8-0.4,0.6-1c-0.1-0.3-0.4-0.3-0.6-0.4c0.8-0.4,1.8-0.5,2.6-0.9
	c0.6-0.1,1.1-0.3,1.7-0.6c0.5,0,1-0.5,1.4-0.3c-0.2,0.7-0.4,1.4-0.7,2c-0.6,2.1-1.1,4.9,0,7c0.1,0,0.2,0,0.2-0.1
	c-0.8-2.1-0.4-4.6,0.4-6.6c0.6-3.4,4-4.4,6.5-5.7l0.1,0.2c-0.7,1.7-1.7,3.3-1.5,5.4c0.1,0.4-0.2,0.7,0,1c0.7-0.5,1.2-1.1,1.5-1.8
	c0.3-1.8-0.8-4,1.1-5.3c3.3-1.3,6.3-3,10.1-3c0.1,0.1,0.4-0.1,0.4,0.2c-0.8,0.9-1.9,1.7-2.3,2.8c-1.3,1.8-1.2,4.8-0.7,6.9
	c0.4,1.2-0.7,1.9-1.2,2.9c-0.3,0.3-0.3,0.9-0.5,1.3l0.8,0.1c0.8-0.7,1.2-1.6,1.3-2.6c0.1,0.4,0.4,0.7,0.8,0.8
	c0.3-0.4-0.2-0.8-0.3-1.2c0.6-0.4,0.9,0.4,1.4,0.6c0.8,0.3,1.6,0.5,2.4,0.6l0.3-0.3c-0.9-1.4-2.6-1.6-4.1-1.7
	c-0.7-1.4-0.9-3-0.7-4.6c0.1-0.9,0.4-1.7,0.8-2.5c0.3-0.6,0.7-1.1,1.1-1.5c0.7-0.7,1.6-1.1,2.5-1.4h0.1v0.1c-1.1,0.8-1.2,2-1.8,3
	c-0.8,1-0.9,2.3-0.4,3.5c0.2,0.5,0.1,1.3,0.7,1.7c0.4-0.8,0.7-1.6,0.8-2.4c-0.1-1.3-0.9-2.6-0.2-3.8c0.4-0.9,1.2-1.5,2.1-1.8
	c2.2-0.2,4.1,0.9,6,1.8c0.4,0.3,1.1,0.5,1.2,1.1c0,1.8-1.5,3.2-3.3,3.2c-0.6,0-1.3-0.2-1.8-0.6c-0.6-0.7-0.8-1.6-0.6-2.4
	c0.4-0.6,1.1-0.8,1.8-0.6c0.4,0.2,0.8,0.6,1.3,0.4c0.2-0.1,0.3-0.4,0.2-0.6c-0.4-0.2-0.6-0.8-1.2-0.9c-0.8-0.2-1.6,0-2.2,0.4
	c-0.8,0.7-1.2,1.8-0.9,2.8c0.3,1.2,1.2,2.2,2.5,2.5c1.8,0.5,3.8-0.2,4.9-1.7c0.4-0.5,0.7-1.1,0.9-1.7c1.9,1.3,3.3,3.1,4.1,5.3
	c0.1,0.7,0.1,1.3,0,2l1.4,0.1c-0.1-0.3,0-0.7,0.1-1c0.6-2.6,2-4.9,4.1-6.6c0.7-0.4,0.5,0.5,0.7,0.8c0.6,1.5,1.9,2.6,3.4,3
	c1.6,0.4,3.2-0.2,4.3-1.4c0.5-1,1.2-2.4,0.3-3.4c-0.5-0.7-1.3-1-2.2-1c-0.9,0.1-1.8,0.6-2.2,1.5c0,0.3,0,0.7,0.2,0.8
	c0.2,0,0.5,0,0.6-0.2c0.1-0.6,0.6-0.9,1.1-1.2c0.4-0.2,0.9-0.1,1.3,0.2c0.4,0.4,0.6,1,0.6,1.6c-0.1,0.8-0.6,1.5-1.3,1.9
	c-1.2,0.5-2.7,0.4-3.8-0.4c-0.4-0.5-0.8-1.1-1.1-1.8c-0.2-0.6-0.2-1.2,0-1.8c1.7-1.1,3.7-1.8,5.7-2c0.8,0.2,1.6,0.7,2.1,1.3
	c1.8,1.9-0.4,4.6,0.9,6.6c0.5-0.1,0.5-0.7,0.7-1.1c0.6-1.4-0.2-3-0.5-4.4c-0.4-0.9-0.9-1.7-1.5-2.4c0.2-0.1,0.3-0.1,0.5-0.1
	c0.9,0.6,1.7,1.3,2.4,2.1c1.2,2,1.7,4.3,1.5,6.6C83,73,81.7,73.6,80.7,74c-0.4,0.3-0.8,0.8-1,1.3c0.5,0.3,1.2,0,1.6-0.2
	c0.8-0.3,1.2-1.2,1.7-1.7c0.1,0,0,0.2,0.1,0.2c0,0.4-0.2,1,0.2,1.2c0.2-0.7,0.3-1.3,0.4-2c0.4,0.6,0.7,1.3,0.8,2
	c0.4,0.7,1,1.7,1.9,1.8c0.2-0.4,0-0.7-0.1-1c-0.1-1-1-1.5-1.5-2.2c-1.4-2-0.7-5-1.8-7.1c-0.5-1.1-1.2-2.2-2.1-3l0.2-0.2
	c1.8,0.1,3.6,0.5,5.3,1c2.2,1.1,5.3,0.8,6.4,3.7c0.4,1.6,1.2,3.1,2.3,4.3l0.1-0.1c0.2-0.5,0.2-1,0-1.5c-0.2-2-2-2.5-2.9-4.2l0.1-0.2
	c1,0.3,2,0.6,2.9,0.9c3.2,1.1,5.4,3.9,5.8,7.2c0,2.4-0.5,4.7-1.5,6.8c-0.1,0.3-0.7,0.7-0.3,1c0.4-0.3,0.5-0.8,0.8-1.2
	c1.4-2.4,1.9-5.3,1.3-8c0-0.5-0.6-0.9-0.4-1.4c0.2,0.2,0.4,0.3,0.7,0.4c0.2-0.2,0.6-0.2,0.8-0.4s0.2-0.5,0-0.7
	c-0.3-0.3-0.7-0.4-1.2-0.3c-0.2,0.2-0.4,0.5-0.5,0.9c-0.4-0.8-0.8-1.5-1.4-2.1l0.1-0.1c1.8,0.6,3.4,1.5,5.2,2
	c0.4,0.3,0.9,0.4,1.4,0.4c1.6,0.5,3.2,0.9,4.9,1.2c1.2-0.1,2.2,0.4,3.4,0.2v-0.1l0,0c-0.4-0.6-1.4,0-1.9-0.4c-2.7-0.3-5.3-1-7.8-2
	c0-0.1,0.2-0.1,0.3-0.1c0.4-0.2,0.7-0.6,0.6-1c-0.2-0.3-0.6-0.5-0.9-0.4s-0.5,0.4-0.6,0.7c0.1,0.3,0.3,0.6,0.6,0.8
	c-0.1,0.1-0.2,0-0.4,0c-1.2-0.6-2.4-1.1-3.6-1.6c-0.4-0.1-0.8-0.4-1.2-0.5c-0.9-0.4-1.8-0.9-2.7-1.2c-2.6-1.2-5.3-2.2-8.1-3L87,63.6
	c-1-0.3-2-0.5-3-0.8c-3.4-0.8-7.9-0.9-10.8,0.9c-0.5-0.2-0.8,0.6-1,0.1c0.8-2.2,3.3-2.9,5.4-3c15.9-0.2,30.8-0.3,46.5-0.5
	c1.8,0.1,3.6-0.7,4.6-2.3C128.8,56.6,128.9,55.2,128.4,54L128.4,54z M65.3,68.7c-0.2,0.4-0.4,0.9-0.4,1.4l-0.2,0.1
	c0.1-0.6-0.5-1-0.3-1.6c-0.3-0.5-0.3-1.1-0.6-1.6s0.3-0.9,0.6-1.4c0.6,0.2,0.8,0.8,1.2,1.2C65.8,67.6,65.3,68.1,65.3,68.7L65.3,68.7
	z"/>
<path class="st0" d="M108.4,66.2c0,0.1,0.2,0.2,0.2,0.4c-1.5,1.2-3.4,1.7-5.3,1.7c-0.2,0-0.3,0.2-0.5,0.1s-0.2-0.2-0.1-0.3
	C104.1,66.5,106.3,65.8,108.4,66.2L108.4,66.2z"/>
<path class="st0" d="M102,66.8c0.2,0.6-0.2,0.9-0.6,1.1c-0.4-0.1-0.7-0.3-0.9-0.6c-0.1-0.3,0.2-0.5,0.3-0.7c0.3-0.3,0.8-0.3,1.1,0
	C101.9,66.7,102,66.7,102,66.8z"/>
<path class="st0" d="M26.6,66.9c0.1,0.3,0,0.6-0.2,0.8c-0.2,0.2-0.5,0.3-0.7,0.2c-0.3,0-0.4-0.4-0.5-0.6c0-0.3,0.2-0.6,0.5-0.8
	C26,66.6,26.3,66.6,26.6,66.9L26.6,66.9z"/>
<path class="st0" d="M19.5,69.5v0.3c-0.9,0.2-1.9,0-2.6-0.6c-0.5-0.8-1.2-1.5-2.1-2c0-0.1-0.2-0.3,0-0.4
	C16.8,66.8,18,68.4,19.5,69.5z"/>
<path class="st0" d="M114.4,66.9c-0.9,1.4-1.7,3-3.3,3.6c-0.3,0-0.5,0.4-0.8,0.1c0.7-1.7,1.9-3,3.5-3.8
	C114,66.8,114.2,66.8,114.4,66.9L114.4,66.9z"/>
<path class="st0" d="M28.9,67.4c0,0.4-0.3,0.5-0.6,0.8c-0.3,0-0.5-0.2-0.7-0.4c-0.2-0.4,0.2-0.6,0.4-0.8
	C28.4,66.9,28.7,67.1,28.9,67.4z"/>
<path class="st0" d="M119.4,67.6c-0.4,0.5-0.2,1.3-0.6,1.8c-0.8,0.9-1.5,2-2.7,2.2c-0.2-0.4,0.3-0.8,0.5-1.2
	c0.5-1.3,1.4-2.4,2.6-3.1L119.4,67.6L119.4,67.6z"/>
<path class="st0" d="M7.2,68c0.2,0.3,0.2,0.6,0,0.9c-0.3,0.2-0.6,0.3-0.9,0.2c-0.4-0.2-0.5-0.6-0.3-1l0,0C6.2,67.6,7,67.4,7.2,68
	L7.2,68z"/>
<path class="st0" d="M4.9,68.4c0,0.2,0.2,0.4,0.1,0.6s-0.3,0.4-0.6,0.5C4,69.6,3.6,69.3,3.5,69c-0.1-0.3,0.1-0.7,0.4-0.8
	C4.3,68,4.8,68.1,4.9,68.4L4.9,68.4z"/>
<path class="st0" d="M9.6,68.7c0.1,0.3,0.2,0.9-0.3,1c-0.6,0.2-0.9-0.2-1.2-0.5c0-0.3,0.2-0.6,0.5-0.8C8.9,68.3,9.3,68.4,9.6,68.7
	L9.6,68.7z"/>
<path class="st0" d="M16.1,69.2c0,0.3,0,0.7-0.3,0.8s-0.5,0.1-0.8,0.1c-0.1-0.2-0.5-0.4-0.3-0.7c0.1-0.2,0.3-0.3,0.5-0.4
	C15.6,69,16,68.9,16.1,69.2L16.1,69.2z"/>
<path class="st0" d="M123.2,69.5c-0.1,0.3-0.3,0.6-0.6,0.6s-0.7-0.1-0.9-0.4s0.2-0.7,0.5-0.8S123.1,69,123.2,69.5L123.2,69.5z"/>
<path class="st0" d="M116,69.7c0,0.3-0.3,0.6-0.5,0.7c-0.5,0.2-1-0.1-1.2-0.6c0.1-0.3,0.3-0.6,0.7-0.7C115.4,69,115.8,69.3,116,69.7
	L116,69.7z"/>
<path class="st0" d="M120.9,69.6c0,0.3-0.1,0.5-0.4,0.7s-0.7,0.1-1-0.2c-0.4-0.3-0.1-0.6,0.2-0.8S120.7,69.1,120.9,69.6L120.9,69.6z
	"/>
<path class="st0" d="M6.2,70.3c0.1,0.4-0.1,0.8-0.5,1c-0.4,0-0.7-0.2-0.9-0.6c-0.1-0.3,0.1-0.7,0.4-0.8C5.6,69.8,6,69.9,6.2,70.3
	L6.2,70.3z"/>
<path class="st0" d="M114,70.7c0.1,0.4-0.2,0.9-0.6,1c-0.3,0.1-0.5-0.1-0.8-0.3s-0.4-0.6,0-0.8c0.2-0.4,0.7-0.5,1.1-0.2
	C113.9,70.4,114,70.5,114,70.7L114,70.7z"/>
<path class="st0" d="M27.5,71.2c0.2,0.4-0.3,0.5-0.4,0.8c-0.2,0.1-0.5,0.1-0.6,0s-0.4-0.5-0.3-0.8c0.2-0.2,0.3-0.3,0.5-0.4
	C27.1,70.6,27.3,71,27.5,71.2L27.5,71.2z"/>
<path class="st0" d="M122.5,71.4c0.1,0.3-0.2,0.4-0.2,0.6c-0.3,0.2-0.6,0.2-0.9,0.2c-0.4-0.2-0.4-0.5-0.4-0.9
	c0.2-0.2,0.3-0.4,0.6-0.4C122,70.8,122.3,71.1,122.5,71.4z"/>
<path class="st0" d="M120,71.6c0.2,0.5-0.3,0.7-0.6,0.8c-0.2,0-0.4-0.1-0.4,0.2c0.9,0.6,1.8,1.3,2.5,2.1V75
	c-1.5,0.1-2.9-0.5-3.9-1.5c-0.3-0.2-0.8-0.2-1.1-0.5c0.5-0.5,1.5-0.3,2.2-0.4c0.5-0.6-0.6-1,0.1-1.4c0.2,0,0.4-0.3,0.7-0.2
	C119.6,71.1,119.9,71.3,120,71.6L120,71.6z"/>
<path class="st0" d="M103.8,71.6c0.1,0.2-0.2,0.4-0.2,0.6c-0.2,0.2-0.6,0.3-0.9,0.2c-0.2-0.3-0.5-0.5-0.4-0.9
	c0.2-0.4,0.7-0.5,1.1-0.3C103.6,71.3,103.8,71.4,103.8,71.6z"/>
<path class="st0" d="M15.1,73c-0.1,0.4-0.3,0.6-0.7,0.6c-0.3,0-0.6-0.2-0.7-0.5c0-0.3,0.2-0.4,0.2-0.6C14.4,72.2,15.2,72.4,15.1,73
	L15.1,73z"/>
<path class="st0" d="M18.3,72.5c0,0.6-0.6,0.9-0.8,1.4c-0.5,1.4-1.7,2.4-3.2,2.6c-0.2-0.4,0.5-0.8,0.7-1.2c0.6-1.4,1.9-2.1,3-2.9
	L18.3,72.5L18.3,72.5z"/>
<path class="st0" d="M102.9,73c0,0.4-0.4,0.8-0.7,0.9s-0.6-0.2-0.8-0.3c-0.3-0.3-0.1-0.6,0-1C101.8,72.1,102.5,72.5,102.9,73
	L102.9,73z"/>
<path class="st0" d="M105.3,73.3c0,0.4-0.3,0.8-0.7,0.9c-0.1-0.1-0.3,0-0.4-0.1c-0.3-0.1-0.5-0.4-0.5-0.7c0.2-0.2,0.3-0.5,0.6-0.6
	S105.3,72.8,105.3,73.3z"/>
<path class="st0" d="M24.5,73.3c0,0.4-0.2,0.7-0.6,0.8c-0.3,0-0.6-0.2-0.8-0.5c-0.1-0.4,0.3-0.6,0.5-0.8
	C24.1,72.7,24.2,73,24.5,73.3L24.5,73.3z"/>
<path class="st0" d="M27.2,73.4c-0.1,0.3-0.4,0.6-0.8,0.7c-0.3-0.1-0.6-0.2-0.7-0.5s0.3-0.6,0.5-0.8C26.7,72.8,27.1,73,27.2,73.4z"
	/>
<path class="st0" d="M113.8,76.2c0.2,0.2,0.6,0.4,0.5,0.6c-0.6,0.3-1.2-0.4-1.7-0.6c-0.9-0.9-1.6-2-2.1-3.2c0.4-0.4,0.8,0.1,1.1,0.2
	C112.6,74.1,113.3,75.1,113.8,76.2z"/>
<path class="st0" d="M115.3,73.4c0.1,0.3,0.1,0.6-0.1,0.9c-0.2,0.4-0.8,0.3-1.1,0.2c-0.2-0.2-0.6-0.6-0.3-0.9s0.5-0.4,0.8-0.5
	S115,73.3,115.3,73.4L115.3,73.4z"/>
<path class="st0" d="M30.9,74.5c0,0.3,0.1,0.8-0.3,1c-0.4,0.1-0.8-0.1-1-0.5l0,0c-0.2-0.5,0.2-0.6,0.5-0.8
	C30.4,74.1,30.6,74.3,30.9,74.5L30.9,74.5z"/>
<path class="st0" d="M105.2,77.1c0.6,0.8,0.9,1.8,1,2.8c-0.1,0.3,0.2,0.6,0,0.8H106c-1.8-1.3-2.2-3.1-2.9-4.9
	c-0.1-0.1-0.2-0.2-0.2-0.4c0.4-0.4,0.7,0.4,1.1,0.5L105.2,77.1L105.2,77.1z"/>
<path class="st0" d="M36,75.7L36,75.7c-1.6,1.2-3.8,1.9-5.6,0.8c0-0.2,0-0.3,0.2-0.4c1.1-0.5,2.3-0.8,3.5-0.8L36,75.7L36,75.7z"/>
<path class="st0" d="M27,75.9c-1.3,0.8-2.6,2.5-4.2,2.9c-0.3,0.1-0.5,0.6-0.9,0.3c0.7-2.2,3.1-3.3,5.2-3.5L27,75.9L27,75.9z"/>
<path class="st0" d="M102.9,77.7c0.1,0.3,0,0.8-0.3,0.8c-0.2,0.2-0.5,0.2-0.8,0c-0.4-0.2-0.4-0.5-0.4-0.8s0.4-0.3,0.6-0.4
	C102.4,77.4,102.7,77.4,102.9,77.7L102.9,77.7z"/>
<path class="st0" d="M99.6,77.9c-0.3,0.5-0.8,0.9-1.4,1c-1.3,0.5-2.6-0.2-3.8-0.5c0-0.3,0.4-0.2,0.6-0.4c1.3-0.4,2.7-0.4,4-0.2
	C99.2,77.7,99.4,77.7,99.6,77.9L99.6,77.9z"/>
<path class="st0" d="M27,79.1c-0.1,0.2-0.2,0.5-0.5,0.6s-0.6,0-0.8-0.2c-0.1-0.2-0.4-0.4-0.2-0.7s0.4-0.4,0.6-0.4
	C26.6,78.4,26.9,78.7,27,79.1L27,79.1z"/>
<path class="st0" d="M29.3,79.4c-0.1,0.3-0.3,0.6-0.5,0.8c-0.3,0-0.6-0.1-0.8-0.3c-0.2-0.2-0.2-0.5-0.1-0.8c0.1-0.2,0.4-0.2,0.5-0.4
	C28.8,78.7,29.2,79.1,29.3,79.4L29.3,79.4z"/>
<path class="st0" d="M102.1,79.8c0,0.3-0.1,0.6-0.3,0.8c-0.2,0.3-0.6,0.3-0.9,0.2c-0.3,0-0.4-0.4-0.5-0.6s0.2-0.5,0.3-0.8
	c0.4-0.3,0.9-0.2,1.2,0.2C102,79.6,102.1,79.7,102.1,79.8z"/>
<path class="st0" d="M103.9,79.7c0,0.2,0.2,0.4,0.1,0.6c-0.2,0.2-0.4,0.7-0.9,0.5c-0.2,0.1-0.4-0.2-0.5-0.3c-0.2-0.4,0-0.8,0.3-1
	c0,0,0.1,0,0.1-0.1C103.4,79.3,103.7,79.6,103.9,79.7z"/>
<path class="st0" d="M27.9,80.9c0.1,0.4-0.1,0.8-0.4,1.1c-0.4,0.1-1,0.1-1.2-0.4c-0.1-0.4,0.1-0.9,0.5-1.2
	C27.3,80.3,27.7,80.5,27.9,80.9L27.9,80.9z"/>
<path class="st0" d="M30.2,80.7c-0.1,1.1-0.3,2.5-1.4,3.1c-0.6,0.1-1.3,0.7-1.9,0.3V84C27.7,82.8,29.2,81.9,30.2,80.7L30.2,80.7z"/>
<path class="st0" d="M95.9,81.7c0.2,0.2-0.1,0.4-0.2,0.6s-0.7,0.2-1,0s-0.3-0.5-0.2-0.8c0.1-0.2,0.3-0.4,0.5-0.4
	C95.3,81.1,95.7,81.3,95.9,81.7L95.9,81.7z"/>
<path class="st0" d="M34.1,83.5c0.5,0.9,0.2,2.2,0.5,3.2c-0.7,0.1-1-0.7-1.4-1.1c-0.9-1.2-0.8-2.8-1.2-4.2c0.1-0.1,0.2-0.1,0.3-0.1
	c0.6,0.5,1.1,1.1,1.5,1.7C33.8,83.3,34.2,83.3,34.1,83.5L34.1,83.5z"/>
<path class="st0" d="M97.9,82c0,0.3-0.4,0.4-0.6,0.6c-0.3,0-0.5-0.2-0.8-0.4c-0.1-0.4,0.2-0.5,0.4-0.7c0.3-0.1,0.7,0,0.9,0.3
	C97.9,81.9,97.9,82,97.9,82L97.9,82z"/>
<path class="st0" d="M102.6,85.5c0,0.1,0,0.4-0.2,0.3h-0.2c-1.2-1-2.3-2.2-2.1-3.8h0.2C101.4,82.9,102.5,83.9,102.6,85.5L102.6,85.5
	z"/>
<path class="st0" d="M99.6,84.3c0,0.3-0.1,0.6-0.4,0.8c-0.4,0.1-1.1,0.1-1.2-0.5c0-0.4,0.4-0.6,0.6-0.8
	C99.1,83.6,99.5,83.8,99.6,84.3C99.7,84.3,99.7,84.3,99.6,84.3L99.6,84.3z"/>
<path class="st0" d="M97,85.1c-0.6,1.5-2.1,2.2-3.1,3.4c-0.2-0.1-0.1-0.4-0.1-0.6c0.4-1.6,1.5-2.9,3.1-3.6
	C97.5,84.3,96.9,84.8,97,85.1z"/>
<path class="st0" d="M100,86.3c0,0.4-0.4,0.5-0.6,0.7c-0.3,0-0.7-0.2-0.9-0.4c0-0.4,0.3-0.5,0.5-0.7C99.5,85.8,99.8,86,100,86.3z"/>
<path class="st0" d="M70.5,13.8c0.6,0,1,0.4,1,1s-0.4,1-1,1H58.7c-0.6,0-1-0.4-1-1s0.4-1,1-1H70.5z M62.1,15.5
	c1.2,0,0.1-1.4-0.6-1.4h-1.2c-1.2,0-0.1,1.4,0.6,1.4H62.1z M67,15.5c1.2,0,0.1-1.4-0.6-1.4h-1.2c-1.2,0-0.1,1.4,0.6,1.4H67z
	 M70.5,14.1h-0.4c-1.2,0-0.2,1.4,0.4,1.4S71.3,14.1,70.5,14.1z"/>
<path class="st0" d="M69.4,27.3l2.3,0.9l2.2-0.9L73,30.6l1.8-0.4l-0.6,2l0.6,1.9l-1.6-0.4l0.7,3.6l-2.2-0.9l-2.3,0.9l0.9-3.6
	l-1.8,0.5l0.5-2l-0.5-1.9l1.7,0.3L69.4,27.3L69.4,27.3z M72.7,33.3c0.5,0,0.6-0.7,0.6-1.3c0-1.4-1.1,0-1.6-1.3
	c-0.4,1.1-1.5,0.1-1.5,1.2c0,0.8,0,1.3,0.8,1.3L72.7,33.3z M70.5,32c0,0.5,0.7,0.2,1.2,0.2S73,32.5,73,32c0-0.7-0.7-0.5-1.2-0.5
	S70.6,31.3,70.5,32L70.5,32z"/>
<polygon class="st0" points="64.2,32.1 64.2,31.7 63.8,31.6 64.1,31.3 63.9,31 64.3,31 64.5,30.6 64.8,31 65.1,31 64.9,31.3 
	65.3,31.6 64.9,31.7 64.9,32.1 64.5,31.9 "/>
<polygon class="st0" points="62.4,34.4 62.4,34 62,33.9 62.3,33.6 62.2,33.2 62.5,33.3 62.8,32.9 63,33.3 63.4,33.2 63.2,33.6 
	63.5,33.9 63.1,34 63.1,34.4 62.8,34.1 "/>
<polygon class="st0" points="65.4,34.1 65.4,33.7 65,33.6 65.3,33.3 65.1,33 65.5,33 65.7,32.6 66,33 66.4,33 66.2,33.3 66.5,33.6 
	66.1,33.7 66.1,34.1 65.7,33.8 "/>
<polygon class="st0" points="65.7,35.8 65.7,35.5 65.5,35.5 65.7,35.3 65.6,35.1 65.8,35.2 65.9,34.9 66.1,35.1 66.3,35.1 
	66.2,35.3 66.3,35.5 66.1,35.5 66.1,35.8 65.9,35.6 "/>
<polygon class="st0" points="63,37.7 63,37 62.3,36.8 62.8,36.3 62.5,35.7 63.2,35.8 63.6,35.1 64,35.8 64.7,35.7 64.3,36.3 
	64.8,36.8 64.2,37 64.2,37.7 63.6,37.2 "/>
<polygon class="st0" points="64.4,0 65.8,3.4 69.3,2.4 67.5,5.6 70.5,7.8 66.9,8.4 67.1,12.1 64.4,9.6 61.6,12.1 61.9,8.4 58.2,7.8 
	61.2,5.6 59.5,2.4 63,3.4 "/>
<path class="st0" d="M51.6,77c-0.4,0.2-0.6,0.3-0.5,0.7l0.5,2.1c0.1,0.5,0.1,1-0.1,1.4c-0.4,0.4-0.9,0.7-1.4,0.8
	c-0.6,0.2-1.1,0.2-1.7,0c-0.5-0.2-0.8-0.6-0.8-1L47,78.8c-0.1-0.6-0.3-0.5-0.8-0.4v-0.2l2.7-0.6v0.2c-0.5,0.1-0.8,0.2-0.6,0.8
	l0.5,2.2c0.1,0.4,0.3,1.3,1.4,1c0.7-0.1,1.2-0.7,1.2-1.4c0-0.1,0-0.3-0.1-0.4l-0.5-2c-0.1-0.4-0.2-0.6-0.9-0.5v-0.2L51.6,77L51.6,77
	L51.6,77z"/>
<path class="st0" d="M55.5,77.5c-0.3-0.7-1.1-1-1.8-0.9c-0.4,0.1-0.8,0.4-0.7,0.8s0.3,0.5,1,0.6l1.3,0.2c0.5,0.1,1,0.5,1.1,1
	c0.1,0.6-0.2,1.5-1.7,1.8c-0.5,0.1-0.9,0.1-1.4,0.1c-0.2,0-0.2,0.2-0.2,0.3l-0.2,0.1l-0.4-1.6l0.2-0.1c0.3,0.8,1.1,1.2,1.9,1.1
	c1-0.2,0.8-0.9,0.8-1c-0.1-0.4-0.5-0.5-1.1-0.6l-0.6-0.1c-1.5-0.2-1.6-0.8-1.7-1.1s0-1.4,1.5-1.7c0.4,0,0.9,0,1.3,0
	c0.2,0,0.2-0.2,0.2-0.3l0.2-0.1L55.5,77.5L55.5,77.5L55.5,77.5z"/>
<path class="st0" d="M60.8,80.1l-2.9,0.3v-0.2c0.6-0.1,0.8-0.1,0.7-0.7L58.3,76c-0.6,0.1-1.4,0.2-1.4,1.3h-0.2l-0.1-1.4l4.8-0.5
	l0.1,1.4h-0.2c-0.3-1.1-1.1-1-1.7-1l0.3,3.6C60,80,60.2,80,60.7,80L60.8,80.1L60.8,80.1z"/>
<path class="st0" d="M67.5,80.1h-1.7l-1.6-2.2H64v1.3c0,0.5,0.2,0.6,0.7,0.6V80h-2.8v-0.2c0.6,0,0.7-0.1,0.7-0.6l0.1-3
	c0-0.6-0.2-0.6-0.7-0.6v-0.2l2.6,0.1c0.6,0,2.3,0.1,2.3,1.2c0,0.8-0.8,1-1.3,1.1l1.6,2c0.1,0.1,0.2,0.1,0.3,0.1V80.1L67.5,80.1z
	 M64,77.7c1.1,0,1.5-0.1,1.5-1c0.1-0.5-0.2-0.9-0.7-1c-0.1,0-0.2,0-0.3,0c-0.4,0-0.5,0.1-0.5,0.3V77.7L64,77.7z"/>
<path class="st0" d="M72.8,80.8l-2.6-0.3v-0.2c0.5,0,0.7,0,0.7-0.2c0-0.3-0.1-0.6-0.3-0.9L68.8,79c-0.2,0.3-0.3,0.5-0.5,0.8
	c0,0.3,0.3,0.3,0.6,0.4v0.2l-1.6-0.2V80c0.4,0,0.6-0.2,0.9-0.7l2.2-3.5h0.2l1.3,3.8c0.3,0.8,0.4,1,0.8,1L72.8,80.8L72.8,80.8z
	 M70.5,78.9l-0.6-1.7l-1,1.5L70.5,78.9L70.5,78.9z"/>
<path class="st0" d="M77.5,81.7l-4.6-0.8v-0.2c0.4,0,0.7,0.1,0.8-0.3l0.6-3.2c0.1-0.4-0.2-0.5-0.6-0.6v-0.2l2.8,0.5v0.2
	c-0.6-0.1-0.8-0.1-0.9,0.5L75,80.7c-0.1,0.3,0.1,0.4,0.6,0.5c0.9,0.2,1.8-0.2,2.3-0.9h0.2L77.5,81.7L77.5,81.7z"/>
<path class="st0" d="M80.6,82.4l-2.8-0.6v-0.2c0.4,0.1,0.8,0.1,0.8-0.3l0.7-3.2c0.1-0.4-0.3-0.5-0.6-0.6v-0.2l2.8,0.6v0.2
	C81,78,80.7,78,80.6,78.4l-0.7,3.2c-0.1,0.4,0.2,0.5,0.7,0.6V82.4L80.6,82.4z"/>
<path class="st0" d="M86.2,83.2l-2.6-0.3v-0.2c0.5,0,0.7,0,0.7-0.2c0-0.3-0.1-0.6-0.3-0.9l-1.8-0.2c-0.2,0.3-0.3,0.5-0.4,0.8
	c0,0.3,0.4,0.3,0.6,0.4v0.2l-1.6-0.2v-0.2c0.4,0,0.6-0.2,0.9-0.7l2.2-3.5H84l1.4,3.7c0.3,0.8,0.4,1,0.8,1L86.2,83.2L86.2,83.2z
	 M83.9,81.3l-0.7-1.7l-0.9,1.6L83.9,81.3L83.9,81.3z"/>
<path class="st0" d="M65.5,28.4c0-1.6-0.9-0.1-1.4-1.5c-0.4,1.2-1.5,0.2-1.5,1.4c0,0.3,0.1,0.7,0.4,0.9v0.5c0,0.1,0.1,0.2,0.2,0.2
	h1.7c0.1,0,0.2-0.1,0.2-0.2l0,0v-0.5C65.4,29,65.5,28.7,65.5,28.4z M64.1,28.7c-0.5,0-1.1,0.3-1.1-0.2c0-0.8,0.5-0.6,1-0.6
	s1.2-0.2,1.2,0.6C65.2,29,64.5,28.7,64.1,28.7L64.1,28.7z"/>
<path class="st0" d="M79.7,48.4c0.4,0,0.6-0.4,0.6-0.7c0-0.4-0.4-0.6-0.7-0.6c-0.3,0-0.6,0.3-0.6,0.6C79,48.1,79.3,48.4,79.7,48.4z"
	/>
<path class="st0" d="M76.2,24.2c-0.1,0.2-0.3,0.5-0.3,0.7s0.1,0.4,0.3,0.4c0.2,0,0.4-0.1,0.4-0.3v-0.1L76.2,24.2z"/>
<path class="st0" d="M52.2,24.2c-0.1,0.2-0.3,0.5-0.3,0.7s0.1,0.4,0.3,0.4s0.4-0.1,0.4-0.3v-0.1L52.2,24.2z"/>
<path class="st0" d="M58.2,24.2c-0.1,0.2-0.3,0.5-0.3,0.7s0.1,0.4,0.3,0.4s0.4-0.1,0.4-0.3v-0.1L58.2,24.2z"/>
<path class="st0" d="M64.2,24.2c-0.1,0.2-0.3,0.5-0.3,0.7s0.1,0.4,0.3,0.4c0.2,0,0.4-0.1,0.4-0.3v-0.1L64.2,24.2z"/>
<path class="st0" d="M70.2,24.2c-0.1,0.2-0.3,0.5-0.3,0.7s0.1,0.4,0.3,0.4c0.2,0,0.4-0.1,0.4-0.3v-0.1L70.2,24.2z"/>
<path class="st0" d="M52.2,32.4c0.1,0.2,0.3,0.5,0.3,0.7s-0.1,0.4-0.3,0.4s-0.4-0.1-0.4-0.3v-0.1L52.2,32.4z"/>
<path class="st0" d="M52.2,40.4c0.1,0.2,0.3,0.5,0.3,0.7s-0.1,0.4-0.3,0.4s-0.4-0.1-0.4-0.3v-0.1L52.2,40.4z"/>
<path class="st0" d="M53.2,46.8c0.1,0.2,0.3,0.5,0.3,0.7s-0.1,0.4-0.3,0.4s-0.4-0.1-0.4-0.3v-0.1L53.2,46.8z"/>
<path class="st0" d="M58.2,50.1c0.1,0.2,0.3,0.5,0.3,0.7s-0.1,0.4-0.3,0.4s-0.4-0.1-0.4-0.3v-0.1L58.2,50.1z"/>
<path class="st0" d="M76.5,32.4c-0.1,0.2-0.3,0.5-0.3,0.7s0.1,0.4,0.3,0.4s0.4-0.1,0.4-0.3v-0.1L76.5,32.4z"/>
<path class="st0" d="M76.5,40.4c-0.1,0.2-0.3,0.5-0.3,0.7s0.1,0.4,0.3,0.4s0.4-0.1,0.4-0.3v-0.1L76.5,40.4z"/>
<path class="st0" d="M75.5,46.8c-0.1,0.2-0.3,0.5-0.3,0.7s0.1,0.4,0.3,0.4s0.4-0.1,0.4-0.3v-0.1L75.5,46.8z"/>
<path class="st0" d="M70.5,50.1c-0.1,0.2-0.3,0.5-0.3,0.7s0.1,0.4,0.3,0.4s0.4-0.1,0.4-0.3v-0.1L70.5,50.1z"/>
<path class="st0" d="M64.4,53.7c-0.1,0.2-0.3,0.5-0.3,0.7s0.1,0.4,0.3,0.4s0.4-0.1,0.4-0.3v-0.1L64.4,53.7z"/>
<path class="st0" d="M74.1,41.8c0.1,0.1,0.3,0.2,0.5,0.1l0.2-0.6c0,0-0.3-0.3-0.4-0.3c-0.6,0.2-1.3,0.2-1.7,0.8c0,0.4,0.2,0.8,0.6,1
	c0.2-0.1,0.3,0.2,0.4,0.3c0,0.1,0,0.3-0.2,0.3c0,0,0,0-0.1,0c-0.4-0.5-1.2,0.2-1.6-0.4c0.2-0.6,0.4-1.2,0-1.8c0-0.1,0.2-0.2,0.1-0.3
	c-0.2-0.5-0.8-0.1-1.1-0.1c-0.5-0.1-1.1,0.2-1.4,0.7c0,0.2,0.1,0.4,0.3,0.6c0.2,0,0.2,0,0.3,0.2l-0.4,0.2c0.1,0.1,0.1,0.3,0.2,0.4
	c-0.3,0.1-0.5-0.3-0.6-0.5s0-0.8-0.4-0.9c-0.1,0-0.2,0.1-0.3,0.1c-0.1,0.2-0.2,0.4-0.2,0.6c0,0.2,0.1,0.5,0.2,0.7
	c0.5,0.4,1,0.9,1.4,1.4c-0.3,0.7-0.3,1.6-1.1,2c-0.2,0.1-0.3,0.4-0.2,0.6l0.2,0.2c0.5-0.3,1.4-0.3,1.4-1.2c0.2-0.4,0.4-0.7,0.7-1
	c0.4-0.1,0.7,0.1,0.9,0.4c-0.1,0.5-0.5,1-1,1.1c-0.1,0.1,0,0.2,0,0.3c0.2,0.3,0.6,0.2,0.8,0.1c0.6-0.4,0.9-1.2,1.5-1.4
	c0.1,0.4-0.8,0.5-0.2,0.9c0.3-0.1,0.8,0,1-0.4c-0.3-0.6,0.9-1,0.2-1.5c0-0.6,0.6-0.8,0.6-1.4c-0.2-0.6-0.9-0.6-1.1-1.2
	C73.6,41.6,73.9,41.6,74.1,41.8L74.1,41.8z"/>
<path class="st0" d="M46.6,48.7c0.4,0,0.6-0.4,0.6-0.7c0-0.4-0.4-0.6-0.7-0.6s-0.6,0.3-0.6,0.6C45.9,48.4,46.2,48.7,46.6,48.7z"/>
<path class="st0" d="M7.8,71.4c0.4,0,0.7-0.3,0.7-0.7c0-0.4-0.3-0.7-0.7-0.7C7.3,70,7,70.3,7,70.7C7,71,7.3,71.4,7.8,71.4
	C7.7,71.4,7.7,71.4,7.8,71.4z"/>
<path class="st0" d="M32.5,76.9L32.5,76.9L32.5,76.9L32.5,76.9L32.5,76.9L32.5,76.9L32.5,76.9L32.5,76.9L32.5,76.9L32.5,76.9
	L32.5,76.9L32.5,76.9L32.5,76.9L32.5,76.9L32.5,76.9L32.5,76.9z M32.4,76.8L32.4,76.8L32.4,76.8L32.4,76.8L32.4,76.8z"/>
<path class="st0" d="M32.6,76.8L32.6,76.8L32.6,76.8L32.6,76.8L32.6,76.8L32.6,76.8L32.6,76.8L32.6,76.8L32.6,76.8L32.6,76.8
	L32.6,76.8L32.6,76.8L32.6,76.8L32.6,76.8L32.6,76.8C32.5,76.8,32.5,76.8,32.6,76.8L32.6,76.8L32.6,76.8L32.6,76.8z"/>
<path class="st0" d="M32.8,76.7L32.8,76.7L32.8,76.7L32.8,76.7L32.8,76.7L32.8,76.7L32.8,76.7L32.8,76.7L32.8,76.7L32.8,76.7
	L32.8,76.7L32.8,76.7L32.8,76.7L32.8,76.7L32.8,76.7L32.8,76.7L32.8,76.7L32.8,76.7L32.8,76.7L32.8,76.7z"/>
<path class="st0" d="M32.8,76.9C32.9,76.9,32.9,76.8,32.8,76.9L32.8,76.9L32.8,76.9C32.9,76.8,32.9,76.9,32.8,76.9L32.8,76.9
	C33,76.9,33,76.9,32.8,76.9L32.8,76.9z M32.9,76.8L32.9,76.8L32.9,76.8L32.9,76.8L32.9,76.8L32.9,76.8L32.9,76.8z"/>
<path class="st0" d="M33,76.8L33,76.8L33,76.8L33,76.8C32.9,76.8,32.9,76.8,33,76.8L33,76.8L33,76.8L33,76.8L33,76.8L33,76.8
	L33,76.8L33,76.8L33,76.8L33,76.8L33,76.8L33,76.8z"/>
<path class="st0" d="M78.2,23.3L78.2,23.3H50.5l0,0l0,0v21.1c0,2.2,0.9,4,2.2,4.6l10.6,6.8c0.5,0.5,1.3,0.6,1.8,0.1l0,0L76,49
	c1.3-0.6,2.2-2.5,2.2-4.6V23.3L78.2,23.3z M77.4,44.7c0,1.4-0.7,2.8-1.8,3.7L65.2,55h-0.1c-0.5,0.4-1.1,0.4-1.6,0l-10.4-6.6
	c-1.1-0.9-1.8-2.2-1.8-3.7V24h26.1V44.7L77.4,44.7z"/>
<path class="st0" d="M68.1,54.1l0.3-0.2C68.3,53.9,68.2,54,68.1,54.1z"/>
<path class="st0" d="M47.2,82.9l-2.6,0.3V83c0.5-0.1,0.6-0.1,0.6-0.3c-0.1-0.3-0.3-0.6-0.5-0.8l-1.8,0.2c-0.1,0.3-0.2,0.6-0.3,0.9
	c0,0.3,0.4,0.2,0.7,0.2v0.2l-1.6,0.2v-0.2c0.4-0.1,0.5-0.3,0.7-0.9l1.4-3.9H44l2.2,3.3c0.5,0.7,0.6,0.9,1,0.8V82.9L47.2,82.9z
	 M44.6,81.6l-1-1.5L43,81.8L44.6,81.6L44.6,81.6z"/>
<path class="st0" d="M93,73c-0.5-1.2-1.5-2.1-2.7-2.5s-2.5,0-3.4,0.9c-1.4,1.2-0.4,3.1-0.4,4.6c0,0.3,0,0.6-0.3,0.7
	c-5.8-0.5-11.1-2-16.8-2.6C68,74,66.7,74,65.5,73.8l-1.6-0.2c-4.9,0-9.8,0.6-14.6,1.6c-1,0.3-2.1,0.4-3.1,0.8
	c-0.7-0.1-1.3,0.4-2,0.2l-1.3,0.3c-0.1,0-0.3,0-0.4,0c-0.6-1.6,1.3-2.6,0.7-4.2c-0.5-1-1.6-1.7-2.7-1.6c-1.3-0.1-2.5,0.5-3.2,1.6
	c-0.9,2,0.2,4.1,0.6,6c-0.1,0.6,0.6,1.4,0,1.9c-1.3-1-2.9-1.3-4.5-0.9c-0.5,0.2-1.3-0.1-1.6,0.5c1.7,0.9,3.9,0.8,5.8,0.7
	c0.2-0.1,0.4-0.1,0.6,0c0.2,1-0.2,2.4,0.4,3.4c0.8,0.9,1.9,1.3,3,1.3c3.7-0.1,6.9-1.2,10.2-2c0.5,0,0.9-0.3,1.5-0.3
	c1.9-0.4,3.8-0.7,5.7-0.7c-0.8,1.1-1.4,2.3-1.7,3.6c-0.5,1.1,0.8,1.2,1.2,1.8c-1.2,0.4-2.1,1.2-3.3,1.7c-2.5-0.1-4.7,0.9-7.1,1.2
	c0,0.5,0.8,0.4,0.9,0.9c-0.1,0.4-0.5,0.4-0.8,0.6c0,0.2,0,0.3,0.2,0.3c0.2-0.3,0.8-0.1,1-0.4c0.8,0,1.5-0.2,2.2-0.3
	c0.7-0.2,1.4-0.4,2-0.8c0.8-0.2,1.4-0.8,2.2-1c1.2,0,2.3-0.4,3.4-0.5v0.2c-0.9,1.5-1.9,3-2.8,4.4c-0.1,0.2,0,0.5,0.2,0.6h0.1
	c0.5,0.1,1.1,0,1.6-0.2c0.8-1.4,1.6-2.8,2.3-4.3c0.3-1.4,1.3-2.1,2.3-3c0.2-0.1,0.4-0.3,0.6-0.1c-0.7,0.9-1.4,1.8-1.9,2.8
	c-0.5,1.2-0.2,2.5,0.6,3.5c0.5,0.4,1.2,0.3,1.8,0.3c1.6-0.8,3.5,0.5,4.7-1c0.7-0.1,0.8,0.7,1.2,1.1c0.7,0.2,1.4,0.9,2.1,0.4
	c0-0.4-0.5-0.8-0.8-1.2c-0.5-0.8-1.1-1.5-1.5-2.3c-0.3-0.5-0.5-1-0.6-1.5c0.7,0.3,1.4,0.6,2.1,0.8c0.7,0.2,1.4,0.4,2.1,0.6
	c0.6,0.6,1.3,1.1,2,1.5c1,0.5,2.1,0.6,3.1,1c0.4,0,1,0.4,1.3,0c-0.2-0.2-0.4-0.3-0.6-0.4c-0.1-0.5,0.7-0.2,1-0.6
	c-0.1-0.2-0.3-0.3-0.5-0.3c-0.6-0.3-2-0.4-2.4-0.6c-0.5-0.2-1-0.3-1.4-0.6c-2.4,0-3.7-2.2-5.6-3c0.4-0.4,1.1-0.7,1.4-1.3
	c0.4-0.6,0.4-1.4,0.1-2.1c-0.4-1.2-1.9-1-2.9-1.7l0.1-0.1c1.4,0,2.9,0.2,4.3,0.6c3.8,0.5,7.3,2,11.3,2c2.2,0,4.9,0.1,6-2
	c0.2-1.2,0.4-2.5,0.6-3.7C91.9,77,93.2,75.2,93,73L93,73z M50.2,91.3l-0.5-0.5c0.3-0.4,0.9-0.2,1.3-0.4c1.1-0.4,2.2-0.6,3.4-0.5
	C53.1,90.8,51.5,90.9,50.2,91.3z M74.9,90.6c1.4,0.5,2.8,0.8,4.2,1c-0.1,0.5-1.1,0-1,0.8c-1.2-0.5-2.7-0.7-3.6-1.7
	C74.7,90.7,74.7,90.6,74.9,90.6L74.9,90.6z M37.7,73.6c0.1-0.8,0.4-1.5,1-2c1-0.5,2.2-0.4,3.1,0.1c0.3,0.2,0.5,0.4,0.6,0.8
	c0.2,0.7-0.1,1.4-0.6,1.8h-0.4c0-0.6,0-1.2,0.2-1.8c0-0.5-0.4-0.5-0.8-0.7c-0.6-0.1-1.3,0-1.8,0.4c-0.5,0.5-0.7,1.2-0.6,1.8
	c0.3,0.4,0,1,0.2,1.5l-0.1,0.2C38.1,75.2,37.7,74.5,37.7,73.6L37.7,73.6z M39.6,74.8c0.6,0.4,1.4,0.2,2.1,0.4c0.2,0.5,0.1,1-0.2,1.4
	c-0.7-0.2-1.5-0.1-1.9-0.7C39.7,75.5,39.5,75.1,39.6,74.8L39.6,74.8z M39.4,73.4c0.1-0.3,0-0.8,0.4-0.9c0.3-0.1,0.7-0.1,0.8,0.2
	c0,0.5-0.1,0.9-0.2,1.4C39.9,74.2,39.5,73.9,39.4,73.4L39.4,73.4z M58,86.3c-0.2-1.3,0.3-2.7,1.3-3.6c0.6-0.2,1.2-0.2,1.7,0.1
	c-1,0.3-2.3,0.5-2.6,1.8c0,0.5-0.1,0.8,0.1,1.2c0.4,0.8,1.4,0.4,2,1c0,0.2-0.1,0.4-0.4,0.5C59.4,87,58.7,86.7,58,86.3z M56.6,89
	c1-0.4,1.9-1.2,3-0.9C58.7,88.7,57.7,89,56.6,89z M60.4,89.4c-0.6,1.3-1.2,2.5-1.9,3.8c-0.1,0.2-0.4,0.2-0.6,0.3
	c0-0.6,0.6-1,0.8-1.5c0.8-1.1,1.1-2.2,2-3.3C60.8,88.9,60.4,89.1,60.4,89.4L60.4,89.4z M61.4,87.1v0.2h-0.1L61.4,87.1L61.4,87.1
	C61.4,87,61.4,87,61.4,87.1L61.4,87.1z M61,86c-0.6-0.1-1.3-0.3-1.9-0.5c-0.4-0.4,0-0.8,0-1.3c0.6-0.9,2.1-1.3,2.9-0.5
	C61.9,84.6,61.6,85.4,61,86z M61.9,86c0.1-0.6,0.3-1.2,0.6-1.7C62.5,84.9,62.2,85.5,61.9,86L61.9,86z M62.3,82.8
	C61.8,82.6,61.5,82,61,82c0.5-0.1,1-0.1,1.5,0C62.7,82.3,62.4,82.6,62.3,82.8L62.3,82.8z M62.8,84L62.8,84v-0.4l0,0V84z M62.8,85.8
	c0-0.2,0.1-0.4,0.1-0.6c0.2-0.2,0.4,0.2,0.5,0.3C63.3,85.8,63,85.9,62.8,85.8z M63.4,83.4c0.1-0.5,0.3-1,0.6-1.5
	c0.4,0,0.7,0,1.1,0.1c0.1,0.8,1.1,1.9,0,2.6c-0.4,0.2-0.9,0.5-1.3,0.2C63.4,84.4,63.2,83.8,63.4,83.4L63.4,83.4z M66.3,82.2
	c-0.1-0.4,0.4-0.1,0.5-0.2l1.2,0.1C67.4,82,66.6,83.5,66.3,82.2z M68.3,82.8c-0.5,0.2-0.8,0.7-1.3,0.8
	C67.3,83.1,67.7,82.8,68.3,82.8z M66.6,85.2L66.6,85.2L66.6,85.2L66.6,85.2z M66.7,87.7c0,0.1,0,0.2-0.1,0.3l-0.9-0.7
	C66.1,87.2,66.5,87.3,66.7,87.7L66.7,87.7z M65.6,86.4c0.1-0.1,0.3-0.1,0.4,0H65.6z M65.1,85.8c0.2-0.2,0.4-0.6,0.6-0.6
	c0,0,0,0.1,0.1,0.1C65.6,85.6,65.3,85.7,65.1,85.8z M64.2,85.8H64l0.2-0.2C64.4,85.6,64.2,85.7,64.2,85.8L64.2,85.8z M64.3,87.3
	c0.5-0.6,1,0.3,1.2,0.8c0.6,0.9,2.1,1.7,1.6,2.9c-0.8,0.7-1.9,0-2.8,0.6c-0.4,0-1.2,0.1-1.4-0.4C63.2,89.8,63.7,88.5,64.3,87.3z
	 M63.2,88l0.2-0.3c-0.3,1-0.8,2-1.3,2.9C61.8,89.6,62.8,88.8,63.2,88z M64.9,92.8c-0.8,0-1.9,0.5-2.6-0.2c0-0.3-0.3-0.5-0.3-0.8
	c0.6-0.2,1.2,0.5,1.8,0c0.9-0.1,1.9,0,2.8,0.1c0.4,0.1,1.1-0.7,1.2,0.1C67.5,93.3,65.9,92.4,64.9,92.8L64.9,92.8z M67.3,87L67.3,87
	L67.3,87L67.3,87L67.3,87z M67.5,89.5c0,0.4,0.4,0.6,0.2,0.9C67.5,90.2,67.4,89.8,67.5,89.5z M68.6,91.9L68.4,92
	c-0.2-0.2-0.1-0.6-0.1-0.8C68.6,91.4,68.8,91.6,68.6,91.9z M70.6,92.9c0,0.1-0.2,0.1-0.3,0c-1-1.5-1.9-3.1-2.5-4.8H68
	C68.9,89.7,69.7,91.4,70.6,92.9z M72,89.2c-0.1,0-0.1,0.1-0.1,0.2c-1-0.1-2-0.5-2.8-1.2V88C70.2,88.2,71.1,88.6,72,89.2z M71,83.9
	c0.5,0.1,0.5,0.6,0.6,1c-0.1,1.3-1.2,2.3-2.5,2.2c-0.1,0-0.2,0-0.4-0.1c1,0.1,1.9-0.5,2.4-1.4L71,83.9L71,83.9z M70.1,83.7
	c0.3,0.5,0.4,1.1,0.4,1.8c-0.4,0.8-1.2,0.8-1.9,0.9c-0.3,0-0.7-0.1-0.9-0.3c0-0.2,0-0.3-0.2-0.4c0.1-0.5-0.9-1-0.2-1.5
	C67.9,83.7,69.5,82.3,70.1,83.7L70.1,83.7z M90.3,80.8c-0.3,0.4,0,1-0.4,1.4c0,0.7-0.6,1.1-1.1,1.4c-4.7,1-9.4-0.6-13.9-1.4
	c-6.7-1.5-13.6-1.7-20.3-0.3c-3,0.6-6,1.3-9,2.1c-1.8,0.4-3.7,0.4-5.5,0c-1.4-0.7-0.8-2.5-1.3-3.8c0-0.9-0.2-1.8-0.3-2.8
	c-0.1-0.3-0.2-0.7-0.2-1c0.6,0.1,1.2,0.5,1.8,0.7c3.3,0.6,6.3-0.4,9.4-1c3-0.7,6.1-1.1,9.2-1.4c3.5-0.2,7.1-0.1,10.6,0.3
	c1.1,0,2.1,0.3,3.1,0.4c2.2,0.3,4.3,0.9,6.6,1c0.4,0.1,0.8,0.2,1.2,0.2c3.6,0.6,7.6,1.6,11,0C90.9,78,90.7,79.4,90.3,80.8L90.3,80.8
	z M89.2,75.9c0,0.6-0.6,0.5-0.9,0.7h-1c-0.1-0.4-0.2-0.7-0.1-1.1C87.8,75.6,88.5,75.7,89.2,75.9L89.2,75.9z M88.7,74.9
	c0.4-0.4-0.1-3,1.1-1.3c0,0.3,0,0.8-0.3,1S89,75.1,88.7,74.9L88.7,74.9z M91.9,74.5c-0.3,0.7-0.9,1.2-1.7,1.4c0-1,0.9-1.6,0.6-2.7
	c-0.6-0.7-1.6-1.1-2.5-0.8c-0.4,0.2-0.2,0.6-0.3,1l-0.2,1.3c-0.8,0-0.8-0.7-1.1-1.3c0-0.9,0.5-1.7,1.2-2.1c0.7-0.3,1.6-0.3,2.3,0.1
	c0.5,0.1,1,0.4,1.3,0.8C92.2,72.8,92.1,73.8,91.9,74.5L91.9,74.5z"/>
<rect x="140.8" y="59" class="st0" width="320.4" height="1.3"/>
</svg>
