<?xml version="1.0" encoding="utf-8"?>
<!-- Generator: Adobe Illustrator 23.0.1, SVG Export Plug-In . SVG Version: 6.00 Build 0)  -->
<svg version="1.1" id="Layer_1" xmlns="http://www.w3.org/2000/svg" xmlns:xlink="http://www.w3.org/1999/xlink" x="0px" y="0px"
	 viewBox="0 0 73.1 69.8" style="enable-background:new 0 0 73.1 69.8;" xml:space="preserve">
<style type="text/css">
	.st0{fill:#FFFFFF;stroke:#000000;stroke-width:0.8982;stroke-miterlimit:10;}
	.st1{fill:url(#SVGID_1_);}
	.st2{fill:url(#SVGID_2_);}
	.st3{fill:url(#SVGID_3_);}
	.st4{fill:url(#SVGID_4_);}
</style>
<g>
	<path class="st0" d="M63.5,46.9"/>
	
		<linearGradient id="SVGID_1_" gradientUnits="userSpaceOnUse" x1="32.0285" y1="67.2108" x2="62.5043" y2="38.9515" gradientTransform="matrix(1 0 0 -1 0 69.821)">
		<stop  offset="0" style="stop-color:#377BBE"/>
		<stop  offset="1" style="stop-color:#00B9B8"/>
	</linearGradient>
	<path class="st1" d="M44.7,7.9c0.3,0,26.2,21.9,26.2,21.9l-7.7,7.7L30.4,10C30.4,10,41.8,7.9,44.7,7.9z"/>
	
		<linearGradient id="SVGID_2_" gradientUnits="userSpaceOnUse" x1="14.8081" y1="13.9087" x2="44.1757" y2="65.4405" gradientTransform="matrix(1 0 0 -1 0 69.821)">
		<stop  offset="1.140000e-02" style="stop-color:#FBD025"/>
		<stop  offset="1" style="stop-color:#F7941D"/>
	</linearGradient>
	<path class="st2" d="M28.8,29.8c-0.3,0-26.2,21.9-26.2,21.9l7.7,7.7l32.7-27.5C43.1,31.8,31.8,29.8,28.8,29.8z"/>
	
		<linearGradient id="SVGID_3_" gradientUnits="userSpaceOnUse" x1="64.6509" y1="14.1011" x2="34.5503" y2="44.2017" gradientTransform="matrix(1 0 0 -1 0 69.821)">
		<stop  offset="0" style="stop-color:#E8477A"/>
		<stop  offset="0.8279" style="stop-color:#F89F2D"/>
	</linearGradient>
	<path class="st3" d="M41,29.6c3.3,0,4.2-0.2,6.9,2c8.4,7,23,20.4,23,20.4l-8,7c0,0-21.1-18.8-30.3-26.3c-2.3-1.8-3.7-3-3.7-3
		s5.3-0.1,9.2-0.2C39.2,29.6,40.3,29.6,41,29.6z"/>
	
		<linearGradient id="SVGID_4_" gradientUnits="userSpaceOnUse" x1="35.6585" y1="60.4474" x2="0.7498" y2="32.1881" gradientTransform="matrix(1 0 0 -1 0 69.821)">
		<stop  offset="0" style="stop-color:#8BC540"/>
		<stop  offset="1" style="stop-color:#28B24B"/>
	</linearGradient>
	<path class="st4" d="M32.6,7.7c-3.3,0-4.2-0.2-6.9,2c-8.4,7-23,20.4-23,20.4l8,7c0,0,21.1-18.8,30.3-26.3c2.3-1.8,3.7-3,3.7-3
		s-5.3-0.1-9.2-0.2C34.3,7.7,33.3,7.7,32.6,7.7z"/>
</g>
</svg>
