<svg id="Layer_2" data-name="Layer 2" xmlns="http://www.w3.org/2000/svg" viewBox="0 0 461.61 94.54"><defs><style>.cls-1{fill:#fff;}</style></defs><title>logo-dva</title><path class="cls-1" d="M152.5,41.7h-6.6l-.8,1.8a4.19,4.19,0,0,0-.4,1.5,1.43,1.43,0,0,0,.6,1.2,5.66,5.66,0,0,0,1.8.3V47H141v-.5a3,3,0,0,0,1.6-.8,11.24,11.24,0,0,0,1.6-2.8l6.6-14.8h.3l6.7,15.2a9.19,9.19,0,0,0,1.6,2.7,2.11,2.11,0,0,0,1.3.5V47h-9v-.5h.4a3.65,3.65,0,0,0,1.5-.3.71.71,0,0,0,.3-.6.9.9,0,0,0-.1-.5,3.52,3.52,0,0,0-.4-1Zm-.5-1-2.8-6.4-2.8,6.4Z" transform="translate(-0.09)"/><path class="cls-1" d="M172.9,34.2v10a2.78,2.78,0,0,0,.3,1.8,1.61,1.61,0,0,0,1.1.5V47h-5.2V45.3a6.9,6.9,0,0,1-1.8,1.6,4.65,4.65,0,0,1-2.1.5,2.64,2.64,0,0,1-1.9-.7,3.27,3.27,0,0,1-1.1-1.5,16.28,16.28,0,0,1-.3-3.1v-5a2.89,2.89,0,0,0-.3-1.8,1.61,1.61,0,0,0-1.1-.5v-.5h5.2V43a10.87,10.87,0,0,0,.1,1.8,2.09,2.09,0,0,0,.4.6,1.42,1.42,0,0,0,.6.2,1.61,1.61,0,0,0,.9-.3,5.71,5.71,0,0,0,1.3-1.4V37a2.89,2.89,0,0,0-.3-1.8,1.61,1.61,0,0,0-1.1-.5v-.5Z" transform="translate(-0.09)"/><path class="cls-1" d="M182.8,33.8l.2,4.4h-.5a9.48,9.48,0,0,0-1.7-2.7,2.87,2.87,0,0,0-1.8-.7,1.28,1.28,0,0,0-1,.4,1,1,0,0,0-.4.9.91.91,0,0,0,.3.7,14.31,14.31,0,0,0,2.4,1.9A10,10,0,0,1,183,41a3.94,3.94,0,0,1,.6,2.1,5.37,5.37,0,0,1-.5,2.1,3.86,3.86,0,0,1-1.5,1.6,3.28,3.28,0,0,1-2.1.5,5,5,0,0,1-2.4-.6c-.2-.1-.4-.1-.6-.2s-.6.2-.8.7h-.4l-.2-4.6h.5a5.93,5.93,0,0,0,1.7,2.7,3.37,3.37,0,0,0,2,.9,1.5,1.5,0,0,0,1.1-.4,1.28,1.28,0,0,0,.4-1,1.5,1.5,0,0,0-.4-1.1l-1.8-1.5a14.42,14.42,0,0,1-2.7-2.2,3.84,3.84,0,0,1-.9-2.5,4.49,4.49,0,0,1,1-2.7,3.52,3.52,0,0,1,2.9-1.2,4.55,4.55,0,0,1,2,.5,1.42,1.42,0,0,0,.6.2.6.6,0,0,0,.4-.1c.2-.2.3-.4.5-.6Z" transform="translate(-0.09)"/><path class="cls-1" d="M189.3,29.5v4.7h3v1.3h-3v7.9a6.15,6.15,0,0,0,.1,1.4,1,1,0,0,0,.4.5.76.76,0,0,0,.5.2c.6,0,1.2-.4,1.7-1.3l.4.3a3.75,3.75,0,0,1-3.6,2.6,3.32,3.32,0,0,1-2.1-.7,3.27,3.27,0,0,1-1.1-1.5,10.48,10.48,0,0,1-.1-2.5V35.5h-1.7V35a12,12,0,0,0,2.9-2.6,16.1,16.1,0,0,0,2.1-3Z" transform="translate(-0.09)"/><path class="cls-1" d="M197.5,34.2v2.9a9.22,9.22,0,0,1,2.2-2.6,4,4,0,0,1,1.9-.7,1.35,1.35,0,0,1,1.2.5,2.11,2.11,0,0,1,.5,1.3,2.3,2.3,0,0,1-.4,1.4,1.61,1.61,0,0,1-1.1.5,2.11,2.11,0,0,1-1.3-.5,2.65,2.65,0,0,0-.6-.5.37.37,0,0,0-.3-.1,1.33,1.33,0,0,0-.8.3,3.81,3.81,0,0,0-.9,1.3,7,7,0,0,0-.4,2.9v3.7a3.4,3.4,0,0,0,.1,1,1.21,1.21,0,0,0,.5.5,3.59,3.59,0,0,0,1.1.2V47h-6.9v-.5a1.61,1.61,0,0,0,1.1-.5,3.86,3.86,0,0,0,.3-2.1V36.8a6.6,6.6,0,0,0-.1-1.4,2.09,2.09,0,0,0-.4-.6,3.18,3.18,0,0,0-.9-.3V34Z" transform="translate(-0.09)"/><path class="cls-1" d="M210.3,45.1a6.78,6.78,0,0,1-4.2,2.1,2.4,2.4,0,0,1-2.5-2.5,3.32,3.32,0,0,1,1.3-2.6,22.9,22.9,0,0,1,5.5-3.1V37.7a5.54,5.54,0,0,0-.2-1.8,1.34,1.34,0,0,0-.6-.7,1.69,1.69,0,0,0-1-.3,2.82,2.82,0,0,0-1.5.4.92.92,0,0,0-.4.6,1,1,0,0,0,.4.7,1.46,1.46,0,0,1,0,2.2,2.11,2.11,0,0,1-1.3.5,2.39,2.39,0,0,1-1.4-.5,1.43,1.43,0,0,1-.6-1.2,2.73,2.73,0,0,1,.8-1.9,5.55,5.55,0,0,1,2.2-1.4,9.29,9.29,0,0,1,2.9-.5,4.43,4.43,0,0,1,2.9.8,3.91,3.91,0,0,1,1.4,1.7,11.84,11.84,0,0,1,.2,2.6v5a4.1,4.1,0,0,0,.1,1.1c0,.1.1.2.2.3a.37.37,0,0,0,.3.1,1,1,0,0,0,.7-.5l.4.3a6.73,6.73,0,0,1-1.4,1.5,3.37,3.37,0,0,1-1.7.5,2.62,2.62,0,0,1-1.7-.5A1.93,1.93,0,0,1,210.3,45.1Zm0-1V39.8a7.21,7.21,0,0,0-2.5,2.1,2.46,2.46,0,0,0-.5,1.5,2.1,2.1,0,0,0,.4,1.1,1.28,1.28,0,0,0,1,.4A3.46,3.46,0,0,0,210.3,44.1Z" transform="translate(-0.09)"/><path class="cls-1" d="M220.8,28.4V44.3a2.49,2.49,0,0,0,.3,1.7,1.37,1.37,0,0,0,1.2.4V47h-6.9v-.5a2.11,2.11,0,0,0,1.3-.5,4.67,4.67,0,0,0,.3-1.7V31.1a2.49,2.49,0,0,0-.3-1.7,1.37,1.37,0,0,0-1.2-.4v-.5h5.3v-.1Z" transform="translate(-0.09)"/><path class="cls-1" d="M227.2,34.2V44.3a2.49,2.49,0,0,0,.3,1.7,1.37,1.37,0,0,0,1.2.4V47h-6.9v-.5a2.11,2.11,0,0,0,1.3-.5,4.67,4.67,0,0,0,.3-1.7V36.8a2.49,2.49,0,0,0-.3-1.7,1.37,1.37,0,0,0-1.2-.4v-.5ZM225.3,28a2.05,2.05,0,1,1-1.5.6A1.89,1.89,0,0,1,225.3,28Z" transform="translate(-0.09)"/><path class="cls-1" d="M235.6,45.1a6.78,6.78,0,0,1-4.2,2.1,2.4,2.4,0,0,1-2.5-2.5,3.32,3.32,0,0,1,1.3-2.6,22.9,22.9,0,0,1,5.5-3.1V37.7a5.54,5.54,0,0,0-.2-1.8,1.34,1.34,0,0,0-.6-.7,1.69,1.69,0,0,0-1-.3,2.82,2.82,0,0,0-1.5.4.92.92,0,0,0-.4.6,1,1,0,0,0,.4.7,1.46,1.46,0,0,1,0,2.2,2.11,2.11,0,0,1-1.3.5,2.39,2.39,0,0,1-1.4-.5,1.43,1.43,0,0,1-.6-1.2,2.73,2.73,0,0,1,.8-1.9,5.55,5.55,0,0,1,2.2-1.4,9.29,9.29,0,0,1,2.9-.5,4.43,4.43,0,0,1,2.9.8,3.91,3.91,0,0,1,1.4,1.7,11.84,11.84,0,0,1,.2,2.6v5a4.1,4.1,0,0,0,.1,1.1c0,.1.1.2.2.3a.37.37,0,0,0,.3.1,1,1,0,0,0,.7-.5l.4.3a6.73,6.73,0,0,1-1.4,1.5,3.37,3.37,0,0,1-1.7.5,2.62,2.62,0,0,1-1.7-.5A2.25,2.25,0,0,1,235.6,45.1Zm0-1V39.8a7.21,7.21,0,0,0-2.5,2.1,2.46,2.46,0,0,0-.5,1.5,2.1,2.1,0,0,0,.4,1.1,1.28,1.28,0,0,0,1,.4A2.72,2.72,0,0,0,235.6,44.1Z" transform="translate(-0.09)"/><path class="cls-1" d="M246.4,34.2v1.7a7,7,0,0,1,1.9-1.5,4.49,4.49,0,0,1,1.9-.5,3.32,3.32,0,0,1,2.1.7,3.37,3.37,0,0,1,1.1,1.7,10.12,10.12,0,0,1,.2,3v5a2.78,2.78,0,0,0,.3,1.8,1.61,1.61,0,0,0,1.1.5V47h-6.5v-.5a1.33,1.33,0,0,0,1-.6,3.21,3.21,0,0,0,.2-1.7V38.5a13.4,13.4,0,0,0-.1-2,.92.92,0,0,0-.4-.6.73.73,0,0,0-.6-.2c-.8,0-1.5.6-2.2,1.7v6.8a2.89,2.89,0,0,0,.3,1.8,1.23,1.23,0,0,0,1,.5V47h-6.5v-.5a1.43,1.43,0,0,0,1.1-.5,3.72,3.72,0,0,0,.2-1.8V37a2.89,2.89,0,0,0-.3-1.8,1.61,1.61,0,0,0-1.1-.5v-.5Z" transform="translate(-0.09)"/><path class="cls-1" d="M279.3,28v6.5h-.5a8.89,8.89,0,0,0-2.8-4.1,6.28,6.28,0,0,0-4-1.4,5.5,5.5,0,0,0-3.5,1.2,6.31,6.31,0,0,0-2,3.3,15.4,15.4,0,0,0-.6,4.3,18.35,18.35,0,0,0,.6,4.7,5.2,5.2,0,0,0,2,3,5.69,5.69,0,0,0,3.3.9,6.6,6.6,0,0,0,1.4-.1,5.73,5.73,0,0,0,1.4-.4V42a6.15,6.15,0,0,0-.1-1.4,1.17,1.17,0,0,0-.6-.6,2.28,2.28,0,0,0-1.1-.3h-.5v-.5h9v.5a2.77,2.77,0,0,0-1.3.3,1.34,1.34,0,0,0-.6.7,5.7,5.7,0,0,0-.1,1.3v3.9a22.85,22.85,0,0,1-3.7,1.2,18.1,18.1,0,0,1-4,.4,13.08,13.08,0,0,1-4.4-.7,12.3,12.3,0,0,1-3.1-1.9,7.55,7.55,0,0,1-2.1-2.6,9,9,0,0,1-1-4.2,9.51,9.51,0,0,1,2.9-7.1,10.18,10.18,0,0,1,7.4-2.9,21.05,21.05,0,0,1,2.5.2c.7.2,1.3.4,2,.6a7.49,7.49,0,0,0,1.6.5.91.91,0,0,0,.7-.3,2.38,2.38,0,0,0,.6-1.1Z" transform="translate(-0.09)"/><path class="cls-1" d="M287.3,33.8a5.61,5.61,0,0,1,3.1.9,5.37,5.37,0,0,1,2.2,2.5,8.53,8.53,0,0,1,.8,3.5,6.71,6.71,0,0,1-1.4,4.5,5.29,5.29,0,0,1-4.6,2.2,5,5,0,0,1-4.4-2,7.84,7.84,0,0,1-1.6-4.7,7.71,7.71,0,0,1,1.6-4.8A5.17,5.17,0,0,1,287.3,33.8Zm.1,1a1.66,1.66,0,0,0-1.2.5,3.77,3.77,0,0,0-.7,2.1c-.1,1-.2,2.5-.2,4.3a24.52,24.52,0,0,0,.2,2.7,4,4,0,0,0,.6,1.5,1.61,1.61,0,0,0,1.1.5,1.69,1.69,0,0,0,1-.3,2.09,2.09,0,0,0,.7-1.3,45.78,45.78,0,0,0,.3-5.3,11.58,11.58,0,0,0-.3-3.2,2.58,2.58,0,0,0-.8-1.3,1.17,1.17,0,0,0-.7-.2Z" transform="translate(-0.09)"/><path class="cls-1" d="M299.7,47.4l-4.3-9.9a10.08,10.08,0,0,0-1.2-2.3,1.62,1.62,0,0,0-.9-.5v-.5h6.8v.5a1.49,1.49,0,0,0-.9.2.91.91,0,0,0-.3.7,6,6,0,0,0,.6,1.9l2.1,4.8,1.7-4.1a7.17,7.17,0,0,0,.7-2.5.91.91,0,0,0-.3-.7,2,2,0,0,0-1.1-.3v-.5h4.2v.5a1.39,1.39,0,0,0-1,.5,6.5,6.5,0,0,0-1.1,2.2l-4.3,10Z" transform="translate(-0.09)"/><path class="cls-1" d="M317.3,40.1h-7a6.49,6.49,0,0,0,1.4,4,2.84,2.84,0,0,0,2.3,1.1,2.69,2.69,0,0,0,1.5-.5,4.57,4.57,0,0,0,1.4-1.7l.5.3a7.56,7.56,0,0,1-2.3,3,5.21,5.21,0,0,1-2.9.9,4.68,4.68,0,0,1-4.3-2.2,8.31,8.31,0,0,1-1.2-4.4,7.18,7.18,0,0,1,1.7-5.1,5.28,5.28,0,0,1,4-1.9,4.58,4.58,0,0,1,3.4,1.6A8.09,8.09,0,0,1,317.3,40.1Zm-3.3-.9a15.14,15.14,0,0,0-.2-3A2,2,0,0,0,313,35a1.14,1.14,0,0,0-.8-.3,1.52,1.52,0,0,0-1.2.7,5.59,5.59,0,0,0-.8,3.3v.5Z" transform="translate(-0.09)"/><path class="cls-1" d="M322.8,34.2v2.9a9.22,9.22,0,0,1,2.2-2.6,4,4,0,0,1,1.9-.7,1.35,1.35,0,0,1,1.2.5,2.11,2.11,0,0,1,.5,1.3,2.3,2.3,0,0,1-.4,1.4,1.61,1.61,0,0,1-1.1.5,2.11,2.11,0,0,1-1.3-.5,2.65,2.65,0,0,0-.6-.5.37.37,0,0,0-.3-.1,1.33,1.33,0,0,0-.8.3,3.81,3.81,0,0,0-.9,1.3,7,7,0,0,0-.4,2.9v3.7a3.4,3.4,0,0,0,.1,1,1.2,1.2,0,0,0,.5.5,3.59,3.59,0,0,0,1.1.2V47h-6.9v-.5a1.61,1.61,0,0,0,1.1-.5,4.71,4.71,0,0,0,.2-2V36.9a6.6,6.6,0,0,0-.1-1.4,2.09,2.09,0,0,0-.4-.6,3.18,3.18,0,0,0-.9-.3v-.5Z" transform="translate(-0.09)"/><path class="cls-1" d="M333.8,34.2v1.7a7,7,0,0,1,1.9-1.5,4.49,4.49,0,0,1,1.9-.5,3.32,3.32,0,0,1,2.1.7,3.37,3.37,0,0,1,1.1,1.7,10.12,10.12,0,0,1,.2,3v5a2.78,2.78,0,0,0,.3,1.8,1.61,1.61,0,0,0,1.1.5V47h-6.5v-.5a1.33,1.33,0,0,0,1-.6,3.21,3.21,0,0,0,.2-1.7V38.5a13.4,13.4,0,0,0-.1-2,.92.92,0,0,0-.4-.6.73.73,0,0,0-.6-.2c-.8,0-1.5.6-2.2,1.7v6.8a2.78,2.78,0,0,0,.3,1.8,1.23,1.23,0,0,0,1,.5V47h-6.5v-.5a1.43,1.43,0,0,0,1.1-.5,3.72,3.72,0,0,0,.2-1.8V37a2.89,2.89,0,0,0-.3-1.8,1.61,1.61,0,0,0-1.1-.5v-.5Z" transform="translate(-0.09)"/><path class="cls-1" d="M348,34.2v1.7a7.83,7.83,0,0,1,2-1.6,4.55,4.55,0,0,1,2-.5,4.2,4.2,0,0,1,2.1.6,3.52,3.52,0,0,1,1.3,1.8,9.09,9.09,0,0,1,2.1-1.8,3.84,3.84,0,0,1,2.1-.5,3.7,3.7,0,0,1,2.1.6,2.75,2.75,0,0,1,1,1.6,10.21,10.21,0,0,1,.3,3v5.2a2.78,2.78,0,0,0,.3,1.8,1.61,1.61,0,0,0,1.1.5V47h-6.6v-.5a1.15,1.15,0,0,0,1.1-.6,4.67,4.67,0,0,0,.3-1.7V38.7a16.2,16.2,0,0,0-.1-2.2,1.61,1.61,0,0,0-.4-.7.84.84,0,0,0-.7-.2,2.45,2.45,0,0,0-1.2.4,4.89,4.89,0,0,0-1.2,1.3v6.9a3.21,3.21,0,0,0,.2,1.7,1.43,1.43,0,0,0,1.2.6V47h-6.6v-.5a1.14,1.14,0,0,0,.8-.3.92.92,0,0,0,.4-.6,7.57,7.57,0,0,0,.1-1.5V38.6a16.2,16.2,0,0,0-.1-2.2,1.16,1.16,0,0,0-.5-.7c-.2-.2-.4-.2-.7-.3a1.69,1.69,0,0,0-1,.3,9.27,9.27,0,0,0-1.4,1.4V44a5.66,5.66,0,0,0,.3,1.8,1.61,1.61,0,0,0,1.1.5V47h-6.6v-.5A1.85,1.85,0,0,0,344,46a3.72,3.72,0,0,0,.2-1.8V37a2.89,2.89,0,0,0-.3-1.8,1.61,1.61,0,0,0-1.1-.5v-.5Z" transform="translate(-0.09)"/><path class="cls-1" d="M375.5,40.1h-7a6.49,6.49,0,0,0,1.4,4,2.84,2.84,0,0,0,2.3,1.1,2.69,2.69,0,0,0,1.5-.5,5.39,5.39,0,0,0,1.4-1.6l.5.3a7.56,7.56,0,0,1-2.3,3,5.21,5.21,0,0,1-2.9.9,5,5,0,0,1-4.3-2.2,8.31,8.31,0,0,1-1.2-4.4,7.18,7.18,0,0,1,1.7-5.1,5.28,5.28,0,0,1,4-1.9,4.58,4.58,0,0,1,3.4,1.6A8.5,8.5,0,0,1,375.5,40.1Zm-3.4-.9a15.14,15.14,0,0,0-.2-3,2,2,0,0,0-.8-1.2,1.14,1.14,0,0,0-.8-.3,1.52,1.52,0,0,0-1.2.7,5.59,5.59,0,0,0-.8,3.3v.5Z" transform="translate(-0.09)"/><path class="cls-1" d="M380.9,34.2v1.7a7,7,0,0,1,1.9-1.5,4.49,4.49,0,0,1,1.9-.5,3.32,3.32,0,0,1,2.1.7,3.37,3.37,0,0,1,1.1,1.7,10.12,10.12,0,0,1,.2,3v5a2.78,2.78,0,0,0,.3,1.8,1.61,1.61,0,0,0,1.1.5V47H383v-.5a1.33,1.33,0,0,0,1-.6,3.21,3.21,0,0,0,.2-1.7V38.5a13.4,13.4,0,0,0-.1-2,.92.92,0,0,0-.4-.6.73.73,0,0,0-.6-.2c-.8,0-1.5.6-2.2,1.7v6.8a2.89,2.89,0,0,0,.3,1.8,1.23,1.23,0,0,0,1,.5V47h-6.4v-.5a1.43,1.43,0,0,0,1.1-.5,3.72,3.72,0,0,0,.2-1.8V37a2.89,2.89,0,0,0-.3-1.8,1.61,1.61,0,0,0-1.1-.5v-.5Z" transform="translate(-0.09)"/><path class="cls-1" d="M394.9,29.5v4.7h3v1.3h-3v7.9a6.15,6.15,0,0,0,.1,1.4,1,1,0,0,0,.4.5.76.76,0,0,0,.5.2c.6,0,1.2-.4,1.7-1.3l.4.3a3.75,3.75,0,0,1-3.6,2.6,3.32,3.32,0,0,1-2.1-.7,3.27,3.27,0,0,1-1.1-1.5,10.48,10.48,0,0,1-.1-2.5V35.5h-1.7V35a12,12,0,0,0,2.9-2.6,16.1,16.1,0,0,0,2.1-3Z" transform="translate(-0.09)"/><path class="cls-1" d="M141.1,87v-.5h.6a3.6,3.6,0,0,0,1.1-.2,1.17,1.17,0,0,0,.6-.6,8.6,8.6,0,0,0,.1-1.6V72.7a9.7,9.7,0,0,0-.1-1.7,1.17,1.17,0,0,0-.6-.6,2.61,2.61,0,0,0-1.1-.3h-.6v-.5h7.7a12.22,12.22,0,0,1,5,.8,7.05,7.05,0,0,1,3.5,3.1,10,10,0,0,1,.6,8.1,6.44,6.44,0,0,1-1.5,2.5,6.52,6.52,0,0,1-2.1,1.6,11.43,11.43,0,0,1-3,.9,19.42,19.42,0,0,1-2.4.2Zm6.6-16.2V84.2a5.7,5.7,0,0,0,.1,1.3,1.38,1.38,0,0,0,.3.4,3.55,3.55,0,0,0,1,.2,3.73,3.73,0,0,0,3.2-1.4c1-1.3,1.5-3.4,1.5-6.1a12.2,12.2,0,0,0-1-5.3,4.29,4.29,0,0,0-2.1-2.1,5.94,5.94,0,0,0-3-.4Z" transform="translate(-0.09)"/><path class="cls-1" d="M169.2,80.6h-6.5a5.94,5.94,0,0,0,1.3,3.7,2.92,2.92,0,0,0,2.1,1.1,2.3,2.3,0,0,0,1.4-.4,4.71,4.71,0,0,0,1.3-1.5l.4.3a7.39,7.39,0,0,1-2.1,2.8,4.3,4.3,0,0,1-2.7.8,4.55,4.55,0,0,1-4-2,7.22,7.22,0,0,1-1.1-4.1,6.73,6.73,0,0,1,1.6-4.7,5.29,5.29,0,0,1,3.8-1.8,3.75,3.75,0,0,1,3.1,1.5A6,6,0,0,1,169.2,80.6Zm-3.1-.8a13.2,13.2,0,0,0-.2-2.8,2.13,2.13,0,0,0-.7-1.2,1,1,0,0,0-.7-.2,1.23,1.23,0,0,0-1.1.7,6.5,6.5,0,0,0-.8,3.1v.4Z" transform="translate(-0.09)"/><path class="cls-1" d="M174,85.8v4.4a4.87,4.87,0,0,0,.1,1.2,1,1,0,0,0,.4.5,5,5,0,0,0,1.2.2v.5H169v-.5a1.75,1.75,0,0,0,1.2-.4,4,4,0,0,0,.3-1.5V77.6a2.22,2.22,0,0,0-.3-1.6,1.5,1.5,0,0,0-1.1-.4v-.5h5v1.6a4,4,0,0,1,1.3-1.3,3.61,3.61,0,0,1,2-.6,4.07,4.07,0,0,1,2.4.8,5.33,5.33,0,0,1,1.6,2.3A8.53,8.53,0,0,1,182,81a9.6,9.6,0,0,1-.6,3.3,4.81,4.81,0,0,1-1.7,2.3,4.31,4.31,0,0,1-2.4.8,3.66,3.66,0,0,1-1.8-.4A6.54,6.54,0,0,1,174,85.8Zm0-1.3a3,3,0,0,0,2.3,1.5,1.23,1.23,0,0,0,1.1-.7,9.59,9.59,0,0,0,.7-4.1,8.68,8.68,0,0,0-.7-4.2,1.56,1.56,0,0,0-1.3-.8q-1.35,0-2.1,1.8Z" transform="translate(-0.09)"/><path class="cls-1" d="M189.1,85.2a5.82,5.82,0,0,1-3.9,1.9,2.34,2.34,0,0,1-1.7-.7,2.41,2.41,0,0,1-.7-1.7,3.19,3.19,0,0,1,1.1-2.4,21.6,21.6,0,0,1,5.1-2.9V78.2a9.7,9.7,0,0,0-.1-1.7.9.9,0,0,0-.6-.6,1.61,1.61,0,0,0-.9-.3,2.3,2.3,0,0,0-1.4.4.55.55,0,0,0-.3.5,1,1,0,0,0,.4.7,1.46,1.46,0,0,1,0,2.2,1.37,1.37,0,0,1-1.2.4,1.9,1.9,0,0,1-1.3-.5,1.61,1.61,0,0,1-.5-1.1,2.88,2.88,0,0,1,.7-1.8,4.64,4.64,0,0,1,2-1.3,8.42,8.42,0,0,1,2.7-.4,5.19,5.19,0,0,1,2.7.7,3.74,3.74,0,0,1,1.3,1.5,9.74,9.74,0,0,1,.2,2.4v4.6a3.4,3.4,0,0,0,.1,1c0,.1.1.2.2.3a.37.37,0,0,0,.3.1c.2,0,.4-.2.7-.5l.4.3a5.71,5.71,0,0,1-1.3,1.4,2.82,2.82,0,0,1-1.5.4,2.35,2.35,0,0,1-1.6-.5C189.4,86.3,189.2,85.8,189.1,85.2Zm0-.9v-4a7.1,7.1,0,0,0-2.3,1.9,2.39,2.39,0,0,0-.5,1.4,1.78,1.78,0,0,0,.4,1,1,1,0,0,0,.9.3A2,2,0,0,0,189.1,84.3Z" transform="translate(-0.09)"/><path class="cls-1" d="M199.2,75.1v2.7a6.89,6.89,0,0,1,2.1-2.4,2.72,2.72,0,0,1,1.7-.6,1.5,1.5,0,0,1,1.1.4,1.37,1.37,0,0,1,.4,1.2,2,2,0,0,1-.4,1.3,1.23,1.23,0,0,1-1,.5,1.92,1.92,0,0,1-1.2-.4c-.2-.2-.4-.3-.6-.5a.37.37,0,0,0-.3-.1.91.91,0,0,0-.7.3,3.17,3.17,0,0,0-.8,1.2,8.42,8.42,0,0,0-.4,2.7v3.4a2.77,2.77,0,0,0,.1.9,1,1,0,0,0,.4.5,3.55,3.55,0,0,0,1,.2V87h-6.4v-.5a1.78,1.78,0,0,0,1-.4,6.28,6.28,0,0,0,.3-1.9V77.6a5.7,5.7,0,0,0-.1-1.3,1,1,0,0,0-.4-.5,2.92,2.92,0,0,0-.9-.2v-.5Z" transform="translate(-0.09)"/><path class="cls-1" d="M209.2,70.8v4.3H212v1.3h-2.8v7.3a5.7,5.7,0,0,0,.1,1.3,2.19,2.19,0,0,0,.3.5.76.76,0,0,0,.4.2c.6,0,1.1-.4,1.6-1.3l.4.3a3.3,3.3,0,0,1-3.3,2.4,3.08,3.08,0,0,1-1.9-.6,2.43,2.43,0,0,1-1-1.4,9.06,9.06,0,0,1-.1-2.3V76.4h-1.6V76a15.46,15.46,0,0,0,2.7-2.4,14.2,14.2,0,0,0,2-2.8Z" transform="translate(-0.09)"/><path class="cls-1" d="M216.8,75.1v1.6a6.55,6.55,0,0,1,1.8-1.5,3.92,3.92,0,0,1,1.8-.4,4.14,4.14,0,0,1,1.9.5,3.11,3.11,0,0,1,1.2,1.6,10.08,10.08,0,0,1,1.9-1.7,4.49,4.49,0,0,1,1.9-.5,3.61,3.61,0,0,1,2,.6,3.32,3.32,0,0,1,1,1.4,12.65,12.65,0,0,1,.3,2.8v4.9a2.49,2.49,0,0,0,.3,1.7,1.28,1.28,0,0,0,1,.4V87h-6.1v-.5a1.61,1.61,0,0,0,1.1-.5,2.85,2.85,0,0,0,.2-1.6V79.3a13.4,13.4,0,0,0-.1-2,.92.92,0,0,0-.4-.6,1.42,1.42,0,0,0-.6-.2,2.1,2.1,0,0,0-1.1.4,4.26,4.26,0,0,0-1.1,1.2v6.4a4.4,4.4,0,0,0,.2,1.6,1.61,1.61,0,0,0,1.1.5V87H219v-.5a1.14,1.14,0,0,0,.8-.3,1,1,0,0,0,.4-.5,5.7,5.7,0,0,0,.1-1.3V79.3a13.4,13.4,0,0,0-.1-2c-.1-.2-.2-.5-.4-.6a1.42,1.42,0,0,0-.6-.2,1.4,1.4,0,0,0-.9.3,5.35,5.35,0,0,0-1.3,1.3v6.4a2.85,2.85,0,0,0,.2,1.6,1.23,1.23,0,0,0,1,.5V87h-6.1v-.5a1.61,1.61,0,0,0,1.1-.5,3.21,3.21,0,0,0,.2-1.7V77.6a3.33,3.33,0,0,0-.2-1.7,1.28,1.28,0,0,0-1-.4V75l4.6.1Z" transform="translate(-0.09)"/><path class="cls-1" d="M242.3,80.6h-6.5a6.07,6.07,0,0,0,1.2,3.7,2.92,2.92,0,0,0,2.1,1.1,2.3,2.3,0,0,0,1.4-.4,4.71,4.71,0,0,0,1.3-1.5l.4.3a7.39,7.39,0,0,1-2.1,2.8,4.3,4.3,0,0,1-2.7.8,4.55,4.55,0,0,1-4-2,7.22,7.22,0,0,1-1.1-4.1,6.61,6.61,0,0,1,1.7-4.8,5.29,5.29,0,0,1,3.8-1.8,3.75,3.75,0,0,1,3.1,1.5A7.67,7.67,0,0,1,242.3,80.6Zm-3.1-.8A13.2,13.2,0,0,0,239,77a2.13,2.13,0,0,0-.7-1.2,1,1,0,0,0-.7-.2,1.23,1.23,0,0,0-1.1.7,6.5,6.5,0,0,0-.8,3.1v.4Z" transform="translate(-0.09)"/><path class="cls-1" d="M247.3,75.1v1.5a4.89,4.89,0,0,1,1.8-1.4,3,3,0,0,1,1.8-.4,3.08,3.08,0,0,1,1.9.6,3.36,3.36,0,0,1,1,1.6,12.75,12.75,0,0,1,.2,2.8v4.6a2.49,2.49,0,0,0,.3,1.7,1.28,1.28,0,0,0,1,.4V87h-6v-.5a1.1,1.1,0,0,0,1-.6,4.14,4.14,0,0,0,.2-1.6V79a10.87,10.87,0,0,0-.1-1.8,2.09,2.09,0,0,0-.4-.6,1.42,1.42,0,0,0-.6-.2c-.7,0-1.4.5-2,1.6v6.4a2.49,2.49,0,0,0,.3,1.7,1.09,1.09,0,0,0,.9.4V87h-6v-.5a1.61,1.61,0,0,0,1.1-.5,3.21,3.21,0,0,0,.2-1.7V77.6a2.59,2.59,0,0,0-.3-1.7,1.28,1.28,0,0,0-1-.4V75l4.7.1Z" transform="translate(-0.09)"/><path class="cls-1" d="M260.3,70.8v4.3h2.8v1.3h-2.8v7.3a5.7,5.7,0,0,0,.1,1.3,2.19,2.19,0,0,0,.3.5.76.76,0,0,0,.4.2c.5,0,1.1-.4,1.6-1.3l.4.3a3.3,3.3,0,0,1-3.3,2.4,3.08,3.08,0,0,1-1.9-.6,2.43,2.43,0,0,1-1-1.4,9.06,9.06,0,0,1-.1-2.3V76.4h-1.5V76a15.46,15.46,0,0,0,2.7-2.4,14.2,14.2,0,0,0,2-2.8Z" transform="translate(-0.09)"/><path class="cls-1" d="M273.8,74.8a6,6,0,0,1,2.9.8,4.52,4.52,0,0,1,2,2.3,7.11,7.11,0,0,1,.7,3.2,6.37,6.37,0,0,1-1.3,4.2,5.17,5.17,0,0,1-4.3,2.1,4.76,4.76,0,0,1-4.1-1.9,6.82,6.82,0,0,1-1.5-4.3,6.9,6.9,0,0,1,1.5-4.4A4.61,4.61,0,0,1,273.8,74.8Zm0,.9a1.61,1.61,0,0,0-1.1.5,3.29,3.29,0,0,0-.6,1.9c-.1,1-.1,2.3-.1,4a21.05,21.05,0,0,0,.2,2.5,3.51,3.51,0,0,0,.6,1.4,1.39,1.39,0,0,0,1,.5,1.69,1.69,0,0,0,1-.3,2.4,2.4,0,0,0,.7-1.2,39.08,39.08,0,0,0,.3-4.9,15.14,15.14,0,0,0-.2-3,2.4,2.4,0,0,0-.7-1.2A1.61,1.61,0,0,0,273.8,75.7Z" transform="translate(-0.09)"/><path class="cls-1" d="M285.1,76.3v8.2a2.06,2.06,0,0,0,.3,1.5,1.67,1.67,0,0,0,1.5.4V87h-7v-.5a2,2,0,0,0,1.1-.2,1.21,1.21,0,0,0,.5-.5,2.77,2.77,0,0,0,.1-1.3V76.2h-1.7V74.9h1.7V73.4a4.34,4.34,0,0,1,1.3-3,4.8,4.8,0,0,1,3.6-1.2,3.22,3.22,0,0,1,2.3.6,2.22,2.22,0,0,1,.8,1.3,1.23,1.23,0,0,1-.5,1,1.75,1.75,0,0,1-1.2.4,1.69,1.69,0,0,1-1-.3,1.23,1.23,0,0,1-.4-.8.9.9,0,0,1,.1-.5v-.4a.6.6,0,0,0-.1-.4.76.76,0,0,0-.5-.2.71.71,0,0,0-.6.3,1.69,1.69,0,0,0-.3,1v3.6h1.8V76Z" transform="translate(-0.09)"/><path class="cls-1" d="M314.8,69.8v.5a2.7,2.7,0,0,0-1.7,1,14.29,14.29,0,0,0-1.6,3l-5.9,13.2h-.4l-5.9-13.7a25.91,25.91,0,0,0-1.4-2.9,2.51,2.51,0,0,0-1.4-.6v-.5h8.3v.5h-.3a4,4,0,0,0-1.5.3.6.6,0,0,0-.3.6.75.75,0,0,0,.1.5c.1.2.3.8.7,1.7l3.7,8.6,3.4-7.6c.3-.6.5-1.2.8-1.8a2.2,2.2,0,0,0,.1-.8,1.85,1.85,0,0,0-.2-.7c-.2-.2-.4-.4-.6-.4a3.89,3.89,0,0,0-1.5-.2V70Z" transform="translate(-0.09)"/><path class="cls-1" d="M322.3,80.6h-6.5a5.58,5.58,0,0,0,1.3,3.7,2.92,2.92,0,0,0,2.1,1.1,2.3,2.3,0,0,0,1.4-.4,4.71,4.71,0,0,0,1.3-1.5l.4.3a7.39,7.39,0,0,1-2.1,2.8,4.3,4.3,0,0,1-2.7.8,4.55,4.55,0,0,1-4-2,7.22,7.22,0,0,1-1.1-4.1,7.15,7.15,0,0,1,1.6-4.8,5.29,5.29,0,0,1,3.8-1.8,3.75,3.75,0,0,1,3.1,1.5A6.45,6.45,0,0,1,322.3,80.6Zm-3.1-.8A13.2,13.2,0,0,0,319,77a2.13,2.13,0,0,0-.7-1.2,1,1,0,0,0-.7-.2,1.23,1.23,0,0,0-1.1.7,6.5,6.5,0,0,0-.8,3.1v.4Z" transform="translate(-0.09)"/><path class="cls-1" d="M327.2,70.8v4.3H330v1.3h-2.8v7.3a5.7,5.7,0,0,0,.1,1.3,2.19,2.19,0,0,0,.3.5.76.76,0,0,0,.4.2c.5,0,1.1-.4,1.6-1.3l.4.3a3.3,3.3,0,0,1-3.3,2.4,3.08,3.08,0,0,1-1.9-.6,2.43,2.43,0,0,1-1-1.4,9.06,9.06,0,0,1-.1-2.3V76.4h-1.5V76a15.46,15.46,0,0,0,2.7-2.4,14.2,14.2,0,0,0,2-2.8Z" transform="translate(-0.09)"/><path class="cls-1" d="M339.9,80.6h-6.5a5.58,5.58,0,0,0,1.3,3.7,2.92,2.92,0,0,0,2.1,1.1,2.3,2.3,0,0,0,1.4-.4,4.71,4.71,0,0,0,1.3-1.5l.4.3a7.39,7.39,0,0,1-2.1,2.8,4.3,4.3,0,0,1-2.7.8,4.55,4.55,0,0,1-4-2,7.22,7.22,0,0,1-1.1-4.1,6.73,6.73,0,0,1,1.6-4.7,5.29,5.29,0,0,1,3.8-1.8,3.75,3.75,0,0,1,3.1,1.5A6,6,0,0,1,339.9,80.6Zm-3.1-.8a13.2,13.2,0,0,0-.2-2.8,2.13,2.13,0,0,0-.7-1.2,1,1,0,0,0-.7-.2,1.23,1.23,0,0,0-1.1.7,6.5,6.5,0,0,0-.8,3.1v.4Z" transform="translate(-0.09)"/><path class="cls-1" d="M345,75.1v2.7a6.89,6.89,0,0,1,2.1-2.4,2.72,2.72,0,0,1,1.7-.6,1.5,1.5,0,0,1,1.1.4,1.37,1.37,0,0,1,.4,1.2,2,2,0,0,1-.4,1.3,1.23,1.23,0,0,1-1,.5,1.92,1.92,0,0,1-1.2-.4c-.2-.2-.4-.3-.6-.5a.37.37,0,0,0-.3-.1.91.91,0,0,0-.7.3,3.17,3.17,0,0,0-.8,1.2,8.42,8.42,0,0,0-.4,2.7v3.4a2.77,2.77,0,0,0,.1.9.82.82,0,0,0,.5.5,3.55,3.55,0,0,0,1,.2V87h-6.4v-.5a1.78,1.78,0,0,0,1-.4,6.28,6.28,0,0,0,.3-1.9V77.6a5.7,5.7,0,0,0-.1-1.3,1,1,0,0,0-.4-.5,2.92,2.92,0,0,0-.9-.2v-.5Z" transform="translate(-0.09)"/><path class="cls-1" d="M356.9,85.2a5.82,5.82,0,0,1-3.9,1.9,2.34,2.34,0,0,1-1.7-.7,2.41,2.41,0,0,1-.7-1.7,3,3,0,0,1,1.2-2.4,21.6,21.6,0,0,1,5.1-2.9V78.2a9.7,9.7,0,0,0-.1-1.7,1,1,0,0,0-.5-.6,1.61,1.61,0,0,0-.9-.3,2.3,2.3,0,0,0-1.4.4.55.55,0,0,0-.3.5,1,1,0,0,0,.4.7,1.46,1.46,0,0,1,0,2.2,1.37,1.37,0,0,1-1.2.4,1.9,1.9,0,0,1-1.3-.5,1.61,1.61,0,0,1-.5-1.1,2.87,2.87,0,0,1,.7-1.8,4.64,4.64,0,0,1,2-1.3,8.42,8.42,0,0,1,2.7-.4,5.19,5.19,0,0,1,2.7.7,3.74,3.74,0,0,1,1.3,1.5,9.74,9.74,0,0,1,.2,2.4v4.6a3.4,3.4,0,0,0,.1,1c0,.1.1.2.2.3a.37.37,0,0,0,.3.1c.2,0,.4-.2.7-.5l.4.3a5.71,5.71,0,0,1-1.3,1.4,2.82,2.82,0,0,1-1.5.4,2.35,2.35,0,0,1-1.6-.5A1.12,1.12,0,0,1,356.9,85.2Zm0-.9v-4a7.1,7.1,0,0,0-2.3,1.9,2.39,2.39,0,0,0-.5,1.4,1.78,1.78,0,0,0,.4,1,1,1,0,0,0,.9.3A2,2,0,0,0,356.9,84.3Z" transform="translate(-0.09)"/><path class="cls-1" d="M366.9,75.1v1.5a4.89,4.89,0,0,1,1.8-1.4,3,3,0,0,1,1.8-.4,3.08,3.08,0,0,1,1.9.6,3.36,3.36,0,0,1,1,1.6,12.74,12.74,0,0,1,.2,2.8v4.6a2.49,2.49,0,0,0,.3,1.7,1.28,1.28,0,0,0,1,.4V87h-6v-.5a1.1,1.1,0,0,0,1-.6,4.14,4.14,0,0,0,.2-1.6V79a10.87,10.87,0,0,0-.1-1.8,2.09,2.09,0,0,0-.4-.6,1.42,1.42,0,0,0-.6-.2c-.7,0-1.4.5-2,1.6v6.4a2.49,2.49,0,0,0,.3,1.7,1.09,1.09,0,0,0,.9.4V87h-6v-.5a1.61,1.61,0,0,0,1.1-.5,3.21,3.21,0,0,0,.2-1.7V77.6a2.59,2.59,0,0,0-.3-1.7,1.28,1.28,0,0,0-1-.4V75l4.7.1Z" transform="translate(-0.09)"/><path class="cls-1" d="M382.7,74.8l.2,4h-.4a6.69,6.69,0,0,0-1.6-2.5,3.25,3.25,0,0,0-1.7-.7,1.4,1.4,0,0,0-.9.3,1.23,1.23,0,0,0-.4.8,1.08,1.08,0,0,0,.3.7,10.18,10.18,0,0,0,2.3,1.8,10.41,10.41,0,0,1,2.5,2.2,3.61,3.61,0,0,1,.6,2,4.14,4.14,0,0,1-.5,1.9,4,4,0,0,1-1.4,1.5,4.55,4.55,0,0,1-2,.5,6.35,6.35,0,0,1-2.3-.5.9.9,0,0,0-.5-.1c-.3,0-.5.2-.7.6h-.4l-.2-4.3h.4a5.15,5.15,0,0,0,1.6,2.5,2.73,2.73,0,0,0,1.9.8,1.28,1.28,0,0,0,1-.4,1.09,1.09,0,0,0,.4-.9,1.5,1.5,0,0,0-.4-1.1,7,7,0,0,0-1.7-1.3,12.66,12.66,0,0,1-2.5-2.1,3.78,3.78,0,0,1-.8-2.3,3.47,3.47,0,0,1,1-2.5,3.86,3.86,0,0,1,2.7-1.1,4.14,4.14,0,0,1,1.9.5,1.42,1.42,0,0,0,.6.2.6.6,0,0,0,.4-.1,1.76,1.76,0,0,0,.4-.5Z" transform="translate(-0.09)"/><path class="cls-1" d="M385.5,77.8v-.6a4.25,4.25,0,0,0,2.1-1.6,3.77,3.77,0,0,0,.7-2.1.37.37,0,0,0-.1-.3c0-.1-.1-.1-.2-.1s-.2,0-.2.1a1.49,1.49,0,0,1-.9.2,1.61,1.61,0,0,1-1.3-.6,1.55,1.55,0,0,1-.5-1.4,2,2,0,0,1,.6-1.5,2.2,2.2,0,0,1,1.5-.6,2.73,2.73,0,0,1,1.9.8,3.78,3.78,0,0,1,.8,2.3,5.17,5.17,0,0,1-1.1,3.2A5.58,5.58,0,0,1,385.5,77.8Z" transform="translate(-0.09)"/><path class="cls-1" d="M403.1,82.1H397l-.7,1.7a5.73,5.73,0,0,0-.4,1.4,1.25,1.25,0,0,0,.6,1.1,4.67,4.67,0,0,0,1.7.3V87h-5.7v-.5a2.24,2.24,0,0,0,1.5-.8,13.5,13.5,0,0,0,1.5-2.6l6.2-13.7h.2l6.2,14.1a7.25,7.25,0,0,0,1.5,2.5,2.57,2.57,0,0,0,1.2.5V87h-8.3v-.5h.3a3.19,3.19,0,0,0,1.4-.3.71.71,0,0,0,.3-.6.9.9,0,0,0-.1-.5,3.52,3.52,0,0,0-.4-1Zm-.4-1-2.6-5.9-2.6,5.9Z" transform="translate(-0.09)"/><path class="cls-1" d="M415.9,76.3v8.2a2.06,2.06,0,0,0,.3,1.5,1.67,1.67,0,0,0,1.5.4V87h-7v-.5a2,2,0,0,0,1.1-.2,1.21,1.21,0,0,0,.5-.5,2.77,2.77,0,0,0,.1-1.3V76.2h-1.7V74.9h1.7V73.4a4.34,4.34,0,0,1,1.3-3,4.8,4.8,0,0,1,3.6-1.2,3.22,3.22,0,0,1,2.3.6,2.22,2.22,0,0,1,.8,1.3,1.23,1.23,0,0,1-.5,1,1.75,1.75,0,0,1-1.2.4,1.69,1.69,0,0,1-1-.3,1.23,1.23,0,0,1-.4-.8.9.9,0,0,1,.1-.5v-.4a.6.6,0,0,0-.1-.4.76.76,0,0,0-.5-.2.71.71,0,0,0-.6.3,1.69,1.69,0,0,0-.3,1v3.6h1.8V76Z" transform="translate(-0.09)"/><path class="cls-1" d="M423.3,76.3v8.2a2.06,2.06,0,0,0,.3,1.5,1.67,1.67,0,0,0,1.5.4V87h-7v-.5a2,2,0,0,0,1.1-.2,1.21,1.21,0,0,0,.5-.5,2.77,2.77,0,0,0,.1-1.3V76.2H418V74.9h1.7V73.4a4.34,4.34,0,0,1,1.3-3,4.8,4.8,0,0,1,3.6-1.2,3.22,3.22,0,0,1,2.3.6,2.22,2.22,0,0,1,.8,1.3,1.23,1.23,0,0,1-.5,1,1.75,1.75,0,0,1-1.2.4,1.69,1.69,0,0,1-1-.3,1.23,1.23,0,0,1-.4-.8.9.9,0,0,1,.1-.5v-.4a.6.6,0,0,0-.1-.4.76.76,0,0,0-.5-.2.71.71,0,0,0-.6.3,1.69,1.69,0,0,0-.3,1v3.6h1.7V76Z" transform="translate(-0.09)"/><path class="cls-1" d="M432,85.2a5.82,5.82,0,0,1-3.9,1.9,2.34,2.34,0,0,1-1.7-.7,2.41,2.41,0,0,1-.7-1.7,3,3,0,0,1,1.2-2.4,21.6,21.6,0,0,1,5.1-2.9V78.2a9.7,9.7,0,0,0-.1-1.7,1,1,0,0,0-.5-.6,1.61,1.61,0,0,0-.9-.3,2.3,2.3,0,0,0-1.4.4.55.55,0,0,0-.3.5,1,1,0,0,0,.4.7,1.46,1.46,0,0,1,0,2.2,1.37,1.37,0,0,1-1.2.4,1.9,1.9,0,0,1-1.3-.5,1.61,1.61,0,0,1-.5-1.1,2.87,2.87,0,0,1,.7-1.8,4.64,4.64,0,0,1,2-1.3,8.42,8.42,0,0,1,2.7-.4,5.19,5.19,0,0,1,2.7.7,3.74,3.74,0,0,1,1.3,1.5,9.74,9.74,0,0,1,.2,2.4v4.6a3.4,3.4,0,0,0,.1,1c0,.1.1.2.2.3a.37.37,0,0,0,.3.1c.2,0,.4-.2.7-.5l.4.3a5.71,5.71,0,0,1-1.3,1.4,2.82,2.82,0,0,1-1.5.4,2.35,2.35,0,0,1-1.6-.5C432.2,86.2,432,85.8,432,85.2Zm0-.9v-4a7.1,7.1,0,0,0-2.3,1.9,2.39,2.39,0,0,0-.5,1.4,1.78,1.78,0,0,0,.4,1,1,1,0,0,0,.9.3A2.4,2.4,0,0,0,432,84.3Z" transform="translate(-0.09)"/><path class="cls-1" d="M441.7,75.1v9.4a2.22,2.22,0,0,0,.3,1.6,1.5,1.5,0,0,0,1.1.4V87h-6.4v-.5a1.46,1.46,0,0,0,1.2-.5,4.15,4.15,0,0,0,.3-1.6V77.5a2.22,2.22,0,0,0-.3-1.6,1.5,1.5,0,0,0-1.1-.4V75l4.9.1ZM440,69.3a2,2,0,1,1-2,2,1.82,1.82,0,0,1,.6-1.4A2.51,2.51,0,0,1,440,69.3Z" transform="translate(-0.09)"/><path class="cls-1" d="M448,75.1v2.7a7.78,7.78,0,0,1,2-2.4,2.72,2.72,0,0,1,1.7-.6,1.5,1.5,0,0,1,1.1.4,1.37,1.37,0,0,1,.4,1.2,2,2,0,0,1-.4,1.3,1.23,1.23,0,0,1-1,.5,1.92,1.92,0,0,1-1.2-.4c-.2-.2-.4-.3-.6-.5a.37.37,0,0,0-.3-.1.91.91,0,0,0-.7.3,3.17,3.17,0,0,0-.8,1.2,8.42,8.42,0,0,0-.4,2.7v3.4a2.77,2.77,0,0,0,.1.9.82.82,0,0,0,.5.5,3.55,3.55,0,0,0,1,.2V87H443v-.5a1.78,1.78,0,0,0,1-.4,6.28,6.28,0,0,0,.3-1.9V77.6a5.7,5.7,0,0,0-.1-1.3,1,1,0,0,0-.4-.5,2.92,2.92,0,0,0-.9-.2v-.5Z" transform="translate(-0.09)"/><path class="cls-1" d="M460.8,74.8l.2,4h-.4a6.69,6.69,0,0,0-1.6-2.5,3.25,3.25,0,0,0-1.7-.7,1.4,1.4,0,0,0-.9.3,1.23,1.23,0,0,0-.4.8,1.08,1.08,0,0,0,.3.7,10.18,10.18,0,0,0,2.3,1.8,8.81,8.81,0,0,1,2.5,2.2,3.61,3.61,0,0,1,.6,2,4.14,4.14,0,0,1-.5,1.9,4,4,0,0,1-1.4,1.5,4.55,4.55,0,0,1-2,.5,6.35,6.35,0,0,1-2.3-.5.9.9,0,0,0-.5-.1c-.3,0-.5.2-.7.6h-.4l-.2-4.3h.4a5.15,5.15,0,0,0,1.6,2.5,2.73,2.73,0,0,0,1.9.8,1.28,1.28,0,0,0,1-.4,1.09,1.09,0,0,0,.4-.9,1.5,1.5,0,0,0-.4-1.1,7,7,0,0,0-1.7-1.3,12.66,12.66,0,0,1-2.5-2.1,3.78,3.78,0,0,1-.8-2.3,3.47,3.47,0,0,1,1-2.5,3.17,3.17,0,0,1,2.7-1.1,4.14,4.14,0,0,1,1.9.5,1.42,1.42,0,0,0,.6.2.6.6,0,0,0,.4-.1,1.76,1.76,0,0,0,.4-.5Z" transform="translate(-0.09)"/><path class="cls-1" d="M43.5,75.7c-.1.1-.2.3-.3.3" transform="translate(-0.09)"/><path class="cls-1" d="M46.5,52.1a.6.6,0,1,0-.6-.6h0c-.1.3.2.6.6.6Z" transform="translate(-0.09)"/><path class="cls-1" d="M75.7,25.5H53V43.9a4.25,4.25,0,0,0,1.8,3.8l8.8,5.2a1.09,1.09,0,0,0,1.5.1h0L74,47.7a4.25,4.25,0,0,0,1.8-3.8V25.5ZM60.5,30.8h-2V26.1h2Zm-1.4,1.6.3-.3-.2-.3h.4l.2-.4.2.4h.4l-.2.3.3.3-.4.1v.4l-.3-.3-.3.3v-.4l-.4-.1Zm-5.5,5.9V33.8H56v4.5Zm.4-6.5h.4l.2-.4.2.4h.4l-.2.3.3.3-.4.1v.4l-.3-.3-.3.3v-.4l-.4-.1.3-.3Zm2.7,4.6h.4l.2-.4.2.4h.4l-.2.3.3.3-.4.1v.4l-.3-.3-.3.3V37h-.4l.3-.3-.2-.3Zm1.6-3.6c0-.1-.2-.2-.2-.2s-.4.4-.5.4-.2,0-.2-.1.3-.2.4-.3c-1.5,0-1.5.7-1.7.7-.4,0,.3-.7.5-.9-.3,0-.5-.4-.8-.6.2-.2.2-.1.4,0,0-.2.1-.3.5-.3.7,0,.5.6.6.6s0-.6.4-.6c.7,0,1.5,1.7.7,1.7-.4-.2-.1-.4-.1-.4Zm-1.7-5,.3-.3-.2-.3h.4l.2-.4.2.4h.4l-.2.3.3.3-.4.1v.4l-.3-.3-.3.3v-.4l-.4-.1ZM56,26.1v4.7H53.6V26.1Zm4.5,24.3-5.4-3.3a3.84,3.84,0,0,1-1.5-3V38.9h6.9V50.4Zm-2-12.1V33.8h2v4.5Zm9,12.4L65,52.2h0a1.45,1.45,0,0,1-.7.2,1.85,1.85,0,0,1-.7-.2l-2.5-1.5V38.9h6.4V50.7Zm0-12.4H61.1V26.1h6.4V38.3Zm7.6,5.8a3.84,3.84,0,0,1-1.5,3l-5.4,3.3V38.9h6.9Zm0-5.8H68.2V26.1h6.9V38.3Z" transform="translate(-0.09)"/><path class="cls-1" d="M60.2,43.1c0-.1-.9.3-.6.3a2.18,2.18,0,0,1,.7-.9c0-.3-.4,0-.8.2,1.3-1.9.5-1.1-.3-1,1.2-1.3.8-1.2,0-.8.7-.5.8-1.2.7-1.3-.6.8-1.2.7-1.2,1.5a4.19,4.19,0,0,1-.4,1.6c-.3.4-.1-1.4-1-1.4-.3,0-1,0-1.2.3.2,0,.4.5.4.6s.2.7-.1.7-.7-.6-.7-.9v-.7A2.55,2.55,0,0,0,54,39.5c0,.5.7.6.7,1.3-.3,0-.7-.5-.7-.2s.4.4.4.7-.5-.1-.5.2.3.2.3.5c-.2-.1-.4,0-.4.1s.1.2.2.3c-.1.1-.1.2-.1.7,0,1.5.9,2.1,1.6,2.1.5,0,.4-.3.5-.5,0,.3.3-.1.3.3s-.5.3-.5.6.7,0,.7.6a3.75,3.75,0,0,1-.1,1c0,.2.8-.3.7-.3.2.1.2.6.5.6s.3-.5.4-.6c-.1,0,.7.5.7.3,0-.7-.3-.4-.3-.8s.9-.3.8-.6-.2-.1-.3-.4c0,.1-.7-1.1.2-.5s1-1.7,1.1-1.8Z" transform="translate(-0.09)"/><path class="cls-1" d="M84.4,47.9a.65.65,0,0,0-.1-1.3.65.65,0,0,0-.6.6A.68.68,0,0,0,84.4,47.9Z" transform="translate(-0.09)"/><path class="cls-1" d="M81.4,49.7a.65.65,0,0,0-.1-1.3.65.65,0,0,0-.6.6A.68.68,0,0,0,81.4,49.7Z" transform="translate(-0.09)"/><path class="cls-1" d="M45.5,53.9a.65.65,0,0,0-.1-1.3.65.65,0,0,0-.6.6C44.7,53.6,45.1,53.9,45.5,53.9Z" transform="translate(-0.09)"/><path class="cls-1" d="M47.8,54.1a.67.67,0,1,0-.3-1.3.63.63,0,0,0-.5.6.77.77,0,0,0,.8.7Z" transform="translate(-0.09)"/><path class="cls-1" d="M112.5,22.7a4.78,4.78,0,0,1,.6,5c-.4,0-.4-.6-.4-.9-.8-1.5-1.4-3.4-.7-5,.4.1.2.7.5.9Z" transform="translate(-0.09)"/><path class="cls-1" d="M17.5,24.5a8.6,8.6,0,0,0,0,3.2c-.2.2-.2-.2-.4-.2-1.5-1.1-.8-3.3-1.2-4.9.1-.1.3-.2.4-.1a2.54,2.54,0,0,1,1.2,2Z" transform="translate(-0.09)"/><path class="cls-1" d="M115.9,24.6c.2.4-.2.9-.5,1.1a1,1,0,0,1-1-.4.88.88,0,0,1,.5-1,.91.91,0,0,1,1,.3Z" transform="translate(-0.09)"/><path class="cls-1" d="M15.1,26.4a1.05,1.05,0,0,1-.5.9,1.2,1.2,0,0,1-.8-.2.83.83,0,0,1-.2-.8,1.23,1.23,0,0,1,.8-.4C14.7,26,15,26,15.1,26.4Z" transform="translate(-0.09)"/><path class="cls-1" d="M117.5,27a.73.73,0,0,1-.4,1,.85.85,0,0,1-.7,0,1,1,0,0,1-.4-.7,1.21,1.21,0,0,1,.7-.7,2,2,0,0,1,.8.4Z" transform="translate(-0.09)"/><path class="cls-1" d="M115.2,27.1c.3.2.1.6,0,.8s-.5.5-.8.4-.4-.2-.5-.5a.87.87,0,0,1,.6-.9,1.08,1.08,0,0,1,.7.2Z" transform="translate(-0.09)"/><path class="cls-1" d="M112.3,27.7c0,.4,0,1-.5,1.1a.72.72,0,0,1-.9-.5h0a1,1,0,0,1,.6-1,.74.74,0,0,1,.8.4Z" transform="translate(-0.09)"/><path class="cls-1" d="M19.5,27.9c.1.4-.3.6-.5.8a.91.91,0,0,1-.8-.4c-.3-.3.1-.5.2-.8a.76.76,0,0,1,1,.1.37.37,0,0,0,.1.3Z" transform="translate(-0.09)"/><path class="cls-1" d="M17.1,28a1.23,1.23,0,0,1-.4.8.74.74,0,0,1-.8-.4.69.69,0,0,1,.3-.9h0c.4-.2.7.2.9.5Z" transform="translate(-0.09)"/><path class="cls-1" d="M102.7,28.2a9,9,0,0,1,.8,2.8c-.2.8.1,1.8-.4,2.3-.6-.2-.6-.9-1-1.2-.7-1.4-.1-3,.2-4.4.2-.2.2.2.4.5Z" transform="translate(-0.09)"/><path class="cls-1" d="M15.2,28.7c.1.5-.2.7-.5,1a1,1,0,0,1-1-.6,1.23,1.23,0,0,1,.5-1,.85.85,0,0,1,1,.6Z" transform="translate(-0.09)"/><path class="cls-1" d="M109,29.8a5.54,5.54,0,0,1,.2,3.8l-.2.2a13.69,13.69,0,0,1-1.6-3.2,5.93,5.93,0,0,1,.5-2.3c.3-.2.4,0,.6.3a1.15,1.15,0,0,0,.5,1.2Z" transform="translate(-0.09)"/><path class="cls-1" d="M114,29.1a1.1,1.1,0,0,1-.6,1,.75.75,0,0,1-.9-.4h0a1,1,0,0,1,.4-1C113.4,28.4,113.8,28.8,114,29.1Z" transform="translate(-0.09)"/><path class="cls-1" d="M17.1,30.3a.87.87,0,0,1-.6.8c-.3.2-.5-.2-.8-.3a1.39,1.39,0,0,1,0-.9c.1-.2.4-.2.6-.3C16.7,29.8,17,29.9,17.1,30.3Z" transform="translate(-0.09)"/><path class="cls-1" d="M18.9,30.1c.2.4-.3.6-.4.8-.5.2-.7-.2-.9-.5s.2-.6.4-.9C18.4,29.5,18.6,29.8,18.9,30.1Z" transform="translate(-0.09)"/><path class="cls-1" d="M115.1,30c0,.5-.8,1-.9,1.6a3.89,3.89,0,0,1-2.5,2.2,1.62,1.62,0,0,1-.9.5c-.1-.8.6-1.5,1.1-2.2A5.35,5.35,0,0,1,115.1,30Z" transform="translate(-0.09)"/><path class="cls-1" d="M16.3,31.7a14.62,14.62,0,0,0,1.6,1.9c0,.2-.1.4-.2.4h0c-1.9-.1-3.3-2.1-4.2-3.5.1-.4.6-.1.9-.1C15,30.8,15.8,31,16.3,31.7Z" transform="translate(-0.09)"/><path class="cls-1" d="M115.6,32.2a5,5,0,0,1-2.5,4.3c-.4.2-.9.6-1.3.3a17.52,17.52,0,0,1,3.5-4.6Z" transform="translate(-0.09)"/><path class="cls-1" d="M108,33.4a1.09,1.09,0,0,1-.7,1.2,1.15,1.15,0,0,1-.9-.6.78.78,0,0,1,.6-.9.75.75,0,0,1,.5-.1c.2,0,.3.2.5.4Z" transform="translate(-0.09)"/><path class="cls-1" d="M14.1,33.8a12.86,12.86,0,0,1,2.1,1.9c-.5.4-1.1,0-1.8,0-1.4-.5-2.3-1.6-3.6-2,0-.4.6-.3.8-.4a5.34,5.34,0,0,1,2.5.5Z" transform="translate(-0.09)"/><path class="cls-1" d="M56.6,21.9c-2.2-.9-3.7,1.4-6,1.2-.3.2-.2.4-.4.6s-.3,0-.4,0a28,28,0,0,0-.6-2.8c-.2-.4-.1-1-.3-1.4-1.3-3.5,3.1-.8,4-2.9.8-1.8-1.5-2-2.1-3.2V13c-.6-.6-1.3-.8-1.7-1.7a5.46,5.46,0,0,0,.1-3.1c0-.2-.2-.6-.5-.4-.8,1-1.3,1.9-2,2.9-.7-.6-1.5-1.2-2.3-1.8-.6-.1-1.2-.7-1.8-.4a.66.66,0,0,0,.1.6A5.82,5.82,0,0,0,44.6,13l.1.6c-.7,1.6-.5,3.5-.7,5.3A29,29,0,0,1,35.4,31c-2.3,2.6-5,5-5.3,8.5-.1.6.1,1.2-.4,1.6a13.28,13.28,0,0,1-3.7-2c-1.8-1.3-4.4-1.1-5.6-3.4-.5-.9.1-1.8.5-2.5,1.4-1.3,1.1-3.6.4-5.1-.2,0-.2.2-.3.2-.1,2.4-2,4-1.3,6.6.2.8.6,1.2.8,2a2.92,2.92,0,0,1-.9-.2,10.87,10.87,0,0,0-2.6-.4c-1.8.8-4.3-.2-5.8,1.5-.2,0-.6.1-.5.4.9,0,1.7.2,2.6.2,1.4.2,2.3-.9,3.3-1.4h.2c.4-.4,1.1-.2,1.6-.2,2.5.3,4.4,1.5,6.5,2.7v.2c-.8.4-1.7.6-2.5,1a5.32,5.32,0,0,0-2.2,2.7c-.6,1,.2,1.9.6,2.7,0,.4.1.9.4,1,1.3-1.4.1-3,.3-4.6a3.21,3.21,0,0,1,2.5-2c2.3-1,3.9.9,5.7,1.9a32.52,32.52,0,0,1-.2,5.4,5.84,5.84,0,0,1-1.9.2c-3.1.2-5.6,2-8.4,2.9-1.3.4-2.8.4-4,.9a10.07,10.07,0,0,0,3-.1c3.9-.6,6.9-3.6,11.1-3l.1.1a9.66,9.66,0,0,1-1.9,2.6,1.33,1.33,0,0,0-.6-1,.81.81,0,0,0-.9.3.64.64,0,0,0,0,.6,1.46,1.46,0,0,0,.9.6c-.1.4-.5.5-.8.8-1.1,1.9-3.4,1.1-4.7,2.4-.2.3-.9.4-.6.9a6,6,0,0,0,4.1-1l4.5-4.8a4.6,4.6,0,0,1-.9,3.6,10.91,10.91,0,0,0-1.1-.6,1,1,0,0,0-.7.8,1.56,1.56,0,0,0,.6.8c-1.3,1-3,1-4.6,1.5a63.25,63.25,0,0,1-8.6.6c-1.4-.1-3,.4-4.3,0-1.5.3-3.1-.2-4.4.6-.2.2,0,.4,0,.6,1.8,1.2,4.3.2,6.4.6H27.4a5.92,5.92,0,0,0,3.2-.6c2-1.2,3.1-3.2,4.2-5.3a7.54,7.54,0,0,0,.8-2.4,3.44,3.44,0,0,1,3-2.4,18.2,18.2,0,0,1-.7,6.1c-.2,1.3-1.1,2.5-.6,3.9.1.6.8.6,1.3.7a144.72,144.72,0,0,1,14.7.1,12.59,12.59,0,0,0,2.7.4c.1-.1.4-.2.2-.4a1.41,1.41,0,0,0-1-1.1c-.1-.2-.4-.2-.5-.3-2.5-1.4-5.6-.7-8.6-.6-1.5.2-3.1.4-4.4-.4-.6-.7-.2-3-.2-3A53.19,53.19,0,0,1,44,45.7a5.54,5.54,0,0,0,.2-1.8,9.23,9.23,0,0,0,.3-2.9,22.85,22.85,0,0,1,1.2-3.7,13.36,13.36,0,0,1,.7-1.8,6,6,0,0,1,.8-2.1c1.3.8,2.6.8,3.2,2.3l.5,3.3c0,.2.2.6.4.4,1-.7.7-2.2.7-3.2.2-1.2-.6-1.8-1-2.9a7.46,7.46,0,0,1-.7-1.2c-.2-.9-2.1-1.5-1.7-2.6a3.6,3.6,0,0,1,1.3-2.3c.1.1.2.2.2.3l.5-.3V23.9c1.3,0,3.2.2,4.5.2.4.1.6.4,1,.4l.3-.4,3.2-.6c-.9-.1-1.8-1.6-3-1.6Z" transform="translate(-0.09)"/><path class="cls-1" d="M25.6,34.5a.87.87,0,0,1-.6.9,1.77,1.77,0,0,1-.8-.5c-.3-.3.2-.8.5-.9.4.1.8.1.9.5Z" transform="translate(-0.09)"/><path class="cls-1" d="M23,34.5a1,1,0,0,1,.2.9c-.3.2-.7.4-1,.1s-.5-.5-.3-.8a.78.78,0,0,1,1.1-.2Z" transform="translate(-0.09)"/><path class="cls-1" d="M108.4,35.6c.2.4-.2.8-.5.9-.4-.1-.9-.2-.9-.7a.78.78,0,0,1,.9-.6.66.66,0,0,1,.5.4Z" transform="translate(-0.09)"/><path class="cls-1" d="M110.5,35.5c.1.2.4.5.1.7a1.38,1.38,0,0,0-.4.3.88.88,0,0,1-1-.5h0c-.1-.4.3-.6.6-.8s.5.2.7.3Z" transform="translate(-0.09)"/><path class="cls-1" d="M13,36a.78.78,0,0,1-.9.6H12c-.1-.2-.2-.3-.3-.5a.84.84,0,0,1,.4-.7A.78.78,0,0,1,13,36Z" transform="translate(-0.09)"/><path class="cls-1" d="M26.4,36.7c0,.3-.4.6-.7.8a1,1,0,0,1-.9-.6.89.89,0,0,1,.5-.8.86.86,0,0,1,1.1.6Z" transform="translate(-0.09)"/><path class="cls-1" d="M24,36.4a.47.47,0,0,1,.1.6c-.2.2-.6.6-1,.3-.2-.2-.5-.4-.4-.8a2.65,2.65,0,0,1,.6-.5,1,1,0,0,1,.7.4Z" transform="translate(-0.09)"/><path class="cls-1" d="M116.6,36.9a1,1,0,0,1-.5.8,1,1,0,0,1-.9-.2c-.2-.1-.2-.4-.2-.6a1.13,1.13,0,0,1,.8-.5,1,1,0,0,1,.8.5Z" transform="translate(-0.09)"/><path class="cls-1" d="M119.1,37.2a1,1,0,0,1-.8.7c-.2,0-.7-.1-.6-.5a.55.55,0,0,1,.4-.6.69.69,0,0,1,1,.4Z" transform="translate(-0.09)"/><path class="cls-1" d="M17.5,37.8a.83.83,0,0,1-.5,1h0c-.3.2-.5,0-.8-.2a.78.78,0,0,1-.2-.8c.1-.4.4-.3.7-.4a.89.89,0,0,1,.8.4Z" transform="translate(-0.09)"/><path class="cls-1" d="M19.5,38.2c.1.3-.2.4-.3.7a.85.85,0,0,1-.7,0c-.3-.2-.6-.6-.3-1,.3-.6,1.1-.3,1.3.3Z" transform="translate(-0.09)"/><path class="cls-1" d="M114.3,38a1.15,1.15,0,0,1-.6.9.66.66,0,0,1-.8-.5,1.23,1.23,0,0,1,.4-.8,1.16,1.16,0,0,1,1,.4Z" transform="translate(-0.09)"/><path class="cls-1" d="M117.5,38.6c-.1.4,0,.8-.4,1a1.23,1.23,0,0,1-1-.2.83.83,0,0,1-.2-.8.88.88,0,0,1,1-.5C117.2,38.3,117.3,38.5,117.5,38.6Z" transform="translate(-0.09)"/><path class="cls-1" d="M16,39.4c.2.3-.2.4-.3.6a.75.75,0,0,1-.8-.1c-.3-.2-.2-.6-.1-.8C15.1,38.5,15.8,39,16,39.4Z" transform="translate(-0.09)"/><path class="cls-1" d="M115,40.2c.2,0,.1.3,0,.4a2.87,2.87,0,0,1-3.2-.2c-.5-.3-1-.6-1.6-.9.2-.5.9-.5,1.4-.6,1.2.2,2.1,1.3,3.4,1.3Z" transform="translate(-0.09)"/><path class="cls-1" d="M17.9,39.8c.1.3-.2.4-.2.7s-.5.2-.7.1a.75.75,0,0,1-.4-.9c.1-.4.5-.5.9-.4A.66.66,0,0,1,17.9,39.8Z" transform="translate(-0.09)"/><path class="cls-1" d="M21.4,40.1c.2.4-.1.7-.4.9s-.5-.1-.8-.1c-.2-.3-.5-.6-.2-.9C20.4,39.3,21.1,39.6,21.4,40.1Z" transform="translate(-0.09)"/><path class="cls-1" d="M67.3,41.8c-.1.8-1.4-.1-1.2,1a5.28,5.28,0,0,0,.8,2.2c.4.5.2,1.4.2,2a3.74,3.74,0,0,1-1.5,1.3c-1.1-.1-2.8.6-3.3-.8a6,6,0,0,1-.6-1.9c.1-.1.3-.1.4-.2,0-.3-.3-.4-.3-.7,1.3-.2-.5-1.4.6-1.4.9,1,2.4.7,3.2,1.7.2.2.4.3.6.5-.2-1-.6-1.9-.8-2.9a1.48,1.48,0,0,1,.4-1.3c.6-.7,1.1,0,1.5.5Z" transform="translate(-0.09)"/><path class="cls-1" d="M24.9,41.5c.1.4-.2.6-.4.8s-.5-.2-.7-.4c-.1-.4.2-.6.4-.8A.84.84,0,0,1,24.9,41.5Z" transform="translate(-0.09)"/><path class="cls-1" d="M49.4,41.9a5.49,5.49,0,0,1-.5,4.5c0,.3.1.8-.4.8-1.1-1.5-.3-3.6.2-5.1.1-.4.6-.6.7-.2Z" transform="translate(-0.09)"/><path class="cls-1" d="M83.3,42.7a4.36,4.36,0,0,1,.1,3.7l-.3.3a7.09,7.09,0,0,1-.9-2.8,16,16,0,0,0,.5-2.1C83.2,41.6,83.2,42.3,83.3,42.7Z" transform="translate(-0.09)"/><path class="cls-1" d="M28,43.1c-.2.5-.9.6-1.3.9a4.78,4.78,0,0,1-3.5.7,4.31,4.31,0,0,1,4.5-1.9C27.7,43,27.9,42.9,28,43.1Z" transform="translate(-0.09)"/><path class="cls-1" d="M11.7,44.5c1.5,1,1.9,2.5,2.7,3.9.1.2.5.2.4.5-.3.2-.6-.2-1.1-.2a4.44,4.44,0,0,1-2.4-4.1c0-.1.3-.1.4-.1Z" transform="translate(-0.09)"/><path class="cls-1" d="M81.8,45.8c0,.4,0,.8-.4.9a.72.72,0,0,1-.9-.5h0c-.1-.3.1-.4.2-.6a.68.68,0,0,1,1,.1A.1.1,0,0,1,81.8,45.8Z" transform="translate(-0.09)"/><path class="cls-1" d="M98.5,47.9a16.6,16.6,0,0,1,.3-2.2,3.09,3.09,0,0,0,.2-.8c1-1.3,2.9-.9,4.4-.8a6.47,6.47,0,0,0,2,.4,1.23,1.23,0,0,1,1-.2c1.3-.7.4-2.2.5-3.3l-.5-1.2c-.1-.3-.2-.5-.3-.8s-.4-.8-.6-1.1c-.7-1.8-2-2.8-3.1-4.2-2-2.6-5.2-4.1-8.4-5.2s-6.3.5-9.1,1.5a2.3,2.3,0,0,1-1.6-1.7,7.56,7.56,0,0,1,.8-4.2,15.33,15.33,0,0,1,1.1-2.7,26.68,26.68,0,0,0,1.6-6.9,3.85,3.85,0,0,0-2.1-3.2,2.18,2.18,0,0,0-2.2.4A5.82,5.82,0,0,1,79.9,14c-.1.7.8.2,1,.5.9.2,1.9-.1,2.6.4A6.85,6.85,0,0,1,81.8,19a34.6,34.6,0,0,0-3.6,6.2H78l.2,9.8c1.3,2.1,2.8,4.5,5.2,5.3,1.3,1,2.9,2.3,4.6,1.4.9-.3,1,1,1.4,1.5.5,1.5-.6,2.5-.7,3.9l-1,2.2a31.55,31.55,0,0,1-4.1,6.8c-.6,0-1,.6-1.6.7-.3.4-1,.1-1.3.3-1.2.5-3,.2-3.8,1.4.1.1.2.2.3.2,2.4,0,5.1.2,7.7.1a.87.87,0,0,0,.6-.8c-.4-.7.1-1.3.4-1.8A18.89,18.89,0,0,1,87,53.7c.8-1.6,1.8-3.2,2.7-4.9l1.2-2a15.45,15.45,0,0,1,1.2-2.2,4.13,4.13,0,0,0,.7-1.1,1,1,0,0,0-.4-.8c.3-.3.7-.2,1.1-.3A4.06,4.06,0,0,1,95.7,45l.4,1,.2.5-.1,1.3.2,1.2a22.68,22.68,0,0,1-.4,5.8c-.7,2.3-3.3,2.1-5.2,2.6-.5.3-1.4.2-1.4,1,2.3.5,5,.2,7.5.2.4-.2.5-.5.7-.9s.6-1,.4-1.5c-.4-.6,0-1.4-.2-2.2a1.1,1.1,0,0,0,0-.8c.3-1.2.2-2.6.5-3.7l.2-1.6Z" transform="translate(-0.09)"/><path class="cls-1" d="M118.1,46.3c-1.3,1.8-2.6,3.8-4.8,4.5-.2,0-.3.1-.4-.1,1.3-1.4,2.1-3.7,4.2-4.2a1.09,1.09,0,0,1,1-.2Z" transform="translate(-0.09)"/><path class="cls-1" d="M9.8,48.3c-.2.2,0,.5-.4.6a.6.6,0,0,1-.8-.4.72.72,0,0,1,.5-.9h0c.3.2.6.3.7.7Z" transform="translate(-0.09)"/><path class="cls-1" d="M21.2,48.9c.1.4-.3.4-.5.4a4.43,4.43,0,0,1-4.6-1.2c0-.2,0-.3.2-.4C18,48.2,19.9,47.9,21.2,48.9Z" transform="translate(-0.09)"/><path class="cls-1" d="M12,48.3a1.27,1.27,0,0,1,.1.6,1,1,0,0,1-1,.4,1.21,1.21,0,0,1-.5-.5,1,1,0,0,1,.6-.8,1.33,1.33,0,0,1,.8.3Z" transform="translate(-0.09)"/><path class="cls-1" d="M49.1,48.5c.1.4-.2.6-.5.8a.83.83,0,0,1-.8-.3.67.67,0,0,1,.3-.8c.3-.1.9,0,1,.3Z" transform="translate(-0.09)"/><path class="cls-1" d="M119.6,48.7c.1.4-.2.6-.5.8a1.13,1.13,0,0,1-.8-.1c0-.2-.3-.4-.2-.6a1.05,1.05,0,0,1,.9-.5c.2.1.4.3.6.4Z" transform="translate(-0.09)"/><path class="cls-1" d="M122.2,48.5c.2.4,0,.6-.2.9a.43.43,0,0,1-.7.2c-.2-.2-.6-.4-.6-.7s.4-.6.6-.7c.4-.1.6.3.9.3Z" transform="translate(-0.09)"/><path class="cls-1" d="M8.1,49.7c0,.3-.2.4-.3.7a1.42,1.42,0,0,1-.6.2,1.17,1.17,0,0,1-.6-.6,1,1,0,0,1,.7-.8.69.69,0,0,1,.8.5Z" transform="translate(-0.09)"/><path class="cls-1" d="M91.6,49.7v.5a.82.82,0,0,1-1,.4c-.2-.2-.5-.5-.4-.8a.8.8,0,0,1,1.1-.3c.1,0,.2.1.3.2Z" transform="translate(-0.09)"/><path class="cls-1" d="M14.5,50.3c-.1.3-.2.6-.5.6s-.5-.3-.7-.4c0-.4,0-.7.3-.9a.72.72,0,0,1,.9.5v.2Z" transform="translate(-0.09)"/><path class="cls-1" d="M10.7,50.4a.87.87,0,0,1-.4.9.79.79,0,1,1-.4-1.5c.4,0,.6.4.8.6Z" transform="translate(-0.09)"/><path class="cls-1" d="M94.3,50.3a.82.82,0,0,1-.4,1c-.5.2-.9-.2-1.1-.6.2-.3.2-.8.7-.8a1.23,1.23,0,0,1,.8.4Z" transform="translate(-0.09)"/><path class="cls-1" d="M12.5,50.5c.1.3-.1.4-.2.6-.2,0-.3.2-.5.2a.65.65,0,0,1-.5-.6,1,1,0,0,1,.5-.8C12.2,49.9,12.5,50.1,12.5,50.5Z" transform="translate(-0.09)"/><path class="cls-1" d="M117.4,50.8a1.06,1.06,0,0,1-.7.6c-.3.1-.5-.2-.8-.3s-.1-.5,0-.7a.71.71,0,0,1,1.1-.2.55.55,0,0,1,.4.6Z" transform="translate(-0.09)"/><path class="cls-1" d="M120.4,50.9a1.09,1.09,0,0,1-1,.7c-.4-.2-.8-.4-.5-.9.2-.2.2-.3.5-.4a.88.88,0,0,1,1,.5Z" transform="translate(-0.09)"/><path class="cls-1" d="M101.6,51.2c.2.5-.3.7-.6.9-.3,0-.5-.2-.8-.3a1,1,0,0,1,.6-1,1.23,1.23,0,0,1,.8.4Z" transform="translate(-0.09)"/><path class="cls-1" d="M90.7,51.7c.2.1.1.4.1.5-.2.2-.6.6-.9.3a.63.63,0,0,1-.4-.8.78.78,0,0,1,1-.2.22.22,0,0,0,.2.2Z" transform="translate(-0.09)"/><path class="cls-1" d="M92.9,52a.49.49,0,0,1-.3.6c-.3.3-.6,0-.9-.1a.64.64,0,0,1,0-.6.55.55,0,0,1,.5-.3c.3.1.6.1.7.4Z" transform="translate(-0.09)"/><path class="cls-1" d="M25.6,52c.2.2,0,.5-.1.8a.78.78,0,0,1-1,.2.81.81,0,0,1-.3-1c.2-.1.2-.4.5-.4a1.49,1.49,0,0,1,.9.4Z" transform="translate(-0.09)"/><path class="cls-1" d="M105.8,52.2c.1.4-.3.6-.6.6-.5.2-.7-.2-.9-.5,0-.2.2-.4.3-.6.6-.2.9.2,1.2.5Z" transform="translate(-0.09)"/><path class="cls-1" d="M103.7,52.2c.2.4-.3.6-.4.8a.8.8,0,0,1-.9-.2c-.2-.1-.2-.4-.2-.6a2.65,2.65,0,0,1,.6-.5A1.19,1.19,0,0,1,103.7,52.2Z" transform="translate(-0.09)"/><path class="cls-1" d="M121.6,52.7c.1.6-.6.3-.9.4-1.7,1-3.8.2-5.4-.4.1-.5.7-.3,1-.5,1.7-1.1,3.5.2,5.2.3l.1.2Z" transform="translate(-0.09)"/><path class="cls-1" d="M13,52.2l-.2.3a6.59,6.59,0,0,1-5.1.9l-.2-.2a7.68,7.68,0,0,1,5.3-1.1A.35.35,0,0,1,13,52.2Z" transform="translate(-0.09)"/><path class="cls-1" d="M109.8,52.5a.91.91,0,0,1-.4.8.82.82,0,0,1-1-.4c-.1-.3.2-.6.5-.8a.58.58,0,0,1,.9.4Z" transform="translate(-0.09)"/><path class="cls-1" d="M20.1,52.6c-.2.3-.1.6-.5.8a.88.88,0,0,1-1-.5c-.1-.4.2-.6.4-.8.5-.2.8.2,1.1.5Z" transform="translate(-0.09)"/><path class="cls-1" d="M17.3,52.8c.1.3-.1.4-.2.6a.75.75,0,0,1-.8.1.89.89,0,0,1-.4-1,2.09,2.09,0,0,1,.6-.4,1,1,0,0,1,.8.7Z" transform="translate(-0.09)"/><path class="cls-1" d="M112.6,53.7a.86.86,0,0,1-.6.7.91.91,0,0,1-.8-.4.63.63,0,0,1,.2-.8c.1-.1.4-.1.5-.2a1,1,0,0,1,.7.7Z" transform="translate(-0.09)"/><path class="cls-1" d="M14.3,53.3c.1.3-.2.4-.2.7a5.56,5.56,0,0,1-.9,1.7c-.8.9-1.8.9-2.9,1.2l-.2-.3a11,11,0,0,1,4-3.4l.2.1Z" transform="translate(-0.09)"/><path class="cls-1" d="M110.6,54.2c.1.5-.3.6-.6.8a1,1,0,0,1-.8-.5c-.1-.4.3-.6.5-.8a.68.68,0,0,1,.9.5Z" transform="translate(-0.09)"/><path class="cls-1" d="M18.9,54.2c0,.1,0,.2.1.2,0,.4-.4.6-.6.8a1.09,1.09,0,0,1-.9-.4.69.69,0,0,1,.3-.9h.1c.4-.1.9-.1,1,.3Z" transform="translate(-0.09)"/><path class="cls-1" d="M117.9,55.4c.4,0,.5-.5.9-.6a1,1,0,0,1,1,.4c.2.5-.2.7-.5.9s-.9-.2-.8.3a1.56,1.56,0,0,1,.6.8c-.1.2-.4.1-.5,0a5.08,5.08,0,0,1-2.9-2.5c-.2-.4-.9-.6-.5-1a3.49,3.49,0,0,1,2.7,1.7Z" transform="translate(-0.09)"/><path class="cls-1" d="M121.8,54.1a.6.6,0,0,1,0,.8c-.2.4-.8.2-1.1.2-.2-.2-.4-.4-.3-.7a1,1,0,0,1,.6-.5.88.88,0,0,1,.8.2Z" transform="translate(-0.09)"/><path class="cls-1" d="M107.3,56.3a5.07,5.07,0,0,1,.9,1.6.6.6,0,0,1-.4.1c-1.3-.8-3.1-1.6-3.6-3.2-.1-.2-.4-.4-.4-.6,1-.2,2,.6,2.7,1.1.4.4.7.5.8,1Z" transform="translate(-0.09)"/><path class="cls-1" d="M16.7,54.8c.2.4-.2.6-.4.8a.81.81,0,0,1-.9-.3c-.3-.4.2-.8.6-1s.5.2.7.5Z" transform="translate(-0.09)"/><path class="cls-1" d="M112.3,55.7c0,.2-.3.4-.4.6-.3,0-.6.2-.9-.1-.1-.2-.3-.5,0-.7.4-.7,1.1-.2,1.3.2Z" transform="translate(-0.09)"/><path class="cls-1" d="M122.2,56.3a.87.87,0,0,1-1.6.6c-.2-.2,0-.5,0-.8a1,1,0,0,1,1-.3c.2.2.4.3.6.5Z" transform="translate(-0.09)"/><path class="cls-1" d="M94.7,61.8c0,.5-.9.4-1.2.7a8.45,8.45,0,0,1-4.2.6v-.2A5.63,5.63,0,0,1,94.7,61.8Z" transform="translate(-0.09)"/><path class="cls-1" d="M36.9,63.5a.62.62,0,0,1-1.2.3c-.2-.5.2-.7.5-.9C36.5,62.9,36.7,63.2,36.9,63.5Z" transform="translate(-0.09)"/><path class="cls-1" d="M94.1,63.9a1.15,1.15,0,0,1-.6.9c-.4.1-.6-.1-.9-.3s-.1-.4-.1-.6a.89.89,0,0,1,1.1-.5A1.2,1.2,0,0,1,94.1,63.9Z" transform="translate(-0.09)"/><path class="cls-1" d="M102,64.1a6.36,6.36,0,0,1-3.4,1.4H96.5l-.2-.2c1.3-1.6,3.7-1.6,5.8-1.4v.2Z" transform="translate(-0.09)"/><path class="cls-1" d="M26,65a.89.89,0,0,1-.5.8.76.76,0,0,1-.8-.6.71.71,0,0,1,.3-.6c.4-.4.9.1,1,.4Z" transform="translate(-0.09)"/><path class="cls-1" d="M28,65.4c.1.2-.1.3-.2.5a.6.6,0,0,1-.8,0,.43.43,0,0,1-.2-.7h0c.1-.2.4-.2.5-.4A2.17,2.17,0,0,1,28,65.4Z" transform="translate(-0.09)"/><path class="cls-1" d="M12.8,69.5c-.4.5-1-.1-1.5-.4-1.4-.8-1.4-2.4-2.7-3.3.2-.5.5,0,.8,0a3,3,0,0,0,.8.4c1.4.8,1.7,2.1,2.6,3.3Z" transform="translate(-0.09)"/><path class="cls-1" d="M128.4,54a3.12,3.12,0,0,0-3-1.6,2.65,2.65,0,0,0-2.2,1.6,2.1,2.1,0,0,0,.8,2.2.63.63,0,0,0,.8-.2c.2-.5-.4-.5-.4-.9a1.24,1.24,0,0,1,.4-1.4c.4-.4,1.1-.2,1.6-.2a3.45,3.45,0,0,1,1.2,1.2,3.75,3.75,0,0,1,0,2.1,3.61,3.61,0,0,1-2.5,2c-3.3.5-39.4.3-39.4.3-4.2.4-9.1-.8-12.7,1.4-1.7.8-2.5,2.6-2.9,4.3A31.4,31.4,0,0,0,67,68l-.1-.1c.2-1,.6-1.8.8-2.8.6-.8.6-1.9,1-2.8,1.5-2.4,2.9-4.9,5.3-6.6,1-1.3,2.7-1.1,4.2-1.1a10.3,10.3,0,0,0,5.5.8.37.37,0,0,0,.1-.3c-.6-.5-1.5-.7-2.1-1.2-1.6-.8-3.1.2-4.8.1-.1-.1-.2-.1-.1-.2a19.26,19.26,0,0,1,4.9-2.6,23.54,23.54,0,0,1,4.4-1.7c.6,0,1.2-.5,1.7-.2l2.1-.6c.1,0,.2.2.3.1,1.8-.6,4,0,6.1-.1l.3.2,1.9.5c.7.1,1,.9,1.8,1,.4-.6-.4-.8-.6-1.2a4.29,4.29,0,0,1,2.7.4l-.4.4a.65.65,0,0,0,.5.9c.4.1.5-.1.7-.2.5-.4,0-.7.1-1a40.38,40.38,0,0,1,8.4,2.4,9,9,0,0,0,2.3.8,10.81,10.81,0,0,0-3-1.6c-.7-.4-1.6-.4-2.1-1,.1-.2.4-.1.5-.3a5.67,5.67,0,0,0,3.4-2.2c.1-.2.5-.2.5-.5-.4-.4-1,.1-1.4.1-1.7.3-2.4,2.3-4,2.6l-6.1-1.5a15.94,15.94,0,0,1-3-.6l-2.2-.2h-4c0-.1-.2-.1-.1-.2,1.4-.4,2.7-1.2,4.1-1.6l10.5-5a23.52,23.52,0,0,0,3-3.3.91.91,0,0,0-.4-.8.63.63,0,0,0-.8.2c-.5.4,0,.8,0,1.2a5.48,5.48,0,0,1-1.8,1.6c-.2,0-10.9,4.9-10.9,4.9a23.45,23.45,0,0,1-4.8,1.8l-2.3.4a1.5,1.5,0,0,1-1,.9,12.09,12.09,0,0,1-1.8.5c-5.2,2-10.5,4.1-14.6,8.2a4.71,4.71,0,0,0,.4-1.7,3.92,3.92,0,0,0-.4-1.8c-.1-.2-.4-.9-.3-1.1l-.6.4a5,5,0,0,0-.3,3.4c.1.7.7,1.6.2,2.2-1.9,2.3-3,5.1-4.2,7.8-.5-.1-.7-.5-.9-1a12.93,12.93,0,0,0,2.8-5.9c.3-.2.1-.7.4-1-.1-.6.4-1.3,0-1.8.3-.9-1.2-1.7-.3-2.2l-.8.4c-1.7,2.2.9,5.6-1.1,7.8v.2A5.81,5.81,0,0,1,65,64.1c-1-.4-1.3-1.5-1.9-2.3a3.55,3.55,0,0,1-.4-3.7c.1-1.1-.5-2.1-.7-3.1l-.4-.2a4.91,4.91,0,0,0-.6,4.7c.4.7.4,1.7,1,2.3a11.09,11.09,0,0,0,1.7,3c.2.4-.2.5-.4.7-.4-.3-.4-.9-.8-1.2A28.23,28.23,0,0,0,57.4,57c-.1-.4-.4-.7-.2-1.1a3,3,0,0,0,.5-3c-.1-.2-.3-.4-.3-.6l-.4-.6c.1,1.4-.8,2.6-.4,4.1v.1a73.69,73.69,0,0,0-13.2-8l-.4,1a24.93,24.93,0,0,1,4.3,2.2,30.47,30.47,0,0,1,4,2.1c5.4,3,9,8,11.4,13.5,0,.4.4.9.2,1.4a21.27,21.27,0,0,0-3-3,5.58,5.58,0,0,0-3-4.4c-.6-.9-1.9-1-2.9-1.2l-14.4-.1c-11.9-.3-22.6.2-34.2,0-1.6-.2-3.6-.7-4.1-2.4a2.8,2.8,0,0,1,0-2.2,2.31,2.31,0,0,1,2-1.1,2.59,2.59,0,0,1,1.4,1.1,3.51,3.51,0,0,1-.6,1.4.4.4,0,0,0,.5.4,1.89,1.89,0,0,0,1-1.3c0-.3.2-.7-.1-.9a2.59,2.59,0,0,0-1.9-1.6,3.32,3.32,0,0,0-2.7.9c-1,.8-.9,2.2-.6,3.4a5.3,5.3,0,0,0,4.3,3.2l38.4.2c3.8.2,8-.4,11.8.3a4.59,4.59,0,0,1,3.2,3c0,.1-.2,0-.3,0a17.24,17.24,0,0,0-11.3-2.3,16.4,16.4,0,0,0-4.4.9,2.21,2.21,0,0,1-1.9-.6c-1.4-1.3-3.9-1.2-5.8-.7v.3c1.9-.2,3.1,1.5,4.8,1.7.4.1.7-.4,1.1,0a38.75,38.75,0,0,1-5.5,2.5c-.6-.1-.9-.7-1.4-1-.8-.8-2.1-.5-3.2-.6-.4.1-.7-.2-.9,0a3.15,3.15,0,0,0,1.7,1.3c1,.4,2.1,0,3,.6-.3.2-.5.4-.8.6-1.9.7-3.4,2.4-5.5,2.3a7.21,7.21,0,0,1-5.9-1.9,4,4,0,0,0-4-2.3c-.1.1-.3.1-.2.3.9.5,1.5,1.6,2.4,2.2.6.7,1.6,0,2.1.8A8.49,8.49,0,0,0,24.6,69a16.55,16.55,0,0,0,2.1.6l-.3.2C22.8,71,18.6,71.1,14.6,71c-1.2,0-2.3-.4-3.5-.4a2.07,2.07,0,0,0,1,.6,2,2,0,0,1-1.1.3,8.33,8.33,0,0,0-1.5.4,3.29,3.29,0,0,0-1.7.4,6.83,6.83,0,0,1-2.3,1.8c0,.2,0,.4.2.4.8-.3,1.7-.1,2.5-.4,1.3-.1,2.1-1.6,3.1-2.2,1.1-.9,2.7-.7,4-.5.8.2-.1.5.2,1,.3.3.6.6,1,.5.1-.1.2-.2.3-.2a.91.91,0,0,0,0-1c.6-.4,1.3,0,1.9-.2,1.5,0,3-.4,4.5-.4.2,0,.5-.3.8,0-.1.3-.5.4-.4.8s.5.5.8.6c.4-.2.8-.4.6-1-.1-.3-.4-.3-.6-.4.8-.4,1.8-.5,2.6-.9a5.78,5.78,0,0,0,1.7-.6c.5,0,1-.5,1.4-.3a11.76,11.76,0,0,1-.7,2c-.6,2.1-1.1,4.9,0,7,.1,0,.2,0,.2-.1a9.39,9.39,0,0,1,.4-6.6c.6-3.4,4-4.4,6.5-5.7l.1.2c-.7,1.7-1.7,3.3-1.5,5.4.1.4-.2.7,0,1a4.28,4.28,0,0,0,1.5-1.8c.3-1.8-.8-4,1.1-5.3,3.3-1.3,6.3-3,10.1-3,.1.1.4-.1.4.2-.8.9-1.9,1.7-2.3,2.8-1.3,1.8-1.2,4.8-.7,6.9.4,1.2-.7,1.9-1.2,2.9-.3.3-.3.9-.5,1.3l.8.1A3.85,3.85,0,0,0,45.6,74a1.09,1.09,0,0,0,.8.8c.3-.4-.2-.8-.3-1.2.6-.4.9.4,1.4.6a10.55,10.55,0,0,0,2.4.6l.3-.3c-.9-1.4-2.6-1.6-4.1-1.7a8,8,0,0,1-.7-4.6,7.32,7.32,0,0,1,.8-2.5,5.83,5.83,0,0,1,1.1-1.5,6.21,6.21,0,0,1,2.5-1.4h.1v.1c-1.1.8-1.2,2-1.8,3a3.39,3.39,0,0,0-.4,3.5c.2.5.1,1.3.7,1.7a7.54,7.54,0,0,0,.8-2.4c-.1-1.3-.9-2.6-.2-3.8a3.41,3.41,0,0,1,2.1-1.8c2.2-.2,4.1.9,6,1.8.4.3,1.1.5,1.2,1.1A3.24,3.24,0,0,1,55,69.2a3,3,0,0,1-1.8-.6,2.7,2.7,0,0,1-.6-2.4,1.57,1.57,0,0,1,1.8-.6c.4.2.8.6,1.3.4a.48.48,0,0,0,.2-.6c-.4-.2-.6-.8-1.2-.9a2.78,2.78,0,0,0-2.2.4,2.74,2.74,0,0,0-.9,2.8,3.35,3.35,0,0,0,2.5,2.5A4.63,4.63,0,0,0,59,68.5a5.56,5.56,0,0,0,.9-1.7A10.8,10.8,0,0,1,64,72.1a6.7,6.7,0,0,1,0,2l1.4.1a1.73,1.73,0,0,1,.1-1,11.83,11.83,0,0,1,4.1-6.6c.7-.4.5.5.7.8a5.09,5.09,0,0,0,3.4,3A4.38,4.38,0,0,0,78,69c.5-1,1.2-2.4.3-3.4a2.57,2.57,0,0,0-2.2-1,2.68,2.68,0,0,0-2.2,1.5c0,.3,0,.7.2.8s.5,0,.6-.2c.1-.6.6-.9,1.1-1.2a1.26,1.26,0,0,1,1.3.2,2.27,2.27,0,0,1,.6,1.6,2.59,2.59,0,0,1-1.3,1.9,4,4,0,0,1-3.8-.4A7.84,7.84,0,0,1,71.5,67a2.78,2.78,0,0,1,0-1.8,13,13,0,0,1,5.7-2,4.18,4.18,0,0,1,2.1,1.3c1.8,1.9-.4,4.6.9,6.6.5-.1.5-.7.7-1.1.6-1.4-.2-3-.5-4.4a9.74,9.74,0,0,0-1.5-2.4.9.9,0,0,1,.5-.1,12.06,12.06,0,0,1,2.4,2.1,10.93,10.93,0,0,1,1.5,6.6C83,73,81.7,73.6,80.7,74a3.25,3.25,0,0,0-1,1.3c.5.3,1.2,0,1.6-.2.8-.3,1.2-1.2,1.7-1.7.1,0,0,.2.1.2,0,.4-.2,1,.2,1.2a14.16,14.16,0,0,0,.4-2,5,5,0,0,1,.8,2c.4.7,1,1.7,1.9,1.8.2-.4,0-.7-.1-1-.1-1-1-1.5-1.5-2.2-1.4-2-.7-5-1.8-7.1a9,9,0,0,0-2.1-3l.2-.2a23.64,23.64,0,0,1,5.3,1c2.2,1.1,5.3.8,6.4,3.7a10,10,0,0,0,2.3,4.3l.1-.1a2,2,0,0,0,0-1.5c-.2-2-2-2.5-2.9-4.2l.1-.2c1,.3,2,.6,2.9.9a8.67,8.67,0,0,1,5.8,7.2A15.72,15.72,0,0,1,99.6,81c-.1.3-.7.7-.3,1,.4-.3.5-.8.8-1.2a11.21,11.21,0,0,0,1.3-8c0-.5-.6-.9-.4-1.4a1.61,1.61,0,0,0,.7.4c.2-.2.6-.2.8-.4a.48.48,0,0,0,0-.7,1.25,1.25,0,0,0-1.2-.3,1.93,1.93,0,0,0-.5.9,7.71,7.71,0,0,0-1.4-2.1l.1-.1c1.8.6,3.4,1.5,5.2,2a2.3,2.3,0,0,0,1.4.4,38.94,38.94,0,0,0,4.9,1.2c1.2-.1,2.2.4,3.4.2v-.1h0c-.4-.6-1.4,0-1.9-.4a29.84,29.84,0,0,1-7.8-2c0-.1.2-.1.3-.1a1,1,0,0,0,.6-1,.87.87,0,0,0-.9-.4,1.06,1.06,0,0,0-.6.7,1.56,1.56,0,0,0,.6.8c-.1.1-.2,0-.4,0-1.2-.6-2.4-1.1-3.6-1.6-.4-.1-.8-.4-1.2-.5-.9-.4-1.8-.9-2.7-1.2a56,56,0,0,0-8.1-3L87,63.6c-1-.3-2-.5-3-.8-3.4-.8-7.9-.9-10.8.9-.5-.2-.8.6-1,.1.8-2.2,3.3-2.9,5.4-3,15.9-.2,30.8-.3,46.5-.5a5,5,0,0,0,4.6-2.3,8.85,8.85,0,0,0-.3-4ZM65.3,68.7a3.26,3.26,0,0,0-.4,1.4l-.2.1c.1-.6-.5-1-.3-1.6-.3-.5-.3-1.1-.6-1.6s.3-.9.6-1.4c.6.2.8.8,1.2,1.2.2.8-.3,1.3-.3,1.9Z" transform="translate(-0.09)"/><path class="cls-1" d="M108.4,66.2c0,.1.2.2.2.4a8.4,8.4,0,0,1-5.3,1.7c-.2,0-.3.2-.5.1s-.2-.2-.1-.3a6.08,6.08,0,0,1,5.7-1.9Z" transform="translate(-0.09)"/><path class="cls-1" d="M102,66.8c.2.6-.2.9-.6,1.1a1.46,1.46,0,0,1-.9-.6c-.1-.3.2-.5.3-.7a.78.78,0,0,1,1.1,0C101.9,66.7,102,66.7,102,66.8Z" transform="translate(-0.09)"/><path class="cls-1" d="M26.6,66.9a.78.78,0,0,1-.2.8.66.66,0,0,1-.7.2c-.3,0-.4-.4-.5-.6a1,1,0,0,1,.5-.8,1.8,1.8,0,0,1,.9.4Z" transform="translate(-0.09)"/><path class="cls-1" d="M19.5,69.5v.3a3,3,0,0,1-2.6-.6,5.77,5.77,0,0,0-2.1-2c0-.1-.2-.3,0-.4C16.8,66.8,18,68.4,19.5,69.5Z" transform="translate(-0.09)"/><path class="cls-1" d="M114.4,66.9c-.9,1.4-1.7,3-3.3,3.6-.3,0-.5.4-.8.1a7.23,7.23,0,0,1,3.5-3.8,1.27,1.27,0,0,1,.6.1Z" transform="translate(-0.09)"/><path class="cls-1" d="M28.9,67.4c0,.4-.3.5-.6.8a1,1,0,0,1-.7-.4c-.2-.4.2-.6.4-.8A.81.81,0,0,1,28.9,67.4Z" transform="translate(-0.09)"/><path class="cls-1" d="M119.4,67.6c-.4.5-.2,1.3-.6,1.8-.8.9-1.5,2-2.7,2.2-.2-.4.3-.8.5-1.2a6.09,6.09,0,0,1,2.6-3.1l.2.3Z" transform="translate(-0.09)"/><path class="cls-1" d="M7.2,68a.75.75,0,0,1,0,.9,1,1,0,0,1-.9.2.69.69,0,0,1-.3-1H6c.2-.5,1-.7,1.2-.1Z" transform="translate(-0.09)"/><path class="cls-1" d="M4.9,68.4c0,.2.2.4.1.6a1,1,0,0,1-.6.5.8.8,0,0,1-.9-.5.68.68,0,0,1,.4-.8c.4-.2.9-.1,1,.2Z" transform="translate(-0.09)"/><path class="cls-1" d="M9.6,68.7c.1.3.2.9-.3,1s-.9-.2-1.2-.5a1,1,0,0,1,.5-.8,1,1,0,0,1,1,.3Z" transform="translate(-0.09)"/><path class="cls-1" d="M16.1,69.2c0,.3,0,.7-.3.8a2.2,2.2,0,0,1-.8.1c-.1-.2-.5-.4-.3-.7a1,1,0,0,1,.5-.4c.4,0,.8-.1.9.2Z" transform="translate(-0.09)"/><path class="cls-1" d="M123.2,69.5c-.1.3-.3.6-.6.6a1.09,1.09,0,0,1-.9-.4c-.2-.3.2-.7.5-.8a.85.85,0,0,1,1,.6Z" transform="translate(-0.09)"/><path class="cls-1" d="M116,69.7a.86.86,0,0,1-1.7.1,1,1,0,0,1,.7-.7,1,1,0,0,1,1,.6Z" transform="translate(-0.09)"/><path class="cls-1" d="M120.9,69.6a.75.75,0,0,1-.4.7.8.8,0,0,1-1-.2c-.4-.3-.1-.6.2-.8a.86.86,0,0,1,1.2.3Z" transform="translate(-0.09)"/><path class="cls-1" d="M6.2,70.3a.88.88,0,0,1-.5,1,1,1,0,0,1-.9-.6.68.68,0,0,1,.4-.8.82.82,0,0,1,1,.4Z" transform="translate(-0.09)"/><path class="cls-1" d="M114,70.7a.89.89,0,0,1-.6,1c-.3.1-.5-.1-.8-.3s-.4-.6,0-.8a.71.71,0,0,1,1.1-.2.27.27,0,0,1,.3.3Z" transform="translate(-0.09)"/><path class="cls-1" d="M27.5,71.2c.2.4-.3.5-.4.8a.63.63,0,0,1-.6,0c-.1-.1-.4-.5-.3-.8a1.76,1.76,0,0,1,.5-.4c.4-.2.6.2.8.4Z" transform="translate(-0.09)"/><path class="cls-1" d="M122.5,71.4c.1.3-.2.4-.2.6a1.49,1.49,0,0,1-.9.2c-.4-.2-.4-.5-.4-.9.2-.2.3-.4.6-.4A.87.87,0,0,1,122.5,71.4Z" transform="translate(-0.09)"/><path class="cls-1" d="M120,71.6c.2.5-.3.7-.6.8s-.4-.1-.4.2a12.66,12.66,0,0,1,2.5,2.1V75a5.05,5.05,0,0,1-3.9-1.5c-.3-.2-.8-.2-1.1-.5.5-.5,1.5-.3,2.2-.4.5-.6-.6-1,.1-1.4.2,0,.4-.3.7-.2a1.58,1.58,0,0,1,.5.6Z" transform="translate(-0.09)"/><path class="cls-1" d="M103.8,71.6c.1.2-.2.4-.2.6a1,1,0,0,1-.9.2c-.2-.3-.5-.5-.4-.9a.8.8,0,0,1,1.1-.3C103.6,71.3,103.8,71.4,103.8,71.6Z" transform="translate(-0.09)"/><path class="cls-1" d="M15.1,73a.66.66,0,0,1-.7.6.75.75,0,0,1-.7-.5c0-.3.2-.4.2-.6.5-.3,1.3-.1,1.2.5Z" transform="translate(-0.09)"/><path class="cls-1" d="M18.3,72.5c0,.6-.6.9-.8,1.4a3.92,3.92,0,0,1-3.2,2.6c-.2-.4.5-.8.7-1.2.6-1.4,1.9-2.1,3-2.9l.3.1Z" transform="translate(-0.09)"/><path class="cls-1" d="M102.9,73a1.11,1.11,0,0,1-.7.9c-.3.1-.6-.2-.8-.3-.3-.3-.1-.6,0-1,.4-.5,1.1-.1,1.5.4Z" transform="translate(-0.09)"/><path class="cls-1" d="M105.3,73.3a1,1,0,0,1-.7.9c-.1-.1-.3,0-.4-.1a.75.75,0,0,1-.5-.7c.2-.2.3-.5.6-.6S105.3,72.8,105.3,73.3Z" transform="translate(-0.09)"/><path class="cls-1" d="M24.5,73.3a.76.76,0,0,1-.6.8,1,1,0,0,1-.8-.5c-.1-.4.3-.6.5-.8.5-.1.6.2.9.5Z" transform="translate(-0.09)"/><path class="cls-1" d="M27.2,73.4a1.14,1.14,0,0,1-.8.7c-.3-.1-.6-.2-.7-.5s.3-.6.5-.8A.92.92,0,0,1,27.2,73.4Z" transform="translate(-0.09)"/><path class="cls-1" d="M113.8,76.2c.2.2.6.4.5.6-.6.3-1.2-.4-1.7-.6a9.88,9.88,0,0,1-2.1-3.2c.4-.4.8.1,1.1.2A8.94,8.94,0,0,1,113.8,76.2Z" transform="translate(-0.09)"/><path class="cls-1" d="M115.3,73.4a1,1,0,0,1-.1.9c-.2.4-.8.3-1.1.2s-.6-.6-.3-.9a1.77,1.77,0,0,1,.8-.5c.3-.1.4.2.7.3Z" transform="translate(-0.09)"/><path class="cls-1" d="M30.9,74.5c0,.3.1.8-.3,1a.88.88,0,0,1-1-.5h0c-.2-.5.2-.6.5-.8s.5.1.8.3Z" transform="translate(-0.09)"/><path class="cls-1" d="M105.2,77.1a5.58,5.58,0,0,1,1,2.8c-.1.3.2.6,0,.8H106c-1.8-1.3-2.2-3.1-2.9-4.9a.52.52,0,0,1-.2-.4c.4-.4.7.4,1.1.5l1.2,1.2Z" transform="translate(-0.09)"/><path class="cls-1" d="M36,75.7h0c-1.6,1.2-3.8,1.9-5.6.8,0-.2,0-.3.2-.4a8.53,8.53,0,0,1,3.5-.8l1.9.4Z" transform="translate(-0.09)"/><path class="cls-1" d="M27,75.9c-1.3.8-2.6,2.5-4.2,2.9-.3.1-.5.6-.9.3.7-2.2,3.1-3.3,5.2-3.5l-.1.3Z" transform="translate(-0.09)"/><path class="cls-1" d="M102.9,77.7c.1.3,0,.8-.3.8a.6.6,0,0,1-.8,0,.74.74,0,0,1-.4-.8c0-.3.4-.3.6-.4.4.1.7.1.9.4Z" transform="translate(-0.09)"/><path class="cls-1" d="M99.6,77.9a2.07,2.07,0,0,1-1.4,1c-1.3.5-2.6-.2-3.8-.5,0-.3.4-.2.6-.4a9,9,0,0,1,4-.2.47.47,0,0,1,.6.1Z" transform="translate(-0.09)"/><path class="cls-1" d="M27,79.1c-.1.2-.2.5-.5.6a.78.78,0,0,1-.8-.2c-.1-.2-.4-.4-.2-.7a.72.72,0,0,1,.6-.4.88.88,0,0,1,.9.7Z" transform="translate(-0.09)"/><path class="cls-1" d="M29.3,79.4a2.18,2.18,0,0,1-.5.8,1.14,1.14,0,0,1-.8-.3.75.75,0,0,1-.1-.8c.1-.2.4-.2.5-.4a1.11,1.11,0,0,1,.9.7Z" transform="translate(-0.09)"/><path class="cls-1" d="M102.1,79.8a1.14,1.14,0,0,1-.3.8.76.76,0,0,1-.9.2c-.3,0-.4-.4-.5-.6s.2-.5.3-.8a.83.83,0,0,1,1.2.2A.22.22,0,0,1,102.1,79.8Z" transform="translate(-0.09)"/><path class="cls-1" d="M103.9,79.7c0,.2.2.4.1.6s-.4.7-.9.5c-.2.1-.4-.2-.5-.3a.78.78,0,0,1,.3-1,.1.1,0,0,0,.1-.1C103.4,79.3,103.7,79.6,103.9,79.7Z" transform="translate(-0.09)"/><path class="cls-1" d="M27.9,80.9a1.19,1.19,0,0,1-.4,1.1c-.4.1-1,.1-1.2-.4a1.22,1.22,0,0,1,.5-1.2,1,1,0,0,1,1.1.5Z" transform="translate(-0.09)"/><path class="cls-1" d="M30.2,80.7c-.1,1.1-.3,2.5-1.4,3.1-.6.1-1.3.7-1.9.3V84c.8-1.2,2.3-2.1,3.3-3.3Z" transform="translate(-0.09)"/><path class="cls-1" d="M95.9,81.7c.2.2-.1.4-.2.6s-.7.2-1,0a.63.63,0,0,1-.2-.8.66.66,0,0,1,.5-.4,1.07,1.07,0,0,1,.9.6Z" transform="translate(-0.09)"/><path class="cls-1" d="M34.1,83.5c.5.9.2,2.2.5,3.2-.7.1-1-.7-1.4-1.1-.9-1.2-.8-2.8-1.2-4.2a.37.37,0,0,1,.3-.1A8,8,0,0,1,33.8,83c0,.3.4.3.3.5Z" transform="translate(-0.09)"/><path class="cls-1" d="M97.9,82c0,.3-.4.4-.6.6-.3,0-.5-.2-.8-.4-.1-.4.2-.5.4-.7a.81.81,0,0,1,.9.3.31.31,0,0,1,.1.2Z" transform="translate(-0.09)"/><path class="cls-1" d="M102.6,85.5c0,.1,0,.4-.2.3h-.2c-1.2-1-2.3-2.2-2.1-3.8h.2c1.1.9,2.2,1.9,2.3,3.5Z" transform="translate(-0.09)"/><path class="cls-1" d="M99.6,84.3a.91.91,0,0,1-.4.8c-.4.1-1.1.1-1.2-.5,0-.4.4-.6.6-.8a.67.67,0,0,1,1,.5Z" transform="translate(-0.09)"/><path class="cls-1" d="M97,85.1c-.6,1.5-2.1,2.2-3.1,3.4-.2-.1-.1-.4-.1-.6a5.31,5.31,0,0,1,3.1-3.6C97.5,84.3,96.9,84.8,97,85.1Z" transform="translate(-0.09)"/><path class="cls-1" d="M100,86.3c0,.4-.4.5-.6.7a1.49,1.49,0,0,1-.9-.4c0-.4.3-.5.5-.7A.89.89,0,0,1,100,86.3Z" transform="translate(-0.09)"/><path class="cls-1" d="M70.5,13.8a1,1,0,0,1,0,2H58.7a1,1,0,0,1,0-2Zm-8.4,1.7c1.2,0,.1-1.4-.6-1.4H60.3c-1.2,0-.1,1.4.6,1.4Zm4.9,0c1.2,0,.1-1.4-.6-1.4H65.2c-1.2,0-.1,1.4.6,1.4Zm3.5-1.4h-.4c-1.2,0-.2,1.4.4,1.4S71.3,14.1,70.5,14.1Z" transform="translate(-0.09)"/><path class="cls-1" d="M69.4,27.3l2.3.9,2.2-.9L73,30.6l1.8-.4-.6,2,.6,1.9-1.6-.4.7,3.6-2.2-.9-2.3.9.9-3.6-1.8.5.5-2-.5-1.9,1.7.3-.8-3.3Zm3.3,6c.5,0,.6-.7.6-1.3,0-1.4-1.1,0-1.6-1.3-.4,1.1-1.5.1-1.5,1.2,0,.8,0,1.3.8,1.3ZM70.5,32c0,.5.7.2,1.2.2s1.3.3,1.3-.2c0-.7-.7-.5-1.2-.5s-1.2-.2-1.3.5Z" transform="translate(-0.09)"/><polygon class="cls-1" points="64.11 32.1 64.11 31.7 63.71 31.6 64.01 31.3 63.81 31 64.21 31 64.41 30.6 64.71 31 65.01 31 64.81 31.3 65.21 31.6 64.81 31.7 64.81 32.1 64.41 31.9 64.11 32.1"/><polygon class="cls-1" points="62.31 34.4 62.31 34 61.91 33.9 62.21 33.6 62.11 33.2 62.41 33.3 62.71 32.9 62.91 33.3 63.31 33.2 63.11 33.6 63.41 33.9 63.01 34 63.01 34.4 62.71 34.1 62.31 34.4"/><polygon class="cls-1" points="65.31 34.1 65.31 33.7 64.91 33.6 65.21 33.3 65.01 33 65.41 33 65.61 32.6 65.91 33 66.31 33 66.11 33.3 66.41 33.6 66.01 33.7 66.01 34.1 65.61 33.8 65.31 34.1"/><polygon class="cls-1" points="65.61 35.8 65.61 35.5 65.41 35.5 65.61 35.3 65.51 35.1 65.71 35.2 65.81 34.9 66.01 35.1 66.21 35.1 66.11 35.3 66.21 35.5 66.01 35.5 66.01 35.8 65.81 35.6 65.61 35.8"/><polygon class="cls-1" points="62.91 37.7 62.91 37 62.21 36.8 62.71 36.3 62.41 35.7 63.11 35.8 63.51 35.1 63.91 35.8 64.61 35.7 64.21 36.3 64.71 36.8 64.11 37 64.11 37.7 63.51 37.2 62.91 37.7"/><polygon class="cls-1" points="64.31 0 65.71 3.4 69.21 2.4 67.41 5.6 70.41 7.8 66.81 8.4 67.01 12.1 64.31 9.6 61.51 12.1 61.81 8.4 58.11 7.8 61.11 5.6 59.41 2.4 62.91 3.4 64.31 0"/><path class="cls-1" d="M51.6,77c-.4.2-.6.3-.5.7l.5,2.1a2.2,2.2,0,0,1-.1,1.4,2.85,2.85,0,0,1-1.4.8,2.48,2.48,0,0,1-1.7,0,1.15,1.15,0,0,1-.8-1L47,78.8c-.1-.6-.3-.5-.8-.4v-.2l2.7-.6v.2c-.5.1-.8.2-.6.8l.5,2.2c.1.4.3,1.3,1.4,1a1.4,1.4,0,0,0,1.2-1.4.6.6,0,0,0-.1-.4l-.5-2c-.1-.4-.2-.6-.9-.5v-.2l1.7-.3Z" transform="translate(-0.09)"/><path class="cls-1" d="M55.5,77.5a1.68,1.68,0,0,0-1.8-.9c-.4.1-.8.4-.7.8s.3.5,1,.6l1.3.2a1.41,1.41,0,0,1,1.1,1c.1.6-.2,1.5-1.7,1.8a6.6,6.6,0,0,1-1.4.1c-.2,0-.2.2-.2.3l-.2.1-.4-1.6.2-.1a1.75,1.75,0,0,0,1.9,1.1c1-.2.8-.9.8-1-.1-.4-.5-.5-1.1-.6l-.6-.1c-1.5-.2-1.6-.8-1.7-1.1s0-1.4,1.5-1.7h1.3c.2,0,.2-.2.2-.3l.2-.1.3,1.5Z" transform="translate(-0.09)"/><path class="cls-1" d="M60.8,80.1l-2.9.3v-.2c.6-.1.8-.1.7-.7L58.3,76c-.6.1-1.4.2-1.4,1.3h-.2l-.1-1.4,4.8-.5.1,1.4h-.2c-.3-1.1-1.1-1-1.7-1l.3,3.6c.1.6.3.6.8.6l.1.1Z" transform="translate(-0.09)"/><path class="cls-1" d="M67.5,80.1H65.8l-1.6-2.2H64v1.3c0,.5.2.6.7.6V80H61.9v-.2c.6,0,.7-.1.7-.6l.1-3c0-.6-.2-.6-.7-.6v-.2l2.6.1c.6,0,2.3.1,2.3,1.2,0,.8-.8,1-1.3,1.1l1.6,2a.37.37,0,0,0,.3.1v.2ZM64,77.7c1.1,0,1.5-.1,1.5-1a.82.82,0,0,0-.7-1h-.3c-.4,0-.5.1-.5.3v1.7Z" transform="translate(-0.09)"/><path class="cls-1" d="M72.8,80.8l-2.6-.3v-.2c.5,0,.7,0,.7-.2a1.61,1.61,0,0,0-.3-.9L68.8,79c-.2.3-.3.5-.5.8,0,.3.3.3.6.4v.2l-1.6-.2V80c.4,0,.6-.2.9-.7l2.2-3.5h.2l1.3,3.8c.3.8.4,1,.8,1l.1.2Zm-2.3-1.9-.6-1.7-1,1.5,1.6.2Z" transform="translate(-0.09)"/><path class="cls-1" d="M77.5,81.7l-4.6-.8v-.2c.4,0,.7.1.8-.3l.6-3.2c.1-.4-.2-.5-.6-.6v-.2l2.8.5v.2c-.6-.1-.8-.1-.9.5L75,80.7c-.1.3.1.4.6.5a2.25,2.25,0,0,0,2.3-.9h.2l-.6,1.4Z" transform="translate(-0.09)"/><path class="cls-1" d="M80.6,82.4l-2.8-.6v-.2c.4.1.8.1.8-.3l.7-3.2c.1-.4-.3-.5-.6-.6v-.2l2.8.6v.2c-.5-.1-.8-.1-.9.3l-.7,3.2c-.1.4.2.5.7.6v.2Z" transform="translate(-0.09)"/><path class="cls-1" d="M86.2,83.2l-2.6-.3v-.2c.5,0,.7,0,.7-.2a1.61,1.61,0,0,0-.3-.9l-1.8-.2a3,3,0,0,0-.4.8c0,.3.4.3.6.4v.2l-1.6-.2v-.2c.4,0,.6-.2.9-.7l2.2-3.5H84l1.4,3.7c.3.8.4,1,.8,1v.3Zm-2.3-1.9-.7-1.7-.9,1.6,1.6.1Z" transform="translate(-0.09)"/><path class="cls-1" d="M65.5,28.4c0-1.6-.9-.1-1.4-1.5-.4,1.2-1.5.2-1.5,1.4a1.09,1.09,0,0,0,.4.9v.5a.22.22,0,0,0,.2.2h1.7a.22.22,0,0,0,.2-.2h0v-.5A.91.91,0,0,0,65.5,28.4Zm-1.4.3c-.5,0-1.1.3-1.1-.2,0-.8.5-.6,1-.6s1.2-.2,1.2.6c0,.5-.7.2-1.1.2Z" transform="translate(-0.09)"/><path class="cls-1" d="M79.7,48.4a.65.65,0,0,0-.1-1.3.65.65,0,0,0-.6.6A.68.68,0,0,0,79.7,48.4Z" transform="translate(-0.09)"/><path class="cls-1" d="M76.2,24.2a2.12,2.12,0,0,0-.3.7c0,.2.1.4.3.4s.4-.1.4-.3v-.1Z" transform="translate(-0.09)"/><path class="cls-1" d="M52.2,24.2a2.12,2.12,0,0,0-.3.7c0,.2.1.4.3.4s.4-.1.4-.3v-.1Z" transform="translate(-0.09)"/><path class="cls-1" d="M58.2,24.2a2.12,2.12,0,0,0-.3.7c0,.2.1.4.3.4s.4-.1.4-.3v-.1Z" transform="translate(-0.09)"/><path class="cls-1" d="M64.2,24.2a2.12,2.12,0,0,0-.3.7c0,.2.1.4.3.4s.4-.1.4-.3v-.1Z" transform="translate(-0.09)"/><path class="cls-1" d="M70.2,24.2a2.12,2.12,0,0,0-.3.7c0,.2.1.4.3.4s.4-.1.4-.3v-.1Z" transform="translate(-0.09)"/><path class="cls-1" d="M52.2,32.4a2.12,2.12,0,0,1,.3.7c0,.2-.1.4-.3.4s-.4-.1-.4-.3v-.1Z" transform="translate(-0.09)"/><path class="cls-1" d="M52.2,40.4a2.12,2.12,0,0,1,.3.7c0,.2-.1.4-.3.4s-.4-.1-.4-.3v-.1Z" transform="translate(-0.09)"/><path class="cls-1" d="M53.2,46.8a2.12,2.12,0,0,1,.3.7c0,.2-.1.4-.3.4s-.4-.1-.4-.3v-.1Z" transform="translate(-0.09)"/><path class="cls-1" d="M58.2,50.1a2.12,2.12,0,0,1,.3.7c0,.2-.1.4-.3.4s-.4-.1-.4-.3v-.1Z" transform="translate(-0.09)"/><path class="cls-1" d="M76.5,32.4a2.12,2.12,0,0,0-.3.7c0,.2.1.4.3.4s.4-.1.4-.3v-.1Z" transform="translate(-0.09)"/><path class="cls-1" d="M76.5,40.4a2.12,2.12,0,0,0-.3.7c0,.2.1.4.3.4s.4-.1.4-.3v-.1Z" transform="translate(-0.09)"/><path class="cls-1" d="M75.5,46.8a2.12,2.12,0,0,0-.3.7c0,.2.1.4.3.4s.4-.1.4-.3v-.1Z" transform="translate(-0.09)"/><path class="cls-1" d="M70.5,50.1a2.12,2.12,0,0,0-.3.7c0,.2.1.4.3.4s.4-.1.4-.3v-.1Z" transform="translate(-0.09)"/><path class="cls-1" d="M64.4,53.7a2.12,2.12,0,0,0-.3.7c0,.2.1.4.3.4s.4-.1.4-.3v-.1Z" transform="translate(-0.09)"/><path class="cls-1" d="M74.1,41.8a.44.44,0,0,0,.5.1l.2-.6s-.3-.3-.4-.3c-.6.2-1.3.2-1.7.8a1.1,1.1,0,0,0,.6,1c.2-.1.3.2.4.3s0,.3-.2.3h-.1c-.4-.5-1.2.2-1.6-.4a1.91,1.91,0,0,0,0-1.8c0-.1.2-.2.1-.3-.2-.5-.8-.1-1.1-.1a1.42,1.42,0,0,0-1.4.7.86.86,0,0,0,.3.6c.2,0,.2,0,.3.2l-.4.2c.1.1.1.3.2.4-.3.1-.5-.3-.6-.5s0-.8-.4-.9c-.1,0-.2.1-.3.1a1.42,1.42,0,0,0-.2.6,1.85,1.85,0,0,0,.2.7,9.27,9.27,0,0,1,1.4,1.4c-.3.7-.3,1.6-1.1,2a.48.48,0,0,0-.2.6l.2.2c.5-.3,1.4-.3,1.4-1.2a3.59,3.59,0,0,1,.7-1,.81.81,0,0,1,.9.4,1.41,1.41,0,0,1-1,1.1c-.1.1,0,.2,0,.3.2.3.6.2.8.1.6-.4.9-1.2,1.5-1.4.1.4-.8.5-.2.9.3-.1.8,0,1-.4-.3-.6.9-1,.2-1.5,0-.6.6-.8.6-1.4-.2-.6-.9-.6-1.1-1.2,0-.2.3-.2.5,0Z" transform="translate(-0.09)"/><path class="cls-1" d="M46.6,48.7a.65.65,0,1,0-.1-1.3.65.65,0,0,0-.6.6A.68.68,0,0,0,46.6,48.7Z" transform="translate(-0.09)"/><path class="cls-1" d="M7.8,71.4a.7.7,0,1,0,0-1.4.71.71,0,0,0-.8.7.77.77,0,0,0,.8.7Z" transform="translate(-0.09)"/><path class="cls-1" d="M32.5,76.9Zm-.1-.1Z" transform="translate(-0.09)"/><path class="cls-1" d="M32.6,76.8Z" transform="translate(-0.09)"/><path class="cls-1" d="M32.8,76.7Z" transform="translate(-0.09)"/><path class="cls-1" d="M32.8,76.9c.1,0,.1-.1,0,0h0c.1-.1.1,0,0,0Zm.1-.1Z" transform="translate(-0.09)"/><path class="cls-1" d="M33,76.8Z" transform="translate(-0.09)"/><path class="cls-1" d="M78.2,23.3H50.5V44.4c0,2.2.9,4,2.2,4.6l10.6,6.8a1.27,1.27,0,0,0,1.8.1h0L76,49c1.3-.6,2.2-2.5,2.2-4.6V23.3Zm-.8,21.4a4.9,4.9,0,0,1-1.8,3.7L65.2,55h-.1a1.22,1.22,0,0,1-1.6,0L53.1,48.4a4.74,4.74,0,0,1-1.8-3.7V24H77.4V44.7Z" transform="translate(-0.09)"/><path class="cls-1" d="M68.1,54.1l.3-.2C68.3,53.9,68.2,54,68.1,54.1Z" transform="translate(-0.09)"/><path class="cls-1" d="M47.2,82.9l-2.6.3V83c.5-.1.6-.1.6-.3a2.18,2.18,0,0,0-.5-.8l-1.8.2-.3.9c0,.3.4.2.7.2v.2l-1.6.2v-.2c.4-.1.5-.3.7-.9l1.4-3.9H44l2.2,3.3c.5.7.6.9,1,.8v.2Zm-2.6-1.3-1-1.5L43,81.8l1.6-.2Z" transform="translate(-0.09)"/><path class="cls-1" d="M93,73a4.45,4.45,0,0,0-2.7-2.5,3.34,3.34,0,0,0-3.4.9c-1.4,1.2-.4,3.1-.4,4.6,0,.3,0,.6-.3.7-5.8-.5-11.1-2-16.8-2.6-1.4-.1-2.7-.1-3.9-.3l-1.6-.2a71.74,71.74,0,0,0-14.6,1.6c-1,.3-2.1.4-3.1.8-.7-.1-1.3.4-2,.2l-1.3.3h-.4c-.6-1.6,1.3-2.6.7-4.2a2.86,2.86,0,0,0-2.7-1.6,3.43,3.43,0,0,0-3.2,1.6c-.9,2,.2,4.1.6,6-.1.6.6,1.4,0,1.9a5.17,5.17,0,0,0-4.5-.9c-.5.2-1.3-.1-1.6.5,1.7.9,3.9.8,5.8.7a.64.64,0,0,1,.6,0c.2,1-.2,2.4.4,3.4a4,4,0,0,0,3,1.3c3.7-.1,6.9-1.2,10.2-2,.5,0,.9-.3,1.5-.3a27.76,27.76,0,0,1,5.7-.7,9.93,9.93,0,0,0-1.7,3.6c-.5,1.1.8,1.2,1.2,1.8-1.2.4-2.1,1.2-3.3,1.7-2.5-.1-4.7.9-7.1,1.2,0,.5.8.4.9.9-.1.4-.5.4-.8.6,0,.2,0,.3.2.3.2-.3.8-.1,1-.4a14.6,14.6,0,0,0,2.2-.3,7,7,0,0,0,2-.8c.8-.2,1.4-.8,2.2-1,1.2,0,2.3-.4,3.4-.5v.2c-.9,1.5-1.9,3-2.8,4.4a.48.48,0,0,0,.2.6h.1a3,3,0,0,0,1.6-.2c.8-1.4,1.6-2.8,2.3-4.3.3-1.4,1.3-2.1,2.3-3,.2-.1.4-.3.6-.1a17.26,17.26,0,0,0-1.9,2.8,3.44,3.44,0,0,0,.6,3.5,2.78,2.78,0,0,0,1.8.3c1.6-.8,3.5.5,4.7-1,.7-.1.8.7,1.2,1.1.7.2,1.4.9,2.1.4,0-.4-.5-.8-.8-1.2-.5-.8-1.1-1.5-1.5-2.3a4.71,4.71,0,0,1-.6-1.5,18,18,0,0,0,2.1.8l2.1.6a9.51,9.51,0,0,0,2,1.5c1,.5,2.1.6,3.1,1,.4,0,1,.4,1.3,0a2.09,2.09,0,0,0-.6-.4c-.1-.5.7-.2,1-.6a.55.55,0,0,0-.5-.3c-.6-.3-2-.4-2.4-.6a5.91,5.91,0,0,1-1.4-.6c-2.4,0-3.7-2.2-5.6-3,.4-.4,1.1-.7,1.4-1.3a2.22,2.22,0,0,0,.1-2.1c-.4-1.2-1.9-1-2.9-1.7l.1-.1a15.93,15.93,0,0,1,4.3.6c3.8.5,7.3,2,11.3,2,2.2,0,4.9.1,6-2,.2-1.2.4-2.5.6-3.7.8-2.1,2.1-3.9,1.9-6.1ZM50.2,91.3l-.5-.5c.3-.4.9-.2,1.3-.4a7.83,7.83,0,0,1,3.4-.5C53.1,90.8,51.5,90.9,50.2,91.3Zm24.7-.7a21.34,21.34,0,0,0,4.2,1c-.1.5-1.1,0-1,.8-1.2-.5-2.7-.7-3.6-1.7.2,0,.2-.1.4-.1Zm-37.2-17a3,3,0,0,1,1-2,3.39,3.39,0,0,1,3.1.1,1.24,1.24,0,0,1,.6.8,1.72,1.72,0,0,1-.6,1.8h-.4a5.54,5.54,0,0,1,.2-1.8c0-.5-.4-.5-.8-.7a2.32,2.32,0,0,0-1.8.4,2.11,2.11,0,0,0-.6,1.8c.3.4,0,1,.2,1.5l-.1.2a3.34,3.34,0,0,1-.8-2.1Zm1.9,1.2c.6.4,1.4.2,2.1.4a1.4,1.4,0,0,1-.2,1.4c-.7-.2-1.5-.1-1.9-.7.1-.4-.1-.8,0-1.1Zm-.2-1.4c.1-.3,0-.8.4-.9s.7-.1.8.2a6.75,6.75,0,0,1-.2,1.4.82.82,0,0,1-1-.7ZM58,86.3a4.1,4.1,0,0,1,1.3-3.6,2,2,0,0,1,1.7.1c-1,.3-2.3.5-2.6,1.8a2.36,2.36,0,0,0,.1,1.2c.4.8,1.4.4,2,1a.51.51,0,0,1-.4.5A20,20,0,0,1,58,86.3ZM56.6,89c1-.4,1.9-1.2,3-.9A5.29,5.29,0,0,1,56.6,89Zm3.8.4c-.6,1.3-1.2,2.5-1.9,3.8-.1.2-.4.2-.6.3,0-.6.6-1,.8-1.5.8-1.1,1.1-2.2,2-3.3.1.2-.3.4-.3.7Zm1-2.3v.2h-.1l.1-.2ZM61,86a13.32,13.32,0,0,1-1.9-.5c-.4-.4,0-.8,0-1.3a2,2,0,0,1,2.9-.5A3.73,3.73,0,0,1,61,86Zm.9,0a4.92,4.92,0,0,1,.6-1.7,3.49,3.49,0,0,1-.6,1.7Zm.4-3.2c-.5-.2-.8-.8-1.3-.8a3.79,3.79,0,0,1,1.5,0c.2.3-.1.6-.2.8Zm.5,1.2h0v-.4h0Zm0,1.8c0-.2.1-.4.1-.6.2-.2.4.2.5.3A.45.45,0,0,1,62.8,85.8Zm.6-2.4a4.71,4.71,0,0,1,.6-1.5,4.1,4.1,0,0,1,1.1.1c.1.8,1.1,1.9,0,2.6-.4.2-.9.5-1.3.2a1.33,1.33,0,0,1-.4-1.4Zm2.9-1.2c-.1-.4.4-.1.5-.2l1.2.1C67.4,82,66.6,83.5,66.3,82.2Zm2,.6c-.5.2-.8.7-1.3.8A1.44,1.44,0,0,1,68.3,82.8Zm-1.7,2.4Zm.1,2.5a.37.37,0,0,1-.1.3l-.9-.7a.82.82,0,0,1,1,.4Zm-1.1-1.3a.3.3,0,0,1,.4,0Zm-.5-.6c.2-.2.4-.6.6-.6a.1.1,0,0,0,.1.1A1.53,1.53,0,0,1,65.1,85.8Zm-.9,0H64l.2-.2c.2,0,0,.1,0,.2Zm.1,1.5c.5-.6,1,.3,1.2.8.6.9,2.1,1.7,1.6,2.9-.8.7-1.9,0-2.8.6-.4,0-1.2.1-1.4-.4A16.42,16.42,0,0,1,64.3,87.3Zm-1.1.7.2-.3a15.11,15.11,0,0,1-1.3,2.9C61.8,89.6,62.8,88.8,63.2,88Zm1.7,4.8c-.8,0-1.9.5-2.6-.2,0-.3-.3-.5-.3-.8.6-.2,1.2.5,1.8,0a13.13,13.13,0,0,1,2.8.1c.4.1,1.1-.7,1.2.1-.3,1.3-1.9.4-2.9.8ZM67.3,87Zm.2,2.5c0,.4.4.6.2.9A1,1,0,0,1,67.5,89.5Zm1.1,2.4-.2.1c-.2-.2-.1-.6-.1-.8C68.6,91.4,68.8,91.6,68.6,91.9Zm2,1c0,.1-.2.1-.3,0a21.92,21.92,0,0,1-2.5-4.8H68C68.9,89.7,69.7,91.4,70.6,92.9ZM72,89.2c-.1,0-.1.1-.1.2a5,5,0,0,1-2.8-1.2V88A7.44,7.44,0,0,1,72,89.2Zm-1-5.3c.5.1.5.6.6,1a2.35,2.35,0,0,1-2.5,2.2.76.76,0,0,1-.4-.1,2.51,2.51,0,0,0,2.4-1.4L71,83.9Zm-.9-.2a3.42,3.42,0,0,1,.4,1.8c-.4.8-1.2.8-1.9.9a1.4,1.4,0,0,1-.9-.3c0-.2,0-.3-.2-.4.1-.5-.9-1-.2-1.5s2.2-1.9,2.8-.5Zm20.2-2.9c-.3.4,0,1-.4,1.4,0,.7-.6,1.1-1.1,1.4-4.7,1-9.4-.6-13.9-1.4a47.93,47.93,0,0,0-20.3-.3q-4.5.9-9,2.1a12.75,12.75,0,0,1-5.5,0c-1.4-.7-.8-2.5-1.3-3.8,0-.9-.2-1.8-.3-2.8a3.55,3.55,0,0,1-.2-1,13.36,13.36,0,0,1,1.8.7c3.3.6,6.3-.4,9.4-1a70.4,70.4,0,0,1,9.2-1.4,62.61,62.61,0,0,1,10.6.3,29.09,29.09,0,0,1,3.1.4c2.2.3,4.3.9,6.6,1a5,5,0,0,0,1.2.2c3.6.6,7.6,1.6,11,0-.3,1.4-.5,2.8-.9,4.2Zm-1.1-4.9c0,.6-.6.5-.9.7h-1a2.08,2.08,0,0,1-.1-1.1,17.66,17.66,0,0,1,2,.4Zm-.5-1c.4-.4-.1-3,1.1-1.3,0,.3,0,.8-.3,1s-.5.5-.8.3Zm3.2-.4a2.43,2.43,0,0,1-1.7,1.4c0-1,.9-1.6.6-2.7a2.4,2.4,0,0,0-2.5-.8c-.4.2-.2.6-.3,1l-.2,1.3c-.8,0-.8-.7-1.1-1.3a2.44,2.44,0,0,1,1.2-2.1,2.66,2.66,0,0,1,2.3.1,2.22,2.22,0,0,1,1.3.8,2.18,2.18,0,0,1,.4,2.3Z" transform="translate(-0.09)"/><rect class="cls-1" x="140.71" y="59" width="320.4" height="1.3"/></svg>