<?xml version="1.0" encoding="utf-8"?>
<!-- Generator: Adobe Illustrator 21.1.0, SVG Export Plug-In . SVG Version: 6.00 Build 0)  -->
<svg version="1.1" id="Layer_1" xmlns="http://www.w3.org/2000/svg" xmlns:xlink="http://www.w3.org/1999/xlink" x="0px" y="0px"
	 viewBox="0 0 342.3 66.5" style="enable-background:new 0 0 342.3 66.5;" xml:space="preserve">
<style type="text/css">
	.st0{fill:#FFFFFF;stroke:#010101;stroke-width:0.6929;stroke-miterlimit:10;}
	.st1{fill:url(#SVGID_1_);}
	.st2{fill:url(#SVGID_2_);}
	.st3{fill:url(#SVGID_3_);}
	.st4{fill:url(#SVGID_4_);}
	.st5{fill:#175AA5;}
	.st6{fill:#FFFFFF;}
</style>
<g>
	<path class="st0" d="M47.7,43.1"/>
	
		<linearGradient id="SVGID_1_" gradientUnits="userSpaceOnUse" x1="23.4231" y1="974.9958" x2="46.9333" y2="996.7945" gradientTransform="matrix(1 0 0 1 0 -966)">
		<stop  offset="0" style="stop-color:#387CC0"/>
		<stop  offset="1" style="stop-color:#05BAB9"/>
	</linearGradient>
	<path class="st1" d="M33.2,13.1c0.3,0,20.2,16.9,20.2,16.9l-6,6L22.2,14.7C22.2,14.7,30.9,13.1,33.2,13.1z"/>
	
		<linearGradient id="SVGID_2_" gradientUnits="userSpaceOnUse" x1="10.1534" y1="1016.112" x2="32.8044" y2="976.3532" gradientTransform="matrix(1 0 0 1 0 -966)">
		<stop  offset="1.000000e-02" style="stop-color:#FCD127"/>
		<stop  offset="1" style="stop-color:#F8961D"/>
	</linearGradient>
	<path class="st2" d="M21,29.9c-0.2,0-20.2,16.9-20.2,16.9l6,6L32,31.5C32,31.5,23.3,29.9,21,29.9z"/>
	
		<linearGradient id="SVGID_3_" gradientUnits="userSpaceOnUse" x1="48.5964" y1="1015.96" x2="25.3772" y2="992.7408" gradientTransform="matrix(1 0 0 1 0 -966)">
		<stop  offset="0" style="stop-color:#E9487B"/>
		<stop  offset="0.83" style="stop-color:#F9A12E"/>
	</linearGradient>
	<path class="st3" d="M30.3,29.8c2.5,0,3.2-0.1,5.3,1.6c6.4,5.4,17.7,15.7,17.7,15.7l-6.2,5.5c0,0-16.3-14.6-23.4-20.3
		C22.1,30.8,21,30,21,30s4.1-0.1,7.1-0.1C29,29.8,29.8,29.8,30.3,29.8z"/>
	
		<linearGradient id="SVGID_4_" gradientUnits="userSpaceOnUse" x1="26.2232" y1="980.1931" x2="-0.703" y2="1001.9919" gradientTransform="matrix(1 0 0 1 0 -966)">
		<stop  offset="0" style="stop-color:#8DC641"/>
		<stop  offset="1" style="stop-color:#2AB34B"/>
	</linearGradient>
	<path class="st4" d="M23.9,12.9c-2.5,0-3.2-0.1-5.3,1.6C12.1,19.9,0.8,30.3,0.8,30.3L7,35.7c0,0,16.3-14.6,23.4-20.3
		c1.7-1.5,2.8-2.3,2.8-2.3s-4.2-0.1-7.1-0.1H23.9z"/>
	<path class="st5" d="M68.2,16.3h7.1l8,22.5h0.1l7.8-22.5h7V45h-4.8V22.8h-0.1l-8,22.2h-4.2l-8-22.2h-0.1V45h-4.8L68.2,16.3
		L68.2,16.3z"/>
	<path class="st5" d="M101.1,24.2h5.1l5.4,15.5h0.1l5.3-15.5h4.8l-8.1,22c-0.3,1-0.8,1.9-1.1,2.7c-0.4,0.8-0.8,1.6-1.3,2.3
		c-0.5,0.6-1.2,1.2-1.9,1.6c-0.9,0.4-2,0.6-3,0.6c-1.1,0-2.1-0.1-3.2-0.2v-3.9l1.1,0.2c0.4,0.1,0.7,0.1,1.1,0.1
		c0.4,0,0.9-0.1,1.3-0.2c0.3-0.1,0.6-0.3,0.8-0.6c0.2-0.3,0.4-0.6,0.6-0.9c0.1-0.3,0.3-0.8,0.4-1.2L109,45L101.1,24.2z"/>
	<path class="st5" d="M128.8,35.5c0,1,0.2,1.9,0.6,2.8c0.4,0.8,0.9,1.4,1.6,1.9c0.7,0.5,1.5,0.9,2.3,1.1c0.9,0.2,1.9,0.3,2.8,0.3
		c1,0,1.9-0.1,2.8-0.4c0.7-0.2,1.3-0.5,1.9-1c0.5-0.4,0.8-0.8,1-1.4c0.2-0.5,0.3-1,0.3-1.6c0.1-0.9-0.2-1.7-0.8-2.4
		c-0.4-0.5-1-0.9-1.7-1.1c-1.2-0.4-2.3-0.8-3.5-1c-1.4-0.3-3-0.8-5-1.3c-1.1-0.3-2.1-0.7-3-1.2c-0.7-0.5-1.4-1.1-1.9-1.7
		c-0.5-0.6-0.8-1.3-1-2.1c-0.2-0.7-0.3-1.5-0.3-2.2c0-1.3,0.3-2.6,0.9-3.7c0.6-1,1.4-1.9,2.4-2.6c1-0.7,2.2-1.2,3.4-1.5
		c1.2-0.3,2.5-0.5,3.8-0.5c1.4,0,2.8,0.2,4.2,0.6c1.3,0.4,2.5,1,3.5,1.7c1,0.8,1.9,1.8,2.4,2.9c0.6,1.2,0.9,2.6,0.9,3.9h-5.1
		c-0.1-1.8-0.8-3.2-1.9-3.9c-1.3-0.8-2.8-1.2-4.3-1.2c-0.6,0-1.2,0.1-1.8,0.2c-0.6,0.1-1.1,0.3-1.7,0.6c-0.5,0.3-0.9,0.7-1.2,1.2
		c-0.3,0.5-0.5,1.2-0.5,1.8c0,0.9,0.3,1.8,1,2.4c0.7,0.6,1.6,1.1,2.5,1.3c0.4,0.1,0.8,0.2,1.2,0.3c0.8,0.2,1.6,0.4,2.5,0.7
		s1.8,0.5,2.7,0.7c0.9,0.2,1.5,0.4,1.9,0.5c0.9,0.3,1.7,0.6,2.4,1.2c0.7,0.5,1.2,1.1,1.7,1.7c0.5,0.6,0.8,1.3,1,2.1
		c0.6,2.1,0.4,4.5-0.6,6.4c-0.6,1.1-1.5,2.1-2.6,2.8c-1.1,0.7-2.4,1.3-3.7,1.6c-1.4,0.3-2.8,0.5-4.2,0.5c-1.6,0-3.1-0.2-4.6-0.6
		c-1.4-0.4-2.7-1-3.8-1.9c-1.1-0.9-2-1.9-2.6-3.2c-0.7-1.5-1-3-1-4.6L128.8,35.5L128.8,35.5z"/>
	<path class="st5" d="M154,35.8c0,0.8,0.1,1.6,0.3,2.4c0.2,0.7,0.5,1.4,1,1.9c0.5,0.6,1.1,1,1.7,1.3c0.8,0.4,1.6,0.5,2.5,0.5
		c1.1,0,2.3-0.2,3.3-0.8c0.9-0.6,1.5-1.5,1.8-2.6h4.4c-0.2,1.1-0.6,2.1-1.2,3c-0.6,0.9-1.3,1.6-2.1,2.2c-0.8,0.6-1.8,1.1-2.8,1.4
		c-1.1,0.3-2.2,0.5-3.3,0.5c-1.5,0-3-0.3-4.4-0.8c-2.5-1.1-4.4-3.2-5.1-5.8c-0.5-1.4-0.7-2.9-0.7-4.4c0-1.4,0.2-2.9,0.7-4.2
		c0.4-1.3,1.1-2.5,2-3.5c0.9-1,2-1.8,3.2-2.4c1.3-0.6,2.7-0.9,4.2-0.9c1.5,0,3.1,0.3,4.4,1c1.3,0.7,2.4,1.6,3.3,2.7
		c0.9,1.2,1.5,2.5,1.9,3.9c0.4,1.5,0.5,3,0.3,4.5H154V35.8z M164.7,32.8c-0.1-0.7-0.2-1.4-0.5-2.1c-0.2-0.6-0.6-1.2-1-1.7
		c-0.4-0.5-1-0.9-1.6-1.2c-0.7-0.3-1.4-0.5-2.1-0.5c-0.8,0-1.5,0.1-2.2,0.4c-0.6,0.3-1.2,0.7-1.7,1.2c-0.5,0.5-0.8,1.1-1.1,1.7
		c-0.3,0.7-0.4,1.4-0.5,2.1H164.7z"/>
	<path class="st5" d="M171.9,24.2h4.3v4h0.1c0.2-0.6,0.4-1.2,0.8-1.7c0.4-0.5,0.9-1,1.4-1.5c0.5-0.4,1.2-0.8,1.8-1
		c0.7-0.3,1.4-0.4,2.1-0.4c0.4,0,0.7,0,1.1,0.1c0.2,0,0.4,0.1,0.6,0.1v4.4c-0.3-0.1-0.6-0.1-1-0.1c-1.1-0.2-2.2,0-3.2,0.4
		c-0.7,0.3-1.3,0.8-1.8,1.4c-0.5,0.7-0.9,1.4-1.2,2.2c-0.3,1-0.4,2-0.4,3V45h-4.6V24.2z"/>
	<path class="st5" d="M185.7,24.2h5l5.3,16h0.1l5.1-16h4.8L198.5,45h-5.1L185.7,24.2z"/>
	<path class="st5" d="M208.8,16.3h4.6v4.4h-4.6V16.3z M208.8,24.2h4.6V45h-4.6V24.2z"/>
	<path class="st5" d="M231.6,31.2c-0.1-1.1-0.6-2.2-1.5-2.9c-0.9-0.7-2-1-3.2-1c-0.6,0-1.3,0.1-1.9,0.3c-0.7,0.2-1.4,0.6-1.9,1.1
		c-0.6,0.7-1.1,1.4-1.4,2.3c-0.4,1.2-0.6,2.5-0.6,3.8c0,0.9,0.1,1.7,0.3,2.6c0.2,0.8,0.5,1.6,1,2.3c0.4,0.7,1,1.3,1.7,1.7
		c0.8,0.4,1.7,0.7,2.6,0.6c1.2,0,2.4-0.4,3.3-1.2c0.9-1,1.5-2.2,1.7-3.5h4.6c-0.3,2.4-1.3,4.6-3,6.2c-1.6,1.5-3.8,2.1-6.4,2.1
		c-1.5,0-2.9-0.3-4.3-0.8c-2.5-1.1-4.3-3.1-5.1-5.7c-0.4-1.4-0.7-2.8-0.7-4.3c0-1.5,0.2-2.9,0.6-4.4c0.4-1.3,1-2.5,1.9-3.5
		c0.9-1,2-1.8,3.2-2.4c1.4-0.6,3-0.9,4.5-0.8c1.2,0,2.3,0.1,3.5,0.5c1.1,0.3,2,0.7,2.9,1.4c0.8,0.6,1.6,1.4,2.1,2.4
		c0.5,1,0.9,2.2,1,3.3H231.6z"/>
	<path class="st5" d="M243.5,35.8c0,0.8,0.1,1.6,0.3,2.4c0.2,0.7,0.5,1.4,1,1.9c0.5,0.6,1.1,1,1.7,1.3c0.8,0.4,1.6,0.5,2.5,0.5
		c1.1,0,2.3-0.2,3.3-0.8c0.9-0.6,1.5-1.5,1.8-2.6h4.4c-0.2,1.1-0.6,2.1-1.2,3c-0.6,0.9-1.3,1.6-2.1,2.2c-0.8,0.6-1.8,1.1-2.8,1.4
		c-1.1,0.3-2.2,0.5-3.3,0.5c-1.5,0-3-0.3-4.4-0.8c-2.5-1.1-4.4-3.2-5.1-5.8c-0.5-1.4-0.7-2.9-0.7-4.4c0-1.4,0.2-2.9,0.7-4.2
		c0.4-1.3,1.1-2.5,2-3.5c0.9-1,2-1.8,3.2-2.4c1.3-0.6,2.7-0.9,4.2-0.9c1.5,0,3.1,0.3,4.4,1c1.3,0.7,2.4,1.6,3.3,2.7
		c0.9,1.2,1.5,2.5,1.9,3.9c0.4,1.5,0.5,3,0.3,4.5h-15.3V35.8z M254.2,32.8c-0.1-0.7-0.2-1.4-0.5-2.1c-0.2-0.6-0.6-1.2-1-1.7
		c-0.4-0.5-1-0.9-1.6-1.2c-0.7-0.3-1.4-0.5-2.1-0.5c-0.8,0-1.5,0.1-2.2,0.4c-0.6,0.3-1.2,0.7-1.7,1.2c-0.5,0.5-0.8,1.1-1.1,1.7
		c-0.3,0.7-0.4,1.4-0.5,2.1H254.2z"/>
	<g id="MyService">
		<path class="st5" d="M332.8,13.1h-57.6c-4.8,0-8.7,3.9-8.7,8.8c0,0,0,0,0,0v15c0,4.8,3.9,8.8,8.7,8.8h57.6c4.8,0,8.7-3.9,8.7-8.8
			c0,0,0,0,0,0v-15c0-4.8-3.8-8.7-8.6-8.8C332.8,13.1,332.8,13.1,332.8,13.1z"/>
	</g>
	<g id="BETA">
		<path class="st6" d="M286.6,28c0.6-0.3,1.1-0.7,1.5-1.2c0.4-0.6,0.6-1.3,0.6-1.9c0-0.6-0.1-1.2-0.3-1.8c-0.2-0.5-0.5-0.9-1-1.2
			c-0.5-0.3-1-0.5-1.5-0.6c-0.7-0.1-1.3-0.2-2-0.2h-7.2v15.2h7.3c0.7,0,1.4-0.1,2-0.3c0.6-0.1,1.2-0.4,1.7-0.8
			c0.5-0.4,0.9-0.8,1.2-1.4c0.3-0.6,0.4-1.3,0.4-2c0-0.9-0.2-1.7-0.7-2.4C288.1,28.7,287.4,28.3,286.6,28z M280,23.7h3.1
			c0.3,0,0.6,0,0.8,0.1c0.3,0,0.5,0.1,0.8,0.3c0.2,0.1,0.4,0.3,0.5,0.6c0.2,0.3,0.2,0.6,0.2,0.9c0,0.5-0.2,1-0.6,1.4
			c-0.4,0.3-0.9,0.4-1.5,0.4H280V23.7L280,23.7z M285.8,32.7c-0.1,0.3-0.3,0.5-0.6,0.6c-0.2,0.2-0.5,0.3-0.8,0.3
			c-0.3,0.1-0.6,0.1-1,0.1h-3.6v-4.2h3.7c0.6,0,1.2,0.1,1.7,0.5c0.5,0.4,0.7,1,0.7,1.7C286,32.1,285.9,32.4,285.8,32.7z M295.5,29.8
			h7.3v-2.6h-7.3v-3.3h8V21h-11.4v15.2h11.5v-2.8h-8.2V29.8z M317.7,21.1h-12.5V24h4.6v12.4h3.3V23.9h4.6V21.1z M325.8,21.1h-3.4
			l-5.8,15.2h3.4l1.2-3.4h5.7l1.2,3.4h3.5L325.8,21.1z M322.1,30.5l2-5.6h0.1l1.9,5.6H322.1z"/>
	</g>
</g>
</svg>
