<?xml version="1.0" encoding="UTF-8"?>
<svg width="336px" height="53px" viewBox="0 0 336 53" version="1.1" xmlns="http://www.w3.org/2000/svg" xmlns:xlink="http://www.w3.org/1999/xlink">
    <!-- Generator: Sketch 55.2 (78181) - https://sketchapp.com -->
    <title>Slice 1</title>
    <desc>Created with Sketch.</desc>
    <defs>
        <linearGradient x1="3.90935195%" y1="13.612184%" x2="79.3482351%" y2="64.7975838%" id="linearGradient-1">
            <stop stop-color="#377BBE" offset="0%"></stop>
            <stop stop-color="#00B9B8" offset="100%"></stop>
        </linearGradient>
        <linearGradient x1="29.9980198%" y1="70.564575%" x2="102.691898%" y2="-22.7691313%" id="linearGradient-2">
            <stop stop-color="#FBD025" offset="1.14%"></stop>
            <stop stop-color="#F7941D" offset="100%"></stop>
        </linearGradient>
        <linearGradient x1="85.2485596%" y1="69.0320968%" x2="13.5836389%" y2="18.6852562%" id="linearGradient-3">
            <stop stop-color="#E8477A" offset="0%"></stop>
            <stop stop-color="#F89F2D" offset="82.79%"></stop>
        </linearGradient>
        <linearGradient x1="78.4948336%" y1="28.0726328%" x2="-4.616923%" y2="75.3395227%" id="linearGradient-4">
            <stop stop-color="#8BC540" offset="0%"></stop>
            <stop stop-color="#28B24B" offset="100%"></stop>
        </linearGradient>
    </defs>
    <g id="Page-1" stroke="none" stroke-width="1" fill="none" fill-rule="evenodd">
        <g id="logo-myservice" fill-rule="nonzero">
            <g id="Group">
                <path d="M42.69,0.92 C43.017,0.92 68.847,22.792 68.847,22.792 L61.162,30.48 L28.449,2.959 C28.449,2.959 39.786,0.92 42.69,0.92 Z" id="Path" fill="url(#linearGradient-1)"></path>
                <path d="M26.846,22.778 C26.519,22.778 0.689,44.65 0.689,44.65 L8.374,52.338 L41.088,24.817 C41.087,24.817 29.75,22.778 26.846,22.778 Z" id="Path" fill="url(#linearGradient-2)"></path>
                <path d="M38.959,22.593 C42.214,22.593 43.121,22.375 45.834,24.632 C54.219,31.608 68.847,45.052 68.847,45.052 L60.832,52.095 C60.832,52.095 39.698,33.266 30.509,25.768 C28.246,23.921 26.845,22.778 26.845,22.778 C26.845,22.778 32.189,22.67 36.019,22.619 C37.218,22.603 38.267,22.593 38.959,22.593 Z" id="Path" fill="url(#linearGradient-3)"></path>
                <path d="M30.577,0.735 C27.322,0.735 26.415,0.517 23.702,2.774 C15.317,9.75 0.689,23.194 0.689,23.194 L8.704,30.237 C8.704,30.237 29.838,11.408 39.027,3.91 C41.29,2.063 42.691,0.92 42.691,0.92 C42.691,0.92 37.347,0.812 33.517,0.761 C32.318,0.745 31.269,0.735 30.577,0.735 Z" id="Path" fill="url(#linearGradient-4)"></path>
            </g>
            <g id="Group" transform="translate(88.000000, 4.000000)" fill="#FFFFFF">
                <polygon id="Path" points="0.068 1.045 9.252 1.045 19.532 30.215 19.636 30.215 29.655 1.045 38.735 1.045 38.735 38.303 32.525 38.303 32.525 9.55 32.421 9.55 22.089 38.302 16.714 38.302 6.382 9.55 6.278 9.55 6.278 38.302 0.068 38.302 0.068 1.045"></polygon>
                <path d="M42.753,11.324 L49.276,11.324 L56.321,31.466 L56.425,31.466 L63.261,11.324 L69.471,11.324 L58.982,39.763 C58.495,40.981 58.017,42.145 57.547,43.26 C57.077,44.373 56.503,45.355 55.825,46.208 C55.147,47.06 54.303,47.738 53.294,48.243 C52.285,48.747 50.998,49 49.433,49 C48.041,49 46.667,48.896 45.311,48.687 L45.311,43.678 C45.798,43.747 46.267,43.826 46.72,43.913 C47.172,43.999 47.641,44.043 48.129,44.043 C48.825,44.043 49.399,43.956 49.851,43.782 C50.303,43.607 50.677,43.355 50.973,43.025 C51.268,42.694 51.521,42.302 51.73,41.851 C51.939,41.399 52.13,40.877 52.304,40.285 L52.982,38.198 L42.753,11.324 Z" id="Path"></path>
                <path d="M78.666,25.883 C78.666,27.31 78.909,28.527 79.397,29.536 C79.884,30.545 80.562,31.372 81.432,32.015 C82.301,32.659 83.302,33.129 84.433,33.424 C85.563,33.72 86.789,33.868 88.112,33.868 C89.538,33.868 90.755,33.703 91.765,33.372 C92.774,33.042 93.592,32.615 94.217,32.093 C94.843,31.571 95.295,30.971 95.574,30.293 C95.852,29.615 95.991,28.928 95.991,28.232 C95.991,26.806 95.669,25.753 95.026,25.075 C94.382,24.397 93.677,23.919 92.913,23.64 C91.591,23.154 90.051,22.693 88.295,22.257 C86.538,21.823 84.372,21.257 81.798,20.561 C80.198,20.144 78.867,19.596 77.806,18.917 C76.744,18.239 75.902,17.482 75.275,16.647 C74.649,15.812 74.205,14.925 73.944,13.985 C73.683,13.046 73.553,12.09 73.553,11.115 C73.553,9.236 73.944,7.611 74.727,6.236 C75.51,4.862 76.544,3.723 77.832,2.818 C79.119,1.914 80.58,1.244 82.215,0.809 C83.85,0.374 85.503,0.157 87.172,0.157 C89.12,0.157 90.955,0.41 92.677,0.914 C94.399,1.418 95.912,2.175 97.217,3.184 C98.522,4.193 99.556,5.437 100.322,6.915 C101.087,8.394 101.47,10.107 101.47,12.055 L94.947,12.055 C94.773,9.655 93.956,7.959 92.495,6.967 C91.034,5.975 89.172,5.48 86.911,5.48 C86.146,5.48 85.363,5.558 84.563,5.715 C83.762,5.872 83.032,6.132 82.371,6.498 C81.71,6.863 81.162,7.359 80.727,7.985 C80.291,8.611 80.075,9.394 80.075,10.333 C80.075,11.655 80.483,12.69 81.301,13.438 C82.118,14.186 83.188,14.751 84.51,15.134 C84.648,15.169 85.196,15.317 86.154,15.578 C87.11,15.839 88.18,16.126 89.363,16.439 C90.545,16.752 91.702,17.057 92.833,17.352 C93.963,17.648 94.772,17.866 95.259,18.004 C96.476,18.387 97.537,18.909 98.442,19.57 C99.346,20.231 100.103,20.988 100.712,21.84 C101.32,22.693 101.773,23.606 102.069,24.579 C102.364,25.553 102.513,26.528 102.513,27.501 C102.513,29.588 102.086,31.372 101.234,32.849 C100.381,34.328 99.259,35.537 97.868,36.476 C96.476,37.415 94.893,38.102 93.119,38.537 C91.345,38.972 89.536,39.189 87.692,39.189 C85.57,39.189 83.57,38.928 81.691,38.406 C79.813,37.884 78.177,37.084 76.786,36.006 C75.394,34.928 74.281,33.545 73.446,31.857 C72.611,30.17 72.176,28.179 72.142,25.882 L78.666,25.882 L78.666,25.883 Z" id="Path"></path>
                <path d="M111.268,26.353 C111.268,27.397 111.416,28.406 111.712,29.379 C112.007,30.354 112.451,31.205 113.043,31.936 C113.634,32.667 114.382,33.25 115.287,33.684 C116.191,34.12 117.27,34.336 118.523,34.336 C120.262,34.336 121.662,33.963 122.724,33.214 C123.785,32.466 124.576,31.345 125.098,29.848 L130.734,29.848 C130.421,31.309 129.881,32.614 129.116,33.762 C128.351,34.91 127.428,35.876 126.35,36.658 C125.271,37.44 124.062,38.032 122.723,38.432 C121.383,38.832 119.983,39.032 118.522,39.032 C116.399,39.032 114.521,38.684 112.886,37.988 C111.25,37.293 109.867,36.318 108.738,35.066 C107.607,33.814 106.755,32.318 106.181,30.578 C105.607,28.839 105.32,26.925 105.32,24.838 C105.32,22.925 105.624,21.107 106.233,19.385 C106.841,17.663 107.711,16.149 108.842,14.845 C109.972,13.54 111.338,12.506 112.938,11.74 C114.538,10.975 116.347,10.592 118.365,10.592 C120.487,10.592 122.391,11.036 124.079,11.922 C125.766,12.809 127.166,13.983 128.28,15.444 C129.393,16.905 130.202,18.584 130.707,20.48 C131.211,22.376 131.341,24.333 131.098,26.351 L111.268,26.351 L111.268,26.353 Z M125.149,22.439 C125.079,21.5 124.879,20.596 124.549,19.726 C124.218,18.857 123.766,18.1 123.192,17.456 C122.618,16.812 121.922,16.291 121.105,15.89 C120.287,15.491 119.374,15.29 118.366,15.29 C117.322,15.29 116.374,15.473 115.522,15.838 C114.669,16.203 113.939,16.708 113.331,17.351 C112.722,17.995 112.235,18.752 111.87,19.621 C111.505,20.491 111.304,21.43 111.27,22.438 L125.149,22.438 L125.149,22.439 Z" id="Shape"></path>
                <path d="M134.524,11.324 L140.108,11.324 L140.108,16.542 L140.212,16.542 C140.386,15.811 140.725,15.099 141.23,14.402 C141.734,13.707 142.343,13.072 143.056,12.498 C143.769,11.924 144.56,11.463 145.43,11.115 C146.299,10.767 147.186,10.593 148.091,10.593 C148.786,10.593 149.265,10.611 149.526,10.645 C149.787,10.68 150.056,10.715 150.335,10.749 L150.335,16.489 C149.918,16.42 149.491,16.359 149.056,16.306 C148.621,16.254 148.195,16.228 147.777,16.228 C146.768,16.228 145.82,16.429 144.933,16.828 C144.046,17.228 143.271,17.82 142.611,18.602 C141.95,19.385 141.428,20.35 141.046,21.498 C140.663,22.646 140.472,23.969 140.472,25.464 L140.472,38.301 L134.523,38.301 L134.523,11.324 L134.524,11.324 Z" id="Path"></path>
                <polygon id="Path" points="152.457 11.324 158.927 11.324 165.763 32.04 165.867 32.04 172.442 11.324 178.6 11.324 168.946 38.302 162.267 38.302"></polygon>
                <path d="M182.357,1.045 L188.306,1.045 L188.306,6.68 L182.357,6.68 L182.357,1.045 Z M182.357,11.324 L188.306,11.324 L188.306,38.302 L182.357,38.302 L182.357,11.324 Z" id="Shape"></path>
                <path d="M211.875,20.352 C211.631,18.682 210.962,17.422 209.866,16.569 C208.77,15.717 207.387,15.29 205.717,15.29 C204.952,15.29 204.134,15.42 203.265,15.681 C202.395,15.942 201.595,16.43 200.865,17.142 C200.134,17.855 199.525,18.847 199.038,20.116 C198.551,21.386 198.307,23.048 198.307,25.099 C198.307,26.213 198.437,27.326 198.698,28.439 C198.959,29.552 199.376,30.544 199.951,31.413 C200.525,32.283 201.264,32.988 202.169,33.527 C203.073,34.067 204.169,34.336 205.457,34.336 C207.196,34.336 208.631,33.797 209.762,32.718 C210.892,31.64 211.597,30.127 211.875,28.178 L217.824,28.178 C217.267,31.692 215.936,34.38 213.832,36.24 C211.727,38.101 208.935,39.032 205.457,39.032 C203.334,39.032 201.465,38.675 199.847,37.962 C198.229,37.249 196.864,36.275 195.751,35.04 C194.637,33.806 193.794,32.335 193.22,30.631 C192.646,28.927 192.359,27.083 192.359,25.1 C192.359,23.083 192.637,21.186 193.194,19.412 C193.75,17.638 194.585,16.098 195.699,14.793 C196.812,13.488 198.195,12.463 199.847,11.714 C201.499,10.966 203.438,10.592 205.665,10.592 C207.231,10.592 208.718,10.792 210.127,11.192 C211.536,11.592 212.789,12.192 213.884,12.992 C214.98,13.793 215.875,14.801 216.571,16.018 C217.266,17.236 217.684,18.68 217.824,20.349 L211.875,20.349 L211.875,20.352 Z" id="Path"></path>
                <path d="M227.321,26.353 C227.321,27.397 227.468,28.406 227.765,29.379 C228.06,30.354 228.504,31.205 229.096,31.936 C229.687,32.667 230.435,33.25 231.34,33.684 C232.244,34.12 233.323,34.336 234.576,34.336 C236.315,34.336 237.715,33.963 238.777,33.214 C239.838,32.466 240.629,31.345 241.151,29.848 L246.787,29.848 C246.474,31.309 245.934,32.614 245.169,33.762 C244.404,34.91 243.481,35.876 242.403,36.658 C241.324,37.44 240.115,38.032 238.776,38.432 C237.436,38.832 236.036,39.032 234.575,39.032 C232.452,39.032 230.574,38.684 228.939,37.988 C227.303,37.293 225.92,36.318 224.791,35.066 C223.66,33.814 222.808,32.318 222.234,30.578 C221.66,28.839 221.373,26.925 221.373,24.838 C221.373,22.925 221.677,21.107 222.286,19.385 C222.894,17.663 223.764,16.149 224.895,14.845 C226.025,13.54 227.391,12.506 228.991,11.74 C230.591,10.975 232.4,10.592 234.418,10.592 C236.54,10.592 238.444,11.036 240.132,11.922 C241.819,12.809 243.219,13.983 244.333,15.444 C245.446,16.905 246.255,18.584 246.76,20.48 C247.264,22.376 247.394,24.333 247.151,26.351 L227.321,26.351 L227.321,26.353 Z M241.202,22.439 C241.132,21.5 240.932,20.596 240.602,19.726 C240.271,18.857 239.819,18.1 239.245,17.456 C238.671,16.812 237.975,16.291 237.158,15.89 C236.34,15.491 235.427,15.29 234.419,15.29 C233.375,15.29 232.427,15.473 231.575,15.838 C230.722,16.203 229.992,16.708 229.384,17.351 C228.775,17.995 228.288,18.752 227.923,19.621 C227.558,20.491 227.357,21.43 227.323,22.438 L241.202,22.438 L241.202,22.439 Z" id="Shape"></path>
            </g>
        </g>
    </g>
</svg>