<?xml version="1.0" encoding="iso-8859-1"?>
<!-- Generator: Adobe Illustrator 21.1.0, SVG Export Plug-In . SVG Version: 6.00 Build 0)  -->
<svg version="1.1" id="Layer_1" xmlns="http://www.w3.org/2000/svg" xmlns:xlink="http://www.w3.org/1999/xlink" x="0px" y="0px"
	 viewBox="0 0 342.3 66.5" style="enable-background:new 0 0 342.3 66.5;" xml:space="preserve">
<g>
	<g>
		<path style="fill:#FFFFFF;stroke:#000000;stroke-width:0.8982;stroke-miterlimit:10;" d="M64.542,49.895"/>
		<linearGradient id="SVGID_1_" gradientUnits="userSpaceOnUse" x1="33.0283" y1="5.6104" x2="63.5041" y2="33.8697">
			<stop  offset="0" style="stop-color:#377BBE"/>
			<stop  offset="1" style="stop-color:#00B9B8"/>
		</linearGradient>
		<path style="fill:url(#SVGID_1_);" d="M45.69,10.92c0.327,0,26.157,21.872,26.157,21.872l-7.685,7.688L31.449,12.959
			C31.449,12.959,42.786,10.92,45.69,10.92z"/>
		<linearGradient id="SVGID_2_" gradientUnits="userSpaceOnUse" x1="15.8079" y1="58.9122" x2="45.1755" y2="7.3804">
			<stop  offset="0.0114" style="stop-color:#FBD025"/>
			<stop  offset="1" style="stop-color:#F7941D"/>
		</linearGradient>
		<path style="fill:url(#SVGID_2_);" d="M29.846,32.778c-0.327,0-26.157,21.872-26.157,21.872l7.685,7.688l32.714-27.521
			C44.087,34.817,32.75,32.778,29.846,32.778z"/>
		<linearGradient id="SVGID_3_" gradientUnits="userSpaceOnUse" x1="65.6511" y1="58.7198" x2="35.5504" y2="28.6191">
			<stop  offset="0" style="stop-color:#E8477A"/>
			<stop  offset="0.8279" style="stop-color:#F89F2D"/>
		</linearGradient>
		<path style="fill:url(#SVGID_3_);" d="M41.959,32.593c3.255,0,4.162-0.218,6.875,2.039c8.385,6.976,23.013,20.42,23.013,20.42
			l-8.015,7.043c0,0-21.134-18.829-30.323-26.327c-2.263-1.847-3.664-2.99-3.664-2.99s5.344-0.108,9.174-0.159
			C40.218,32.603,41.267,32.593,41.959,32.593z"/>
		<linearGradient id="SVGID_4_" gradientUnits="userSpaceOnUse" x1="36.6584" y1="12.3735" x2="1.7498" y2="40.6328">
			<stop  offset="0" style="stop-color:#8BC540"/>
			<stop  offset="1" style="stop-color:#28B24B"/>
		</linearGradient>
		<path style="fill:url(#SVGID_4_);" d="M33.577,10.735c-3.255,0-4.162-0.218-6.875,2.039c-8.385,6.976-23.013,20.42-23.013,20.42
			l8.015,7.043c0,0,21.134-18.829,30.323-26.327c2.263-1.847,3.664-2.99,3.664-2.99s-5.344-0.108-9.174-0.159
			C35.318,10.745,34.269,10.735,33.577,10.735z"/>
	</g>
	<g>
		<path style="fill:#1558A5;" d="M91.068,15.045h9.184l10.28,29.17h0.104l10.019-29.17h9.08v37.258h-6.21V23.55h-0.104
			l-10.332,28.752h-5.375L97.382,23.55h-0.104v28.752h-6.21V15.045z"/>
		<path style="fill:#1558A5;" d="M133.753,25.324h6.523l7.045,20.142h0.104l6.836-20.142h6.21l-10.489,28.439
			c-0.487,1.218-0.965,2.382-1.435,3.497c-0.47,1.113-1.044,2.095-1.722,2.948c-0.678,0.852-1.522,1.53-2.531,2.035
			c-1.009,0.504-2.296,0.757-3.861,0.757c-1.392,0-2.766-0.104-4.122-0.313v-5.009c0.487,0.069,0.956,0.148,1.409,0.235
			c0.452,0.086,0.921,0.13,1.409,0.13c0.696,0,1.27-0.087,1.722-0.261c0.452-0.175,0.826-0.427,1.122-0.757
			c0.295-0.331,0.548-0.723,0.757-1.174c0.209-0.452,0.4-0.974,0.574-1.566l0.678-2.087L133.753,25.324z"/>
		<path style="fill:#1558A5;" d="M169.666,39.883c0,1.427,0.243,2.644,0.731,3.653c0.487,1.009,1.165,1.836,2.035,2.479
			c0.869,0.644,1.87,1.114,3.001,1.409c1.13,0.296,2.356,0.444,3.679,0.444c1.426,0,2.643-0.165,3.653-0.496
			c1.009-0.33,1.827-0.757,2.452-1.279c0.626-0.522,1.078-1.122,1.357-1.8c0.278-0.678,0.417-1.365,0.417-2.061
			c0-1.426-0.322-2.479-0.965-3.157c-0.644-0.678-1.349-1.156-2.113-1.435c-1.322-0.486-2.862-0.947-4.618-1.383
			c-1.757-0.434-3.923-1-6.497-1.696c-1.6-0.417-2.931-0.965-3.992-1.644c-1.062-0.678-1.904-1.435-2.531-2.27
			c-0.626-0.835-1.07-1.722-1.331-2.662c-0.261-0.939-0.391-1.895-0.391-2.87c0-1.879,0.391-3.504,1.174-4.879
			c0.783-1.374,1.817-2.513,3.105-3.418c1.287-0.904,2.748-1.574,4.383-2.009c1.635-0.435,3.288-0.652,4.957-0.652
			c1.948,0,3.783,0.253,5.505,0.757c1.722,0.504,3.235,1.261,4.54,2.27c1.305,1.009,2.339,2.253,3.105,3.731
			c0.765,1.479,1.148,3.192,1.148,5.14h-6.523c-0.174-2.4-0.991-4.096-2.452-5.088c-1.461-0.992-3.323-1.487-5.584-1.487
			c-0.765,0-1.548,0.078-2.348,0.235c-0.801,0.157-1.531,0.417-2.192,0.783c-0.661,0.365-1.209,0.861-1.644,1.487
			c-0.436,0.626-0.652,1.409-0.652,2.348c0,1.322,0.408,2.357,1.226,3.105c0.817,0.748,1.887,1.313,3.209,1.696
			c0.138,0.035,0.686,0.183,1.644,0.444c0.956,0.261,2.026,0.548,3.209,0.861c1.182,0.313,2.339,0.618,3.47,0.913
			c1.13,0.296,1.939,0.514,2.426,0.652c1.217,0.383,2.278,0.905,3.183,1.566c0.904,0.661,1.661,1.418,2.27,2.27
			c0.608,0.853,1.061,1.766,1.357,2.739c0.295,0.974,0.444,1.949,0.444,2.922c0,2.087-0.427,3.871-1.279,5.348
			c-0.853,1.479-1.975,2.688-3.366,3.627c-1.392,0.939-2.975,1.626-4.749,2.061c-1.774,0.435-3.583,0.652-5.427,0.652
			c-2.122,0-4.122-0.261-6.001-0.783c-1.878-0.522-3.514-1.322-4.905-2.4c-1.392-1.078-2.505-2.461-3.34-4.149
			c-0.835-1.687-1.27-3.678-1.304-5.975H169.666z"/>
		<path style="fill:#1558A5;" d="M202.268,40.353c0,1.044,0.148,2.053,0.444,3.026c0.295,0.975,0.739,1.826,1.331,2.557
			c0.591,0.731,1.339,1.314,2.244,1.748c0.904,0.436,1.983,0.652,3.236,0.652c1.739,0,3.139-0.373,4.201-1.122
			c1.061-0.748,1.852-1.869,2.374-3.366h5.636c-0.313,1.461-0.853,2.766-1.618,3.914c-0.765,1.148-1.688,2.114-2.766,2.896
			c-1.079,0.782-2.288,1.374-3.627,1.774c-1.34,0.4-2.74,0.6-4.201,0.6c-2.123,0-4.001-0.348-5.636-1.044
			c-1.636-0.695-3.019-1.67-4.148-2.922c-1.131-1.252-1.983-2.748-2.557-4.488c-0.574-1.739-0.861-3.653-0.861-5.74
			c0-1.913,0.304-3.731,0.913-5.453c0.608-1.722,1.478-3.236,2.609-4.54c1.13-1.305,2.496-2.339,4.096-3.105
			c1.6-0.765,3.409-1.148,5.427-1.148c2.122,0,4.026,0.444,5.714,1.33c1.687,0.887,3.087,2.061,4.201,3.522
			c1.113,1.461,1.922,3.14,2.427,5.036c0.504,1.896,0.634,3.853,0.391,5.871H202.268z M216.149,36.439
			c-0.07-0.939-0.27-1.843-0.6-2.713c-0.331-0.869-0.783-1.626-1.357-2.27c-0.574-0.644-1.27-1.165-2.087-1.566
			c-0.818-0.399-1.731-0.6-2.739-0.6c-1.044,0-1.992,0.183-2.844,0.548c-0.853,0.365-1.583,0.87-2.191,1.513
			c-0.609,0.644-1.096,1.401-1.461,2.27c-0.365,0.87-0.566,1.809-0.6,2.817H216.149z"/>
		<path style="fill:#1558A5;" d="M225.524,25.324h5.584v5.218h0.104c0.174-0.731,0.513-1.443,1.018-2.14
			c0.504-0.695,1.113-1.33,1.826-1.904c0.713-0.574,1.504-1.035,2.374-1.383c0.869-0.348,1.756-0.522,2.661-0.522
			c0.695,0,1.174,0.018,1.435,0.052c0.261,0.035,0.53,0.07,0.809,0.104v5.74c-0.417-0.069-0.844-0.13-1.279-0.183
			c-0.435-0.052-0.861-0.078-1.279-0.078c-1.009,0-1.957,0.201-2.844,0.6c-0.887,0.4-1.662,0.992-2.322,1.774
			c-0.661,0.783-1.183,1.748-1.565,2.896c-0.383,1.148-0.574,2.471-0.574,3.966v12.837h-5.949V25.324z"/>
		<path style="fill:#1558A5;" d="M243.457,25.324h6.47l6.836,20.716h0.104l6.575-20.716h6.158l-9.654,26.978h-6.679L243.457,25.324z
			"/>
		<path style="fill:#1558A5;" d="M273.357,15.045h5.949v5.635h-5.949V15.045z M273.357,25.324h5.949v26.978h-5.949V25.324z"/>
		<path style="fill:#1558A5;" d="M302.875,34.352c-0.244-1.67-0.913-2.93-2.009-3.783c-1.096-0.852-2.479-1.279-4.149-1.279
			c-0.765,0-1.583,0.13-2.452,0.391c-0.87,0.261-1.67,0.749-2.4,1.461c-0.731,0.713-1.34,1.705-1.827,2.974
			c-0.487,1.27-0.731,2.932-0.731,4.983c0,1.114,0.13,2.227,0.391,3.34c0.261,1.113,0.678,2.105,1.253,2.974
			c0.574,0.87,1.313,1.575,2.218,2.114c0.904,0.54,2,0.809,3.288,0.809c1.739,0,3.174-0.539,4.305-1.618
			c1.13-1.078,1.835-2.591,2.113-4.54h5.949c-0.557,3.514-1.888,6.202-3.992,8.062c-2.105,1.861-4.897,2.792-8.375,2.792
			c-2.123,0-3.992-0.357-5.61-1.07c-1.618-0.713-2.983-1.687-4.096-2.922c-1.114-1.234-1.957-2.705-2.531-4.409
			c-0.574-1.704-0.861-3.548-0.861-5.531c0-2.017,0.278-3.914,0.835-5.688c0.556-1.774,1.391-3.314,2.505-4.619
			c1.113-1.305,2.496-2.33,4.148-3.079c1.652-0.748,3.591-1.122,5.818-1.122c1.566,0,3.053,0.2,4.462,0.6
			c1.409,0.4,2.662,1,3.757,1.8c1.096,0.801,1.991,1.809,2.687,3.026c0.695,1.218,1.113,2.662,1.253,4.331H302.875z"/>
		<path style="fill:#1558A5;" d="M318.321,40.353c0,1.044,0.147,2.053,0.444,3.026c0.295,0.975,0.739,1.826,1.331,2.557
			c0.591,0.731,1.339,1.314,2.244,1.748c0.904,0.436,1.983,0.652,3.236,0.652c1.739,0,3.139-0.373,4.201-1.122
			c1.061-0.748,1.852-1.869,2.374-3.366h5.636c-0.313,1.461-0.853,2.766-1.618,3.914c-0.765,1.148-1.688,2.114-2.766,2.896
			c-1.079,0.782-2.288,1.374-3.627,1.774c-1.34,0.4-2.74,0.6-4.201,0.6c-2.123,0-4.001-0.348-5.636-1.044
			c-1.636-0.695-3.019-1.67-4.148-2.922c-1.131-1.252-1.983-2.748-2.557-4.488c-0.574-1.739-0.861-3.653-0.861-5.74
			c0-1.913,0.304-3.731,0.913-5.453c0.608-1.722,1.478-3.236,2.609-4.54c1.13-1.305,2.496-2.339,4.096-3.105
			c1.6-0.765,3.409-1.148,5.427-1.148c2.122,0,4.026,0.444,5.714,1.33c1.687,0.887,3.087,2.061,4.201,3.522
			c1.113,1.461,1.922,3.14,2.427,5.036c0.504,1.896,0.634,3.853,0.391,5.871H318.321z M332.202,36.439
			c-0.07-0.939-0.27-1.843-0.6-2.713c-0.331-0.869-0.783-1.626-1.357-2.27c-0.574-0.644-1.27-1.165-2.087-1.566
			c-0.818-0.399-1.731-0.6-2.739-0.6c-1.044,0-1.992,0.183-2.844,0.548c-0.853,0.365-1.583,0.87-2.191,1.513
			c-0.609,0.644-1.096,1.401-1.461,2.27c-0.365,0.87-0.566,1.809-0.6,2.817H332.202z"/>
	</g>
	<g>
		<g id="MyService_1_">
			<g>
				<path style="fill:none;stroke:#1558A5;stroke-width:1.1339;stroke-miterlimit:10;" d="M334.21,4.8h-26.95
					c-2.265,0-4.101,1.838-4.101,4.106v7.038c0,2.268,1.836,4.106,4.101,4.106h26.95c2.265,0,4.101-1.838,4.101-4.106V8.906
					C338.311,6.638,336.475,4.8,334.21,4.8z"/>
			</g>
		</g>
		<g id="BETA_1_">
			<g>
				<path style="fill-rule:evenodd;clip-rule:evenodd;fill:#1558A5;" d="M312.573,11.795c0.319-0.153,0.559-0.349,0.722-0.588
					c0.163-0.239,0.244-0.538,0.244-0.897c0-0.332-0.055-0.612-0.164-0.838c-0.11-0.226-0.264-0.407-0.463-0.543
					c-0.199-0.136-0.438-0.234-0.717-0.294c-0.279-0.06-0.588-0.09-0.926-0.09h-3.346v7.119h3.446c0.319,0,0.629-0.04,0.931-0.12
					c0.302-0.08,0.571-0.203,0.807-0.369c0.236-0.166,0.423-0.38,0.563-0.643c0.139-0.263,0.209-0.573,0.209-0.932
					c0-0.445-0.108-0.826-0.324-1.142C313.338,12.142,313.011,11.921,312.573,11.795z M309.485,9.761h1.464
					c0.139,0,0.274,0.012,0.403,0.035c0.129,0.023,0.244,0.065,0.344,0.125c0.1,0.06,0.179,0.143,0.239,0.249
					c0.06,0.106,0.09,0.243,0.09,0.409c0,0.299-0.09,0.515-0.269,0.648c-0.179,0.133-0.408,0.199-0.687,0.199h-1.584V9.761z
					 M312.219,13.968c-0.063,0.12-0.148,0.214-0.254,0.284c-0.106,0.07-0.229,0.12-0.368,0.15c-0.139,0.03-0.286,0.045-0.438,0.045
					h-1.673v-1.954h1.703c0.339,0,0.611,0.078,0.817,0.234c0.206,0.156,0.309,0.417,0.309,0.783
					C312.314,13.696,312.282,13.849,312.219,13.968z M316.764,12.602h3.446v-1.216h-3.446V9.86h3.755V8.544h-5.318v7.119h5.398
					v-1.316h-3.834V12.602z M327.163,8.544h-5.826V9.86h2.131v5.803h1.564V9.86h2.131V8.544z M330.962,8.544h-1.604l-2.689,7.119
					h1.574l0.558-1.585h2.659l0.538,1.585h1.623L330.962,8.544z M329.209,12.911l0.926-2.612h0.02l0.896,2.612H329.209z"/>
			</g>
		</g>
	</g>
</g>
</svg>
