<svg id="Layer_2" data-name="Layer 2" xmlns="http://www.w3.org/2000/svg" viewBox="0 0 461.62 94.52"><title>logo-dva-black</title><path d="M152.49,41.7h-6.55l-.78,1.8a4,4,0,0,0-.38,1.49,1.24,1.24,0,0,0,.63,1.15,5.28,5.28,0,0,0,1.82.33V47H141v-.51a2.76,2.76,0,0,0,1.64-.83,11,11,0,0,0,1.59-2.8l6.63-14.79h.26l6.69,15.2A9.24,9.24,0,0,0,159.43,46a2.14,2.14,0,0,0,1.31.49V47h-9v-.51h.37a2.81,2.81,0,0,0,1.52-.3.73.73,0,0,0,.3-.63,1.68,1.68,0,0,0-.08-.51,5.42,5.42,0,0,0-.41-1Zm-.46-1-2.76-6.38-2.84,6.38Z" transform="translate(0)"/><path d="M172.95,34.19v10a3.67,3.67,0,0,0,.27,1.83,1.57,1.57,0,0,0,1.11.46V47h-5.21V45.26a6.58,6.58,0,0,1-1.83,1.59,4.22,4.22,0,0,1-2.05.5,3,3,0,0,1-1.92-.66,3.24,3.24,0,0,1-1.13-1.55,11.44,11.44,0,0,1-.29-3.1V37a3.67,3.67,0,0,0-.27-1.8,1.63,1.63,0,0,0-1.11-.46v-.51h5.21V43a7.22,7.22,0,0,0,.13,1.76,1.17,1.17,0,0,0,.41.6,1.07,1.07,0,0,0,.65.21,1.59,1.59,0,0,0,.89-.26,5.65,5.65,0,0,0,1.31-1.44V37a3.67,3.67,0,0,0-.27-1.8,1.63,1.63,0,0,0-1.11-.46v-.51Z" transform="translate(0)"/><path d="M182.86,33.83,183,38.2h-.46a6.86,6.86,0,0,0-1.73-2.65,2.88,2.88,0,0,0-1.78-.71,1.34,1.34,0,0,0-1,.38,1.16,1.16,0,0,0-.4.87,1.12,1.12,0,0,0,.27.71,13.09,13.09,0,0,0,2.45,1.92A10.1,10.1,0,0,1,183.1,41a3.74,3.74,0,0,1,.64,2.13,4.49,4.49,0,0,1-.53,2.09,3.74,3.74,0,0,1-1.5,1.57,4.3,4.3,0,0,1-2.15.55,7.44,7.44,0,0,1-2.45-.57,2,2,0,0,0-.56-.15q-.45,0-.75.68h-.45l-.22-4.59h.46a5.94,5.94,0,0,0,1.69,2.71,3.24,3.24,0,0,0,2,.9,1.48,1.48,0,0,0,1.07-.4,1.31,1.31,0,0,0,.42-1,1.69,1.69,0,0,0-.41-1.13,10.73,10.73,0,0,0-1.83-1.45,14.33,14.33,0,0,1-2.71-2.21,3.85,3.85,0,0,1-.9-2.47,4,4,0,0,1,1-2.67,3.66,3.66,0,0,1,2.95-1.2,4.3,4.3,0,0,1,2,.51,1.33,1.33,0,0,0,.6.21.69.69,0,0,0,.4-.1,2.59,2.59,0,0,0,.48-.58Z" transform="translate(0)"/><path d="M189.34,29.51v4.68h3v1.35h-3v7.89a6,6,0,0,0,.1,1.43,1,1,0,0,0,.36.52.81.81,0,0,0,.48.2q.89,0,1.68-1.35l.41.3a3.74,3.74,0,0,1-3.6,2.63,3.18,3.18,0,0,1-2.06-.68A3,3,0,0,1,185.65,45a12.88,12.88,0,0,1-.14-2.52v-6.9h-1.67V35.1a17.62,17.62,0,0,0,2.93-2.56,15.56,15.56,0,0,0,2.11-3Z" transform="translate(0)"/><path d="M197.5,34.19v2.9a9.36,9.36,0,0,1,2.23-2.63,3.3,3.3,0,0,1,1.85-.65,1.63,1.63,0,0,1,1.22.47,1.84,1.84,0,0,1,.46,1.33,2.09,2.09,0,0,1-.44,1.42,1.38,1.38,0,0,1-1.07.51,1.85,1.85,0,0,1-1.26-.46,7.85,7.85,0,0,0-.63-.52.6.6,0,0,0-.31-.08,1.15,1.15,0,0,0-.75.3,2.83,2.83,0,0,0-.85,1.33,9.29,9.29,0,0,0-.44,2.93v3.71a3.14,3.14,0,0,0,.1,1,1.09,1.09,0,0,0,.49.54,2.81,2.81,0,0,0,1.09.21V47h-6.9v-.49a1.51,1.51,0,0,0,1.13-.46,4.25,4.25,0,0,0,.29-2.06V36.9a5.31,5.31,0,0,0-.11-1.39,1.1,1.1,0,0,0-.4-.56,2.12,2.12,0,0,0-.92-.25v-.51Z" transform="translate(0)"/><path d="M210.28,45.09a6.74,6.74,0,0,1-4.2,2.06,2.48,2.48,0,0,1-1.82-.72,2.43,2.43,0,0,1-.72-1.8A3.52,3.52,0,0,1,204.8,42a23.81,23.81,0,0,1,5.48-3.11V37.61a6.24,6.24,0,0,0-.16-1.83,1.47,1.47,0,0,0-.59-.66,1.79,1.79,0,0,0-1-.28,2.52,2.52,0,0,0-1.46.4.7.7,0,0,0-.36.57,1.19,1.19,0,0,0,.38.71,1.75,1.75,0,0,1,.52,1.13,1.51,1.51,0,0,1-.5,1.14,1.82,1.82,0,0,1-1.31.47,2.08,2.08,0,0,1-1.44-.52,1.59,1.59,0,0,1-.58-1.22,2.83,2.83,0,0,1,.78-1.88,4.93,4.93,0,0,1,2.17-1.37,8.87,8.87,0,0,1,2.9-.48,4.79,4.79,0,0,1,2.88.77,3.63,3.63,0,0,1,1.37,1.67,10.86,10.86,0,0,1,.19,2.64v5a5.12,5.12,0,0,0,.07,1.1.66.66,0,0,0,.21.33.49.49,0,0,0,.31.11q.36,0,.72-.51l.41.33a5,5,0,0,1-1.42,1.47,3.07,3.07,0,0,1-1.66.46,2.59,2.59,0,0,1-1.71-.51A2.32,2.32,0,0,1,210.28,45.09Zm0-1V39.81a8,8,0,0,0-2.46,2.08,2.53,2.53,0,0,0-.53,1.49,1.57,1.57,0,0,0,.45,1.11,1.24,1.24,0,0,0,1,.37A2.63,2.63,0,0,0,210.28,44.09Z" transform="translate(0)"/><path d="M220.83,28.43V44.32a3.05,3.05,0,0,0,.31,1.73,1.71,1.71,0,0,0,1.23.43V47h-6.9v-.49a1.67,1.67,0,0,0,1.26-.51,3.05,3.05,0,0,0,.27-1.67V31.09a3,3,0,0,0-.31-1.72,1.69,1.69,0,0,0-1.22-.43v-.51Z" transform="translate(0)"/><path d="M227.19,34.19V44.32A3,3,0,0,0,227.5,46a1.7,1.7,0,0,0,1.23.43V47h-6.9v-.49a1.67,1.67,0,0,0,1.26-.49,3,3,0,0,0,.27-1.67V36.86a3,3,0,0,0-.31-1.73,1.69,1.69,0,0,0-1.22-.43v-.51ZM225.28,28a2.11,2.11,0,1,1-1.49.62A2,2,0,0,1,225.28,28Z" transform="translate(0)"/><path d="M235.64,45.09a6.74,6.74,0,0,1-4.2,2.06,2.48,2.48,0,0,1-1.82-.72,2.43,2.43,0,0,1-.72-1.8A3.52,3.52,0,0,1,230.16,42a23.82,23.82,0,0,1,5.48-3.11V37.61a6.24,6.24,0,0,0-.16-1.83,1.47,1.47,0,0,0-.59-.66,1.79,1.79,0,0,0-1-.28,2.52,2.52,0,0,0-1.46.4.7.7,0,0,0-.36.57,1.19,1.19,0,0,0,.38.71,1.75,1.75,0,0,1,.52,1.13,1.51,1.51,0,0,1-.5,1.14,1.82,1.82,0,0,1-1.31.47,2.08,2.08,0,0,1-1.44-.52,1.59,1.59,0,0,1-.58-1.22,2.83,2.83,0,0,1,.78-1.88,4.93,4.93,0,0,1,2.17-1.37,8.87,8.87,0,0,1,2.9-.48,4.79,4.79,0,0,1,2.88.77,3.63,3.63,0,0,1,1.37,1.67,10.84,10.84,0,0,1,.19,2.64v5a5.12,5.12,0,0,0,.07,1.1.66.66,0,0,0,.21.33.49.49,0,0,0,.31.11q.36,0,.72-.51l.41.33a5,5,0,0,1-1.42,1.47,3.06,3.06,0,0,1-1.66.46,2.59,2.59,0,0,1-1.71-.51A2.32,2.32,0,0,1,235.64,45.09Zm0-1V39.81a8,8,0,0,0-2.46,2.08,2.53,2.53,0,0,0-.53,1.49,1.57,1.57,0,0,0,.45,1.11,1.24,1.24,0,0,0,1,.37A2.62,2.62,0,0,0,235.64,44.09Z" transform="translate(0)"/><path d="M246.41,34.19v1.65a7.52,7.52,0,0,1,1.89-1.55,4,4,0,0,1,1.94-.49,3.1,3.1,0,0,1,2.06.69,3.31,3.31,0,0,1,1.09,1.72,13.25,13.25,0,0,1,.22,3v5a3.8,3.8,0,0,0,.27,1.84,1.56,1.56,0,0,0,1.11.46V47h-6.46v-.49a1.35,1.35,0,0,0,1-.6,3.93,3.93,0,0,0,.22-1.7V38.5a9.3,9.3,0,0,0-.12-2,1.21,1.21,0,0,0-.42-.64,1,1,0,0,0-.65-.23q-1.18,0-2.19,1.68v6.85a3.81,3.81,0,0,0,.27,1.82,1.36,1.36,0,0,0,1,.48V47h-6.47v-.49a1.59,1.59,0,0,0,1.15-.52,3.83,3.83,0,0,0,.23-1.78V37a3.67,3.67,0,0,0-.27-1.8,1.62,1.62,0,0,0-1.11-.46v-.51Z" transform="translate(0)"/><path d="M279.33,28v6.54h-.51A8.33,8.33,0,0,0,276,30.47a6.47,6.47,0,0,0-4-1.39,5.17,5.17,0,0,0-3.46,1.17,6.33,6.33,0,0,0-2,3.26A16.14,16.14,0,0,0,266,37.8a15.7,15.7,0,0,0,.63,4.68,5.31,5.31,0,0,0,2,3,5.82,5.82,0,0,0,3.33.94,6.87,6.87,0,0,0,1.37-.14,9.74,9.74,0,0,0,1.44-.42V42a4.1,4.1,0,0,0-.15-1.42A1.39,1.39,0,0,0,274,40a2.34,2.34,0,0,0-1.14-.26h-.48v-.51h9v.51A4,4,0,0,0,280,40a1.4,1.4,0,0,0-.62.7,3.87,3.87,0,0,0-.08,1.3v3.86a18.23,18.23,0,0,1-3.7,1.2,19.37,19.37,0,0,1-4,.4,11.58,11.58,0,0,1-4.38-.72,10.94,10.94,0,0,1-3.08-1.89,8.9,8.9,0,0,1-2.08-2.63,9.21,9.21,0,0,1-1-4.22A9.52,9.52,0,0,1,264,30.93a10.13,10.13,0,0,1,7.4-2.93,12.92,12.92,0,0,1,2.49.22,12.76,12.76,0,0,1,2,.62,8.1,8.1,0,0,0,1.59.51,1.07,1.07,0,0,0,.71-.28,2.5,2.5,0,0,0,.6-1.06Z" transform="translate(0)"/><path d="M287.36,33.81a5.92,5.92,0,0,1,3.1.86,5.51,5.51,0,0,1,2.18,2.45,8.06,8.06,0,0,1,.75,3.47A7.35,7.35,0,0,1,292,45.14a5.45,5.45,0,0,1-4.61,2.21,5.28,5.28,0,0,1-4.44-2,7.47,7.47,0,0,1-1.56-4.69A7.57,7.57,0,0,1,283,35.85,5.24,5.24,0,0,1,287.36,33.81Zm0,1a1.59,1.59,0,0,0-1.2.53,3.67,3.67,0,0,0-.66,2.08q-.16,1.55-.16,4.31a18.35,18.35,0,0,0,.19,2.73,2.64,2.64,0,0,0,.64,1.48,1.53,1.53,0,0,0,1.12.51,1.55,1.55,0,0,0,1-.34,2.29,2.29,0,0,0,.71-1.3,31.53,31.53,0,0,0,.27-5.25,13,13,0,0,0-.26-3.19,2.44,2.44,0,0,0-.77-1.26,1.43,1.43,0,0,0-.87-.33Z" transform="translate(0)"/><path d="M299.7,47.36l-4.31-9.91a9.76,9.76,0,0,0-1.22-2.27,1.62,1.62,0,0,0-.93-.48v-.51H300v.51a1.24,1.24,0,0,0-.87.23.93.93,0,0,0-.33.71,6.11,6.11,0,0,0,.6,1.9l2.11,4.8,1.68-4.14a8,8,0,0,0,.72-2.52.87.87,0,0,0-.31-.69,1.78,1.78,0,0,0-1.09-.29v-.51h4.18v.51a1.7,1.7,0,0,0-1,.45,8.38,8.38,0,0,0-1.15,2.17l-4.27,10Z" transform="translate(0)"/><path d="M317.36,40.12h-7a6.61,6.61,0,0,0,1.35,4A2.86,2.86,0,0,0,314,45.25a2.58,2.58,0,0,0,1.49-.46,5.79,5.79,0,0,0,1.44-1.65l.46.3a7.73,7.73,0,0,1-2.3,3,5,5,0,0,1-2.91.88,4.85,4.85,0,0,1-4.31-2.19,7.71,7.71,0,0,1-1.18-4.37,7.26,7.26,0,0,1,1.73-5.09,5.33,5.33,0,0,1,4-1.89,4.39,4.39,0,0,1,3.37,1.59A7.28,7.28,0,0,1,317.36,40.12ZM314,39.21a12.62,12.62,0,0,0-.24-3A2.48,2.48,0,0,0,313,35a1.14,1.14,0,0,0-.77-.25,1.34,1.34,0,0,0-1.16.7,6,6,0,0,0-.81,3.34v.48Z" transform="translate(0)"/><path d="M322.87,34.19v2.9a9.36,9.36,0,0,1,2.23-2.63,3.3,3.3,0,0,1,1.85-.65,1.63,1.63,0,0,1,1.22.47,1.83,1.83,0,0,1,.46,1.33,2.09,2.09,0,0,1-.44,1.42,1.38,1.38,0,0,1-1.07.51,1.85,1.85,0,0,1-1.26-.46,7.85,7.85,0,0,0-.63-.52.6.6,0,0,0-.31-.08,1.15,1.15,0,0,0-.75.3,2.83,2.83,0,0,0-.85,1.33,9.29,9.29,0,0,0-.44,2.93v3.71a3.16,3.16,0,0,0,.1,1,1.09,1.09,0,0,0,.49.54,2.81,2.81,0,0,0,1.09.21V47h-6.9v-.49a1.51,1.51,0,0,0,1.13-.46,4.25,4.25,0,0,0,.24-2V36.9a5.28,5.28,0,0,0-.11-1.39,1.1,1.1,0,0,0-.4-.56,2.12,2.12,0,0,0-.92-.25v-.51Z" transform="translate(0)"/><path d="M333.81,34.19v1.65a7.52,7.52,0,0,1,1.89-1.55,4,4,0,0,1,1.94-.49,3.1,3.1,0,0,1,2.06.69,3.31,3.31,0,0,1,1.09,1.72,13.25,13.25,0,0,1,.22,3v5a3.8,3.8,0,0,0,.27,1.84,1.56,1.56,0,0,0,1.11.46V47h-6.46v-.49a1.35,1.35,0,0,0,1-.6,3.93,3.93,0,0,0,.22-1.7V38.5a9.3,9.3,0,0,0-.12-2,1.21,1.21,0,0,0-.42-.64,1,1,0,0,0-.65-.23q-1.18,0-2.19,1.68v6.85A3.81,3.81,0,0,0,334,46a1.36,1.36,0,0,0,1,.48V47h-6.47v-.49a1.59,1.59,0,0,0,1.15-.52,3.83,3.83,0,0,0,.23-1.78V37a3.67,3.67,0,0,0-.27-1.8,1.62,1.62,0,0,0-1.11-.46v-.51Z" transform="translate(0)"/><path d="M348,34.19v1.68a7.35,7.35,0,0,1,2-1.6,4.25,4.25,0,0,1,2-.46,3.55,3.55,0,0,1,2.06.57,3.62,3.62,0,0,1,1.29,1.75,8.14,8.14,0,0,1,2.1-1.78,4.33,4.33,0,0,1,2.1-.55,3.37,3.37,0,0,1,2.11.61,3.16,3.16,0,0,1,1,1.59,10.44,10.44,0,0,1,.31,3v5.24a3.75,3.75,0,0,0,.27,1.83,1.62,1.62,0,0,0,1.11.46V47h-6.6v-.49a1.47,1.47,0,0,0,1.15-.6,3.63,3.63,0,0,0,.25-1.7v-5.5a10.23,10.23,0,0,0-.14-2.17,1.3,1.3,0,0,0-.43-.69,1.1,1.1,0,0,0-.69-.23,2,2,0,0,0-1.19.43,5.5,5.5,0,0,0-1.22,1.29V44.2a3.9,3.9,0,0,0,.23,1.74,1.41,1.41,0,0,0,1.2.56V47h-6.62v-.49a1.46,1.46,0,0,0,.84-.27,1.14,1.14,0,0,0,.41-.57,6.31,6.31,0,0,0,.1-1.46v-5.5a10,10,0,0,0-.14-2.17,1.33,1.33,0,0,0-.46-.68,1.11,1.11,0,0,0-.69-.25,1.82,1.82,0,0,0-1,.29A5.58,5.58,0,0,0,348,37.32v6.86a3.89,3.89,0,0,0,.3,1.82,1.38,1.38,0,0,0,1.11.51V47h-6.59v-.49A1.59,1.59,0,0,0,344,46a3.83,3.83,0,0,0,.23-1.78V37a3.67,3.67,0,0,0-.27-1.8,1.62,1.62,0,0,0-1.11-.46v-.51Z" transform="translate(0)"/><path d="M375.51,40.12h-7a6.61,6.61,0,0,0,1.35,4,2.86,2.86,0,0,0,2.27,1.13,2.58,2.58,0,0,0,1.49-.46A5.79,5.79,0,0,0,375,43.17l.46.3a7.73,7.73,0,0,1-2.3,3,5,5,0,0,1-2.91.88A4.85,4.85,0,0,1,366,45.17a7.71,7.71,0,0,1-1.18-4.37,7.26,7.26,0,0,1,1.73-5.09,5.33,5.33,0,0,1,4-1.89A4.39,4.39,0,0,1,374,35.41,7.28,7.28,0,0,1,375.51,40.12Zm-3.36-.92a12.62,12.62,0,0,0-.24-3,2.48,2.48,0,0,0-.75-1.24,1.14,1.14,0,0,0-.77-.25,1.34,1.34,0,0,0-1.16.7,6,6,0,0,0-.81,3.34v.48Z" transform="translate(0)"/><path d="M380.94,34.19v1.65a7.52,7.52,0,0,1,1.89-1.55,4,4,0,0,1,1.94-.49,3.1,3.1,0,0,1,2.06.69,3.31,3.31,0,0,1,1.09,1.72,13.25,13.25,0,0,1,.22,3v5a3.8,3.8,0,0,0,.27,1.84,1.56,1.56,0,0,0,1.11.46V47H383v-.49a1.35,1.35,0,0,0,1-.6,3.93,3.93,0,0,0,.22-1.7V38.5a9.3,9.3,0,0,0-.12-2,1.21,1.21,0,0,0-.42-.64,1,1,0,0,0-.65-.23q-1.18,0-2.19,1.68v6.85a3.81,3.81,0,0,0,.27,1.82,1.36,1.36,0,0,0,1,.48V47h-6.41v-.49a1.59,1.59,0,0,0,1.15-.52,3.83,3.83,0,0,0,.23-1.78V37a3.67,3.67,0,0,0-.27-1.8,1.62,1.62,0,0,0-1.11-.46v-.51Z" transform="translate(0)"/><path d="M395,29.51v4.68h3v1.35h-3v7.89a6,6,0,0,0,.1,1.43,1,1,0,0,0,.36.52.81.81,0,0,0,.48.2q.89,0,1.68-1.35l.41.3a3.74,3.74,0,0,1-3.6,2.63,3.18,3.18,0,0,1-2.06-.68A3,3,0,0,1,391.27,45a12.92,12.92,0,0,1-.14-2.52v-6.9h-1.67V35.1a17.62,17.62,0,0,0,2.93-2.56,15.56,15.56,0,0,0,2.11-3Z" transform="translate(0)"/><path d="M141.18,87v-.5h.57a2.3,2.3,0,0,0,1.15-.23,1.45,1.45,0,0,0,.59-.64,6.07,6.07,0,0,0,.11-1.6V72.7a5.65,5.65,0,0,0-.14-1.65,1.27,1.27,0,0,0-.56-.58,2.27,2.27,0,0,0-1.15-.25h-.57v-.47h7.71a12.34,12.34,0,0,1,5,.84,7.34,7.34,0,0,1,3.48,3.11,9.91,9.91,0,0,1,.6,8.05,7.69,7.69,0,0,1-1.51,2.53,7.41,7.41,0,0,1-2.14,1.6,11.44,11.44,0,0,1-3,.93,13.94,13.94,0,0,1-2.44.15Zm6.56-16.24V84.17a4.72,4.72,0,0,0,.1,1.31.72.72,0,0,0,.34.37,2.08,2.08,0,0,0,1,.19,3.84,3.84,0,0,0,3.24-1.45q1.52-2,1.52-6.07a11.43,11.43,0,0,0-1-5.29,4.44,4.44,0,0,0-2.12-2.11,8.26,8.26,0,0,0-3.07-.38Z" transform="translate(0)"/><path d="M169.25,80.61h-6.52a6.14,6.14,0,0,0,1.3,3.74,2.65,2.65,0,0,0,2.11,1.05,2.4,2.4,0,0,0,1.38-.42,5.39,5.39,0,0,0,1.33-1.53l.43.28a7.17,7.17,0,0,1-2.13,2.79,4.59,4.59,0,0,1-2.7.82,4.5,4.5,0,0,1-4-2,7.16,7.16,0,0,1-1.09-4.06A6.74,6.74,0,0,1,161,76.55a5,5,0,0,1,3.76-1.76,4.08,4.08,0,0,1,3.13,1.48A6.76,6.76,0,0,1,169.25,80.61Zm-3.12-.85a11.71,11.71,0,0,0-.22-2.81,2.3,2.3,0,0,0-.69-1.16,1,1,0,0,0-.71-.23,1.25,1.25,0,0,0-1.08.65,5.55,5.55,0,0,0-.75,3.1v.44Z" transform="translate(0)"/><path d="M174,85.77v4.42a3.53,3.53,0,0,0,.15,1.24.94.94,0,0,0,.45.48,3.07,3.07,0,0,0,1.19.15v.47H169v-.47a1.58,1.58,0,0,0,1.17-.44,2.73,2.73,0,0,0,.25-1.51V77.58a2.83,2.83,0,0,0-.29-1.61,1.57,1.57,0,0,0-1.13-.4V75.1h5v1.56a4.53,4.53,0,0,1,1.27-1.32,3.66,3.66,0,0,1,2-.6,3.81,3.81,0,0,1,2.38.83,5.1,5.1,0,0,1,1.63,2.28,8.65,8.65,0,0,1,.56,3.13,9,9,0,0,1-.58,3.29,4.84,4.84,0,0,1-1.68,2.27,4.13,4.13,0,0,1-2.44.78,4,4,0,0,1-1.83-.43A4.79,4.79,0,0,1,174,85.77Zm0-1.28A3,3,0,0,0,176.36,86a1.3,1.3,0,0,0,1.13-.72,8.52,8.52,0,0,0,.66-4.06,8.47,8.47,0,0,0-.72-4.2,1.48,1.48,0,0,0-1.29-.75q-1.28,0-2.11,1.85Z" transform="translate(0)"/><path d="M189.14,85.22a6.26,6.26,0,0,1-3.9,1.92,2.3,2.3,0,0,1-1.69-.67,2.26,2.26,0,0,1-.67-1.67A3.27,3.27,0,0,1,184,82.36a22,22,0,0,1,5.09-2.89V78.28a5.79,5.79,0,0,0-.15-1.7,1.37,1.37,0,0,0-.55-.61,1.66,1.66,0,0,0-.91-.26,2.34,2.34,0,0,0-1.36.37.65.65,0,0,0-.33.53,1.11,1.11,0,0,0,.36.66,1.63,1.63,0,0,1,.48,1.05,1.41,1.41,0,0,1-.46,1.06,1.7,1.7,0,0,1-1.21.44,1.93,1.93,0,0,1-1.34-.48,1.47,1.47,0,0,1-.54-1.13,2.63,2.63,0,0,1,.72-1.75,4.57,4.57,0,0,1,2-1.28,8.24,8.24,0,0,1,2.69-.44,4.45,4.45,0,0,1,2.67.72A3.37,3.37,0,0,1,192.51,77a10.07,10.07,0,0,1,.18,2.45v4.61a4.77,4.77,0,0,0,.06,1,.62.62,0,0,0,.19.31.45.45,0,0,0,.29.1q.33,0,.67-.47l.38.3A4.63,4.63,0,0,1,193,86.66a2.84,2.84,0,0,1-1.54.43,2.4,2.4,0,0,1-1.59-.48A2.15,2.15,0,0,1,189.14,85.22Zm0-.93v-4a7.42,7.42,0,0,0-2.29,1.93,2.35,2.35,0,0,0-.5,1.38,1.45,1.45,0,0,0,.42,1,1.15,1.15,0,0,0,.89.34A2.44,2.44,0,0,0,189.14,84.29Z" transform="translate(0)"/><path d="M199.22,75.1v2.69a8.68,8.68,0,0,1,2.07-2.44,3.06,3.06,0,0,1,1.71-.6,1.51,1.51,0,0,1,1.14.44,1.71,1.71,0,0,1,.43,1.24,1.94,1.94,0,0,1-.41,1.32,1.28,1.28,0,0,1-1,.47,1.72,1.72,0,0,1-1.17-.43,7.15,7.15,0,0,0-.58-.48.56.56,0,0,0-.29-.08,1.06,1.06,0,0,0-.7.28,2.63,2.63,0,0,0-.79,1.23,8.63,8.63,0,0,0-.41,2.72V84.9a2.92,2.92,0,0,0,.09.93,1,1,0,0,0,.45.5,2.62,2.62,0,0,0,1,.2V87h-6.41v-.46a1.4,1.4,0,0,0,1-.42,4,4,0,0,0,.27-1.91V77.62a4.91,4.91,0,0,0-.1-1.29,1,1,0,0,0-.37-.52,2,2,0,0,0-.85-.23V75.1Z" transform="translate(0)"/><path d="M209.24,70.76V75.1H212v1.26h-2.82v7.33a5.58,5.58,0,0,0,.1,1.33,1,1,0,0,0,.34.48.75.75,0,0,0,.44.18q.83,0,1.56-1.26l.38.28a3.47,3.47,0,0,1-3.34,2.44,2.94,2.94,0,0,1-1.91-.63,2.77,2.77,0,0,1-1-1.4,12,12,0,0,1-.13-2.34V76.36H204.1v-.44a16.43,16.43,0,0,0,2.72-2.37,14.47,14.47,0,0,0,2-2.78Z" transform="translate(0)"/><path d="M216.82,75.1v1.56a6.8,6.8,0,0,1,1.81-1.49,3.93,3.93,0,0,1,1.82-.43,3.3,3.3,0,0,1,1.92.53,3.35,3.35,0,0,1,1.19,1.63,7.52,7.52,0,0,1,1.95-1.65,4,4,0,0,1,1.95-.51,3.13,3.13,0,0,1,2,.56,3,3,0,0,1,1,1.44,9.73,9.73,0,0,1,.29,2.77v4.86a3.47,3.47,0,0,0,.25,1.7,1.5,1.5,0,0,0,1,.43V87h-6.13v-.46a1.36,1.36,0,0,0,1.06-.54,3.37,3.37,0,0,0,.23-1.57v-5.1a9.45,9.45,0,0,0-.13-2,1.2,1.2,0,0,0-.4-.64,1,1,0,0,0-.64-.21,1.9,1.9,0,0,0-1.1.4,5.15,5.15,0,0,0-1.13,1.2v6.37a3.64,3.64,0,0,0,.22,1.61,1.32,1.32,0,0,0,1.12.52V87H219v-.46a1.36,1.36,0,0,0,.78-.25,1.07,1.07,0,0,0,.38-.53,5.86,5.86,0,0,0,.1-1.35v-5.1a9.27,9.27,0,0,0-.13-2,1.24,1.24,0,0,0-.43-.63,1,1,0,0,0-.64-.23,1.69,1.69,0,0,0-.93.27A5.19,5.19,0,0,0,216.82,78v6.37A3.61,3.61,0,0,0,217,86a1.29,1.29,0,0,0,1,.48V87h-6.12v-.46A1.48,1.48,0,0,0,213,86a3.56,3.56,0,0,0,.22-1.65v-6.7A3.41,3.41,0,0,0,213,76a1.51,1.51,0,0,0-1-.43V75.1Z" transform="translate(0)"/><path d="M242.3,80.61h-6.51A6.14,6.14,0,0,0,237,84.35a2.65,2.65,0,0,0,2.11,1.05,2.4,2.4,0,0,0,1.38-.42,5.37,5.37,0,0,0,1.33-1.53l.43.28a7.18,7.18,0,0,1-2.13,2.79,4.58,4.58,0,0,1-2.7.82,4.5,4.5,0,0,1-4-2,7.17,7.17,0,0,1-1.09-4.06A6.74,6.74,0,0,1,234,76.51a5,5,0,0,1,3.76-1.76,4.08,4.08,0,0,1,3.13,1.48A6.75,6.75,0,0,1,242.3,80.61Zm-3.12-.85A11.75,11.75,0,0,0,239,77a2.3,2.3,0,0,0-.69-1.16,1.06,1.06,0,0,0-.71-.23,1.25,1.25,0,0,0-1.08.65,5.56,5.56,0,0,0-.75,3.1v.44Z" transform="translate(0)"/><path d="M247.34,75.1v1.54a7,7,0,0,1,1.75-1.44,3.74,3.74,0,0,1,1.8-.45,2.88,2.88,0,0,1,1.92.64,3.07,3.07,0,0,1,1,1.59,12.27,12.27,0,0,1,.2,2.78v4.62a3.52,3.52,0,0,0,.25,1.71,1.45,1.45,0,0,0,1,.42V87h-6v-.46a1.26,1.26,0,0,0,1-.56,3.64,3.64,0,0,0,.2-1.57V79.1a8.64,8.64,0,0,0-.11-1.84,1.12,1.12,0,0,0-.39-.59,1,1,0,0,0-.6-.21q-1.09,0-2,1.56v6.36a3.55,3.55,0,0,0,.25,1.69,1.27,1.27,0,0,0,.92.44V87h-6v-.46a1.48,1.48,0,0,0,1.07-.48,3.56,3.56,0,0,0,.22-1.65v-6.7a3.42,3.42,0,0,0-.25-1.68,1.51,1.51,0,0,0-1-.43v-.5Z" transform="translate(0)"/><path d="M260.36,70.76V75.1h2.82v1.26h-2.82v7.33a5.52,5.52,0,0,0,.1,1.33.94.94,0,0,0,.34.48.75.75,0,0,0,.44.18q.82,0,1.56-1.26l.38.28a3.47,3.47,0,0,1-3.34,2.44,3,3,0,0,1-1.91-.63,2.78,2.78,0,0,1-1-1.4,11.94,11.94,0,0,1-.13-2.34V76.36h-1.55v-.44A16.38,16.38,0,0,0,258,73.55a14.43,14.43,0,0,0,2-2.78Z" transform="translate(0)"/><path d="M273.81,74.75a5.5,5.5,0,0,1,2.88.8,5.11,5.11,0,0,1,2,2.27,7.48,7.48,0,0,1,.69,3.22,6.83,6.83,0,0,1-1.28,4.23,5.06,5.06,0,0,1-4.28,2.06,4.9,4.9,0,0,1-4.13-1.88,7.34,7.34,0,0,1,0-8.8A4.86,4.86,0,0,1,273.81,74.75Zm0,.9a1.48,1.48,0,0,0-1.11.49,3.42,3.42,0,0,0-.61,1.93q-.15,1.44-.15,4a17.13,17.13,0,0,0,.18,2.54,2.45,2.45,0,0,0,.6,1.37,1.41,1.41,0,0,0,1,.47,1.44,1.44,0,0,0,1-.32,2.14,2.14,0,0,0,.66-1.21,29.36,29.36,0,0,0,.25-4.87,12,12,0,0,0-.24-3,2.27,2.27,0,0,0-.71-1.17,1.33,1.33,0,0,0-.82-.23Z" transform="translate(0)"/><path d="M285.11,76.35v8.24a2.74,2.74,0,0,0,.25,1.5,1.83,1.83,0,0,0,1.5.43V87h-7v-.46a2.79,2.79,0,0,0,1.14-.18.94.94,0,0,0,.46-.48,4,4,0,0,0,.13-1.27V76.35h-1.73V75.1h1.73V73.63a4,4,0,0,1,1.34-3,5.18,5.18,0,0,1,3.63-1.22,3.77,3.77,0,0,1,2.32.58,1.64,1.64,0,0,1,.76,1.29,1.29,1.29,0,0,1-.47,1,1.8,1.8,0,0,1-1.24.42,1.53,1.53,0,0,1-1-.34,1,1,0,0,1-.39-.76,2.89,2.89,0,0,1,.08-.47,1.76,1.76,0,0,0,0-.41.48.48,0,0,0-.15-.39.7.7,0,0,0-.5-.19.77.77,0,0,0-.62.3,1.55,1.55,0,0,0-.25,1V75.1h1.75v1.24Z" transform="translate(0)"/><path d="M314.83,69.76v.47a2.79,2.79,0,0,0-1.68,1,15.41,15.41,0,0,0-1.59,3l-5.93,13.15h-.42l-5.9-13.69a17.53,17.53,0,0,0-1.43-2.91,2,2,0,0,0-1.37-.55v-.47h8.25v.47h-.28a2.91,2.91,0,0,0-1.52.28.62.62,0,0,0-.29.56,1.78,1.78,0,0,0,.1.54q.1.31.69,1.67l3.67,8.57,3.4-7.63q.42-.91.75-1.85a2.9,2.9,0,0,0,.14-.8,1.15,1.15,0,0,0-.2-.67,1.25,1.25,0,0,0-.6-.44,4,4,0,0,0-1.45-.22v-.47Z" transform="translate(0)"/><path d="M322.34,80.61h-6.51a6.14,6.14,0,0,0,1.26,3.73,2.65,2.65,0,0,0,2.11,1.05,2.4,2.4,0,0,0,1.38-.42,5.37,5.37,0,0,0,1.33-1.53l.43.28a7.18,7.18,0,0,1-2.13,2.79,4.58,4.58,0,0,1-2.7.82,4.5,4.5,0,0,1-4-2,7.17,7.17,0,0,1-1.09-4.06A6.74,6.74,0,0,1,314,76.51a5,5,0,0,1,3.76-1.76,4.08,4.08,0,0,1,3.13,1.48A6.75,6.75,0,0,1,322.34,80.61Zm-3.12-.85A11.75,11.75,0,0,0,319,77a2.3,2.3,0,0,0-.69-1.16,1.06,1.06,0,0,0-.71-.23,1.25,1.25,0,0,0-1.08.65,5.56,5.56,0,0,0-.75,3.1v.44Z" transform="translate(0)"/><path d="M327.24,70.76V75.1H330v1.26h-2.82v7.33a5.52,5.52,0,0,0,.1,1.33.94.94,0,0,0,.34.48.75.75,0,0,0,.44.18q.82,0,1.56-1.26l.38.28a3.47,3.47,0,0,1-3.34,2.44,3,3,0,0,1-1.91-.63,2.78,2.78,0,0,1-1-1.4,11.94,11.94,0,0,1-.13-2.34V76.36h-1.52v-.44a16.38,16.38,0,0,0,2.72-2.37,14.43,14.43,0,0,0,2-2.78Z" transform="translate(0)"/><path d="M339.94,80.61h-6.51a6.14,6.14,0,0,0,1.26,3.73,2.65,2.65,0,0,0,2.11,1.05,2.4,2.4,0,0,0,1.38-.42,5.37,5.37,0,0,0,1.33-1.53l.43.28a7.18,7.18,0,0,1-2.13,2.79,4.58,4.58,0,0,1-2.7.82,4.5,4.5,0,0,1-4-2A7.17,7.17,0,0,1,330,81.24a6.74,6.74,0,0,1,1.61-4.73,5,5,0,0,1,3.76-1.76,4.08,4.08,0,0,1,3.13,1.48A6.75,6.75,0,0,1,339.94,80.61Zm-3.12-.85A11.75,11.75,0,0,0,336.6,77a2.3,2.3,0,0,0-.69-1.16,1.06,1.06,0,0,0-.71-.23,1.25,1.25,0,0,0-1.08.65,5.56,5.56,0,0,0-.75,3.1v.44Z" transform="translate(0)"/><path d="M345,75.1v2.69a8.68,8.68,0,0,1,2.07-2.44,3.07,3.07,0,0,1,1.71-.6,1.51,1.51,0,0,1,1.14.44,1.7,1.7,0,0,1,.43,1.24,1.94,1.94,0,0,1-.41,1.32,1.28,1.28,0,0,1-1,.47,1.72,1.72,0,0,1-1.17-.43,7.06,7.06,0,0,0-.58-.48.56.56,0,0,0-.29-.08,1.06,1.06,0,0,0-.7.28,2.64,2.64,0,0,0-.79,1.23,8.64,8.64,0,0,0-.41,2.72V84.9a2.91,2.91,0,0,0,.09.93,1,1,0,0,0,.45.5,2.63,2.63,0,0,0,1,.2V87h-6.41v-.46a1.41,1.41,0,0,0,1-.42,4,4,0,0,0,.27-1.91V77.62a4.93,4.93,0,0,0-.1-1.29,1,1,0,0,0-.37-.52,2,2,0,0,0-.85-.23V75.1Z" transform="translate(0)"/><path d="M356.91,85.22a6.26,6.26,0,0,1-3.9,1.92,2.3,2.3,0,0,1-1.69-.67,2.26,2.26,0,0,1-.67-1.67,3.27,3.27,0,0,1,1.17-2.44,22,22,0,0,1,5.09-2.89V78.28a5.82,5.82,0,0,0-.15-1.7,1.37,1.37,0,0,0-.55-.61,1.66,1.66,0,0,0-.91-.26,2.34,2.34,0,0,0-1.36.37.65.65,0,0,0-.33.53,1.11,1.11,0,0,0,.36.66,1.63,1.63,0,0,1,.48,1.05,1.41,1.41,0,0,1-.46,1.06,1.7,1.7,0,0,1-1.21.44,1.93,1.93,0,0,1-1.34-.48,1.47,1.47,0,0,1-.54-1.13,2.63,2.63,0,0,1,.72-1.75,4.57,4.57,0,0,1,2-1.28,8.24,8.24,0,0,1,2.69-.44,4.46,4.46,0,0,1,2.67.72,3.37,3.37,0,0,1,1.3,1.54,10.1,10.1,0,0,1,.18,2.45v4.61a4.81,4.81,0,0,0,.06,1,.61.61,0,0,0,.19.31.45.45,0,0,0,.29.1q.33,0,.67-.47l.38.3a4.62,4.62,0,0,1-1.31,1.36,2.84,2.84,0,0,1-1.54.43,2.4,2.4,0,0,1-1.59-.48A2.15,2.15,0,0,1,356.91,85.22Zm0-.93v-4a7.4,7.4,0,0,0-2.29,1.93,2.35,2.35,0,0,0-.5,1.38,1.45,1.45,0,0,0,.42,1,1.15,1.15,0,0,0,.89.34A2.44,2.44,0,0,0,356.91,84.29Z" transform="translate(0)"/><path d="M366.91,75.1v1.54a7,7,0,0,1,1.75-1.44,3.74,3.74,0,0,1,1.8-.45,2.88,2.88,0,0,1,1.92.64,3.07,3.07,0,0,1,1,1.59,12.27,12.27,0,0,1,.2,2.78v4.62a3.52,3.52,0,0,0,.25,1.71,1.45,1.45,0,0,0,1,.42V87h-6v-.46a1.26,1.26,0,0,0,1-.56,3.64,3.64,0,0,0,.2-1.57V79.1a8.64,8.64,0,0,0-.11-1.84,1.12,1.12,0,0,0-.39-.59,1,1,0,0,0-.6-.21q-1.09,0-2,1.56v6.36a3.55,3.55,0,0,0,.25,1.69,1.27,1.27,0,0,0,.92.44V87h-6v-.46a1.48,1.48,0,0,0,1.07-.48,3.56,3.56,0,0,0,.22-1.65v-6.7a3.42,3.42,0,0,0-.25-1.68,1.51,1.51,0,0,0-1-.43v-.5Z" transform="translate(0)"/><path d="M382.73,74.77l.19,4h-.43a6.36,6.36,0,0,0-1.61-2.46,2.66,2.66,0,0,0-1.66-.66,1.25,1.25,0,0,0-.89.35,1.08,1.08,0,0,0-.37.81,1,1,0,0,0,.25.66,12.13,12.13,0,0,0,2.27,1.78,9.39,9.39,0,0,1,2.46,2.15,3.48,3.48,0,0,1,.59,2,4.17,4.17,0,0,1-.5,1.94,3.48,3.48,0,0,1-1.4,1.46,4,4,0,0,1-2,.51,6.91,6.91,0,0,1-2.27-.53,1.91,1.91,0,0,0-.52-.14q-.42,0-.7.63h-.42l-.2-4.27h.43a5.52,5.52,0,0,0,1.57,2.51,3,3,0,0,0,1.88.84,1.37,1.37,0,0,0,1-.37,1.21,1.21,0,0,0,.39-.91,1.57,1.57,0,0,0-.36-1.07,10,10,0,0,0-1.7-1.35,13.28,13.28,0,0,1-2.51-2.06,3.58,3.58,0,0,1-.84-2.3,3.73,3.73,0,0,1,1-2.48,3.39,3.39,0,0,1,2.7-1.06,4,4,0,0,1,1.87.47,1.24,1.24,0,0,0,.56.19.63.63,0,0,0,.37-.1,2.37,2.37,0,0,0,.44-.54Z" transform="translate(0)"/><path d="M385.55,77.82v-.56a4.68,4.68,0,0,0,2.14-1.64,3.71,3.71,0,0,0,.67-2.08.5.5,0,0,0-.09-.32.24.24,0,0,0-.18-.1.52.52,0,0,0-.23.09,1.78,1.78,0,0,1-.91.22,1.73,1.73,0,0,1-1.3-.58,1.93,1.93,0,0,1-.55-1.37,2,2,0,0,1,.63-1.48,2.09,2.09,0,0,1,1.54-.63,2.44,2.44,0,0,1,1.87.84,3.3,3.3,0,0,1,.77,2.32,5.1,5.1,0,0,1-1.1,3.22A6.32,6.32,0,0,1,385.55,77.82Z" transform="translate(0)"/><path d="M403.18,82.07H397.1l-.72,1.68a3.73,3.73,0,0,0-.36,1.38,1.15,1.15,0,0,0,.58,1.07,4.94,4.94,0,0,0,1.69.3V87h-5.73v-.5a2.57,2.57,0,0,0,1.52-.77,10.25,10.25,0,0,0,1.47-2.6l6.16-13.74h.24l6.21,14.12A8.62,8.62,0,0,0,409.62,86a2,2,0,0,0,1.22.46V87h-8.33v-.5h.34a2.61,2.61,0,0,0,1.41-.28.68.68,0,0,0,.28-.58,1.56,1.56,0,0,0-.08-.47,6.14,6.14,0,0,0-.38-1Zm-.43-.94-2.56-5.93-2.64,5.93Z" transform="translate(0)"/><path d="M415.92,76.35v8.24a2.74,2.74,0,0,0,.25,1.5,1.83,1.83,0,0,0,1.5.43V87h-7v-.46a2.79,2.79,0,0,0,1.14-.18.94.94,0,0,0,.46-.48,4,4,0,0,0,.13-1.27V76.35h-1.73V75.1h1.73V73.63a4,4,0,0,1,1.34-3,5.18,5.18,0,0,1,3.63-1.22,3.77,3.77,0,0,1,2.32.58,1.64,1.64,0,0,1,.76,1.29,1.29,1.29,0,0,1-.47,1,1.8,1.8,0,0,1-1.24.42,1.53,1.53,0,0,1-1-.34,1,1,0,0,1-.39-.76,2.89,2.89,0,0,1,.08-.47,1.76,1.76,0,0,0,0-.41.48.48,0,0,0-.15-.39.7.7,0,0,0-.5-.19.77.77,0,0,0-.62.3,1.55,1.55,0,0,0-.25,1V75.1h1.75v1.24Z" transform="translate(0)"/><path d="M423.28,76.35v8.24a2.74,2.74,0,0,0,.25,1.5,1.83,1.83,0,0,0,1.5.43V87h-7v-.46a2.79,2.79,0,0,0,1.14-.18.94.94,0,0,0,.46-.48,4,4,0,0,0,.13-1.27V76.35H418V75.1h1.73V73.63a4,4,0,0,1,1.34-3,5.18,5.18,0,0,1,3.63-1.22A3.77,3.77,0,0,1,427,70a1.64,1.64,0,0,1,.76,1.29,1.29,1.29,0,0,1-.47,1,1.8,1.8,0,0,1-1.24.42,1.53,1.53,0,0,1-1-.34,1,1,0,0,1-.39-.76,2.89,2.89,0,0,1,.08-.47,1.76,1.76,0,0,0,0-.41.48.48,0,0,0-.15-.39.7.7,0,0,0-.5-.19.77.77,0,0,0-.62.3,1.55,1.55,0,0,0-.25,1V75.1H425v1.24Z" transform="translate(0)"/><path d="M432,85.22a6.26,6.26,0,0,1-3.9,1.92,2.3,2.3,0,0,1-1.69-.67,2.26,2.26,0,0,1-.67-1.67,3.27,3.27,0,0,1,1.17-2.44A22,22,0,0,1,432,79.47V78.28a5.82,5.82,0,0,0-.15-1.7,1.37,1.37,0,0,0-.55-.61,1.66,1.66,0,0,0-.91-.26,2.34,2.34,0,0,0-1.36.37.65.65,0,0,0-.33.53,1.11,1.11,0,0,0,.36.66,1.63,1.63,0,0,1,.48,1.05,1.41,1.41,0,0,1-.46,1.06,1.7,1.7,0,0,1-1.21.44,1.93,1.93,0,0,1-1.34-.48,1.47,1.47,0,0,1-.54-1.13,2.63,2.63,0,0,1,.72-1.75,4.57,4.57,0,0,1,2-1.28,8.24,8.24,0,0,1,2.69-.44,4.46,4.46,0,0,1,2.67.72A3.37,3.37,0,0,1,435.34,77a10.1,10.1,0,0,1,.18,2.45v4.61a4.81,4.81,0,0,0,.06,1,.61.61,0,0,0,.19.31.45.45,0,0,0,.29.1q.33,0,.67-.47l.38.3a4.62,4.62,0,0,1-1.31,1.36,2.84,2.84,0,0,1-1.54.43,2.4,2.4,0,0,1-1.59-.48A2.15,2.15,0,0,1,432,85.22Zm0-.93v-4a7.4,7.4,0,0,0-2.29,1.93,2.35,2.35,0,0,0-.5,1.38,1.45,1.45,0,0,0,.42,1,1.15,1.15,0,0,0,.89.34A2.44,2.44,0,0,0,432,84.29Z" transform="translate(0)"/><path d="M441.76,75.1v9.41a2.84,2.84,0,0,0,.29,1.61,1.59,1.59,0,0,0,1.14.4V87h-6.41v-.46a1.55,1.55,0,0,0,1.17-.46,2.84,2.84,0,0,0,.25-1.55V77.58a2.84,2.84,0,0,0-.29-1.61,1.57,1.57,0,0,0-1.13-.4V75.1ZM440,69.35a2,2,0,1,1-1.38.58A1.89,1.89,0,0,1,440,69.35Z" transform="translate(0)"/><path d="M448,75.1v2.69a8.68,8.68,0,0,1,2-2.44,3.07,3.07,0,0,1,1.71-.6,1.51,1.51,0,0,1,1.14.44,1.7,1.7,0,0,1,.43,1.24,1.94,1.94,0,0,1-.41,1.32,1.28,1.28,0,0,1-1,.47,1.72,1.72,0,0,1-1.17-.43,7.06,7.06,0,0,0-.58-.48.56.56,0,0,0-.29-.08,1.06,1.06,0,0,0-.7.28,2.64,2.64,0,0,0-.79,1.23,8.64,8.64,0,0,0-.41,2.72V84.9a2.91,2.91,0,0,0,.09.93,1,1,0,0,0,.45.5,2.63,2.63,0,0,0,1,.2V87h-6.37v-.46a1.41,1.41,0,0,0,1-.42,4,4,0,0,0,.27-1.91V77.62a4.93,4.93,0,0,0-.1-1.29,1,1,0,0,0-.37-.52,2,2,0,0,0-.85-.23V75.1Z" transform="translate(0)"/><path d="M460.79,74.77l.19,4h-.43a6.36,6.36,0,0,0-1.61-2.46,2.66,2.66,0,0,0-1.66-.66,1.25,1.25,0,0,0-.89.35,1.08,1.08,0,0,0-.37.81,1,1,0,0,0,.25.66,12.13,12.13,0,0,0,2.27,1.78,9.39,9.39,0,0,1,2.49,2.2,3.48,3.48,0,0,1,.59,2,4.17,4.17,0,0,1-.5,1.94,3.48,3.48,0,0,1-1.4,1.46,4,4,0,0,1-2,.51,6.91,6.91,0,0,1-2.27-.53,1.91,1.91,0,0,0-.52-.14q-.42,0-.7.63h-.42l-.2-4.27H454a5.52,5.52,0,0,0,1.57,2.51,3,3,0,0,0,1.88.84,1.37,1.37,0,0,0,1-.37,1.21,1.21,0,0,0,.39-.91,1.57,1.57,0,0,0-.38-1.05,10,10,0,0,0-1.7-1.35,13.28,13.28,0,0,1-2.51-2.06,3.58,3.58,0,0,1-.84-2.3,3.73,3.73,0,0,1,1-2.48,3.39,3.39,0,0,1,2.74-1.11,4,4,0,0,1,1.87.47,1.24,1.24,0,0,0,.56.19.63.63,0,0,0,.37-.1,2.37,2.37,0,0,0,.44-.54Z" transform="translate(0)"/><path d="M43.49,75.74a.8.8,0,0,1-.33.33" transform="translate(0)"/><path d="M46.51,52.14a.64.64,0,1,0-.63-.65h0a.63.63,0,0,0,.62.64h0Z" transform="translate(0)"/><path d="M75.75,25.48H53V43.85c0,1.77.75,3.32,1.79,3.8l8.75,5.22A1.06,1.06,0,0,0,65,53h0l8.88-5.31c1-.48,1.79-2,1.79-3.8V25.47ZM60.57,30.79h-2v-4.7h2Zm-1.43,1.64.28-.29-.18-.32h.37l.22-.39.22.38h.37l-.17.32.28.29-.36.07v.4l-.34-.25-.34.25v-.4l-.36-.07Zm-5.49,5.85V33.82H56v4.46ZM54,31.82h.37l.22-.39.22.38h.37l-.17.32.28.29-.36.07v.4l-.34-.25-.34.25v-.4l-.36-.07.28-.29Zm2.7,4.54h.37l.23-.36.22.38h.37l-.17.32L58,37l-.36.07v.4l-.34-.25-.34.25V37h-.36l.28-.29-.17-.32Zm1.59-3.59c0-.12-.17-.15-.24-.15s-.3.35-.48.36-.23,0-.23-.14.27-.21.38-.31c-1.47,0-1.5.68-1.73.68-.39,0,.32-.71.53-.92-.3,0-.47-.42-.8-.6.15-.22.24-.13.43,0,0-.15.12-.34.46-.34.66,0,.47.64.58.64s0-.64.43-.64c.65,0,1.47,1.68.73,1.68-.32,0-.06-.24-.07-.28Zm-1.69-4.92.28-.29-.17-.32h.37l.22-.39.22.38h.37l-.17.32.28.29-.36.07v.4l-.34-.25-.34.25v-.4l-.36-.07ZM56,26.09v4.7H53.65v-4.7Zm4.53,24.27L55.13,47.1a3.9,3.9,0,0,1-1.48-3V38.91h6.92V50.36Zm-2-12.07V33.82h2v4.46Zm9,12.44L65,52.23h0a1.07,1.07,0,0,1-.66.23,1,1,0,0,1-.67-.24l-2.5-1.49V38.91h6.39V50.73Zm0-12.44H61.19V26.09h6.39V38.28Zm7.54,5.79a3.9,3.9,0,0,1-1.48,3l-5.44,3.25V38.91H75.1Zm0-5.79H68.19V26.09h6.92V38.28Z" transform="translate(0)"/><path d="M60.2,43.11c0-.07-.87.28-.63.25a2.48,2.48,0,0,1,.69-.93c0-.29-.41,0-.8.18,1.29-1.86.46-1.09-.26-1,1.16-1.25.85-1.22,0-.84.67-.53.81-1.16.71-1.35-.63.84-1.21.71-1.21,1.48a3.1,3.1,0,0,1-.45,1.63c-.34.37-.08-1.37-1-1.37-.28,0-1,0-1.16.32.18,0,.45.46.45.64s.17.69-.14.69-.66-.64-.66-.94V41.2A2.46,2.46,0,0,0,54,39.43c0,.51.67.63.67,1.29-.28,0-.69-.53-.69-.2s.43.39.43.67-.49-.1-.49.2.27.22.33.49a.38.38,0,0,0-.41.07.39.39,0,0,0,.21.29c-.07.06-.13.22-.13.65,0,1.45.91,2.12,1.58,2.12.47,0,.4-.33.46-.49,0,.25.25-.12.25.31s-.46.25-.46.64.73,0,.73.56a6.83,6.83,0,0,1-.09,1c0,.18.76-.25.72-.33.18.07.18.61.51.59s.27-.55.44-.6c-.1,0,.69.52.69.27,0-.68-.28-.39-.28-.85s.94-.35.79-.56-.21-.07-.31-.39c0,.06-.74-1.07.16-.49s1-1.43,1-1.53Z" transform="translate(0)"/><path d="M84.46,47.92a.66.66,0,1,0-.75-.66A.71.71,0,0,0,84.46,47.92Z" transform="translate(0)"/><path d="M81.44,49.72a.66.66,0,1,0-.75-.66A.71.71,0,0,0,81.44,49.72Z" transform="translate(0)"/><path d="M45.49,53.86a.66.66,0,1,0-.75-.66A.71.71,0,0,0,45.49,53.86Z" transform="translate(0)"/><path d="M47.82,54.06A.66.66,0,1,0,47,53.4a.71.71,0,0,0,.75.66Z" transform="translate(0)"/><path d="M112.54,22.69a4.68,4.68,0,0,1,.56,5c-.44,0-.36-.6-.44-.92-.79-1.48-1.43-3.36-.71-5,.52.08.32.72.6,1Z" transform="translate(0)"/><path d="M17.58,24.49a7.06,7.06,0,0,0,0,3.16c-.2.2-.16-.2-.36-.16-1.55-1.12-.83-3.32-1.23-4.87a.31.31,0,0,1,.4-.08,2.85,2.85,0,0,1,1.19,2Z" transform="translate(0)"/><path d="M115.95,24.61c.24.44-.2.88-.52,1.08a1,1,0,0,1-1-.44.92.92,0,0,1,.48-1,1,1,0,0,1,1,.4Z" transform="translate(0)"/><path d="M15.16,26.37a1.18,1.18,0,0,1-.51.88c-.24,0-.6,0-.75-.2a.74.74,0,0,1-.16-.84.92.92,0,0,1,.75-.36C14.77,26,15,26,15.16,26.37Z" transform="translate(0)"/><path d="M117.49,27a.77.77,0,0,1-1.07,1,1.07,1.07,0,0,1-.44-.68,1.21,1.21,0,0,1,.67-.72,1.27,1.27,0,0,1,.83.4Z" transform="translate(0)"/><path d="M115.23,27.09c.32.16.08.56,0,.8a.72.72,0,0,1-.83.4c-.2-.2-.43-.2-.51-.48a.88.88,0,0,1,.55-.92,1,1,0,0,1,.75.2Z" transform="translate(0)"/><path d="M112.34,27.69c0,.44,0,1-.48,1.08a.75.75,0,0,1-.91-.55h0a.94.94,0,0,1,.59-1,1.08,1.08,0,0,1,.79.44Z" transform="translate(0)"/><path d="M19.48,27.89c.12.4-.28.64-.51.84a.81.81,0,0,1-.79-.44c-.28-.28.08-.52.16-.76a.74.74,0,0,1,1.15.36Z" transform="translate(0)"/><path d="M17.1,28a.82.82,0,0,1-.43.76.72.72,0,0,1-.79-.36.68.68,0,0,1,.33-.9h0c.44-.16.71.24.87.52Z" transform="translate(0)"/><path d="M102.74,28.17a8.38,8.38,0,0,1,.79,2.83c-.16.76.12,1.76-.44,2.28-.56-.2-.59-.88-1-1.24-.71-1.4-.08-3,.16-4.4.32-.12.32.28.44.48Z" transform="translate(0)"/><path d="M15.24,28.65c.12.48-.24.72-.52,1a.93.93,0,0,1-1-.56,1,1,0,0,1,.52-1,1,1,0,0,1,1,.52Z" transform="translate(0)"/><path d="M109,29.8a5.77,5.77,0,0,1,.2,3.84l-.24.2a15.51,15.51,0,0,1-1.63-3.24,5.32,5.32,0,0,1,.48-2.28c.28-.2.44,0,.55.28a1.57,1.57,0,0,0,.63,1.2Z" transform="translate(0)"/><path d="M114,29.09a1,1,0,0,1-.6,1,.71.71,0,0,1-.9-.45h0a.86.86,0,0,1,.44-1C113.4,28.37,113.83,28.77,114,29.09Z" transform="translate(0)"/><path d="M17.14,30.32a.85.85,0,0,1-.6.76c-.32.24-.55-.16-.83-.28a1,1,0,0,1,0-.92c.12-.24.4-.24.64-.32C16.71,29.76,17,29.92,17.14,30.32Z" transform="translate(0)"/><path d="M18.88,30.13c.16.4-.28.6-.44.8-.48.16-.71-.2-.91-.48s.16-.64.44-.88C18.45,29.45,18.68,29.77,18.88,30.13Z" transform="translate(0)"/><path d="M115.11,30c0,.52-.83,1-.91,1.56a4,4,0,0,1-2.46,2.24,1.9,1.9,0,0,1-.91.52c-.08-.8.64-1.52,1.07-2.24A5.88,5.88,0,0,1,115.11,30Z" transform="translate(0)"/><path d="M16.35,31.68A14.47,14.47,0,0,0,18,33.56a.33.33,0,0,1-.25.39h0c-1.94-.12-3.25-2.12-4.2-3.52.12-.44.63-.08.91-.12C15,30.84,15.84,31,16.35,31.68Z" transform="translate(0)"/><path d="M115.67,32.24a5.13,5.13,0,0,1-2.46,4.32c-.44.16-.91.6-1.35.32a20,20,0,0,1,3.49-4.63Z" transform="translate(0)"/><path d="M108,33.4a1,1,0,0,1-.67,1.16,1.11,1.11,0,0,1-.91-.64A.83.83,0,0,1,107,33a.66.66,0,0,1,.48-.12c.24.08.36.28.56.48Z" transform="translate(0)"/><path d="M14.16,33.76a23.24,23.24,0,0,1,2.14,1.88c-.51.36-1.15,0-1.75,0-1.35-.48-2.26-1.64-3.65-2,0-.44.56-.28.83-.4a7.27,7.27,0,0,1,2.42.52Z" transform="translate(0)"/><path d="M56.65,21.94c-2.22-.88-3.69,1.44-6,1.16-.28.16-.2.44-.36.64s-.32,0-.44,0c-.12-1-.44-1.84-.56-2.76-.24-.4-.12-1-.32-1.36-1.27-3.48,3.09-.84,4-2.88.76-1.76-1.47-2-2.14-3.2V13c-.63-.64-1.31-.84-1.71-1.68a5.78,5.78,0,0,0,.12-3.08.42.42,0,0,0-.55-.44c-.75,1-1.31,1.88-2,2.88a21.35,21.35,0,0,0-2.34-1.76c-.6-.08-1.15-.68-1.82-.44a.55.55,0,0,0,.12.6A5.73,5.73,0,0,0,44.59,13l.12.6c-.71,1.64-.52,3.51-.71,5.27A29.26,29.26,0,0,1,35.39,31c-2.26,2.56-5,5-5.32,8.55-.12.56.08,1.24-.36,1.64a13.64,13.64,0,0,1-3.69-2c-1.82-1.28-4.44-1.12-5.63-3.44-.48-.92.12-1.84.55-2.52,1.35-1.28,1.15-3.56.44-5.11-.16,0-.2.16-.32.2-.12,2.36-2,4-1.27,6.59.16.76.56,1.24.75,2a6.16,6.16,0,0,1-.91-.2,9.93,9.93,0,0,0-2.6-.39c-1.82.84-4.32-.2-5.79,1.48-.24,0-.56.08-.48.44.87,0,1.7.24,2.58.2,1.39.24,2.3-.92,3.25-1.44h.24c.4-.4,1.07-.16,1.59-.24,2.5.28,4.44,1.48,6.5,2.72v.16c-.79.36-1.71.6-2.5,1a5.39,5.39,0,0,0-2.22,2.68c-.63,1,.2,1.88.6,2.72,0,.4.08.88.44,1,1.27-1.36.08-3,.28-4.59a3.25,3.25,0,0,1,2.51-2c2.26-1,3.89.88,5.71,1.92a27.08,27.08,0,0,1-.2,5.39,4.94,4.94,0,0,1-1.87.28c-3.13.24-5.59,2-8.41,2.92-1.27.44-2.78.4-4,.88a9.85,9.85,0,0,0,3-.12c3.89-.56,6.86-3.56,11.07-3l.08.12a9.38,9.38,0,0,1-1.86,2.6c-.12-.44-.16-.8-.56-1a.74.74,0,0,0-.91.32.55.55,0,0,0,0,.6,1.3,1.3,0,0,0,.87.56c-.08.36-.52.52-.75.84-1.11,1.88-3.37,1.12-4.68,2.44-.2.28-.91.44-.6.88a6,6,0,0,0,4.09-1c1.47-1.64,3-3.2,4.48-4.75A4.76,4.76,0,0,1,28.62,54a4.67,4.67,0,0,0-1.07-.6,1,1,0,0,0-.71.8,2.35,2.35,0,0,0,.59.8c-1.35,1-3,1-4.6,1.48a78,78,0,0,1-8.65.64c-1.39-.08-3,.4-4.28,0-1.51.28-3.13-.2-4.36.64-.16.2,0,.4,0,.6,1.83,1.2,4.33.24,6.39.6H27.61a7,7,0,0,0,3.21-.6c2-1.16,3.13-3.24,4.17-5.27a8.19,8.19,0,0,0,.83-2.4,3.45,3.45,0,0,1,3-2.44,18.18,18.18,0,0,1-.67,6.07c-.24,1.28-1.07,2.52-.56,3.88.12.64.79.64,1.31.72,4.8-.08,9.6-.28,14.68.08a11.93,11.93,0,0,0,2.7.4c.08-.12.36-.16.24-.4a1.51,1.51,0,0,0-1-1.12c-.08-.24-.43-.16-.55-.32-2.54-1.44-5.59-.68-8.57-.64-1.55.16-3.09.44-4.4-.44-.59-.72-.16-3-.16-3a57.37,57.37,0,0,1,2.46-7.71,6.9,6.9,0,0,0,.24-1.84,7.74,7.74,0,0,0,.25-2.9A18.53,18.53,0,0,1,46,37.32c.24-.6.44-1.24.67-1.84a6,6,0,0,1,.79-2.08c1.29.82,2.56.8,3.18,2.26L51.21,39c0,.2.16.6.44.36,1-.68.71-2.2.71-3.24.24-1.24-.63-1.84-1-2.92a4.78,4.78,0,0,1-.72-1.2c-.16-.88-2.08-1.48-1.65-2.56a3.25,3.25,0,0,1,1.35-2.28.41.41,0,0,1,.2.28l.48-.33V23.77c1.28,0,3.2.16,4.51.16.36.12.64.4,1,.44l.32-.44L60,23.3c-1.36.15-2.19-1.42-3.49-1.42Z" transform="translate(0)"/><path d="M25.59,34.48a.88.88,0,0,1-.6.92c-.32-.12-.55-.16-.75-.48s.24-.76.55-.92c.32.08.71.12.79.48Z" transform="translate(0)"/><path d="M23,34.48a.87.87,0,0,1,.16.92c-.28.24-.71.44-1,.12s-.48-.52-.28-.84a.73.73,0,0,1,1-.25l.07,0Z" transform="translate(0)"/><path d="M108.45,35.6c.16.44-.2.76-.51.92-.4-.12-.91-.2-.91-.72a.76.76,0,0,1,1.43-.2Z" transform="translate(0)"/><path d="M110.55,35.52c.12.2.4.52.08.72a1.53,1.53,0,0,0-.4.32.77.77,0,0,1-1-.44h0c-.08-.44.28-.64.6-.84s.48.12.68.28Z" transform="translate(0)"/><path d="M13,36a.78.78,0,0,1-.95.56H12a1.66,1.66,0,0,1-.32-.52.74.74,0,0,1,.44-.68A1,1,0,0,1,13,36Z" transform="translate(0)"/><path d="M26.42,36.68c0,.32-.4.6-.67.76a1,1,0,0,1-.87-.56.8.8,0,0,1,.48-.8.89.89,0,0,1,1.07.6Z" transform="translate(0)"/><path d="M24,36.4a.62.62,0,0,1,.12.64c-.24.2-.6.56-1,.32-.24-.2-.52-.36-.44-.76a1.76,1.76,0,0,1,.6-.48c.32-.08.48.12.71.28Z" transform="translate(0)"/><path d="M116.62,36.88a1.06,1.06,0,0,1-.52.76.78.78,0,0,1-.87-.2c-.24-.08-.16-.4-.16-.6a1.37,1.37,0,0,1,.75-.52,1.46,1.46,0,0,1,.79.56Z" transform="translate(0)"/><path d="M119.16,37.24a1,1,0,0,1-.75.72c-.24,0-.67-.12-.59-.48a.71.71,0,0,1,.36-.64.7.7,0,0,1,1,.4Z" transform="translate(0)"/><path d="M17.58,37.8a.78.78,0,0,1-.47,1h0a.61.61,0,0,1-.75-.2.69.69,0,0,1-.2-.8c.08-.36.44-.28.67-.44a1,1,0,0,1,.75.48Z" transform="translate(0)"/><path d="M19.52,38.15c.12.32-.24.44-.32.68a.66.66,0,0,1-.71.08c-.28-.24-.6-.6-.32-1,.32-.6,1.15-.28,1.35.2Z" transform="translate(0)"/><path d="M114.28,38a1.42,1.42,0,0,1-.55.92.68.68,0,0,1-.79-.48.83.83,0,0,1,.44-.76.86.86,0,0,1,.91.32Z" transform="translate(0)"/><path d="M117.53,38.59c-.08.36,0,.76-.44,1a1.13,1.13,0,0,1-1-.16.73.73,0,0,1-.16-.84.93.93,0,0,1,1-.48C117.21,38.27,117.29,38.47,117.53,38.59Z" transform="translate(0)"/><path d="M16,39.43c.16.32-.2.4-.32.56a.8.8,0,0,1-.79-.08c-.28-.16-.16-.56-.12-.76C15.16,38.47,15.87,39,16,39.43Z" transform="translate(0)"/><path d="M115,40.19c.16,0,.08.28,0,.36a3,3,0,0,1-3.21-.16,12.39,12.39,0,0,0-1.59-.88c.2-.52.91-.48,1.43-.6,1.15.16,2.06,1.24,3.33,1.28Z" transform="translate(0)"/><path d="M18,39.83c.08.32-.16.44-.24.68s-.48.16-.67.08a.67.67,0,1,1,.91-.76Z" transform="translate(0)"/><path d="M21.46,40.07c.16.36-.08.68-.4.88s-.52-.08-.75-.12c-.2-.28-.55-.6-.2-.92C20.47,39.31,21.18,39.63,21.46,40.07Z" transform="translate(0)"/><path d="M67.32,41.76c-.07.8-1.39-.11-1.21,1A6.08,6.08,0,0,0,66.9,45c.38.53.19,1.37.15,2a3.59,3.59,0,0,1-1.51,1.29c-1.13-.11-2.79.57-3.32-.84a5.65,5.65,0,0,1-.64-1.9c.11-.08.27-.08.38-.19,0-.27-.3-.42-.26-.68,1.28-.23-.53-1.37.57-1.44.9,1,2.37.65,3.17,1.67a3.48,3.48,0,0,0,.57.49c-.15-1-.6-1.9-.75-2.92a1.32,1.32,0,0,1,.45-1.33c.68-.53,1.24.23,1.62.64Z" transform="translate(0)"/><path d="M25,41.51c.12.4-.2.64-.44.84s-.55-.24-.71-.44c-.12-.4.16-.6.4-.8A.86.86,0,0,1,25,41.51Z" transform="translate(0)"/><path d="M49.43,41.91A5.48,5.48,0,0,1,49,46.38c0,.32.08.84-.36.8-1.07-1.48-.28-3.56.16-5.11.08-.4.55-.56.67-.16Z" transform="translate(0)"/><path d="M83.38,42.67a4.51,4.51,0,0,1,.08,3.72l-.32.32a9.13,9.13,0,0,1-.91-2.84,9.64,9.64,0,0,0,.48-2.12C83.27,41.63,83.23,42.35,83.38,42.67Z" transform="translate(0)"/><path d="M28,43.11c-.24.48-.91.6-1.35.92a4.73,4.73,0,0,1-3.53.68,4.31,4.31,0,0,1,4.52-1.88C27.75,43,28,42.91,28,43.11Z" transform="translate(0)"/><path d="M11.75,44.55c1.47,1,1.86,2.48,2.74,3.91.12.16.52.2.36.52-.32.24-.63-.24-1.07-.16a4.39,4.39,0,0,1-2.42-4.11c0-.16.24-.16.4-.16Z" transform="translate(0)"/><path d="M81.83,45.79c0,.4,0,.8-.36.92a.72.72,0,0,1-.91-.46h0c-.12-.28.12-.44.2-.64a.7.7,0,0,1,1,.07h0Z" transform="translate(0)"/><path d="M98.57,47.9a19.89,19.89,0,0,1,.28-2.2,1.45,1.45,0,0,0,.16-.84c1-1.28,2.9-.88,4.4-.76a8.42,8.42,0,0,0,2,.44,1.45,1.45,0,0,1,1-.2c1.27-.68.44-2.16.52-3.32l-.48-1.2a4.64,4.64,0,0,1-.32-.8c-.24-.28-.4-.8-.63-1.08-.67-1.76-2-2.76-3.09-4.15-2-2.64-5.2-4.12-8.37-5.15S87.7,29,84.89,30a2.27,2.27,0,0,1-1.55-1.68,7.93,7.93,0,0,1,.75-4.23,15.64,15.64,0,0,1,1.07-2.68,28.51,28.51,0,0,0,1.63-6.87,3.6,3.6,0,0,0-2.14-3.16,2.16,2.16,0,0,0-2.18.44,5.79,5.79,0,0,1-2.58,2.32c-.08.68.75.24,1,.48.87.16,1.87-.12,2.58.44a6.79,6.79,0,0,1-1.67,4.11,31.74,31.74,0,0,0-3.61,6.23L78,25.21,78.26,35c1.26,2.1,2.84,4.5,5.2,5.3,1.27,1,2.86,2.28,4.56,1.36.91-.28,1,1,1.43,1.52.48,1.48-.59,2.52-.67,3.87l-1,2.2C86.55,51.54,85.48,54,83.66,56c-.6,0-1,.64-1.55.68-.32.44-1,.12-1.35.28-1.23.52-3,.2-3.81,1.36a.54.54,0,0,0,.32.2c2.42,0,5.12.2,7.7.08a1,1,0,0,0,.63-.76c-.36-.68.12-1.28.44-1.8.2-1,.83-1.56,1.11-2.48.83-1.64,1.78-3.24,2.7-4.87l1.23-2a14.07,14.07,0,0,1,1.23-2.24A5.13,5.13,0,0,0,93,43.37a1.13,1.13,0,0,0-.4-.84c.28-.28.71-.2,1.07-.28a4.49,4.49,0,0,1,2.22,2.64l.36,1,.16.48-.08,1.32.16,1.24a28.52,28.52,0,0,1-.36,5.79c-.68,2.32-3.33,2.08-5.24,2.6-.48.32-1.39.16-1.39,1,2.3.48,5,.2,7.46.16.4-.16.48-.52.67-.88.08-.52.6-1,.44-1.52-.44-.56,0-1.44-.16-2.2a1.23,1.23,0,0,0,0-.76c.32-1.16.24-2.56.48-3.68l.16-1.52Z" transform="translate(0)"/><path d="M118.09,46.34c-1.27,1.8-2.62,3.83-4.84,4.47-.16,0-.32.08-.4-.12,1.35-1.44,2.06-3.68,4.17-4.2a1.29,1.29,0,0,1,1.07-.16Z" transform="translate(0)"/><path d="M9.8,48.3c-.2.16,0,.52-.4.56a.64.64,0,0,1-.83-.36A.71.71,0,0,1,9,47.62H9c.32.16.63.28.71.68Z" transform="translate(0)"/><path d="M21.23,48.86c.12.36-.28.36-.48.44a4.32,4.32,0,0,1-4.56-1.16c0-.16,0-.32.16-.36C18,48.18,19.88,47.86,21.23,48.86Z" transform="translate(0)"/><path d="M12,48.34a1,1,0,0,1,.08.6.88.88,0,0,1-1,.36,1.29,1.29,0,0,1-.52-.52,1,1,0,0,1,.64-.78,1.19,1.19,0,0,1,.75.32Z" transform="translate(0)"/><path d="M49.15,48.54c.08.36-.24.6-.48.76a.78.78,0,0,1-.83-.32.58.58,0,0,1,.28-.76c.36-.08.91,0,1,.32Z" transform="translate(0)"/><path d="M119.59,48.7c.12.4-.24.6-.51.84a.87.87,0,0,1-.75-.12c0-.2-.28-.36-.2-.64a.85.85,0,0,1,.91-.48A4.61,4.61,0,0,1,119.59,48.7Z" transform="translate(0)"/><path d="M122.21,48.54c.24.36,0,.64-.16.92a.54.54,0,0,1-.71.24c-.24-.24-.56-.36-.59-.72s.36-.56.59-.68C121.74,48.14,121.9,48.54,122.21,48.54Z" transform="translate(0)"/><path d="M8.14,49.7c0,.28-.2.44-.28.68-.2.08-.4.24-.64.16a1.17,1.17,0,0,1-.59-.64,1,1,0,0,1,.71-.8,1,1,0,0,1,.79.6Z" transform="translate(0)"/><path d="M91.67,49.7a1.15,1.15,0,0,1,0,.52c-.24.32-.55.6-1,.4-.24-.24-.52-.48-.4-.84a.78.78,0,0,1,1.31-.08Z" transform="translate(0)"/><path d="M14.52,50.3c-.08.28-.2.56-.55.6s-.48-.28-.67-.44c0-.36,0-.72.32-.92a.72.72,0,0,1,.91.76Z" transform="translate(0)"/><path d="M10.71,50.38a.84.84,0,0,1-.4.88.93.93,0,0,1-1.07-.56,1.13,1.13,0,0,1,.71-.92c.36,0,.56.4.75.6Z" transform="translate(0)"/><path d="M94.29,50.3a.79.79,0,0,1-.44,1c-.48.16-.87-.24-1.07-.56.2-.32.24-.76.71-.84a.91.91,0,0,1,.79.44Z" transform="translate(0)"/><path d="M12.58,50.46c.12.28-.12.4-.2.6-.2,0-.32.24-.55.16a.76.76,0,0,1-.52-.56,1,1,0,0,1,.52-.76A.73.73,0,0,1,12.58,50.46Z" transform="translate(0)"/><path d="M117.41,50.78a1.19,1.19,0,0,1-.67.64c-.32.08-.52-.2-.75-.32s-.12-.52,0-.72a.8.8,0,0,1,1.47.4Z" transform="translate(0)"/><path d="M120.43,50.94a1,1,0,0,1-1,.68c-.36-.16-.75-.44-.48-.92.16-.16.24-.32.48-.36a.76.76,0,0,1,1,.6Z" transform="translate(0)"/><path d="M101.59,51.22c.2.52-.28.68-.59.92a1.81,1.81,0,0,1-.75-.32.92.92,0,0,1,.56-1,1,1,0,0,1,.79.44Z" transform="translate(0)"/><path d="M90.68,51.7c.2.08.12.36.08.48-.24.16-.55.56-.91.32a.68.68,0,0,1-.4-.76.74.74,0,0,1,1.23,0Z" transform="translate(0)"/><path d="M92.9,52a.54.54,0,0,1-.32.64c-.28.28-.6,0-.87-.12a.64.64,0,0,1,0-.6.88.88,0,0,1,.52-.32c.28.08.6.08.71.4Z" transform="translate(0)"/><path d="M25.59,52c.24.24,0,.52-.08.76a.77.77,0,0,1-1,.2c-.4-.16-.36-.68-.28-1,.24-.08.24-.36.55-.36a1.38,1.38,0,0,1,.79.4Z" transform="translate(0)"/><path d="M105.83,52.18c.08.4-.32.56-.59.64-.48.16-.71-.2-.91-.52,0-.24.24-.4.32-.6.56-.24.91.16,1.19.48Z" transform="translate(0)"/><path d="M103.69,52.18c.16.4-.28.6-.44.8a.79.79,0,0,1-.87-.16c-.2-.12-.2-.36-.2-.6.24-.2.36-.44.64-.52A1,1,0,0,1,103.69,52.18Z" transform="translate(0)"/><path d="M121.58,52.66c.08.56-.63.28-.91.44-1.67,1-3.81.24-5.4-.36.12-.52.71-.32,1-.52,1.71-1.08,3.45.24,5.15.32l.12.12Z" transform="translate(0)"/><path d="M13,52.18l-.16.28a6.43,6.43,0,0,1-5.12.92l-.16-.24a7.18,7.18,0,0,1,5.32-1.08Z" transform="translate(0)"/><path d="M109.88,52.46a.91.91,0,0,1-.4.76.79.79,0,0,1-1-.44c-.12-.32.2-.64.52-.76a.7.7,0,0,1,.9.41v0Z" transform="translate(0)"/><path d="M20.11,52.62c-.16.32-.08.64-.48.8a.86.86,0,0,1-1-.52c-.12-.44.2-.56.4-.76.48-.24.83.12,1.07.48Z" transform="translate(0)"/><path d="M17.3,52.82c.12.28-.12.44-.2.64a.73.73,0,0,1-.79.12,1,1,0,0,1-.44-1,2.25,2.25,0,0,1,.64-.44.9.9,0,0,1,.79.64Z" transform="translate(0)"/><path d="M112.65,53.73a.85.85,0,0,1-.63.72.9.9,0,0,1-.75-.4.63.63,0,0,1,.16-.76c.08-.12.36-.12.52-.2a.85.85,0,0,1,.71.64Z" transform="translate(0)"/><path d="M14.36,53.3c.12.32-.16.44-.2.68a5.85,5.85,0,0,1-.87,1.72c-.75.92-1.83.92-2.9,1.2l-.16-.32a10.43,10.43,0,0,1,4-3.36l.12.08Z" transform="translate(0)"/><path d="M110.67,54.17c.08.48-.32.56-.59.76a.9.9,0,0,1-.79-.48c-.12-.44.28-.6.52-.8a.8.8,0,0,1,.87.52Z" transform="translate(0)"/><path d="M18.92,54.17c0,.08,0,.16.12.2,0,.44-.36.56-.6.76a1.07,1.07,0,0,1-.87-.4.67.67,0,0,1,.32-.89H18c.36,0,.83,0,1,.36Z" transform="translate(0)"/><path d="M118,55.37c.4,0,.47-.52.91-.6a1,1,0,0,1,1,.44c.16.48-.2.72-.52.92s-.87-.24-.83.28a1.24,1.24,0,0,1,.56.8c-.08.16-.36.12-.48,0a5,5,0,0,1-2.86-2.48c-.16-.36-.91-.64-.48-1A3.66,3.66,0,0,1,118,55.29Z" transform="translate(0)"/><path d="M121.78,54.13a.61.61,0,0,1,0,.76c-.2.4-.79.24-1.15.2-.2-.2-.4-.4-.32-.72a1.27,1.27,0,0,1,.6-.52,1.1,1.1,0,0,1,.91.28Z" transform="translate(0)"/><path d="M107.38,56.29a5.73,5.73,0,0,1,.87,1.6c-.08.12-.28.08-.36.08-1.35-.76-3.09-1.6-3.61-3.2-.12-.16-.44-.36-.4-.64,1-.2,2,.56,2.74,1.12.28.4.59.6.75,1Z" transform="translate(0)"/><path d="M16.7,54.77c.16.36-.16.64-.36.8a.91.91,0,0,1-.91-.32c-.28-.44.24-.8.56-1s.51.28.71.48Z" transform="translate(0)"/><path d="M112.34,55.69c0,.24-.28.4-.4.56-.32,0-.63.16-.91-.12-.08-.2-.28-.52,0-.72.44-.56,1.07-.12,1.35.28Z" transform="translate(0)"/><path d="M122.21,56.25a.94.94,0,0,1-.56,1,1,1,0,0,1-1-.36c-.2-.24,0-.48,0-.76a1,1,0,0,1,1-.28,2.13,2.13,0,0,1,.48.4Z" transform="translate(0)"/><path d="M94.76,61.77c0,.48-.87.36-1.23.72a8.49,8.49,0,0,1-4.16.6v-.24A5.89,5.89,0,0,1,94.76,61.77Z" transform="translate(0)"/><path d="M36.89,63.48a.66.66,0,0,1-1.27.28c-.16-.48.24-.68.52-.88A.93.93,0,0,1,36.89,63.48Z" transform="translate(0)"/><path d="M94.09,63.92a.83.83,0,0,1-1.47.64c-.27-.16-.08-.44-.12-.64a.85.85,0,0,1,1.59,0Z" transform="translate(0)"/><path d="M102,64.08a6.5,6.5,0,0,1-3.41,1.4H96.48l-.2-.16c1.31-1.6,3.69-1.6,5.75-1.44Z" transform="translate(0)"/><path d="M26,65a.73.73,0,0,1-.52.76A.69.69,0,0,1,25,64.52c.44-.28.87.2,1,.52Z" transform="translate(0)"/><path d="M28,65.44c.12.2-.08.32-.16.52a.65.65,0,0,1-.75,0,.5.5,0,0,1-.25-.66h0c.12-.24.36-.2.48-.36A1.12,1.12,0,0,1,28,65.44Z" transform="translate(0)"/><path d="M12.82,69.48c-.4.48-1-.12-1.47-.36C10,68.32,10,66.76,8.61,65.84c.16-.48.51,0,.79,0a5.26,5.26,0,0,0,.83.44c1.35.76,1.67,2,2.58,3.24Z" transform="translate(0)"/><path d="M128.44,54a3.16,3.16,0,0,0-3-1.64,2.74,2.74,0,0,0-2.2,1.64,2,2,0,0,0,.75,2.2.61.61,0,0,0,.79-.2c.2-.52-.36-.52-.44-.92a1.32,1.32,0,0,1,.44-1.4c.4-.4,1.07-.2,1.55-.2a2.78,2.78,0,0,1,1.19,1.16,3.21,3.21,0,0,1,0,2.12,3.55,3.55,0,0,1-2.46,2c-3.29.48-39.43.32-39.43.32-4.24.4-9.08-.8-12.73,1.44-1.67.8-2.5,2.64-2.94,4.27A29,29,0,0,0,66.87,68l-.12-.12c.2-1,.63-1.8.83-2.76.59-.8.59-1.88,1-2.76,1.51-2.44,2.93-4.91,5.28-6.63,1-1.32,2.74-1.08,4.24-1.08a10.53,10.53,0,0,0,5.51.8.37.37,0,0,0,.12-.28c-.55-.52-1.47-.72-2.1-1.24-1.59-.76-3.09.24-4.76.12-.08-.08-.16-.12-.12-.24a23.45,23.45,0,0,1,4.92-2.64A33.71,33.71,0,0,1,86,49.38c.6,0,1.15-.52,1.71-.16l2.1-.56c.08,0,.16.16.32.12,1.78-.6,4,0,6.07-.08l.28.24,1.9.48c.71.08,1,.92,1.79,1,.4-.56-.44-.8-.63-1.16a4.36,4.36,0,0,1,2.66.4l-.39.44c-.24.44.12.76.48.92s.48-.12.67-.2c.52-.36,0-.72.12-1a37.86,37.86,0,0,1,8.45,2.4,6.77,6.77,0,0,0,2.3.76,10.43,10.43,0,0,0-3-1.6c-.67-.4-1.63-.44-2.14-1,.12-.2.4-.12.51-.28a5.89,5.89,0,0,0,3.45-2.24c.08-.24.51-.16.48-.48-.36-.4-1,.12-1.43.08-1.67.32-2.38,2.28-4,2.64l-6.11-1.48a12.34,12.34,0,0,1-3-.64l-2.22-.2h-4c0-.08-.16-.12-.12-.24,1.43-.36,2.66-1.2,4.09-1.56l10.53-5a26.13,26.13,0,0,0,3-3.28.75.75,0,0,0-.44-.76.66.66,0,0,0-.79.16c-.48.36,0,.8,0,1.24A6.71,6.71,0,0,1,106.86,40c-.16,0-10.95,4.91-10.95,4.91A27.28,27.28,0,0,1,91,46.71l-2.3.36a1.51,1.51,0,0,1-1,.92,9.46,9.46,0,0,1-1.82.52c-5.16,2-10.51,4.12-14.6,8.19a4.52,4.52,0,0,0,.4-1.68,3.31,3.31,0,0,0-.44-1.76c-.09-.22-.38-.86-.29-1.09l-.58.38a5.56,5.56,0,0,0-.32,3.4c.12.72.71,1.56.16,2.2-1.9,2.32-3,5.11-4.24,7.75-.48-.08-.71-.52-.91-1A13.32,13.32,0,0,0,67.95,59c.28-.2.08-.72.36-1-.08-.64.36-1.28,0-1.8.25-.87-1.16-1.68-.26-2.24l-.75.36c-1.71,2.24.89,5.59-1.06,7.75v.16a6.8,6.8,0,0,1-1.59,1.92c-1-.4-1.31-1.48-1.86-2.28a3.55,3.55,0,0,1-.36-3.72C62.79,57,62.19,56,62,55l-.4-.24a4.61,4.61,0,0,0-.56,4.67c.4.72.44,1.72,1,2.32a12.9,12.9,0,0,0,1.71,3c.16.4-.24.48-.44.68-.44-.28-.36-.92-.75-1.2a29.07,29.07,0,0,0-5.08-7.31c-.08-.36-.44-.68-.24-1.08a2.92,2.92,0,0,0,.52-3c-.08-.2-.32-.44-.28-.64L57,51.7c.08,1.4-.83,2.64-.44,4.11v.08a75.49,75.49,0,0,0-13.2-8l-.37,1a27.42,27.42,0,0,1,4.25,2.17,27.31,27.31,0,0,1,4,2.12c5.39,3,9,8,11.38,13.46,0,.44.44.92.16,1.36a21.78,21.78,0,0,0-3-3,5.82,5.82,0,0,0-3-4.43c-.6-.88-1.86-1-2.86-1.24l-14.44-.08c-11.74-.16-22.45.36-34.11.16-1.63-.16-3.61-.72-4.09-2.44a2.66,2.66,0,0,1,0-2.2,2.42,2.42,0,0,1,2-1.08,2.12,2.12,0,0,1,1.35,1.12c0,.52-.44,1-.64,1.44,0,.16.2.48.48.36a1.86,1.86,0,0,0,1-1.28c0-.28.16-.68-.12-.88a2.66,2.66,0,0,0-1.86-1.64,3.31,3.31,0,0,0-2.7.92c-1,.8-.91,2.24-.63,3.36a5.36,5.36,0,0,0,4.28,3.2l38.6.16c3.77.2,8-.44,11.82.32a4.56,4.56,0,0,1,3.21,3c0,.08-.16,0-.28,0a17.19,17.19,0,0,0-11.27-2.32,13.78,13.78,0,0,0-4.44.92,2.25,2.25,0,0,1-1.94-.64c-1.43-1.28-3.93-1.2-5.75-.72v.28c1.94-.16,3.09,1.52,4.84,1.72.4.08.71-.36,1.07,0a35.84,35.84,0,0,1-5.51,2.48c-.6-.12-.91-.68-1.39-1-.75-.84-2.14-.48-3.17-.56-.36.08-.67-.16-.91,0A3.37,3.37,0,0,0,31,65.25c1,.44,2.14,0,3,.56a3.81,3.81,0,0,1-.83.56c-1.86.72-3.41,2.4-5.47,2.28a7.07,7.07,0,0,1-5.87-1.92,4,4,0,0,0-4-2.32c-.12.08-.28.08-.24.28.87.52,1.55,1.56,2.42,2.16.56.68,1.63,0,2.14.76a7.07,7.07,0,0,0,2.58,1.12,11.24,11.24,0,0,0,2.06.56l-.28.16c-3.61,1.2-7.77,1.32-11.82,1.16-1.19,0-2.34-.4-3.53-.36a2.24,2.24,0,0,0,1,.56,2.41,2.41,0,0,1-1.07.32,7.07,7.07,0,0,0-1.51.4,4,4,0,0,0-1.7.4,8.07,8.07,0,0,1-2.18,1.84c0,.16,0,.4.16.4.75-.32,1.71-.08,2.46-.4,1.31-.12,2.06-1.56,3.09-2.16,1.11-.88,2.7-.68,4-.48.79.2-.08.52.16,1,.32.28.59.6,1,.48a.69.69,0,0,1,.28-.2.91.91,0,0,0,0-1c.56-.36,1.31,0,1.9-.2,1.51,0,3-.36,4.48-.4.24,0,.52-.28.75,0-.12.32-.52.36-.36.8a.94.94,0,0,0,.79.6c.4-.16.75-.44.6-1-.08-.28-.4-.32-.6-.44.83-.4,1.79-.52,2.62-.92a7.43,7.43,0,0,0,1.67-.56c.52,0,1-.52,1.43-.32a8.24,8.24,0,0,1-.72,2c-.63,2.12-1.11,4.91,0,7,.12,0,.16,0,.24-.08A9.52,9.52,0,0,1,30,71.37c.56-3.4,4-4.39,6.55-5.67l.12.16C36,67.52,35,69.2,35.19,71.31c.08.36-.16.72,0,1a4.2,4.2,0,0,0,1.47-1.84c.28-1.8-.75-4,1.07-5.35,3.25-1.28,6.31-3,10.07-3,.12.12.4-.08.44.16-.79.88-1.94,1.72-2.3,2.8-1.27,1.76-1.23,4.75-.67,6.91.36,1.24-.71,1.92-1.23,2.88-.25.34-.32.92-.54,1.31l.78.09a4.25,4.25,0,0,0,1.35-2.64,1.09,1.09,0,0,0,.75.8c.28-.44-.24-.76-.28-1.2.64-.36.91.44,1.43.6a10.11,10.11,0,0,0,2.42.56l.28-.28c-.87-1.36-2.62-1.6-4.13-1.68a8,8,0,0,1-.71-4.55,7,7,0,0,1,.79-2.48,6,6,0,0,1,1.11-1.52,5.51,5.51,0,0,1,2.5-1.36h.12a.18.18,0,0,0,0,.12c-1.07.84-1.19,2-1.82,3a3.34,3.34,0,0,0-.36,3.48c.24.52.12,1.32.67,1.68a8.85,8.85,0,0,0,.83-2.44c-.12-1.32-.91-2.56-.16-3.83a3.27,3.27,0,0,1,2.14-1.76c2.18-.2,4.09.92,6,1.76.4.28,1.07.52,1.15,1.08a3.24,3.24,0,0,1-5.08,2.64,2.74,2.74,0,0,1-.63-2.44,1.64,1.64,0,0,1,1.75-.64c.4.2.75.6,1.27.36a.5.5,0,0,0,.16-.64c-.44-.24-.59-.84-1.19-.92a2.57,2.57,0,0,0-2.18.44,2.81,2.81,0,0,0-.91,2.8A3.42,3.42,0,0,0,54,69.76a4.6,4.6,0,0,0,4.88-1.68,5.42,5.42,0,0,0,.87-1.72,10.36,10.36,0,0,1,4.09,5.27,8.45,8.45,0,0,1,0,2l1.39.12a1.33,1.33,0,0,1,.12-1,12,12,0,0,1,4.08-6.55c.68-.4.52.52.68.8a5.34,5.34,0,0,0,3.45,3,4.35,4.35,0,0,0,4.28-1.4c.52-1,1.15-2.36.28-3.36a2.74,2.74,0,0,0-2.18-1,2.69,2.69,0,0,0-2.18,1.48c0,.32,0,.68.24.84.16,0,.48,0,.6-.2.08-.6.59-.88,1.07-1.2A1.24,1.24,0,0,1,77,65.4a2.09,2.09,0,0,1,.58,1.6,2.41,2.41,0,0,1-1.31,1.88,4,4,0,0,1-3.81-.36,8.78,8.78,0,0,1-1.11-1.76,2.91,2.91,0,0,1,0-1.84,13.41,13.41,0,0,1,5.67-2,4,4,0,0,1,2.1,1.32c1.82,1.88-.4,4.56.87,6.63.48-.08.48-.72.67-1.12.6-1.44-.16-3-.51-4.39A8.22,8.22,0,0,0,78.62,63a1,1,0,0,1,.48-.08A9.85,9.85,0,0,1,81.52,65,10.74,10.74,0,0,1,83,71.55c-.32,1.2-1.59,1.76-2.58,2.2a3.71,3.71,0,0,0-1,1.25c.48.28,1.15,0,1.63-.2.75-.28,1.19-1.24,1.71-1.68.08,0,0,.16.08.24,0,.44-.2,1,.2,1.16a14.23,14.23,0,0,0,.36-2,4,4,0,0,1,.75,2c.36.72,1,1.68,1.9,1.8.24-.36,0-.72-.12-1-.12-1-1-1.52-1.51-2.24-1.38-2-.75-5-1.82-7.08a8.4,8.4,0,0,0-2.14-3l.16-.16a23.48,23.48,0,0,1,5.35,1c2.18,1.08,5.35.84,6.39,3.68a10.49,10.49,0,0,0,2.26,4.31l.12-.08a1.62,1.62,0,0,0,0-1.48c-.24-2-2-2.48-2.9-4.15L92,66a26.85,26.85,0,0,1,2.9.92,8.54,8.54,0,0,1,5.79,7.23,15.63,15.63,0,0,1-1.47,6.83c-.12.32-.67.68-.32,1,.44-.32.52-.84.75-1.2a11.13,11.13,0,0,0,1.31-8c0-.52-.63-.92-.36-1.44a1.26,1.26,0,0,0,.68.36c.24-.16.6-.16.75-.44s.2-.52,0-.72a1.09,1.09,0,0,0-1.15-.28,1.91,1.91,0,0,0-.48.88A8.24,8.24,0,0,0,98.92,69l.08-.12c1.79.6,3.41,1.48,5.24,2a2.6,2.6,0,0,0,1.39.44,39.79,39.79,0,0,0,4.88,1.24c1.19-.12,2.18.44,3.37.16v-.08h0c-.44-.56-1.39,0-1.9-.44a29.92,29.92,0,0,1-7.81-2c0-.12.2-.08.32-.08a1,1,0,0,0,.63-1,1.07,1.07,0,0,0-.91-.44,1.12,1.12,0,0,0-.6.68,1,1,0,0,0,.6.76c-.08.08-.24,0-.36,0-1.23-.56-2.42-1.08-3.61-1.64C99.8,68.4,99.45,68,99,68c-.91-.44-1.82-.88-2.74-1.24a62.64,62.64,0,0,0-8.05-3l-1.71-.48c-1-.28-2-.52-3-.8-3.37-.84-7.89-.92-10.83.92-.48-.16-.75.6-1,.12.83-2.2,3.25-2.92,5.43-3C93,60.32,107.93,60.2,123.6,60a5,5,0,0,0,4.56-2.28,4,4,0,0,0,.28-3.68ZM65.37,68.72a3.6,3.6,0,0,0-.44,1.4l-.16.08c.12-.6-.48-1-.32-1.6a16,16,0,0,1-.59-1.6c-.27-.52.32-.92.59-1.36.56.24.75.76,1.15,1.24.24.68-.28,1.2-.24,1.84Z" transform="translate(0)"/><path d="M108.41,66.2c0,.12.24.16.16.36a8.29,8.29,0,0,1-5.31,1.68c-.16,0-.32.16-.51.12s-.16-.2-.08-.28a6.05,6.05,0,0,1,5.75-1.88Z" transform="translate(0)"/><path d="M102,66.84c.16.56-.2.88-.64,1.08a1.13,1.13,0,0,1-.87-.64c-.12-.32.16-.48.28-.68a.75.75,0,0,1,1.23.24Z" transform="translate(0)"/><path d="M26.62,66.92a.82.82,0,0,1-.2.84.81.81,0,0,1-.72.2c-.28,0-.44-.36-.51-.6a.86.86,0,0,1,.51-.76,1,1,0,0,1,.91.32Z" transform="translate(0)"/><path d="M19.52,69.52v.28a3.09,3.09,0,0,1-2.58-.6,5.33,5.33,0,0,0-2.1-2c0-.12-.24-.28,0-.36C16.84,66.84,18,68.44,19.52,69.52Z" transform="translate(0)"/><path d="M114.44,66.88c-.91,1.36-1.71,3-3.33,3.64-.28,0-.52.4-.75.12a7.31,7.31,0,0,1,3.53-3.8,1.3,1.3,0,0,1,.55,0Z" transform="translate(0)"/><path d="M28.92,67.36c0,.44-.28.52-.56.76-.32,0-.48-.2-.67-.44-.16-.4.2-.56.4-.76A.83.83,0,0,1,28.92,67.36Z" transform="translate(0)"/><path d="M119.44,67.6c-.36.52-.2,1.28-.55,1.84-.79.92-1.47,2-2.74,2.16-.2-.4.28-.8.48-1.16a5.72,5.72,0,0,1,2.62-3.08l.2.24Z" transform="translate(0)"/><path d="M7.22,68a.79.79,0,0,1,0,.88.93.93,0,0,1-.91.16A.74.74,0,0,1,6,68l0,0H6c.24-.36,1-.56,1.23-.08Z" transform="translate(0)"/><path d="M5,68.44c0,.2.16.36.12.56a.93.93,0,0,1-.55.48A.83.83,0,0,1,3.62,69,.78.78,0,0,1,4,68.12a.81.81,0,0,1,1,.32Z" transform="translate(0)"/><path d="M9.64,68.68c.08.32.16.88-.32,1a1.26,1.26,0,0,1-1.19-.48.91.91,0,0,1,.48-.8,1.09,1.09,0,0,1,1,.32Z" transform="translate(0)"/><path d="M16.15,69.2c0,.28,0,.68-.28.76a1.72,1.72,0,0,1-.75.08c-.08-.24-.52-.44-.28-.72a1.49,1.49,0,0,1,.55-.44c.24.12.6,0,.75.32Z" transform="translate(0)"/><path d="M123.24,69.48c-.12.28-.28.64-.6.64a1,1,0,0,1-.91-.44c-.2-.36.2-.68.52-.8a.87.87,0,0,1,1,.6Z" transform="translate(0)"/><path d="M116,69.67c0,.32-.32.56-.48.68a.72.72,0,1,1,.45-.68Z" transform="translate(0)"/><path d="M120.9,69.6a.83.83,0,0,1-.36.68.92.92,0,0,1-1-.16c-.36-.32-.08-.6.16-.84a.79.79,0,0,1,1.09.22l.06.1Z" transform="translate(0)"/><path d="M6.19,70.27a.84.84,0,0,1-.48,1,.91.91,0,0,1-.87-.56.75.75,0,0,1,.4-.84.91.91,0,0,1,1,.4Z" transform="translate(0)"/><path d="M114,70.71a.88.88,0,0,1-.56,1,.78.78,0,0,1-.75-.28.51.51,0,0,1,0-.84.78.78,0,0,1,1.35.08Z" transform="translate(0)"/><path d="M27.53,71.15c.16.44-.32.52-.43.76-.16.08-.48.12-.6,0s-.44-.48-.32-.84c.2-.16.28-.32.52-.4.44-.12.6.28.83.52Z" transform="translate(0)"/><path d="M122.53,71.43c.08.28-.16.4-.2.6a1.07,1.07,0,0,1-.91.16c-.36-.2-.36-.52-.36-.88.24-.16.28-.36.56-.44A.91.91,0,0,1,122.53,71.43Z" transform="translate(0)"/><path d="M120,71.55c.16.48-.28.72-.6.84-.16,0-.4-.08-.44.16a10.48,10.48,0,0,1,2.46,2.12V75a5.36,5.36,0,0,1-3.93-1.52c-.28-.2-.75-.2-1.07-.48.52-.52,1.47-.32,2.18-.36.52-.56-.6-1,.08-1.44.24,0,.4-.28.71-.2a1.35,1.35,0,0,1,.6.56Z" transform="translate(0)"/><path d="M103.85,71.59c.08.2-.16.44-.2.64a.8.8,0,0,1-.87.16c-.2-.28-.52-.52-.4-.92a.82.82,0,0,1,1.47.12Z" transform="translate(0)"/><path d="M15.16,73c-.12.36-.28.6-.67.64a.78.78,0,0,1-.71-.48c0-.28.16-.44.2-.64.44-.36,1.23-.12,1.19.48Z" transform="translate(0)"/><path d="M18.37,72.47c0,.56-.6.88-.79,1.44a4,4,0,0,1-3.17,2.64c-.16-.36.52-.8.67-1.16.63-1.36,1.9-2.08,3-2.92Z" transform="translate(0)"/><path d="M102.9,73a1.11,1.11,0,0,1-.68.92c-.32.16-.63-.16-.83-.32-.32-.32-.12-.64,0-1,.48-.48,1.15-.08,1.47.36Z" transform="translate(0)"/><path d="M105.36,73.31a1,1,0,0,1-.71.88c-.08-.12-.28,0-.4-.08a.88.88,0,0,1-.52-.72c.2-.2.28-.52.56-.56S105.29,72.83,105.36,73.31Z" transform="translate(0)"/><path d="M24.52,73.27a.86.86,0,0,1-.59.84.78.78,0,0,1-.75-.48c-.08-.36.28-.6.48-.8.48-.16.6.2.87.44Z" transform="translate(0)"/><path d="M27.26,73.43a1,1,0,0,1-.75.68c-.28-.08-.59-.16-.71-.48s.28-.6.55-.8A.84.84,0,0,1,27.26,73.43Z" transform="translate(0)"/><path d="M113.88,76.23c.2.16.55.36.47.64-.63.28-1.15-.44-1.74-.56a8.19,8.19,0,0,1-2.06-3.2c.36-.36.75.08,1.07.2A7.83,7.83,0,0,1,113.88,76.23Z" transform="translate(0)"/><path d="M115.35,73.43a1,1,0,0,1-.08.88c-.24.4-.75.32-1.11.24-.2-.24-.56-.56-.32-.92a1.33,1.33,0,0,1,.75-.52c.27-.12.48.2.75.32Z" transform="translate(0)"/><path d="M30.9,74.47c0,.32.12.8-.28,1a.77.77,0,0,1-1-.44h0c-.2-.48.24-.56.48-.8.32-.08.51.08.75.28Z" transform="translate(0)"/><path d="M105.24,77.07a5.84,5.84,0,0,1,1,2.84c-.12.28.2.56,0,.76H106c-1.79-1.28-2.18-3.08-2.86-4.87a.33.33,0,0,1-.16-.4c.4-.36.67.36,1.07.48l1.11,1.2Z" transform="translate(0)"/><path d="M36,75.71v.08c-1.59,1.12-3.81,1.8-5.63.72a.3.3,0,0,1,.2-.36,8.2,8.2,0,0,1,3.49-.76l1.9.32Z" transform="translate(0)"/><path d="M27,75.91c-1.35.84-2.58,2.48-4.24,2.88-.32.12-.51.56-.91.32.71-2.16,3-3.32,5.16-3.52v.32Z" transform="translate(0)"/><path d="M102.9,77.7a.63.63,0,0,1-.31.84h0a.55.55,0,0,1-.75,0c-.36-.16-.36-.52-.36-.8s.4-.32.59-.44c.36.08.63.08.83.4Z" transform="translate(0)"/><path d="M99.6,77.91a2.23,2.23,0,0,1-1.43,1c-1.35.48-2.58-.16-3.77-.48,0-.32.44-.2.63-.4a8.63,8.63,0,0,1,4-.2.42.42,0,0,1,.52,0Z" transform="translate(0)"/><path d="M27,79.06c-.12.16-.16.52-.48.64a.82.82,0,0,1-.79-.16c-.08-.24-.36-.44-.16-.72a1.11,1.11,0,0,1,.63-.44.85.85,0,0,1,.79.68Z" transform="translate(0)"/><path d="M29.36,79.42a1.46,1.46,0,0,1-.55.76A.87.87,0,0,1,28,79.9a1,1,0,0,1-.12-.8c.08-.2.36-.24.55-.36a1.15,1.15,0,0,1,.91.68Z" transform="translate(0)"/><path d="M102.14,79.82a1.06,1.06,0,0,1-.28.76.67.67,0,0,1-.87.16c-.28,0-.36-.36-.48-.56s.16-.52.28-.8a.86.86,0,0,1,1.35.44Z" transform="translate(0)"/><path d="M103.89,79.74c0,.2.16.4.08.56-.24.2-.4.72-.87.52-.24.08-.36-.24-.47-.32a.76.76,0,0,1,.33-1l.14-.06C103.46,79.3,103.7,79.62,103.89,79.74Z" transform="translate(0)"/><path d="M27.93,80.9a1.08,1.08,0,0,1-.4,1.1c-.43.08-1,.08-1.15-.44a1.07,1.07,0,0,1,.48-1.16,1,1,0,0,1,1.07.52Z" transform="translate(0)"/><path d="M30.19,80.74c-.08,1.12-.32,2.48-1.43,3.12-.64.12-1.27.72-1.9.32V84c.83-1.2,2.34-2.12,3.33-3.24Z" transform="translate(0)"/><path d="M95.92,81.66c.16.24-.12.44-.24.64s-.68.16-1,0a.58.58,0,0,1-.2-.79h0a.81.81,0,0,1,.52-.44,1.15,1.15,0,0,1,.87.56Z" transform="translate(0)"/><path d="M34.16,83.5c.55.92.24,2.16.55,3.16-.67.08-1-.68-1.39-1.08-.87-1.2-.75-2.8-1.15-4.19a.21.21,0,0,1,.28-.08A10.11,10.11,0,0,1,34,83c-.08.28.24.28.2.52Z" transform="translate(0)"/><path d="M97.9,82c0,.32-.36.4-.55.6a1.45,1.45,0,0,1-.75-.36c-.12-.4.2-.52.4-.72a.66.66,0,0,1,.91.48Z" transform="translate(0)"/><path d="M102.62,85.54c0,.12,0,.36-.24.28h-.16c-1.15-1-2.3-2.2-2.14-3.8h.24c1.07.92,2.26,1.92,2.3,3.56Z" transform="translate(0)"/><path d="M99.64,84.26a.93.93,0,0,1-.36.76c-.44.12-1.11.08-1.19-.52,0-.4.4-.6.6-.8a.81.81,0,0,1,1,.56h0Z" transform="translate(0)"/><path d="M97,85.1c-.56,1.48-2.06,2.24-3.09,3.36-.2-.12-.12-.44-.08-.6a5.53,5.53,0,0,1,3.05-3.6C97.54,84.34,96.91,84.78,97,85.1Z" transform="translate(0)"/><path d="M100,86.29c0,.36-.36.52-.55.72a1.16,1.16,0,0,1-.87-.44c0-.4.28-.52.51-.72A.83.83,0,0,1,100,86.29Z" transform="translate(0)"/><path d="M70.49,13.77a1,1,0,0,1,0,2H58.72a1,1,0,0,1,0-2Zm-8.32,1.71c1.15,0,.06-1.39-.56-1.39H60.46c-1.15,0-.06,1.39.55,1.39Zm4.82,0c1.15,0,.06-1.39-.56-1.39H65.28c-1.15,0-.06,1.39.56,1.39Zm3.55-1.39H70.1c-1.15,0-.17,1.39.44,1.39S71.36,14.09,70.54,14.09Z" transform="translate(0)"/><path d="M69.45,27.26l2.25.86,2.21-.86L73,30.57l1.75-.36-.6,2,.6,1.92-1.55-.42.68,3.57-2.21-.86-2.25.86.91-3.57-1.79.5.48-2-.48-1.92,1.71.28-.84-3.31Zm3.32,6c.5,0,.55-.7.55-1.3,0-1.36-1.08,0-1.63-1.28-.4,1.08-1.51.08-1.51,1.24,0,.8,0,1.34.79,1.34ZM70.57,32c0,.52.7.17,1.21.17S73,32.52,73,32c0-.74-.7-.48-1.21-.48s-1.21-.26-1.21.48Z" transform="translate(0)"/><polygon points="64.19 32.13 64.19 31.71 63.82 31.64 64.11 31.33 63.93 30.99 64.31 31.03 64.55 30.62 64.78 31.03 65.17 30.99 64.98 31.33 65.28 31.64 64.91 31.71 64.91 32.13 64.55 31.86 64.19 32.13 64.19 32.13"/><polygon points="62.45 34.37 62.45 33.95 62.07 33.88 62.37 33.58 62.19 33.24 62.57 33.28 62.81 32.87 63.03 33.27 63.42 33.24 63.24 33.58 63.54 33.88 63.16 33.95 63.16 34.37 62.81 34.11 62.45 34.37 62.45 34.37"/><polygon points="65.41 34.09 65.41 33.67 65.03 33.6 65.33 33.29 65.15 32.95 65.53 32.99 65.76 32.58 65.99 32.99 66.39 32.95 66.2 33.29 66.5 33.6 66.12 33.67 66.12 34.09 65.76 33.82 65.41 34.09 65.41 34.09"/><polygon points="65.76 35.77 65.76 35.53 65.55 35.49 65.71 35.31 65.61 35.12 65.83 35.15 65.96 34.91 66.09 35.14 66.31 35.12 66.21 35.31 66.37 35.49 66.16 35.53 66.16 35.77 65.96 35.61 65.76 35.77 65.76 35.77"/><polygon points="63.01 37.68 63.01 36.97 62.37 36.84 62.87 36.32 62.56 35.74 63.22 35.81 63.62 35.11 64.01 35.8 64.68 35.74 64.37 36.32 64.87 36.84 64.23 36.97 64.23 37.68 63.62 37.23 63.01 37.68 63.01 37.68"/><polygon points="64.41 0 65.81 3.44 69.34 2.39 67.55 5.63 70.56 7.77 66.93 8.38 67.15 12.09 64.41 9.6 61.67 12.09 61.89 8.38 58.26 7.77 61.27 5.63 59.48 2.39 63.01 3.44 64.41 0 64.41 0"/><path d="M51.61,77c-.42.16-.58.27-.48.71l.5,2.1a1.89,1.89,0,0,1-.14,1.38A2.56,2.56,0,0,1,50,82a2.91,2.91,0,0,1-1.69,0,1.25,1.25,0,0,1-.83-1L47,78.79c-.13-.55-.34-.52-.79-.45v-.17l2.66-.64v.16c-.52.14-.76.21-.62.79l.52,2.21c.09.38.31,1.29,1.44,1a1.28,1.28,0,0,0,1.06-1.77l-.48-2c-.09-.4-.24-.61-.93-.47v-.17l1.73-.42V77Z" transform="translate(0)"/><path d="M55.55,77.48a1.69,1.69,0,0,0-1.82-.88c-.41.09-.8.39-.71.82s.26.47,1,.6l1.27.23a1.41,1.41,0,0,1,1.14,1c.13.58-.2,1.5-1.65,1.82a7,7,0,0,1-1.4.08c-.17,0-.18.17-.19.28l-.23.05-.36-1.64.23-.05a1.69,1.69,0,0,0,1.93,1.06c1-.21.84-.88.82-1-.1-.44-.5-.52-1.06-.61l-.58-.09c-1.47-.24-1.6-.81-1.66-1.12s0-1.36,1.46-1.69a7.1,7.1,0,0,1,1.29,0c.18,0,.2-.15.21-.28l.24-.05.32,1.44-.22.05Z" transform="translate(0)"/><path d="M60.79,80.1l-2.88.28v-.17c.58-.1.78-.13.72-.7L58.29,76c-.56.08-1.39.19-1.45,1.29h-.23l-.1-1.36,4.83-.46.14,1.36h-.23c-.26-1.07-1.1-1-1.66-1l.34,3.56c.06.57.25.57.85.55v.16Z" transform="translate(0)"/><path d="M67.51,80.1H65.85l-1.63-2.16H64v1.33c0,.54.17.57.7.64V80H61.94v-.17c.55,0,.71-.06.72-.61l.06-3c0-.58-.24-.6-.7-.64V75.4l2.6.05c.57,0,2.28.1,2.26,1.24,0,.84-.85,1-1.29,1.14l1.59,2a.4.4,0,0,0,.33.14ZM64,77.69c1.06,0,1.48-.13,1.5-1a.85.85,0,0,0-1-1c-.44,0-.46.07-.51.28V77.7Z" transform="translate(0)"/><path d="M72.82,80.78l-2.6-.33v-.17c.5,0,.65,0,.67-.18a3.44,3.44,0,0,0-.26-.94l-1.81-.23a4,4,0,0,0-.46.82c0,.26.35.32.62.37v.17l-1.63-.2v-.17c.44,0,.58-.21.88-.69l2.24-3.47h.23L72,79.53c.27.77.37,1,.76,1v.25Zm-2.25-1.9L70,77.14l-1,1.54,1.57.2Z" transform="translate(0)"/><path d="M77.53,81.74l-4.6-.84v-.17c.45,0,.7.06.77-.35l.59-3.23c.08-.44-.24-.51-.6-.6v-.17l2.78.51v.17c-.56-.08-.81-.12-.92.47L75,80.68c-.06.32.11.41.64.5a2,2,0,0,0,2.25-.94h.23l-.6,1.46Z" transform="translate(0)"/><path d="M80.59,82.43l-2.77-.58v-.17c.43.06.75.09.83-.32l.66-3.22c.09-.44-.28-.53-.64-.63v-.17l2.77.58v.17c-.37-.06-.76-.14-.85.31l-.67,3.21c-.09.43.22.51.65.63v.17Z" transform="translate(0)"/><path d="M86.21,83.15l-2.61-.27v-.17c.5,0,.65,0,.67-.2a3.53,3.53,0,0,0-.28-.94l-1.81-.19a3.88,3.88,0,0,0-.44.83c0,.26.36.32.63.36v.17l-1.63-.17V82.4c.44,0,.58-.23.87-.71l2.16-3.51H84l1.43,3.74c.29.76.39,1,.78,1v.23ZM83.92,81.3l-.65-1.73-.92,1.56,1.57.16Z" transform="translate(0)"/><path d="M65.53,28.36c0-1.63-.91-.1-1.42-1.49-.37,1.17-1.47.19-1.47,1.45a1,1,0,0,0,.36.91v.48a.23.23,0,0,0,.22.23H65a.23.23,0,0,0,.23-.23h0v-.52A1.06,1.06,0,0,0,65.53,28.36Zm-1.41.31c-.48,0-1.12.33-1.12-.24,0-.8.54-.62,1-.62s1.21-.18,1.21.62c0,.56-.64.24-1.12.24Z" transform="translate(0)"/><path d="M79.72,48.38a.66.66,0,1,0-.75-.66A.71.71,0,0,0,79.72,48.38Z" transform="translate(0)"/><path d="M76.2,24.22a4.11,4.11,0,0,0-.35.7.36.36,0,1,0,.71,0Z" transform="translate(0)"/><path d="M52.24,24.22a4.12,4.12,0,0,0-.35.7.36.36,0,1,0,.71,0Z" transform="translate(0)"/><path d="M58.23,24.22a4.12,4.12,0,0,0-.35.7.36.36,0,1,0,.71,0Z" transform="translate(0)"/><path d="M64.22,24.22a4.12,4.12,0,0,0-.35.7.36.36,0,1,0,.71,0Z" transform="translate(0)"/><path d="M70.21,24.22a4.12,4.12,0,0,0-.35.7.36.36,0,1,0,.71,0Z" transform="translate(0)"/><path d="M52.26,32.44a4.11,4.11,0,0,1,.35.7.36.36,0,1,1-.71,0Z" transform="translate(0)"/><path d="M52.26,40.43a4.14,4.14,0,0,1,.35.7.36.36,0,1,1-.71,0Z" transform="translate(0)"/><path d="M53.21,46.75a4.11,4.11,0,0,1,.35.7.36.36,0,1,1-.71,0Z" transform="translate(0)"/><path d="M58.24,50.12a4.12,4.12,0,0,1,.35.7.36.36,0,1,1-.71,0Z" transform="translate(0)"/><path d="M76.51,32.44a4.12,4.12,0,0,0-.35.7.36.36,0,1,0,.71,0Z" transform="translate(0)"/><path d="M76.51,40.43a4.14,4.14,0,0,0-.35.7.36.36,0,1,0,.71,0Z" transform="translate(0)"/><path d="M75.55,46.75a4.12,4.12,0,0,0-.35.7.36.36,0,1,0,.71,0Z" transform="translate(0)"/><path d="M70.52,50.12a4.13,4.13,0,0,0-.35.7.36.36,0,1,0,.71,0Z" transform="translate(0)"/><path d="M64.41,53.68a4.12,4.12,0,0,0-.35.7.36.36,0,1,0,.71,0Z" transform="translate(0)"/><path d="M74.15,41.76c.07.11.26.15.5.07l.23-.64s-.26-.3-.43-.26c-.64.15-1.32.23-1.69.84a1.25,1.25,0,0,0,.6,1c.23-.08.26.15.41.27a.27.27,0,0,1-.19.33h-.07c-.45-.46-1.24.15-1.58-.42.15-.57.45-1.21,0-1.75,0-.11.23-.23.11-.34-.19-.53-.75-.11-1.09-.11a1.44,1.44,0,0,0-1.36.68,1,1,0,0,0,.3.57c.15,0,.23,0,.26.15l-.38.23a.81.81,0,0,1,.15.42c-.26.11-.53-.27-.64-.46s0-.84-.38-.91a1.6,1.6,0,0,0-.33.11,1.09,1.09,0,0,0-.15.63,2.58,2.58,0,0,0,.15.68A6.53,6.53,0,0,1,70,44.25c-.34.68-.34,1.63-1.13,2a.63.63,0,0,0-.23.61l.19.15c.49-.27,1.43-.34,1.36-1.18a3,3,0,0,1,.71-1,.78.78,0,0,1,.87.42,1.49,1.49,0,0,1-1,1.14c-.07.08,0,.19,0,.3.15.27.57.15.79.11.64-.42.91-1.18,1.47-1.4.07.38-.75.49-.23.87.34-.08.79,0,1-.42-.26-.64.9-1,.19-1.52,0-.57.6-.8.56-1.4-.23-.61-.94-.61-1.13-1.18a.83.83,0,0,1,.79,0Z" transform="translate(0)"/><path d="M46.63,48.67a.66.66,0,1,0-.75-.66A.71.71,0,0,0,46.63,48.67Z" transform="translate(0)"/><path d="M7.78,71.36A.71.71,0,1,0,7,70.65a.72.72,0,0,0,.73.71h0Z" transform="translate(0)"/><path d="M32.51,76.87h0v-.06h-.08v-.09h.15v.06h0Z" transform="translate(0)"/><path d="M32.61,76.78" transform="translate(0)"/><path d="M32.86,76.74h0v.12h0v-.09h0v.09h0v-.12h0v.07h0v-.06h0v.07h0v-.07h0Z" transform="translate(0)"/><path d="M32.87,76.87a.07.07,0,0,0,.06-.05h0s0,.07-.11.08Zm.06-.06h0v-.05h0Z" transform="translate(0)"/><path d="M33,76.78h0v-.07h0Z" transform="translate(0)"/><path d="M78.19,23.27H50.55V44.39c0,2.15.91,4,2.17,4.62l10.63,6.75a1.29,1.29,0,0,0,1.82.11h0L76,49c1.26-.58,2.17-2.46,2.17-4.62V23.26Zm-.78,21.41a4.74,4.74,0,0,1-1.79,3.68L65.2,55h-.06a1.28,1.28,0,0,1-1.62,0l-10.4-6.61a4.75,4.75,0,0,1-1.79-3.68V24H77.41V44.67Z" transform="translate(0)"/><path d="M68.09,54.06l.34-.16A1.74,1.74,0,0,0,68.09,54.06Z" transform="translate(0)"/><path d="M47.24,82.93l-2.61.3v-.17c.5-.09.64-.11.61-.34a3.43,3.43,0,0,0-.47-.85L43,82.08a3.91,3.91,0,0,0-.25.91c0,.26.42.23.69.21v.17l-1.63.19v-.17c.43-.1.51-.35.7-.88l1.36-3.9H44L46.26,82c.45.68.6.89,1,.84V83Zm-2.63-1.31-1-1.54L43,81.81l1.57-.18Z" transform="translate(0)"/><path d="M93,73a4.17,4.17,0,0,0-2.7-2.48,3.47,3.47,0,0,0-3.45.88c-1.43,1.16-.44,3.08-.4,4.63,0,.32,0,.56-.28.72-5.75-.52-11.11-2-16.82-2.56C68,74,66.75,74,65.5,73.76l-1.6-.17a67.24,67.24,0,0,0-14.56,1.64c-1,.32-2.1.4-3.09.76-.71-.12-1.31.4-2,.2l-1.31.31a1.09,1.09,0,0,1-.44,0c-.63-1.64,1.27-2.64.67-4.23a2.9,2.9,0,0,0-2.74-1.64,3.31,3.31,0,0,0-3.17,1.64c-.91,2,.24,4.07.6,6-.08.64.64,1.36,0,1.88a5.43,5.43,0,0,0-4.48-.92c-.48.24-1.35-.08-1.59.48,1.71.92,3.89.8,5.79.72a.64.64,0,0,1,.6,0c.16,1-.2,2.44.44,3.36a4.09,4.09,0,0,0,3,1.32c3.65-.12,6.9-1.2,10.23-2,.52,0,.91-.32,1.47-.32A29,29,0,0,1,59,82.06a9.93,9.93,0,0,0-1.67,3.6c-.48,1.08.83,1.24,1.23,1.84-1.23.36-2.1,1.2-3.25,1.68-2.54-.08-4.68.88-7.06,1.16,0,.52.83.36.91.88-.12.36-.48.4-.75.6,0,.24,0,.28.24.32.24-.28.75-.08,1-.36.79,0,1.47-.24,2.22-.28a7.4,7.4,0,0,0,2-.8c.83-.24,1.35-.8,2.18-1,1.19,0,2.26-.4,3.37-.48v.24c-.91,1.48-1.86,3-2.82,4.39a.45.45,0,0,0,.19.61h.09a2.06,2.06,0,0,0,1.55-.24c.83-1.44,1.59-2.8,2.26-4.27C61,88.62,62,87.9,63,87c.16-.08.4-.32.56-.08a18.21,18.21,0,0,0-1.9,2.8,3.37,3.37,0,0,0,.59,3.48c.48.4,1.19.28,1.83.32,1.55-.8,3.53.48,4.72-1,.71-.12.83.72,1.23,1.12.68.2,1.39.88,2.06.4,0-.44-.52-.84-.75-1.24-.48-.84-1.07-1.52-1.51-2.28A7.94,7.94,0,0,1,69.17,89a12.54,12.54,0,0,0,2.14.84,13.22,13.22,0,0,1,2.14.64,7.29,7.29,0,0,0,2,1.52c1,.48,2.1.56,3.13,1,.4,0,1,.36,1.27,0a1.67,1.67,0,0,0-.59-.44c-.12-.52.71-.24,1-.64a.56.56,0,0,0-.46-.3c-.57-.3-2-.41-2.36-.62A9.28,9.28,0,0,1,76,90.45c-2.38,0-3.69-2.16-5.59-3,.44-.4,1.11-.72,1.39-1.32A2.22,2.22,0,0,0,71.95,84c-.35-1.19-1.92-1-2.85-1.71l.12-.12a16.58,16.58,0,0,1,4.28.56c3.81.52,7.34,2,11.31,2,2.18,0,4.92.12,6-2,.2-1.24.44-2.48.63-3.72.48-2,1.78-3.84,1.59-6ZM50.18,91.25l-.55-.52c.28-.36.87-.16,1.31-.4a6.89,6.89,0,0,1,3.37-.48C53.12,90.85,51.57,90.93,50.18,91.25Zm24.76-.64a17.32,17.32,0,0,0,4.23,1c-.12.54-1.09,0-1,.8-1.23-.48-2.66-.72-3.57-1.68.08,0,.16-.16.32-.12Zm-37.22-17a2.89,2.89,0,0,1,1-2,3.35,3.35,0,0,1,3.14.12,1.53,1.53,0,0,1,.64.76,1.78,1.78,0,0,1-.6,1.8h-.4a4.41,4.41,0,0,1,.24-1.8c0-.48-.44-.52-.75-.72a2.31,2.31,0,0,0-1.79.4A1.8,1.8,0,0,0,38.64,74c.28.44,0,1,.2,1.52l-.12.16a2.46,2.46,0,0,1-1-2Zm1.86,1.14c.59.44,1.43.24,2.14.36a1.51,1.51,0,0,1-.2,1.36c-.67-.16-1.55-.08-1.9-.72.08-.28-.12-.68,0-1Zm-.12-1.34c.12-.32,0-.8.44-.88.28-.08.71-.08.75.24a7.9,7.9,0,0,1-.2,1.4.92.92,0,0,1-1-.76ZM58,86.25a4.33,4.33,0,0,1,1.27-3.6,2.29,2.29,0,0,1,1.71.08c-1,.28-2.34.52-2.58,1.84,0,.52-.12.8.12,1.24.44.76,1.43.44,2,1a.51.51,0,0,1-.36.48A15.33,15.33,0,0,1,58,86.25ZM56.65,89c1-.4,1.94-1.24,3-.88A5.46,5.46,0,0,1,56.65,89Zm3.77.4a30.63,30.63,0,0,1-1.94,3.75c-.08.2-.4.24-.63.28,0-.56.56-1,.79-1.48.83-1.08,1.07-2.24,2-3.28.24.24-.24.4-.24.72Zm1-2.32v.16h-.09V87h.16a.24.24,0,0,0-.16,0ZM61,86a9.46,9.46,0,0,1-1.9-.48c-.4-.4,0-.84,0-1.28.55-.88,2.14-1.32,2.9-.52A4.24,4.24,0,0,1,61,86Zm.87,0a6.69,6.69,0,0,1,.63-1.68A3.35,3.35,0,0,1,61.92,86Zm.44-3.24c-.52-.12-.79-.72-1.35-.72a3.17,3.17,0,0,1,1.51,0c.2.28-.12.52-.16.76ZM62.83,84h0v-.44h0Zm0,1.84a3.55,3.55,0,0,1,.12-.56c.2-.2.4.16.48.28A.59.59,0,0,1,62.83,85.84Zm.6-2.48a4.44,4.44,0,0,1,.6-1.48,2.32,2.32,0,0,1,1.1.12c.08.8,1.07,1.88,0,2.56-.36.16-.87.52-1.27.16a1.11,1.11,0,0,1-.4-1.4Zm2.9-1.12c-.08-.36.36-.08.52-.24l1.23.08C67.44,82,66.65,83.48,66.33,82.24Zm2,.52c-.48.16-.83.72-1.31.84a1.61,1.61,0,0,1,1.31-.84Zm-1.67,2.48v.12h0Zm.08,2.44a.38.38,0,0,1-.08.28l-.91-.72a1,1,0,0,1,1,.44Zm-1.07-1.24a.3.3,0,0,1,.36,0Zm-.56-.6c.16-.24.36-.6.63-.6a.14.14,0,0,0,.08.12A2,2,0,0,1,65.11,85.84Zm-.91-.08H64l.24-.24c.12.08,0,.16-.08.24Zm.12,1.52c.52-.56,1,.32,1.19.76.6.88,2.14,1.68,1.55,2.88-.75.68-1.94,0-2.78.56-.44,0-1.19.08-1.43-.36A23.3,23.3,0,0,1,64.32,87.28ZM63.23,88l.2-.32a17,17,0,0,1-1.31,2.88C61.88,89.56,62.87,88.84,63.23,88ZM65,92.75c-.75,0-1.9.48-2.62-.16,0-.32-.32-.48-.28-.8.63-.24,1.19.52,1.79,0a16.14,16.14,0,0,1,2.78.08c.44.12,1.11-.72,1.19.12-.32,1.32-1.9.4-2.85.8ZM67.28,87v-.12h.08V87Zm.24,2.52c0,.4.44.56.2.92A1.22,1.22,0,0,1,67.52,89.52Zm1.11,2.4-.2.08c-.2-.16-.12-.6-.08-.84C68.59,91.36,68.79,91.64,68.63,91.92Zm2,1c0,.12-.24.12-.32,0a21.24,21.24,0,0,1-2.5-4.79H68C69,89.69,69.68,91.41,70.63,92.92ZM72,89.21a.16.16,0,0,0-.08.16,4.54,4.54,0,0,1-2.78-1.24v-.2A7.51,7.51,0,0,1,72,89.21ZM71,83.9c.48.12.52.64.56,1A2.36,2.36,0,0,1,69,87.06L68.69,87A2.53,2.53,0,0,0,71,85.66V83.9Zm-.87-.16a2.68,2.68,0,0,1,.36,1.76c-.4.76-1.19.76-1.9.92a1.24,1.24,0,0,1-.91-.28.41.41,0,0,0-.16-.4c.12-.52-.91-1-.2-1.48s2.14-2,2.82-.52Zm20.15-2.92c-.32.4,0,1-.44,1.4,0,.72-.6,1.08-1.11,1.36-4.72,1-9.36-.56-13.92-1.36a48.52,48.52,0,0,0-20.35-.32c-3,.56-6,1.28-9,2.12A13,13,0,0,1,40,84c-1.43-.68-.83-2.52-1.27-3.8a20.89,20.89,0,0,0-.32-2.76,2.37,2.37,0,0,1-.16-1c.59.08,1.19.52,1.82.68,3.33.64,6.31-.44,9.4-1a68.51,68.51,0,0,1,9.16-1.4,58.68,58.68,0,0,1,10.6.28c1.11,0,2.06.32,3.13.4,2.22.28,4.29.88,6.55,1a10.85,10.85,0,0,0,1.19.2c3.57.56,7.57,1.56,11,0a29.47,29.47,0,0,1-.79,4.15ZM89.2,75.95c0,.64-.56.48-.87.72h-1a2.18,2.18,0,0,1-.12-1.12,8,8,0,0,1,1.94.4Zm-.44-1c.44-.44-.12-3,1.11-1.32,0,.32,0,.8-.28,1s-.52.48-.83.28Zm3.21-.4a2.28,2.28,0,0,1-1.71,1.36c0-1,.91-1.64.6-2.72a2.39,2.39,0,0,0-2.5-.8c-.36.24-.2.64-.32,1l-.16,1.32c-.79,0-.83-.72-1.07-1.28A2.31,2.31,0,0,1,88,71.35a2.73,2.73,0,0,1,2.3.08,1.78,1.78,0,0,1,1.31.84c.6.56.44,1.56.32,2.28Z" transform="translate(0)"/><rect x="140.84" y="59.02" width="320.35" height="1.28"/></svg>