<?xml version="1.0" encoding="utf-8"?>
<!-- Generator: Adobe Illustrator 21.1.0, SVG Export Plug-In . SVG Version: 6.00 Build 0)  -->
<svg version="1.1" id="Layer_1" xmlns="http://www.w3.org/2000/svg" xmlns:xlink="http://www.w3.org/1999/xlink" x="0px" y="0px"
	 viewBox="0 0 491.8 58.2" style="enable-background:new 0 0 491.8 58.2;" xml:space="preserve">
<style type="text/css">
	.st0{fill:#FFFFFF;stroke:#010101;stroke-miterlimit:10;}
	.st1{fill:url(#SVGID_1_);}
	.st2{fill:url(#SVGID_2_);}
	.st3{fill:url(#SVGID_3_);}
	.st4{fill:url(#SVGID_4_);}
	.st5{fill:#FFFFFF;}
	.st6{fill-rule:evenodd;clip-rule:evenodd;fill:#FFFFFF;}
	.st7{fill-rule:evenodd;clip-rule:evenodd;fill:#175AA5;}
</style>
<g>
	<path class="st0" d="M67.7,43.6"/>
	<linearGradient id="SVGID_1_" gradientUnits="userSpaceOnUse" x1="32.6646" y1="-5.699" x2="66.5943" y2="25.7631">
		<stop  offset="0" style="stop-color:#387CC0"/>
		<stop  offset="1" style="stop-color:#05BAB9"/>
	</linearGradient>
	<path class="st1" d="M46.8,0.2c0.4,0,29.1,24.4,29.1,24.4l-8.6,8.6L30.9,2.5C30.9,2.5,43.5,0.2,46.8,0.2z"/>
	<linearGradient id="SVGID_2_" gradientUnits="userSpaceOnUse" x1="13.4925" y1="53.6437" x2="46.1885" y2="-3.7283">
		<stop  offset="1.141827e-02" style="stop-color:#FCD127"/>
		<stop  offset="1" style="stop-color:#F8961D"/>
	</linearGradient>
	<path class="st2" d="M29.1,24.5C28.8,24.5,0,48.9,0,48.9l8.6,8.6L45,26.8C45,26.8,32.4,24.5,29.1,24.5z"/>
	<linearGradient id="SVGID_3_" gradientUnits="userSpaceOnUse" x1="68.9847" y1="53.4296" x2="35.4725" y2="19.9174">
		<stop  offset="0" style="stop-color:#E9487B"/>
		<stop  offset="0.8279" style="stop-color:#F9A12E"/>
	</linearGradient>
	<path class="st3" d="M42.6,24.3c3.6,0,4.6-0.2,7.7,2.3c9.3,7.8,25.6,22.7,25.6,22.7L67,57.2c0,0-23.5-21-33.8-29.3
		c-2.5-2.1-4.1-3.3-4.1-3.3s5.9-0.1,10.2-0.2C40.7,24.4,41.8,24.3,42.6,24.3z"/>
	<linearGradient id="SVGID_4_" gradientUnits="userSpaceOnUse" x1="36.7061" y1="1.8306" x2="-2.1588" y2="33.2927">
		<stop  offset="0" style="stop-color:#8DC641"/>
		<stop  offset="1" style="stop-color:#2AB34B"/>
	</linearGradient>
	<path class="st4" d="M33.3,0c-3.6,0-4.6-0.2-7.7,2.3C16.3,10,0,25,0,25l8.9,7.8c0,0,23.5-21,33.8-29.3c2.5-2.1,4.1-3.3,4.1-3.3
		S40.8,0.1,36.5,0C35.2,0,34,0,33.3,0z"/>
</g>
<g>
	<path class="st5" d="M97.3,4.8h10.2L119,37.3h0.1l11.2-32.5h10.1v41.5h-6.9v-32h-0.1l-11.5,32h-6l-11.5-32h-0.1v32h-6.9V4.8z"/>
	<path class="st5" d="M144.8,16.2h7.3l7.8,22.4h0.1l7.6-22.4h6.9l-11.7,31.7c-0.5,1.4-1.1,2.7-1.6,3.9c-0.5,1.2-1.2,2.3-1.9,3.3
		c-0.8,0.9-1.7,1.7-2.8,2.3c-1.1,0.6-2.6,0.8-4.3,0.8c-1.5,0-3.1-0.1-4.6-0.3v-5.6c0.5,0.1,1.1,0.2,1.6,0.3c0.5,0.1,1,0.1,1.6,0.1
		c0.8,0,1.4-0.1,1.9-0.3c0.5-0.2,0.9-0.5,1.2-0.8c0.3-0.4,0.6-0.8,0.8-1.3c0.2-0.5,0.4-1.1,0.6-1.7l0.8-2.3L144.8,16.2z"/>
	<path class="st5" d="M184.8,32.5c0,1.6,0.3,2.9,0.8,4.1c0.5,1.1,1.3,2,2.3,2.8c1,0.7,2.1,1.2,3.3,1.6c1.3,0.3,2.6,0.5,4.1,0.5
		c1.6,0,2.9-0.2,4.1-0.6c1.1-0.4,2-0.8,2.7-1.4c0.7-0.6,1.2-1.2,1.5-2c0.3-0.8,0.5-1.5,0.5-2.3c0-1.6-0.4-2.8-1.1-3.5
		c-0.7-0.8-1.5-1.3-2.4-1.6c-1.5-0.5-3.2-1.1-5.1-1.5c-2-0.5-4.4-1.1-7.2-1.9c-1.8-0.5-3.3-1.1-4.4-1.8c-1.2-0.8-2.1-1.6-2.8-2.5
		c-0.7-0.9-1.2-1.9-1.5-3c-0.3-1-0.4-2.1-0.4-3.2c0-2.1,0.4-3.9,1.3-5.4c0.9-1.5,2-2.8,3.5-3.8c1.4-1,3.1-1.8,4.9-2.2
		c1.8-0.5,3.7-0.7,5.5-0.7c2.2,0,4.2,0.3,6.1,0.8c1.9,0.6,3.6,1.4,5.1,2.5c1.5,1.1,2.6,2.5,3.5,4.2c0.9,1.6,1.3,3.6,1.3,5.7h-7.3
		c-0.2-2.7-1.1-4.6-2.7-5.7c-1.6-1.1-3.7-1.7-6.2-1.7c-0.9,0-1.7,0.1-2.6,0.3c-0.9,0.2-1.7,0.5-2.4,0.9c-0.7,0.4-1.3,1-1.8,1.7
		c-0.5,0.7-0.7,1.6-0.7,2.6c0,1.5,0.5,2.6,1.4,3.5c0.9,0.8,2.1,1.5,3.6,1.9c0.2,0,0.8,0.2,1.8,0.5c1.1,0.3,2.3,0.6,3.6,1
		c1.3,0.3,2.6,0.7,3.9,1c1.3,0.3,2.2,0.6,2.7,0.7c1.4,0.4,2.5,1,3.5,1.7c1,0.7,1.8,1.6,2.5,2.5c0.7,0.9,1.2,2,1.5,3
		c0.3,1.1,0.5,2.2,0.5,3.3c0,2.3-0.5,4.3-1.4,6c-0.9,1.6-2.2,3-3.7,4c-1.5,1-3.3,1.8-5.3,2.3c-2,0.5-4,0.7-6,0.7
		c-2.4,0-4.6-0.3-6.7-0.9c-2.1-0.6-3.9-1.5-5.5-2.7c-1.5-1.2-2.8-2.7-3.7-4.6c-0.9-1.9-1.4-4.1-1.5-6.7H184.8z"/>
	<path class="st5" d="M221.1,33c0,1.2,0.2,2.3,0.5,3.4c0.3,1.1,0.8,2,1.5,2.8c0.7,0.8,1.5,1.5,2.5,1.9c1,0.5,2.2,0.7,3.6,0.7
		c1.9,0,3.5-0.4,4.7-1.2c1.2-0.8,2.1-2.1,2.6-3.7h6.3c-0.3,1.6-0.9,3.1-1.8,4.4c-0.9,1.3-1.9,2.4-3.1,3.2c-1.2,0.9-2.5,1.5-4,2
		c-1.5,0.4-3.1,0.7-4.7,0.7c-2.4,0-4.5-0.4-6.3-1.2c-1.8-0.8-3.4-1.9-4.6-3.3c-1.3-1.4-2.2-3.1-2.8-5c-0.6-1.9-1-4.1-1-6.4
		c0-2.1,0.3-4.2,1-6.1c0.7-1.9,1.6-3.6,2.9-5.1c1.3-1.5,2.8-2.6,4.6-3.5c1.8-0.9,3.8-1.3,6-1.3c2.4,0,4.5,0.5,6.4,1.5
		c1.9,1,3.4,2.3,4.7,3.9c1.2,1.6,2.1,3.5,2.7,5.6c0.6,2.1,0.7,4.3,0.4,6.5H221.1z M236.5,28.6c-0.1-1-0.3-2.1-0.7-3
		c-0.4-1-0.9-1.8-1.5-2.5c-0.6-0.7-1.4-1.3-2.3-1.7c-0.9-0.4-1.9-0.7-3-0.7c-1.2,0-2.2,0.2-3.2,0.6c-0.9,0.4-1.8,1-2.4,1.7
		c-0.7,0.7-1.2,1.6-1.6,2.5c-0.4,1-0.6,2-0.7,3.1H236.5z"/>
	<path class="st5" d="M247,16.2h6.2v5.8h0.1c0.2-0.8,0.6-1.6,1.1-2.4c0.6-0.8,1.2-1.5,2-2.1c0.8-0.6,1.7-1.2,2.6-1.5
		c1-0.4,2-0.6,3-0.6c0.8,0,1.3,0,1.6,0.1c0.3,0,0.6,0.1,0.9,0.1V22c-0.5-0.1-0.9-0.1-1.4-0.2c-0.5-0.1-1-0.1-1.4-0.1
		c-1.1,0-2.2,0.2-3.2,0.7c-1,0.4-1.8,1.1-2.6,2c-0.7,0.9-1.3,1.9-1.7,3.2c-0.4,1.3-0.6,2.8-0.6,4.4v14.3H247V16.2z"/>
	<path class="st5" d="M266.9,16.2h7.2l7.6,23.1h0.1l7.3-23.1h6.9l-10.7,30h-7.4L266.9,16.2z"/>
	<path class="st5" d="M300.2,4.8h6.6v6.3h-6.6V4.8z M300.2,16.2h6.6v30h-6.6V16.2z"/>
	<path class="st5" d="M333.1,26.3c-0.3-1.9-1-3.3-2.2-4.2c-1.2-0.9-2.8-1.4-4.6-1.4c-0.9,0-1.8,0.1-2.7,0.4c-1,0.3-1.9,0.8-2.7,1.6
		c-0.8,0.8-1.5,1.9-2,3.3c-0.5,1.4-0.8,3.3-0.8,5.5c0,1.2,0.1,2.5,0.4,3.7c0.3,1.2,0.8,2.3,1.4,3.3c0.6,1,1.5,1.8,2.5,2.4
		c1,0.6,2.2,0.9,3.7,0.9c1.9,0,3.5-0.6,4.8-1.8c1.3-1.2,2-2.9,2.4-5.1h6.6c-0.6,3.9-2.1,6.9-4.4,9c-2.3,2.1-5.5,3.1-9.3,3.1
		c-2.4,0-4.4-0.4-6.2-1.2c-1.8-0.8-3.3-1.9-4.6-3.3c-1.2-1.4-2.2-3-2.8-4.9c-0.6-1.9-1-4-1-6.2c0-2.2,0.3-4.4,0.9-6.3
		c0.6-2,1.5-3.7,2.8-5.1c1.2-1.5,2.8-2.6,4.6-3.4c1.8-0.8,4-1.2,6.5-1.2c1.7,0,3.4,0.2,5,0.7c1.6,0.4,3,1.1,4.2,2
		c1.2,0.9,2.2,2,3,3.4c0.8,1.4,1.2,3,1.4,4.8H333.1z"/>
	<path class="st5" d="M350.3,33c0,1.2,0.2,2.3,0.5,3.4c0.3,1.1,0.8,2,1.5,2.8c0.7,0.8,1.5,1.5,2.5,1.9c1,0.5,2.2,0.7,3.6,0.7
		c1.9,0,3.5-0.4,4.7-1.2c1.2-0.8,2.1-2.1,2.6-3.7h6.3c-0.3,1.6-0.9,3.1-1.8,4.4c-0.9,1.3-1.9,2.4-3.1,3.2c-1.2,0.9-2.5,1.5-4,2
		c-1.5,0.4-3.1,0.7-4.7,0.7c-2.4,0-4.5-0.4-6.3-1.2c-1.8-0.8-3.4-1.9-4.6-3.3c-1.3-1.4-2.2-3.1-2.8-5c-0.6-1.9-1-4.1-1-6.4
		c0-2.1,0.3-4.2,1-6.1c0.7-1.9,1.6-3.6,2.9-5.1c1.3-1.5,2.8-2.6,4.6-3.5c1.8-0.9,3.8-1.3,6-1.3c2.4,0,4.5,0.5,6.4,1.5
		c1.9,1,3.4,2.3,4.7,3.9c1.2,1.6,2.1,3.5,2.7,5.6c0.6,2.1,0.7,4.3,0.4,6.5H350.3z M365.7,28.6c-0.1-1-0.3-2.1-0.7-3
		c-0.4-1-0.9-1.8-1.5-2.5c-0.6-0.7-1.4-1.3-2.3-1.7c-0.9-0.4-1.9-0.7-3-0.7c-1.2,0-2.2,0.2-3.2,0.6c-0.9,0.4-1.8,1-2.4,1.7
		c-0.7,0.7-1.2,1.6-1.6,2.5c-0.4,1-0.6,2-0.7,3.1H365.7z"/>
</g>
<g>
	<g id="MyService">
		<g>
			<path class="st6" d="M479.1,0.2H396c-7,0-12.6,5.7-12.6,12.7v21.7c0,7,5.7,12.7,12.6,12.7h83.1c7,0,12.6-5.7,12.6-12.7V12.9
				C491.8,5.9,486.1,0.2,479.1,0.2z"/>
		</g>
	</g>
	<g id="BETA">
		<g>
			<path class="st7" d="M412.4,21.8c1-0.5,1.7-1.1,2.2-1.8c0.5-0.7,0.8-1.7,0.8-2.8c0-1-0.2-1.9-0.5-2.6c-0.3-0.7-0.8-1.3-1.4-1.7
				c-0.6-0.4-1.4-0.7-2.2-0.9s-1.8-0.3-2.9-0.3H398v22h10.6c1,0,1.9-0.1,2.9-0.4c0.9-0.2,1.8-0.6,2.5-1.1c0.7-0.5,1.3-1.2,1.7-2
				c0.4-0.8,0.6-1.8,0.6-2.9c0-1.4-0.3-2.5-1-3.5C414.7,22.9,413.7,22.2,412.4,21.8z M402.9,15.5h4.5c0.4,0,0.8,0,1.2,0.1
				c0.4,0.1,0.8,0.2,1.1,0.4c0.3,0.2,0.6,0.4,0.7,0.8c0.2,0.3,0.3,0.7,0.3,1.3c0,0.9-0.3,1.6-0.8,2c-0.6,0.4-1.3,0.6-2.1,0.6h-4.9
				V15.5z M411.3,28.5c-0.2,0.4-0.5,0.7-0.8,0.9c-0.3,0.2-0.7,0.4-1.1,0.5c-0.4,0.1-0.9,0.1-1.4,0.1h-5.2v-6h5.3
				c1,0,1.9,0.2,2.5,0.7c0.6,0.5,1,1.3,1,2.4C411.6,27.7,411.5,28.1,411.3,28.5z M425.3,24.3h10.6v-3.8h-10.6v-4.7h11.6v-4.1h-16.4
				v22h16.6v-4.1h-11.8V24.3z M457.4,11.8h-18v4.1h6.6v17.9h4.8V15.8h6.6V11.8z M469.1,11.8h-4.9l-8.3,22h4.9l1.7-4.9h8.2l1.7,4.9h5
				L469.1,11.8z M463.7,25.3l2.9-8.1h0.1l2.8,8.1H463.7z"/>
		</g>
	</g>
</g>
</svg>
