<svg xmlns="http://www.w3.org/2000/svg" viewBox="0 0 255 50"><title>Artboard 1</title><polygon points="6.53 0 13.23 0 22.14 29.19 23.66 35.49 25.12 29.16 33.74 0 40.12 0 46.45 39.52 42.09 39.52 37.32 9.65 36.61 2.68 35.03 9.71 26.19 39.49 21.15 39.49 11.92 9.56 10.09 2.68 9.23 9.6 4.88 39.52 0.48 39.52 6.53 0"/><path d="M59.76,45.67A6.1,6.1,0,0,1,53.39,50a11.61,11.61,0,0,1-5-.9l1.13-3.25a11,11,0,0,0,3.85.66,2.82,2.82,0,0,0,2.72-2A44.66,44.66,0,0,0,57.88,39L46.45,8.87h4.64L58.86,30.8,60,34.64l1.07-3.87,6.8-21.9h4.36Z"/><path d="M93.55,27.92H78l-3.66,11.6H69.84L82.58,0H88.5l13.6,39.52H97.5ZM79.07,24.23H92.34l-6-17.93-.88-2.81-.79,3Z"/><path d="M115.5,8.87a21.93,21.93,0,0,1,9,1.82l-1.26,3.78a25.11,25.11,0,0,0-8.66-1.89c-6.3,0-7.43,3.7-7.43,12.08,0,7.18.45,12,7.13,12A27.8,27.8,0,0,0,123.42,35l1.26,3.45a20.85,20.85,0,0,1-9.59,1.86c-4.61,0-7.56-.85-9.74-3.45-2-2.33-2.45-6.94-2.45-12.39,0-7.54.58-15.59,12.62-15.59"/><path d="M140.5,8.87a21.93,21.93,0,0,1,9,1.82l-1.26,3.78a25.11,25.11,0,0,0-8.66-1.89c-6.3,0-7.43,3.7-7.43,12.08,0,7.18.45,12,7.13,12A27.8,27.8,0,0,0,148.42,35l1.26,3.45a20.85,20.85,0,0,1-9.59,1.86c-4.61,0-7.56-.85-9.74-3.45-2-2.33-2.45-6.94-2.45-12.39,0-7.54.58-15.59,12.6-15.59"/><path d="M164.91,8.87c11.75,0,12.19,5.65,12.19,15.59,0,10.59-1.58,15.86-12.59,15.86-11.45,0-12.41-5.44-12.41-15.65S153.21,8.87,165,8.87m7.81,15.05c0-7.84-.43-11.4-7.92-11.4-7.9,0-8.53,3.56-8.53,11.49,0,8.61.38,12.7,8.27,12.7,7.54,0,8.18-3.44,8.18-12.79"/><path d="M206.06,38.81l-3.88.31-.62-3.58a18.13,18.13,0,0,1-10.46,4c-7.18,0-9.16-2.59-9.16-9.64v-21h4.36V29.18c0,4.61.77,6.48,5.08,6.48a18.93,18.93,0,0,0,10-3.19c-.1-1.93-.1-4.43-.1-7.5V8.87h4.34V25.74c0,6,.19,9.79.5,13.07"/><path d="M210.16,9.38H214l.41,3.11a18.31,18.31,0,0,1,10.77-3.62c7.21,0,9.19,2.59,9.19,9.63v21H230V19.3c0-4.61-.75-6.48-5.09-6.48a22.1,22.1,0,0,0-10.46,2.85V39.52h-4.26Z"/><path d="M239.59,31V12.94H236V9.77l3.62-.4.66-6.95h3.5v7h8.73v3.57h-8.73V31c0,3.71.23,5.56,3.67,5.56A14.71,14.71,0,0,0,253.08,35l1.44,3.32a17.93,17.93,0,0,1-7.58,2c-2.06,0-4.67-.51-6.07-2.56s-1.28-3.76-1.28-6.7"/></svg>