<svg xmlns="http://www.w3.org/2000/svg" viewBox="0 0 310 91"><title>Artboard 1</title><polygon points="9.83 15.5 17.87 15.5 28.57 50.53 30.39 58.09 32.14 50.49 42.48 15.5 50.14 15.5 57.74 62.92 52.51 62.92 46.78 27.09 45.93 18.72 44.04 27.15 33.43 62.89 27.38 62.89 16.3 26.97 14.11 18.72 13.07 27.02 7.86 62.92 2.58 62.92 9.83 15.5"/><path d="M73.71,70.31a7.3,7.3,0,0,1-7.64,5.16,13.83,13.83,0,0,1-6-1.07l1.35-3.9a13.27,13.27,0,0,0,4.62.78,3.38,3.38,0,0,0,3.27-2.43,53.09,53.09,0,0,0,2.1-6.51L57.74,26.15h5.57l9.32,26.31L74,57.07l1.29-4.64,8.17-26.28h5.22Z"/><path d="M114.26,49H95.56L91.17,62.92H85.81L101.09,15.5h7.11l16.32,47.42H119ZM96.89,44.57h15.92l-7.18-21.51-1.06-3.37-.94,3.54Z"/><path d="M140.6,26.15a26.06,26.06,0,0,1,10.83,2.18l-1.51,4.53a30.18,30.18,0,0,0-10.39-2.27c-7.55,0-8.92,4.45-8.92,14.51,0,8.6.54,14.35,8.56,14.35a33.4,33.4,0,0,0,10.93-2l1.51,4.15a24.92,24.92,0,0,1-11.5,2.23c-5.54,0-9.07-1-11.68-4.14-2.37-2.8-3-8.33-3-14.87,0-9,.69-18.7,15.14-18.7"/><path d="M170.6,26.15a26.06,26.06,0,0,1,10.83,2.18l-1.51,4.53a30,30,0,0,0-10.39-2.27c-7.55,0-8.92,4.45-8.92,14.51,0,8.6.54,14.35,8.56,14.35a33.4,33.4,0,0,0,10.93-2l1.51,4.15a24.92,24.92,0,0,1-11.5,2.23c-5.54,0-9.07-1-11.68-4.14-2.37-2.8-3-8.33-3-14.87,0-9,.69-18.7,15.12-18.7"/><path d="M199.89,26.15c14.1,0,14.63,6.78,14.63,18.71,0,12.7-1.89,19-15.11,19-13.74,0-14.89-6.53-14.89-18.78s1.34-19,15.43-19m9.37,18.06c0-9.42-.51-13.68-9.5-13.68-9.48,0-10.24,4.26-10.24,13.78,0,10.33.46,15.24,9.93,15.24,9.05,0,9.81-4.13,9.81-15.34"/><path d="M249.27,62.08l-4.65.36-.75-4.29a21.73,21.73,0,0,1-12.55,4.77c-8.62,0-11-3.11-11-11.56V26.15h5.25V50.52c0,5.53.91,7.78,6.09,7.78a22.76,22.76,0,0,0,12-3.84c-.12-2.31-.12-5.31-.12-9V26.15h5.21V46.39c0,7.15.22,11.74.59,15.69"/><path d="M254.19,26.76h4.58l.5,3.73a21.9,21.9,0,0,1,12.92-4.34c8.65,0,11,3.1,11,11.55V62.92H278V38.66c0-5.53-.9-7.78-6.11-7.78A26.46,26.46,0,0,0,259.3,34.3V62.92h-5.11Z"/><path d="M289.51,52.72V31h-4.35v-3.8l4.35-.48.79-8.35h4.19v8.35H305V31H294.49V52.72c0,4.46.28,6.68,4.42,6.68a17.57,17.57,0,0,0,6.79-1.87l1.72,4a21.54,21.54,0,0,1-9.09,2.37c-2.47,0-5.61-.62-7.28-3.07s-1.54-4.52-1.54-8"/></svg>