<?xml version="1.0" encoding="iso-8859-1"?>
<!-- Generator: Adobe Illustrator 21.1.0, SVG Export Plug-In . SVG Version: 6.00 Build 0)  -->
<svg version="1.1" id="Layer_1" xmlns="http://www.w3.org/2000/svg" xmlns:xlink="http://www.w3.org/1999/xlink" x="0px" y="0px"
	 viewBox="0 0 800 800" style="enable-background:new 0 0 800 800;" xml:space="preserve">
<g>
	<path style="fill:#1057A7;" d="M630,87c34.457,0,66.852,13.418,91.217,37.783C745.582,149.148,759,181.543,759,216
		s-13.418,66.852-37.783,91.217C696.852,331.582,664.457,345,630,345s-66.852-13.418-91.217-37.783
		C514.418,282.852,501,250.457,501,216s13.418-66.852,37.783-91.217C563.148,100.418,595.543,87,630,87 M630,63
		c-84.5,0-153,68.5-153,153s68.5,153,153,153s153-68.5,153-153S714.5,63,630,63L630,63z"/>
</g>
<g>
	<path style="fill:#1057A7;" d="M234,283c51.819,0,100.537,20.18,137.179,56.821C407.82,376.463,428,425.181,428,477
		s-20.18,100.537-56.821,137.179C334.537,650.82,285.819,671,234,671s-100.537-20.18-137.179-56.821
		C60.18,577.537,40,528.819,40,477s20.18-100.537,56.821-137.179C133.463,303.18,182.181,283,234,283 M234,259
		c-120.398,0-218,97.602-218,218s97.602,218,218,218s218-97.602,218-218S354.398,259,234,259L234,259z"/>
</g>
<g>
	<path style="fill:#1057A7;" d="M610.5,594c35.014,0,63.5,28.486,63.5,63.5S645.514,721,610.5,721S547,692.514,547,657.5
		S575.486,594,610.5,594 M610.5,570c-48.325,0-87.5,39.175-87.5,87.5s39.175,87.5,87.5,87.5s87.5-39.175,87.5-87.5
		S658.825,570,610.5,570L610.5,570z"/>
</g>
<g>
	<path style="fill:#1057A7;" d="M513.498,290.67c-2.485,0-4.995,0.708-7.203,2.187l-97.101,65.046
		c-5.94,3.979-7.545,12.095-3.566,18.036c2.5,3.732,6.632,5.753,10.833,5.753c2.485,0,4.995-0.708,7.203-2.187l97.101-65.045
		c5.94-3.979,7.545-12.095,3.566-18.036C521.831,292.69,517.698,290.67,513.498,290.67L513.498,290.67z"/>
</g>
<g>
	<path style="fill:#1057A7;" d="M432.38,549.606c-4.67,0-9.202,2.515-11.528,6.909v0c-3.345,6.319-0.912,14.226,5.407,17.572
		l105.804,56.011c1.925,1.019,3.998,1.502,6.044,1.502c4.67,0,9.202-2.515,11.528-6.909c3.345-6.319,0.912-14.226-5.407-17.572
		l-105.804-56.011C436.498,550.089,434.426,549.606,432.38,549.606L432.38,549.606z"/>
</g>
<g>
	<g>
		<path style="fill:#FFFFFF;" d="M90.807,499.009h19.15v-22.222c0-3.584,0.614-6.144,1.946-7.68c1.331-1.536,2.97-2.355,5.12-2.355
			c1.229,0,2.355,0.41,3.379,1.126c0.922,0.717,1.638,1.741,1.946,2.867c0.205,0.717,0.307,2.151,0.307,4.199v24.168h19.15v-22.529
			c0-3.379,0.614-5.837,1.946-7.373c1.331-1.536,2.97-2.355,5.12-2.355c1.741,0,3.277,0.819,4.506,2.458
			c0.819,1.024,1.229,2.663,1.229,4.711v24.987h19.15v-29.186c0-6.247-1.434-10.957-4.403-13.825
			c-2.97-2.97-6.964-4.506-12.186-4.506c-3.584,0-6.554,0.512-8.909,1.638c-2.458,1.126-5.12,3.175-7.988,6.144
			c-1.434-2.56-3.277-4.506-5.53-5.837c-2.253-1.331-5.325-1.946-9.216-1.946c-3.584,0-6.656,0.614-9.217,1.741
			c-2.56,1.229-5.12,3.175-7.578,5.94v-6.247H90.807V499.009z"/>
		<path style="fill:#FFFFFF;" d="M186.044,502.286c-0.717,0.614-1.331,0.819-3.482,0.819c-1.843,0-2.151-0.307-4.711-1.229
			l-0.102,14.234c5.325,0.717,6.759,1.024,9.319,1.024c6.349,0,10.65-1.126,13.825-3.994c2.151-2.048,4.403-7.271,6.452-13.006
			l15.77-47.107H203.76l-6.656,29.698l-6.452-29.698h-20.174l16.795,46.39C187.273,499.418,187.375,501.262,186.044,502.286z"/>
	</g>
	<g>
		<path style="fill:#D7EA6A;" d="M288.654,494.093c4.813,3.994,11.06,5.94,18.74,5.94c8.704,0,15.463-2.355,20.379-7.168
			c4.915-4.813,7.373-10.957,7.373-18.433c0-6.656-1.946-12.289-5.94-16.897c-4.915-5.632-12.186-9.114-21.812-9.114
			c-8.397,0-15.156,2.97-20.072,7.783c-4.915,4.813-7.373,10.957-7.373,18.433C279.95,482.726,282.817,489.178,288.654,494.093z
			 M301.455,464.805c1.638-1.946,3.687-2.97,6.144-2.97c2.355,0,4.301,1.024,5.837,2.867c1.536,1.946,2.355,4.813,2.355,8.704
			c0,4.199-0.819,7.271-2.355,9.114c-1.536,1.946-3.584,3.379-6.042,3.379c-2.458,0-4.506-1.536-6.042-3.379
			c-1.638-1.946-2.355-4.915-2.355-8.909C299.1,469.721,299.919,466.751,301.455,464.805z"/>
		<polygon style="fill:#D7EA6A;" points="363.206,497.78 380,450.264 359.212,450.264 353.067,476.07 347.23,450.264 
			327.056,450.264 343.339,497.78 		"/>
		<path style="fill:#D7EA6A;" d="M263.053,477.811v4.915c-2.355,1.229-4.403,2.151-6.144,2.663
			c-1.741,0.512-3.687,0.819-5.632,0.819c-4.199,0-7.373-1.331-9.729-4.096c-2.355-2.663-3.482-7.168-3.482-13.518
			c0-5.94,1.229-10.343,3.584-13.006c2.355-2.765,5.632-4.096,9.626-4.096c2.663,0,4.915,0.512,6.656,1.434
			c1.741,0.922,2.97,2.355,3.687,4.096l18.023-2.56c-1.126-3.891-2.663-7.066-4.813-9.524c-2.151-2.56-4.813-4.403-8.09-5.53
			c-3.277-1.229-8.192-1.843-14.746-1.843c-6.759,0-12.186,1.024-16.18,2.97c-5.12,2.56-9.114,6.247-11.777,11.162
			s-3.994,10.65-3.994,17.204c0,6.247,1.229,11.879,3.687,16.692c2.458,4.813,5.94,8.5,10.445,10.957
			c4.506,2.458,10.241,3.687,17.409,3.687c5.735,0,10.753-0.717,14.951-2.151c4.199-1.434,9.012-4.096,14.542-8.09v-26.113h-29.083
			v13.927C251.993,477.811,263.053,477.811,263.053,477.811z"/>
	</g>
</g>
<g id="Brand_Mark_-_Main">
	<g>
		<defs>
			<rect id="SVGID_1_" x="556.913" y="158.333" width="147.087" height="111.373"/>
		</defs>
		<clipPath id="SVGID_2_">
			<use xlink:href="#SVGID_1_"  style="overflow:visible;"/>
		</clipPath>
		<g style="clip-path:url(#SVGID_2_);">
			<defs>
				<path id="SVGID_3_" d="M616.82,163.145l70.596,59.391L704,205.945c0,0-55.741-47.2-56.449-47.2
					C641.285,158.745,616.82,163.145,616.82,163.145"/>
			</defs>
			<clipPath id="SVGID_4_">
				<use xlink:href="#SVGID_3_"  style="overflow:visible;"/>
			</clipPath>
			
				<linearGradient id="SVGID_5_" gradientUnits="userSpaceOnUse" x1="8.0636" y1="2.784" x2="9.3006" y2="2.784" gradientTransform="matrix(53.1697 49.3028 49.3028 -53.1697 51.1872 -98.9707)">
				<stop  offset="0" style="stop-color:#4681C1"/>
				<stop  offset="1" style="stop-color:#2ABCBB"/>
			</linearGradient>
			<polygon style="clip-path:url(#SVGID_4_);fill:url(#SVGID_5_);" points="657.125,115.279 735.805,188.237 663.695,266.002 
				585.015,193.045 			"/>
		</g>
		<g style="clip-path:url(#SVGID_2_);">
			<defs>
				<path id="SVGID_6_" d="M556.913,253.116l16.582,16.591l70.598-59.391c0,0-24.465-4.401-30.733-4.401
					C612.654,205.915,556.913,253.116,556.913,253.116"/>
			</defs>
			<clipPath id="SVGID_7_">
				<use xlink:href="#SVGID_6_"  style="overflow:visible;"/>
			</clipPath>
			
				<linearGradient id="SVGID_8_" gradientUnits="userSpaceOnUse" x1="0.4361" y1="-6.0308" x2="1.6731" y2="-6.0308" gradientTransform="matrix(51.2363 -89.9052 -89.9052 -51.2363 21.1436 -5.9774)">
				<stop  offset="0" style="stop-color:#FCD239"/>
				<stop  offset="0.0114" style="stop-color:#FCD239"/>
				<stop  offset="1" style="stop-color:#F89934"/>
			</linearGradient>
			<polygon style="clip-path:url(#SVGID_7_);fill:url(#SVGID_8_);" points="529.471,254.068 578.286,168.411 671.535,221.554 
				622.72,307.21 			"/>
		</g>
		<g style="clip-path:url(#SVGID_2_);">
			<defs>
				<path id="SVGID_9_" d="M639.5,205.515c-1.493,0-3.757,0.023-6.342,0.058c-8.265,0.11-19.798,0.341-19.798,0.341
					s3.024,2.469,7.906,6.454c19.83,16.18,65.437,56.813,65.437,56.813L704,253.984c0,0-31.568-29.015-49.663-44.068
					c-4.907-4.083-7.076-4.413-11.788-4.413C641.64,205.503,640.636,205.515,639.5,205.515"/>
			</defs>
			<clipPath id="SVGID_10_">
				<use xlink:href="#SVGID_9_"  style="overflow:visible;"/>
			</clipPath>
			
				<linearGradient id="SVGID_11_" gradientUnits="userSpaceOnUse" x1="-8.0999" y1="-2.9222" x2="-6.863" y2="-2.9222" gradientTransform="matrix(-52.5154 -52.5154 -52.5154 52.5154 108.1028 -6.313)">
				<stop  offset="0" style="stop-color:#EA537F"/>
				<stop  offset="0.8279" style="stop-color:#F9A43F"/>
				<stop  offset="1" style="stop-color:#F9A43F"/>
			</linearGradient>
			<polygon style="clip-path:url(#SVGID_10_);fill:url(#SVGID_11_);" points="658.68,314.502 581.521,237.342 658.68,160.183 
				735.84,237.342 			"/>
		</g>
		<g style="clip-path:url(#SVGID_2_);">
			<defs>
				<path id="SVGID_12_" d="M618.33,158.334c-4.688,0.001-6.859,0.339-11.755,4.412c-18.095,15.053-49.663,44.068-49.663,44.068
					l17.295,15.198c0,0,45.609-40.633,65.437-56.813c4.883-3.985,7.906-6.453,7.906-6.453s-11.532-0.233-19.797-0.343
					c-2.584-0.035-4.85-0.058-6.343-0.058c-1.124,0-2.12-0.011-3.023-0.011H618.33z"/>
			</defs>
			<clipPath id="SVGID_13_">
				<use xlink:href="#SVGID_12_"  style="overflow:visible;"/>
			</clipPath>
			
				<linearGradient id="SVGID_14_" gradientUnits="userSpaceOnUse" x1="-3.6594" y1="7.1249" x2="-2.4225" y2="7.1249" gradientTransform="matrix(-60.9035 49.3028 49.3028 60.9035 57.5205 -87.1714)">
				<stop  offset="0" style="stop-color:#91C84C"/>
				<stop  offset="1" style="stop-color:#3BB555"/>
			</linearGradient>
			<polygon style="clip-path:url(#SVGID_13_);fill:url(#SVGID_14_);" points="678.693,196.802 592.796,266.338 525.772,183.543 
				611.669,114.008 			"/>
		</g>
	</g>
</g>
<g>
</g>
<g>
</g>
<g>
</g>
<g>
</g>
<g>
</g>
<g>
</g>
<g>
</g>
<g>
</g>
<g>
</g>
<g>
</g>
<g>
</g>
<g>
</g>
<g>
</g>
<g>
</g>
<g>
</g>
</svg>
