<?xml version="1.0" encoding="utf-8"?>
<!-- Generator: Adobe Illustrator 21.1.0, SVG Export Plug-In . SVG Version: 6.00 Build 0)  -->
<svg version="1.1" id="Layer_1" xmlns="http://www.w3.org/2000/svg" xmlns:xlink="http://www.w3.org/1999/xlink" x="0px" y="0px"
	 viewBox="0 0 304 49" style="enable-background:new 0 0 304 49;" xml:space="preserve">
<style type="text/css">
	.st0{fill:#FFFFFF;}
	.st1{fill:#FFFFFF;stroke:#000000;stroke-width:0.3368;stroke-miterlimit:10;}
	.st2{fill:url(#SVGID_1_);}
	.st3{fill:url(#SVGID_2_);}
	.st4{fill:url(#SVGID_3_);}
	.st5{fill:url(#SVGID_4_);}
	.st6{fill-rule:evenodd;clip-rule:evenodd;fill:#FFFFFF;}
	.st7{fill-rule:evenodd;clip-rule:evenodd;fill:#175AA5;}
	.st8{fill:none;stroke:#FFFFFF;stroke-width:0.165;stroke-miterlimit:10;}
</style>
<g>
	<path class="st0" d="M43.8,21.3h-1.7l-0.2,0.5c-0.1,0.2-0.1,0.3-0.1,0.4c0,0.1,0.1,0.2,0.2,0.3c0.1,0,0.2,0.1,0.5,0.1v0.1h-1.6
		v-0.1c0.2,0,0.3-0.1,0.4-0.2c0.1-0.1,0.2-0.4,0.4-0.7l1.7-3.8h0.1l1.7,3.9c0.2,0.4,0.3,0.6,0.4,0.7c0.1,0.1,0.2,0.1,0.3,0.1v0.1
		h-2.3v-0.1h0.1c0.2,0,0.3,0,0.4-0.1c0.1,0,0.1-0.1,0.1-0.2c0,0,0-0.1,0-0.1c0,0,0-0.1-0.1-0.3L43.8,21.3L43.8,21.3z M43.6,21
		l-0.7-1.6L42.2,21H43.6L43.6,21z"/>
	<path class="st0" d="M48.8,19.4v2.6c0,0.3,0,0.4,0.1,0.5c0,0.1,0.1,0.1,0.3,0.1v0.1h-1.3v-0.4c-0.2,0.2-0.3,0.3-0.5,0.4
		c-0.2,0.1-0.3,0.1-0.5,0.1c-0.2,0-0.4-0.1-0.5-0.2c-0.1-0.1-0.2-0.2-0.3-0.4c0-0.2-0.1-0.4-0.1-0.8v-1.3c0-0.2,0-0.4-0.1-0.5
		c0-0.1-0.1-0.1-0.3-0.1v-0.1H47v2.3c0,0.2,0,0.4,0,0.5c0,0.1,0.1,0.1,0.1,0.2c0,0,0.1,0.1,0.2,0.1c0.1,0,0.2,0,0.2-0.1
		c0.1-0.1,0.2-0.2,0.3-0.4v-1.8c0-0.2,0-0.4-0.1-0.5c0-0.1-0.1-0.1-0.3-0.1v-0.1H48.8L48.8,19.4z"/>
	<path class="st0" d="M51.5,19.3l0.1,1.1h-0.1c-0.1-0.3-0.3-0.6-0.4-0.7c-0.2-0.1-0.3-0.2-0.5-0.2c-0.1,0-0.2,0-0.2,0.1
		c-0.1,0.1-0.1,0.1-0.1,0.2c0,0.1,0,0.1,0.1,0.2c0.1,0.1,0.3,0.3,0.6,0.5c0.3,0.2,0.6,0.4,0.7,0.6c0.1,0.2,0.2,0.3,0.2,0.5
		c0,0.2,0,0.4-0.1,0.5c-0.1,0.2-0.2,0.3-0.4,0.4c-0.2,0.1-0.4,0.1-0.6,0.1c-0.2,0-0.4,0-0.6-0.1c-0.1,0-0.1,0-0.1,0
		c-0.1,0-0.1,0.1-0.2,0.2h-0.1l-0.1-1.2h0.1c0.1,0.3,0.3,0.5,0.4,0.7c0.2,0.2,0.4,0.2,0.5,0.2c0.1,0,0.2,0,0.3-0.1
		c0.1-0.1,0.1-0.2,0.1-0.3c0-0.1,0-0.2-0.1-0.3c-0.1-0.1-0.2-0.2-0.5-0.4c-0.4-0.2-0.6-0.4-0.7-0.6c-0.2-0.2-0.2-0.4-0.2-0.6
		c0-0.3,0.1-0.5,0.3-0.7c0.2-0.2,0.4-0.3,0.8-0.3c0.2,0,0.4,0,0.5,0.1c0.1,0,0.1,0.1,0.2,0.1c0,0,0.1,0,0.1,0c0,0,0.1-0.1,0.1-0.2
		H51.5L51.5,19.3z"/>
	<path class="st0" d="M53.2,18.1v1.2H54v0.3h-0.8v2c0,0.2,0,0.3,0,0.4c0,0.1,0.1,0.1,0.1,0.1c0,0,0.1,0,0.1,0c0.2,0,0.3-0.1,0.4-0.3
		L54,22c-0.2,0.5-0.5,0.7-0.9,0.7c-0.2,0-0.4-0.1-0.5-0.2c-0.1-0.1-0.2-0.2-0.3-0.4c0-0.1,0-0.3,0-0.6v-1.8h-0.4v-0.1
		c0.3-0.2,0.5-0.4,0.8-0.7c0.2-0.2,0.4-0.5,0.5-0.8H53.2L53.2,18.1z"/>
	<path class="st0" d="M55.6,19.4v0.7c0.2-0.3,0.4-0.6,0.6-0.7c0.2-0.1,0.3-0.2,0.5-0.2c0.1,0,0.2,0,0.3,0.1c0.1,0.1,0.1,0.2,0.1,0.3
		c0,0.2,0,0.3-0.1,0.4c-0.1,0.1-0.2,0.1-0.3,0.1c-0.1,0-0.2,0-0.3-0.1C56.3,20,56.3,20,56.2,20c0,0-0.1,0-0.1,0
		c-0.1,0-0.1,0-0.2,0.1c-0.1,0.1-0.2,0.2-0.2,0.3c-0.1,0.2-0.1,0.5-0.1,0.8v0.8l0,0.2c0,0.1,0,0.2,0,0.3c0,0.1,0.1,0.1,0.1,0.1
		c0.1,0,0.2,0,0.3,0.1v0.1h-1.8v-0.1c0.1,0,0.2-0.1,0.3-0.1c0.1-0.1,0.1-0.2,0.1-0.5v-1.8c0-0.2,0-0.3,0-0.4c0-0.1-0.1-0.1-0.1-0.1
		c0,0-0.1-0.1-0.2-0.1v-0.1H55.6L55.6,19.4z"/>
	<path class="st0" d="M58.9,22.2c-0.4,0.4-0.8,0.5-1.1,0.5c-0.2,0-0.3-0.1-0.5-0.2c-0.1-0.1-0.2-0.3-0.2-0.5c0-0.3,0.1-0.5,0.3-0.7
		c0.2-0.2,0.7-0.5,1.4-0.8v-0.3c0-0.2,0-0.4,0-0.5c0-0.1-0.1-0.1-0.2-0.2c-0.1,0-0.2-0.1-0.3-0.1c-0.2,0-0.3,0-0.4,0.1
		c-0.1,0-0.1,0.1-0.1,0.1c0,0,0,0.1,0.1,0.2c0.1,0.1,0.1,0.2,0.1,0.3c0,0.1,0,0.2-0.1,0.3c-0.1,0.1-0.2,0.1-0.3,0.1
		c-0.1,0-0.3,0-0.4-0.1c-0.1-0.1-0.1-0.2-0.1-0.3c0-0.2,0.1-0.3,0.2-0.5c0.1-0.2,0.3-0.3,0.6-0.4c0.2-0.1,0.5-0.1,0.7-0.1
		c0.3,0,0.6,0.1,0.7,0.2c0.2,0.1,0.3,0.3,0.4,0.4c0,0.1,0,0.3,0,0.7v1.3c0,0.2,0,0.2,0,0.3c0,0,0,0.1,0.1,0.1c0,0,0.1,0,0.1,0
		c0.1,0,0.1,0,0.2-0.1l0.1,0.1c-0.1,0.2-0.2,0.3-0.4,0.4c-0.1,0.1-0.3,0.1-0.4,0.1c-0.2,0-0.3,0-0.4-0.1C59,22.5,59,22.3,58.9,22.2
		L58.9,22.2z M58.9,21.9v-1.1c-0.3,0.2-0.5,0.3-0.6,0.5c-0.1,0.1-0.1,0.3-0.1,0.4c0,0.1,0,0.2,0.1,0.3c0.1,0.1,0.1,0.1,0.2,0.1
		C58.6,22.1,58.8,22,58.9,21.9L58.9,21.9z"/>
	<path class="st0" d="M61.8,17.9V22c0,0.2,0,0.4,0.1,0.4c0.1,0.1,0.2,0.1,0.3,0.1v0.1h-1.8v-0.1c0.1,0,0.3,0,0.3-0.1
		c0-0.1,0.1-0.2,0.1-0.4v-3.4c0-0.2,0-0.4-0.1-0.4C60.7,18,60.6,18,60.4,18v-0.1H61.8L61.8,17.9z"/>
	<path class="st0" d="M63.3,17.8c0.2,0,0.3,0.1,0.4,0.2c0.1,0.1,0.2,0.2,0.2,0.4c0,0.2-0.1,0.3-0.2,0.4c-0.1,0.1-0.2,0.2-0.4,0.2
		c-0.2,0-0.3-0.1-0.4-0.2s-0.2-0.2-0.2-0.4c0-0.2,0.1-0.3,0.2-0.4C63,17.8,63.2,17.8,63.3,17.8L63.3,17.8z M63.8,19.4V22
		c0,0.2,0,0.4,0.1,0.4c0.1,0.1,0.2,0.1,0.3,0.1v0.1h-1.8v-0.1c0.1,0,0.3,0,0.3-0.1c0-0.1,0.1-0.2,0.1-0.4V20c0-0.2,0-0.4-0.1-0.4
		c-0.1-0.1-0.2-0.1-0.3-0.1v-0.1H63.8L63.8,19.4z"/>
	<path class="st0" d="M66.1,22.2c-0.4,0.4-0.8,0.5-1.1,0.5c-0.2,0-0.3-0.1-0.5-0.2c-0.1-0.1-0.2-0.3-0.2-0.5c0-0.3,0.1-0.5,0.3-0.7
		c0.2-0.2,0.7-0.5,1.4-0.8v-0.3c0-0.2,0-0.4,0-0.5c0-0.1-0.1-0.1-0.2-0.2c-0.1,0-0.2-0.1-0.3-0.1c-0.2,0-0.3,0-0.4,0.1
		c-0.1,0-0.1,0.1-0.1,0.1c0,0,0,0.1,0.1,0.2c0.1,0.1,0.1,0.2,0.1,0.3c0,0.1,0,0.2-0.1,0.3c-0.1,0.1-0.2,0.1-0.3,0.1
		c-0.1,0-0.3,0-0.4-0.1c-0.1-0.1-0.1-0.2-0.1-0.3c0-0.2,0.1-0.3,0.2-0.5c0.1-0.2,0.3-0.3,0.6-0.4c0.2-0.1,0.5-0.1,0.7-0.1
		c0.3,0,0.6,0.1,0.7,0.2c0.2,0.1,0.3,0.3,0.4,0.4c0,0.1,0,0.3,0,0.7v1.3c0,0.2,0,0.2,0,0.3c0,0,0,0.1,0.1,0.1c0,0,0.1,0,0.1,0
		c0.1,0,0.1,0,0.2-0.1l0.1,0.1c-0.1,0.2-0.2,0.3-0.4,0.4c-0.1,0.1-0.3,0.1-0.4,0.1c-0.2,0-0.3,0-0.4-0.1
		C66.2,22.5,66.2,22.3,66.1,22.2L66.1,22.2z M66.1,21.9v-1.1c-0.3,0.2-0.5,0.3-0.6,0.5c-0.1,0.1-0.1,0.3-0.1,0.4
		c0,0.1,0,0.2,0.1,0.3c0.1,0.1,0.1,0.1,0.2,0.1C65.8,22.1,66,22,66.1,21.9L66.1,21.9z"/>
	<path class="st0" d="M69,19.4v0.4c0.2-0.2,0.3-0.3,0.5-0.4c0.2-0.1,0.3-0.1,0.5-0.1c0.2,0,0.4,0.1,0.5,0.2c0.1,0.1,0.2,0.3,0.3,0.4
		c0,0.1,0.1,0.4,0.1,0.8v1.3c0,0.3,0,0.4,0.1,0.5c0,0.1,0.1,0.1,0.3,0.1v0.1h-1.7v-0.1c0.1,0,0.2-0.1,0.3-0.2c0-0.1,0.1-0.2,0.1-0.4
		v-1.5c0-0.3,0-0.4,0-0.5c0-0.1-0.1-0.1-0.1-0.2c0,0-0.1-0.1-0.2-0.1c-0.2,0-0.4,0.1-0.6,0.4v1.8c0,0.2,0,0.4,0.1,0.5
		c0,0.1,0.1,0.1,0.3,0.1v0.1h-1.7v-0.1c0.1,0,0.2-0.1,0.3-0.1c0-0.1,0.1-0.2,0.1-0.5v-1.9c0-0.2,0-0.4-0.1-0.5
		c0-0.1-0.1-0.1-0.3-0.1v-0.1H69L69,19.4z"/>
	<path class="st0" d="M77.7,17.8v1.7h-0.1c-0.2-0.5-0.4-0.8-0.7-1.1c-0.3-0.2-0.7-0.4-1-0.4c-0.4,0-0.7,0.1-0.9,0.3
		c-0.2,0.2-0.4,0.5-0.5,0.8c-0.1,0.4-0.1,0.7-0.1,1.1c0,0.5,0.1,0.9,0.2,1.2s0.3,0.6,0.5,0.8c0.2,0.2,0.5,0.2,0.9,0.2
		c0.1,0,0.2,0,0.4,0c0.1,0,0.2-0.1,0.4-0.1v-1c0-0.2,0-0.3,0-0.4c0-0.1-0.1-0.1-0.2-0.2c-0.1,0-0.2-0.1-0.3-0.1h-0.1v-0.1h2.3v0.1
		c-0.2,0-0.3,0-0.4,0.1c-0.1,0-0.1,0.1-0.2,0.2c0,0,0,0.2,0,0.3v1c-0.3,0.1-0.6,0.2-1,0.3c-0.3,0.1-0.7,0.1-1,0.1
		c-0.5,0-0.8-0.1-1.1-0.2c-0.3-0.1-0.6-0.3-0.8-0.5c-0.2-0.2-0.4-0.4-0.5-0.7c-0.2-0.3-0.2-0.7-0.2-1.1c0-0.7,0.3-1.3,0.8-1.8
		c0.5-0.5,1.1-0.7,1.9-0.7c0.2,0,0.5,0,0.6,0.1c0.1,0,0.3,0.1,0.5,0.2c0.2,0.1,0.4,0.1,0.4,0.1c0.1,0,0.1,0,0.2-0.1
		c0.1,0,0.1-0.1,0.2-0.3H77.7L77.7,17.8z"/>
	<path class="st0" d="M80,19.3c0.3,0,0.6,0.1,0.8,0.2c0.2,0.1,0.4,0.4,0.6,0.6c0.1,0.3,0.2,0.6,0.2,0.9c0,0.5-0.1,0.9-0.4,1.2
		c-0.3,0.4-0.7,0.6-1.2,0.6c-0.5,0-0.9-0.2-1.1-0.5c-0.3-0.3-0.4-0.8-0.4-1.2c0-0.5,0.1-0.9,0.4-1.2C79.1,19.4,79.5,19.3,80,19.3
		L80,19.3z M80,19.5c-0.1,0-0.2,0-0.3,0.1c-0.1,0.1-0.1,0.3-0.2,0.5c0,0.3,0,0.6,0,1.1c0,0.3,0,0.5,0,0.7c0,0.2,0.1,0.3,0.2,0.4
		c0.1,0.1,0.2,0.1,0.3,0.1c0.1,0,0.2,0,0.3-0.1c0.1-0.1,0.2-0.2,0.2-0.3c0-0.2,0.1-0.7,0.1-1.4c0-0.4,0-0.7-0.1-0.8
		c0-0.2-0.1-0.3-0.2-0.3C80.2,19.5,80.1,19.5,80,19.5L80,19.5z"/>
	<path class="st0" d="M83.1,22.8L82,20.2c-0.1-0.3-0.2-0.5-0.3-0.6c-0.1-0.1-0.1-0.1-0.2-0.1v-0.1h1.8v0.1c-0.1,0-0.2,0-0.2,0.1
		c-0.1,0.1-0.1,0.1-0.1,0.2c0,0.1,0.1,0.3,0.2,0.5l0.5,1.2l0.4-1.1c0.1-0.3,0.2-0.5,0.2-0.6c0-0.1,0-0.1-0.1-0.2
		c-0.1,0-0.1-0.1-0.3-0.1v-0.1h1.1v0.1c-0.1,0-0.2,0.1-0.3,0.1c-0.1,0.1-0.2,0.3-0.3,0.6l-1.1,2.6H83.1L83.1,22.8z"/>
	<path class="st0" d="M87.5,20.9h-1.8c0,0.4,0.1,0.8,0.3,1c0.2,0.2,0.4,0.3,0.6,0.3c0.1,0,0.3,0,0.4-0.1c0.1-0.1,0.2-0.2,0.4-0.4
		l0.1,0.1c-0.2,0.4-0.4,0.6-0.6,0.8c-0.2,0.2-0.5,0.2-0.8,0.2c-0.5,0-0.9-0.2-1.1-0.6c-0.2-0.3-0.3-0.7-0.3-1.1c0-0.6,0.1-1,0.4-1.3
		c0.3-0.3,0.6-0.5,1-0.5c0.3,0,0.6,0.1,0.9,0.4C87.4,19.9,87.5,20.3,87.5,20.9L87.5,20.9z M86.7,20.6c0-0.4,0-0.6-0.1-0.8
		c0-0.1-0.1-0.2-0.2-0.3c0,0-0.1-0.1-0.2-0.1c-0.1,0-0.2,0.1-0.3,0.2c-0.1,0.2-0.2,0.5-0.2,0.9v0.1H86.7L86.7,20.6z"/>
	<path class="st0" d="M89.1,19.4v0.7c0.2-0.3,0.4-0.6,0.6-0.7c0.2-0.1,0.3-0.2,0.5-0.2c0.1,0,0.2,0,0.3,0.1c0.1,0.1,0.1,0.2,0.1,0.3
		c0,0.2,0,0.3-0.1,0.4c-0.1,0.1-0.2,0.1-0.3,0.1c-0.1,0-0.2,0-0.3-0.1C89.8,20,89.7,20,89.7,20c0,0-0.1,0-0.1,0
		c-0.1,0-0.1,0-0.2,0.1c-0.1,0.1-0.2,0.2-0.2,0.3c-0.1,0.2-0.1,0.5-0.1,0.8v0.8l0,0.2c0,0.1,0,0.2,0,0.3c0,0.1,0.1,0.1,0.1,0.1
		c0.1,0,0.2,0,0.3,0.1v0.1h-1.8v-0.1c0.1,0,0.2-0.1,0.3-0.1c0.1-0.1,0.1-0.2,0.1-0.5v-1.8c0-0.2,0-0.3,0-0.4c0-0.1-0.1-0.1-0.1-0.1
		c0,0-0.1-0.1-0.2-0.1v-0.1H89.1L89.1,19.4z"/>
	<path class="st0" d="M92.1,19.4v0.4c0.2-0.2,0.3-0.3,0.5-0.4c0.2-0.1,0.3-0.1,0.5-0.1c0.2,0,0.4,0.1,0.5,0.2
		c0.1,0.1,0.2,0.3,0.3,0.4c0,0.1,0.1,0.4,0.1,0.8v1.3c0,0.3,0,0.4,0.1,0.5c0,0.1,0.1,0.1,0.3,0.1v0.1h-1.7v-0.1
		c0.1,0,0.2-0.1,0.3-0.2c0-0.1,0.1-0.2,0.1-0.4v-1.5c0-0.3,0-0.4,0-0.5c0-0.1-0.1-0.1-0.1-0.2c0,0-0.1-0.1-0.2-0.1
		c-0.2,0-0.4,0.1-0.6,0.4v1.8c0,0.2,0,0.4,0.1,0.5c0,0.1,0.1,0.1,0.3,0.1v0.1h-1.7v-0.1c0.1,0,0.2-0.1,0.3-0.1
		c0-0.1,0.1-0.2,0.1-0.5v-1.9c0-0.2,0-0.4-0.1-0.5c0-0.1-0.1-0.1-0.3-0.1v-0.1H92.1L92.1,19.4z"/>
	<path class="st0" d="M96,19.4v0.4c0.2-0.2,0.3-0.3,0.5-0.4c0.2-0.1,0.3-0.1,0.5-0.1c0.2,0,0.4,0,0.5,0.1c0.1,0.1,0.3,0.2,0.3,0.5
		c0.2-0.2,0.4-0.4,0.5-0.5c0.2-0.1,0.4-0.1,0.5-0.1c0.2,0,0.4,0.1,0.5,0.2c0.1,0.1,0.2,0.2,0.3,0.4c0.1,0.2,0.1,0.4,0.1,0.8v1.4
		c0,0.3,0,0.4,0.1,0.5c0,0.1,0.1,0.1,0.3,0.1v0.1h-1.7v-0.1c0.1,0,0.2-0.1,0.3-0.2c0-0.1,0.1-0.2,0.1-0.4v-1.4c0-0.3,0-0.5,0-0.6
		c0-0.1-0.1-0.1-0.1-0.2c0,0-0.1-0.1-0.2-0.1c-0.1,0-0.2,0-0.3,0.1c-0.1,0.1-0.2,0.2-0.3,0.3v1.8c0,0.2,0,0.4,0.1,0.4
		c0.1,0.1,0.2,0.1,0.3,0.1v0.1h-1.7v-0.1c0.1,0,0.2,0,0.2-0.1c0.1,0,0.1-0.1,0.1-0.1c0-0.1,0-0.2,0-0.4v-1.4c0-0.3,0-0.5,0-0.6
		c0-0.1-0.1-0.1-0.1-0.2c-0.1,0-0.1-0.1-0.2-0.1c-0.1,0-0.2,0-0.3,0.1c-0.1,0.1-0.2,0.2-0.4,0.4v1.8c0,0.2,0,0.4,0.1,0.5
		c0,0.1,0.1,0.1,0.3,0.1v0.1h-1.7v-0.1c0.1,0,0.2-0.1,0.3-0.1c0-0.1,0.1-0.2,0.1-0.5v-1.9c0-0.2,0-0.4-0.1-0.5
		c0-0.1-0.1-0.1-0.3-0.1v-0.1H96L96,19.4z"/>
	<path class="st0" d="M103.1,20.9h-1.8c0,0.4,0.1,0.8,0.3,1c0.2,0.2,0.4,0.3,0.6,0.3c0.1,0,0.3,0,0.4-0.1c0.1-0.1,0.2-0.2,0.4-0.4
		l0.1,0.1c-0.2,0.4-0.4,0.6-0.6,0.8c-0.2,0.2-0.5,0.2-0.8,0.2c-0.5,0-0.9-0.2-1.1-0.6c-0.2-0.3-0.3-0.7-0.3-1.1c0-0.6,0.1-1,0.4-1.3
		c0.3-0.3,0.6-0.5,1-0.5c0.3,0,0.6,0.1,0.9,0.4C103,19.9,103.1,20.3,103.1,20.9L103.1,20.9z M102.2,20.6c0-0.4,0-0.6-0.1-0.8
		c0-0.1-0.1-0.2-0.2-0.3c0,0-0.1-0.1-0.2-0.1c-0.1,0-0.2,0.1-0.3,0.2c-0.1,0.2-0.2,0.5-0.2,0.9v0.1H102.2L102.2,20.6z"/>
	<path class="st0" d="M104.6,19.4v0.4c0.2-0.2,0.3-0.3,0.5-0.4c0.2-0.1,0.3-0.1,0.5-0.1c0.2,0,0.4,0.1,0.5,0.2
		c0.1,0.1,0.2,0.3,0.3,0.4c0,0.1,0.1,0.4,0.1,0.8v1.3c0,0.3,0,0.4,0.1,0.5c0,0.1,0.1,0.1,0.3,0.1v0.1h-1.7v-0.1
		c0.1,0,0.2-0.1,0.3-0.2c0-0.1,0.1-0.2,0.1-0.4v-1.5c0-0.3,0-0.4,0-0.5c0-0.1-0.1-0.1-0.1-0.2c0,0-0.1-0.1-0.2-0.1
		c-0.2,0-0.4,0.1-0.6,0.4v1.8c0,0.2,0,0.4,0.1,0.5c0,0.1,0.1,0.1,0.3,0.1v0.1h-1.7v-0.1c0.1,0,0.2-0.1,0.3-0.1
		c0-0.1,0.1-0.2,0.1-0.5v-1.9c0-0.2,0-0.4-0.1-0.5c0-0.1-0.1-0.1-0.3-0.1v-0.1H104.6L104.6,19.4z"/>
	<path class="st0" d="M108.2,18.1v1.2h0.8v0.3h-0.8v2c0,0.2,0,0.3,0,0.4c0,0.1,0.1,0.1,0.1,0.1c0,0,0.1,0,0.1,0
		c0.2,0,0.3-0.1,0.4-0.3L109,22c-0.2,0.5-0.5,0.7-0.9,0.7c-0.2,0-0.4-0.1-0.5-0.2c-0.1-0.1-0.2-0.2-0.3-0.4c0-0.1,0-0.3,0-0.6v-1.8
		h-0.4v-0.1c0.3-0.2,0.5-0.4,0.8-0.7c0.2-0.2,0.4-0.5,0.5-0.8H108.2L108.2,18.1z"/>
	<path class="st0" d="M14.2,30.5C14.1,30.6,14.1,30.6,14.2,30.5"/>
	<path class="st0" d="M15,24.1c0.1,0,0.2-0.1,0.2-0.2c0-0.1-0.1-0.2-0.2-0.2c-0.1,0-0.2,0.1-0.2,0.2C14.8,24,14.9,24.1,15,24.1
		L15,24.1z"/>
	<path class="st0" d="M23,16.8L23,16.8l-6.2,0v0h0l0,5c0,0.5,0.2,0.9,0.5,1l2.4,1.4c0.1,0.1,0.1,0.1,0.2,0.1c0.1,0,0.1,0,0.2-0.1
		l2.4-1.5c0.3-0.1,0.5-0.6,0.5-1L23,16.8L23,16.8L23,16.8z M18.8,18.2h-0.5v-1.3h0.5V18.2L18.8,18.2z M18.4,18.7L18.4,18.7l0-0.2
		l0.1,0l0.1-0.1l0.1,0.1l0.1,0l0,0.1l0.1,0.1l-0.1,0v0.1l-0.1-0.1l-0.1,0.1L18.4,18.7L18.4,18.7L18.4,18.7z M16.9,20.3v-1.2h0.7v1.2
		H16.9L16.9,20.3z M17,18.5l0.1,0l0.1-0.1l0.1,0.1l0.1,0l0,0.1l0.1,0.1l-0.1,0v0.1l-0.1-0.1l-0.1,0.1v-0.1l-0.1,0L17,18.5L17,18.5
		L17,18.5z M17.8,19.7l0.1,0l0.1-0.1l0.1,0.1l0.1,0l0,0.1l0.1,0.1l-0.1,0V20L17.9,20L17.8,20v-0.1l-0.1,0L17.8,19.7L17.8,19.7
		L17.8,19.7z M18.2,18.8C18.2,18.7,18.2,18.7,18.2,18.8c-0.1,0-0.1,0.1-0.2,0.1c0,0-0.1,0-0.1,0c0,0,0.1-0.1,0.1-0.1
		c-0.4,0-0.4,0.2-0.5,0.2c-0.1,0,0.1-0.2,0.1-0.3c-0.1,0-0.1-0.1-0.2-0.2c0-0.1,0.1,0,0.1,0c0,0,0-0.1,0.1-0.1
		c0.2,0,0.1,0.2,0.2,0.2c0,0,0-0.2,0.1-0.2C18.2,18.4,18.4,18.8,18.2,18.8C18.1,18.8,18.2,18.8,18.2,18.8L18.2,18.8z M17.8,17.4
		L17.8,17.4l0-0.2l0.1,0l0.1-0.1l0.1,0.1l0.1,0l0,0.1l0.1,0.1l-0.1,0v0.1l-0.1-0.1l-0.1,0.1L17.8,17.4L17.8,17.4L17.8,17.4z
		 M17.6,16.9v1.3h-0.7v-1.3H17.6L17.6,16.9z M18.8,23.6l-1.5-0.9c-0.2-0.2-0.4-0.5-0.4-0.8v-1.4h1.9V23.6L18.8,23.6z M18.3,20.3
		v-1.2h0.5v1.2H18.3L18.3,20.3z M20.7,23.7l-0.7,0.4h0c-0.1,0-0.1,0.1-0.2,0.1c-0.1,0-0.1,0-0.2-0.1L19,23.7v-3.2h1.7V23.7
		L20.7,23.7z M20.7,20.3H19v-3.3h1.7V20.3L20.7,20.3z M22.8,21.9c0,0.4-0.2,0.7-0.4,0.8l-1.5,0.9v-3.1h1.9V21.9L22.8,21.9z
		 M22.8,20.3h-1.9v-3.3h1.9V20.3L22.8,20.3z"/>
	<path class="st0" d="M18.7,21.6c0,0-0.2,0.1-0.2,0.1c0-0.1,0.1-0.2,0.2-0.3c0-0.1-0.1,0-0.2,0c0.4-0.5,0.1-0.3-0.1-0.3
		c0.3-0.3,0.2-0.3,0-0.2c0.2-0.1,0.2-0.3,0.2-0.4c-0.2,0.2-0.3,0.2-0.3,0.4c0,0.1-0.1,0.4-0.1,0.4c-0.1,0.1,0-0.4-0.3-0.4
		c-0.1,0-0.3,0-0.3,0.1c0,0,0.1,0.1,0.1,0.2c0,0.1,0,0.2,0,0.2c-0.1,0-0.2-0.2-0.2-0.3c0-0.1,0-0.1,0-0.2c0-0.2-0.3-0.5-0.5-0.5
		c0,0.1,0.2,0.2,0.2,0.4c-0.1,0-0.2-0.1-0.2-0.1c0,0.1,0.1,0.1,0.1,0.2c0,0.1-0.1,0-0.1,0.1c0,0.1,0.1,0.1,0.1,0.1
		c-0.1,0-0.1,0-0.1,0c0,0,0,0.1,0.1,0.1c0,0,0,0.1,0,0.2c0,0.4,0.2,0.6,0.4,0.6c0.1,0,0.1-0.1,0.1-0.1c0,0.1,0.1,0,0.1,0.1
		c0,0.1-0.1,0.1-0.1,0.2c0,0.1,0.2,0,0.2,0.2c0,0.2,0,0.2,0,0.3c0,0,0.2-0.1,0.2-0.1c0.1,0,0,0.2,0.1,0.2c0.1,0,0.1-0.2,0.1-0.2
		c0,0,0.2,0.1,0.2,0.1c0-0.2-0.1-0.1-0.1-0.2c0-0.1,0.3-0.1,0.2-0.2c0,0-0.1,0-0.1-0.1c0,0-0.2-0.3,0-0.1
		C18.7,22.2,18.7,21.6,18.7,21.6L18.7,21.6z"/>
	<path class="st0" d="M25.4,22.9c0.1,0,0.2-0.1,0.2-0.2c0-0.1-0.1-0.2-0.2-0.2c-0.1,0-0.2,0.1-0.2,0.2
		C25.2,22.8,25.3,22.9,25.4,22.9L25.4,22.9z"/>
	<path class="st0" d="M24.5,23.4c0.1,0,0.2-0.1,0.2-0.2c0-0.1-0.1-0.2-0.2-0.2s-0.2,0.1-0.2,0.2C24.3,23.3,24.4,23.4,24.5,23.4
		L24.5,23.4z"/>
	<path class="st0" d="M14.7,24.5c0.1,0,0.2-0.1,0.2-0.2c0-0.1-0.1-0.2-0.2-0.2c-0.1,0-0.2,0.1-0.2,0.2
		C14.5,24.5,14.6,24.5,14.7,24.5L14.7,24.5z"/>
	<path class="st0" d="M15.3,24.6c0.1,0,0.2-0.1,0.2-0.2c0-0.1-0.1-0.2-0.2-0.2c-0.1,0-0.2,0.1-0.2,0.2
		C15.1,24.5,15.2,24.6,15.3,24.6L15.3,24.6z"/>
	<path class="st0" d="M33.1,16c0.3,0.4,0.4,0.9,0.2,1.4c-0.1,0-0.1-0.2-0.1-0.3c-0.2-0.4-0.4-0.9-0.2-1.4C33,15.8,33,15.9,33.1,16
		L33.1,16z"/>
	<path class="st0" d="M7.1,16.5c-0.1,0.3-0.1,0.6,0,0.9c-0.1,0.1,0-0.1-0.1,0C6.5,17,6.7,16.4,6.6,16c0,0,0.1,0,0.1,0
		C6.9,16.1,7,16.3,7.1,16.5L7.1,16.5z"/>
	<path class="st0" d="M34,16.5c0.1,0.1-0.1,0.2-0.1,0.3c-0.1,0-0.2,0-0.3-0.1c0-0.1,0-0.2,0.1-0.3C33.8,16.4,33.9,16.4,34,16.5
		L34,16.5z"/>
	<path class="st0" d="M6.4,17c0,0.1-0.1,0.2-0.1,0.2c-0.1,0-0.2,0-0.2-0.1C6,17.1,6,17,6,17c0-0.1,0.1-0.1,0.2-0.1
		C6.3,16.9,6.4,16.9,6.4,17L6.4,17z"/>
	<path class="st0" d="M34.4,17.2c0,0.1,0,0.1,0,0.2c-0.1,0.1-0.2,0.1-0.3,0.1c-0.1,0-0.1-0.1-0.1-0.2c0-0.1,0.1-0.2,0.2-0.2
		C34.3,17.1,34.4,17.1,34.4,17.2L34.4,17.2z"/>
	<path class="st0" d="M33.8,17.2c0.1,0,0,0.2,0,0.2c-0.1,0.1-0.1,0.1-0.2,0.1c-0.1-0.1-0.1-0.1-0.1-0.1c0-0.1,0-0.2,0.2-0.3
		C33.7,17.1,33.7,17.2,33.8,17.2L33.8,17.2z"/>
	<path class="st0" d="M33,17.4c0,0.1,0,0.3-0.1,0.3c-0.1,0-0.2-0.1-0.2-0.2c0-0.1,0.1-0.2,0.2-0.3C32.9,17.3,33,17.3,33,17.4
		L33,17.4z"/>
	<path class="st0" d="M7.6,17.4c0,0.1-0.1,0.2-0.1,0.2c-0.1,0-0.2,0-0.2-0.1c-0.1-0.1,0-0.1,0-0.2C7.4,17.2,7.5,17.3,7.6,17.4
		L7.6,17.4z"/>
	<path class="st0" d="M6.9,17.5c0,0.1,0,0.2-0.1,0.2c-0.1,0-0.2,0-0.2-0.1c-0.1-0.1,0-0.2,0.1-0.3C6.8,17.3,6.9,17.4,6.9,17.5
		L6.9,17.5z"/>
	<path class="st0" d="M30.4,17.5c0.1,0.2,0.2,0.5,0.2,0.8c0,0.2,0,0.5-0.1,0.6c-0.2-0.1-0.2-0.2-0.3-0.3c-0.2-0.4,0-0.8,0-1.2
		C30.3,17.3,30.3,17.4,30.4,17.5L30.4,17.5z"/>
	<path class="st0" d="M6.4,17.6c0,0.1-0.1,0.2-0.1,0.3c-0.1,0-0.2-0.1-0.3-0.2c0-0.1,0.1-0.2,0.1-0.3C6.3,17.5,6.4,17.5,6.4,17.6
		L6.4,17.6z"/>
	<path class="st0" d="M32.1,18c0.1,0.3,0.2,0.7,0.1,1.1l-0.1,0.1c-0.2-0.3-0.4-0.6-0.4-0.9c0-0.2,0-0.4,0.1-0.6
		c0.1-0.1,0.1,0,0.2,0.1C31.9,17.7,32,17.9,32.1,18L32.1,18z"/>
	<path class="st0" d="M33.5,17.8c0,0.1-0.1,0.2-0.2,0.3c-0.1,0-0.2,0-0.2-0.1c0-0.1,0-0.2,0.1-0.3C33.3,17.6,33.4,17.7,33.5,17.8
		L33.5,17.8z"/>
	<path class="st0" d="M6.9,18.1c0,0.1-0.1,0.2-0.2,0.2c-0.1,0.1-0.2,0-0.2-0.1c0-0.1-0.1-0.2,0-0.3c0-0.1,0.1-0.1,0.2-0.1
		C6.8,17.9,6.9,18,6.9,18.1L6.9,18.1z"/>
	<path class="st0" d="M7.4,18c0,0.1-0.1,0.2-0.1,0.2c-0.1,0-0.2-0.1-0.2-0.1c0-0.1,0-0.2,0.1-0.2C7.3,17.9,7.4,17.9,7.4,18L7.4,18z"
		/>
	<path class="st0" d="M33.8,18c0,0.1-0.2,0.3-0.3,0.4c-0.1,0.3-0.4,0.5-0.7,0.6c-0.1,0.1-0.2,0.1-0.3,0.1c0-0.2,0.2-0.4,0.3-0.6
		C33.1,18.3,33.4,18.1,33.8,18L33.8,18z"/>
	<path class="st0" d="M6.7,18.5C6.9,18.7,7,18.8,7.2,19c0,0,0,0.1-0.1,0.1c-0.5,0-0.9-0.6-1.2-1c0-0.1,0.2,0,0.3,0
		C6.4,18.2,6.6,18.3,6.7,18.5L6.7,18.5z"/>
	<path class="st0" d="M33.9,18.6c0,0.5-0.2,1-0.7,1.2c-0.1,0-0.3,0.2-0.4,0.1C33.1,19.4,33.4,19,33.9,18.6L33.9,18.6L33.9,18.6z"/>
	<path class="st0" d="M31.8,18.9c0,0.2-0.1,0.3-0.2,0.3c-0.1,0-0.2-0.1-0.3-0.2c0-0.1,0.1-0.2,0.2-0.2c0,0,0.1,0,0.1,0
		C31.7,18.8,31.8,18.9,31.8,18.9L31.8,18.9z"/>
	<path class="st0" d="M6.1,19c0.2,0.1,0.4,0.3,0.6,0.5c-0.1,0.1-0.3,0-0.5,0c-0.4-0.1-0.6-0.4-1-0.6c0-0.1,0.2-0.1,0.2-0.1
		C5.7,18.9,5.9,19,6.1,19L6.1,19z"/>
	<path class="st0" d="M17.8,15.8c-0.6-0.2-1,0.4-1.6,0.3c-0.1,0-0.1,0.1-0.1,0.2c0,0-0.1,0-0.1,0c0-0.3-0.1-0.5-0.2-0.8
		c-0.1-0.1,0-0.3-0.1-0.4c-0.3-1,0.8-0.2,1.1-0.8c0.2-0.5-0.4-0.5-0.6-0.9v-0.1c-0.2-0.2-0.4-0.2-0.5-0.5c0.1-0.3,0.1-0.6,0-0.8
		c0-0.1-0.1-0.2-0.2-0.1c-0.2,0.3-0.4,0.5-0.6,0.8c-0.2-0.2-0.4-0.3-0.6-0.5c-0.2,0-0.3-0.2-0.5-0.1c0,0.1,0,0.1,0,0.2
		c0,0.4,0.2,0.8,0.5,1.1l0,0.2c-0.2,0.4-0.1,1-0.2,1.4c-0.5,1.2-1.3,2.5-2.4,3.3c-0.6,0.7-1.4,1.4-1.5,2.3c0,0.2,0,0.3-0.1,0.4
		c-0.4-0.1-0.7-0.3-1-0.5c-0.5-0.4-1.2-0.3-1.5-0.9c-0.1-0.3,0-0.5,0.2-0.7c0.4-0.4,0.3-1,0.1-1.4c0,0-0.1,0-0.1,0.1
		c0,0.6-0.5,1.1-0.3,1.8c0,0.2,0.2,0.3,0.2,0.5c-0.1,0-0.2,0-0.3-0.1c-0.2,0-0.5-0.1-0.7-0.1c-0.5,0.2-1.2-0.1-1.6,0.4
		c-0.1,0-0.2,0-0.1,0.1c0.2,0,0.5,0.1,0.7,0.1c0.4,0.1,0.6-0.3,0.9-0.4h0.1c0.1-0.1,0.3,0,0.4-0.1c0.7,0.1,1.2,0.4,1.8,0.7v0
		c-0.2,0.1-0.5,0.2-0.7,0.3c-0.2,0.2-0.5,0.4-0.6,0.7c-0.2,0.3,0.1,0.5,0.2,0.7c0,0.1,0,0.2,0.1,0.3c0.3-0.4,0-0.8,0.1-1.3
		c0.1-0.3,0.4-0.5,0.7-0.6c0.6-0.3,1.1,0.2,1.6,0.5c0,0.5,0.1,1-0.1,1.5c-0.2,0.1-0.3,0.1-0.5,0.1C9,23,8.3,23.5,7.5,23.7
		c-0.3,0.1-0.8,0.1-1.1,0.2c0.3,0.1,0.6,0,0.8,0c1.1-0.2,1.9-1,3-0.8l0,0c-0.1,0.3-0.3,0.5-0.5,0.7c0-0.1,0-0.2-0.2-0.3
		c-0.1,0-0.2,0-0.2,0.1c0,0.1,0,0.1,0,0.2c0.1,0.1,0.1,0.1,0.2,0.2c0,0.1-0.1,0.1-0.2,0.2c-0.3,0.5-0.9,0.3-1.3,0.7
		C8.1,25,7.9,25,8,25.1c0.4,0,0.8-0.1,1.1-0.3c0.4-0.4,0.8-0.9,1.2-1.3c0.1,0.4,0,0.7-0.2,1c-0.1-0.1-0.2-0.1-0.3-0.2
		c-0.1,0-0.2,0.1-0.2,0.2c0,0.1,0.1,0.2,0.2,0.2c-0.4,0.3-0.8,0.3-1.3,0.4c-0.8,0.1-1.6,0.2-2.4,0.2c-0.4,0-0.8,0.1-1.2,0
		c-0.4,0.1-0.9-0.1-1.2,0.2c0,0.1,0,0.1,0,0.2C4.3,26,5,25.8,5.5,25.9h4.3c0.3,0,0.6,0,0.9-0.2c0.6-0.3,0.9-0.9,1.1-1.4
		c0.1-0.2,0.2-0.4,0.2-0.7c0.1-0.4,0.4-0.6,0.8-0.7c0.1,0.6-0.1,1.1-0.2,1.7c-0.1,0.4-0.3,0.7-0.2,1.1c0,0.2,0.2,0.2,0.4,0.2
		c1.3,0,2.6-0.1,4,0c0.2,0,0.5,0.1,0.7,0.1c0,0,0.1,0,0.1-0.1c0-0.1-0.1-0.3-0.3-0.3c0-0.1-0.1,0-0.2-0.1c-0.7-0.4-1.5-0.2-2.3-0.2
		c-0.4,0-0.8,0.1-1.2-0.1c-0.2-0.2,0-0.8,0-0.8c0-0.2,0.6-2,0.7-2.1c0-0.2,0.1-0.3,0.1-0.5c0.1-0.2,0.1-0.5,0.1-0.7
		c0-0.4,0.2-0.7,0.3-1c0.1-0.2,0.1-0.3,0.2-0.5c0.1-0.2,0.1-0.4,0.2-0.6c0.4,0.2,0.7,0.2,0.9,0.6l0.1,0.9c0,0.1,0,0.2,0.1,0.1
		c0.3-0.2,0.2-0.6,0.2-0.9c0.1-0.3-0.2-0.5-0.3-0.8c-0.1-0.1-0.2-0.3-0.2-0.3c0-0.2-0.6-0.4-0.5-0.7c0.1-0.3,0.1-0.5,0.4-0.6
		c0,0,0.1,0.1,0.1,0.1l0.1-0.1l0-0.9c0.4,0,0.9,0,1.2,0c0.1,0,0.2,0.1,0.3,0.1l0.1-0.1l0.9-0.2C18.3,16.2,18.1,15.8,17.8,15.8
		L17.8,15.8z"/>
	<path class="st0" d="M18.7,16.2C18.7,16.2,18.8,16.2,18.7,16.2L18.7,16.2L18.7,16.2z"/>
	<path class="st0" d="M9.3,19.2c0,0.1-0.1,0.2-0.2,0.3c-0.1,0-0.2,0-0.2-0.1c0-0.1,0.1-0.2,0.2-0.3C9.1,19.1,9.2,19.1,9.3,19.2
		L9.3,19.2z"/>
	<path class="st0" d="M8.5,19.2c0.1,0.1,0.1,0.2,0,0.3c-0.1,0.1-0.2,0.1-0.3,0c-0.1-0.1-0.1-0.1-0.1-0.2C8.3,19.2,8.5,19.1,8.5,19.2
		L8.5,19.2z"/>
	<path class="st0" d="M23.7,19.4C23.7,19.4,23.7,19.4,23.7,19.4"/>
	<path class="st0" d="M31.9,19.5c0,0.1-0.1,0.2-0.1,0.3c-0.1,0-0.2-0.1-0.2-0.2c0-0.1,0.1-0.1,0.2-0.2
		C31.8,19.4,31.9,19.5,31.9,19.5L31.9,19.5z"/>
	<path class="st0" d="M32.5,19.5c0,0.1,0.1,0.1,0,0.2c0,0-0.1,0-0.1,0.1c-0.1,0-0.2,0-0.3-0.1c0-0.1,0.1-0.2,0.2-0.2
		C32.4,19.4,32.5,19.5,32.5,19.5L32.5,19.5z"/>
	<path class="st0" d="M5.8,19.6c0,0.1-0.2,0.2-0.3,0.1c0,0-0.1-0.1-0.1-0.1c0-0.1,0-0.2,0.1-0.2C5.7,19.5,5.8,19.5,5.8,19.6
		L5.8,19.6z"/>
	<path class="st0" d="M9.5,19.8c0,0.1-0.1,0.2-0.2,0.2c-0.1,0-0.2-0.1-0.2-0.2c0-0.1,0-0.2,0.1-0.2C9.3,19.6,9.4,19.7,9.5,19.8
		L9.5,19.8z"/>
	<path class="st0" d="M8.8,19.8c0,0,0.1,0.1,0,0.2C8.8,20,8.7,20.1,8.6,20c-0.1-0.1-0.1-0.1-0.1-0.2c0,0,0.1-0.1,0.2-0.1
		C8.7,19.7,8.8,19.7,8.8,19.8L8.8,19.8z"/>
	<path class="st0" d="M34.2,19.9c0,0.1-0.1,0.2-0.1,0.2c-0.1,0-0.2,0-0.2-0.1c-0.1,0,0-0.1,0-0.2c0.1-0.1,0.1-0.1,0.2-0.1
		C34.1,19.8,34.1,19.8,34.2,19.9L34.2,19.9z"/>
	<path class="st0" d="M34.9,20c0,0.1-0.1,0.2-0.2,0.2c-0.1,0-0.2,0-0.2-0.1c0-0.1,0-0.2,0.1-0.2C34.7,19.8,34.8,19.9,34.9,20
		L34.9,20z"/>
	<path class="st0" d="M7.1,20.1c0,0.1,0,0.2-0.1,0.3c-0.1,0-0.2,0-0.2-0.1c-0.1-0.1-0.1-0.1-0.1-0.2c0-0.1,0.1-0.1,0.2-0.1
		C6.9,20,7,20.1,7.1,20.1L7.1,20.1z"/>
	<path class="st0" d="M7.6,20.2c0,0.1-0.1,0.1-0.1,0.2c-0.1,0-0.1,0.1-0.2,0c-0.1-0.1-0.2-0.2-0.1-0.3C7.3,20,7.5,20.1,7.6,20.2
		L7.6,20.2z"/>
	<path class="st0" d="M33.5,20.2c0,0.1-0.1,0.2-0.2,0.3c-0.1,0-0.2,0-0.2-0.1c0-0.1,0-0.2,0.1-0.2C33.4,20.1,33.5,20.1,33.5,20.2
		L33.5,20.2z"/>
	<path class="st0" d="M34.4,20.4c0,0.1,0,0.2-0.1,0.3c-0.1,0-0.2,0-0.3,0c-0.1-0.1-0.1-0.2,0-0.2c0.1-0.1,0.2-0.2,0.3-0.1
		C34.3,20.3,34.4,20.3,34.4,20.4L34.4,20.4z"/>
	<path class="st0" d="M6.6,20.6c0,0.1-0.1,0.1-0.1,0.2c-0.1,0-0.2,0-0.2,0c-0.1,0,0-0.2,0-0.2C6.4,20.3,6.6,20.5,6.6,20.6L6.6,20.6z
		"/>
	<path class="st0" d="M33.7,20.8C33.8,20.8,33.8,20.9,33.7,20.8c-0.2,0.2-0.6,0.3-0.9,0.1c-0.1-0.1-0.3-0.2-0.4-0.2
		c0.1-0.1,0.2-0.1,0.4-0.2C33.1,20.5,33.4,20.8,33.7,20.8L33.7,20.8z"/>
	<path class="st0" d="M7.2,20.7c0,0.1,0,0.1-0.1,0.2c0,0.1-0.1,0-0.2,0c-0.1-0.1-0.1-0.2-0.1-0.3C7,20.5,7.1,20.6,7.2,20.7L7.2,20.7
		z"/>
	<path class="st0" d="M8.1,20.8c0,0.1,0,0.2-0.1,0.2c-0.1,0-0.1,0-0.2,0c-0.1-0.1-0.2-0.2-0.1-0.3C7.8,20.6,8,20.6,8.1,20.8
		L8.1,20.8z"/>
	<path class="st0" d="M20.7,21.2c0,0.2-0.4,0-0.3,0.3c0.1,0.2,0.1,0.5,0.2,0.6c0.1,0.1,0.1,0.4,0,0.6c-0.1,0.2-0.2,0.3-0.4,0.4
		c-0.3,0-0.8,0.2-0.9-0.2c-0.1-0.2-0.2-0.3-0.2-0.5c0,0,0.1,0,0.1-0.1c0-0.1-0.1-0.1-0.1-0.2c0.4-0.1-0.1-0.4,0.2-0.4
		c0.2,0.3,0.7,0.2,0.9,0.5c0.1,0,0.1,0.1,0.2,0.1c0-0.3-0.2-0.5-0.2-0.8c0-0.1,0-0.3,0.1-0.4C20.4,20.9,20.6,21.1,20.7,21.2
		L20.7,21.2z"/>
	<path class="st0" d="M9.1,21.2c0,0.1-0.1,0.2-0.1,0.2c-0.1,0-0.2-0.1-0.2-0.1c0-0.1,0-0.2,0.1-0.2C8.9,21,9,21.1,9.1,21.2L9.1,21.2
		z"/>
	<path class="st0" d="M15.8,21.3c0.1,0.4,0.1,0.9-0.1,1.2c0,0.1,0,0.2-0.1,0.2c-0.3-0.4-0.1-1,0-1.4C15.6,21.2,15.7,21.2,15.8,21.3
		L15.8,21.3z"/>
	<path class="st0" d="M25.1,21.5c0.2,0.3,0.2,0.7,0,1L25,22.6c-0.1-0.3-0.2-0.5-0.2-0.8c0.1-0.2,0.1-0.4,0.1-0.6
		C25,21.2,25,21.4,25.1,21.5L25.1,21.5z"/>
	<path class="st0" d="M9.9,21.6c-0.1,0.1-0.2,0.2-0.4,0.3c-0.3,0.2-0.6,0.2-1,0.2C8.9,21.6,9.3,21.4,9.9,21.6
		C9.8,21.6,9.9,21.5,9.9,21.6L9.9,21.6z"/>
	<path class="st0" d="M5.5,22c0.4,0.3,0.5,0.7,0.7,1.1c0,0,0.1,0.1,0.1,0.1c-0.1,0.1-0.2-0.1-0.3,0C5.6,23,5.3,22.5,5.4,22
		C5.4,22,5.4,22,5.5,22L5.5,22z"/>
	<path class="st0" d="M24.7,22.3c0,0.1,0,0.2-0.1,0.3c-0.1,0-0.2,0-0.2-0.1c0-0.1,0-0.1,0.1-0.2C24.4,22.2,24.6,22.2,24.7,22.3
		L24.7,22.3z"/>
	<path class="st0" d="M29.2,22.9c0-0.2,0.1-0.4,0.1-0.6c0-0.1,0.1-0.1,0-0.2c0.3-0.4,0.8-0.2,1.2-0.2c0.2,0.1,0.4,0.1,0.5,0.1
		c0.1-0.1,0.2-0.1,0.3-0.1c0.3-0.2,0.1-0.6,0.1-0.9l-0.1-0.3c0-0.1-0.1-0.1-0.1-0.2c-0.1-0.1-0.1-0.2-0.2-0.3
		c-0.2-0.5-0.5-0.8-0.8-1.1c-0.6-0.7-1.4-1.1-2.3-1.4c-0.9-0.3-1.7,0.1-2.5,0.4c-0.2-0.1-0.4-0.3-0.4-0.5c0-0.4,0-0.8,0.2-1.2
		c0-0.3,0.2-0.5,0.3-0.7c0.2-0.6,0.4-1.2,0.4-1.9c0-0.4-0.3-0.7-0.6-0.9c-0.2-0.1-0.4,0-0.6,0.1c-0.1,0.3-0.4,0.5-0.7,0.6
		c0,0.2,0.2,0.1,0.3,0.1c0.2,0,0.5,0,0.7,0.1c0,0.4-0.2,0.8-0.5,1.1c-0.4,0.5-0.8,1.1-1,1.7l0,0l0.1,2.7c0.3,0.6,0.8,1.2,1.4,1.5
		c0.3,0.3,0.8,0.6,1.2,0.4c0.2-0.1,0.3,0.3,0.4,0.4c0.1,0.4-0.2,0.7-0.2,1.1l-0.3,0.6c-0.3,0.6-0.6,1.3-1.1,1.8
		c-0.2,0-0.3,0.2-0.4,0.2c-0.1,0.1-0.3,0-0.4,0.1c-0.3,0.1-0.8,0.1-1,0.4c0,0,0.1,0,0.1,0.1c0.7,0,1.4,0.1,2.1,0
		c0.1,0,0.2-0.1,0.2-0.2c-0.1-0.2,0-0.4,0.1-0.5c0.1-0.3,0.2-0.4,0.3-0.7c0.2-0.4,0.5-0.9,0.7-1.3l0.3-0.5c0.1-0.2,0.2-0.4,0.3-0.6
		c0.1-0.1,0.1-0.2,0.2-0.3c0-0.1,0-0.2-0.1-0.2c0.1-0.1,0.2-0.1,0.3-0.1c0.3,0.2,0.6,0.4,0.6,0.7l0.1,0.3l0,0.1l0,0.4l0,0.3
		c0.1,0.5,0,1.1-0.1,1.6c-0.2,0.6-0.9,0.6-1.4,0.7c-0.1,0.1-0.4,0-0.4,0.3c0.6,0.1,1.4,0.1,2,0c0.1,0,0.1-0.1,0.2-0.2
		c0-0.1,0.2-0.3,0.1-0.4c-0.1-0.2,0-0.4,0-0.6c0-0.1,0-0.1,0-0.2c0.1-0.3,0.1-0.7,0.1-1L29.2,22.9L29.2,22.9z"/>
	<path class="st0" d="M34.6,22.5c-0.3,0.5-0.7,1.1-1.3,1.2c0,0-0.1,0-0.1,0c0.4-0.4,0.6-1,1.1-1.1C34.4,22.5,34.5,22.4,34.6,22.5
		L34.6,22.5z"/>
	<path class="st0" d="M4.9,23c-0.1,0,0,0.1-0.1,0.2c-0.1,0-0.2,0-0.2-0.1c0-0.1,0.1-0.2,0.1-0.2C4.8,22.9,4.9,22.9,4.9,23L4.9,23z"
		/>
	<path class="st0" d="M8.1,23.2c0,0.1-0.1,0.1-0.1,0.1c-0.5,0.2-0.9,0-1.2-0.3c0,0,0-0.1,0-0.1C7.2,23,7.7,22.9,8.1,23.2L8.1,23.2z"
		/>
	<path class="st0" d="M5.5,23c0,0,0,0.1,0,0.2c-0.1,0.1-0.2,0.1-0.3,0.1c-0.1,0-0.1-0.1-0.1-0.1c0-0.1,0.1-0.2,0.2-0.2
		C5.4,23,5.5,23,5.5,23L5.5,23z"/>
	<path class="st0" d="M15.7,23.1c0,0.1-0.1,0.2-0.1,0.2c-0.1,0-0.2,0-0.2-0.1c0-0.1,0-0.2,0.1-0.2C15.5,23,15.7,23,15.7,23.1
		L15.7,23.1z"/>
	<path class="st0" d="M35,23.1c0,0.1-0.1,0.2-0.1,0.2c-0.1,0-0.1,0-0.2,0c0-0.1-0.1-0.1-0.1-0.2c0-0.1,0.1-0.1,0.2-0.1
		C34.9,23.1,34.9,23.1,35,23.1L35,23.1z"/>
	<path class="st0" d="M35.7,23.1c0.1,0.1,0,0.2,0,0.3c0,0.1-0.1,0.1-0.2,0.1c-0.1-0.1-0.2-0.1-0.2-0.2c0-0.1,0.1-0.2,0.2-0.2
		C35.6,23,35.6,23.1,35.7,23.1L35.7,23.1z"/>
	<path class="st0" d="M4.5,23.4c0,0.1-0.1,0.1-0.1,0.2c-0.1,0-0.1,0.1-0.2,0c-0.1,0-0.1-0.1-0.2-0.2c0-0.1,0.1-0.2,0.2-0.2
		C4.3,23.3,4.4,23.3,4.5,23.4L4.5,23.4z"/>
	<path class="st0" d="M27.3,23.4c0,0,0,0.1,0,0.1c-0.1,0.1-0.2,0.2-0.3,0.1C27,23.6,27,23.5,27,23.4C27.1,23.3,27.3,23.3,27.3,23.4
		L27.3,23.4z"/>
	<path class="st0" d="M6.2,23.6c0,0.1-0.1,0.2-0.2,0.2c-0.1,0-0.1-0.1-0.2-0.1c0-0.1,0-0.2,0.1-0.3C6.1,23.3,6.2,23.4,6.2,23.6
		L6.2,23.6z"/>
	<path class="st0" d="M5.2,23.6c0,0.1,0,0.2-0.1,0.2c-0.1,0-0.2-0.1-0.3-0.2c0-0.1,0.1-0.2,0.2-0.3C5.1,23.4,5.1,23.5,5.2,23.6
		L5.2,23.6z"/>
	<path class="st0" d="M28.1,23.6c0,0.1,0,0.2-0.1,0.3c-0.1,0-0.2-0.1-0.3-0.2c0.1-0.1,0.1-0.2,0.2-0.2C27.9,23.4,28,23.5,28.1,23.6
		L28.1,23.6z"/>
	<path class="st0" d="M5.7,23.6c0,0.1,0,0.1-0.1,0.2c-0.1,0-0.1,0.1-0.2,0c0-0.1-0.1-0.1-0.1-0.2c0-0.1,0.1-0.2,0.1-0.2
		C5.6,23.4,5.7,23.5,5.7,23.6L5.7,23.6z"/>
	<path class="st0" d="M34.4,23.7c0,0.1-0.1,0.1-0.2,0.2c-0.1,0-0.1-0.1-0.2-0.1c-0.1,0,0-0.1,0-0.2C34.1,23.4,34.4,23.5,34.4,23.7
		L34.4,23.7z"/>
	<path class="st0" d="M35.2,23.7c0,0.1-0.2,0.2-0.3,0.2c-0.1,0-0.2-0.1-0.1-0.3c0,0,0.1-0.1,0.1-0.1C35.1,23.5,35.2,23.6,35.2,23.7
		L35.2,23.7z"/>
	<path class="st0" d="M30.1,23.8c0.1,0.1-0.1,0.2-0.2,0.3c-0.1,0-0.1,0-0.2-0.1c0-0.1,0-0.2,0.2-0.3C29.9,23.7,30,23.7,30.1,23.8
		L30.1,23.8z"/>
	<path class="st0" d="M27.1,23.9c0.1,0,0,0.1,0,0.1c-0.1,0-0.2,0.2-0.2,0.1c-0.1,0-0.1-0.1-0.1-0.2C26.8,23.8,27,23.8,27.1,23.9
		L27.1,23.9z"/>
	<path class="st0" d="M27.7,24c0,0.1,0,0.1-0.1,0.2c-0.1,0.1-0.2,0-0.2,0c0,0,0-0.1,0-0.2c0,0,0.1-0.1,0.1-0.1
		C27.6,23.9,27.6,23.9,27.7,24L27.7,24z"/>
	<path class="st0" d="M9.3,24c0.1,0.1,0,0.1,0,0.2c-0.1,0.1-0.2,0.1-0.3,0.1c-0.1,0-0.1-0.2-0.1-0.3c0.1,0,0.1-0.1,0.2-0.1
		C9.1,23.9,9.2,24,9.3,24L9.3,24z"/>
	<path class="st0" d="M31.2,24.1c0,0.1-0.1,0.2-0.2,0.2c-0.1,0-0.2-0.1-0.2-0.1c0-0.1,0.1-0.1,0.1-0.2C31,23.9,31.1,24,31.2,24.1
		L31.2,24.1z"/>
	<path class="st0" d="M30.6,24.1c0,0.1-0.1,0.2-0.1,0.2c-0.1,0-0.2,0-0.2,0c-0.1,0-0.1-0.1-0.1-0.2c0.1-0.1,0.1-0.1,0.2-0.1
		C30.5,23.9,30.6,24,30.6,24.1L30.6,24.1z"/>
	<path class="st0" d="M35.5,24.2c0,0.2-0.2,0.1-0.2,0.1c-0.5,0.3-1,0.1-1.5-0.1c0-0.1,0.2-0.1,0.3-0.1C34.6,23.8,35,24.2,35.5,24.2
		L35.5,24.2L35.5,24.2z"/>
	<path class="st0" d="M5.8,24.1L5.8,24.1c-0.4,0.3-1,0.5-1.4,0.3l0-0.1C4.7,24,5.3,24,5.8,24.1L5.8,24.1L5.8,24.1z"/>
	<path class="st0" d="M32.3,24.2c0,0.1,0,0.2-0.1,0.2c-0.1,0-0.2,0-0.3-0.1c0-0.1,0.1-0.2,0.1-0.2C32.2,24,32.3,24,32.3,24.2
		L32.3,24.2z"/>
	<path class="st0" d="M7.8,24.2c0,0.1,0,0.2-0.1,0.2c-0.1,0-0.2-0.1-0.3-0.1c0-0.1,0.1-0.2,0.1-0.2C7.6,24,7.7,24.1,7.8,24.2
		L7.8,24.2z"/>
	<path class="st0" d="M7,24.3c0,0.1,0,0.1-0.1,0.2c-0.1,0.1-0.2,0.1-0.2,0c-0.1-0.1-0.2-0.1-0.1-0.3c0.1-0.1,0.1-0.1,0.2-0.1
		C6.9,24.1,7,24.1,7,24.3L7,24.3z"/>
	<path class="st0" d="M33.1,24.5c0,0.1-0.1,0.2-0.2,0.2c-0.1,0-0.2-0.1-0.2-0.1c0-0.1,0-0.2,0-0.2c0,0,0.1,0,0.1-0.1
		C33,24.3,33.1,24.4,33.1,24.5L33.1,24.5z"/>
	<path class="st0" d="M6.2,24.4c0,0.1,0,0.1-0.1,0.2c0,0.2-0.2,0.3-0.2,0.5c-0.2,0.3-0.5,0.3-0.8,0.3l0-0.1
		C5.4,24.9,5.7,24.6,6.2,24.4L6.2,24.4L6.2,24.4z"/>
	<path class="st0" d="M32.5,24.6c0,0.1-0.1,0.2-0.2,0.2c-0.1,0-0.2-0.1-0.2-0.1c0-0.1,0.1-0.2,0.1-0.2
		C32.4,24.5,32.5,24.5,32.5,24.6L32.5,24.6z"/>
	<path class="st0" d="M7.4,24.6C7.4,24.6,7.4,24.7,7.4,24.6c0,0.2-0.1,0.2-0.1,0.3c-0.1,0-0.2,0-0.2-0.1c0-0.1,0-0.2,0.1-0.3
		C7.3,24.5,7.4,24.5,7.4,24.6L7.4,24.6z"/>
	<path class="st0" d="M34.5,25c0.1,0,0.1-0.1,0.2-0.2c0.1,0,0.2,0,0.3,0.1c0,0.1-0.1,0.2-0.1,0.3c-0.1,0.1-0.2-0.1-0.2,0.1
		c0.1,0.1,0.1,0.1,0.2,0.2c0,0-0.1,0-0.1,0c-0.3-0.1-0.7-0.3-0.8-0.7c0-0.1-0.2-0.2-0.1-0.3C34.1,24.5,34.4,24.8,34.5,25L34.5,25z"
		/>
	<path class="st0" d="M35.6,24.6c0.1,0.1,0,0.2,0,0.2c-0.1,0.1-0.2,0.1-0.3,0.1c-0.1-0.1-0.1-0.1-0.1-0.2c0-0.1,0.1-0.1,0.2-0.1
		C35.4,24.5,35.5,24.6,35.6,24.6L35.6,24.6z"/>
	<path class="st0" d="M31.6,25.2c0.1,0.1,0.2,0.3,0.2,0.4c0,0-0.1,0-0.1,0c-0.4-0.2-0.8-0.4-1-0.9c0,0-0.1-0.1-0.1-0.2
		c0.3-0.1,0.6,0.2,0.7,0.3C31.5,25,31.6,25.1,31.6,25.2L31.6,25.2z"/>
	<path class="st0" d="M6.8,24.8c0,0.1,0,0.2-0.1,0.2c-0.1,0-0.2,0-0.3-0.1c-0.1-0.1,0.1-0.2,0.2-0.3C6.7,24.6,6.8,24.7,6.8,24.8
		L6.8,24.8z"/>
	<path class="st0" d="M33,25c0,0.1-0.1,0.1-0.1,0.2c-0.1,0-0.2,0-0.2,0c0-0.1-0.1-0.1,0-0.2C32.8,24.8,32.9,24.9,33,25L33,25z"/>
	<path class="st0" d="M35.7,25.2c0,0.1-0.1,0.2-0.2,0.3c-0.1,0-0.2,0-0.3-0.1c-0.1-0.1,0-0.1,0-0.2c0.1-0.1,0.2-0.1,0.3-0.1
		C35.6,25.1,35.7,25.1,35.7,25.2L35.7,25.2z"/>
	<path class="st0" d="M28.2,26.7c0,0.1-0.2,0.1-0.3,0.2c-0.3,0.2-0.7,0.2-1.1,0.2V27C27.1,26.7,27.7,26.6,28.2,26.7L28.2,26.7z"/>
	<path class="st0" d="M12.3,27.2c0,0.1-0.1,0.2-0.2,0.2c-0.1,0-0.2,0-0.2-0.1c0-0.1,0.1-0.2,0.1-0.2C12.2,27,12.3,27.1,12.3,27.2
		L12.3,27.2z"/>
	<path class="st0" d="M28,27.3c0,0.1-0.1,0.2-0.2,0.3c-0.1,0-0.2,0-0.2-0.1c-0.1,0,0-0.1,0-0.2C27.6,27.1,27.9,27.1,28,27.3L28,27.3
		z"/>
	<path class="st0" d="M30.2,27.3c-0.3,0.2-0.6,0.4-0.9,0.4l-0.6,0l-0.1,0C29,27.2,29.6,27.2,30.2,27.3L30.2,27.3L30.2,27.3z"/>
	<path class="st0" d="M9.4,27.6c0,0.1,0,0.2-0.1,0.2c-0.1,0-0.2,0-0.2-0.1c0-0.1,0-0.2,0.1-0.3C9.2,27.4,9.3,27.5,9.4,27.6L9.4,27.6
		z"/>
	<path class="st0" d="M9.9,27.7c0,0.1,0,0.1,0,0.1c-0.1,0-0.2,0.1-0.2,0c-0.1,0-0.1-0.1-0.1-0.2c0-0.1,0.1-0.1,0.1-0.1
		C9.8,27.6,9.9,27.6,9.9,27.7L9.9,27.7z"/>
	<path class="st0" d="M5.8,28.8c-0.1,0.1-0.3,0-0.4-0.1C5,28.5,5,28.1,4.6,27.8c0-0.1,0.1,0,0.2,0c0.1,0,0.2,0.1,0.2,0.1
		C5.4,28.1,5.5,28.5,5.8,28.8L5.8,28.8z"/>
	<path class="st0" d="M37.4,24.6c-0.2-0.3-0.5-0.4-0.8-0.4c-0.3,0-0.5,0.2-0.6,0.4c-0.1,0.2,0,0.5,0.2,0.6c0.1,0,0.2,0,0.2-0.1
		c0.1-0.1-0.1-0.1-0.1-0.3c0-0.2,0-0.3,0.1-0.4c0.1-0.1,0.3-0.1,0.4-0.1c0.1,0.1,0.3,0.2,0.3,0.3c0.1,0.2,0.1,0.4,0,0.6
		c-0.1,0.3-0.4,0.5-0.7,0.5C35.6,26,25.7,26,25.7,26c-1.2,0.1-2.5-0.2-3.5,0.4c-0.5,0.2-0.7,0.7-0.8,1.2c-0.3,0.3-0.6,0.6-0.8,0.9
		l0,0c0.1-0.3,0.2-0.5,0.2-0.8c0.2-0.2,0.2-0.5,0.3-0.8c0.4-0.7,0.8-1.3,1.4-1.8c0.3-0.4,0.7-0.3,1.2-0.3c0.4,0.2,1,0.3,1.5,0.2
		c0,0,0,0,0-0.1c-0.2-0.1-0.4-0.2-0.6-0.3c-0.4-0.2-0.8,0.1-1.3,0c0,0,0,0,0-0.1c0.4-0.3,0.9-0.5,1.3-0.7c0.4-0.2,0.8-0.3,1.2-0.5
		c0.2,0,0.3-0.1,0.5,0l0.6-0.2c0,0,0,0,0.1,0c0.5-0.2,1.1,0,1.7,0l0.1,0.1l0.5,0.1c0.2,0,0.3,0.3,0.5,0.3c0.1-0.2-0.1-0.2-0.2-0.3
		c0.2-0.1,0.5,0,0.7,0.1l-0.1,0.1c-0.1,0.1,0,0.2,0.1,0.3c0.1,0,0.1,0,0.2-0.1c0.1-0.1,0-0.2,0-0.3c0.8,0.1,1.6,0.3,2.3,0.7
		c0.2,0.1,0.4,0.2,0.6,0.2c-0.2-0.2-0.5-0.3-0.8-0.4c-0.2-0.1-0.4-0.1-0.6-0.3c0-0.1,0.1,0,0.1-0.1c0.4,0,0.7-0.3,0.9-0.6
		c0-0.1,0.1,0,0.1-0.1c-0.1-0.1-0.3,0-0.4,0c-0.5,0.1-0.7,0.6-1.1,0.7c-0.6-0.1-1.1-0.3-1.7-0.4c-0.3,0-0.6-0.1-0.8-0.2l-0.6-0.1
		h-1.1c0,0,0,0,0-0.1c0.4-0.1,0.7-0.3,1.1-0.4l2.9-1.3c0.3-0.3,0.6-0.6,0.8-0.9c0-0.1,0-0.2-0.1-0.2c-0.1,0-0.2,0-0.2,0
		c-0.1,0.1,0,0.2,0,0.3c-0.1,0.2-0.3,0.3-0.5,0.4c0,0-3,1.3-3,1.3c-0.4,0.2-0.9,0.4-1.3,0.5l-0.6,0.1c0,0.1-0.2,0.2-0.3,0.3
		c-0.2,0-0.3,0.1-0.5,0.1c-1.4,0.5-2.9,1.1-4,2.2c0.1-0.1,0.1-0.3,0.1-0.5c0-0.2,0-0.3-0.1-0.5c0-0.1-0.1-0.2-0.1-0.3l-0.2,0.1
		c-0.1,0.2-0.2,0.7-0.1,0.9c0,0.2,0.2,0.4,0,0.6c-0.5,0.6-0.8,1.4-1.2,2.1c-0.1,0-0.2-0.1-0.3-0.3c0.4-0.5,0.7-1,0.8-1.6
		c0.1-0.1,0-0.2,0.1-0.3c0-0.2,0.1-0.3,0-0.5c0.1-0.2-0.3-0.5-0.1-0.6l-0.2,0.1c-0.5,0.6,0.2,1.5-0.3,2.1v0
		c-0.2,0.2-0.2,0.4-0.4,0.5c-0.3-0.1-0.4-0.4-0.5-0.6c-0.2-0.2-0.2-0.7-0.1-1c0.1-0.3-0.1-0.6-0.1-0.9l-0.1-0.1
		c-0.3,0.3-0.4,0.9-0.2,1.3c0.1,0.2,0.1,0.5,0.3,0.6c0.1,0.3,0.3,0.5,0.5,0.8c0,0.1-0.1,0.1-0.1,0.2c-0.1-0.1-0.1-0.3-0.2-0.3
		c-0.4-0.8-0.8-1.4-1.4-2c0-0.1-0.1-0.2-0.1-0.3c0.2-0.2,0.3-0.6,0.1-0.8c0-0.1-0.1-0.1-0.1-0.2l-0.2-0.1c0,0.4-0.2,0.7-0.1,1.1v0
		c-1.1-0.8-2.4-1.6-3.6-2.2L14,23.2c0.3,0.1,1.2,0.6,1.2,0.6c0.4,0.1,0.7,0.4,1.1,0.6c1.5,0.8,2.5,2.2,3.1,3.7c0,0.1,0.1,0.3,0,0.4
		c-0.2-0.4-0.6-0.5-0.8-0.8c-0.1-0.5-0.4-1-0.8-1.2c-0.2-0.2-0.5-0.3-0.8-0.3l-4,0c-3.2,0-6.1,0.1-9.3,0c-0.4,0-1-0.2-1.1-0.7
		c-0.1-0.2-0.1-0.4,0-0.6c0.1-0.2,0.3-0.3,0.6-0.3c0.2,0,0.3,0.2,0.4,0.3c0,0.1-0.1,0.3-0.2,0.4c0,0,0.1,0.1,0.1,0.1
		c0.1-0.1,0.2-0.2,0.3-0.3c0-0.1,0-0.2,0-0.2c-0.1-0.2-0.3-0.4-0.5-0.4c-0.3,0-0.6,0.1-0.7,0.3c-0.3,0.2-0.2,0.6-0.2,0.9
		c0.2,0.5,0.7,0.8,1.2,0.9l10.6,0c1,0.1,2.2-0.1,3.2,0.1c0.4,0.1,0.8,0.4,0.9,0.8c0,0,0,0-0.1,0c-0.9-0.6-2-0.8-3.1-0.6
		c-0.4,0-0.8,0.1-1.2,0.3c-0.2,0-0.4-0.1-0.5-0.2c-0.4-0.4-1.1-0.3-1.6-0.2c0,0,0,0.1,0,0.1c0.5,0,0.8,0.4,1.3,0.5
		c0.1,0,0.2-0.1,0.3,0c-0.5,0.2-1,0.5-1.5,0.7c-0.2,0-0.2-0.2-0.4-0.3c-0.2-0.2-0.6-0.1-0.9-0.2c-0.1,0-0.2,0-0.3,0
		c0.1,0.2,0.3,0.3,0.5,0.4c0.3,0.1,0.6,0,0.8,0.2c-0.1,0.1-0.2,0.1-0.2,0.2c-0.5,0.2-0.9,0.7-1.5,0.6c-0.6,0.1-1.2-0.1-1.6-0.5
		c-0.2-0.4-0.6-0.7-1.1-0.6c0,0-0.1,0-0.1,0.1c0.2,0.1,0.4,0.4,0.7,0.6c0.2,0.2,0.4,0,0.6,0.2c0.2,0.1,0.5,0.3,0.7,0.3
		c0.2,0.1,0.4,0.1,0.6,0.2l-0.1,0c-1,0.3-2.1,0.4-3.2,0.3c-0.3,0-0.6-0.1-1-0.1c0.1,0.1,0.2,0.1,0.3,0.2c-0.1,0.1-0.2,0.1-0.3,0.1
		c-0.1,0-0.3,0-0.4,0.1c-0.2,0-0.3,0.1-0.5,0.1C4.2,29.7,4,29.9,3.8,30c0,0,0,0.1,0,0.1c0.2-0.1,0.5,0,0.7-0.1
		c0.4,0,0.6-0.4,0.8-0.6c0.3-0.2,0.7-0.2,1.1-0.1c0.2,0.1,0,0.1,0,0.3c0.1,0.1,0.2,0.2,0.3,0.1c0,0,0,0,0.1-0.1
		c0.1-0.1,0.1-0.2,0-0.3c0.2-0.1,0.4,0,0.5-0.1c0.4,0,0.8-0.1,1.2-0.1c0.1,0,0.1-0.1,0.2,0c0,0.1-0.1,0.1-0.1,0.2
		c0,0.1,0.1,0.1,0.2,0.2c0.1,0,0.2-0.1,0.2-0.3c0-0.1-0.1-0.1-0.2-0.1c0.2-0.1,0.5-0.1,0.7-0.3c0.2,0,0.3-0.1,0.5-0.2
		c0.1,0,0.3-0.1,0.4-0.1c-0.1,0.2-0.1,0.4-0.2,0.5c-0.2,0.6-0.3,1.3,0,1.9c0,0,0,0,0.1,0c-0.2-0.6-0.1-1.2,0.1-1.8
		c0.2-0.9,1.1-1.2,1.8-1.6l0,0c-0.2,0.5-0.5,0.9-0.4,1.5c0,0.1,0,0.2,0,0.3c0.2-0.1,0.3-0.3,0.4-0.5c0.1-0.5-0.2-1.1,0.3-1.5
		c0.9-0.3,1.7-0.8,2.8-0.8c0,0,0.1,0,0.1,0c-0.2,0.2-0.5,0.5-0.6,0.8c-0.3,0.5-0.3,1.3-0.2,1.9c0.1,0.3-0.2,0.5-0.3,0.8
		c-0.1,0.1-0.1,0.3-0.1,0.4l0.2,0c0.2-0.2,0.4-0.4,0.4-0.7c0,0.1,0.1,0.2,0.2,0.2c0.1-0.1-0.1-0.2-0.1-0.3c0.2-0.1,0.3,0.1,0.4,0.2
		c0.2,0.1,0.4,0.2,0.7,0.2l0.1-0.1c-0.2-0.4-0.7-0.4-1.1-0.5c-0.2-0.4-0.2-0.8-0.2-1.2c0-0.2,0.1-0.5,0.2-0.7
		c0.1-0.2,0.2-0.3,0.3-0.4c0.2-0.2,0.4-0.3,0.7-0.4h0c0,0,0,0,0,0c-0.3,0.2-0.3,0.5-0.5,0.8c-0.2,0.3-0.3,0.6-0.1,1
		c0.1,0.1,0,0.4,0.2,0.5c0.1-0.2,0.2-0.4,0.2-0.7c0-0.4-0.2-0.7,0-1.1c0.1-0.3,0.3-0.4,0.6-0.5c0.6-0.1,1.1,0.3,1.6,0.5
		c0.1,0.1,0.3,0.1,0.3,0.3c0,0.3-0.2,0.6-0.4,0.7c-0.3,0.2-0.7,0.2-1,0c-0.2-0.2-0.2-0.4-0.2-0.7c0.1-0.1,0.3-0.2,0.5-0.2
		c0.1,0.1,0.2,0.2,0.3,0.1c0.1,0,0.1-0.1,0-0.2c-0.1-0.1-0.2-0.2-0.3-0.3c-0.2,0-0.5,0-0.6,0.1c-0.2,0.2-0.3,0.5-0.2,0.8
		c0.1,0.4,0.3,0.6,0.7,0.7c0.5,0.1,1,0,1.3-0.5c0.1-0.1,0.2-0.3,0.2-0.5c0.5,0.3,0.9,0.9,1.1,1.4c0,0.2,0.1,0.4,0,0.5l0.4,0
		c0-0.1,0-0.2,0-0.3c0.1-0.7,0.6-1.3,1.1-1.8c0.2-0.1,0.1,0.1,0.2,0.2c0.2,0.4,0.5,0.7,0.9,0.8c0.5,0.1,0.9,0,1.2-0.4
		c0.1-0.3,0.3-0.6,0.1-0.9c-0.2-0.2-0.4-0.3-0.6-0.3c-0.3,0-0.5,0.2-0.6,0.4c0,0.1,0,0.2,0.1,0.2c0,0,0.1,0,0.2-0.1
		c0-0.2,0.2-0.2,0.3-0.3c0.1-0.1,0.2,0,0.3,0.1c0.1,0.1,0.1,0.3,0.2,0.4c0,0.2-0.2,0.4-0.4,0.5c-0.3,0.2-0.8,0.1-1-0.1
		c-0.1-0.1-0.2-0.3-0.3-0.5c0-0.2-0.1-0.3,0-0.5c0.5-0.3,1-0.5,1.6-0.5c0.2,0,0.4,0.2,0.6,0.4c0.5,0.5-0.1,1.2,0.2,1.8
		c0.1,0,0.1-0.2,0.2-0.3c0.2-0.4,0-0.8-0.1-1.2c-0.1-0.2-0.2-0.4-0.4-0.6c0.1,0,0.1,0,0.1,0c0.2,0.2,0.5,0.3,0.7,0.6
		c0.3,0.5,0.5,1.1,0.4,1.8c-0.1,0.3-0.4,0.5-0.7,0.6c-0.1,0.1-0.2,0.2-0.3,0.4c0.1,0.1,0.3,0,0.4-0.1c0.2-0.1,0.3-0.3,0.5-0.5
		c0,0,0,0,0,0.1c0,0.1-0.1,0.3,0.1,0.3c0.1-0.2,0.1-0.4,0.1-0.6c0.1,0.2,0.2,0.4,0.2,0.5c0.1,0.2,0.3,0.5,0.5,0.5
		c0.1-0.1,0-0.2,0-0.3c0-0.3-0.3-0.4-0.4-0.6c-0.4-0.5-0.2-1.3-0.5-1.9c-0.1-0.3-0.3-0.5-0.6-0.8l0,0c0.5,0,1,0.2,1.5,0.3
		c0.6,0.3,1.5,0.2,1.7,1c0.1,0.4,0.3,0.8,0.6,1.2l0,0c0.1-0.1,0.1-0.3,0-0.4c-0.1-0.5-0.5-0.7-0.8-1.1l0,0c0.3,0.1,0.5,0.1,0.8,0.3
		c0.9,0.2,1.5,1.1,1.6,2c0,0.7-0.1,1.3-0.4,1.9c0,0.1-0.2,0.2-0.1,0.3c0.1-0.1,0.1-0.2,0.2-0.3c0.4-0.6,0.5-1.4,0.4-2.2
		c0-0.1-0.2-0.3-0.1-0.4c0.1,0.1,0.1,0.1,0.2,0.1c0.1,0,0.2,0,0.2-0.1c0-0.1,0.1-0.1,0-0.2C30.1,29,30,29,29.9,29
		c-0.1,0.1-0.1,0.2-0.1,0.2c-0.1-0.2-0.2-0.4-0.4-0.6l0,0c0.5,0.2,0.9,0.4,1.4,0.5c0.1,0.1,0.2,0.1,0.4,0.1c0.4,0.2,0.9,0.2,1.3,0.3
		c0.3,0,0.6,0.1,0.9,0v0l0,0c-0.1-0.2-0.4,0-0.5-0.1c-0.7-0.1-1.5-0.3-2.1-0.5c0,0,0.1,0,0.1,0c0.1-0.1,0.2-0.2,0.2-0.3
		c-0.1-0.1-0.1-0.1-0.2-0.1c-0.1,0-0.2,0.1-0.2,0.2c0,0.1,0.1,0.2,0.2,0.2c0,0-0.1,0-0.1,0c-0.3-0.2-0.7-0.3-1-0.4
		c-0.1,0-0.2-0.1-0.3-0.1c-0.2-0.1-0.5-0.2-0.7-0.3c-0.7-0.4-1.5-0.6-2.2-0.8c-0.2,0-0.3-0.1-0.5-0.1c-0.3-0.1-0.5-0.1-0.8-0.2
		c-0.9-0.2-2.2-0.3-3,0.3c-0.1,0-0.2,0.2-0.3,0c0.2-0.6,0.9-0.8,1.5-0.8c4.4,0,8.4-0.1,12.7-0.1c0.5,0,1-0.2,1.2-0.6
		C37.5,25.3,37.6,24.9,37.4,24.6L37.4,24.6z M20.1,28.6c0,0.1-0.1,0.2-0.1,0.4l0,0c0-0.2-0.1-0.3-0.1-0.4c-0.1-0.1-0.1-0.3-0.2-0.4
		c-0.1-0.2,0.1-0.3,0.2-0.4c0.2,0.1,0.2,0.2,0.3,0.3C20.3,28.3,20.1,28.4,20.1,28.6L20.1,28.6z"/>
	<path class="st0" d="M31.9,27.9C31.9,28,32,28,31.9,27.9c-0.3,0.4-0.9,0.5-1.4,0.6c0,0-0.1,0-0.1,0c0,0,0-0.1,0-0.1
		C30.7,28,31.3,27.8,31.9,27.9L31.9,27.9z"/>
	<path class="st0" d="M30.2,28.1c0,0.2-0.1,0.2-0.2,0.3c-0.1,0-0.2-0.1-0.2-0.2c0-0.1,0-0.1,0.1-0.2C29.9,27.9,30.1,27.9,30.2,28.1
		L30.2,28.1z"/>
	<path class="st0" d="M9.5,28.1c0,0.1,0,0.2-0.1,0.2c0,0.1-0.1,0.1-0.2,0.1c-0.1,0-0.1-0.1-0.1-0.2c0-0.1,0.1-0.2,0.1-0.2
		C9.4,28,9.5,28,9.5,28.1L9.5,28.1z"/>
	<path class="st0" d="M7.6,28.8L7.6,28.8c-0.3,0.1-0.5,0.1-0.7-0.1c-0.2-0.2-0.3-0.4-0.6-0.5c0,0-0.1-0.1,0-0.1
		C6.8,28.1,7.2,28.5,7.6,28.8L7.6,28.8z"/>
	<path class="st0" d="M33.6,28.1c-0.3,0.4-0.5,0.8-0.9,1c-0.1,0-0.1,0.1-0.2,0c0.2-0.4,0.5-0.9,1-1C33.5,28.1,33.5,28.1,33.6,28.1
		L33.6,28.1z"/>
	<path class="st0" d="M10.2,28.2c0,0.1-0.1,0.1-0.2,0.2c-0.1,0-0.1-0.1-0.2-0.1c0-0.1,0.1-0.2,0.1-0.2C10,28.1,10.1,28.2,10.2,28.2
		L10.2,28.2z"/>
	<path class="st0" d="M34.9,28.3c-0.1,0.1-0.1,0.4-0.2,0.5c-0.2,0.3-0.4,0.5-0.7,0.6c-0.1-0.1,0.1-0.2,0.1-0.3
		C34.3,28.7,34.5,28.4,34.9,28.3L34.9,28.3L34.9,28.3z"/>
	<path class="st0" d="M4.2,28.4c0,0.1,0.1,0.2,0,0.2c-0.1,0.1-0.2,0.1-0.2,0c-0.1-0.1-0.1-0.2-0.1-0.3C3.9,28.3,4.1,28.3,4.2,28.4
		L4.2,28.4z"/>
	<path class="st0" d="M3.6,28.5c0,0.1,0,0.1,0,0.2c0,0.1-0.1,0.1-0.2,0.1c-0.1,0-0.2,0-0.2-0.1c0-0.1,0-0.2,0.1-0.2
		C3.4,28.4,3.5,28.5,3.6,28.5L3.6,28.5z"/>
	<path class="st0" d="M4.9,28.6c0,0.1,0,0.2-0.1,0.3c-0.2,0.1-0.2,0-0.3-0.1c0-0.1,0.1-0.2,0.1-0.2C4.7,28.5,4.8,28.5,4.9,28.6
		L4.9,28.6z"/>
	<path class="st0" d="M6.7,28.7c0,0.1,0,0.2-0.1,0.2c-0.1,0.1-0.2,0-0.2,0c0-0.1-0.1-0.1-0.1-0.2c0-0.1,0.1-0.1,0.2-0.1
		C6.5,28.7,6.6,28.7,6.7,28.7L6.7,28.7z"/>
	<path class="st0" d="M36,28.8c0,0.1-0.1,0.2-0.2,0.2c-0.1,0-0.2,0-0.2-0.1c0-0.1,0.1-0.2,0.1-0.2C35.8,28.7,36,28.7,36,28.8
		L36,28.8z"/>
	<path class="st0" d="M34,28.9c0,0.1-0.1,0.2-0.1,0.2c-0.2,0.1-0.3,0-0.3-0.2c0-0.1,0.1-0.2,0.2-0.2C33.9,28.7,33.9,28.8,34,28.9
		L34,28.9z"/>
	<path class="st0" d="M35.4,28.8c0,0.1,0,0.2-0.1,0.2c-0.1,0-0.2,0-0.3,0c-0.1-0.1,0-0.2,0-0.2C35.1,28.7,35.3,28.7,35.4,28.8
		L35.4,28.8z"/>
	<path class="st0" d="M3.9,29c0,0.1,0,0.2-0.1,0.3c-0.1,0-0.2-0.1-0.2-0.2c0-0.1,0-0.2,0.1-0.2C3.8,28.9,3.9,29,3.9,29L3.9,29z"/>
	<path class="st0" d="M33.5,29.2c0,0.1,0,0.2-0.2,0.3c-0.1,0-0.1,0-0.2-0.1c0-0.1-0.1-0.2,0-0.2C33.2,29,33.4,29,33.5,29.2
		L33.5,29.2z"/>
	<path class="st0" d="M9.8,29.3c0,0.1-0.1,0.1-0.1,0.2c0,0-0.1,0-0.2,0c-0.1-0.1-0.1-0.1-0.1-0.2c0.1,0,0.1-0.1,0.1-0.1
		C9.7,29.1,9.7,29.2,9.8,29.3L9.8,29.3z"/>
	<path class="st0" d="M35.8,29.4c0,0.1,0,0.1-0.1,0.2c-0.1,0.1-0.2,0.1-0.2,0c-0.1-0.1-0.1-0.1-0.1-0.2c0.1,0,0.1-0.1,0.2-0.1
		C35.6,29.2,35.8,29.2,35.8,29.4L35.8,29.4z"/>
	<path class="st0" d="M35.1,29.4c0,0.1-0.1,0.2-0.2,0.2c0,0-0.1,0-0.1,0c0.3,0.1,0.5,0.4,0.7,0.6v0.1c-0.4,0-0.8-0.1-1.1-0.4
		c-0.1-0.1-0.2-0.1-0.3-0.1c0.1-0.1,0.4-0.1,0.6-0.1c0.1-0.2-0.2-0.3,0-0.4c0.1,0,0.1-0.1,0.2-0.1C35,29.3,35.1,29.3,35.1,29.4
		L35.1,29.4z"/>
	<path class="st0" d="M30.7,29.4c0,0.1,0,0.1-0.1,0.2c-0.1,0.1-0.2,0.1-0.2,0c-0.1-0.1-0.1-0.1-0.1-0.3
		C30.4,29.2,30.6,29.2,30.7,29.4L30.7,29.4z"/>
	<path class="st0" d="M6.4,29.8c0,0.1-0.1,0.2-0.2,0.2c-0.1,0-0.2,0-0.2-0.1c0-0.1,0-0.1,0.1-0.2C6.2,29.5,6.4,29.6,6.4,29.8
		L6.4,29.8z"/>
	<path class="st0" d="M7.3,29.6c0,0.2-0.2,0.2-0.2,0.4c-0.2,0.4-0.5,0.7-0.9,0.7c0-0.1,0.1-0.2,0.2-0.3C6.5,30.1,6.9,29.9,7.3,29.6
		L7.3,29.6L7.3,29.6z"/>
	<path class="st0" d="M30.4,29.8c0,0.1-0.1,0.2-0.2,0.3c-0.1,0-0.2,0-0.2-0.1c-0.1-0.1,0-0.2,0-0.3C30.1,29.6,30.3,29.7,30.4,29.8
		L30.4,29.8z"/>
	<path class="st0" d="M31.1,29.9c0,0.1-0.1,0.2-0.2,0.2c0,0-0.1,0-0.1,0c-0.1,0-0.1-0.1-0.1-0.2c0.1-0.1,0.1-0.1,0.2-0.2
		C30.9,29.7,31.1,29.7,31.1,29.9L31.1,29.9z"/>
	<path class="st0" d="M9,29.9C9,30,8.9,30,8.8,30.1c-0.1,0-0.2-0.1-0.2-0.1c0-0.1,0.1-0.2,0.1-0.2C8.8,29.7,8.9,29.8,9,29.9L9,29.9z
		"/>
	<path class="st0" d="M9.7,29.9c0,0.1-0.1,0.2-0.2,0.2c-0.1,0-0.2,0-0.2-0.1c0-0.1,0.1-0.2,0.2-0.2C9.6,29.7,9.7,29.8,9.7,29.9
		L9.7,29.9z"/>
	<path class="st0" d="M33.4,30.7c0.1,0,0.2,0.1,0.1,0.2c-0.2,0.1-0.3-0.1-0.5-0.2c-0.3-0.3-0.5-0.5-0.6-0.9c0.1-0.1,0.2,0,0.3,0.1
		C33.1,30.1,33.3,30.3,33.4,30.7L33.4,30.7z"/>
	<path class="st0" d="M33.8,29.9c0,0.1,0,0.2,0,0.2c-0.1,0.1-0.2,0.1-0.3,0.1c-0.1-0.1-0.2-0.2-0.1-0.3c0-0.1,0.1-0.1,0.2-0.1
		C33.7,29.8,33.8,29.9,33.8,29.9L33.8,29.9z"/>
	<path class="st0" d="M10.7,30.2c0,0.1,0,0.2-0.1,0.3c-0.1,0-0.2,0-0.3-0.1c-0.1-0.1,0.1-0.2,0.1-0.2C10.6,30.1,10.6,30.1,10.7,30.2
		L10.7,30.2z"/>
	<path class="st0" d="M31.1,30.9c0.2,0.2,0.3,0.5,0.3,0.8c0,0.1,0.1,0.2,0,0.2h0c-0.5-0.3-0.6-0.8-0.8-1.3c0,0-0.1-0.1,0-0.1
		c0.1-0.1,0.2,0.1,0.3,0.1L31.1,30.9L31.1,30.9z"/>
	<path class="st0" d="M12.1,30.5C12.1,30.5,12.1,30.5,12.1,30.5c-0.4,0.3-1,0.5-1.5,0.2c0,0,0-0.1,0.1-0.1c0.3-0.1,0.6-0.3,1-0.2
		L12.1,30.5L12.1,30.5z"/>
	<path class="st0" d="M9.6,30.6c-0.4,0.2-0.7,0.7-1.2,0.8c-0.1,0-0.1,0.2-0.2,0.1C8.4,30.9,9.1,30.5,9.6,30.6L9.6,30.6L9.6,30.6z"/>
	<path class="st0" d="M30.4,31.1c0,0.1,0,0.2-0.1,0.2c-0.1,0.1-0.2,0.1-0.2,0c-0.1,0-0.1-0.1-0.1-0.2c0-0.1,0.1-0.1,0.2-0.1
		C30.3,31,30.4,31,30.4,31.1L30.4,31.1z"/>
	<path class="st0" d="M29.5,31.1c-0.1,0.2-0.2,0.2-0.4,0.3c-0.4,0.1-0.7,0-1-0.1c0-0.1,0.1-0.1,0.2-0.1c0.4-0.1,0.7-0.2,1.1-0.1
		C29.4,31.1,29.5,31.1,29.5,31.1L29.5,31.1z"/>
	<path class="st0" d="M9.6,31.4c0,0,0,0.1-0.1,0.2c-0.1,0-0.2,0-0.2,0c0-0.1-0.1-0.1,0-0.2c0-0.1,0.1-0.1,0.2-0.1
		C9.5,31.3,9.6,31.3,9.6,31.4L9.6,31.4z"/>
	<path class="st0" d="M10.3,31.5c0,0.1-0.1,0.2-0.2,0.2c-0.1,0-0.2,0-0.2-0.1c0-0.1-0.1-0.1,0-0.2c0-0.1,0.1-0.1,0.2-0.1
		C10.1,31.3,10.2,31.5,10.3,31.5L10.3,31.5z"/>
	<path class="st0" d="M30.2,31.6c0,0.1,0,0.1-0.1,0.2c-0.1,0.1-0.2,0.1-0.2,0c-0.1,0-0.1-0.1-0.1-0.2c-0.1-0.1,0-0.1,0.1-0.2
		C30,31.4,30.2,31.5,30.2,31.6L30.2,31.6z"/>
	<path class="st0" d="M30.7,31.6c0,0.1,0,0.1,0,0.2c-0.1,0.1-0.1,0.2-0.2,0.1c-0.1,0-0.1-0.1-0.1-0.1c0-0.1,0-0.3,0.1-0.3
		C30.6,31.5,30.6,31.6,30.7,31.6L30.7,31.6z"/>
	<path class="st0" d="M9.9,31.9c0,0.1,0,0.2-0.1,0.3c-0.1,0-0.3,0-0.3-0.1c0-0.1,0-0.3,0.1-0.3C9.7,31.8,9.8,31.8,9.9,31.9L9.9,31.9
		z"/>
	<path class="st0" d="M10.5,31.9c0,0.3-0.1,0.7-0.4,0.9c-0.2,0-0.3,0.2-0.5,0.1v-0.1C9.8,32.5,10.2,32.2,10.5,31.9L10.5,31.9z"/>
	<path class="st0" d="M28.5,32.2c0,0.1,0,0.1-0.1,0.2c-0.1,0.1-0.2,0-0.3,0c-0.1,0-0.1-0.1-0.1-0.2c0-0.1,0.1-0.1,0.1-0.1
		C28.4,32,28.5,32.1,28.5,32.2L28.5,32.2z"/>
	<path class="st0" d="M11.6,32.7c0.2,0.3,0.1,0.6,0.2,0.9c-0.2,0-0.3-0.2-0.4-0.3c-0.2-0.3-0.2-0.8-0.3-1.1c0,0,0.1,0,0.1,0
		c0.2,0.1,0.3,0.3,0.4,0.5C11.5,32.6,11.6,32.6,11.6,32.7L11.6,32.7z"/>
	<path class="st0" d="M29.1,32.2c0,0.1-0.1,0.1-0.2,0.2c-0.1,0-0.1,0-0.2-0.1c0-0.1,0.1-0.1,0.1-0.2C28.9,32.1,29,32.1,29.1,32.2
		L29.1,32.2z"/>
	<path class="st0" d="M30.3,33.2C30.3,33.2,30.3,33.3,30.3,33.2l-0.1,0.1c-0.3-0.3-0.6-0.6-0.6-1l0.1,0C30,32.5,30.3,32.8,30.3,33.2
		L30.3,33.2z"/>
	<path class="st0" d="M29.5,32.9c0,0.1,0,0.2-0.1,0.2c-0.1,0-0.3,0-0.3-0.1c0-0.1,0.1-0.2,0.2-0.2C29.4,32.7,29.5,32.8,29.5,32.9
		L29.5,32.9z"/>
	<path class="st0" d="M28.8,33.1c-0.2,0.4-0.6,0.6-0.8,0.9c-0.1,0,0-0.1,0-0.2c0.1-0.4,0.4-0.8,0.8-1C29,32.9,28.8,33,28.8,33.1
		L28.8,33.1z"/>
	<path class="st0" d="M29.6,33.4c0,0.1-0.1,0.1-0.2,0.2c-0.1,0-0.2,0-0.2-0.1c0-0.1,0.1-0.1,0.1-0.2C29.5,33.3,29.6,33.3,29.6,33.4
		L29.6,33.4z"/>
	<path class="st0" d="M21.5,13.6c0.1,0,0.3,0.1,0.3,0.3c0,0.1-0.1,0.3-0.3,0.3h-3.2c-0.1,0-0.3-0.1-0.3-0.3c0-0.1,0.1-0.3,0.3-0.3
		H21.5L21.5,13.6z M19.3,14c0.3,0,0-0.4-0.2-0.4h-0.3c-0.3,0,0,0.4,0.2,0.4H19.3L19.3,14z M20.6,14c0.3,0,0-0.4-0.2-0.4h-0.3
		c-0.3,0,0,0.4,0.2,0.4H20.6L20.6,14z M21.6,13.6h-0.1c-0.3,0,0,0.4,0.1,0.4C21.8,14,21.8,13.6,21.6,13.6L21.6,13.6z"/>
	<path class="st0" d="M21.3,17.3l0.6,0.2l0.6-0.2l-0.2,0.9l0.5-0.1l-0.2,0.5l0.2,0.5L22.3,19l0.2,1l-0.6-0.2L21.3,20l0.3-1L21,19.2
		l0.1-0.5L21,18.1l0.5,0.1L21.3,17.3L21.3,17.3z M22.2,18.9c0.1,0,0.2-0.2,0.2-0.4c0-0.4-0.3,0-0.4-0.4c-0.1,0.3-0.4,0-0.4,0.3
		c0,0.2,0,0.4,0.2,0.4H22.2L22.2,18.9z M21.6,18.6c0,0.1,0.2,0,0.3,0s0.3,0.1,0.3,0c0-0.2-0.2-0.1-0.3-0.1S21.6,18.4,21.6,18.6
		L21.6,18.6z"/>
	<polygon class="st0" points="19.8,18.6 19.8,18.5 19.7,18.5 19.8,18.4 19.7,18.3 19.9,18.3 19.9,18.2 20,18.3 20.1,18.3 20,18.4 
		20.1,18.5 20,18.5 20,18.6 19.9,18.5 19.8,18.6 	"/>
	<polygon class="st0" points="19.3,19.2 19.3,19.1 19.2,19.1 19.3,19 19.3,18.9 19.4,18.9 19.4,18.8 19.5,18.9 19.6,18.9 19.6,19 
		19.6,19.1 19.5,19.1 19.5,19.2 19.4,19.1 19.3,19.2 	"/>
	<polygon class="st0" points="20.2,19.1 20.2,19 20.1,19 20.1,18.9 20.1,18.8 20.2,18.8 20.3,18.7 20.3,18.8 20.4,18.8 20.4,18.9 
		20.5,19 20.3,19 20.3,19.1 20.3,19.1 20.2,19.1 	"/>
	<polygon class="st0" points="20.2,19.6 20.2,19.5 20.2,19.5 20.2,19.5 20.2,19.4 20.3,19.4 20.3,19.4 20.3,19.4 20.4,19.4 
		20.4,19.5 20.4,19.5 20.4,19.5 20.4,19.6 20.3,19.5 20.2,19.6 	"/>
	<polygon class="st0" points="19.5,20.1 19.5,19.9 19.3,19.9 19.5,19.7 19.4,19.6 19.6,19.6 19.7,19.4 19.8,19.6 20,19.6 19.9,19.7 
		20,19.9 19.8,19.9 19.8,20.1 19.7,20 19.5,20.1 	"/>
	<polygon class="st0" points="19.9,9.8 20.3,10.7 21.2,10.4 20.7,11.3 21.6,11.9 20.6,12.1 20.6,13.1 19.9,12.4 19.1,13.1 
		19.2,12.1 18.2,11.9 19,11.3 18.5,10.4 19.5,10.7 19.9,9.8 	"/>
	<path class="st0" d="M16.4,30.9c-0.1,0-0.2,0.1-0.1,0.2l0.1,0.6c0,0.1,0,0.3,0,0.4c-0.1,0.1-0.3,0.2-0.4,0.2c-0.1,0-0.3,0.1-0.5,0
		c-0.1,0-0.2-0.1-0.2-0.3l-0.1-0.6c0-0.2-0.1-0.1-0.2-0.1l0,0l0.7-0.2l0,0c-0.1,0-0.2,0.1-0.2,0.2l0.1,0.6c0,0.1,0.1,0.4,0.4,0.3
		c0.4-0.1,0.3-0.4,0.3-0.5l-0.1-0.6c0-0.1-0.1-0.2-0.3-0.1l0,0L16.4,30.9L16.4,30.9L16.4,30.9z"/>
	<path class="st0" d="M17.5,31c-0.1-0.1-0.2-0.3-0.5-0.2c-0.1,0-0.2,0.1-0.2,0.2c0,0.1,0.1,0.1,0.3,0.2l0.3,0.1
		c0.1,0,0.3,0.1,0.3,0.3c0,0.2-0.1,0.4-0.5,0.5c-0.2,0-0.3,0-0.4,0c0,0,0,0-0.1,0.1l-0.1,0l-0.1-0.4l0.1,0c0.1,0.2,0.3,0.4,0.5,0.3
		c0.3-0.1,0.2-0.2,0.2-0.3c0-0.1-0.1-0.1-0.3-0.2l-0.2,0c-0.4-0.1-0.4-0.2-0.5-0.3c0-0.1,0-0.4,0.4-0.5c0.2,0,0.3,0,0.4,0
		c0,0,0.1,0,0.1-0.1l0.1,0L17.5,31L17.5,31L17.5,31z"/>
	<path class="st0" d="M18.9,31.7l-0.8,0.1l0,0c0.2,0,0.2,0,0.2-0.2l-0.1-1c-0.2,0-0.4,0.1-0.4,0.4l-0.1,0l0-0.4l1.3-0.1l0,0.4
		l-0.1,0c-0.1-0.3-0.3-0.3-0.5-0.3l0.1,1C18.7,31.7,18.7,31.7,18.9,31.7L18.9,31.7L18.9,31.7z"/>
	<path class="st0" d="M20.7,31.7l-0.5,0l-0.4-0.6l-0.1,0l0,0.4c0,0.1,0,0.2,0.2,0.2l0,0l-0.7,0l0,0c0.2,0,0.2,0,0.2-0.2l0-0.8
		c0-0.2-0.1-0.2-0.2-0.2l0,0l0.7,0c0.2,0,0.6,0,0.6,0.3c0,0.2-0.2,0.3-0.4,0.3L20.7,31.7C20.7,31.7,20.7,31.7,20.7,31.7L20.7,31.7
		L20.7,31.7z M19.8,31.1c0.3,0,0.4,0,0.4-0.3c0-0.2-0.1-0.3-0.3-0.3c-0.1,0-0.1,0-0.1,0.1L19.8,31.1L19.8,31.1z"/>
	<path class="st0" d="M22.2,31.9l-0.7-0.1l0,0c0.1,0,0.2,0,0.2,0c0,0,0-0.2-0.1-0.3l-0.5-0.1C21,31.5,21,31.6,21,31.6
		c0,0.1,0.1,0.1,0.2,0.1l0,0l-0.4-0.1l0,0c0.1,0,0.2-0.1,0.2-0.2l0.6-0.9l0.1,0l0.4,1C22.1,31.8,22.1,31.9,22.2,31.9L22.2,31.9
		L22.2,31.9z M21.6,31.4l-0.2-0.5l-0.3,0.4L21.6,31.4L21.6,31.4z"/>
	<path class="st0" d="M23.5,32.2l-1.3-0.2l0,0c0.1,0,0.2,0,0.2-0.1l0.2-0.9c0-0.1-0.1-0.1-0.2-0.2l0,0l0.8,0.1l0,0
		c-0.2,0-0.2,0-0.3,0.1l-0.2,0.9c0,0.1,0,0.1,0.2,0.1c0.3,0.1,0.5-0.1,0.6-0.3l0.1,0L23.5,32.2L23.5,32.2z"/>
	<path class="st0" d="M24.3,32.4l-0.8-0.2l0,0c0.1,0,0.2,0,0.2-0.1l0.2-0.9c0-0.1-0.1-0.1-0.2-0.2l0,0l0.8,0.2l0,0
		c-0.1,0-0.2,0-0.2,0.1l-0.2,0.9C24.1,32.3,24.2,32.3,24.3,32.4L24.3,32.4L24.3,32.4z"/>
	<path class="st0" d="M25.9,32.6l-0.7-0.1l0,0c0.1,0,0.2,0,0.2-0.1c0,0-0.1-0.2-0.1-0.3l-0.5-0.1c-0.1,0.1-0.1,0.2-0.1,0.2
		c0,0.1,0.1,0.1,0.2,0.1l0,0l-0.4,0l0,0c0.1,0,0.2-0.1,0.2-0.2l0.6-1l0.1,0l0.4,1C25.7,32.4,25.7,32.5,25.9,32.6L25.9,32.6
		L25.9,32.6z M25.2,32.1L25,31.6L24.8,32L25.2,32.1L25.2,32.1z"/>
	<path class="st0" d="M20.2,17.6c0-0.4-0.3,0-0.4-0.4c-0.1,0.3-0.4,0.1-0.4,0.4c0,0.1,0,0.2,0.1,0.3v0.1c0,0,0,0.1,0.1,0.1H20
		c0,0,0.1,0,0.1-0.1v-0.1C20.1,17.7,20.2,17.7,20.2,17.6L20.2,17.6z M19.8,17.6c-0.1,0-0.3,0.1-0.3-0.1c0-0.2,0.1-0.2,0.3-0.2
		c0.1,0,0.3,0,0.3,0.2C20.1,17.7,19.9,17.6,19.8,17.6L19.8,17.6z"/>
	<path class="st0" d="M24.1,23c0.1,0,0.2-0.1,0.2-0.2c0-0.1-0.1-0.2-0.2-0.2c-0.1,0-0.2,0.1-0.2,0.2C23.9,23,24,23,24.1,23L24.1,23z
		"/>
	<path class="st0" d="M23.1,16.4c0,0-0.1,0.2-0.1,0.2c0,0.1,0,0.1,0.1,0.1c0.1,0,0.1,0,0.1-0.1C23.2,16.6,23.1,16.4,23.1,16.4
		L23.1,16.4z"/>
	<path class="st0" d="M16.5,16.4c0,0-0.1,0.2-0.1,0.2c0,0.1,0,0.1,0.1,0.1c0.1,0,0.1,0,0.1-0.1C16.6,16.6,16.5,16.4,16.5,16.4
		L16.5,16.4z"/>
	<path class="st0" d="M18.2,16.4c0,0-0.1,0.2-0.1,0.2c0,0.1,0,0.1,0.1,0.1c0.1,0,0.1,0,0.1-0.1C18.3,16.6,18.2,16.4,18.2,16.4
		L18.2,16.4z"/>
	<path class="st0" d="M19.8,16.4c0,0-0.1,0.2-0.1,0.2c0,0.1,0,0.1,0.1,0.1c0.1,0,0.1,0,0.1-0.1C19.9,16.6,19.8,16.4,19.8,16.4
		L19.8,16.4z"/>
	<path class="st0" d="M21.5,16.4c0,0-0.1,0.2-0.1,0.2c0,0.1,0,0.1,0.1,0.1c0.1,0,0.1,0,0.1-0.1C21.6,16.6,21.5,16.4,21.5,16.4
		L21.5,16.4z"/>
	<path class="st0" d="M16.6,18.7c0,0,0.1,0.2,0.1,0.2c0,0.1,0,0.1-0.1,0.1c-0.1,0-0.1,0-0.1-0.1C16.5,18.9,16.6,18.7,16.6,18.7
		L16.6,18.7z"/>
	<path class="st0" d="M16.6,20.9c0,0,0.1,0.2,0.1,0.2c0,0.1,0,0.1-0.1,0.1c-0.1,0-0.1,0-0.1-0.1C16.5,21,16.6,20.9,16.6,20.9
		L16.6,20.9z"/>
	<path class="st0" d="M16.8,22.6c0,0,0.1,0.2,0.1,0.2c0,0.1,0,0.1-0.1,0.1c-0.1,0-0.1,0-0.1-0.1C16.7,22.8,16.8,22.6,16.8,22.6
		L16.8,22.6z"/>
	<path class="st0" d="M18.2,23.5c0,0,0.1,0.2,0.1,0.2c0,0.1,0,0.1-0.1,0.1c-0.1,0-0.1,0-0.1-0.1C18.1,23.7,18.2,23.5,18.2,23.5
		L18.2,23.5z"/>
	<path class="st0" d="M23.2,18.7c0,0-0.1,0.2-0.1,0.2c0,0.1,0,0.1,0.1,0.1c0.1,0,0.1,0,0.1-0.1C23.3,18.9,23.2,18.7,23.2,18.7
		L23.2,18.7z"/>
	<path class="st0" d="M23.2,20.9c0,0-0.1,0.2-0.1,0.2c0,0.1,0,0.1,0.1,0.1c0.1,0,0.1,0,0.1-0.1C23.3,21,23.2,20.9,23.2,20.9
		L23.2,20.9z"/>
	<path class="st0" d="M22.9,22.6c0,0-0.1,0.2-0.1,0.2c0,0.1,0,0.1,0.1,0.1c0.1,0,0.1,0,0.1-0.1C23,22.8,22.9,22.6,22.9,22.6
		L22.9,22.6z"/>
	<path class="st0" d="M21.6,23.5c0,0-0.1,0.2-0.1,0.2c0,0.1,0,0.1,0.1,0.1c0.1,0,0.1,0,0.1-0.1C21.7,23.7,21.6,23.5,21.6,23.5
		L21.6,23.5z"/>
	<path class="st0" d="M19.9,24.5c0,0-0.1,0.2-0.1,0.2c0,0.1,0,0.1,0.1,0.1c0.1,0,0.1,0,0.1-0.1C20,24.7,19.9,24.5,19.9,24.5
		L19.9,24.5z"/>
	<path class="st0" d="M22.5,21.2c0,0,0.1,0,0.1,0l0.1-0.2c0,0-0.1-0.1-0.1-0.1c-0.2,0-0.4,0.1-0.5,0.2c0,0.1,0.1,0.2,0.2,0.3
		c0.1,0,0.1,0,0.1,0.1c0,0.1,0,0.1-0.1,0.1c-0.1-0.1-0.3,0-0.4-0.1c0-0.2,0.1-0.3,0-0.5c0,0,0.1-0.1,0-0.1c-0.1-0.1-0.2,0-0.3,0
		c-0.2,0-0.3,0.1-0.4,0.2c0,0.1,0,0.1,0.1,0.2c0,0,0.1,0,0.1,0l-0.1,0.1c0,0,0,0.1,0,0.1c-0.1,0-0.1-0.1-0.2-0.1
		c0-0.1,0-0.2-0.1-0.2c0,0-0.1,0-0.1,0c0,0,0,0.1,0,0.2c0,0.1,0,0.2,0,0.2s0.3,0.2,0.4,0.4c-0.1,0.2-0.1,0.4-0.3,0.6
		c-0.1,0-0.1,0.1-0.1,0.2l0.1,0c0.1-0.1,0.4-0.1,0.4-0.3c0.1-0.1,0.1-0.2,0.2-0.3c0.1,0,0.2,0,0.2,0.1c0,0.2-0.1,0.3-0.3,0.3
		c0,0,0,0.1,0,0.1c0,0.1,0.2,0,0.2,0c0.2-0.1,0.2-0.3,0.4-0.4c0,0.1-0.2,0.1-0.1,0.2c0.1,0,0.2,0,0.3-0.1c-0.1-0.2,0.2-0.3,0.1-0.4
		c0-0.2,0.2-0.2,0.2-0.4c-0.1-0.2-0.3-0.2-0.3-0.3C22.4,21.2,22.5,21.2,22.5,21.2L22.5,21.2z"/>
	<path class="st0" d="M15,23.1c0.1,0,0.2-0.1,0.2-0.2c0-0.1-0.1-0.2-0.2-0.2c-0.1,0-0.2,0.1-0.2,0.2C14.8,23,14.9,23.1,15,23.1
		L15,23.1z"/>
	<path class="st0" d="M4.4,29.3c0.1,0,0.2-0.1,0.2-0.2c0-0.1-0.1-0.2-0.2-0.2c-0.1,0-0.2,0.1-0.2,0.2C4.2,29.2,4.3,29.3,4.4,29.3
		L4.4,29.3z"/>
	<path class="st0" d="M11.1,30.8L11.1,30.8L11.1,30.8L11.1,30.8L11.1,30.8C11.1,30.8,11.1,30.8,11.1,30.8L11.1,30.8L11.1,30.8
		L11.1,30.8C11.1,30.8,11.1,30.8,11.1,30.8L11.1,30.8C11.1,30.8,11.1,30.8,11.1,30.8L11.1,30.8L11.1,30.8
		C11.1,30.8,11.1,30.8,11.1,30.8C11.1,30.8,11.1,30.8,11.1,30.8L11.1,30.8C11.1,30.8,11.1,30.8,11.1,30.8L11.1,30.8L11.1,30.8z
		 M11.1,30.8C11.1,30.8,11.1,30.8,11.1,30.8C11.1,30.8,11.1,30.8,11.1,30.8C11.1,30.8,11.1,30.8,11.1,30.8L11.1,30.8L11.1,30.8z"/>
	<path class="st0" d="M11.2,30.8C11.2,30.8,11.2,30.8,11.2,30.8C11.2,30.8,11.2,30.8,11.2,30.8C11.2,30.8,11.2,30.8,11.2,30.8
		L11.2,30.8C11.2,30.8,11.2,30.8,11.2,30.8C11.2,30.8,11.2,30.8,11.2,30.8C11.2,30.8,11.2,30.8,11.2,30.8
		C11.1,30.8,11.1,30.8,11.2,30.8L11.2,30.8L11.2,30.8L11.2,30.8C11.1,30.8,11.2,30.8,11.2,30.8C11.2,30.8,11.2,30.8,11.2,30.8
		C11.2,30.8,11.2,30.8,11.2,30.8L11.2,30.8C11.1,30.8,11.1,30.8,11.2,30.8C11.1,30.8,11.1,30.8,11.2,30.8
		C11.2,30.8,11.2,30.8,11.2,30.8C11.2,30.8,11.2,30.8,11.2,30.8L11.2,30.8L11.2,30.8L11.2,30.8L11.2,30.8z"/>
	<polygon class="st0" points="11.2,30.8 11.2,30.8 11.2,30.8 11.2,30.8 11.2,30.8 11.2,30.8 11.2,30.8 11.2,30.8 11.2,30.8 
		11.2,30.8 11.2,30.8 11.2,30.8 11.2,30.8 11.2,30.8 11.2,30.8 11.2,30.8 11.2,30.8 11.2,30.8 11.2,30.8 11.2,30.8 11.2,30.8 
		11.2,30.8 11.2,30.8 11.2,30.8 11.2,30.8 11.2,30.8 11.2,30.8 11.2,30.8 11.2,30.8 11.2,30.8 11.2,30.8 11.2,30.8 11.2,30.8 	"/>
	<path class="st0" d="M11.2,30.8C11.2,30.8,11.3,30.8,11.2,30.8C11.3,30.8,11.3,30.8,11.2,30.8C11.3,30.8,11.3,30.8,11.2,30.8
		C11.3,30.8,11.2,30.8,11.2,30.8C11.2,30.8,11.2,30.8,11.2,30.8C11.3,30.8,11.3,30.8,11.2,30.8C11.3,30.8,11.3,30.8,11.2,30.8
		L11.2,30.8L11.2,30.8z M11.3,30.8C11.3,30.8,11.3,30.8,11.3,30.8C11.3,30.8,11.3,30.8,11.3,30.8C11.3,30.8,11.3,30.8,11.3,30.8
		C11.3,30.8,11.3,30.8,11.3,30.8C11.3,30.8,11.3,30.8,11.3,30.8L11.3,30.8z"/>
	<path class="st0" d="M11.3,30.8C11.3,30.8,11.3,30.8,11.3,30.8C11.3,30.8,11.3,30.8,11.3,30.8C11.3,30.8,11.3,30.8,11.3,30.8
		C11.3,30.8,11.3,30.8,11.3,30.8C11.3,30.8,11.3,30.8,11.3,30.8C11.3,30.8,11.3,30.8,11.3,30.8C11.3,30.8,11.3,30.8,11.3,30.8
		C11.3,30.8,11.3,30.8,11.3,30.8C11.3,30.8,11.3,30.8,11.3,30.8L11.3,30.8L11.3,30.8L11.3,30.8L11.3,30.8L11.3,30.8L11.3,30.8z"/>
	<path class="st0" d="M23.7,16.2L23.7,16.2l-7.6,0v0h0l0,5.8c0,0.6,0.3,1.1,0.6,1.3l2.9,1.8c0.1,0.1,0.2,0.1,0.3,0.1
		c0.1,0,0.2,0,0.2-0.1l3-1.9c0.3-0.2,0.6-0.7,0.6-1.3L23.7,16.2L23.7,16.2L23.7,16.2z M23.4,22c0,0.4-0.2,0.8-0.5,1l-2.9,1.8h0
		c-0.1,0-0.1,0.1-0.2,0.1c-0.1,0-0.2,0-0.2-0.1L16.8,23c-0.3-0.2-0.5-0.6-0.5-1v-5.7h7.1V22L23.4,22z"/>
	<path class="st0" d="M20.9,24.6L20.9,24.6C20.9,24.6,20.9,24.6,20.9,24.6L20.9,24.6z"/>
	<path class="st0" d="M15.2,32.5l-0.7,0.1l0,0c0.1,0,0.2,0,0.2-0.1c0-0.1-0.1-0.2-0.1-0.2L14,32.3c0,0.1-0.1,0.2-0.1,0.2
		c0,0.1,0.1,0.1,0.2,0.1l0,0l-0.4,0.1l0,0c0.1,0,0.1-0.1,0.2-0.2l0.4-1.1l0.1,0l0.6,0.9C15,32.4,15.1,32.5,15.2,32.5L15.2,32.5
		L15.2,32.5z M14.5,32.1l-0.3-0.4L14,32.2L14.5,32.1L14.5,32.1z"/>
	<path class="st0" d="M27.7,29.8c-0.1-0.3-0.4-0.6-0.7-0.7c-0.3-0.1-0.7,0-0.9,0.2c-0.4,0.3-0.1,0.8-0.1,1.3c0,0.1,0,0.2-0.1,0.2
		c-1.6-0.1-3-0.5-4.6-0.7c-0.4-0.1-0.7,0-1.1-0.1l-0.4,0c-1.4,0-2.7,0.1-4,0.4c-0.3,0.1-0.6,0.1-0.8,0.2c-0.2,0-0.4,0.1-0.5,0.1
		L14,30.7c0,0-0.1,0-0.1,0c-0.2-0.4,0.3-0.7,0.2-1.2c-0.1-0.3-0.4-0.5-0.7-0.4c-0.4,0-0.7,0.2-0.9,0.4c-0.2,0.5,0.1,1.1,0.2,1.7
		c0,0.2,0.2,0.4,0,0.5c-0.3-0.2-0.8-0.4-1.2-0.3c-0.1,0.1-0.4,0-0.4,0.1c0.5,0.3,1.1,0.2,1.6,0.2c0.1,0,0.1,0,0.2,0
		c0,0.3-0.1,0.7,0.1,0.9c0.2,0.3,0.5,0.3,0.8,0.4c1,0,1.9-0.3,2.8-0.6c0.1,0,0.2-0.1,0.4-0.1c0.5-0.1,1-0.2,1.5-0.2
		c-0.2,0.3-0.4,0.6-0.5,1c-0.1,0.3,0.2,0.3,0.3,0.5c-0.3,0.1-0.6,0.3-0.9,0.5c-0.7,0-1.3,0.2-1.9,0.3c0,0.1,0.2,0.1,0.3,0.2
		c0,0.1-0.1,0.1-0.2,0.2c0,0.1,0,0.1,0.1,0.1c0.1-0.1,0.2,0,0.3-0.1c0.2,0,0.4-0.1,0.6-0.1c0.2-0.1,0.4-0.1,0.6-0.2
		c0.2-0.1,0.4-0.2,0.6-0.3c0.3,0,0.6-0.1,0.9-0.1v0.1c-0.3,0.4-0.5,0.8-0.8,1.2c0,0.1,0,0.2,0.1,0.2c0.2,0,0.3,0,0.4-0.1
		c0.2-0.4,0.4-0.8,0.6-1.2c0.1-0.4,0.3-0.6,0.6-0.8c0,0,0.1-0.1,0.2,0c-0.2,0.3-0.4,0.5-0.5,0.8c-0.1,0.3-0.1,0.7,0.2,1
		c0.1,0.1,0.3,0.1,0.5,0.1c0.4-0.2,1,0.1,1.3-0.3c0.2,0,0.2,0.2,0.3,0.3c0.2,0.1,0.4,0.2,0.6,0.1c0-0.1-0.1-0.2-0.2-0.3
		c-0.1-0.2-0.3-0.4-0.4-0.6c-0.1-0.2-0.2-0.3-0.2-0.4c0.2,0.1,0.4,0.2,0.6,0.2c0.2,0.1,0.4,0.1,0.6,0.2c0.1,0.2,0.4,0.3,0.5,0.4
		c0.3,0.1,0.6,0.2,0.9,0.3c0.1,0,0.3,0.1,0.3,0c0-0.1-0.1-0.1-0.2-0.1c0-0.1,0.2-0.1,0.3-0.2c0-0.1-0.1-0.1-0.1-0.1
		c-0.2-0.1-0.5-0.1-0.6-0.2c-0.1,0-0.2-0.1-0.4-0.1c-0.7,0-1-0.6-1.5-0.8c0.1-0.1,0.3-0.2,0.4-0.4c0.1-0.2,0.1-0.4,0-0.6
		c-0.1-0.3-0.5-0.3-0.8-0.5l0,0c0.4,0,0.8,0.1,1.2,0.2c1,0.1,2,0.5,3.1,0.6c0.6,0,1.3,0,1.6-0.5c0.1-0.3,0.1-0.7,0.2-1
		C27.4,30.9,27.8,30.4,27.7,29.8L27.7,29.8z M16,34.8l-0.2-0.1c0.1-0.1,0.2,0,0.4-0.1c0.3-0.1,0.6-0.2,0.9-0.1
		C16.8,34.7,16.4,34.7,16,34.8L16,34.8z M22.8,34.6c0.3,0.1,0.8,0.2,1.2,0.3c0,0.1-0.3,0-0.3,0.2C23.3,35,22.9,34.9,22.8,34.6
		C22.7,34.6,22.7,34.6,22.8,34.6L22.8,34.6z M12.6,30c0-0.2,0.1-0.4,0.3-0.5c0.3-0.1,0.6-0.1,0.9,0c0.1,0,0.1,0.1,0.2,0.2
		c0.1,0.2,0,0.4-0.2,0.5h-0.1c0-0.2,0-0.4,0.1-0.5c0-0.1-0.1-0.1-0.2-0.2c-0.2-0.1-0.3,0-0.5,0.1c-0.1,0.1-0.2,0.3-0.1,0.5
		c0.1,0.1,0,0.3,0.1,0.4l0,0C12.7,30.4,12.5,30.2,12.6,30L12.6,30z M13.1,30.3c0.2,0.1,0.4,0.1,0.6,0.1c0,0.1,0,0.3-0.1,0.4
		c-0.2,0-0.4,0-0.5-0.2C13.1,30.5,13.1,30.4,13.1,30.3L13.1,30.3z M13.1,29.9c0-0.1,0-0.2,0.1-0.2c0.1,0,0.2,0,0.2,0.1
		c0,0.1,0,0.3-0.1,0.4C13.2,30.1,13.1,30,13.1,29.9L13.1,29.9z M18.1,33.4c-0.1-0.4,0.1-0.7,0.3-1c0.2,0,0.3-0.1,0.5,0
		c-0.3,0.1-0.6,0.1-0.7,0.5c0,0.1,0,0.2,0,0.3c0.1,0.2,0.4,0.1,0.5,0.3c0,0.1,0,0.1-0.1,0.1C18.5,33.6,18.3,33.6,18.1,33.4
		L18.1,33.4z M17.8,34.2c0.3-0.1,0.5-0.3,0.8-0.2C18.4,34.1,18,34.2,17.8,34.2L17.8,34.2z M18.8,34.3c-0.2,0.4-0.3,0.7-0.5,1
		c0,0.1-0.1,0.1-0.2,0.1c0-0.2,0.2-0.3,0.2-0.4c0.2-0.3,0.3-0.6,0.6-0.9C18.9,34.1,18.8,34.2,18.8,34.3L18.8,34.3z M19.1,33.6
		L19.1,33.6L19.1,33.6L19.1,33.6L19.1,33.6L19.1,33.6C19.1,33.6,19,33.6,19.1,33.6L19.1,33.6L19.1,33.6z M19,33.3
		c-0.2,0-0.4-0.1-0.5-0.1c-0.1-0.1,0-0.2,0-0.4c0.2-0.2,0.6-0.4,0.8-0.1C19.2,33,19.1,33.2,19,33.3L19,33.3z M19.2,33.3
		c0-0.1,0.1-0.3,0.2-0.5C19.4,33,19.3,33.2,19.2,33.3L19.2,33.3z M19.3,32.5c-0.1,0-0.2-0.2-0.4-0.2c0.1,0,0.3,0,0.4,0
		C19.4,32.3,19.3,32.4,19.3,32.5L19.3,32.5z M19.4,32.8L19.4,32.8l0-0.1h0V32.8L19.4,32.8z M19.5,33.3c0,0,0-0.1,0-0.2
		c0.1-0.1,0.1,0,0.1,0.1C19.6,33.3,19.5,33.3,19.5,33.3L19.5,33.3z M19.6,32.6c0.1-0.2,0.1-0.3,0.2-0.4c0.1,0,0.2,0,0.3,0
		c0,0.2,0.3,0.5,0,0.7c-0.1,0-0.2,0.1-0.3,0C19.6,32.9,19.6,32.8,19.6,32.6L19.6,32.6z M20.4,32.3c0-0.1,0.1,0,0.1-0.1l0.3,0
		C20.7,32.2,20.5,32.6,20.4,32.3L20.4,32.3z M21,32.4c-0.1,0-0.2,0.2-0.4,0.2C20.7,32.6,20.8,32.4,21,32.4L21,32.4z M20.5,33.1
		L20.5,33.1L20.5,33.1L20.5,33.1L20.5,33.1L20.5,33.1z M20.5,33.8C20.5,33.8,20.5,33.8,20.5,33.8l-0.3-0.1
		C20.4,33.7,20.5,33.7,20.5,33.8L20.5,33.8z M20.2,33.5C20.3,33.4,20.3,33.4,20.2,33.5L20.2,33.5L20.2,33.5z M20.1,33.3
		c0-0.1,0.1-0.2,0.2-0.2c0,0,0,0,0,0C20.2,33.2,20.2,33.3,20.1,33.3L20.1,33.3z M19.8,33.3L19.8,33.3L19.8,33.3
		C19.9,33.2,19.8,33.2,19.8,33.3L19.8,33.3z M19.9,33.7c0.1-0.2,0.3,0.1,0.3,0.2c0.2,0.2,0.6,0.5,0.4,0.8c-0.2,0.2-0.5,0-0.8,0.2
		c-0.1,0-0.3,0-0.4-0.1C19.6,34.4,19.7,34,19.9,33.7L19.9,33.7z M19.6,33.9L19.6,33.9c0,0.2-0.2,0.4-0.3,0.7
		C19.2,34.3,19.5,34.1,19.6,33.9L19.6,33.9z M20,35.2c-0.2,0-0.5,0.1-0.7,0c0-0.1-0.1-0.1-0.1-0.2c0.2-0.1,0.3,0.1,0.5,0
		c0.2,0,0.5,0,0.8,0c0.1,0,0.3-0.2,0.3,0C20.7,35.3,20.3,35.1,20,35.2L20,35.2z M20.7,33.6L20.7,33.6L20.7,33.6L20.7,33.6L20.7,33.6
		L20.7,33.6z M20.7,34.3c0,0.1,0.1,0.2,0.1,0.3C20.8,34.5,20.7,34.4,20.7,34.3L20.7,34.3z M21,35L21,35c-0.1,0-0.1-0.1-0.1-0.2
		C21,34.8,21.1,34.9,21,35L21,35z M21.6,35.2C21.6,35.3,21.5,35.3,21.6,35.2c-0.4-0.4-0.6-0.8-0.8-1.3l0,0
		C21.1,34.3,21.3,34.8,21.6,35.2L21.6,35.2z M22,34.2C22,34.2,22,34.3,22,34.2c-0.3,0.1-0.5-0.1-0.8-0.3l0-0.1
		C21.5,33.9,21.7,34.1,22,34.2L22,34.2z M21.7,32.8c0.1,0,0.1,0.2,0.2,0.3c0,0.2-0.1,0.4-0.4,0.5c-0.1,0.1-0.3,0.1-0.4,0
		c0.3,0,0.5-0.1,0.7-0.4L21.7,32.8L21.7,32.8z M21.5,32.7c0.1,0.2,0.2,0.3,0.1,0.5c-0.1,0.2-0.3,0.2-0.5,0.3c-0.1,0-0.2,0-0.2-0.1
		c0,0,0-0.1,0-0.1c0-0.1-0.3-0.3-0.1-0.4C20.9,32.7,21.3,32.3,21.5,32.7L21.5,32.7z M27,31.9c-0.1,0.1,0,0.3-0.1,0.4
		c0,0.2-0.2,0.3-0.3,0.4c-1.3,0.3-2.6-0.2-3.8-0.4c-1.7-0.4-3.8-0.5-5.6-0.1c-0.8,0.2-1.7,0.4-2.5,0.6c-0.5,0.1-1,0.1-1.5,0
		c-0.4-0.2-0.2-0.7-0.3-1c0-0.3-0.1-0.5-0.1-0.8c0-0.1-0.1-0.2,0-0.3c0.2,0,0.3,0.1,0.5,0.2c0.9,0.2,1.7-0.1,2.6-0.3
		c0.8-0.2,1.7-0.3,2.5-0.4c1,0,2-0.1,2.9,0.1c0.3,0,0.6,0.1,0.9,0.1c0.6,0.1,1.2,0.2,1.8,0.3c0.1,0,0.2,0,0.3,0.1c1,0.2,2.1,0.4,3,0
		C27.2,31.2,27,31.5,27,31.9L27,31.9z M26.7,30.6c0,0.2-0.2,0.1-0.2,0.2h-0.3c-0.1-0.1,0-0.2,0-0.3C26.3,30.5,26.5,30.5,26.7,30.6
		L26.7,30.6z M26.6,30.3c0.1-0.1,0-0.8,0.3-0.4c0,0.1,0,0.2-0.1,0.3C26.7,30.3,26.6,30.4,26.6,30.3L26.6,30.3z M27.4,30.2
		c-0.1,0.2-0.2,0.3-0.5,0.4c0-0.3,0.2-0.4,0.2-0.7c-0.1-0.2-0.4-0.3-0.7-0.2c-0.1,0.1-0.1,0.2-0.1,0.3l0,0.4c-0.2,0-0.2-0.2-0.3-0.3
		c0-0.2,0.1-0.5,0.3-0.6c0.2-0.1,0.5-0.1,0.6,0c0.1,0,0.3,0.1,0.4,0.2C27.5,29.7,27.5,30,27.4,30.2L27.4,30.2z"/>
	<line class="st0" x1="40.8" y1="26.1" x2="125.8" y2="26.1"/>
	<path class="st0" d="M40.8,33.7v-0.1H41c0.1,0,0.2,0,0.3-0.1c0.1,0,0.1-0.1,0.2-0.2c0,0,0-0.2,0-0.4V30c0-0.2,0-0.4,0-0.4
		c0-0.1-0.1-0.1-0.1-0.1c-0.1,0-0.2-0.1-0.3-0.1h-0.1v-0.1h1.9c0.5,0,0.9,0.1,1.3,0.2c0.4,0.2,0.7,0.4,0.9,0.8
		c0.2,0.4,0.3,0.7,0.3,1.2c0,0.3,0,0.6-0.1,0.8c-0.1,0.3-0.2,0.5-0.4,0.6c-0.2,0.2-0.3,0.3-0.5,0.4c-0.2,0.1-0.5,0.2-0.7,0.2
		c-0.1,0-0.3,0-0.6,0H40.8L40.8,33.7z M42.5,29.5v3.4c0,0.2,0,0.3,0,0.3c0,0,0,0.1,0.1,0.1c0.1,0,0.1,0,0.3,0c0.4,0,0.6-0.1,0.8-0.4
		c0.3-0.3,0.4-0.8,0.4-1.5c0-0.6-0.1-1-0.3-1.3c-0.1-0.3-0.3-0.4-0.5-0.5C43.1,29.6,42.8,29.5,42.5,29.5L42.5,29.5z"/>
	<path class="st0" d="M48.1,32h-1.6c0,0.4,0.1,0.7,0.3,0.9c0.1,0.2,0.3,0.3,0.5,0.3c0.1,0,0.2,0,0.3-0.1c0.1-0.1,0.2-0.2,0.3-0.4
		l0.1,0.1c-0.2,0.3-0.3,0.6-0.5,0.7c-0.2,0.1-0.4,0.2-0.7,0.2c-0.4,0-0.8-0.2-1-0.5c-0.2-0.3-0.3-0.6-0.3-1c0-0.5,0.1-0.9,0.4-1.2
		c0.3-0.3,0.6-0.4,1-0.4c0.3,0,0.6,0.1,0.8,0.4C47.9,31.2,48.1,31.6,48.1,32L48.1,32z M47.3,31.8c0-0.3,0-0.6-0.1-0.7
		c0-0.1-0.1-0.2-0.2-0.3c0,0-0.1-0.1-0.2-0.1c-0.1,0-0.2,0.1-0.3,0.2c-0.1,0.2-0.2,0.5-0.2,0.8v0.1H47.3L47.3,31.8z"/>
	<path class="st0" d="M49.5,33.3v1.1c0,0.2,0,0.3,0,0.3c0,0.1,0.1,0.1,0.1,0.1c0.1,0,0.2,0,0.3,0v0.1h-1.7v-0.1c0.1,0,0.2,0,0.3-0.1
		c0,0,0.1-0.2,0.1-0.4v-3.2c0-0.2,0-0.3-0.1-0.4c0-0.1-0.1-0.1-0.3-0.1v-0.1h1.3V31c0.1-0.2,0.2-0.3,0.3-0.3
		c0.2-0.1,0.3-0.2,0.5-0.2c0.2,0,0.4,0.1,0.6,0.2c0.2,0.1,0.3,0.3,0.4,0.6c0.1,0.2,0.1,0.5,0.1,0.8c0,0.3,0,0.6-0.1,0.8
		c-0.1,0.3-0.2,0.4-0.4,0.6c-0.2,0.1-0.4,0.2-0.6,0.2c-0.2,0-0.3,0-0.5-0.1C49.7,33.6,49.6,33.5,49.5,33.3L49.5,33.3z M49.5,33
		c0.2,0.3,0.4,0.4,0.6,0.4c0.1,0,0.2-0.1,0.3-0.2c0.1-0.2,0.2-0.5,0.2-1c0-0.5-0.1-0.9-0.2-1.1C50.3,31,50.1,31,50,31
		c-0.2,0-0.4,0.2-0.5,0.5V33L49.5,33z"/>
	<path class="st0" d="M53.5,33.2c-0.4,0.3-0.7,0.5-1,0.5c-0.2,0-0.3-0.1-0.4-0.2c-0.1-0.1-0.2-0.3-0.2-0.4c0-0.2,0.1-0.4,0.3-0.6
		c0.2-0.2,0.6-0.4,1.3-0.7v-0.3c0-0.2,0-0.4,0-0.4c0-0.1-0.1-0.1-0.1-0.2c-0.1,0-0.1-0.1-0.2-0.1c-0.1,0-0.3,0-0.3,0.1
		c-0.1,0-0.1,0.1-0.1,0.1c0,0,0,0.1,0.1,0.2c0.1,0.1,0.1,0.2,0.1,0.3c0,0.1,0,0.2-0.1,0.3c-0.1,0.1-0.2,0.1-0.3,0.1
		c-0.1,0-0.2,0-0.3-0.1C52,31.6,52,31.5,52,31.4c0-0.2,0.1-0.3,0.2-0.4c0.1-0.1,0.3-0.2,0.5-0.3c0.2-0.1,0.4-0.1,0.7-0.1
		c0.3,0,0.5,0.1,0.7,0.2c0.2,0.1,0.3,0.3,0.3,0.4c0,0.1,0,0.3,0,0.6v1.2c0,0.1,0,0.2,0,0.3c0,0,0,0.1,0,0.1c0,0,0,0,0.1,0
		c0.1,0,0.1,0,0.2-0.1l0.1,0.1c-0.1,0.2-0.2,0.3-0.3,0.3c-0.1,0.1-0.2,0.1-0.4,0.1c-0.2,0-0.3,0-0.4-0.1
		C53.6,33.5,53.5,33.4,53.5,33.2L53.5,33.2z M53.5,33v-1c-0.3,0.2-0.5,0.3-0.6,0.5c-0.1,0.1-0.1,0.2-0.1,0.3c0,0.1,0,0.2,0.1,0.3
		c0.1,0.1,0.1,0.1,0.2,0.1C53.2,33.2,53.4,33.1,53.5,33L53.5,33z"/>
	<path class="st0" d="M56.2,30.7v0.7c0.2-0.3,0.4-0.5,0.5-0.6c0.1-0.1,0.3-0.2,0.4-0.2c0.1,0,0.2,0,0.3,0.1c0.1,0.1,0.1,0.2,0.1,0.3
		c0,0.1,0,0.3-0.1,0.3c-0.1,0.1-0.2,0.1-0.3,0.1c-0.1,0-0.2,0-0.3-0.1c-0.1-0.1-0.1-0.1-0.1-0.1c0,0,0,0-0.1,0c-0.1,0-0.1,0-0.2,0.1
		c-0.1,0.1-0.2,0.2-0.2,0.3c-0.1,0.2-0.1,0.4-0.1,0.7v0.7l0,0.2c0,0.1,0,0.2,0,0.2c0,0.1,0.1,0.1,0.1,0.1c0.1,0,0.1,0,0.3,0v0.1
		h-1.6v-0.1c0.1,0,0.2,0,0.3-0.1c0-0.1,0.1-0.2,0.1-0.5v-1.7c0-0.2,0-0.3,0-0.3c0-0.1-0.1-0.1-0.1-0.1c0,0-0.1,0-0.2-0.1v-0.1H56.2
		L56.2,30.7z"/>
	<path class="st0" d="M59,29.6v1.1h0.7V31H59v1.9c0,0.2,0,0.3,0,0.3c0,0,0,0.1,0.1,0.1c0,0,0.1,0,0.1,0c0.1,0,0.3-0.1,0.4-0.3
		l0.1,0.1c-0.2,0.4-0.5,0.6-0.8,0.6c-0.2,0-0.4-0.1-0.5-0.2c-0.1-0.1-0.2-0.2-0.3-0.4c0-0.1,0-0.3,0-0.6V31h-0.4v-0.1
		c0.3-0.2,0.5-0.4,0.7-0.6c0.2-0.2,0.4-0.4,0.5-0.7H59L59,29.6z"/>
	<path class="st0" d="M61.3,30.7V31c0.2-0.2,0.3-0.3,0.5-0.4c0.1-0.1,0.3-0.1,0.5-0.1c0.2,0,0.4,0,0.5,0.1c0.1,0.1,0.2,0.2,0.3,0.4
		c0.2-0.2,0.3-0.3,0.5-0.4c0.2-0.1,0.3-0.1,0.5-0.1c0.2,0,0.4,0,0.5,0.1c0.1,0.1,0.2,0.2,0.3,0.4c0,0.1,0.1,0.4,0.1,0.7V33
		c0,0.2,0,0.4,0.1,0.4c0,0.1,0.1,0.1,0.3,0.1v0.1h-1.5v-0.1c0.1,0,0.2-0.1,0.3-0.1c0-0.1,0.1-0.2,0.1-0.4v-1.3c0-0.3,0-0.4,0-0.5
		c0-0.1-0.1-0.1-0.1-0.2c0,0-0.1-0.1-0.2-0.1c-0.1,0-0.2,0-0.3,0.1c-0.1,0.1-0.2,0.2-0.3,0.3V33c0,0.2,0,0.4,0.1,0.4
		c0,0.1,0.1,0.1,0.3,0.1v0.1h-1.6v-0.1c0.1,0,0.1,0,0.2-0.1c0,0,0.1-0.1,0.1-0.1c0-0.1,0-0.2,0-0.3v-1.3c0-0.3,0-0.4,0-0.5
		c0-0.1-0.1-0.1-0.1-0.2c0,0-0.1-0.1-0.2-0.1c-0.1,0-0.2,0-0.2,0.1c-0.1,0.1-0.2,0.2-0.3,0.3V33c0,0.2,0,0.4,0.1,0.4
		c0,0.1,0.1,0.1,0.3,0.1v0.1h-1.5v-0.1c0.1,0,0.2-0.1,0.3-0.1c0,0,0.1-0.2,0.1-0.4v-1.7c0-0.2,0-0.4-0.1-0.4c0-0.1-0.1-0.1-0.3-0.1
		v-0.1H61.3L61.3,30.7z"/>
	<path class="st0" d="M67.8,32h-1.6c0,0.4,0.1,0.7,0.3,0.9c0.1,0.2,0.3,0.3,0.5,0.3c0.1,0,0.2,0,0.3-0.1c0.1-0.1,0.2-0.2,0.3-0.4
		l0.1,0.1c-0.2,0.3-0.3,0.6-0.5,0.7c-0.2,0.1-0.4,0.2-0.7,0.2c-0.4,0-0.8-0.2-1-0.5c-0.2-0.3-0.3-0.6-0.3-1c0-0.5,0.1-0.9,0.4-1.2
		c0.3-0.3,0.6-0.4,1-0.4c0.3,0,0.6,0.1,0.8,0.4C67.7,31.2,67.8,31.6,67.8,32L67.8,32z M67.1,31.8c0-0.3,0-0.6-0.1-0.7
		c0-0.1-0.1-0.2-0.2-0.3c0,0-0.1-0.1-0.2-0.1c-0.1,0-0.2,0.1-0.3,0.2c-0.1,0.2-0.2,0.5-0.2,0.8v0.1H67.1L67.1,31.8z"/>
	<path class="st0" d="M69.4,30.7V31c0.2-0.2,0.3-0.3,0.4-0.4c0.1-0.1,0.3-0.1,0.5-0.1c0.2,0,0.4,0.1,0.5,0.2
		c0.1,0.1,0.2,0.2,0.3,0.4c0,0.1,0.1,0.4,0.1,0.7V33c0,0.2,0,0.4,0.1,0.4c0,0.1,0.1,0.1,0.3,0.1v0.1h-1.5v-0.1
		c0.1,0,0.2-0.1,0.2-0.1c0-0.1,0.1-0.2,0.1-0.4v-1.3c0-0.2,0-0.4,0-0.5c0-0.1-0.1-0.1-0.1-0.1c0,0-0.1-0.1-0.2-0.1
		c-0.2,0-0.4,0.1-0.5,0.4V33c0,0.2,0,0.4,0.1,0.4c0,0.1,0.1,0.1,0.2,0.1v0.1h-1.5v-0.1c0.1,0,0.2-0.1,0.3-0.1c0,0,0.1-0.2,0.1-0.4
		v-1.7c0-0.2,0-0.4-0.1-0.4c0-0.1-0.1-0.1-0.3-0.1v-0.1H69.4L69.4,30.7z"/>
	<path class="st0" d="M72.8,29.6v1.1h0.7V31h-0.7v1.9c0,0.2,0,0.3,0,0.3c0,0,0,0.1,0.1,0.1c0,0,0.1,0,0.1,0c0.1,0,0.3-0.1,0.4-0.3
		l0.1,0.1c-0.2,0.4-0.5,0.6-0.8,0.6c-0.2,0-0.4-0.1-0.5-0.2c-0.1-0.1-0.2-0.2-0.3-0.4c0-0.1,0-0.3,0-0.6V31h-0.4v-0.1
		c0.3-0.2,0.5-0.4,0.7-0.6c0.2-0.2,0.4-0.4,0.5-0.7H72.8L72.8,29.6z"/>
	<path class="st0" d="M76.6,30.6c0.3,0,0.5,0.1,0.7,0.2c0.2,0.1,0.4,0.3,0.5,0.6c0.1,0.2,0.2,0.5,0.2,0.8c0,0.4-0.1,0.8-0.3,1.1
		c-0.3,0.3-0.6,0.5-1.1,0.5c-0.5,0-0.8-0.2-1-0.5c-0.2-0.3-0.4-0.7-0.4-1.1c0-0.4,0.1-0.8,0.4-1.1C75.9,30.7,76.2,30.6,76.6,30.6
		L76.6,30.6z M76.6,30.8c-0.1,0-0.2,0-0.3,0.1c-0.1,0.1-0.1,0.2-0.2,0.5c0,0.2,0,0.6,0,1c0,0.2,0,0.4,0,0.6c0,0.2,0.1,0.3,0.2,0.3
		c0.1,0.1,0.2,0.1,0.3,0.1c0.1,0,0.2,0,0.2-0.1c0.1-0.1,0.1-0.2,0.2-0.3c0-0.2,0.1-0.6,0.1-1.2c0-0.4,0-0.6-0.1-0.7
		c0-0.1-0.1-0.2-0.2-0.3C76.8,30.8,76.7,30.8,76.6,30.8L76.6,30.8z"/>
	<path class="st0" d="M79.7,31v2.1c0,0.2,0,0.3,0.1,0.4c0.1,0.1,0.2,0.1,0.4,0.1v0.1h-1.8v-0.1c0.1,0,0.2,0,0.3,0
		c0.1,0,0.1-0.1,0.1-0.1c0-0.1,0-0.2,0-0.3V31h-0.4v-0.3h0.4v-0.2l0-0.2c0-0.3,0.1-0.6,0.3-0.8c0.2-0.2,0.5-0.3,0.9-0.3
		c0.3,0,0.5,0,0.6,0.1c0.1,0.1,0.2,0.2,0.2,0.3c0,0.1,0,0.2-0.1,0.3C80.6,30,80.5,30,80.4,30c-0.1,0-0.2,0-0.3-0.1
		C80,29.9,80,29.8,80,29.8c0,0,0-0.1,0-0.1c0,0,0-0.1,0-0.1c0,0,0-0.1,0-0.1c0,0-0.1,0-0.1,0c-0.1,0-0.1,0-0.2,0.1
		c0,0.1-0.1,0.1-0.1,0.2l0,0.6v0.4h0.4V31H79.7L79.7,31z"/>
	<path class="st0" d="M86.3,29.3v0.1c-0.2,0-0.3,0.1-0.4,0.3c-0.1,0.1-0.2,0.4-0.4,0.8L84,33.8h-0.1l-1.5-3.5
		c-0.2-0.4-0.3-0.7-0.4-0.7c-0.1-0.1-0.2-0.1-0.3-0.1v-0.1h2.1v0.1h-0.1c-0.2,0-0.3,0-0.4,0.1c0,0-0.1,0.1-0.1,0.1c0,0,0,0.1,0,0.1
		c0,0.1,0.1,0.2,0.2,0.4l0.9,2.2l0.9-1.9c0.1-0.2,0.2-0.4,0.2-0.5c0-0.1,0-0.1,0-0.2c0-0.1,0-0.1-0.1-0.2c0,0-0.1-0.1-0.2-0.1
		c-0.1,0-0.2-0.1-0.4-0.1v-0.1H86.3L86.3,29.3z"/>
	<path class="st0" d="M88.1,32h-1.6c0,0.4,0.1,0.7,0.3,0.9c0.1,0.2,0.3,0.3,0.5,0.3c0.1,0,0.2,0,0.3-0.1c0.1-0.1,0.2-0.2,0.3-0.4
		l0.1,0.1c-0.2,0.3-0.3,0.6-0.5,0.7c-0.2,0.1-0.4,0.2-0.7,0.2c-0.4,0-0.8-0.2-1-0.5c-0.2-0.3-0.3-0.6-0.3-1c0-0.5,0.1-0.9,0.4-1.2
		c0.3-0.3,0.6-0.4,1-0.4c0.3,0,0.6,0.1,0.8,0.4C87.9,31.2,88.1,31.6,88.1,32L88.1,32z M87.3,31.8c0-0.3,0-0.6-0.1-0.7
		c0-0.1-0.1-0.2-0.2-0.3c0,0-0.1-0.1-0.2-0.1c-0.1,0-0.2,0.1-0.3,0.2c-0.1,0.2-0.2,0.5-0.2,0.8v0.1H87.3L87.3,31.8z"/>
	<path class="st0" d="M89.5,29.6v1.1h0.7V31h-0.7v1.9c0,0.2,0,0.3,0,0.3c0,0,0,0.1,0.1,0.1c0,0,0.1,0,0.1,0c0.1,0,0.3-0.1,0.4-0.3
		l0.1,0.1c-0.2,0.4-0.5,0.6-0.8,0.6c-0.2,0-0.4-0.1-0.5-0.2c-0.1-0.1-0.2-0.2-0.3-0.4c0-0.1,0-0.3,0-0.6V31h-0.4v-0.1
		c0.3-0.2,0.5-0.4,0.7-0.6c0.2-0.2,0.4-0.4,0.5-0.7H89.5L89.5,29.6z"/>
	<path class="st0" d="M93.1,32h-1.6c0,0.4,0.1,0.7,0.3,0.9c0.1,0.2,0.3,0.3,0.5,0.3c0.1,0,0.2,0,0.3-0.1c0.1-0.1,0.2-0.2,0.3-0.4
		l0.1,0.1c-0.2,0.3-0.3,0.6-0.5,0.7c-0.2,0.1-0.4,0.2-0.7,0.2c-0.4,0-0.8-0.2-1-0.5c-0.2-0.3-0.3-0.6-0.3-1c0-0.5,0.1-0.9,0.4-1.2
		c0.3-0.3,0.6-0.4,1-0.4c0.3,0,0.6,0.1,0.8,0.4C92.9,31.2,93,31.6,93.1,32L93.1,32z M92.3,31.8c0-0.3,0-0.6-0.1-0.7
		c0-0.1-0.1-0.2-0.2-0.3c0,0-0.1-0.1-0.2-0.1c-0.1,0-0.2,0.1-0.3,0.2c-0.1,0.2-0.2,0.5-0.2,0.8v0.1H92.3L92.3,31.8z"/>
	<path class="st0" d="M94.5,30.7v0.7c0.2-0.3,0.4-0.5,0.5-0.6c0.1-0.1,0.3-0.2,0.4-0.2c0.1,0,0.2,0,0.3,0.1c0.1,0.1,0.1,0.2,0.1,0.3
		c0,0.1,0,0.3-0.1,0.3c-0.1,0.1-0.2,0.1-0.3,0.1c-0.1,0-0.2,0-0.3-0.1c-0.1-0.1-0.1-0.1-0.1-0.1c0,0,0,0-0.1,0c-0.1,0-0.1,0-0.2,0.1
		c-0.1,0.1-0.2,0.2-0.2,0.3c-0.1,0.2-0.1,0.4-0.1,0.7v0.7l0,0.2c0,0.1,0,0.2,0,0.2c0,0.1,0.1,0.1,0.1,0.1c0.1,0,0.1,0,0.3,0v0.1
		h-1.6v-0.1c0.1,0,0.2,0,0.3-0.1c0-0.1,0.1-0.2,0.1-0.5v-1.7c0-0.2,0-0.3,0-0.3c0-0.1-0.1-0.1-0.1-0.1c0,0-0.1,0-0.2-0.1v-0.1H94.5
		L94.5,30.7z"/>
	<path class="st0" d="M97.6,33.2c-0.4,0.3-0.7,0.5-1,0.5c-0.2,0-0.3-0.1-0.4-0.2c-0.1-0.1-0.2-0.3-0.2-0.4c0-0.2,0.1-0.4,0.3-0.6
		c0.2-0.2,0.6-0.4,1.3-0.7v-0.3c0-0.2,0-0.4,0-0.4c0-0.1-0.1-0.1-0.1-0.2c-0.1,0-0.1-0.1-0.2-0.1c-0.1,0-0.3,0-0.3,0.1
		c-0.1,0-0.1,0.1-0.1,0.1c0,0,0,0.1,0.1,0.2c0.1,0.1,0.1,0.2,0.1,0.3c0,0.1,0,0.2-0.1,0.3c-0.1,0.1-0.2,0.1-0.3,0.1
		c-0.1,0-0.2,0-0.3-0.1c-0.1-0.1-0.1-0.2-0.1-0.3c0-0.2,0.1-0.3,0.2-0.4c0.1-0.1,0.3-0.2,0.5-0.3c0.2-0.1,0.4-0.1,0.7-0.1
		c0.3,0,0.5,0.1,0.7,0.2c0.2,0.1,0.3,0.3,0.3,0.4c0,0.1,0,0.3,0,0.6v1.2c0,0.1,0,0.2,0,0.3c0,0,0,0.1,0,0.1c0,0,0,0,0.1,0
		c0.1,0,0.1,0,0.2-0.1l0.1,0.1c-0.1,0.2-0.2,0.3-0.3,0.3c-0.1,0.1-0.2,0.1-0.4,0.1c-0.2,0-0.3,0-0.4-0.1
		C97.7,33.5,97.6,33.4,97.6,33.2L97.6,33.2z M97.6,33v-1c-0.3,0.2-0.5,0.3-0.6,0.5c-0.1,0.1-0.1,0.2-0.1,0.3c0,0.1,0,0.2,0.1,0.3
		c0.1,0.1,0.1,0.1,0.2,0.1C97.3,33.2,97.5,33.1,97.6,33L97.6,33z"/>
	<path class="st0" d="M100.3,30.7V31c0.2-0.2,0.3-0.3,0.4-0.4c0.1-0.1,0.3-0.1,0.5-0.1c0.2,0,0.4,0.1,0.5,0.2
		c0.1,0.1,0.2,0.2,0.3,0.4c0,0.1,0.1,0.4,0.1,0.7V33c0,0.2,0,0.4,0.1,0.4c0,0.1,0.1,0.1,0.3,0.1v0.1h-1.5v-0.1
		c0.1,0,0.2-0.1,0.2-0.1c0-0.1,0.1-0.2,0.1-0.4v-1.3c0-0.2,0-0.4,0-0.5c0-0.1-0.1-0.1-0.1-0.1c0,0-0.1-0.1-0.2-0.1
		c-0.2,0-0.4,0.1-0.5,0.4V33c0,0.2,0,0.4,0.1,0.4c0,0.1,0.1,0.1,0.2,0.1v0.1h-1.5v-0.1c0.1,0,0.2-0.1,0.3-0.1c0,0,0.1-0.2,0.1-0.4
		v-1.7c0-0.2,0-0.4-0.1-0.4c0-0.1-0.1-0.1-0.3-0.1v-0.1H100.3L100.3,30.7z"/>
	<path class="st0" d="M104.5,30.6l0,1h-0.1c-0.1-0.3-0.3-0.5-0.4-0.6c-0.1-0.1-0.3-0.2-0.4-0.2c-0.1,0-0.2,0-0.2,0.1
		c-0.1,0.1-0.1,0.1-0.1,0.2c0,0.1,0,0.1,0.1,0.2c0.1,0.1,0.3,0.2,0.6,0.5c0.3,0.2,0.5,0.4,0.6,0.5c0.1,0.1,0.2,0.3,0.2,0.5
		c0,0.2,0,0.3-0.1,0.5c-0.1,0.2-0.2,0.3-0.4,0.4c-0.2,0.1-0.3,0.1-0.5,0.1c-0.1,0-0.3,0-0.6-0.1c-0.1,0-0.1,0-0.1,0
		c-0.1,0-0.1,0.1-0.2,0.2h-0.1l-0.1-1.1h0.1c0.1,0.3,0.2,0.5,0.4,0.6c0.2,0.1,0.3,0.2,0.5,0.2c0.1,0,0.2,0,0.3-0.1
		c0.1-0.1,0.1-0.1,0.1-0.2c0-0.1,0-0.2-0.1-0.3c-0.1-0.1-0.2-0.2-0.4-0.3c-0.3-0.2-0.5-0.4-0.6-0.5c-0.1-0.2-0.2-0.4-0.2-0.6
		c0-0.2,0.1-0.4,0.2-0.6c0.2-0.2,0.4-0.3,0.7-0.3c0.2,0,0.3,0,0.5,0.1c0.1,0,0.1,0,0.1,0c0,0,0.1,0,0.1,0c0,0,0.1-0.1,0.1-0.1H104.5
		L104.5,30.6z"/>
	<path class="st0" d="M105.3,31.3v-0.1c0.2-0.1,0.4-0.2,0.5-0.4c0.1-0.2,0.2-0.3,0.2-0.5c0,0,0-0.1,0-0.1c0,0,0,0,0,0c0,0,0,0-0.1,0
		c-0.1,0-0.1,0.1-0.2,0.1c-0.1,0-0.2,0-0.3-0.1c-0.1-0.1-0.1-0.2-0.1-0.3c0-0.1,0.1-0.3,0.2-0.4c0.1-0.1,0.2-0.2,0.4-0.2
		c0.2,0,0.3,0.1,0.5,0.2c0.1,0.1,0.2,0.3,0.2,0.6c0,0.3-0.1,0.6-0.3,0.8C105.9,31.1,105.7,31.2,105.3,31.3L105.3,31.3z"/>
	<path class="st0" d="M109.8,32.4h-1.5l-0.2,0.4c-0.1,0.1-0.1,0.3-0.1,0.3c0,0.1,0,0.2,0.1,0.3c0.1,0,0.2,0.1,0.4,0.1v0.1h-1.4v-0.1
		c0.2,0,0.3-0.1,0.4-0.2c0.1-0.1,0.2-0.3,0.4-0.7l1.6-3.5h0.1l1.6,3.6c0.1,0.3,0.3,0.6,0.4,0.6c0.1,0.1,0.2,0.1,0.3,0.1v0.1h-2.1
		v-0.1h0.1c0.2,0,0.3,0,0.4-0.1c0,0,0.1-0.1,0.1-0.1c0,0,0-0.1,0-0.1c0,0,0-0.1-0.1-0.2L109.8,32.4L109.8,32.4z M109.6,32.2
		l-0.6-1.5l-0.7,1.5H109.6L109.6,32.2z"/>
	<path class="st0" d="M113,31v2.1c0,0.2,0,0.3,0.1,0.4c0.1,0.1,0.2,0.1,0.4,0.1v0.1h-1.8v-0.1c0.1,0,0.2,0,0.3,0
		c0.1,0,0.1-0.1,0.1-0.1c0-0.1,0-0.2,0-0.3V31h-0.4v-0.3h0.4v-0.2l0-0.2c0-0.3,0.1-0.6,0.3-0.8c0.2-0.2,0.5-0.3,0.9-0.3
		c0.3,0,0.5,0,0.6,0.1c0.1,0.1,0.2,0.2,0.2,0.3c0,0.1,0,0.2-0.1,0.3c-0.1,0.1-0.2,0.1-0.3,0.1c-0.1,0-0.2,0-0.3-0.1
		c-0.1-0.1-0.1-0.1-0.1-0.2c0,0,0-0.1,0-0.1c0,0,0-0.1,0-0.1c0,0,0-0.1,0-0.1c0,0-0.1,0-0.1,0c-0.1,0-0.1,0-0.2,0.1
		c0,0.1-0.1,0.1-0.1,0.2l0,0.6v0.4h0.4V31H113L113,31z"/>
	<path class="st0" d="M115.2,31v2.1c0,0.2,0,0.3,0.1,0.4c0.1,0.1,0.2,0.1,0.4,0.1v0.1h-1.8v-0.1c0.1,0,0.2,0,0.3,0
		c0.1,0,0.1-0.1,0.1-0.1c0-0.1,0-0.2,0-0.3V31h-0.4v-0.3h0.4v-0.2l0-0.2c0-0.3,0.1-0.6,0.3-0.8c0.2-0.2,0.5-0.3,0.9-0.3
		c0.3,0,0.5,0,0.6,0.1c0.1,0.1,0.2,0.2,0.2,0.3c0,0.1,0,0.2-0.1,0.3c-0.1,0.1-0.2,0.1-0.3,0.1c-0.1,0-0.2,0-0.3-0.1
		c-0.1-0.1-0.1-0.1-0.1-0.2c0,0,0-0.1,0-0.1c0,0,0-0.1,0-0.1c0,0,0-0.1,0-0.1c0,0-0.1,0-0.1,0c-0.1,0-0.1,0-0.2,0.1
		c0,0.1-0.1,0.1-0.1,0.2l0,0.6v0.4h0.4V31H115.2L115.2,31z"/>
	<path class="st0" d="M117.6,33.2c-0.4,0.3-0.7,0.5-1,0.5c-0.2,0-0.3-0.1-0.4-0.2c-0.1-0.1-0.2-0.3-0.2-0.4c0-0.2,0.1-0.4,0.3-0.6
		c0.2-0.2,0.6-0.4,1.3-0.7v-0.3c0-0.2,0-0.4,0-0.4c0-0.1-0.1-0.1-0.1-0.2c-0.1,0-0.1-0.1-0.2-0.1c-0.1,0-0.3,0-0.3,0.1
		c-0.1,0-0.1,0.1-0.1,0.1c0,0,0,0.1,0.1,0.2c0.1,0.1,0.1,0.2,0.1,0.3c0,0.1,0,0.2-0.1,0.3c-0.1,0.1-0.2,0.1-0.3,0.1
		c-0.1,0-0.2,0-0.3-0.1c-0.1-0.1-0.1-0.2-0.1-0.3c0-0.2,0.1-0.3,0.2-0.4c0.1-0.1,0.3-0.2,0.5-0.3c0.2-0.1,0.4-0.1,0.7-0.1
		c0.3,0,0.5,0.1,0.7,0.2c0.2,0.1,0.3,0.3,0.3,0.4c0,0.1,0,0.3,0,0.6v1.2c0,0.1,0,0.2,0,0.3c0,0,0,0.1,0,0.1c0,0,0,0,0.1,0
		c0.1,0,0.1,0,0.2-0.1l0.1,0.1c-0.1,0.2-0.2,0.3-0.3,0.3c-0.1,0.1-0.2,0.1-0.4,0.1c-0.2,0-0.3,0-0.4-0.1
		C117.7,33.5,117.7,33.4,117.6,33.2L117.6,33.2z M117.6,33v-1c-0.3,0.2-0.5,0.3-0.6,0.5c-0.1,0.1-0.1,0.2-0.1,0.3
		c0,0.1,0,0.2,0.1,0.3c0.1,0.1,0.1,0.1,0.2,0.1C117.4,33.2,117.5,33.1,117.6,33L117.6,33z"/>
	<path class="st0" d="M119.9,29.2c0.1,0,0.3,0,0.4,0.1c0.1,0.1,0.1,0.2,0.1,0.3c0,0.1,0,0.3-0.1,0.3c-0.1,0.1-0.2,0.1-0.3,0.1
		c-0.1,0-0.3,0-0.3-0.1c-0.1-0.1-0.1-0.2-0.1-0.3c0-0.1,0-0.3,0.1-0.3C119.7,29.2,119.8,29.2,119.9,29.2L119.9,29.2z M120.4,30.7V33
		c0,0.2,0,0.3,0.1,0.4c0,0.1,0.1,0.1,0.3,0.1v0.1h-1.6v-0.1c0.1,0,0.2,0,0.3-0.1c0,0,0.1-0.2,0.1-0.4v-1.8c0-0.2,0-0.3-0.1-0.4
		c0-0.1-0.1-0.1-0.3-0.1v-0.1H120.4L120.4,30.7z"/>
	<path class="st0" d="M122.2,30.7v0.7c0.2-0.3,0.4-0.5,0.5-0.6c0.1-0.1,0.3-0.2,0.4-0.2c0.1,0,0.2,0,0.3,0.1
		c0.1,0.1,0.1,0.2,0.1,0.3c0,0.1,0,0.3-0.1,0.3c-0.1,0.1-0.2,0.1-0.3,0.1c-0.1,0-0.2,0-0.3-0.1c-0.1-0.1-0.1-0.1-0.1-0.1
		c0,0,0,0-0.1,0c-0.1,0-0.1,0-0.2,0.1c-0.1,0.1-0.2,0.2-0.2,0.3c-0.1,0.2-0.1,0.4-0.1,0.7v0.7l0,0.2c0,0.1,0,0.2,0,0.2
		c0,0.1,0.1,0.1,0.1,0.1c0.1,0,0.1,0,0.3,0v0.1H121v-0.1c0.1,0,0.2,0,0.3-0.1c0-0.1,0.1-0.2,0.1-0.5v-1.7c0-0.2,0-0.3,0-0.3
		c0-0.1-0.1-0.1-0.1-0.1c0,0-0.1,0-0.2-0.1v-0.1H122.2L122.2,30.7z"/>
	<path class="st0" d="M125.6,30.6l0,1h-0.1c-0.1-0.3-0.3-0.5-0.4-0.6c-0.1-0.1-0.3-0.2-0.4-0.2c-0.1,0-0.2,0-0.2,0.1
		c-0.1,0.1-0.1,0.1-0.1,0.2c0,0.1,0,0.1,0.1,0.2c0.1,0.1,0.3,0.2,0.6,0.5c0.3,0.2,0.5,0.4,0.6,0.5c0.1,0.1,0.2,0.3,0.2,0.5
		c0,0.2,0,0.3-0.1,0.5c-0.1,0.2-0.2,0.3-0.4,0.4c-0.2,0.1-0.3,0.1-0.5,0.1c-0.1,0-0.3,0-0.6-0.1c-0.1,0-0.1,0-0.1,0
		c-0.1,0-0.1,0.1-0.2,0.2h-0.1l-0.1-1.1h0.1c0.1,0.3,0.2,0.5,0.4,0.6c0.2,0.1,0.3,0.2,0.5,0.2c0.1,0,0.2,0,0.3-0.1
		c0.1-0.1,0.1-0.1,0.1-0.2c0-0.1,0-0.2-0.1-0.3c-0.1-0.1-0.2-0.2-0.4-0.3c-0.3-0.2-0.5-0.4-0.6-0.5c-0.1-0.2-0.2-0.4-0.2-0.6
		c0-0.2,0.1-0.4,0.2-0.6c0.2-0.2,0.4-0.3,0.7-0.3c0.2,0,0.3,0,0.5,0.1c0.1,0,0.1,0,0.1,0c0,0,0.1,0,0.1,0c0,0,0.1-0.1,0.1-0.1H125.6
		L125.6,30.6z"/>
</g>
<g>
	<g>
		<path class="st1" d="M172.1,29.7"/>
		<linearGradient id="SVGID_1_" gradientUnits="userSpaceOnUse" x1="160.2345" y1="13.1378" x2="171.6618" y2="23.7341">
			<stop  offset="0" style="stop-color:#377BBE"/>
			<stop  offset="1" style="stop-color:#00B9B8"/>
		</linearGradient>
		<path class="st2" d="M165,15.1c0.1,0,9.8,8.2,9.8,8.2l-2.9,2.9l-12.3-10.3C159.6,15.9,163.9,15.1,165,15.1z"/>
		<linearGradient id="SVGID_2_" gradientUnits="userSpaceOnUse" x1="153.7775" y1="33.1241" x2="164.7892" y2="13.8015">
			<stop  offset="1.141827e-02" style="stop-color:#FBD025"/>
			<stop  offset="1" style="stop-color:#F7941D"/>
		</linearGradient>
		<path class="st3" d="M159,23.3c-0.1,0-9.8,8.2-9.8,8.2l2.9,2.9l12.3-10.3C164.4,24.1,160.1,23.3,159,23.3z"/>
		<linearGradient id="SVGID_3_" gradientUnits="userSpaceOnUse" x1="172.4669" y1="33.052" x2="161.1802" y2="21.7653">
			<stop  offset="0" style="stop-color:#E8477A"/>
			<stop  offset="0.8279" style="stop-color:#F89F2D"/>
		</linearGradient>
		<path class="st4" d="M163.6,23.3c1.2,0,1.6-0.1,2.6,0.8c3.1,2.6,8.6,7.7,8.6,7.7l-3,2.6c0,0-7.9-7.1-11.4-9.9
			c-0.8-0.7-1.4-1.1-1.4-1.1s2,0,3.4-0.1C162.9,23.3,163.3,23.3,163.6,23.3z"/>
		<linearGradient id="SVGID_4_" gradientUnits="userSpaceOnUse" x1="161.5957" y1="15.6738" x2="148.5062" y2="26.27">
			<stop  offset="0" style="stop-color:#8BC540"/>
			<stop  offset="1" style="stop-color:#28B24B"/>
		</linearGradient>
		<path class="st5" d="M160.4,15.1c-1.2,0-1.6-0.1-2.6,0.8c-3.1,2.6-8.6,7.7-8.6,7.7l3,2.6c0,0,7.9-7.1,11.4-9.9
			c0.8-0.7,1.4-1.1,1.4-1.1s-2,0-3.4-0.1C161.1,15.1,160.7,15.1,160.4,15.1z"/>
	</g>
	<g>
		<path class="st0" d="M182,16.7h3.4l3.9,10.9h0l3.8-10.9h3.4v14h-2.3V19.9h0l-3.9,10.8h-2l-3.9-10.8h0v10.8H182V16.7z"/>
		<path class="st0" d="M198,20.5h2.4l2.6,7.6h0l2.6-7.6h2.3l-3.9,10.7c-0.2,0.5-0.4,0.9-0.5,1.3c-0.2,0.4-0.4,0.8-0.6,1.1
			c-0.3,0.3-0.6,0.6-0.9,0.8c-0.4,0.2-0.9,0.3-1.4,0.3c-0.5,0-1,0-1.5-0.1v-1.9c0.2,0,0.4,0.1,0.5,0.1c0.2,0,0.3,0,0.5,0
			c0.3,0,0.5,0,0.6-0.1c0.2-0.1,0.3-0.2,0.4-0.3c0.1-0.1,0.2-0.3,0.3-0.4c0.1-0.2,0.1-0.4,0.2-0.6l0.3-0.8L198,20.5z"/>
		<path class="st0" d="M211.5,26c0,0.5,0.1,1,0.3,1.4c0.2,0.4,0.4,0.7,0.8,0.9c0.3,0.2,0.7,0.4,1.1,0.5c0.4,0.1,0.9,0.2,1.4,0.2
			c0.5,0,1-0.1,1.4-0.2c0.4-0.1,0.7-0.3,0.9-0.5c0.2-0.2,0.4-0.4,0.5-0.7c0.1-0.3,0.2-0.5,0.2-0.8c0-0.5-0.1-0.9-0.4-1.2
			c-0.2-0.3-0.5-0.4-0.8-0.5c-0.5-0.2-1.1-0.4-1.7-0.5c-0.7-0.2-1.5-0.4-2.4-0.6c-0.6-0.2-1.1-0.4-1.5-0.6c-0.4-0.3-0.7-0.5-0.9-0.9
			c-0.2-0.3-0.4-0.6-0.5-1c-0.1-0.4-0.1-0.7-0.1-1.1c0-0.7,0.1-1.3,0.4-1.8c0.3-0.5,0.7-0.9,1.2-1.3c0.5-0.3,1-0.6,1.6-0.8
			c0.6-0.2,1.2-0.2,1.9-0.2c0.7,0,1.4,0.1,2.1,0.3c0.6,0.2,1.2,0.5,1.7,0.9c0.5,0.4,0.9,0.8,1.2,1.4c0.3,0.6,0.4,1.2,0.4,1.9h-2.4
			c-0.1-0.9-0.4-1.5-0.9-1.9c-0.5-0.4-1.2-0.6-2.1-0.6c-0.3,0-0.6,0-0.9,0.1c-0.3,0.1-0.6,0.2-0.8,0.3c-0.2,0.1-0.5,0.3-0.6,0.6
			c-0.2,0.2-0.2,0.5-0.2,0.9c0,0.5,0.2,0.9,0.5,1.2c0.3,0.3,0.7,0.5,1.2,0.6c0.1,0,0.3,0.1,0.6,0.2c0.4,0.1,0.8,0.2,1.2,0.3
			c0.4,0.1,0.9,0.2,1.3,0.3c0.4,0.1,0.7,0.2,0.9,0.2c0.5,0.1,0.9,0.3,1.2,0.6c0.3,0.2,0.6,0.5,0.9,0.9c0.2,0.3,0.4,0.7,0.5,1
			c0.1,0.4,0.2,0.7,0.2,1.1c0,0.8-0.2,1.5-0.5,2c-0.3,0.6-0.7,1-1.3,1.4c-0.5,0.4-1.1,0.6-1.8,0.8c-0.7,0.2-1.3,0.2-2,0.2
			c-0.8,0-1.5-0.1-2.3-0.3c-0.7-0.2-1.3-0.5-1.8-0.9c-0.5-0.4-0.9-0.9-1.3-1.6c-0.3-0.6-0.5-1.4-0.5-2.2H211.5z"/>
		<path class="st0" d="M223.7,26.2c0,0.4,0.1,0.8,0.2,1.1c0.1,0.4,0.3,0.7,0.5,1c0.2,0.3,0.5,0.5,0.8,0.7c0.3,0.2,0.7,0.2,1.2,0.2
			c0.7,0,1.2-0.1,1.6-0.4c0.4-0.3,0.7-0.7,0.9-1.3h2.1c-0.1,0.5-0.3,1-0.6,1.5c-0.3,0.4-0.6,0.8-1,1.1c-0.4,0.3-0.9,0.5-1.4,0.7
			c-0.5,0.1-1,0.2-1.6,0.2c-0.8,0-1.5-0.1-2.1-0.4c-0.6-0.3-1.1-0.6-1.6-1.1c-0.4-0.5-0.7-1-1-1.7c-0.2-0.7-0.3-1.4-0.3-2.2
			c0-0.7,0.1-1.4,0.3-2c0.2-0.6,0.6-1.2,1-1.7c0.4-0.5,0.9-0.9,1.5-1.2c0.6-0.3,1.3-0.4,2-0.4c0.8,0,1.5,0.2,2.1,0.5
			c0.6,0.3,1.2,0.8,1.6,1.3c0.4,0.5,0.7,1.2,0.9,1.9c0.2,0.7,0.2,1.4,0.1,2.2H223.7z M228.9,24.7c0-0.4-0.1-0.7-0.2-1
			c-0.1-0.3-0.3-0.6-0.5-0.9c-0.2-0.2-0.5-0.4-0.8-0.6c-0.3-0.1-0.6-0.2-1-0.2c-0.4,0-0.7,0.1-1.1,0.2c-0.3,0.1-0.6,0.3-0.8,0.6
			c-0.2,0.2-0.4,0.5-0.5,0.9c-0.1,0.3-0.2,0.7-0.2,1.1H228.9z"/>
		<path class="st0" d="M232.4,20.5h2.1v2h0c0.1-0.3,0.2-0.5,0.4-0.8c0.2-0.3,0.4-0.5,0.7-0.7c0.3-0.2,0.6-0.4,0.9-0.5
			c0.3-0.1,0.7-0.2,1-0.2c0.3,0,0.4,0,0.5,0c0.1,0,0.2,0,0.3,0v2.2c-0.2,0-0.3,0-0.5-0.1c-0.2,0-0.3,0-0.5,0c-0.4,0-0.7,0.1-1.1,0.2
			c-0.3,0.2-0.6,0.4-0.9,0.7c-0.2,0.3-0.4,0.7-0.6,1.1c-0.1,0.4-0.2,0.9-0.2,1.5v4.8h-2.2V20.5z"/>
		<path class="st0" d="M239.1,20.5h2.4l2.6,7.8h0l2.5-7.8h2.3l-3.6,10.1h-2.5L239.1,20.5z"/>
		<path class="st0" d="M250.3,16.7h2.2v2.1h-2.2V16.7z M250.3,20.5h2.2v10.1h-2.2V20.5z"/>
		<path class="st0" d="M261.4,23.9c-0.1-0.6-0.3-1.1-0.8-1.4c-0.4-0.3-0.9-0.5-1.6-0.5c-0.3,0-0.6,0-0.9,0.1
			c-0.3,0.1-0.6,0.3-0.9,0.5c-0.3,0.3-0.5,0.6-0.7,1.1c-0.2,0.5-0.3,1.1-0.3,1.9c0,0.4,0,0.8,0.1,1.3c0.1,0.4,0.3,0.8,0.5,1.1
			c0.2,0.3,0.5,0.6,0.8,0.8c0.3,0.2,0.7,0.3,1.2,0.3c0.7,0,1.2-0.2,1.6-0.6c0.4-0.4,0.7-1,0.8-1.7h2.2c-0.2,1.3-0.7,2.3-1.5,3
			c-0.8,0.7-1.8,1-3.1,1c-0.8,0-1.5-0.1-2.1-0.4c-0.6-0.3-1.1-0.6-1.5-1.1c-0.4-0.5-0.7-1-0.9-1.7c-0.2-0.6-0.3-1.3-0.3-2.1
			c0-0.8,0.1-1.5,0.3-2.1c0.2-0.7,0.5-1.2,0.9-1.7c0.4-0.5,0.9-0.9,1.6-1.2c0.6-0.3,1.3-0.4,2.2-0.4c0.6,0,1.1,0.1,1.7,0.2
			c0.5,0.2,1,0.4,1.4,0.7c0.4,0.3,0.7,0.7,1,1.1c0.3,0.5,0.4,1,0.5,1.6H261.4z"/>
		<path class="st0" d="M267.2,26.2c0,0.4,0.1,0.8,0.2,1.1c0.1,0.4,0.3,0.7,0.5,1c0.2,0.3,0.5,0.5,0.8,0.7c0.3,0.2,0.7,0.2,1.2,0.2
			c0.7,0,1.2-0.1,1.6-0.4c0.4-0.3,0.7-0.7,0.9-1.3h2.1c-0.1,0.5-0.3,1-0.6,1.5c-0.3,0.4-0.6,0.8-1,1.1c-0.4,0.3-0.9,0.5-1.4,0.7
			c-0.5,0.1-1,0.2-1.6,0.2c-0.8,0-1.5-0.1-2.1-0.4c-0.6-0.3-1.1-0.6-1.6-1.1c-0.4-0.5-0.7-1-1-1.7c-0.2-0.7-0.3-1.4-0.3-2.2
			c0-0.7,0.1-1.4,0.3-2c0.2-0.6,0.6-1.2,1-1.7c0.4-0.5,0.9-0.9,1.5-1.2c0.6-0.3,1.3-0.4,2-0.4c0.8,0,1.5,0.2,2.1,0.5
			c0.6,0.3,1.2,0.8,1.6,1.3c0.4,0.5,0.7,1.2,0.9,1.9c0.2,0.7,0.2,1.4,0.1,2.2H267.2z M272.4,24.7c0-0.4-0.1-0.7-0.2-1
			c-0.1-0.3-0.3-0.6-0.5-0.9c-0.2-0.2-0.5-0.4-0.8-0.6c-0.3-0.1-0.6-0.2-1-0.2c-0.4,0-0.7,0.1-1.1,0.2c-0.3,0.1-0.6,0.3-0.8,0.6
			c-0.2,0.2-0.4,0.5-0.5,0.9c-0.1,0.3-0.2,0.7-0.2,1.1H272.4z"/>
	</g>
	<g>
		<g id="MyService">
			<g>
				<path class="st6" d="M298.4,15.1H281c-1.5,0-2.6,1.2-2.6,2.6v4.5c0,1.5,1.2,2.6,2.6,2.6h17.4c1.5,0,2.6-1.2,2.6-2.6v-4.5
					C301,16.3,299.8,15.1,298.4,15.1z"/>
			</g>
		</g>
		<g id="BETA">
			<g>
				<path class="st7" d="M284.4,19.6c0.2-0.1,0.4-0.2,0.5-0.4c0.1-0.2,0.2-0.3,0.2-0.6c0-0.2,0-0.4-0.1-0.5
					c-0.1-0.1-0.2-0.3-0.3-0.4c-0.1-0.1-0.3-0.2-0.5-0.2c-0.2,0-0.4-0.1-0.6-0.1h-2.2v4.6h2.2c0.2,0,0.4,0,0.6-0.1
					c0.2-0.1,0.4-0.1,0.5-0.2c0.2-0.1,0.3-0.2,0.4-0.4c0.1-0.2,0.1-0.4,0.1-0.6c0-0.3-0.1-0.5-0.2-0.7
					C284.9,19.9,284.7,19.7,284.4,19.6z M282.4,18.3h0.9c0.1,0,0.2,0,0.3,0c0.1,0,0.2,0,0.2,0.1c0.1,0,0.1,0.1,0.2,0.2
					c0,0.1,0.1,0.2,0.1,0.3c0,0.2-0.1,0.3-0.2,0.4c-0.1,0.1-0.3,0.1-0.4,0.1h-1V18.3z M284.2,21c0,0.1-0.1,0.1-0.2,0.2
					c-0.1,0-0.1,0.1-0.2,0.1c-0.1,0-0.2,0-0.3,0h-1.1v-1.3h1.1c0.2,0,0.4,0.1,0.5,0.2c0.1,0.1,0.2,0.3,0.2,0.5
					C284.2,20.9,284.2,21,284.2,21z M287.1,20.2h2.2v-0.8h-2.2v-1h2.4v-0.8h-3.4v4.6h3.5v-0.8h-2.5V20.2z M293.8,17.6h-3.8v0.8h1.4
					v3.7h1v-3.7h1.4V17.6z M296.3,17.6h-1l-1.7,4.6h1l0.4-1h1.7l0.3,1h1L296.3,17.6z M295.1,20.4l0.6-1.7h0l0.6,1.7H295.1z"/>
			</g>
		</g>
	</g>
</g>
<line class="st8" x1="137.4" y1="11.3" x2="137.4" y2="37"/>
</svg>
