<svg id="Layer_1" data-name="Layer 1" xmlns="http://www.w3.org/2000/svg" xmlns:xlink="http://www.w3.org/1999/xlink" viewBox="0 0 531.1 93.11"><defs><style>.cls-1{fill:#fff;stroke:#010101;stroke-width:1.42px;}.cls-1,.cls-7{stroke-miterlimit:10;}.cls-2{fill:url(#linear-gradient);}.cls-3{fill:url(#linear-gradient-2);}.cls-4{fill:url(#linear-gradient-3);}.cls-5{fill:url(#linear-gradient-4);}.cls-6,.cls-8{fill:#1758a6;}.cls-7{fill:none;stroke:#175aa5;stroke-width:1.8px;}.cls-8{fill-rule:evenodd;}</style><linearGradient id="linear-gradient" x1="84.29" y1="-8.57" x2="132.58" y2="-53.35" gradientTransform="matrix(1, 0, 0, -1, 0, -2.42)" gradientUnits="userSpaceOnUse"><stop offset="0" stop-color="#387cc0"/><stop offset="1" stop-color="#05bab9"/></linearGradient><linearGradient id="linear-gradient-2" x1="57" y1="-93.03" x2="103.53" y2="-11.37" gradientTransform="matrix(1, 0, 0, -1, 0, -2.42)" gradientUnits="userSpaceOnUse"><stop offset="0.01" stop-color="#fcd127"/><stop offset="1" stop-color="#f8961d"/></linearGradient><linearGradient id="linear-gradient-3" x1="135.98" y1="-92.72" x2="88.28" y2="-45.03" gradientTransform="matrix(1, 0, 0, -1, 0, -2.42)" gradientUnits="userSpaceOnUse"><stop offset="0" stop-color="#e9487b"/><stop offset="0.83" stop-color="#f9a12e"/></linearGradient><linearGradient id="linear-gradient-4" x1="90.04" y1="-19.29" x2="34.73" y2="-64.06" gradientTransform="matrix(1, 0, 0, -1, 0, -2.42)" gradientUnits="userSpaceOnUse"><stop offset="0" stop-color="#8dc641"/><stop offset="1" stop-color="#2ab34b"/></linearGradient></defs><title>myservice-logo</title><path class="cls-1" d="M134.22,76.32" transform="translate(-37.8 -3.97)"/><path class="cls-2" d="M104.35,14.57c.52,0,41.44,34.65,41.44,34.65L133.62,61.4,81.78,17.8S99.75,14.57,104.35,14.57Z" transform="translate(-37.8 -3.97)"/><path class="cls-3" d="M79.24,49.2c-.51,0-41.44,34.66-41.44,34.66L50,96l51.83-43.61S83.85,49.2,79.24,49.2Z" transform="translate(-37.8 -3.97)"/><path class="cls-4" d="M98.44,48.91c5.15,0,6.59-.35,10.89,3.23,13.28,11,36.46,32.35,36.46,32.35l-12.7,11.16s-33.48-29.83-48-41.71L79.24,49.2S87.71,49,93.78,49C95.68,48.92,97.34,48.91,98.44,48.91Z" transform="translate(-37.8 -3.97)"/><path class="cls-5" d="M85.16,14.27c-5.16,0-6.6-.34-10.9,3.24C61,28.56,37.8,49.86,37.8,49.86L50.5,61S84,31.19,98.54,19.31l5.81-4.74s-8.47-.17-14.54-.25C87.92,14.29,86.25,14.27,85.16,14.27Z" transform="translate(-37.8 -3.97)"/><path class="cls-6" d="M176.25,21.1H190.8l16.29,46.22h.16L223.13,21.1h14.38v59h-9.83V34.58h-.17L211.14,80.14h-8.52L186.25,34.58h-.16V80.14h-9.84v-59Z" transform="translate(-37.8 -3.97)"/><path class="cls-6" d="M243.88,37.39h10.34l11.16,31.92h.16l10.84-31.92h9.83L269.6,82.45c-.78,1.93-1.53,3.78-2.28,5.54a19.57,19.57,0,0,1-2.73,4.67,11.76,11.76,0,0,1-4,3.23,13.62,13.62,0,0,1-6.11,1.2,43,43,0,0,1-6.54-.5V88.65c.77.11,1.52.24,2.24.37a11.56,11.56,0,0,0,2.23.21,7.85,7.85,0,0,0,2.73-.41,4.63,4.63,0,0,0,1.77-1.2,7.62,7.62,0,0,0,1.2-1.86,18.06,18.06,0,0,0,.91-2.48L260.09,80Z" transform="translate(-37.8 -3.97)"/><path class="cls-6" d="M300.79,60.46a13.26,13.26,0,0,0,1.15,5.79,10.32,10.32,0,0,0,3.23,3.92,13.62,13.62,0,0,0,4.75,2.24,23,23,0,0,0,5.83.7,18.54,18.54,0,0,0,5.79-.79,11.66,11.66,0,0,0,3.89-2,7.48,7.48,0,0,0,2.15-2.85,8.6,8.6,0,0,0,.66-3.27q0-3.39-1.53-5a8.83,8.83,0,0,0-3.35-2.28A71.44,71.44,0,0,0,316,54.71q-4.17-1-10.29-2.68a22.13,22.13,0,0,1-6.33-2.61,14.88,14.88,0,0,1-4-3.6,12.73,12.73,0,0,1-2.11-4.21,17.1,17.1,0,0,1-.62-4.55,15.36,15.36,0,0,1,1.86-7.73,16.59,16.59,0,0,1,4.92-5.42,21.75,21.75,0,0,1,7-3.18,30.38,30.38,0,0,1,7.85-1A30.9,30.9,0,0,1,323,20.9a21.39,21.39,0,0,1,7.19,3.59,17.06,17.06,0,0,1,6.74,14.06H326.58c-.27-3.81-1.57-6.49-3.88-8.06a15.39,15.39,0,0,0-8.85-2.36,19.22,19.22,0,0,0-3.72.37,11.73,11.73,0,0,0-3.47,1.24,7.57,7.57,0,0,0-2.61,2.36,6.35,6.35,0,0,0-1,3.72A6.36,6.36,0,0,0,305,40.74a12.58,12.58,0,0,0,5.09,2.68l2.6.71c1.52.41,3.21.87,5.08,1.36l5.5,1.45c1.79.47,3.07.81,3.85,1a17.43,17.43,0,0,1,5,2.48,16.17,16.17,0,0,1,3.6,3.6,15,15,0,0,1,2.15,4.34,16.15,16.15,0,0,1,.7,4.63,16.74,16.74,0,0,1-2,8.48,17.25,17.25,0,0,1-5.33,5.74,23.21,23.21,0,0,1-7.52,3.27,36,36,0,0,1-8.6,1,35.25,35.25,0,0,1-9.51-1.24,22,22,0,0,1-7.77-3.8,18.68,18.68,0,0,1-5.3-6.57,21.88,21.88,0,0,1-2.06-9.47Z" transform="translate(-37.8 -3.97)"/><path class="cls-6" d="M352.44,61.2a16.35,16.35,0,0,0,.71,4.8,11.67,11.67,0,0,0,2.11,4,10.09,10.09,0,0,0,3.55,2.77,11.71,11.71,0,0,0,5.13,1,11.35,11.35,0,0,0,6.65-1.77,10.59,10.59,0,0,0,3.77-5.34h8.93a17.79,17.79,0,0,1-7,10.79,18.77,18.77,0,0,1-5.75,2.81,24.45,24.45,0,0,1-15.58-.7A18.34,18.34,0,0,1,348.44,75a19.48,19.48,0,0,1-4.06-7.11A28.91,28.91,0,0,1,343,58.8a25.61,25.61,0,0,1,1.45-8.64A22.15,22.15,0,0,1,348.6,43a19.4,19.4,0,0,1,15.09-6.74,19.21,19.21,0,0,1,9.05,2.11,20,20,0,0,1,6.66,5.58,22.75,22.75,0,0,1,3.84,8,24.37,24.37,0,0,1,.62,9.3Zm22-6.2a15.32,15.32,0,0,0-.95-4.3,11.51,11.51,0,0,0-2.15-3.59A10.85,10.85,0,0,0,368,44.62a9.8,9.8,0,0,0-4.34-.95,11.3,11.3,0,0,0-4.51.87,10.27,10.27,0,0,0-3.47,2.4,11.79,11.79,0,0,0-2.32,3.6,12.55,12.55,0,0,0-.95,4.46Z" transform="translate(-37.8 -3.97)"/><path class="cls-6" d="M389.29,37.39h8.85v8.27h.16a9.59,9.59,0,0,1,1.62-3.39,15.51,15.51,0,0,1,2.89-3,14.53,14.53,0,0,1,3.76-2.19,11.29,11.29,0,0,1,4.22-.83,18.71,18.71,0,0,1,2.27.09l1.29.16v9.1c-.67-.11-1.34-.21-2-.29a15.71,15.71,0,0,0-2-.13,10.84,10.84,0,0,0-4.5,1,10.32,10.32,0,0,0-3.68,2.81,13.61,13.61,0,0,0-2.48,4.59,19.8,19.8,0,0,0-.91,6.29V80.14h-9.43V37.39Z" transform="translate(-37.8 -3.97)"/><path class="cls-6" d="M417.71,37.39H428l10.83,32.83H439l10.41-32.83h9.76l-15.3,42.75H433.25Z" transform="translate(-37.8 -3.97)"/><path class="cls-6" d="M465.08,21.1h9.43V30h-9.43Zm0,16.29h9.43V80.14h-9.43Z" transform="translate(-37.8 -3.97)"/><path class="cls-6" d="M511.85,51.69a8.8,8.8,0,0,0-3.18-6,10.4,10.4,0,0,0-6.57-2,13.67,13.67,0,0,0-3.89.62,9.23,9.23,0,0,0-3.8,2.32,12.93,12.93,0,0,0-2.9,4.71,22.53,22.53,0,0,0-1.16,7.9,23.3,23.3,0,0,0,.62,5.29,14.55,14.55,0,0,0,2,4.71,10.71,10.71,0,0,0,3.51,3.35,10,10,0,0,0,5.21,1.28,9.47,9.47,0,0,0,6.82-2.56,11.93,11.93,0,0,0,3.35-7.19h9.43Q520,72.46,515,76.87t-13.27,4.42a21.81,21.81,0,0,1-8.88-1.69A18.83,18.83,0,0,1,486.3,75a19.78,19.78,0,0,1-4-7,27.54,27.54,0,0,1-1.36-8.76,30,30,0,0,1,1.32-9,20.72,20.72,0,0,1,4-7.32A18.54,18.54,0,0,1,492.79,38,22.27,22.27,0,0,1,502,36.23a25.91,25.91,0,0,1,7.07,1A18.82,18.82,0,0,1,515,40a15.09,15.09,0,0,1,4.25,4.79,16.32,16.32,0,0,1,2,6.86Z" transform="translate(-37.8 -3.97)"/><path class="cls-6" d="M536.33,61.2A16.35,16.35,0,0,0,537,66a11.84,11.84,0,0,0,2.11,4,10.18,10.18,0,0,0,3.55,2.77,11.77,11.77,0,0,0,5.13,1,11.38,11.38,0,0,0,6.66-1.77,10.57,10.57,0,0,0,3.76-5.34h8.93a17.68,17.68,0,0,1-6.95,10.79,18.83,18.83,0,0,1-5.74,2.81,23,23,0,0,1-6.66,1,22.68,22.68,0,0,1-8.93-1.65A18.34,18.34,0,0,1,532.32,75a19.6,19.6,0,0,1-4.05-7.11,28.91,28.91,0,0,1-1.37-9.1,25.61,25.61,0,0,1,1.45-8.64A22.15,22.15,0,0,1,532.48,43a19.4,19.4,0,0,1,15.09-6.74,19.21,19.21,0,0,1,9,2.11,20,20,0,0,1,6.66,5.58,22.75,22.75,0,0,1,3.84,8,24.37,24.37,0,0,1,.62,9.3Zm22-6.2a15.32,15.32,0,0,0-1-4.3,11.33,11.33,0,0,0-2.15-3.59,10.73,10.73,0,0,0-3.31-2.49,9.77,9.77,0,0,0-4.34-.95,11.34,11.34,0,0,0-4.51.87,10.27,10.27,0,0,0-3.47,2.4,11.76,11.76,0,0,0-2.31,3.6,12.34,12.34,0,0,0-.95,4.46Z" transform="translate(-37.8 -3.97)"/><g id="MyService"><path class="cls-7" d="M561.5,4.87H518.8a6.5,6.5,0,0,0-6.5,6.51V22.53a6.5,6.5,0,0,0,6.5,6.5h42.7a6.5,6.5,0,0,0,6.5-6.5V11.38A6.5,6.5,0,0,0,561.5,4.87Z" transform="translate(-37.8 -3.97)"/></g><g id="BETA"><path class="cls-8" d="M527.22,16a2.82,2.82,0,0,0,1.14-.93,2.45,2.45,0,0,0,.39-1.42,3.09,3.09,0,0,0-.26-1.33,2.19,2.19,0,0,0-.73-.86,3.25,3.25,0,0,0-1.14-.46,6.65,6.65,0,0,0-1.47-.15h-5.3V22.08h5.46a5.54,5.54,0,0,0,1.47-.19,3.84,3.84,0,0,0,1.28-.58,2.84,2.84,0,0,0,.89-1,3,3,0,0,0,.34-1.48,3.16,3.16,0,0,0-.52-1.81A2.7,2.7,0,0,0,527.22,16Zm-4.89-3.22h2.32a3.21,3.21,0,0,1,.63.06,1.56,1.56,0,0,1,.55.19,1.12,1.12,0,0,1,.38.4,1.36,1.36,0,0,1,.14.65,1.17,1.17,0,0,1-.43,1,1.75,1.75,0,0,1-1.08.32h-2.51V12.73Zm4.33,6.67a1.25,1.25,0,0,1-.4.45,1.62,1.62,0,0,1-.59.23,3.1,3.1,0,0,1-.69.08h-2.65v-3.1H525a2.08,2.08,0,0,1,1.29.37,1.45,1.45,0,0,1,.49,1.24A1.55,1.55,0,0,1,526.66,19.4Zm7.2-2.17h5.46V15.31h-5.46V12.89h5.95V10.8h-8.43V22.08h8.55V20h-6.07V17.23Zm16.48-6.43H541.1v2.09h3.38v9.19H547V12.89h3.38V10.8Zm6,0h-2.54l-4.26,11.28h2.5l.88-2.51h4.21l.86,2.51h2.57Zm-2.77,6.92,1.47-4.14h0l1.42,4.14Z" transform="translate(-37.8 -3.97)"/></g></svg>