<svg xmlns="http://www.w3.org/2000/svg" viewBox="0 0 105.65 93.39"><defs><style>.cls-1{fill:#dbdbdb;}</style></defs><title>new-icon-transport</title><g id="Layer_2" data-name="Layer 2"><g id="Layer_1-2" data-name="Layer 1"><path class="cls-1" d="M67.2,88.81c-15.91,6.48-28.05,7-40.87-4.45C15.45,74.66,8.2,69.56,1.86,55.49S5.81,19.75,25.73,12.42c9.49-3.48,43.44-23.26,58.71-4.35s27.71,34.28,17.47,53S77.33,84.69,67.2,88.81Z"/><path d="M82.6,57.39A79,79,0,0,0,71,53.66c-.59-7.25-3.58-13.79-8.22-17.72l9.29-9.29a1,1,0,0,0,.34-.79,1,1,0,0,0-.34-.79l-3.16-3.16a1.11,1.11,0,0,0-1.59,0l-9.82,9.86a3.67,3.67,0,0,1-.12-.94V28.91a9.07,9.07,0,0,0,4.52-7.79v-.23a9,9,0,0,0-18.08,0v.23a9.21,9.21,0,0,0,4.52,7.79v1.92a3.45,3.45,0,0,1-2,3.06C40,37.06,35.53,44.7,34.85,53.51a68.47,68.47,0,0,0-11.8,4,1,1,0,0,0-.68.91,1.08,1.08,0,0,0,.45,1l4.52,3a1.1,1.1,0,0,0,1,.12q3.33-1.11,6.46-2C35,67,36.19,72.7,38.3,76.82a1.2,1.2,0,0,0,1,.57H45a1.2,1.2,0,0,0,1-.57,1.35,1.35,0,0,0,0-1.13c-1.36-2.59-2-6.32-2.15-11a48.64,48.64,0,0,1,18.08,0c-.11,4.64-.79,8.36-2.15,11a1,1,0,0,0,0,1.13,1.36,1.36,0,0,0,1,.57h5.65a.89.89,0,0,0,.9-.57c2.12-4.13,3.35-9.84,3.49-16.22,2.13.57,4.31,1.23,6.57,2a.42.42,0,0,0,.34.11.6.6,0,0,0,.56-.34l4.52-3a1.1,1.1,0,0,0-.22-1.92Zm-14-4.3a81.37,81.37,0,0,0-14-1.65c-2.38-.09-4.76-.07-7.11.06L61.24,37.73C65.31,41.12,68,46.77,68.59,53.09ZM50,27h0l-.36-.19a6.79,6.79,0,0,1-3.44-5.22h0l0-.29V21.2c0-.1,0-.2,0-.31a6.8,6.8,0,0,1,6.78-6.78,6.64,6.64,0,0,1,6.67,6.78A6.73,6.73,0,0,1,55.71,27a1.12,1.12,0,0,0-.28.18,6.78,6.78,0,0,1-2.55.5A6.69,6.69,0,0,1,50,27Zm-2.62,8.69a5.66,5.66,0,0,0,3.28-5.08v-1a8.86,8.86,0,0,0,2.26.29A9,9,0,0,0,55,29.67v.94a5.83,5.83,0,0,0,.79,2.71L37.29,51.85C38.3,44.51,42.15,38.29,47.34,35.69ZM65.76,75.13H62.49a32.19,32.19,0,0,0,1.69-11.3,1.1,1.1,0,0,0-.9-1.13,49.6,49.6,0,0,0-20.8,0,1.1,1.1,0,0,0-.9,1.13,32.17,32.17,0,0,0,1.7,11.3H40c-1.81-3.84-2.83-9-2.94-14.92.45-.11.79-.22,1.24-.34a65.13,65.13,0,0,1,28.37-.11c.67.11,1.35.34,2,.45C68.59,66.09,67.57,71.29,65.76,75.13Zm11.87-14.8A81.31,81.31,0,0,0,55.49,56a66.74,66.74,0,0,0-17.75,1.64c-.68.23-1.47.34-2.15.57l-.05,0c-2.36.59-4.78,1.3-7.29,2.12l-2.38-1.59a56.71,56.71,0,0,1,10.32-3.22l.08.06a.42.42,0,0,1,.34-.11s0,0,.07-.06l.27-.06a2.5,2.5,0,0,0,.56-.33L58.08,34.56a1.23,1.23,0,0,0,.25-.36l9.81-9.81L69.72,26,43.5,52.19a1,1,0,0,0-.22,1.24,1.22,1.22,0,0,0,1.13.68h.11a81.23,81.23,0,0,1,15,0,80.29,80.29,0,0,1,8.73,1.32l1.39.31h.05a79.4,79.4,0,0,1,10.24,3.05Z"/></g></g></svg>