<?xml version="1.0" encoding="utf-8"?>
<!-- Generator: Adobe Illustrator 23.0.1, SVG Export Plug-In . SVG Version: 6.00 Build 0)  -->
<svg version="1.1" id="Layer_1" xmlns="http://www.w3.org/2000/svg" xmlns:xlink="http://www.w3.org/1999/xlink" x="0px" y="0px"
	 viewBox="0 0 72.4 55.8" style="enable-background:new 0 0 72.4 55.8;" xml:space="preserve">
<title>new-icon-payments</title>
<path d="M66.3,44.9h-0.4V9.4c0-2.3-1.9-4.2-4.2-4.2H11.5C9.1,5.2,7.3,7,7.3,9.4v35.6H6.8c-0.9,0-1.6,0.7-1.6,1.7l0,0v3
	c0,0.9,0.7,1.6,1.6,1.6h59.4c0.9,0,1.7-0.7,1.7-1.6v0v-3C67.9,45.6,67.2,44.9,66.3,44.9z M9.4,9.4c0-1.2,0.9-2.1,2.1-2.1h50.2
	c1.2,0,2.1,0.9,2.1,2.1v35.6H42l-0.3,0.7c-0.1,0.2-0.3,0.3-0.5,0.3h-8.4c-0.2,0-0.4-0.1-0.5-0.3l-0.2-0.7H9.4V9.4z M65.8,49.1H7.3
	V47h23.5c0.5,0.7,1.3,1,2.1,1h8.4c0.8,0,1.6-0.4,2.1-1h22.5V49.1z"/>
<path d="M61.6,41.8V10.4c0-0.6-0.4-1-1-1H12.5c-0.6,0-1,0.4-1,1v31.4c0,0.6,0.4,1,1,1h48.1C61.1,42.8,61.6,42.4,61.6,41.8
	C61.6,41.8,61.6,41.8,61.6,41.8z M59.5,40.8h-46V11.4h46V40.8L59.5,40.8z"/>
<path d="M33.4,30.3c0-0.6-0.5-1-1-1c-0.6,0-1,0.5-1,1c0,2.5,1.7,4.6,4.2,5.2v1.2c0,0.6,0.5,1,1.1,1c0.6,0,1-0.5,1-1v-1.2
	c2.8-0.6,4.7-3.3,4.1-6.2c-0.4-2.1-2-3.7-4.1-4.1V19c1.3,0.5,2.1,1.7,2.1,3c0,0.6,0.5,1,1,1c0.6,0,1-0.5,1-1c0-2.5-1.7-4.6-4.2-5.1
	v-1.2c0-0.6-0.5-1-1-1s-1,0.5-1,1v1.1c-2.8,0.6-4.6,3.4-4.1,6.2c0.4,2,2,3.6,4.1,4.1v6.2C34.2,32.8,33.4,31.6,33.4,30.3z M39.7,30.3
	c0,1.3-0.8,2.5-2.1,3v-5.9C38.8,27.8,39.7,28.9,39.7,30.3z M33.4,21.9c0-1.3,0.8-2.5,2.1-3v5.9C34.3,24.4,33.4,23.2,33.4,21.9z"/>
</svg>
