<?xml version="1.0" encoding="utf-8"?>
<!-- Generator: Adobe Illustrator 23.0.1, SVG Export Plug-In . SVG Version: 6.00 Build 0)  -->
<svg version="1.1" id="Layer_1" xmlns="http://www.w3.org/2000/svg" xmlns:xlink="http://www.w3.org/1999/xlink" x="0px" y="0px"
	 viewBox="0 0 105.1 89.6" style="enable-background:new 0 0 105.1 89.6;" xml:space="preserve">
<title>new-icon-payments</title>
<path d="M82.3,58.5h-0.4V22.9c0-2.3-1.9-4.2-4.2-4.2H27.5c-2.3,0-4.2,1.9-4.2,4.2v35.6h-0.4c-0.9,0-1.6,0.7-1.6,1.7l0,0v3
	c0,0.9,0.7,1.6,1.6,1.6h59.4c0.9,0,1.7-0.7,1.7-1.6v0v-3C83.9,59.2,83.2,58.5,82.3,58.5z M25.4,22.9c0-1.2,0.9-2.1,2.1-2.1h50.2
	c1.2,0,2.1,0.9,2.1,2.1v35.6H58l-0.3,0.7c-0.1,0.2-0.3,0.3-0.5,0.3h-8.4c-0.2,0-0.4-0.1-0.5-0.3l-0.2-0.7H25.4V22.9z M81.8,62.7
	H23.3v-2.1h23.5c0.5,0.7,1.3,1,2.1,1h8.4c0.8,0,1.6-0.4,2.1-1h22.5V62.7z"/>
<path d="M77.6,55.4V24c0-0.6-0.4-1-1-1H28.5c-0.6,0-1,0.4-1,1v31.4c0,0.6,0.4,1,1,1h48.1C77.1,56.4,77.6,56,77.6,55.4
	C77.6,55.4,77.6,55.4,77.6,55.4z M75.5,54.4h-46V25h46V54.4L75.5,54.4z"/>
<path d="M49.4,43.8c0-0.6-0.5-1-1-1c-0.6,0-1,0.5-1,1c0,2.5,1.7,4.6,4.2,5.2v1.2c0,0.6,0.5,1,1.1,1c0.6,0,1-0.5,1-1V49
	c2.8-0.6,4.7-3.3,4.1-6.2c-0.4-2.1-2-3.7-4.1-4.1v-6.2c1.3,0.5,2.1,1.7,2.1,3c0,0.6,0.5,1,1,1c0.6,0,1-0.5,1-1
	c0-2.5-1.7-4.6-4.2-5.1v-1.2c0-0.6-0.5-1-1-1s-1,0.5-1,1v1.1c-2.8,0.6-4.6,3.4-4.1,6.2c0.4,2,2,3.6,4.1,4.1v6.2
	C50.2,46.4,49.4,45.2,49.4,43.8z M55.7,43.8c0,1.3-0.8,2.5-2.1,3v-5.9C54.8,41.3,55.7,42.5,55.7,43.8z M49.4,35.5
	c0-1.3,0.8-2.5,2.1-3v5.9C50.3,38,49.4,36.8,49.4,35.5z"/>
</svg>
