<svg xmlns="http://www.w3.org/2000/svg" viewBox="0 0 105.08 89.64"><defs><style>.cls-1{fill:#dbdbdb;}</style></defs><title>new-icon-payments</title><g id="Layer_2" data-name="Layer 2"><g id="Layer_1-2" data-name="Layer 1"><path class="cls-1" d="M53.66,89.57c17.69.63,29.6-3.18,37.94-18.79C98.68,57.53,103.89,50,105,34.18S88.54,1,66.68,1C56.27,1,16.42-6.09,8.36,17.61S-6.28,60.58,10.25,75,42.41,89.17,53.66,89.57Z"/><path d="M82.26,58.49h-.44V22.94a4.19,4.19,0,0,0-4.18-4.18H27.45a4.19,4.19,0,0,0-4.19,4.18V58.49h-.44a1.65,1.65,0,0,0-1.65,1.65v3a1.65,1.65,0,0,0,1.65,1.65H82.26a1.65,1.65,0,0,0,1.65-1.65v-3A1.65,1.65,0,0,0,82.26,58.49ZM25.35,22.94a2.1,2.1,0,0,1,2.1-2.09H77.64a2.1,2.1,0,0,1,2.09,2.09V58.49H58l-.25.7a.53.53,0,0,1-.48.35H48.88a.54.54,0,0,1-.49-.35l-.24-.7H25.35ZM81.82,62.68H23.26v-2.1H46.8a2.59,2.59,0,0,0,2.08,1.05h8.37a2.6,2.6,0,0,0,2.08-1.05H81.82v2.1Z"/><path d="M77.63,55.36V24a1,1,0,0,0-1-1H28.49a1,1,0,0,0-1,1V55.36a1,1,0,0,0,1,1h48.1A1,1,0,0,0,77.63,55.36Zm-2.09-1h-46V25h46V54.31Z"/><path d="M49.4,43.85a1,1,0,0,0-2.09,0A5.25,5.25,0,0,0,51.49,49v1.15a1.05,1.05,0,0,0,2.1,0V49a5.23,5.23,0,0,0,0-10.25v-6.2a3.16,3.16,0,0,1,2.09,3,1,1,0,1,0,2.09,0,5.23,5.23,0,0,0-4.18-5.12V29.22a1,1,0,0,0-2.1,0v1.15a5.23,5.23,0,0,0,0,10.24v6.2A3.15,3.15,0,0,1,49.4,43.85Zm6.28,0a3.15,3.15,0,0,1-2.09,3V40.9A3.14,3.14,0,0,1,55.68,43.85ZM49.4,35.49a3.16,3.16,0,0,1,2.09-3v5.92A3.17,3.17,0,0,1,49.4,35.49Z"/></g></g></svg>