<svg id="Layer_1" xmlns="http://www.w3.org/2000/svg" xmlns:xlink="http://www.w3.org/1999/xlink" viewBox="0 0 29.7 29.7"><style>.st1{fill:#f89722}</style><path id="SVGID_1_" class="st1" d="M14.8 29.3C6.8 29.3.4 22.8.4 14.9S6.7.6 14.8.6 29.1 7 29.1 14.9s-6.4 14.4-14.3 14.4m0-25.9C8.4 3.4 3.4 8.6 3.4 14.9s5.2 11.3 11.5 11.2c6.3 0 11.3-5.2 11.2-11.5C26 8.5 20.9 3.4 14.8 3.4"/><defs><path id="SVGID_2_" d="M14.8 29.3C6.8 29.3.4 22.8.4 14.9S6.7.6 14.8.6 29.1 7 29.1 14.9s-6.4 14.4-14.3 14.4m0-25.9C8.4 3.4 3.4 8.6 3.4 14.9s5.2 11.3 11.5 11.2c6.3 0 11.3-5.2 11.2-11.5C26 8.5 20.9 3.4 14.8 3.4"/></defs><clipPath id="SVGID_4_"><use xlink:href="#SVGID_2_" overflow="visible"/></clipPath><g clip-path="url(#SVGID_4_)"><path class="st1" d="M.4.6h28.7v28.7H.4z"/><path id="SVGID_3_" class="st1" d="M.4.6h28.7v28.7H.4z"/><defs><path id="SVGID_5_" d="M.4.6h28.7v28.7H.4z"/></defs><clipPath id="SVGID_6_"><use xlink:href="#SVGID_5_" overflow="visible"/></clipPath><g clip-path="url(#SVGID_6_)"><path class="st1" d="M-6.8-6.6h43v43.1h-43z"/></g><path class="st1" d="M7.4 13.5h14.5v2.9H7.4z"/></g><path class="st1" d="M7.3 13.5h14.8v3.2H7.3z"/></svg>