<?xml version="1.0" encoding="utf-8"?>
<!-- Generator: Adobe Illustrator 22.0.1, SVG Export Plug-In . SVG Version: 6.00 Build 0)  -->
<svg version="1.1" id="Layer_1" xmlns="http://www.w3.org/2000/svg" xmlns:xlink="http://www.w3.org/1999/xlink" x="0px" y="0px"
	 viewBox="0 0 29.7 29.7" style="enable-background:new 0 0 29.7 29.7;" xml:space="preserve">
<style type="text/css">
	.st0{fill:#1558A6;}
</style>
<path class="st0" d="M14.9,24.8c-5.5,0-10-4.5-10-10c0-5.5,4.5-10,10-10s10,4.5,10,10v0C24.9,20.3,20.4,24.8,14.9,24.8 M14.9,6.9
	c-4.4,0-7.9,3.6-7.9,8c0,4.4,3.6,7.9,8,7.8c4.4,0,7.9-3.6,7.8-8C22.8,10.4,19.2,6.9,14.9,6.9"/>
<circle class="st0" cx="14.9" cy="14.7" r="1.4"/>
<circle class="st0" cx="18.9" cy="14.6" r="1.4"/>
<circle class="st0" cx="10.9" cy="14.7" r="1.4"/>
</svg>
