<?xml version="1.0" encoding="utf-8"?>
<!-- Generator: Adobe Illustrator 22.1.0, SVG Export Plug-In . SVG Version: 6.00 Build 0)  -->
<svg version="1.1" id="Layer_1" xmlns="http://www.w3.org/2000/svg" xmlns:xlink="http://www.w3.org/1999/xlink" x="0px" y="0px"
	 viewBox="0 0 29.7 29.7" style="enable-background:new 0 0 29.7 29.7;" xml:space="preserve">
<style type="text/css">
	.st0{fill:#F89722;}
</style>
<g>
	<path class="st0" d="M14.8,23.6c-0.9,0-1.6-0.7-1.6-1.6c0-0.9,0.7-1.6,1.6-1.6c0.9,0,1.6,0.7,1.6,1.6
		C16.4,22.9,15.7,23.6,14.8,23.6C14.9,23.6,14.9,23.6,14.8,23.6z"/>
	<path class="st0" d="M16.4,17.3c0,0.9-0.7,1.6-1.6,1.6c-0.9,0-1.6-0.7-1.6-1.6v-6.4c0-0.9,0.7-1.6,1.6-1.6s1.6,0.7,1.6,1.6
		c0,0,0,0,0,0V17.3z"/>
</g>
<path class="st0" d="M26,28.4H3.7c-1.2,0-2.3-0.6-3-1.7c-0.6-1-0.6-2.3-0.1-3.3L11.8,3c0.6-1.1,1.8-1.8,3-1.8c1.3,0,2.4,0.7,3,1.8
	L29,23.4c0.6,1.1,0.6,2.3-0.1,3.3C28.4,27.8,27.2,28.4,26,28.4z M14.9,4.4c-0.1,0-0.2,0-0.2,0.1L3.5,25c0,0,0,0.1,0,0.2
	c0,0.1,0.1,0.1,0.2,0.1H26c0.1,0,0.2,0,0.2-0.1c0-0.1,0-0.1,0-0.2L15.1,4.6C15,4.5,15,4.4,14.9,4.4z"/>
</svg>
