<?xml version="1.0" encoding="utf-8"?>
<!-- Generator: Adobe Illustrator 22.0.1, SVG Export Plug-In . SVG Version: 6.00 Build 0)  -->
<svg version="1.1" id="Layer_1" xmlns="http://www.w3.org/2000/svg" xmlns:xlink="http://www.w3.org/1999/xlink" x="0px" y="0px"
	 viewBox="0 0 29.7 29.7" style="enable-background:new 0 0 29.7 29.7;" xml:space="preserve">
<style type="text/css">
	.st0{fill:#2AB34B;}
</style>
<path class="st0" d="M14.9,29.3c-8,0-14.5-6.5-14.5-14.5S6.9,0.3,14.9,0.3s14.5,6.5,14.5,14.5l0,0C29.4,22.8,22.9,29.3,14.9,29.3
	 M14.9,3.3C8.5,3.4,3.4,8.6,3.4,14.9C3.5,21.2,8.7,26.3,15,26.2c6.3-0.1,11.4-5.3,11.3-11.6C26.2,8.4,21.2,3.3,14.9,3.3"/>
<polygon class="st0" points="23.1,10.7 21,8.7 12.8,16.9 8.7,12.8 6.7,14.8 10.8,19 12.8,21 14.9,19 "/>
</svg>
