<svg id="Layer_1" xmlns="http://www.w3.org/2000/svg" xmlns:xlink="http://www.w3.org/1999/xlink" viewBox="0 0 29.7 29.7"><style>.st0{fill:#2ab34b}</style><path class="st0" d="M23 10.8l-2.1-2-8.2 8.2-4.1-4.1-2 2 4.1 4.2 2 2 2.1-2z"/><path id="SVGID_4_" class="st0" d="M14.8 29.3C6.8 29.3.4 22.8.4 14.9S6.8.6 14.8.6 29.2 7 29.2 14.9s-6.5 14.4-14.4 14.4m0-25.9C8.5 3.4 3.5 8.6 3.5 14.9S8.7 26.3 15 26.1c6.3 0 11.3-5.2 11.2-11.5C26 8.5 21 3.4 14.8 3.4"/><defs><path id="SVGID_1_" d="M14.8 29.3C6.8 29.3.4 22.8.4 14.9S6.8.6 14.8.6 29.2 7 29.2 14.9s-6.5 14.4-14.4 14.4m0-25.9C8.5 3.4 3.5 8.6 3.5 14.9S8.7 26.3 15 26.1c6.3 0 11.3-5.2 11.2-11.5C26 8.5 21 3.4 14.8 3.4"/></defs><use xlink:href="#SVGID_1_" overflow="visible" fill="#2ab34b"/><clipPath id="SVGID_3_"><use xlink:href="#SVGID_1_" overflow="visible"/></clipPath><g clip-path="url(#SVGID_3_)"><path class="st0" d="M.5.6h28.7v28.7H.5z"/><path id="SVGID_2_" class="st0" d="M.5.6h28.7v28.7H.5z"/><defs><path id="SVGID_5_" d="M.5.6h28.7v28.7H.5z"/></defs><use xlink:href="#SVGID_5_" overflow="visible" fill="#2ab34b"/><clipPath id="SVGID_6_"><use xlink:href="#SVGID_5_" overflow="visible"/></clipPath><g clip-path="url(#SVGID_6_)"><path class="st0" d="M-6.7-6.6h43v43.1h-43z"/></g><path class="st0" d="M7.5 13.5H22v2.9H7.5z"/></g></svg>