<?xml version="1.0" encoding="utf-8"?>
<!-- Generator: Adobe Illustrator 22.0.1, SVG Export Plug-In . SVG Version: 6.00 Build 0)  -->
<svg version="1.1" id="Layer_1" xmlns="http://www.w3.org/2000/svg" xmlns:xlink="http://www.w3.org/1999/xlink" x="0px" y="0px"
	 viewBox="0 0 29.7 29.7" style="enable-background:new 0 0 29.7 29.7;" xml:space="preserve">
<style type="text/css">
	.st0{fill:#F89621;}
	.st1{fill:#2AB34B;}
</style>
<path class="st0" d="M14.9,25c-5.5,0-10-4.5-10-10s4.5-10,10-10s10,4.5,10,10v0C24.9,20.5,20.5,25,14.9,25 M14.9,7
	c-4.4,0-7.9,3.6-7.9,8c0,4.4,3.6,7.9,8,7.8c4.4,0,7.9-3.6,7.8-8C22.8,10.5,19.3,7,14.9,7"/>
<path class="st1" d="M15.4,22.1"/>
<polygon class="st0" points="14.7,19.6 16.2,18.2 13.9,16 20.6,16 20.6,14 13.9,14 16.2,11.7 14.7,10.3 10.2,15 "/>
</svg>
