<svg id="Layer_1" data-name="Layer 1" xmlns="http://www.w3.org/2000/svg" xmlns:xlink="http://www.w3.org/1999/xlink" viewBox="0 0 29.91 29.95"><defs><style>.cls-1,.cls-2,.cls-3{fill:#1057a7;}.cls-1{clip-rule:evenodd;}.cls-3{fill-rule:evenodd;}.cls-4{clip-path:url(#clip-path);}.cls-5{clip-path:url(#clip-path-2);}</style><clipPath id="clip-path" transform="translate(4.64 3.96)"><path class="cls-1" d="M10.3,21a10,10,0,1,1,10-10,10,10,0,0,1-10,10m0-17.92a8,8,0,0,0-7.91,8,7.91,7.91,0,1,0,7.91-8"/></clipPath><clipPath id="clip-path-2" transform="translate(4.64 3.96)"><rect class="cls-2" x="0.36" y="1.04" width="20" height="20"/></clipPath></defs><title>status-submitted</title><path class="cls-3" d="M10.3,21a10,10,0,1,1,10-10,10,10,0,0,1-10,10m0-17.92a8,8,0,0,0-7.91,8,7.91,7.91,0,1,0,7.91-8" transform="translate(4.64 3.96)"/><g class="cls-4"><rect class="cls-2" x="5" y="5" width="20" height="20"/><g class="cls-5"><rect class="cls-2" width="29.91" height="29.95"/></g></g><polygon class="cls-2" points="15.8 10.35 14.38 11.76 16.6 13.98 9.91 13.98 9.91 15.97 16.6 15.97 14.38 18.19 15.8 19.6 20.35 14.97 15.8 10.35"/></svg>