<?xml version="1.0" encoding="utf-8"?>
<!-- Generator: Adobe Illustrator 22.0.1, SVG Export Plug-In . SVG Version: 6.00 Build 0)  -->
<svg version="1.1" id="Layer_1" xmlns="http://www.w3.org/2000/svg" xmlns:xlink="http://www.w3.org/1999/xlink" x="0px" y="0px"
	 viewBox="0 0 29.7 29.7" style="enable-background:new 0 0 29.7 29.7;" xml:space="preserve">
<style type="text/css">
	.st0{fill:#CB2026;}
</style>
<path class="st0" d="M14.9,29.5C6.9,29.5,0.4,23,0.4,15S6.9,0.5,14.9,0.5S29.4,7,29.4,15l0,0C29.4,23,22.9,29.5,14.9,29.5 M14.9,3.5
	C8.5,3.6,3.4,8.8,3.4,15.1C3.5,21.4,8.7,26.5,15,26.4c6.3-0.1,11.4-5.3,11.3-11.6C26.2,8.6,21.2,3.5,14.9,3.5"/>
<polygon class="st0" points="19,8.8 14.9,12.9 10.8,8.8 8.7,10.8 12.9,15 8.7,19.1 10.8,21.1 14.9,17 19,21.1 21,19.1 16.9,15 
	21,10.8 "/>
</svg>
