<svg id="Layer_1" data-name="Layer 1" xmlns="http://www.w3.org/2000/svg" xmlns:xlink="http://www.w3.org/1999/xlink" viewBox="0 0 29.91 29.95"><defs><style>.cls-1,.cls-2,.cls-3{fill:#c00;}.cls-1{clip-rule:evenodd;}.cls-3{fill-rule:evenodd;}.cls-4{clip-path:url(#clip-path);}.cls-5{clip-path:url(#clip-path-2);}</style><clipPath id="clip-path" transform="translate(4.64 3.96)"><path class="cls-1" d="M10.3,21a10,10,0,1,1,10-10,10,10,0,0,1-10,10m0-17.92a8,8,0,0,0-7.91,8,7.91,7.91,0,1,0,7.91-8"/></clipPath><clipPath id="clip-path-2" transform="translate(4.64 3.96)"><rect class="cls-2" x="0.36" y="1.04" width="20" height="20"/></clipPath></defs><title>status-rejected</title><path class="cls-3" d="M10.3,21a10,10,0,1,1,10-10,10,10,0,0,1-10,10m0-17.92a8,8,0,0,0-7.91,8,7.91,7.91,0,1,0,7.91-8" transform="translate(4.64 3.96)"/><g class="cls-4"><rect class="cls-2" x="5" y="5" width="20" height="20"/><g class="cls-5"><rect class="cls-2" width="29.91" height="29.95"/></g></g><polygon class="cls-2" points="17.82 10.7 14.96 13.56 12.09 10.7 10.68 12.11 13.54 14.97 10.68 17.84 12.09 19.25 14.96 16.39 17.82 19.25 19.23 17.84 16.37 14.97 19.23 12.11 17.82 10.7"/></svg>