<?xml version="1.0" encoding="utf-8"?>
<!-- Generator: Adobe Illustrator 21.1.0, SVG Export Plug-In . SVG Version: 6.00 Build 0)  -->
<svg version="1.1" id="Layer_1" xmlns="http://www.w3.org/2000/svg" xmlns:xlink="http://www.w3.org/1999/xlink" x="0px" y="0px"
	 viewBox="0 0 29.9 30" style="enable-background:new 0 0 29.9 30;" xml:space="preserve">
<style type="text/css">
	.st0{fill:#F8961D;}
	.st1{clip-path:url(#SVGID_2_);}
	.st2{clip-path:url(#SVGID_4_);}
</style>
<title>status-incomplete</title>
<path class="st0" d="M14.9,25c-5.5,0-10-4.5-10-10s4.5-10,10-10s10,4.5,10,10v0C24.9,20.5,20.5,25,14.9,25 M14.9,7
	c-4.4,0-7.9,3.6-7.9,8c0,4.4,3.6,7.9,8,7.8c4.4,0,7.9-3.6,7.8-8C22.8,10.5,19.3,7,14.9,7"/>
<g>
	<defs>
		<path id="SVGID_1_" d="M15,25C9.4,25,5,20.5,5,15S9.4,5,15,5s10,4.5,10,10v0C25,20.5,20.5,25,15,25 M15,7c-4.4,0-7.9,3.6-7.9,8
			c0,4.4,3.6,7.9,8,7.8c4.4,0,7.9-3.6,7.8-8C22.8,10.5,19.3,7,15,7"/>
	</defs>
	<use xlink:href="#SVGID_1_"  style="overflow:visible;fill:#F8961D;"/>
	<clipPath id="SVGID_2_">
		<use xlink:href="#SVGID_1_"  style="overflow:visible;"/>
	</clipPath>
	<g class="st1">
		<rect x="5" y="5" class="st0" width="20" height="20"/>
		<g>
			<defs>
				<rect id="SVGID_3_" x="5" y="5" width="20" height="20"/>
			</defs>
			<use xlink:href="#SVGID_3_"  style="overflow:visible;fill:#F8961D;"/>
			<clipPath id="SVGID_4_">
				<use xlink:href="#SVGID_3_"  style="overflow:visible;"/>
			</clipPath>
			<g class="st2">
				<rect x="0" class="st0" width="29.9" height="30"/>
			</g>
		</g>
		<rect x="9.9" y="14" class="st0" width="10.1" height="2"/>
	</g>
</g>
<rect x="9.8" y="14" class="st0" width="10.3" height="2.2"/>
</svg>
